M48
; DRILL file {KiCad 9.0.1} date 2025-09-27T18:47:18-0400
; FORMAT={-:-/ absolute / metric / decimal}
; #@! TF.CreationDate,2025-09-27T18:47:18-04:00
; #@! TF.GenerationSoftware,Kicad,Pcbnew,9.0.1
; #@! TF.FileFunction,Plated,1,4,PTH
FMAT,2
METRIC
; #@! TA.AperFunction,Plated,PTH,ViaDrill
T1C0.300
; #@! TA.AperFunction,Plated,PTH,ComponentDrill
T2C0.800
; #@! TA.AperFunction,Plated,PTH,ComponentDrill
T3C1.000
%
G90
G05
T1
X82.64Y-44.565
X82.94Y-80.165
X83.015Y-72.215
X83.16Y-46.18
X83.165Y-88.365
X83.24Y-64.34
X83.365Y-76.69
X83.49Y-53.64
X83.54Y-84.84
X83.59Y-57.24
X83.59Y-68.69
X83.621Y-61.427
X84.015Y-92.99
X84.04Y-49.34
X84.49Y-39.49
X84.781Y-43.326
X87.79Y-51.24
X88.015Y-74.34
X88.09Y-82.265
X88.29Y-66.54
X88.315Y-90.24
X88.39Y-58.99
X88.54Y-43.31
X88.59Y-39.34
X88.59Y-70.44
X88.59Y-78.34
X88.64Y-86.365
X88.69Y-47.34
X88.74Y-62.64
X89.19Y-51.24
X89.215Y-74.315
X89.34Y-66.49
X89.49Y-58.99
X89.54Y-90.265
X89.565Y-82.365
X90.39Y-43.34
X90.6Y-55.18
X90.74Y-94.39
X92.09Y-51.24
X92.09Y-82.34
X92.215Y-74.415
X92.24Y-59.04
X92.24Y-66.59
X92.365Y-90.29
X92.57Y-43.26
X92.59Y-39.34
X92.59Y-78.34
X92.64Y-70.44
X92.665Y-86.44
X92.69Y-47.14
X92.69Y-62.64
X93.19Y-59.04
X93.29Y-66.64
X93.315Y-74.39
X93.365Y-90.29
X93.39Y-51.29
X93.465Y-82.34
X94.59Y-55.19
X94.69Y-43.24
X94.79Y-94.39
X95.99Y-51.24
X96.04Y-59.04
X96.165Y-82.415
X96.215Y-74.365
X96.24Y-90.24
X96.29Y-66.54
X96.47Y-43.35
X96.59Y-39.34
X96.59Y-47.14
X96.59Y-78.34
X96.665Y-86.39
X96.69Y-70.44
X96.79Y-62.64
X97.09Y-51.19
X97.265Y-90.215
X97.29Y-59.04
X97.315Y-74.365
X97.365Y-82.24
X97.44Y-66.54
X97.69Y-43.24
X98.59Y-55.19
X98.715Y-94.39
X99.89Y-51.24
X100.19Y-74.415
X100.215Y-82.29
X100.24Y-59.04
X100.24Y-66.49
X100.415Y-90.265
X100.51Y-43.22
X100.59Y-39.34
X100.59Y-78.34
X100.64Y-70.44
X100.64Y-86.29
X100.69Y-47.14
X100.69Y-62.69
X101.19Y-51.09
X101.19Y-58.94
X101.29Y-74.365
X101.34Y-66.49
X101.34Y-90.24
X101.515Y-82.29
X101.59Y-43.24
X102.54Y-55.19
X102.69Y-94.39
X103.89Y-51.14
X104.065Y-74.39
X104.09Y-82.265
X104.19Y-66.49
X104.29Y-90.24
X104.34Y-58.99
X104.45Y-43.24
X104.59Y-39.34
X104.59Y-47.14
X104.59Y-78.34
X104.69Y-70.44
X104.715Y-86.29
X104.74Y-62.69
X105.19Y-51.14
X105.215Y-90.215
X105.29Y-66.49
X105.39Y-74.39
X105.49Y-58.99
X105.54Y-82.265
X105.59Y-43.24
X106.59Y-55.19
X106.69Y-94.39
X108.09Y-51.14
X108.215Y-74.365
X108.23Y-43.18
X108.24Y-66.54
X108.29Y-82.34
X108.34Y-90.265
X108.49Y-58.99
X108.59Y-39.34
X108.59Y-47.14
X108.59Y-70.49
X108.59Y-78.34
X108.69Y-62.69
X108.74Y-86.29
X109.09Y-51.04
X109.29Y-66.49
X109.365Y-90.165
X109.44Y-58.99
X109.465Y-74.365
X109.465Y-82.24
X109.49Y-43.34
X110.64Y-55.19
X110.69Y-94.365
X112.09Y-82.39
X112.115Y-74.39
X112.14Y-43.28
X112.29Y-51.14
X112.29Y-66.49
X112.29Y-90.24
X112.49Y-59.04
X112.54Y-86.315
X112.59Y-39.34
X112.59Y-47.14
X112.62Y-78.37
X112.69Y-62.69
X112.74Y-70.44
X113.24Y-74.465
X113.24Y-90.19
X113.29Y-51.24
X113.34Y-66.59
X113.49Y-59.04
X113.59Y-43.34
X113.615Y-82.415
X114.59Y-55.19
X114.59Y-94.365
X115.965Y-74.465
X115.97Y-43.32
X116.065Y-82.44
X116.165Y-90.34
X116.19Y-51.24
X116.29Y-66.59
X116.465Y-86.465
X116.54Y-70.49
X116.59Y-39.34
X116.59Y-47.14
X116.59Y-59.09
X116.59Y-78.34
X116.64Y-62.69
X117.14Y-90.29
X117.19Y-51.24
X117.265Y-74.44
X117.34Y-66.64
X117.415Y-82.465
X117.49Y-43.34
X117.49Y-59.04
X118.59Y-55.19
X118.69Y-94.265
X119.99Y-82.44
X120.09Y-74.49
X120.14Y-90.34
X120.19Y-51.24
X120.19Y-66.64
X120.38Y-43.3
X120.39Y-59.04
X120.59Y-39.34
X120.59Y-47.14
X120.64Y-86.39
X120.74Y-70.64
X120.89Y-62.69
X121.09Y-78.34
X121.188Y-58.979
X121.19Y-74.44
X121.29Y-66.69
X121.29Y-82.44
X121.29Y-90.34
X121.49Y-51.24
X121.69Y-43.34
X122.64Y-55.19
X122.715Y-94.34
X123.99Y-51.14
X124.115Y-90.29
X124.165Y-82.465
X124.19Y-43.31
X124.24Y-66.64
X124.265Y-74.44
X124.39Y-58.99
X124.59Y-39.34
X124.59Y-47.14
X124.64Y-70.59
X124.69Y-62.69
X124.815Y-86.39
X125.09Y-51.24
X125.09Y-78.34
X125.315Y-90.265
X125.415Y-82.415
X125.44Y-58.99
X125.44Y-66.64
X125.49Y-43.34
X125.515Y-74.44
X126.49Y-55.19
X126.865Y-94.34
X128.09Y-51.24
X128.24Y-58.99
X128.27Y-43.35
X128.39Y-90.29
X128.44Y-74.44
X128.49Y-47.14
X128.49Y-66.74
X128.565Y-82.39
X128.59Y-39.34
X128.64Y-62.69
X128.84Y-86.44
X129.09Y-70.59
X129.09Y-78.34
X129.24Y-58.99
X129.465Y-90.315
X129.49Y-43.34
X129.49Y-51.14
X129.64Y-66.69
X129.64Y-74.465
X129.64Y-82.465
X130.64Y-55.19
X130.99Y-94.34
X132.19Y-51.24
X132.23Y-43.33
X132.34Y-58.99
X132.415Y-82.34
X132.44Y-90.265
X132.465Y-74.44
X132.49Y-66.74
X132.59Y-39.34
X132.59Y-47.14
X132.74Y-62.69
X133.04Y-70.54
X133.065Y-78.34
X133.09Y-86.49
X133.19Y-58.99
X133.39Y-51.14
X133.54Y-90.24
X133.59Y-43.34
X133.765Y-74.415
X133.815Y-82.44
X133.94Y-66.64
X134.59Y-55.19
X135.115Y-94.365
X136.19Y-51.24
X136.2Y-43.36
X136.39Y-58.99
X136.465Y-90.29
X136.49Y-74.44
X136.515Y-82.44
X136.59Y-39.34
X136.59Y-47.14
X136.59Y-66.69
X136.69Y-62.69
X137.015Y-78.34
X137.015Y-86.515
X137.04Y-70.54
X137.24Y-58.94
X137.29Y-51.14
X137.44Y-90.265
X137.59Y-82.365
X137.69Y-43.24
X137.74Y-74.415
X139.82Y-43.17
X139.89Y-51.14
X140.39Y-74.39
X140.39Y-82.365
X140.54Y-58.79
X140.54Y-90.49
X140.69Y-60.14
X140.69Y-66.74
X140.94Y-65.64
T2
X79.84Y-41.81
X79.84Y-43.81
X79.84Y-45.81
X79.84Y-47.81
T3
X79.765Y-52.995
X79.765Y-55.535
X79.765Y-58.075
X79.765Y-60.615
M30
