%TF.GenerationSoftware,KiCad,Pcbnew,9.0.1*%
%TF.CreationDate,2025-09-27T18:47:18-04:00*%
%TF.ProjectId,GRID,47524944-2e6b-4696-9361-645f70636258,rev?*%
%TF.SameCoordinates,Original*%
%TF.FileFunction,Drillmap*%
%TF.FilePolarity,Positive*%
%FSLAX45Y45*%
G04 Gerber Fmt 4.5, Leading zero omitted, Abs format (unit mm)*
G04 Created by KiCad (PCBNEW 9.0.1) date 2025-09-27 18:47:18*
%MOMM*%
%LPD*%
G01*
G04 APERTURE LIST*
%ADD10C,0.050000*%
%ADD11C,0.200000*%
%ADD12C,0.115200*%
G04 APERTURE END LIST*
D10*
X7109000Y-3834000D02*
X7109000Y-9534000D01*
X14409000Y-9534000D02*
X7109000Y-9534000D01*
X14409000Y-3834000D02*
X14409000Y-9534000D01*
X14309000Y-3834000D02*
X14409000Y-3834000D01*
X7109000Y-3834000D02*
X14309000Y-3834000D01*
D11*
D12*
X7136400Y-3858900D02*
X7251600Y-3974100D01*
X7251600Y-3858900D02*
X7136400Y-3974100D01*
X7146400Y-9371400D02*
X7261600Y-9486600D01*
X7261600Y-9371400D02*
X7146400Y-9486600D01*
X14256400Y-9381400D02*
X14371600Y-9496600D01*
X14371600Y-9381400D02*
X14256400Y-9496600D01*
X14261400Y-3878900D02*
X14376600Y-3994100D01*
X14376600Y-3878900D02*
X14261400Y-3994100D01*
D11*
X7367277Y-9847984D02*
X7367277Y-9647984D01*
X7367277Y-9647984D02*
X7414896Y-9647984D01*
X7414896Y-9647984D02*
X7443467Y-9657508D01*
X7443467Y-9657508D02*
X7462515Y-9676555D01*
X7462515Y-9676555D02*
X7472039Y-9695603D01*
X7472039Y-9695603D02*
X7481562Y-9733698D01*
X7481562Y-9733698D02*
X7481562Y-9762270D01*
X7481562Y-9762270D02*
X7472039Y-9800365D01*
X7472039Y-9800365D02*
X7462515Y-9819412D01*
X7462515Y-9819412D02*
X7443467Y-9838460D01*
X7443467Y-9838460D02*
X7414896Y-9847984D01*
X7414896Y-9847984D02*
X7367277Y-9847984D01*
X7567277Y-9847984D02*
X7567277Y-9714650D01*
X7567277Y-9752746D02*
X7576801Y-9733698D01*
X7576801Y-9733698D02*
X7586324Y-9724174D01*
X7586324Y-9724174D02*
X7605372Y-9714650D01*
X7605372Y-9714650D02*
X7624420Y-9714650D01*
X7691086Y-9847984D02*
X7691086Y-9714650D01*
X7691086Y-9647984D02*
X7681562Y-9657508D01*
X7681562Y-9657508D02*
X7691086Y-9667031D01*
X7691086Y-9667031D02*
X7700610Y-9657508D01*
X7700610Y-9657508D02*
X7691086Y-9647984D01*
X7691086Y-9647984D02*
X7691086Y-9667031D01*
X7814896Y-9847984D02*
X7795848Y-9838460D01*
X7795848Y-9838460D02*
X7786324Y-9819412D01*
X7786324Y-9819412D02*
X7786324Y-9647984D01*
X7919658Y-9847984D02*
X7900610Y-9838460D01*
X7900610Y-9838460D02*
X7891086Y-9819412D01*
X7891086Y-9819412D02*
X7891086Y-9647984D01*
X8148229Y-9847984D02*
X8148229Y-9647984D01*
X8148229Y-9647984D02*
X8214896Y-9790841D01*
X8214896Y-9790841D02*
X8281562Y-9647984D01*
X8281562Y-9647984D02*
X8281562Y-9847984D01*
X8462515Y-9847984D02*
X8462515Y-9743222D01*
X8462515Y-9743222D02*
X8452991Y-9724174D01*
X8452991Y-9724174D02*
X8433944Y-9714650D01*
X8433944Y-9714650D02*
X8395848Y-9714650D01*
X8395848Y-9714650D02*
X8376801Y-9724174D01*
X8462515Y-9838460D02*
X8443467Y-9847984D01*
X8443467Y-9847984D02*
X8395848Y-9847984D01*
X8395848Y-9847984D02*
X8376801Y-9838460D01*
X8376801Y-9838460D02*
X8367277Y-9819412D01*
X8367277Y-9819412D02*
X8367277Y-9800365D01*
X8367277Y-9800365D02*
X8376801Y-9781317D01*
X8376801Y-9781317D02*
X8395848Y-9771793D01*
X8395848Y-9771793D02*
X8443467Y-9771793D01*
X8443467Y-9771793D02*
X8462515Y-9762270D01*
X8557753Y-9714650D02*
X8557753Y-9914650D01*
X8557753Y-9724174D02*
X8576801Y-9714650D01*
X8576801Y-9714650D02*
X8614896Y-9714650D01*
X8614896Y-9714650D02*
X8633944Y-9724174D01*
X8633944Y-9724174D02*
X8643467Y-9733698D01*
X8643467Y-9733698D02*
X8652991Y-9752746D01*
X8652991Y-9752746D02*
X8652991Y-9809889D01*
X8652991Y-9809889D02*
X8643467Y-9828936D01*
X8643467Y-9828936D02*
X8633944Y-9838460D01*
X8633944Y-9838460D02*
X8614896Y-9847984D01*
X8614896Y-9847984D02*
X8576801Y-9847984D01*
X8576801Y-9847984D02*
X8557753Y-9838460D01*
X8738705Y-9828936D02*
X8748229Y-9838460D01*
X8748229Y-9838460D02*
X8738705Y-9847984D01*
X8738705Y-9847984D02*
X8729182Y-9838460D01*
X8729182Y-9838460D02*
X8738705Y-9828936D01*
X8738705Y-9828936D02*
X8738705Y-9847984D01*
X8738705Y-9724174D02*
X8748229Y-9733698D01*
X8748229Y-9733698D02*
X8738705Y-9743222D01*
X8738705Y-9743222D02*
X8729182Y-9733698D01*
X8729182Y-9733698D02*
X8738705Y-9724174D01*
X8738705Y-9724174D02*
X8738705Y-9743222D01*
D12*
X6991300Y-10118900D02*
X7106500Y-10234100D01*
X7106500Y-10118900D02*
X6991300Y-10234100D01*
D11*
X7472039Y-10267984D02*
X7357753Y-10267984D01*
X7414896Y-10267984D02*
X7414896Y-10067984D01*
X7414896Y-10067984D02*
X7395848Y-10096555D01*
X7395848Y-10096555D02*
X7376801Y-10115603D01*
X7376801Y-10115603D02*
X7357753Y-10125127D01*
X7557753Y-10248936D02*
X7567277Y-10258460D01*
X7567277Y-10258460D02*
X7557753Y-10267984D01*
X7557753Y-10267984D02*
X7548229Y-10258460D01*
X7548229Y-10258460D02*
X7557753Y-10248936D01*
X7557753Y-10248936D02*
X7557753Y-10267984D01*
X7757753Y-10267984D02*
X7643467Y-10267984D01*
X7700610Y-10267984D02*
X7700610Y-10067984D01*
X7700610Y-10067984D02*
X7681562Y-10096555D01*
X7681562Y-10096555D02*
X7662515Y-10115603D01*
X7662515Y-10115603D02*
X7643467Y-10125127D01*
X7938705Y-10067984D02*
X7843467Y-10067984D01*
X7843467Y-10067984D02*
X7833943Y-10163222D01*
X7833943Y-10163222D02*
X7843467Y-10153698D01*
X7843467Y-10153698D02*
X7862515Y-10144174D01*
X7862515Y-10144174D02*
X7910134Y-10144174D01*
X7910134Y-10144174D02*
X7929182Y-10153698D01*
X7929182Y-10153698D02*
X7938705Y-10163222D01*
X7938705Y-10163222D02*
X7948229Y-10182270D01*
X7948229Y-10182270D02*
X7948229Y-10229889D01*
X7948229Y-10229889D02*
X7938705Y-10248936D01*
X7938705Y-10248936D02*
X7929182Y-10258460D01*
X7929182Y-10258460D02*
X7910134Y-10267984D01*
X7910134Y-10267984D02*
X7862515Y-10267984D01*
X7862515Y-10267984D02*
X7843467Y-10258460D01*
X7843467Y-10258460D02*
X7833943Y-10248936D01*
X8024420Y-10087031D02*
X8033943Y-10077508D01*
X8033943Y-10077508D02*
X8052991Y-10067984D01*
X8052991Y-10067984D02*
X8100610Y-10067984D01*
X8100610Y-10067984D02*
X8119658Y-10077508D01*
X8119658Y-10077508D02*
X8129182Y-10087031D01*
X8129182Y-10087031D02*
X8138705Y-10106079D01*
X8138705Y-10106079D02*
X8138705Y-10125127D01*
X8138705Y-10125127D02*
X8129182Y-10153698D01*
X8129182Y-10153698D02*
X8014896Y-10267984D01*
X8014896Y-10267984D02*
X8138705Y-10267984D01*
X8224420Y-10267984D02*
X8224420Y-10134650D01*
X8224420Y-10153698D02*
X8233943Y-10144174D01*
X8233943Y-10144174D02*
X8252991Y-10134650D01*
X8252991Y-10134650D02*
X8281563Y-10134650D01*
X8281563Y-10134650D02*
X8300610Y-10144174D01*
X8300610Y-10144174D02*
X8310134Y-10163222D01*
X8310134Y-10163222D02*
X8310134Y-10267984D01*
X8310134Y-10163222D02*
X8319658Y-10144174D01*
X8319658Y-10144174D02*
X8338705Y-10134650D01*
X8338705Y-10134650D02*
X8367277Y-10134650D01*
X8367277Y-10134650D02*
X8386324Y-10144174D01*
X8386324Y-10144174D02*
X8395848Y-10163222D01*
X8395848Y-10163222D02*
X8395848Y-10267984D01*
X8491086Y-10267984D02*
X8491086Y-10134650D01*
X8491086Y-10153698D02*
X8500610Y-10144174D01*
X8500610Y-10144174D02*
X8519658Y-10134650D01*
X8519658Y-10134650D02*
X8548229Y-10134650D01*
X8548229Y-10134650D02*
X8567277Y-10144174D01*
X8567277Y-10144174D02*
X8576801Y-10163222D01*
X8576801Y-10163222D02*
X8576801Y-10267984D01*
X8576801Y-10163222D02*
X8586325Y-10144174D01*
X8586325Y-10144174D02*
X8605372Y-10134650D01*
X8605372Y-10134650D02*
X8633944Y-10134650D01*
X8633944Y-10134650D02*
X8652991Y-10144174D01*
X8652991Y-10144174D02*
X8662515Y-10163222D01*
X8662515Y-10163222D02*
X8662515Y-10267984D01*
X9052991Y-10058460D02*
X8881563Y-10315603D01*
X9310134Y-10067984D02*
X9329182Y-10067984D01*
X9329182Y-10067984D02*
X9348229Y-10077508D01*
X9348229Y-10077508D02*
X9357753Y-10087031D01*
X9357753Y-10087031D02*
X9367277Y-10106079D01*
X9367277Y-10106079D02*
X9376801Y-10144174D01*
X9376801Y-10144174D02*
X9376801Y-10191793D01*
X9376801Y-10191793D02*
X9367277Y-10229889D01*
X9367277Y-10229889D02*
X9357753Y-10248936D01*
X9357753Y-10248936D02*
X9348229Y-10258460D01*
X9348229Y-10258460D02*
X9329182Y-10267984D01*
X9329182Y-10267984D02*
X9310134Y-10267984D01*
X9310134Y-10267984D02*
X9291087Y-10258460D01*
X9291087Y-10258460D02*
X9281563Y-10248936D01*
X9281563Y-10248936D02*
X9272039Y-10229889D01*
X9272039Y-10229889D02*
X9262515Y-10191793D01*
X9262515Y-10191793D02*
X9262515Y-10144174D01*
X9262515Y-10144174D02*
X9272039Y-10106079D01*
X9272039Y-10106079D02*
X9281563Y-10087031D01*
X9281563Y-10087031D02*
X9291087Y-10077508D01*
X9291087Y-10077508D02*
X9310134Y-10067984D01*
X9462515Y-10248936D02*
X9472039Y-10258460D01*
X9472039Y-10258460D02*
X9462515Y-10267984D01*
X9462515Y-10267984D02*
X9452991Y-10258460D01*
X9452991Y-10258460D02*
X9462515Y-10248936D01*
X9462515Y-10248936D02*
X9462515Y-10267984D01*
X9595848Y-10067984D02*
X9614896Y-10067984D01*
X9614896Y-10067984D02*
X9633944Y-10077508D01*
X9633944Y-10077508D02*
X9643468Y-10087031D01*
X9643468Y-10087031D02*
X9652991Y-10106079D01*
X9652991Y-10106079D02*
X9662515Y-10144174D01*
X9662515Y-10144174D02*
X9662515Y-10191793D01*
X9662515Y-10191793D02*
X9652991Y-10229889D01*
X9652991Y-10229889D02*
X9643468Y-10248936D01*
X9643468Y-10248936D02*
X9633944Y-10258460D01*
X9633944Y-10258460D02*
X9614896Y-10267984D01*
X9614896Y-10267984D02*
X9595848Y-10267984D01*
X9595848Y-10267984D02*
X9576801Y-10258460D01*
X9576801Y-10258460D02*
X9567277Y-10248936D01*
X9567277Y-10248936D02*
X9557753Y-10229889D01*
X9557753Y-10229889D02*
X9548229Y-10191793D01*
X9548229Y-10191793D02*
X9548229Y-10144174D01*
X9548229Y-10144174D02*
X9557753Y-10106079D01*
X9557753Y-10106079D02*
X9567277Y-10087031D01*
X9567277Y-10087031D02*
X9576801Y-10077508D01*
X9576801Y-10077508D02*
X9595848Y-10067984D01*
X9833944Y-10134650D02*
X9833944Y-10267984D01*
X9786325Y-10058460D02*
X9738706Y-10201317D01*
X9738706Y-10201317D02*
X9862515Y-10201317D01*
X10033944Y-10067984D02*
X9938706Y-10067984D01*
X9938706Y-10067984D02*
X9929182Y-10163222D01*
X9929182Y-10163222D02*
X9938706Y-10153698D01*
X9938706Y-10153698D02*
X9957753Y-10144174D01*
X9957753Y-10144174D02*
X10005372Y-10144174D01*
X10005372Y-10144174D02*
X10024420Y-10153698D01*
X10024420Y-10153698D02*
X10033944Y-10163222D01*
X10033944Y-10163222D02*
X10043468Y-10182270D01*
X10043468Y-10182270D02*
X10043468Y-10229889D01*
X10043468Y-10229889D02*
X10033944Y-10248936D01*
X10033944Y-10248936D02*
X10024420Y-10258460D01*
X10024420Y-10258460D02*
X10005372Y-10267984D01*
X10005372Y-10267984D02*
X9957753Y-10267984D01*
X9957753Y-10267984D02*
X9938706Y-10258460D01*
X9938706Y-10258460D02*
X9929182Y-10248936D01*
X10214896Y-10134650D02*
X10214896Y-10267984D01*
X10167277Y-10058460D02*
X10119658Y-10201317D01*
X10119658Y-10201317D02*
X10243468Y-10201317D01*
X10310134Y-10067984D02*
X10310134Y-10106079D01*
X10386325Y-10067984D02*
X10386325Y-10106079D01*
X10681563Y-10344174D02*
X10672039Y-10334650D01*
X10672039Y-10334650D02*
X10652991Y-10306079D01*
X10652991Y-10306079D02*
X10643468Y-10287031D01*
X10643468Y-10287031D02*
X10633944Y-10258460D01*
X10633944Y-10258460D02*
X10624420Y-10210841D01*
X10624420Y-10210841D02*
X10624420Y-10172746D01*
X10624420Y-10172746D02*
X10633944Y-10125127D01*
X10633944Y-10125127D02*
X10643468Y-10096555D01*
X10643468Y-10096555D02*
X10652991Y-10077508D01*
X10652991Y-10077508D02*
X10672039Y-10048936D01*
X10672039Y-10048936D02*
X10681563Y-10039412D01*
X10843468Y-10134650D02*
X10843468Y-10267984D01*
X10795849Y-10058460D02*
X10748230Y-10201317D01*
X10748230Y-10201317D02*
X10872039Y-10201317D01*
X11100611Y-10267984D02*
X11100611Y-10067984D01*
X11186325Y-10267984D02*
X11186325Y-10163222D01*
X11186325Y-10163222D02*
X11176801Y-10144174D01*
X11176801Y-10144174D02*
X11157753Y-10134650D01*
X11157753Y-10134650D02*
X11129182Y-10134650D01*
X11129182Y-10134650D02*
X11110134Y-10144174D01*
X11110134Y-10144174D02*
X11100611Y-10153698D01*
X11310134Y-10267984D02*
X11291087Y-10258460D01*
X11291087Y-10258460D02*
X11281563Y-10248936D01*
X11281563Y-10248936D02*
X11272039Y-10229889D01*
X11272039Y-10229889D02*
X11272039Y-10172746D01*
X11272039Y-10172746D02*
X11281563Y-10153698D01*
X11281563Y-10153698D02*
X11291087Y-10144174D01*
X11291087Y-10144174D02*
X11310134Y-10134650D01*
X11310134Y-10134650D02*
X11338706Y-10134650D01*
X11338706Y-10134650D02*
X11357753Y-10144174D01*
X11357753Y-10144174D02*
X11367277Y-10153698D01*
X11367277Y-10153698D02*
X11376801Y-10172746D01*
X11376801Y-10172746D02*
X11376801Y-10229889D01*
X11376801Y-10229889D02*
X11367277Y-10248936D01*
X11367277Y-10248936D02*
X11357753Y-10258460D01*
X11357753Y-10258460D02*
X11338706Y-10267984D01*
X11338706Y-10267984D02*
X11310134Y-10267984D01*
X11491087Y-10267984D02*
X11472039Y-10258460D01*
X11472039Y-10258460D02*
X11462515Y-10239412D01*
X11462515Y-10239412D02*
X11462515Y-10067984D01*
X11643468Y-10258460D02*
X11624420Y-10267984D01*
X11624420Y-10267984D02*
X11586325Y-10267984D01*
X11586325Y-10267984D02*
X11567277Y-10258460D01*
X11567277Y-10258460D02*
X11557753Y-10239412D01*
X11557753Y-10239412D02*
X11557753Y-10163222D01*
X11557753Y-10163222D02*
X11567277Y-10144174D01*
X11567277Y-10144174D02*
X11586325Y-10134650D01*
X11586325Y-10134650D02*
X11624420Y-10134650D01*
X11624420Y-10134650D02*
X11643468Y-10144174D01*
X11643468Y-10144174D02*
X11652991Y-10163222D01*
X11652991Y-10163222D02*
X11652991Y-10182270D01*
X11652991Y-10182270D02*
X11557753Y-10201317D01*
X11729182Y-10258460D02*
X11748230Y-10267984D01*
X11748230Y-10267984D02*
X11786325Y-10267984D01*
X11786325Y-10267984D02*
X11805372Y-10258460D01*
X11805372Y-10258460D02*
X11814896Y-10239412D01*
X11814896Y-10239412D02*
X11814896Y-10229889D01*
X11814896Y-10229889D02*
X11805372Y-10210841D01*
X11805372Y-10210841D02*
X11786325Y-10201317D01*
X11786325Y-10201317D02*
X11757753Y-10201317D01*
X11757753Y-10201317D02*
X11738706Y-10191793D01*
X11738706Y-10191793D02*
X11729182Y-10172746D01*
X11729182Y-10172746D02*
X11729182Y-10163222D01*
X11729182Y-10163222D02*
X11738706Y-10144174D01*
X11738706Y-10144174D02*
X11757753Y-10134650D01*
X11757753Y-10134650D02*
X11786325Y-10134650D01*
X11786325Y-10134650D02*
X11805372Y-10144174D01*
X11881563Y-10344174D02*
X11891087Y-10334650D01*
X11891087Y-10334650D02*
X11910134Y-10306079D01*
X11910134Y-10306079D02*
X11919658Y-10287031D01*
X11919658Y-10287031D02*
X11929182Y-10258460D01*
X11929182Y-10258460D02*
X11938706Y-10210841D01*
X11938706Y-10210841D02*
X11938706Y-10172746D01*
X11938706Y-10172746D02*
X11929182Y-10125127D01*
X11929182Y-10125127D02*
X11919658Y-10096555D01*
X11919658Y-10096555D02*
X11910134Y-10077508D01*
X11910134Y-10077508D02*
X11891087Y-10048936D01*
X11891087Y-10048936D02*
X11881563Y-10039412D01*
X12243468Y-10344174D02*
X12233944Y-10334650D01*
X12233944Y-10334650D02*
X12214896Y-10306079D01*
X12214896Y-10306079D02*
X12205372Y-10287031D01*
X12205372Y-10287031D02*
X12195849Y-10258460D01*
X12195849Y-10258460D02*
X12186325Y-10210841D01*
X12186325Y-10210841D02*
X12186325Y-10172746D01*
X12186325Y-10172746D02*
X12195849Y-10125127D01*
X12195849Y-10125127D02*
X12205372Y-10096555D01*
X12205372Y-10096555D02*
X12214896Y-10077508D01*
X12214896Y-10077508D02*
X12233944Y-10048936D01*
X12233944Y-10048936D02*
X12243468Y-10039412D01*
X12319658Y-10134650D02*
X12319658Y-10267984D01*
X12319658Y-10153698D02*
X12329182Y-10144174D01*
X12329182Y-10144174D02*
X12348230Y-10134650D01*
X12348230Y-10134650D02*
X12376801Y-10134650D01*
X12376801Y-10134650D02*
X12395849Y-10144174D01*
X12395849Y-10144174D02*
X12405372Y-10163222D01*
X12405372Y-10163222D02*
X12405372Y-10267984D01*
X12529182Y-10267984D02*
X12510134Y-10258460D01*
X12510134Y-10258460D02*
X12500611Y-10248936D01*
X12500611Y-10248936D02*
X12491087Y-10229889D01*
X12491087Y-10229889D02*
X12491087Y-10172746D01*
X12491087Y-10172746D02*
X12500611Y-10153698D01*
X12500611Y-10153698D02*
X12510134Y-10144174D01*
X12510134Y-10144174D02*
X12529182Y-10134650D01*
X12529182Y-10134650D02*
X12557753Y-10134650D01*
X12557753Y-10134650D02*
X12576801Y-10144174D01*
X12576801Y-10144174D02*
X12586325Y-10153698D01*
X12586325Y-10153698D02*
X12595849Y-10172746D01*
X12595849Y-10172746D02*
X12595849Y-10229889D01*
X12595849Y-10229889D02*
X12586325Y-10248936D01*
X12586325Y-10248936D02*
X12576801Y-10258460D01*
X12576801Y-10258460D02*
X12557753Y-10267984D01*
X12557753Y-10267984D02*
X12529182Y-10267984D01*
X12652992Y-10134650D02*
X12729182Y-10134650D01*
X12681563Y-10067984D02*
X12681563Y-10239412D01*
X12681563Y-10239412D02*
X12691087Y-10258460D01*
X12691087Y-10258460D02*
X12710134Y-10267984D01*
X12710134Y-10267984D02*
X12729182Y-10267984D01*
X12948230Y-10134650D02*
X12948230Y-10334650D01*
X12948230Y-10144174D02*
X12967277Y-10134650D01*
X12967277Y-10134650D02*
X13005373Y-10134650D01*
X13005373Y-10134650D02*
X13024420Y-10144174D01*
X13024420Y-10144174D02*
X13033944Y-10153698D01*
X13033944Y-10153698D02*
X13043468Y-10172746D01*
X13043468Y-10172746D02*
X13043468Y-10229889D01*
X13043468Y-10229889D02*
X13033944Y-10248936D01*
X13033944Y-10248936D02*
X13024420Y-10258460D01*
X13024420Y-10258460D02*
X13005373Y-10267984D01*
X13005373Y-10267984D02*
X12967277Y-10267984D01*
X12967277Y-10267984D02*
X12948230Y-10258460D01*
X13157753Y-10267984D02*
X13138706Y-10258460D01*
X13138706Y-10258460D02*
X13129182Y-10239412D01*
X13129182Y-10239412D02*
X13129182Y-10067984D01*
X13319658Y-10267984D02*
X13319658Y-10163222D01*
X13319658Y-10163222D02*
X13310134Y-10144174D01*
X13310134Y-10144174D02*
X13291087Y-10134650D01*
X13291087Y-10134650D02*
X13252992Y-10134650D01*
X13252992Y-10134650D02*
X13233944Y-10144174D01*
X13319658Y-10258460D02*
X13300611Y-10267984D01*
X13300611Y-10267984D02*
X13252992Y-10267984D01*
X13252992Y-10267984D02*
X13233944Y-10258460D01*
X13233944Y-10258460D02*
X13224420Y-10239412D01*
X13224420Y-10239412D02*
X13224420Y-10220365D01*
X13224420Y-10220365D02*
X13233944Y-10201317D01*
X13233944Y-10201317D02*
X13252992Y-10191793D01*
X13252992Y-10191793D02*
X13300611Y-10191793D01*
X13300611Y-10191793D02*
X13319658Y-10182270D01*
X13386325Y-10134650D02*
X13462515Y-10134650D01*
X13414896Y-10067984D02*
X13414896Y-10239412D01*
X13414896Y-10239412D02*
X13424420Y-10258460D01*
X13424420Y-10258460D02*
X13443468Y-10267984D01*
X13443468Y-10267984D02*
X13462515Y-10267984D01*
X13605373Y-10258460D02*
X13586325Y-10267984D01*
X13586325Y-10267984D02*
X13548230Y-10267984D01*
X13548230Y-10267984D02*
X13529182Y-10258460D01*
X13529182Y-10258460D02*
X13519658Y-10239412D01*
X13519658Y-10239412D02*
X13519658Y-10163222D01*
X13519658Y-10163222D02*
X13529182Y-10144174D01*
X13529182Y-10144174D02*
X13548230Y-10134650D01*
X13548230Y-10134650D02*
X13586325Y-10134650D01*
X13586325Y-10134650D02*
X13605373Y-10144174D01*
X13605373Y-10144174D02*
X13614896Y-10163222D01*
X13614896Y-10163222D02*
X13614896Y-10182270D01*
X13614896Y-10182270D02*
X13519658Y-10201317D01*
X13786325Y-10267984D02*
X13786325Y-10067984D01*
X13786325Y-10258460D02*
X13767277Y-10267984D01*
X13767277Y-10267984D02*
X13729182Y-10267984D01*
X13729182Y-10267984D02*
X13710134Y-10258460D01*
X13710134Y-10258460D02*
X13700611Y-10248936D01*
X13700611Y-10248936D02*
X13691087Y-10229889D01*
X13691087Y-10229889D02*
X13691087Y-10172746D01*
X13691087Y-10172746D02*
X13700611Y-10153698D01*
X13700611Y-10153698D02*
X13710134Y-10144174D01*
X13710134Y-10144174D02*
X13729182Y-10134650D01*
X13729182Y-10134650D02*
X13767277Y-10134650D01*
X13767277Y-10134650D02*
X13786325Y-10144174D01*
X13862515Y-10344174D02*
X13872039Y-10334650D01*
X13872039Y-10334650D02*
X13891087Y-10306079D01*
X13891087Y-10306079D02*
X13900611Y-10287031D01*
X13900611Y-10287031D02*
X13910134Y-10258460D01*
X13910134Y-10258460D02*
X13919658Y-10210841D01*
X13919658Y-10210841D02*
X13919658Y-10172746D01*
X13919658Y-10172746D02*
X13910134Y-10125127D01*
X13910134Y-10125127D02*
X13900611Y-10096555D01*
X13900611Y-10096555D02*
X13891087Y-10077508D01*
X13891087Y-10077508D02*
X13872039Y-10048936D01*
X13872039Y-10048936D02*
X13862515Y-10039412D01*
M02*
