%TF.GenerationSoftware,KiCad,Pcbnew,9.0.5*%
%TF.CreationDate,2025-10-27T06:24:04-04:00*%
%TF.ProjectId,GRID,47524944-2e6b-4696-9361-645f70636258,rev?*%
%TF.SameCoordinates,Original*%
%TF.FileFunction,Legend,Top*%
%TF.FilePolarity,Positive*%
%FSLAX46Y46*%
G04 Gerber Fmt 4.6, Leading zero omitted, Abs format (unit mm)*
G04 Created by KiCad (PCBNEW 9.0.5) date 2025-10-27 06:24:04*
%MOMM*%
%LPD*%
G01*
G04 APERTURE LIST*
%ADD10C,0.100000*%
%ADD11C,0.150000*%
%ADD12C,0.120000*%
G04 APERTURE END LIST*
D10*
X73937524Y-63903884D02*
X74937524Y-63903884D01*
X74937524Y-63903884D02*
X74937524Y-64284836D01*
X74937524Y-64284836D02*
X74889905Y-64380074D01*
X74889905Y-64380074D02*
X74842286Y-64427693D01*
X74842286Y-64427693D02*
X74747048Y-64475312D01*
X74747048Y-64475312D02*
X74604191Y-64475312D01*
X74604191Y-64475312D02*
X74508953Y-64427693D01*
X74508953Y-64427693D02*
X74461334Y-64380074D01*
X74461334Y-64380074D02*
X74413715Y-64284836D01*
X74413715Y-64284836D02*
X74413715Y-63903884D01*
X74032763Y-65475312D02*
X73985144Y-65427693D01*
X73985144Y-65427693D02*
X73937524Y-65284836D01*
X73937524Y-65284836D02*
X73937524Y-65189598D01*
X73937524Y-65189598D02*
X73985144Y-65046741D01*
X73985144Y-65046741D02*
X74080382Y-64951503D01*
X74080382Y-64951503D02*
X74175620Y-64903884D01*
X74175620Y-64903884D02*
X74366096Y-64856265D01*
X74366096Y-64856265D02*
X74508953Y-64856265D01*
X74508953Y-64856265D02*
X74699429Y-64903884D01*
X74699429Y-64903884D02*
X74794667Y-64951503D01*
X74794667Y-64951503D02*
X74889905Y-65046741D01*
X74889905Y-65046741D02*
X74937524Y-65189598D01*
X74937524Y-65189598D02*
X74937524Y-65284836D01*
X74937524Y-65284836D02*
X74889905Y-65427693D01*
X74889905Y-65427693D02*
X74842286Y-65475312D01*
X74461334Y-66237217D02*
X74413715Y-66380074D01*
X74413715Y-66380074D02*
X74366096Y-66427693D01*
X74366096Y-66427693D02*
X74270858Y-66475312D01*
X74270858Y-66475312D02*
X74128001Y-66475312D01*
X74128001Y-66475312D02*
X74032763Y-66427693D01*
X74032763Y-66427693D02*
X73985144Y-66380074D01*
X73985144Y-66380074D02*
X73937524Y-66284836D01*
X73937524Y-66284836D02*
X73937524Y-65903884D01*
X73937524Y-65903884D02*
X74937524Y-65903884D01*
X74937524Y-65903884D02*
X74937524Y-66237217D01*
X74937524Y-66237217D02*
X74889905Y-66332455D01*
X74889905Y-66332455D02*
X74842286Y-66380074D01*
X74842286Y-66380074D02*
X74747048Y-66427693D01*
X74747048Y-66427693D02*
X74651810Y-66427693D01*
X74651810Y-66427693D02*
X74556572Y-66380074D01*
X74556572Y-66380074D02*
X74508953Y-66332455D01*
X74508953Y-66332455D02*
X74461334Y-66237217D01*
X74461334Y-66237217D02*
X74461334Y-65903884D01*
X73842286Y-66665789D02*
X73842286Y-67427693D01*
X74889905Y-68189598D02*
X74937524Y-68094360D01*
X74937524Y-68094360D02*
X74937524Y-67951503D01*
X74937524Y-67951503D02*
X74889905Y-67808646D01*
X74889905Y-67808646D02*
X74794667Y-67713408D01*
X74794667Y-67713408D02*
X74699429Y-67665789D01*
X74699429Y-67665789D02*
X74508953Y-67618170D01*
X74508953Y-67618170D02*
X74366096Y-67618170D01*
X74366096Y-67618170D02*
X74175620Y-67665789D01*
X74175620Y-67665789D02*
X74080382Y-67713408D01*
X74080382Y-67713408D02*
X73985144Y-67808646D01*
X73985144Y-67808646D02*
X73937524Y-67951503D01*
X73937524Y-67951503D02*
X73937524Y-68046741D01*
X73937524Y-68046741D02*
X73985144Y-68189598D01*
X73985144Y-68189598D02*
X74032763Y-68237217D01*
X74032763Y-68237217D02*
X74366096Y-68237217D01*
X74366096Y-68237217D02*
X74366096Y-68046741D01*
X73937524Y-69237217D02*
X74413715Y-68903884D01*
X73937524Y-68665789D02*
X74937524Y-68665789D01*
X74937524Y-68665789D02*
X74937524Y-69046741D01*
X74937524Y-69046741D02*
X74889905Y-69141979D01*
X74889905Y-69141979D02*
X74842286Y-69189598D01*
X74842286Y-69189598D02*
X74747048Y-69237217D01*
X74747048Y-69237217D02*
X74604191Y-69237217D01*
X74604191Y-69237217D02*
X74508953Y-69189598D01*
X74508953Y-69189598D02*
X74461334Y-69141979D01*
X74461334Y-69141979D02*
X74413715Y-69046741D01*
X74413715Y-69046741D02*
X74413715Y-68665789D01*
X73937524Y-69665789D02*
X74937524Y-69665789D01*
X73937524Y-70141979D02*
X74937524Y-70141979D01*
X74937524Y-70141979D02*
X74937524Y-70380074D01*
X74937524Y-70380074D02*
X74889905Y-70522931D01*
X74889905Y-70522931D02*
X74794667Y-70618169D01*
X74794667Y-70618169D02*
X74699429Y-70665788D01*
X74699429Y-70665788D02*
X74508953Y-70713407D01*
X74508953Y-70713407D02*
X74366096Y-70713407D01*
X74366096Y-70713407D02*
X74175620Y-70665788D01*
X74175620Y-70665788D02*
X74080382Y-70618169D01*
X74080382Y-70618169D02*
X73985144Y-70522931D01*
X73985144Y-70522931D02*
X73937524Y-70380074D01*
X73937524Y-70380074D02*
X73937524Y-70141979D01*
X74318477Y-71141979D02*
X74318477Y-71903884D01*
X74937524Y-72237217D02*
X73937524Y-72570550D01*
X73937524Y-72570550D02*
X74937524Y-72903883D01*
X73937524Y-73761026D02*
X73937524Y-73189598D01*
X73937524Y-73475312D02*
X74937524Y-73475312D01*
X74937524Y-73475312D02*
X74794667Y-73380074D01*
X74794667Y-73380074D02*
X74699429Y-73284836D01*
X74699429Y-73284836D02*
X74651810Y-73189598D01*
X74318477Y-74189598D02*
X74318477Y-74951503D01*
X73937524Y-75951502D02*
X73937524Y-75380074D01*
X73937524Y-75665788D02*
X74937524Y-75665788D01*
X74937524Y-75665788D02*
X74794667Y-75570550D01*
X74794667Y-75570550D02*
X74699429Y-75475312D01*
X74699429Y-75475312D02*
X74651810Y-75380074D01*
X74604191Y-76808645D02*
X73937524Y-76808645D01*
X74985144Y-76570550D02*
X74270858Y-76332455D01*
X74270858Y-76332455D02*
X74270858Y-76951502D01*
X74937524Y-77237217D02*
X73937524Y-77903883D01*
X74937524Y-77903883D02*
X73937524Y-77237217D01*
X73937524Y-78808645D02*
X73937524Y-78237217D01*
X73937524Y-78522931D02*
X74937524Y-78522931D01*
X74937524Y-78522931D02*
X74794667Y-78427693D01*
X74794667Y-78427693D02*
X74699429Y-78332455D01*
X74699429Y-78332455D02*
X74651810Y-78237217D01*
X74604191Y-79665788D02*
X73937524Y-79665788D01*
X74985144Y-79427693D02*
X74270858Y-79189598D01*
X74270858Y-79189598D02*
X74270858Y-79808645D01*
X74318477Y-80189598D02*
X74318477Y-80951503D01*
X74223239Y-81380074D02*
X74223239Y-81856264D01*
X73937524Y-81284836D02*
X74937524Y-81618169D01*
X74937524Y-81618169D02*
X73937524Y-81951502D01*
X73937524Y-82284836D02*
X74937524Y-82284836D01*
X74937524Y-82284836D02*
X74937524Y-82665788D01*
X74937524Y-82665788D02*
X74889905Y-82761026D01*
X74889905Y-82761026D02*
X74842286Y-82808645D01*
X74842286Y-82808645D02*
X74747048Y-82856264D01*
X74747048Y-82856264D02*
X74604191Y-82856264D01*
X74604191Y-82856264D02*
X74508953Y-82808645D01*
X74508953Y-82808645D02*
X74461334Y-82761026D01*
X74461334Y-82761026D02*
X74413715Y-82665788D01*
X74413715Y-82665788D02*
X74413715Y-82284836D01*
X74223239Y-83237217D02*
X74223239Y-83713407D01*
X73937524Y-83141979D02*
X74937524Y-83475312D01*
X74937524Y-83475312D02*
X73937524Y-83808645D01*
X73937524Y-84665788D02*
X73937524Y-84094360D01*
X73937524Y-84380074D02*
X74937524Y-84380074D01*
X74937524Y-84380074D02*
X74794667Y-84284836D01*
X74794667Y-84284836D02*
X74699429Y-84189598D01*
X74699429Y-84189598D02*
X74651810Y-84094360D01*
X74937524Y-85284836D02*
X74937524Y-85380074D01*
X74937524Y-85380074D02*
X74889905Y-85475312D01*
X74889905Y-85475312D02*
X74842286Y-85522931D01*
X74842286Y-85522931D02*
X74747048Y-85570550D01*
X74747048Y-85570550D02*
X74556572Y-85618169D01*
X74556572Y-85618169D02*
X74318477Y-85618169D01*
X74318477Y-85618169D02*
X74128001Y-85570550D01*
X74128001Y-85570550D02*
X74032763Y-85522931D01*
X74032763Y-85522931D02*
X73985144Y-85475312D01*
X73985144Y-85475312D02*
X73937524Y-85380074D01*
X73937524Y-85380074D02*
X73937524Y-85284836D01*
X73937524Y-85284836D02*
X73985144Y-85189598D01*
X73985144Y-85189598D02*
X74032763Y-85141979D01*
X74032763Y-85141979D02*
X74128001Y-85094360D01*
X74128001Y-85094360D02*
X74318477Y-85046741D01*
X74318477Y-85046741D02*
X74556572Y-85046741D01*
X74556572Y-85046741D02*
X74747048Y-85094360D01*
X74747048Y-85094360D02*
X74842286Y-85141979D01*
X74842286Y-85141979D02*
X74889905Y-85189598D01*
X74889905Y-85189598D02*
X74937524Y-85284836D01*
X74842286Y-85999122D02*
X74889905Y-86046741D01*
X74889905Y-86046741D02*
X74937524Y-86141979D01*
X74937524Y-86141979D02*
X74937524Y-86380074D01*
X74937524Y-86380074D02*
X74889905Y-86475312D01*
X74889905Y-86475312D02*
X74842286Y-86522931D01*
X74842286Y-86522931D02*
X74747048Y-86570550D01*
X74747048Y-86570550D02*
X74651810Y-86570550D01*
X74651810Y-86570550D02*
X74508953Y-86522931D01*
X74508953Y-86522931D02*
X73937524Y-85951503D01*
X73937524Y-85951503D02*
X73937524Y-86570550D01*
X74318477Y-86999122D02*
X74318477Y-87761027D01*
X74842286Y-88189598D02*
X74889905Y-88237217D01*
X74889905Y-88237217D02*
X74937524Y-88332455D01*
X74937524Y-88332455D02*
X74937524Y-88570550D01*
X74937524Y-88570550D02*
X74889905Y-88665788D01*
X74889905Y-88665788D02*
X74842286Y-88713407D01*
X74842286Y-88713407D02*
X74747048Y-88761026D01*
X74747048Y-88761026D02*
X74651810Y-88761026D01*
X74651810Y-88761026D02*
X74508953Y-88713407D01*
X74508953Y-88713407D02*
X73937524Y-88141979D01*
X73937524Y-88141979D02*
X73937524Y-88761026D01*
X74937524Y-89380074D02*
X74937524Y-89475312D01*
X74937524Y-89475312D02*
X74889905Y-89570550D01*
X74889905Y-89570550D02*
X74842286Y-89618169D01*
X74842286Y-89618169D02*
X74747048Y-89665788D01*
X74747048Y-89665788D02*
X74556572Y-89713407D01*
X74556572Y-89713407D02*
X74318477Y-89713407D01*
X74318477Y-89713407D02*
X74128001Y-89665788D01*
X74128001Y-89665788D02*
X74032763Y-89618169D01*
X74032763Y-89618169D02*
X73985144Y-89570550D01*
X73985144Y-89570550D02*
X73937524Y-89475312D01*
X73937524Y-89475312D02*
X73937524Y-89380074D01*
X73937524Y-89380074D02*
X73985144Y-89284836D01*
X73985144Y-89284836D02*
X74032763Y-89237217D01*
X74032763Y-89237217D02*
X74128001Y-89189598D01*
X74128001Y-89189598D02*
X74318477Y-89141979D01*
X74318477Y-89141979D02*
X74556572Y-89141979D01*
X74556572Y-89141979D02*
X74747048Y-89189598D01*
X74747048Y-89189598D02*
X74842286Y-89237217D01*
X74842286Y-89237217D02*
X74889905Y-89284836D01*
X74889905Y-89284836D02*
X74937524Y-89380074D01*
X74842286Y-90094360D02*
X74889905Y-90141979D01*
X74889905Y-90141979D02*
X74937524Y-90237217D01*
X74937524Y-90237217D02*
X74937524Y-90475312D01*
X74937524Y-90475312D02*
X74889905Y-90570550D01*
X74889905Y-90570550D02*
X74842286Y-90618169D01*
X74842286Y-90618169D02*
X74747048Y-90665788D01*
X74747048Y-90665788D02*
X74651810Y-90665788D01*
X74651810Y-90665788D02*
X74508953Y-90618169D01*
X74508953Y-90618169D02*
X73937524Y-90046741D01*
X73937524Y-90046741D02*
X73937524Y-90665788D01*
X74937524Y-91284836D02*
X74937524Y-91380074D01*
X74937524Y-91380074D02*
X74889905Y-91475312D01*
X74889905Y-91475312D02*
X74842286Y-91522931D01*
X74842286Y-91522931D02*
X74747048Y-91570550D01*
X74747048Y-91570550D02*
X74556572Y-91618169D01*
X74556572Y-91618169D02*
X74318477Y-91618169D01*
X74318477Y-91618169D02*
X74128001Y-91570550D01*
X74128001Y-91570550D02*
X74032763Y-91522931D01*
X74032763Y-91522931D02*
X73985144Y-91475312D01*
X73985144Y-91475312D02*
X73937524Y-91380074D01*
X73937524Y-91380074D02*
X73937524Y-91284836D01*
X73937524Y-91284836D02*
X73985144Y-91189598D01*
X73985144Y-91189598D02*
X74032763Y-91141979D01*
X74032763Y-91141979D02*
X74128001Y-91094360D01*
X74128001Y-91094360D02*
X74318477Y-91046741D01*
X74318477Y-91046741D02*
X74556572Y-91046741D01*
X74556572Y-91046741D02*
X74747048Y-91094360D01*
X74747048Y-91094360D02*
X74842286Y-91141979D01*
X74842286Y-91141979D02*
X74889905Y-91189598D01*
X74889905Y-91189598D02*
X74937524Y-91284836D01*
X72375200Y-63856265D02*
X72327580Y-63999122D01*
X72327580Y-63999122D02*
X72327580Y-64237217D01*
X72327580Y-64237217D02*
X72375200Y-64332455D01*
X72375200Y-64332455D02*
X72422819Y-64380074D01*
X72422819Y-64380074D02*
X72518057Y-64427693D01*
X72518057Y-64427693D02*
X72613295Y-64427693D01*
X72613295Y-64427693D02*
X72708533Y-64380074D01*
X72708533Y-64380074D02*
X72756152Y-64332455D01*
X72756152Y-64332455D02*
X72803771Y-64237217D01*
X72803771Y-64237217D02*
X72851390Y-64046741D01*
X72851390Y-64046741D02*
X72899009Y-63951503D01*
X72899009Y-63951503D02*
X72946628Y-63903884D01*
X72946628Y-63903884D02*
X73041866Y-63856265D01*
X73041866Y-63856265D02*
X73137104Y-63856265D01*
X73137104Y-63856265D02*
X73232342Y-63903884D01*
X73232342Y-63903884D02*
X73279961Y-63951503D01*
X73279961Y-63951503D02*
X73327580Y-64046741D01*
X73327580Y-64046741D02*
X73327580Y-64284836D01*
X73327580Y-64284836D02*
X73279961Y-64427693D01*
X72327580Y-64856265D02*
X73327580Y-64856265D01*
X73327580Y-64856265D02*
X72327580Y-65427693D01*
X72327580Y-65427693D02*
X73327580Y-65427693D01*
X72613295Y-65856265D02*
X72613295Y-66332455D01*
X72327580Y-65761027D02*
X73327580Y-66094360D01*
X73327580Y-66094360D02*
X72327580Y-66427693D01*
X72327580Y-66761027D02*
X73327580Y-66761027D01*
X72327580Y-67332455D02*
X72899009Y-66903884D01*
X73327580Y-67332455D02*
X72756152Y-66761027D01*
X72851390Y-67761027D02*
X72851390Y-68094360D01*
X72327580Y-68237217D02*
X72327580Y-67761027D01*
X72327580Y-67761027D02*
X73327580Y-67761027D01*
X73327580Y-67761027D02*
X73327580Y-68237217D01*
X72708533Y-68665789D02*
X72708533Y-69427694D01*
X72422819Y-70475312D02*
X72375200Y-70427693D01*
X72375200Y-70427693D02*
X72327580Y-70284836D01*
X72327580Y-70284836D02*
X72327580Y-70189598D01*
X72327580Y-70189598D02*
X72375200Y-70046741D01*
X72375200Y-70046741D02*
X72470438Y-69951503D01*
X72470438Y-69951503D02*
X72565676Y-69903884D01*
X72565676Y-69903884D02*
X72756152Y-69856265D01*
X72756152Y-69856265D02*
X72899009Y-69856265D01*
X72899009Y-69856265D02*
X73089485Y-69903884D01*
X73089485Y-69903884D02*
X73184723Y-69951503D01*
X73184723Y-69951503D02*
X73279961Y-70046741D01*
X73279961Y-70046741D02*
X73327580Y-70189598D01*
X73327580Y-70189598D02*
X73327580Y-70284836D01*
X73327580Y-70284836D02*
X73279961Y-70427693D01*
X73279961Y-70427693D02*
X73232342Y-70475312D01*
X72375200Y-70856265D02*
X72327580Y-70999122D01*
X72327580Y-70999122D02*
X72327580Y-71237217D01*
X72327580Y-71237217D02*
X72375200Y-71332455D01*
X72375200Y-71332455D02*
X72422819Y-71380074D01*
X72422819Y-71380074D02*
X72518057Y-71427693D01*
X72518057Y-71427693D02*
X72613295Y-71427693D01*
X72613295Y-71427693D02*
X72708533Y-71380074D01*
X72708533Y-71380074D02*
X72756152Y-71332455D01*
X72756152Y-71332455D02*
X72803771Y-71237217D01*
X72803771Y-71237217D02*
X72851390Y-71046741D01*
X72851390Y-71046741D02*
X72899009Y-70951503D01*
X72899009Y-70951503D02*
X72946628Y-70903884D01*
X72946628Y-70903884D02*
X73041866Y-70856265D01*
X73041866Y-70856265D02*
X73137104Y-70856265D01*
X73137104Y-70856265D02*
X73232342Y-70903884D01*
X73232342Y-70903884D02*
X73279961Y-70951503D01*
X73279961Y-70951503D02*
X73327580Y-71046741D01*
X73327580Y-71046741D02*
X73327580Y-71284836D01*
X73327580Y-71284836D02*
X73279961Y-71427693D01*
X72851390Y-72189598D02*
X72851390Y-71856265D01*
X72327580Y-71856265D02*
X73327580Y-71856265D01*
X73327580Y-71856265D02*
X73327580Y-72332455D01*
X73232342Y-72665789D02*
X73279961Y-72713408D01*
X73279961Y-72713408D02*
X73327580Y-72808646D01*
X73327580Y-72808646D02*
X73327580Y-73046741D01*
X73327580Y-73046741D02*
X73279961Y-73141979D01*
X73279961Y-73141979D02*
X73232342Y-73189598D01*
X73232342Y-73189598D02*
X73137104Y-73237217D01*
X73137104Y-73237217D02*
X73041866Y-73237217D01*
X73041866Y-73237217D02*
X72899009Y-73189598D01*
X72899009Y-73189598D02*
X72327580Y-72618170D01*
X72327580Y-72618170D02*
X72327580Y-73237217D01*
X73327580Y-74141979D02*
X73327580Y-73665789D01*
X73327580Y-73665789D02*
X72851390Y-73618170D01*
X72851390Y-73618170D02*
X72899009Y-73665789D01*
X72899009Y-73665789D02*
X72946628Y-73761027D01*
X72946628Y-73761027D02*
X72946628Y-73999122D01*
X72946628Y-73999122D02*
X72899009Y-74094360D01*
X72899009Y-74094360D02*
X72851390Y-74141979D01*
X72851390Y-74141979D02*
X72756152Y-74189598D01*
X72756152Y-74189598D02*
X72518057Y-74189598D01*
X72518057Y-74189598D02*
X72422819Y-74141979D01*
X72422819Y-74141979D02*
X72375200Y-74094360D01*
X72375200Y-74094360D02*
X72327580Y-73999122D01*
X72327580Y-73999122D02*
X72327580Y-73761027D01*
X72327580Y-73761027D02*
X72375200Y-73665789D01*
X72375200Y-73665789D02*
X72422819Y-73618170D01*
D11*
X79666666Y-78674819D02*
X79666666Y-79389104D01*
X79666666Y-79389104D02*
X79619047Y-79531961D01*
X79619047Y-79531961D02*
X79523809Y-79627200D01*
X79523809Y-79627200D02*
X79380952Y-79674819D01*
X79380952Y-79674819D02*
X79285714Y-79674819D01*
X80047619Y-78674819D02*
X80666666Y-78674819D01*
X80666666Y-78674819D02*
X80333333Y-79055771D01*
X80333333Y-79055771D02*
X80476190Y-79055771D01*
X80476190Y-79055771D02*
X80571428Y-79103390D01*
X80571428Y-79103390D02*
X80619047Y-79151009D01*
X80619047Y-79151009D02*
X80666666Y-79246247D01*
X80666666Y-79246247D02*
X80666666Y-79484342D01*
X80666666Y-79484342D02*
X80619047Y-79579580D01*
X80619047Y-79579580D02*
X80571428Y-79627200D01*
X80571428Y-79627200D02*
X80476190Y-79674819D01*
X80476190Y-79674819D02*
X80190476Y-79674819D01*
X80190476Y-79674819D02*
X80095238Y-79627200D01*
X80095238Y-79627200D02*
X80047619Y-79579580D01*
X75544819Y-95051904D02*
X74544819Y-95051904D01*
X75021009Y-95051904D02*
X75021009Y-94480476D01*
X75544819Y-94480476D02*
X74544819Y-94480476D01*
X74878152Y-93575714D02*
X75544819Y-93575714D01*
X74497200Y-93813809D02*
X75211485Y-94051904D01*
X75211485Y-94051904D02*
X75211485Y-93432857D01*
X75444819Y-39926904D02*
X74444819Y-39926904D01*
X74921009Y-39926904D02*
X74921009Y-39355476D01*
X75444819Y-39355476D02*
X74444819Y-39355476D01*
X74444819Y-38974523D02*
X74444819Y-38355476D01*
X74444819Y-38355476D02*
X74825771Y-38688809D01*
X74825771Y-38688809D02*
X74825771Y-38545952D01*
X74825771Y-38545952D02*
X74873390Y-38450714D01*
X74873390Y-38450714D02*
X74921009Y-38403095D01*
X74921009Y-38403095D02*
X75016247Y-38355476D01*
X75016247Y-38355476D02*
X75254342Y-38355476D01*
X75254342Y-38355476D02*
X75349580Y-38403095D01*
X75349580Y-38403095D02*
X75397200Y-38450714D01*
X75397200Y-38450714D02*
X75444819Y-38545952D01*
X75444819Y-38545952D02*
X75444819Y-38831666D01*
X75444819Y-38831666D02*
X75397200Y-38926904D01*
X75397200Y-38926904D02*
X75349580Y-38974523D01*
X146644819Y-95151904D02*
X145644819Y-95151904D01*
X146121009Y-95151904D02*
X146121009Y-94580476D01*
X146644819Y-94580476D02*
X145644819Y-94580476D01*
X145740057Y-94151904D02*
X145692438Y-94104285D01*
X145692438Y-94104285D02*
X145644819Y-94009047D01*
X145644819Y-94009047D02*
X145644819Y-93770952D01*
X145644819Y-93770952D02*
X145692438Y-93675714D01*
X145692438Y-93675714D02*
X145740057Y-93628095D01*
X145740057Y-93628095D02*
X145835295Y-93580476D01*
X145835295Y-93580476D02*
X145930533Y-93580476D01*
X145930533Y-93580476D02*
X146073390Y-93628095D01*
X146073390Y-93628095D02*
X146644819Y-94199523D01*
X146644819Y-94199523D02*
X146644819Y-93580476D01*
X146694819Y-40126904D02*
X145694819Y-40126904D01*
X146171009Y-40126904D02*
X146171009Y-39555476D01*
X146694819Y-39555476D02*
X145694819Y-39555476D01*
X146694819Y-38555476D02*
X146694819Y-39126904D01*
X146694819Y-38841190D02*
X145694819Y-38841190D01*
X145694819Y-38841190D02*
X145837676Y-38936428D01*
X145837676Y-38936428D02*
X145932914Y-39031666D01*
X145932914Y-39031666D02*
X145980533Y-39126904D01*
D10*
X133061428Y-44722371D02*
X132718571Y-44722371D01*
X132890000Y-44722371D02*
X132890000Y-44122371D01*
X132890000Y-44122371D02*
X132832857Y-44208085D01*
X132832857Y-44208085D02*
X132775714Y-44265228D01*
X132775714Y-44265228D02*
X132718571Y-44293800D01*
X96971428Y-83782371D02*
X96628571Y-83782371D01*
X96800000Y-83782371D02*
X96800000Y-83182371D01*
X96800000Y-83182371D02*
X96742857Y-83268085D01*
X96742857Y-83268085D02*
X96685714Y-83325228D01*
X96685714Y-83325228D02*
X96628571Y-83353800D01*
X109101428Y-91482371D02*
X108758571Y-91482371D01*
X108930000Y-91482371D02*
X108930000Y-90882371D01*
X108930000Y-90882371D02*
X108872857Y-90968085D01*
X108872857Y-90968085D02*
X108815714Y-91025228D01*
X108815714Y-91025228D02*
X108758571Y-91053800D01*
X93071428Y-75682371D02*
X92728571Y-75682371D01*
X92900000Y-75682371D02*
X92900000Y-75082371D01*
X92900000Y-75082371D02*
X92842857Y-75168085D01*
X92842857Y-75168085D02*
X92785714Y-75225228D01*
X92785714Y-75225228D02*
X92728571Y-75253800D01*
X136488571Y-88977628D02*
X136831428Y-88977628D01*
X136659999Y-88977628D02*
X136659999Y-89577628D01*
X136659999Y-89577628D02*
X136717142Y-89491914D01*
X136717142Y-89491914D02*
X136774285Y-89434771D01*
X136774285Y-89434771D02*
X136831428Y-89406200D01*
X120048571Y-65327628D02*
X120391428Y-65327628D01*
X120219999Y-65327628D02*
X120219999Y-65927628D01*
X120219999Y-65927628D02*
X120277142Y-65841914D01*
X120277142Y-65841914D02*
X120334285Y-65784771D01*
X120334285Y-65784771D02*
X120391428Y-65756200D01*
X92128571Y-80837628D02*
X92471428Y-80837628D01*
X92299999Y-80837628D02*
X92299999Y-81437628D01*
X92299999Y-81437628D02*
X92357142Y-81351914D01*
X92357142Y-81351914D02*
X92414285Y-81294771D01*
X92414285Y-81294771D02*
X92471428Y-81266200D01*
X96971428Y-52532371D02*
X96628571Y-52532371D01*
X96800000Y-52532371D02*
X96800000Y-51932371D01*
X96800000Y-51932371D02*
X96742857Y-52018085D01*
X96742857Y-52018085D02*
X96685714Y-52075228D01*
X96685714Y-52075228D02*
X96628571Y-52103800D01*
X113041428Y-91582371D02*
X112698571Y-91582371D01*
X112870000Y-91582371D02*
X112870000Y-90982371D01*
X112870000Y-90982371D02*
X112812857Y-91068085D01*
X112812857Y-91068085D02*
X112755714Y-91125228D01*
X112755714Y-91125228D02*
X112698571Y-91153800D01*
X105071428Y-60152371D02*
X104728571Y-60152371D01*
X104900000Y-60152371D02*
X104900000Y-59552371D01*
X104900000Y-59552371D02*
X104842857Y-59638085D01*
X104842857Y-59638085D02*
X104785714Y-59695228D01*
X104785714Y-59695228D02*
X104728571Y-59723800D01*
X124158571Y-65337628D02*
X124501428Y-65337628D01*
X124329999Y-65337628D02*
X124329999Y-65937628D01*
X124329999Y-65937628D02*
X124387142Y-65851914D01*
X124387142Y-65851914D02*
X124444285Y-65794771D01*
X124444285Y-65794771D02*
X124501428Y-65766200D01*
X132108571Y-49937628D02*
X132451428Y-49937628D01*
X132279999Y-49937628D02*
X132279999Y-50537628D01*
X132279999Y-50537628D02*
X132337142Y-50451914D01*
X132337142Y-50451914D02*
X132394285Y-50394771D01*
X132394285Y-50394771D02*
X132451428Y-50366200D01*
X113091428Y-83882371D02*
X112748571Y-83882371D01*
X112920000Y-83882371D02*
X112920000Y-83282371D01*
X112920000Y-83282371D02*
X112862857Y-83368085D01*
X112862857Y-83368085D02*
X112805714Y-83425228D01*
X112805714Y-83425228D02*
X112748571Y-83453800D01*
X100208571Y-49987628D02*
X100551428Y-49987628D01*
X100379999Y-49987628D02*
X100379999Y-50587628D01*
X100379999Y-50587628D02*
X100437142Y-50501914D01*
X100437142Y-50501914D02*
X100494285Y-50444771D01*
X100494285Y-50444771D02*
X100551428Y-50416200D01*
X133061428Y-52522371D02*
X132718571Y-52522371D01*
X132890000Y-52522371D02*
X132890000Y-51922371D01*
X132890000Y-51922371D02*
X132832857Y-52008085D01*
X132832857Y-52008085D02*
X132775714Y-52065228D01*
X132775714Y-52065228D02*
X132718571Y-52093800D01*
X120148571Y-49957628D02*
X120491428Y-49957628D01*
X120319999Y-49957628D02*
X120319999Y-50557628D01*
X120319999Y-50557628D02*
X120377142Y-50471914D01*
X120377142Y-50471914D02*
X120434285Y-50414771D01*
X120434285Y-50414771D02*
X120491428Y-50386200D01*
X121101428Y-67962371D02*
X120758571Y-67962371D01*
X120930000Y-67962371D02*
X120930000Y-67362371D01*
X120930000Y-67362371D02*
X120872857Y-67448085D01*
X120872857Y-67448085D02*
X120815714Y-67505228D01*
X120815714Y-67505228D02*
X120758571Y-67533800D01*
X137431428Y-67952371D02*
X137088571Y-67952371D01*
X137260000Y-67952371D02*
X137260000Y-67352371D01*
X137260000Y-67352371D02*
X137202857Y-67438085D01*
X137202857Y-67438085D02*
X137145714Y-67495228D01*
X137145714Y-67495228D02*
X137088571Y-67523800D01*
X96128571Y-88987628D02*
X96471428Y-88987628D01*
X96299999Y-88987628D02*
X96299999Y-89587628D01*
X96299999Y-89587628D02*
X96357142Y-89501914D01*
X96357142Y-89501914D02*
X96414285Y-89444771D01*
X96414285Y-89444771D02*
X96471428Y-89416200D01*
X116098571Y-88987628D02*
X116441428Y-88987628D01*
X116269999Y-88987628D02*
X116269999Y-89587628D01*
X116269999Y-89587628D02*
X116327142Y-89501914D01*
X116327142Y-89501914D02*
X116384285Y-89444771D01*
X116384285Y-89444771D02*
X116441428Y-89416200D01*
X112158571Y-73057628D02*
X112501428Y-73057628D01*
X112329999Y-73057628D02*
X112329999Y-73657628D01*
X112329999Y-73657628D02*
X112387142Y-73571914D01*
X112387142Y-73571914D02*
X112444285Y-73514771D01*
X112444285Y-73514771D02*
X112501428Y-73486200D01*
X121101428Y-75712371D02*
X120758571Y-75712371D01*
X120930000Y-75712371D02*
X120930000Y-75112371D01*
X120930000Y-75112371D02*
X120872857Y-75198085D01*
X120872857Y-75198085D02*
X120815714Y-75255228D01*
X120815714Y-75255228D02*
X120758571Y-75283800D01*
X88118571Y-57817628D02*
X88461428Y-57817628D01*
X88289999Y-57817628D02*
X88289999Y-58417628D01*
X88289999Y-58417628D02*
X88347142Y-58331914D01*
X88347142Y-58331914D02*
X88404285Y-58274771D01*
X88404285Y-58274771D02*
X88461428Y-58246200D01*
X116148571Y-65307628D02*
X116491428Y-65307628D01*
X116319999Y-65307628D02*
X116319999Y-65907628D01*
X116319999Y-65907628D02*
X116377142Y-65821914D01*
X116377142Y-65821914D02*
X116434285Y-65764771D01*
X116434285Y-65764771D02*
X116491428Y-65736200D01*
X116991428Y-75702371D02*
X116648571Y-75702371D01*
X116820000Y-75702371D02*
X116820000Y-75102371D01*
X116820000Y-75102371D02*
X116762857Y-75188085D01*
X116762857Y-75188085D02*
X116705714Y-75245228D01*
X116705714Y-75245228D02*
X116648571Y-75273800D01*
X132478571Y-73147628D02*
X132821428Y-73147628D01*
X132649999Y-73147628D02*
X132649999Y-73747628D01*
X132649999Y-73747628D02*
X132707142Y-73661914D01*
X132707142Y-73661914D02*
X132764285Y-73604771D01*
X132764285Y-73604771D02*
X132821428Y-73576200D01*
X116991428Y-83862371D02*
X116648571Y-83862371D01*
X116820000Y-83862371D02*
X116820000Y-83262371D01*
X116820000Y-83262371D02*
X116762857Y-83348085D01*
X116762857Y-83348085D02*
X116705714Y-83405228D01*
X116705714Y-83405228D02*
X116648571Y-83433800D01*
X120148571Y-57827628D02*
X120491428Y-57827628D01*
X120319999Y-57827628D02*
X120319999Y-58427628D01*
X120319999Y-58427628D02*
X120377142Y-58341914D01*
X120377142Y-58341914D02*
X120434285Y-58284771D01*
X120434285Y-58284771D02*
X120491428Y-58256200D01*
X136118571Y-57777628D02*
X136461428Y-57777628D01*
X136289999Y-57777628D02*
X136289999Y-58377628D01*
X136289999Y-58377628D02*
X136347142Y-58291914D01*
X136347142Y-58291914D02*
X136404285Y-58234771D01*
X136404285Y-58234771D02*
X136461428Y-58206200D01*
X124178571Y-57837628D02*
X124521428Y-57837628D01*
X124349999Y-57837628D02*
X124349999Y-58437628D01*
X124349999Y-58437628D02*
X124407142Y-58351914D01*
X124407142Y-58351914D02*
X124464285Y-58294771D01*
X124464285Y-58294771D02*
X124521428Y-58266200D01*
X92128571Y-57817628D02*
X92471428Y-57817628D01*
X92299999Y-57817628D02*
X92299999Y-58417628D01*
X92299999Y-58417628D02*
X92357142Y-58331914D01*
X92357142Y-58331914D02*
X92414285Y-58274771D01*
X92414285Y-58274771D02*
X92471428Y-58246200D01*
X89071428Y-52582371D02*
X88728571Y-52582371D01*
X88900000Y-52582371D02*
X88900000Y-51982371D01*
X88900000Y-51982371D02*
X88842857Y-52068085D01*
X88842857Y-52068085D02*
X88785714Y-52125228D01*
X88785714Y-52125228D02*
X88728571Y-52153800D01*
X121101428Y-91602371D02*
X120758571Y-91602371D01*
X120930000Y-91602371D02*
X120930000Y-91002371D01*
X120930000Y-91002371D02*
X120872857Y-91088085D01*
X120872857Y-91088085D02*
X120815714Y-91145228D01*
X120815714Y-91145228D02*
X120758571Y-91173800D01*
X91543571Y-42817628D02*
X91886428Y-42817628D01*
X91714999Y-42817628D02*
X91714999Y-43417628D01*
X91714999Y-43417628D02*
X91772142Y-43331914D01*
X91772142Y-43331914D02*
X91829285Y-43274771D01*
X91829285Y-43274771D02*
X91886428Y-43246200D01*
X121101428Y-83862371D02*
X120758571Y-83862371D01*
X120930000Y-83862371D02*
X120930000Y-83262371D01*
X120930000Y-83262371D02*
X120872857Y-83348085D01*
X120872857Y-83348085D02*
X120815714Y-83405228D01*
X120815714Y-83405228D02*
X120758571Y-83433800D01*
X101061428Y-44062371D02*
X100718571Y-44062371D01*
X100890000Y-44062371D02*
X100890000Y-43462371D01*
X100890000Y-43462371D02*
X100832857Y-43548085D01*
X100832857Y-43548085D02*
X100775714Y-43605228D01*
X100775714Y-43605228D02*
X100718571Y-43633800D01*
X85061428Y-60232371D02*
X84718571Y-60232371D01*
X84890000Y-60232371D02*
X84890000Y-59632371D01*
X84890000Y-59632371D02*
X84832857Y-59718085D01*
X84832857Y-59718085D02*
X84775714Y-59775228D01*
X84775714Y-59775228D02*
X84718571Y-59803800D01*
X88108571Y-49987628D02*
X88451428Y-49987628D01*
X88279999Y-49987628D02*
X88279999Y-50587628D01*
X88279999Y-50587628D02*
X88337142Y-50501914D01*
X88337142Y-50501914D02*
X88394285Y-50444771D01*
X88394285Y-50444771D02*
X88451428Y-50416200D01*
X101111428Y-67822371D02*
X100768571Y-67822371D01*
X100940000Y-67822371D02*
X100940000Y-67222371D01*
X100940000Y-67222371D02*
X100882857Y-67308085D01*
X100882857Y-67308085D02*
X100825714Y-67365228D01*
X100825714Y-67365228D02*
X100768571Y-67393800D01*
X96128571Y-57837628D02*
X96471428Y-57837628D01*
X96299999Y-57837628D02*
X96299999Y-58437628D01*
X96299999Y-58437628D02*
X96357142Y-58351914D01*
X96357142Y-58351914D02*
X96414285Y-58294771D01*
X96414285Y-58294771D02*
X96471428Y-58266200D01*
X129051428Y-44732371D02*
X128708571Y-44732371D01*
X128880000Y-44732371D02*
X128880000Y-44132371D01*
X128880000Y-44132371D02*
X128822857Y-44218085D01*
X128822857Y-44218085D02*
X128765714Y-44275228D01*
X128765714Y-44275228D02*
X128708571Y-44303800D01*
X92128571Y-89017628D02*
X92471428Y-89017628D01*
X92299999Y-89017628D02*
X92299999Y-89617628D01*
X92299999Y-89617628D02*
X92357142Y-89531914D01*
X92357142Y-89531914D02*
X92414285Y-89474771D01*
X92414285Y-89474771D02*
X92471428Y-89446200D01*
X89071428Y-83782371D02*
X88728571Y-83782371D01*
X88900000Y-83782371D02*
X88900000Y-83182371D01*
X88900000Y-83182371D02*
X88842857Y-83268085D01*
X88842857Y-83268085D02*
X88785714Y-83325228D01*
X88785714Y-83325228D02*
X88728571Y-83353800D01*
X101101428Y-91482371D02*
X100758571Y-91482371D01*
X100930000Y-91482371D02*
X100930000Y-90882371D01*
X100930000Y-90882371D02*
X100872857Y-90968085D01*
X100872857Y-90968085D02*
X100815714Y-91025228D01*
X100815714Y-91025228D02*
X100758571Y-91053800D01*
X104118571Y-49867628D02*
X104461428Y-49867628D01*
X104289999Y-49867628D02*
X104289999Y-50467628D01*
X104289999Y-50467628D02*
X104347142Y-50381914D01*
X104347142Y-50381914D02*
X104404285Y-50324771D01*
X104404285Y-50324771D02*
X104461428Y-50296200D01*
X113041428Y-60142371D02*
X112698571Y-60142371D01*
X112870000Y-60142371D02*
X112870000Y-59542371D01*
X112870000Y-59542371D02*
X112812857Y-59628085D01*
X112812857Y-59628085D02*
X112755714Y-59685228D01*
X112755714Y-59685228D02*
X112698571Y-59713800D01*
X116098571Y-57827628D02*
X116441428Y-57827628D01*
X116269999Y-57827628D02*
X116269999Y-58427628D01*
X116269999Y-58427628D02*
X116327142Y-58341914D01*
X116327142Y-58341914D02*
X116384285Y-58284771D01*
X116384285Y-58284771D02*
X116441428Y-58256200D01*
X100208571Y-80837628D02*
X100551428Y-80837628D01*
X100379999Y-80837628D02*
X100379999Y-81437628D01*
X100379999Y-81437628D02*
X100437142Y-81351914D01*
X100437142Y-81351914D02*
X100494285Y-81294771D01*
X100494285Y-81294771D02*
X100551428Y-81266200D01*
X112158571Y-65207628D02*
X112501428Y-65207628D01*
X112329999Y-65207628D02*
X112329999Y-65807628D01*
X112329999Y-65807628D02*
X112387142Y-65721914D01*
X112387142Y-65721914D02*
X112444285Y-65664771D01*
X112444285Y-65664771D02*
X112501428Y-65636200D01*
X96971428Y-91532371D02*
X96628571Y-91532371D01*
X96800000Y-91532371D02*
X96800000Y-90932371D01*
X96800000Y-90932371D02*
X96742857Y-91018085D01*
X96742857Y-91018085D02*
X96685714Y-91075228D01*
X96685714Y-91075228D02*
X96628571Y-91103800D01*
X100118571Y-41937628D02*
X100461428Y-41937628D01*
X100289999Y-41937628D02*
X100289999Y-42537628D01*
X100289999Y-42537628D02*
X100347142Y-42451914D01*
X100347142Y-42451914D02*
X100404285Y-42394771D01*
X100404285Y-42394771D02*
X100461428Y-42366200D01*
X121121428Y-52532371D02*
X120778571Y-52532371D01*
X120950000Y-52532371D02*
X120950000Y-51932371D01*
X120950000Y-51932371D02*
X120892857Y-52018085D01*
X120892857Y-52018085D02*
X120835714Y-52075228D01*
X120835714Y-52075228D02*
X120778571Y-52103800D01*
X100208571Y-65237628D02*
X100551428Y-65237628D01*
X100379999Y-65237628D02*
X100379999Y-65837628D01*
X100379999Y-65837628D02*
X100437142Y-65751914D01*
X100437142Y-65751914D02*
X100494285Y-65694771D01*
X100494285Y-65694771D02*
X100551428Y-65666200D01*
X129051428Y-52532371D02*
X128708571Y-52532371D01*
X128880000Y-52532371D02*
X128880000Y-51932371D01*
X128880000Y-51932371D02*
X128822857Y-52018085D01*
X128822857Y-52018085D02*
X128765714Y-52075228D01*
X128765714Y-52075228D02*
X128708571Y-52103800D01*
X116098571Y-49927628D02*
X116441428Y-49927628D01*
X116269999Y-49927628D02*
X116269999Y-50527628D01*
X116269999Y-50527628D02*
X116327142Y-50441914D01*
X116327142Y-50441914D02*
X116384285Y-50384771D01*
X116384285Y-50384771D02*
X116441428Y-50356200D01*
X132488571Y-88977628D02*
X132831428Y-88977628D01*
X132659999Y-88977628D02*
X132659999Y-89577628D01*
X132659999Y-89577628D02*
X132717142Y-89491914D01*
X132717142Y-89491914D02*
X132774285Y-89434771D01*
X132774285Y-89434771D02*
X132831428Y-89406200D01*
X128408571Y-65307628D02*
X128751428Y-65307628D01*
X128579999Y-65307628D02*
X128579999Y-65907628D01*
X128579999Y-65907628D02*
X128637142Y-65821914D01*
X128637142Y-65821914D02*
X128694285Y-65764771D01*
X128694285Y-65764771D02*
X128751428Y-65736200D01*
X137041428Y-60142371D02*
X136698571Y-60142371D01*
X136870000Y-60142371D02*
X136870000Y-59542371D01*
X136870000Y-59542371D02*
X136812857Y-59628085D01*
X136812857Y-59628085D02*
X136755714Y-59685228D01*
X136755714Y-59685228D02*
X136698571Y-59713800D01*
X140478571Y-88997628D02*
X140821428Y-88997628D01*
X140649999Y-88997628D02*
X140649999Y-89597628D01*
X140649999Y-89597628D02*
X140707142Y-89511914D01*
X140707142Y-89511914D02*
X140764285Y-89454771D01*
X140764285Y-89454771D02*
X140821428Y-89426200D01*
X113091428Y-67922371D02*
X112748571Y-67922371D01*
X112920000Y-67922371D02*
X112920000Y-67322371D01*
X112920000Y-67322371D02*
X112862857Y-67408085D01*
X112862857Y-67408085D02*
X112805714Y-67465228D01*
X112805714Y-67465228D02*
X112748571Y-67493800D01*
X140108571Y-57727628D02*
X140451428Y-57727628D01*
X140279999Y-57727628D02*
X140279999Y-58327628D01*
X140279999Y-58327628D02*
X140337142Y-58241914D01*
X140337142Y-58241914D02*
X140394285Y-58184771D01*
X140394285Y-58184771D02*
X140451428Y-58156200D01*
X137421428Y-91592371D02*
X137078571Y-91592371D01*
X137250000Y-91592371D02*
X137250000Y-90992371D01*
X137250000Y-90992371D02*
X137192857Y-91078085D01*
X137192857Y-91078085D02*
X137135714Y-91135228D01*
X137135714Y-91135228D02*
X137078571Y-91163800D01*
X88118571Y-89037628D02*
X88461428Y-89037628D01*
X88289999Y-89037628D02*
X88289999Y-89637628D01*
X88289999Y-89637628D02*
X88347142Y-89551914D01*
X88347142Y-89551914D02*
X88404285Y-89494771D01*
X88404285Y-89494771D02*
X88461428Y-89466200D01*
X101101428Y-83732371D02*
X100758571Y-83732371D01*
X100930000Y-83732371D02*
X100930000Y-83132371D01*
X100930000Y-83132371D02*
X100872857Y-83218085D01*
X100872857Y-83218085D02*
X100815714Y-83275228D01*
X100815714Y-83275228D02*
X100758571Y-83303800D01*
X124158571Y-88967628D02*
X124501428Y-88967628D01*
X124329999Y-88967628D02*
X124329999Y-89567628D01*
X124329999Y-89567628D02*
X124387142Y-89481914D01*
X124387142Y-89481914D02*
X124444285Y-89424771D01*
X124444285Y-89424771D02*
X124501428Y-89396200D01*
X96128571Y-49987628D02*
X96471428Y-49987628D01*
X96299999Y-49987628D02*
X96299999Y-50587628D01*
X96299999Y-50587628D02*
X96357142Y-50501914D01*
X96357142Y-50501914D02*
X96414285Y-50444771D01*
X96414285Y-50444771D02*
X96471428Y-50416200D01*
X113041428Y-52522371D02*
X112698571Y-52522371D01*
X112870000Y-52522371D02*
X112870000Y-51922371D01*
X112870000Y-51922371D02*
X112812857Y-52008085D01*
X112812857Y-52008085D02*
X112755714Y-52065228D01*
X112755714Y-52065228D02*
X112698571Y-52093800D01*
X85586428Y-43912371D02*
X85243571Y-43912371D01*
X85415000Y-43912371D02*
X85415000Y-43312371D01*
X85415000Y-43312371D02*
X85357857Y-43398085D01*
X85357857Y-43398085D02*
X85300714Y-43455228D01*
X85300714Y-43455228D02*
X85243571Y-43483800D01*
X104148571Y-65217628D02*
X104491428Y-65217628D01*
X104319999Y-65217628D02*
X104319999Y-65817628D01*
X104319999Y-65817628D02*
X104377142Y-65731914D01*
X104377142Y-65731914D02*
X104434285Y-65674771D01*
X104434285Y-65674771D02*
X104491428Y-65646200D01*
X105071428Y-91512371D02*
X104728571Y-91512371D01*
X104900000Y-91512371D02*
X104900000Y-90912371D01*
X104900000Y-90912371D02*
X104842857Y-90998085D01*
X104842857Y-90998085D02*
X104785714Y-91055228D01*
X104785714Y-91055228D02*
X104728571Y-91083800D01*
X140108571Y-49907628D02*
X140451428Y-49907628D01*
X140279999Y-49907628D02*
X140279999Y-50507628D01*
X140279999Y-50507628D02*
X140337142Y-50421914D01*
X140337142Y-50421914D02*
X140394285Y-50364771D01*
X140394285Y-50364771D02*
X140451428Y-50336200D01*
X125351428Y-67972371D02*
X125008571Y-67972371D01*
X125180000Y-67972371D02*
X125180000Y-67372371D01*
X125180000Y-67372371D02*
X125122857Y-67458085D01*
X125122857Y-67458085D02*
X125065714Y-67515228D01*
X125065714Y-67515228D02*
X125008571Y-67543800D01*
X108228571Y-57827628D02*
X108571428Y-57827628D01*
X108399999Y-57827628D02*
X108399999Y-58427628D01*
X108399999Y-58427628D02*
X108457142Y-58341914D01*
X108457142Y-58341914D02*
X108514285Y-58284771D01*
X108514285Y-58284771D02*
X108571428Y-58256200D01*
X120048571Y-80957628D02*
X120391428Y-80957628D01*
X120219999Y-80957628D02*
X120219999Y-81557628D01*
X120219999Y-81557628D02*
X120277142Y-81471914D01*
X120277142Y-81471914D02*
X120334285Y-81414771D01*
X120334285Y-81414771D02*
X120391428Y-81386200D01*
X124158571Y-80967628D02*
X124501428Y-80967628D01*
X124329999Y-80967628D02*
X124329999Y-81567628D01*
X124329999Y-81567628D02*
X124387142Y-81481914D01*
X124387142Y-81481914D02*
X124444285Y-81424771D01*
X124444285Y-81424771D02*
X124501428Y-81396200D01*
X124971428Y-44722371D02*
X124628571Y-44722371D01*
X124800000Y-44722371D02*
X124800000Y-44122371D01*
X124800000Y-44122371D02*
X124742857Y-44208085D01*
X124742857Y-44208085D02*
X124685714Y-44265228D01*
X124685714Y-44265228D02*
X124628571Y-44293800D01*
X109101428Y-67802371D02*
X108758571Y-67802371D01*
X108930000Y-67802371D02*
X108930000Y-67202371D01*
X108930000Y-67202371D02*
X108872857Y-67288085D01*
X108872857Y-67288085D02*
X108815714Y-67345228D01*
X108815714Y-67345228D02*
X108758571Y-67373800D01*
X100208571Y-88987628D02*
X100551428Y-88987628D01*
X100379999Y-88987628D02*
X100379999Y-89587628D01*
X100379999Y-89587628D02*
X100437142Y-89501914D01*
X100437142Y-89501914D02*
X100494285Y-89444771D01*
X100494285Y-89444771D02*
X100551428Y-89416200D01*
X128408571Y-73167628D02*
X128751428Y-73167628D01*
X128579999Y-73167628D02*
X128579999Y-73767628D01*
X128579999Y-73767628D02*
X128637142Y-73681914D01*
X128637142Y-73681914D02*
X128694285Y-73624771D01*
X128694285Y-73624771D02*
X128751428Y-73596200D01*
X129051428Y-60162371D02*
X128708571Y-60162371D01*
X128880000Y-60162371D02*
X128880000Y-59562371D01*
X128880000Y-59562371D02*
X128822857Y-59648085D01*
X128822857Y-59648085D02*
X128765714Y-59705228D01*
X128765714Y-59705228D02*
X128708571Y-59733800D01*
X109101428Y-83762371D02*
X108758571Y-83762371D01*
X108930000Y-83762371D02*
X108930000Y-83162371D01*
X108930000Y-83162371D02*
X108872857Y-83248085D01*
X108872857Y-83248085D02*
X108815714Y-83305228D01*
X108815714Y-83305228D02*
X108758571Y-83333800D01*
X132488571Y-65337628D02*
X132831428Y-65337628D01*
X132659999Y-65337628D02*
X132659999Y-65937628D01*
X132659999Y-65937628D02*
X132717142Y-65851914D01*
X132717142Y-65851914D02*
X132774285Y-65794771D01*
X132774285Y-65794771D02*
X132831428Y-65766200D01*
X105071428Y-83762371D02*
X104728571Y-83762371D01*
X104900000Y-83762371D02*
X104900000Y-83162371D01*
X104900000Y-83162371D02*
X104842857Y-83248085D01*
X104842857Y-83248085D02*
X104785714Y-83305228D01*
X104785714Y-83305228D02*
X104728571Y-83333800D01*
X116148571Y-80987628D02*
X116491428Y-80987628D01*
X116319999Y-80987628D02*
X116319999Y-81587628D01*
X116319999Y-81587628D02*
X116377142Y-81501914D01*
X116377142Y-81501914D02*
X116434285Y-81444771D01*
X116434285Y-81444771D02*
X116491428Y-81416200D01*
X85051428Y-91532371D02*
X84708571Y-91532371D01*
X84880000Y-91532371D02*
X84880000Y-90932371D01*
X84880000Y-90932371D02*
X84822857Y-91018085D01*
X84822857Y-91018085D02*
X84765714Y-91075228D01*
X84765714Y-91075228D02*
X84708571Y-91103800D01*
X133431428Y-75712371D02*
X133088571Y-75712371D01*
X133260000Y-75712371D02*
X133260000Y-75112371D01*
X133260000Y-75112371D02*
X133202857Y-75198085D01*
X133202857Y-75198085D02*
X133145714Y-75255228D01*
X133145714Y-75255228D02*
X133088571Y-75283800D01*
X113041428Y-75752371D02*
X112698571Y-75752371D01*
X112870000Y-75752371D02*
X112870000Y-75152371D01*
X112870000Y-75152371D02*
X112812857Y-75238085D01*
X112812857Y-75238085D02*
X112755714Y-75295228D01*
X112755714Y-75295228D02*
X112698571Y-75323800D01*
X136488571Y-80997628D02*
X136831428Y-80997628D01*
X136659999Y-80997628D02*
X136659999Y-81597628D01*
X136659999Y-81597628D02*
X136717142Y-81511914D01*
X136717142Y-81511914D02*
X136774285Y-81454771D01*
X136774285Y-81454771D02*
X136831428Y-81426200D01*
X85061428Y-52582371D02*
X84718571Y-52582371D01*
X84890000Y-52582371D02*
X84890000Y-51982371D01*
X84890000Y-51982371D02*
X84832857Y-52068085D01*
X84832857Y-52068085D02*
X84775714Y-52125228D01*
X84775714Y-52125228D02*
X84718571Y-52153800D01*
X92128571Y-49987628D02*
X92471428Y-49987628D01*
X92299999Y-49987628D02*
X92299999Y-50587628D01*
X92299999Y-50587628D02*
X92357142Y-50501914D01*
X92357142Y-50501914D02*
X92414285Y-50444771D01*
X92414285Y-50444771D02*
X92471428Y-50416200D01*
X108228571Y-49927628D02*
X108571428Y-49927628D01*
X108399999Y-49927628D02*
X108399999Y-50527628D01*
X108399999Y-50527628D02*
X108457142Y-50441914D01*
X108457142Y-50441914D02*
X108514285Y-50384771D01*
X108514285Y-50384771D02*
X108571428Y-50356200D01*
X85051428Y-83782371D02*
X84708571Y-83782371D01*
X84880000Y-83782371D02*
X84880000Y-83182371D01*
X84880000Y-83182371D02*
X84822857Y-83268085D01*
X84822857Y-83268085D02*
X84765714Y-83325228D01*
X84765714Y-83325228D02*
X84708571Y-83353800D01*
X124971428Y-52522371D02*
X124628571Y-52522371D01*
X124800000Y-52522371D02*
X124800000Y-51922371D01*
X124800000Y-51922371D02*
X124742857Y-52008085D01*
X124742857Y-52008085D02*
X124685714Y-52065228D01*
X124685714Y-52065228D02*
X124628571Y-52093800D01*
X128028571Y-49927628D02*
X128371428Y-49927628D01*
X128199999Y-49927628D02*
X128199999Y-50527628D01*
X128199999Y-50527628D02*
X128257142Y-50441914D01*
X128257142Y-50441914D02*
X128314285Y-50384771D01*
X128314285Y-50384771D02*
X128371428Y-50356200D01*
X132498571Y-80967628D02*
X132841428Y-80967628D01*
X132669999Y-80967628D02*
X132669999Y-81567628D01*
X132669999Y-81567628D02*
X132727142Y-81481914D01*
X132727142Y-81481914D02*
X132784285Y-81424771D01*
X132784285Y-81424771D02*
X132841428Y-81396200D01*
X92128571Y-65237628D02*
X92471428Y-65237628D01*
X92299999Y-65237628D02*
X92299999Y-65837628D01*
X92299999Y-65837628D02*
X92357142Y-65751914D01*
X92357142Y-65751914D02*
X92414285Y-65694771D01*
X92414285Y-65694771D02*
X92471428Y-65666200D01*
X96128571Y-65237628D02*
X96471428Y-65237628D01*
X96299999Y-65237628D02*
X96299999Y-65837628D01*
X96299999Y-65837628D02*
X96357142Y-65751914D01*
X96357142Y-65751914D02*
X96414285Y-65694771D01*
X96414285Y-65694771D02*
X96471428Y-65666200D01*
X128078571Y-41927628D02*
X128421428Y-41927628D01*
X128249999Y-41927628D02*
X128249999Y-42527628D01*
X128249999Y-42527628D02*
X128307142Y-42441914D01*
X128307142Y-42441914D02*
X128364285Y-42384771D01*
X128364285Y-42384771D02*
X128421428Y-42356200D01*
X129431428Y-67982371D02*
X129088571Y-67982371D01*
X129260000Y-67982371D02*
X129260000Y-67382371D01*
X129260000Y-67382371D02*
X129202857Y-67468085D01*
X129202857Y-67468085D02*
X129145714Y-67525228D01*
X129145714Y-67525228D02*
X129088571Y-67553800D01*
D11*
X79431666Y-50069819D02*
X79431666Y-50784104D01*
X79431666Y-50784104D02*
X79384047Y-50926961D01*
X79384047Y-50926961D02*
X79288809Y-51022200D01*
X79288809Y-51022200D02*
X79145952Y-51069819D01*
X79145952Y-51069819D02*
X79050714Y-51069819D01*
X79860238Y-50165057D02*
X79907857Y-50117438D01*
X79907857Y-50117438D02*
X80003095Y-50069819D01*
X80003095Y-50069819D02*
X80241190Y-50069819D01*
X80241190Y-50069819D02*
X80336428Y-50117438D01*
X80336428Y-50117438D02*
X80384047Y-50165057D01*
X80384047Y-50165057D02*
X80431666Y-50260295D01*
X80431666Y-50260295D02*
X80431666Y-50355533D01*
X80431666Y-50355533D02*
X80384047Y-50498390D01*
X80384047Y-50498390D02*
X79812619Y-51069819D01*
X79812619Y-51069819D02*
X80431666Y-51069819D01*
D10*
X112108571Y-41927628D02*
X112451428Y-41927628D01*
X112279999Y-41927628D02*
X112279999Y-42527628D01*
X112279999Y-42527628D02*
X112337142Y-42441914D01*
X112337142Y-42441914D02*
X112394285Y-42384771D01*
X112394285Y-42384771D02*
X112451428Y-42356200D01*
X96971428Y-67862371D02*
X96628571Y-67862371D01*
X96800000Y-67862371D02*
X96800000Y-67262371D01*
X96800000Y-67262371D02*
X96742857Y-67348085D01*
X96742857Y-67348085D02*
X96685714Y-67405228D01*
X96685714Y-67405228D02*
X96628571Y-67433800D01*
X109051428Y-52422371D02*
X108708571Y-52422371D01*
X108880000Y-52422371D02*
X108880000Y-51822371D01*
X108880000Y-51822371D02*
X108822857Y-51908085D01*
X108822857Y-51908085D02*
X108765714Y-51965228D01*
X108765714Y-51965228D02*
X108708571Y-51993800D01*
X89071428Y-75682371D02*
X88728571Y-75682371D01*
X88900000Y-75682371D02*
X88900000Y-75082371D01*
X88900000Y-75082371D02*
X88842857Y-75168085D01*
X88842857Y-75168085D02*
X88785714Y-75225228D01*
X88785714Y-75225228D02*
X88728571Y-75253800D01*
X88108571Y-80837628D02*
X88451428Y-80837628D01*
X88279999Y-80837628D02*
X88279999Y-81437628D01*
X88279999Y-81437628D02*
X88337142Y-81351914D01*
X88337142Y-81351914D02*
X88394285Y-81294771D01*
X88394285Y-81294771D02*
X88451428Y-81266200D01*
X88118571Y-65237628D02*
X88461428Y-65237628D01*
X88289999Y-65237628D02*
X88289999Y-65837628D01*
X88289999Y-65837628D02*
X88347142Y-65751914D01*
X88347142Y-65751914D02*
X88404285Y-65694771D01*
X88404285Y-65694771D02*
X88461428Y-65666200D01*
X96971428Y-75682371D02*
X96628571Y-75682371D01*
X96800000Y-75682371D02*
X96800000Y-75082371D01*
X96800000Y-75082371D02*
X96742857Y-75168085D01*
X96742857Y-75168085D02*
X96685714Y-75225228D01*
X96685714Y-75225228D02*
X96628571Y-75253800D01*
X109101428Y-60152371D02*
X108758571Y-60152371D01*
X108930000Y-60152371D02*
X108930000Y-59552371D01*
X108930000Y-59552371D02*
X108872857Y-59638085D01*
X108872857Y-59638085D02*
X108815714Y-59695228D01*
X108815714Y-59695228D02*
X108758571Y-59723800D01*
X96128571Y-80817628D02*
X96471428Y-80817628D01*
X96299999Y-80817628D02*
X96299999Y-81417628D01*
X96299999Y-81417628D02*
X96357142Y-81331914D01*
X96357142Y-81331914D02*
X96414285Y-81274771D01*
X96414285Y-81274771D02*
X96471428Y-81246200D01*
X112108571Y-57727628D02*
X112451428Y-57727628D01*
X112279999Y-57727628D02*
X112279999Y-58327628D01*
X112279999Y-58327628D02*
X112337142Y-58241914D01*
X112337142Y-58241914D02*
X112394285Y-58184771D01*
X112394285Y-58184771D02*
X112451428Y-58156200D01*
X136118571Y-41927628D02*
X136461428Y-41927628D01*
X136289999Y-41927628D02*
X136289999Y-42527628D01*
X136289999Y-42527628D02*
X136347142Y-42441914D01*
X136347142Y-42441914D02*
X136404285Y-42384771D01*
X136404285Y-42384771D02*
X136461428Y-42356200D01*
X136118571Y-49907628D02*
X136461428Y-49907628D01*
X136289999Y-49907628D02*
X136289999Y-50507628D01*
X136289999Y-50507628D02*
X136347142Y-50421914D01*
X136347142Y-50421914D02*
X136404285Y-50364771D01*
X136404285Y-50364771D02*
X136461428Y-50336200D01*
X124128571Y-41937628D02*
X124471428Y-41937628D01*
X124299999Y-41937628D02*
X124299999Y-42537628D01*
X124299999Y-42537628D02*
X124357142Y-42451914D01*
X124357142Y-42451914D02*
X124414285Y-42394771D01*
X124414285Y-42394771D02*
X124471428Y-42366200D01*
X117091428Y-52502371D02*
X116748571Y-52502371D01*
X116920000Y-52502371D02*
X116920000Y-51902371D01*
X116920000Y-51902371D02*
X116862857Y-51988085D01*
X116862857Y-51988085D02*
X116805714Y-52045228D01*
X116805714Y-52045228D02*
X116748571Y-52073800D01*
X124178571Y-49937628D02*
X124521428Y-49937628D01*
X124349999Y-49937628D02*
X124349999Y-50537628D01*
X124349999Y-50537628D02*
X124407142Y-50451914D01*
X124407142Y-50451914D02*
X124464285Y-50394771D01*
X124464285Y-50394771D02*
X124521428Y-50366200D01*
X101061428Y-52432371D02*
X100718571Y-52432371D01*
X100890000Y-52432371D02*
X100890000Y-51832371D01*
X100890000Y-51832371D02*
X100832857Y-51918085D01*
X100832857Y-51918085D02*
X100775714Y-51975228D01*
X100775714Y-51975228D02*
X100718571Y-52003800D01*
X121071428Y-44732371D02*
X120728571Y-44732371D01*
X120900000Y-44732371D02*
X120900000Y-44132371D01*
X120900000Y-44132371D02*
X120842857Y-44218085D01*
X120842857Y-44218085D02*
X120785714Y-44275228D01*
X120785714Y-44275228D02*
X120728571Y-44303800D01*
X97411428Y-43887371D02*
X97068571Y-43887371D01*
X97240000Y-43887371D02*
X97240000Y-43287371D01*
X97240000Y-43287371D02*
X97182857Y-43373085D01*
X97182857Y-43373085D02*
X97125714Y-43430228D01*
X97125714Y-43430228D02*
X97068571Y-43458800D01*
X140478571Y-80967628D02*
X140821428Y-80967628D01*
X140649999Y-80967628D02*
X140649999Y-81567628D01*
X140649999Y-81567628D02*
X140707142Y-81481914D01*
X140707142Y-81481914D02*
X140764285Y-81424771D01*
X140764285Y-81424771D02*
X140821428Y-81396200D01*
X132108571Y-57817628D02*
X132451428Y-57817628D01*
X132279999Y-57817628D02*
X132279999Y-58417628D01*
X132279999Y-58417628D02*
X132337142Y-58331914D01*
X132337142Y-58331914D02*
X132394285Y-58274771D01*
X132394285Y-58274771D02*
X132451428Y-58246200D01*
X96128571Y-41937628D02*
X96471428Y-41937628D01*
X96299999Y-41937628D02*
X96299999Y-42537628D01*
X96299999Y-42537628D02*
X96357142Y-42451914D01*
X96357142Y-42451914D02*
X96414285Y-42394771D01*
X96414285Y-42394771D02*
X96471428Y-42366200D01*
X101091428Y-60182371D02*
X100748571Y-60182371D01*
X100920000Y-60182371D02*
X100920000Y-59582371D01*
X100920000Y-59582371D02*
X100862857Y-59668085D01*
X100862857Y-59668085D02*
X100805714Y-59725228D01*
X100805714Y-59725228D02*
X100748571Y-59753800D01*
X124981428Y-60162371D02*
X124638571Y-60162371D01*
X124810000Y-60162371D02*
X124810000Y-59562371D01*
X124810000Y-59562371D02*
X124752857Y-59648085D01*
X124752857Y-59648085D02*
X124695714Y-59705228D01*
X124695714Y-59705228D02*
X124638571Y-59733800D01*
X133431428Y-91572371D02*
X133088571Y-91572371D01*
X133260000Y-91572371D02*
X133260000Y-90972371D01*
X133260000Y-90972371D02*
X133202857Y-91058085D01*
X133202857Y-91058085D02*
X133145714Y-91115228D01*
X133145714Y-91115228D02*
X133088571Y-91143800D01*
X120098571Y-41927628D02*
X120441428Y-41927628D01*
X120269999Y-41927628D02*
X120269999Y-42527628D01*
X120269999Y-42527628D02*
X120327142Y-42441914D01*
X120327142Y-42441914D02*
X120384285Y-42384771D01*
X120384285Y-42384771D02*
X120441428Y-42356200D01*
X133441428Y-67982371D02*
X133098571Y-67982371D01*
X133270000Y-67982371D02*
X133270000Y-67382371D01*
X133270000Y-67382371D02*
X133212857Y-67468085D01*
X133212857Y-67468085D02*
X133155714Y-67525228D01*
X133155714Y-67525228D02*
X133098571Y-67553800D01*
X112158571Y-88887628D02*
X112501428Y-88887628D01*
X112329999Y-88887628D02*
X112329999Y-89487628D01*
X112329999Y-89487628D02*
X112387142Y-89401914D01*
X112387142Y-89401914D02*
X112444285Y-89344771D01*
X112444285Y-89344771D02*
X112501428Y-89316200D01*
X93221428Y-60212371D02*
X92878571Y-60212371D01*
X93050000Y-60212371D02*
X93050000Y-59612371D01*
X93050000Y-59612371D02*
X92992857Y-59698085D01*
X92992857Y-59698085D02*
X92935714Y-59755228D01*
X92935714Y-59755228D02*
X92878571Y-59783800D01*
X104158571Y-80787628D02*
X104501428Y-80787628D01*
X104329999Y-80787628D02*
X104329999Y-81387628D01*
X104329999Y-81387628D02*
X104387142Y-81301914D01*
X104387142Y-81301914D02*
X104444285Y-81244771D01*
X104444285Y-81244771D02*
X104501428Y-81216200D01*
X104158571Y-88917628D02*
X104501428Y-88917628D01*
X104329999Y-88917628D02*
X104329999Y-89517628D01*
X104329999Y-89517628D02*
X104387142Y-89431914D01*
X104387142Y-89431914D02*
X104444285Y-89374771D01*
X104444285Y-89374771D02*
X104501428Y-89346200D01*
X137421428Y-75682371D02*
X137078571Y-75682371D01*
X137250000Y-75682371D02*
X137250000Y-75082371D01*
X137250000Y-75082371D02*
X137192857Y-75168085D01*
X137192857Y-75168085D02*
X137135714Y-75225228D01*
X137135714Y-75225228D02*
X137078571Y-75253800D01*
X85061428Y-67832371D02*
X84718571Y-67832371D01*
X84890000Y-67832371D02*
X84890000Y-67232371D01*
X84890000Y-67232371D02*
X84832857Y-67318085D01*
X84832857Y-67318085D02*
X84775714Y-67375228D01*
X84775714Y-67375228D02*
X84718571Y-67403800D01*
X133431428Y-83872371D02*
X133088571Y-83872371D01*
X133260000Y-83872371D02*
X133260000Y-83272371D01*
X133260000Y-83272371D02*
X133202857Y-83358085D01*
X133202857Y-83358085D02*
X133145714Y-83415228D01*
X133145714Y-83415228D02*
X133088571Y-83443800D01*
X97211428Y-60232371D02*
X96868571Y-60232371D01*
X97040000Y-60232371D02*
X97040000Y-59632371D01*
X97040000Y-59632371D02*
X96982857Y-59718085D01*
X96982857Y-59718085D02*
X96925714Y-59775228D01*
X96925714Y-59775228D02*
X96868571Y-59803800D01*
X120048571Y-73157628D02*
X120391428Y-73157628D01*
X120219999Y-73157628D02*
X120219999Y-73757628D01*
X120219999Y-73757628D02*
X120277142Y-73671914D01*
X120277142Y-73671914D02*
X120334285Y-73614771D01*
X120334285Y-73614771D02*
X120391428Y-73586200D01*
X109051428Y-44602371D02*
X108708571Y-44602371D01*
X108880000Y-44602371D02*
X108880000Y-44002371D01*
X108880000Y-44002371D02*
X108822857Y-44088085D01*
X108822857Y-44088085D02*
X108765714Y-44145228D01*
X108765714Y-44145228D02*
X108708571Y-44173800D01*
X116991428Y-91582371D02*
X116648571Y-91582371D01*
X116820000Y-91582371D02*
X116820000Y-90982371D01*
X116820000Y-90982371D02*
X116762857Y-91068085D01*
X116762857Y-91068085D02*
X116705714Y-91125228D01*
X116705714Y-91125228D02*
X116648571Y-91153800D01*
X92128571Y-73037628D02*
X92471428Y-73037628D01*
X92299999Y-73037628D02*
X92299999Y-73637628D01*
X92299999Y-73637628D02*
X92357142Y-73551914D01*
X92357142Y-73551914D02*
X92414285Y-73494771D01*
X92414285Y-73494771D02*
X92471428Y-73466200D01*
X129431428Y-91572371D02*
X129088571Y-91572371D01*
X129260000Y-91572371D02*
X129260000Y-90972371D01*
X129260000Y-90972371D02*
X129202857Y-91058085D01*
X129202857Y-91058085D02*
X129145714Y-91115228D01*
X129145714Y-91115228D02*
X129088571Y-91143800D01*
X129441428Y-75712371D02*
X129098571Y-75712371D01*
X129270000Y-75712371D02*
X129270000Y-75112371D01*
X129270000Y-75112371D02*
X129212857Y-75198085D01*
X129212857Y-75198085D02*
X129155714Y-75255228D01*
X129155714Y-75255228D02*
X129098571Y-75283800D01*
X124158571Y-73167628D02*
X124501428Y-73167628D01*
X124329999Y-73167628D02*
X124329999Y-73767628D01*
X124329999Y-73767628D02*
X124387142Y-73681914D01*
X124387142Y-73681914D02*
X124444285Y-73624771D01*
X124444285Y-73624771D02*
X124501428Y-73596200D01*
X140468571Y-65237628D02*
X140811428Y-65237628D01*
X140639999Y-65237628D02*
X140639999Y-65837628D01*
X140639999Y-65837628D02*
X140697142Y-65751914D01*
X140697142Y-65751914D02*
X140754285Y-65694771D01*
X140754285Y-65694771D02*
X140811428Y-65666200D01*
X104118571Y-41937628D02*
X104461428Y-41937628D01*
X104289999Y-41937628D02*
X104289999Y-42537628D01*
X104289999Y-42537628D02*
X104347142Y-42451914D01*
X104347142Y-42451914D02*
X104404285Y-42394771D01*
X104404285Y-42394771D02*
X104461428Y-42366200D01*
X140108571Y-41927628D02*
X140451428Y-41927628D01*
X140279999Y-41927628D02*
X140279999Y-42527628D01*
X140279999Y-42527628D02*
X140337142Y-42441914D01*
X140337142Y-42441914D02*
X140394285Y-42384771D01*
X140394285Y-42384771D02*
X140451428Y-42356200D01*
X93736428Y-43887371D02*
X93393571Y-43887371D01*
X93565000Y-43887371D02*
X93565000Y-43287371D01*
X93565000Y-43287371D02*
X93507857Y-43373085D01*
X93507857Y-43373085D02*
X93450714Y-43430228D01*
X93450714Y-43430228D02*
X93393571Y-43458800D01*
X125361428Y-83872371D02*
X125018571Y-83872371D01*
X125190000Y-83872371D02*
X125190000Y-83272371D01*
X125190000Y-83272371D02*
X125132857Y-83358085D01*
X125132857Y-83358085D02*
X125075714Y-83415228D01*
X125075714Y-83415228D02*
X125018571Y-83443800D01*
X125361428Y-91572371D02*
X125018571Y-91572371D01*
X125190000Y-91572371D02*
X125190000Y-90972371D01*
X125190000Y-90972371D02*
X125132857Y-91058085D01*
X125132857Y-91058085D02*
X125075714Y-91115228D01*
X125075714Y-91115228D02*
X125018571Y-91143800D01*
X87568571Y-42917628D02*
X87911428Y-42917628D01*
X87739999Y-42917628D02*
X87739999Y-43517628D01*
X87739999Y-43517628D02*
X87797142Y-43431914D01*
X87797142Y-43431914D02*
X87854285Y-43374771D01*
X87854285Y-43374771D02*
X87911428Y-43346200D01*
X112158571Y-80857628D02*
X112501428Y-80857628D01*
X112329999Y-80857628D02*
X112329999Y-81457628D01*
X112329999Y-81457628D02*
X112387142Y-81371914D01*
X112387142Y-81371914D02*
X112444285Y-81314771D01*
X112444285Y-81314771D02*
X112501428Y-81286200D01*
X116098571Y-41927628D02*
X116441428Y-41927628D01*
X116269999Y-41927628D02*
X116269999Y-42527628D01*
X116269999Y-42527628D02*
X116327142Y-42441914D01*
X116327142Y-42441914D02*
X116384285Y-42384771D01*
X116384285Y-42384771D02*
X116441428Y-42356200D01*
X113041428Y-44722371D02*
X112698571Y-44722371D01*
X112870000Y-44722371D02*
X112870000Y-44122371D01*
X112870000Y-44122371D02*
X112812857Y-44208085D01*
X112812857Y-44208085D02*
X112755714Y-44265228D01*
X112755714Y-44265228D02*
X112698571Y-44293800D01*
X89071428Y-44732371D02*
X88728571Y-44732371D01*
X88900000Y-44732371D02*
X88900000Y-44132371D01*
X88900000Y-44132371D02*
X88842857Y-44218085D01*
X88842857Y-44218085D02*
X88785714Y-44275228D01*
X88785714Y-44275228D02*
X88728571Y-44303800D01*
X93071428Y-67862371D02*
X92728571Y-67862371D01*
X92900000Y-67862371D02*
X92900000Y-67262371D01*
X92900000Y-67262371D02*
X92842857Y-67348085D01*
X92842857Y-67348085D02*
X92785714Y-67405228D01*
X92785714Y-67405228D02*
X92728571Y-67433800D01*
X108128571Y-80867628D02*
X108471428Y-80867628D01*
X108299999Y-80867628D02*
X108299999Y-81467628D01*
X108299999Y-81467628D02*
X108357142Y-81381914D01*
X108357142Y-81381914D02*
X108414285Y-81324771D01*
X108414285Y-81324771D02*
X108471428Y-81296200D01*
X140468571Y-73107628D02*
X140811428Y-73107628D01*
X140639999Y-73107628D02*
X140639999Y-73707628D01*
X140639999Y-73707628D02*
X140697142Y-73621914D01*
X140697142Y-73621914D02*
X140754285Y-73564771D01*
X140754285Y-73564771D02*
X140811428Y-73536200D01*
X104971428Y-44522371D02*
X104628571Y-44522371D01*
X104800000Y-44522371D02*
X104800000Y-43922371D01*
X104800000Y-43922371D02*
X104742857Y-44008085D01*
X104742857Y-44008085D02*
X104685714Y-44065228D01*
X104685714Y-44065228D02*
X104628571Y-44093800D01*
X108128571Y-41927628D02*
X108471428Y-41927628D01*
X108299999Y-41927628D02*
X108299999Y-42527628D01*
X108299999Y-42527628D02*
X108357142Y-42441914D01*
X108357142Y-42441914D02*
X108414285Y-42384771D01*
X108414285Y-42384771D02*
X108471428Y-42356200D01*
X121111428Y-60142371D02*
X120768571Y-60142371D01*
X120940000Y-60142371D02*
X120940000Y-59542371D01*
X120940000Y-59542371D02*
X120882857Y-59628085D01*
X120882857Y-59628085D02*
X120825714Y-59685228D01*
X120825714Y-59685228D02*
X120768571Y-59713800D01*
X137051428Y-52522371D02*
X136708571Y-52522371D01*
X136880000Y-52522371D02*
X136880000Y-51922371D01*
X136880000Y-51922371D02*
X136822857Y-52008085D01*
X136822857Y-52008085D02*
X136765714Y-52065228D01*
X136765714Y-52065228D02*
X136708571Y-52093800D01*
X116098571Y-73157628D02*
X116441428Y-73157628D01*
X116269999Y-73157628D02*
X116269999Y-73757628D01*
X116269999Y-73757628D02*
X116327142Y-73671914D01*
X116327142Y-73671914D02*
X116384285Y-73614771D01*
X116384285Y-73614771D02*
X116441428Y-73586200D01*
X117091428Y-60152371D02*
X116748571Y-60152371D01*
X116920000Y-60152371D02*
X116920000Y-59552371D01*
X116920000Y-59552371D02*
X116862857Y-59638085D01*
X116862857Y-59638085D02*
X116805714Y-59695228D01*
X116805714Y-59695228D02*
X116748571Y-59723800D01*
X104158571Y-73037628D02*
X104501428Y-73037628D01*
X104329999Y-73037628D02*
X104329999Y-73637628D01*
X104329999Y-73637628D02*
X104387142Y-73551914D01*
X104387142Y-73551914D02*
X104444285Y-73494771D01*
X104444285Y-73494771D02*
X104501428Y-73466200D01*
X112108571Y-49807628D02*
X112451428Y-49807628D01*
X112279999Y-49807628D02*
X112279999Y-50407628D01*
X112279999Y-50407628D02*
X112337142Y-50321914D01*
X112337142Y-50321914D02*
X112394285Y-50264771D01*
X112394285Y-50264771D02*
X112451428Y-50236200D01*
X101101428Y-75632371D02*
X100758571Y-75632371D01*
X100930000Y-75632371D02*
X100930000Y-75032371D01*
X100930000Y-75032371D02*
X100872857Y-75118085D01*
X100872857Y-75118085D02*
X100815714Y-75175228D01*
X100815714Y-75175228D02*
X100758571Y-75203800D01*
X137051428Y-44692371D02*
X136708571Y-44692371D01*
X136880000Y-44692371D02*
X136880000Y-44092371D01*
X136880000Y-44092371D02*
X136822857Y-44178085D01*
X136822857Y-44178085D02*
X136765714Y-44235228D01*
X136765714Y-44235228D02*
X136708571Y-44263800D01*
X105071428Y-75662371D02*
X104728571Y-75662371D01*
X104900000Y-75662371D02*
X104900000Y-75062371D01*
X104900000Y-75062371D02*
X104842857Y-75148085D01*
X104842857Y-75148085D02*
X104785714Y-75205228D01*
X104785714Y-75205228D02*
X104728571Y-75233800D01*
X108128571Y-73067628D02*
X108471428Y-73067628D01*
X108299999Y-73067628D02*
X108299999Y-73667628D01*
X108299999Y-73667628D02*
X108357142Y-73581914D01*
X108357142Y-73581914D02*
X108414285Y-73524771D01*
X108414285Y-73524771D02*
X108471428Y-73496200D01*
X108128571Y-65217628D02*
X108471428Y-65217628D01*
X108299999Y-65217628D02*
X108299999Y-65817628D01*
X108299999Y-65817628D02*
X108357142Y-65731914D01*
X108357142Y-65731914D02*
X108414285Y-65674771D01*
X108414285Y-65674771D02*
X108471428Y-65646200D01*
X96128571Y-73037628D02*
X96471428Y-73037628D01*
X96299999Y-73037628D02*
X96299999Y-73637628D01*
X96299999Y-73637628D02*
X96357142Y-73551914D01*
X96357142Y-73551914D02*
X96414285Y-73494771D01*
X96414285Y-73494771D02*
X96471428Y-73466200D01*
X89071428Y-67832371D02*
X88728571Y-67832371D01*
X88900000Y-67832371D02*
X88900000Y-67232371D01*
X88900000Y-67232371D02*
X88842857Y-67318085D01*
X88842857Y-67318085D02*
X88785714Y-67375228D01*
X88785714Y-67375228D02*
X88728571Y-67403800D01*
X125361428Y-75712371D02*
X125018571Y-75712371D01*
X125190000Y-75712371D02*
X125190000Y-75112371D01*
X125190000Y-75112371D02*
X125132857Y-75198085D01*
X125132857Y-75198085D02*
X125075714Y-75255228D01*
X125075714Y-75255228D02*
X125018571Y-75283800D01*
X117041428Y-44722371D02*
X116698571Y-44722371D01*
X116870000Y-44722371D02*
X116870000Y-44122371D01*
X116870000Y-44122371D02*
X116812857Y-44208085D01*
X116812857Y-44208085D02*
X116755714Y-44265228D01*
X116755714Y-44265228D02*
X116698571Y-44293800D01*
X128028571Y-57827628D02*
X128371428Y-57827628D01*
X128199999Y-57827628D02*
X128199999Y-58427628D01*
X128199999Y-58427628D02*
X128257142Y-58341914D01*
X128257142Y-58341914D02*
X128314285Y-58284771D01*
X128314285Y-58284771D02*
X128371428Y-58256200D01*
X85051428Y-75682371D02*
X84708571Y-75682371D01*
X84880000Y-75682371D02*
X84880000Y-75082371D01*
X84880000Y-75082371D02*
X84822857Y-75168085D01*
X84822857Y-75168085D02*
X84765714Y-75225228D01*
X84765714Y-75225228D02*
X84708571Y-75253800D01*
X93071428Y-52562371D02*
X92728571Y-52562371D01*
X92900000Y-52562371D02*
X92900000Y-51962371D01*
X92900000Y-51962371D02*
X92842857Y-52048085D01*
X92842857Y-52048085D02*
X92785714Y-52105228D01*
X92785714Y-52105228D02*
X92728571Y-52133800D01*
X128418571Y-80967628D02*
X128761428Y-80967628D01*
X128589999Y-80967628D02*
X128589999Y-81567628D01*
X128589999Y-81567628D02*
X128647142Y-81481914D01*
X128647142Y-81481914D02*
X128704285Y-81424771D01*
X128704285Y-81424771D02*
X128761428Y-81396200D01*
X104118571Y-57737628D02*
X104461428Y-57737628D01*
X104289999Y-57737628D02*
X104289999Y-58337628D01*
X104289999Y-58337628D02*
X104347142Y-58251914D01*
X104347142Y-58251914D02*
X104404285Y-58194771D01*
X104404285Y-58194771D02*
X104461428Y-58166200D01*
X89071428Y-60232371D02*
X88728571Y-60232371D01*
X88900000Y-60232371D02*
X88900000Y-59632371D01*
X88900000Y-59632371D02*
X88842857Y-59718085D01*
X88842857Y-59718085D02*
X88785714Y-59775228D01*
X88785714Y-59775228D02*
X88728571Y-59803800D01*
X88118571Y-73037628D02*
X88461428Y-73037628D01*
X88289999Y-73037628D02*
X88289999Y-73637628D01*
X88289999Y-73637628D02*
X88347142Y-73551914D01*
X88347142Y-73551914D02*
X88404285Y-73494771D01*
X88404285Y-73494771D02*
X88461428Y-73466200D01*
X129431428Y-83872371D02*
X129088571Y-83872371D01*
X129260000Y-83872371D02*
X129260000Y-83272371D01*
X129260000Y-83272371D02*
X129202857Y-83358085D01*
X129202857Y-83358085D02*
X129145714Y-83415228D01*
X129145714Y-83415228D02*
X129088571Y-83443800D01*
X93071428Y-83782371D02*
X92728571Y-83782371D01*
X92900000Y-83782371D02*
X92900000Y-83182371D01*
X92900000Y-83182371D02*
X92842857Y-83268085D01*
X92842857Y-83268085D02*
X92785714Y-83325228D01*
X92785714Y-83325228D02*
X92728571Y-83353800D01*
X116991428Y-67922371D02*
X116648571Y-67922371D01*
X116820000Y-67922371D02*
X116820000Y-67322371D01*
X116820000Y-67322371D02*
X116762857Y-67408085D01*
X116762857Y-67408085D02*
X116705714Y-67465228D01*
X116705714Y-67465228D02*
X116648571Y-67493800D01*
X137421428Y-83872371D02*
X137078571Y-83872371D01*
X137250000Y-83872371D02*
X137250000Y-83272371D01*
X137250000Y-83272371D02*
X137192857Y-83358085D01*
X137192857Y-83358085D02*
X137135714Y-83415228D01*
X137135714Y-83415228D02*
X137078571Y-83443800D01*
X104971428Y-52322371D02*
X104628571Y-52322371D01*
X104800000Y-52322371D02*
X104800000Y-51722371D01*
X104800000Y-51722371D02*
X104742857Y-51808085D01*
X104742857Y-51808085D02*
X104685714Y-51865228D01*
X104685714Y-51865228D02*
X104628571Y-51893800D01*
X120048571Y-88987628D02*
X120391428Y-88987628D01*
X120219999Y-88987628D02*
X120219999Y-89587628D01*
X120219999Y-89587628D02*
X120277142Y-89501914D01*
X120277142Y-89501914D02*
X120334285Y-89444771D01*
X120334285Y-89444771D02*
X120391428Y-89416200D01*
X109101428Y-75652371D02*
X108758571Y-75652371D01*
X108930000Y-75652371D02*
X108930000Y-75052371D01*
X108930000Y-75052371D02*
X108872857Y-75138085D01*
X108872857Y-75138085D02*
X108815714Y-75195228D01*
X108815714Y-75195228D02*
X108758571Y-75223800D01*
X133061428Y-60152371D02*
X132718571Y-60152371D01*
X132890000Y-60152371D02*
X132890000Y-59552371D01*
X132890000Y-59552371D02*
X132832857Y-59638085D01*
X132832857Y-59638085D02*
X132775714Y-59695228D01*
X132775714Y-59695228D02*
X132718571Y-59723800D01*
X136488571Y-73127628D02*
X136831428Y-73127628D01*
X136659999Y-73127628D02*
X136659999Y-73727628D01*
X136659999Y-73727628D02*
X136717142Y-73641914D01*
X136717142Y-73641914D02*
X136774285Y-73584771D01*
X136774285Y-73584771D02*
X136831428Y-73556200D01*
X100208571Y-57837628D02*
X100551428Y-57837628D01*
X100379999Y-57837628D02*
X100379999Y-58437628D01*
X100379999Y-58437628D02*
X100437142Y-58351914D01*
X100437142Y-58351914D02*
X100494285Y-58294771D01*
X100494285Y-58294771D02*
X100551428Y-58266200D01*
X136478571Y-65267628D02*
X136821428Y-65267628D01*
X136649999Y-65267628D02*
X136649999Y-65867628D01*
X136649999Y-65867628D02*
X136707142Y-65781914D01*
X136707142Y-65781914D02*
X136764285Y-65724771D01*
X136764285Y-65724771D02*
X136821428Y-65696200D01*
X93071428Y-91532371D02*
X92728571Y-91532371D01*
X92900000Y-91532371D02*
X92900000Y-90932371D01*
X92900000Y-90932371D02*
X92842857Y-91018085D01*
X92842857Y-91018085D02*
X92785714Y-91075228D01*
X92785714Y-91075228D02*
X92728571Y-91103800D01*
X105071428Y-67792371D02*
X104728571Y-67792371D01*
X104900000Y-67792371D02*
X104900000Y-67192371D01*
X104900000Y-67192371D02*
X104842857Y-67278085D01*
X104842857Y-67278085D02*
X104785714Y-67335228D01*
X104785714Y-67335228D02*
X104728571Y-67363800D01*
X100208571Y-73037628D02*
X100551428Y-73037628D01*
X100379999Y-73037628D02*
X100379999Y-73637628D01*
X100379999Y-73637628D02*
X100437142Y-73551914D01*
X100437142Y-73551914D02*
X100494285Y-73494771D01*
X100494285Y-73494771D02*
X100551428Y-73466200D01*
X132108571Y-41937628D02*
X132451428Y-41937628D01*
X132279999Y-41937628D02*
X132279999Y-42537628D01*
X132279999Y-42537628D02*
X132337142Y-42451914D01*
X132337142Y-42451914D02*
X132394285Y-42394771D01*
X132394285Y-42394771D02*
X132451428Y-42366200D01*
X108128571Y-88917628D02*
X108471428Y-88917628D01*
X108299999Y-88917628D02*
X108299999Y-89517628D01*
X108299999Y-89517628D02*
X108357142Y-89431914D01*
X108357142Y-89431914D02*
X108414285Y-89374771D01*
X108414285Y-89374771D02*
X108471428Y-89346200D01*
X128418571Y-88977628D02*
X128761428Y-88977628D01*
X128589999Y-88977628D02*
X128589999Y-89577628D01*
X128589999Y-89577628D02*
X128647142Y-89491914D01*
X128647142Y-89491914D02*
X128704285Y-89434771D01*
X128704285Y-89434771D02*
X128761428Y-89406200D01*
X89071428Y-91532371D02*
X88728571Y-91532371D01*
X88900000Y-91532371D02*
X88900000Y-90932371D01*
X88900000Y-90932371D02*
X88842857Y-91018085D01*
X88842857Y-91018085D02*
X88785714Y-91075228D01*
X88785714Y-91075228D02*
X88728571Y-91103800D01*
D12*
%TO.C,J3*%
X78620000Y-80220000D02*
X80000000Y-80220000D01*
X78620000Y-81600000D02*
X78620000Y-80220000D01*
X78620000Y-82870000D02*
X78620000Y-90600000D01*
X78620000Y-82870000D02*
X81380000Y-82870000D01*
X78620000Y-90600000D02*
X81380000Y-90600000D01*
X81380000Y-82870000D02*
X81380000Y-90600000D01*
%TO.C,D37*%
X133390000Y-46750000D02*
X134090000Y-46750000D01*
%TO.C,D173*%
X97390000Y-85810000D02*
X98090000Y-85810000D01*
%TO.C,D123*%
X109430000Y-93510000D02*
X110130000Y-93510000D01*
%TO.C,D200*%
X93400000Y-77710000D02*
X94100000Y-77710000D01*
%TO.C,D141*%
X136160000Y-86950000D02*
X135460000Y-86950000D01*
%TO.C,D114*%
X119720000Y-63300000D02*
X119020000Y-63300000D01*
%TO.C,D208*%
X91800000Y-78810000D02*
X91100000Y-78810000D01*
%TO.C,D74*%
X97390000Y-54560000D02*
X98090000Y-54560000D01*
%TO.C,D125*%
X113370000Y-93610000D02*
X114070000Y-93610000D01*
%TO.C,D100*%
X105400000Y-62180000D02*
X106100000Y-62180000D01*
%TO.C,D115*%
X123830000Y-63310000D02*
X123130000Y-63310000D01*
%TO.C,D61*%
X131780000Y-47910000D02*
X131080000Y-47910000D01*
%TO.C,D181*%
X113420000Y-85910000D02*
X114120000Y-85910000D01*
%TO.C,D53*%
X99790000Y-47960000D02*
X99090000Y-47960000D01*
%TO.C,D65*%
X133390000Y-54550000D02*
X134090000Y-54550000D01*
%TO.C,D58*%
X119820000Y-47930000D02*
X119120000Y-47930000D01*
%TO.C,D130*%
X121430000Y-69990000D02*
X122130000Y-69990000D01*
%TO.C,D122*%
X137760000Y-69980000D02*
X138460000Y-69980000D01*
%TO.C,D161*%
X95800000Y-86960000D02*
X95100000Y-86960000D01*
%TO.C,D151*%
X115770000Y-86960000D02*
X115070000Y-86960000D01*
%TO.C,D162*%
X111830000Y-71030000D02*
X111130000Y-71030000D01*
%TO.C,D186*%
X121430000Y-77740000D02*
X122130000Y-77740000D01*
%TO.C,D78*%
X87790000Y-55790000D02*
X87090000Y-55790000D01*
%TO.C,D113*%
X115820000Y-63280000D02*
X115120000Y-63280000D01*
%TO.C,D188*%
X117320000Y-77730000D02*
X118020000Y-77730000D01*
%TO.C,D172*%
X132150000Y-71120000D02*
X131450000Y-71120000D01*
%TO.C,D183*%
X117320000Y-85890000D02*
X118020000Y-85890000D01*
%TO.C,D86*%
X119820000Y-55800000D02*
X119120000Y-55800000D01*
%TO.C,D90*%
X135790000Y-55750000D02*
X135090000Y-55750000D01*
%TO.C,D87*%
X123850000Y-55810000D02*
X123150000Y-55810000D01*
%TO.C,D79*%
X91800000Y-55790000D02*
X91100000Y-55790000D01*
%TO.C,D76*%
X89400000Y-54610000D02*
X90100000Y-54610000D01*
%TO.C,D129*%
X121430000Y-93630000D02*
X122130000Y-93630000D01*
%TO.C,D18*%
X91800000Y-39910000D02*
X91100000Y-39910000D01*
%TO.C,D185*%
X121430000Y-85890000D02*
X122130000Y-85890000D01*
%TO.C,D45*%
X101390000Y-46690000D02*
X102090000Y-46690000D01*
%TO.C,D105*%
X85390000Y-62260000D02*
X86090000Y-62260000D01*
%TO.C,D50*%
X87780000Y-47960000D02*
X87080000Y-47960000D01*
%TO.C,D140*%
X101440000Y-69850000D02*
X102140000Y-69850000D01*
%TO.C,D80*%
X95800000Y-55810000D02*
X95100000Y-55810000D01*
%TO.C,D38*%
X129380000Y-46760000D02*
X130080000Y-46760000D01*
%TO.C,D163*%
X91800000Y-86990000D02*
X91100000Y-86990000D01*
%TO.C,D169*%
X89400000Y-85810000D02*
X90100000Y-85810000D01*
%TO.C,D119*%
X101430000Y-93510000D02*
X102130000Y-93510000D01*
%TO.C,D54*%
X103790000Y-47840000D02*
X103090000Y-47840000D01*
%TO.C,D98*%
X113370000Y-62170000D02*
X114070000Y-62170000D01*
%TO.C,D85*%
X115770000Y-55800000D02*
X115070000Y-55800000D01*
%TO.C,D212*%
X99790000Y-78810000D02*
X99090000Y-78810000D01*
%TO.C,D112*%
X111830000Y-63180000D02*
X111130000Y-63180000D01*
%TO.C,D214*%
X97390000Y-93560000D02*
X98090000Y-93560000D01*
%TO.C,D20*%
X99790000Y-39910000D02*
X99090000Y-39910000D01*
%TO.C,D68*%
X121450000Y-54560000D02*
X122150000Y-54560000D01*
%TO.C,D109*%
X99790000Y-63210000D02*
X99090000Y-63210000D01*
%TO.C,D66*%
X129380000Y-54560000D02*
X130080000Y-54560000D01*
%TO.C,D57*%
X115770000Y-47900000D02*
X115070000Y-47900000D01*
%TO.C,D143*%
X132160000Y-86950000D02*
X131460000Y-86950000D01*
%TO.C,D116*%
X128080000Y-63280000D02*
X127380000Y-63280000D01*
%TO.C,D92*%
X137370000Y-62170000D02*
X138070000Y-62170000D01*
%TO.C,D139*%
X140150000Y-86970000D02*
X139450000Y-86970000D01*
%TO.C,D134*%
X113420000Y-69950000D02*
X114120000Y-69950000D01*
%TO.C,D91*%
X139780000Y-55700000D02*
X139080000Y-55700000D01*
%TO.C,D137*%
X137750000Y-93620000D02*
X138450000Y-93620000D01*
%TO.C,D165*%
X87790000Y-87010000D02*
X87090000Y-87010000D01*
%TO.C,D175*%
X101430000Y-85760000D02*
X102130000Y-85760000D01*
%TO.C,D147*%
X123830000Y-86940000D02*
X123130000Y-86940000D01*
%TO.C,D52*%
X95800000Y-47960000D02*
X95100000Y-47960000D01*
%TO.C,D70*%
X113370000Y-54550000D02*
X114070000Y-54550000D01*
%TO.C,D49*%
X85380000Y-46800000D02*
X86080000Y-46800000D01*
%TO.C,D110*%
X103820000Y-63190000D02*
X103120000Y-63190000D01*
%TO.C,D121*%
X105400000Y-93540000D02*
X106100000Y-93540000D01*
%TO.C,D63*%
X139780000Y-47880000D02*
X139080000Y-47880000D01*
%TO.C,D128*%
X125680000Y-70000000D02*
X126380000Y-70000000D01*
%TO.C,D83*%
X107800000Y-55700000D02*
X107100000Y-55700000D01*
%TO.C,D205*%
X119720000Y-78930000D02*
X119020000Y-78930000D01*
%TO.C,D203*%
X123830000Y-78940000D02*
X123130000Y-78940000D01*
%TO.C,D39*%
X125300000Y-46750000D02*
X126000000Y-46750000D01*
%TO.C,D136*%
X109430000Y-69830000D02*
X110130000Y-69830000D01*
%TO.C,D159*%
X99790000Y-86960000D02*
X99090000Y-86960000D01*
%TO.C,D170*%
X128080000Y-71140000D02*
X127380000Y-71140000D01*
%TO.C,D94*%
X129380000Y-62190000D02*
X130080000Y-62190000D01*
%TO.C,D179*%
X109430000Y-85790000D02*
X110130000Y-85790000D01*
%TO.C,D117*%
X132160000Y-63310000D02*
X131460000Y-63310000D01*
%TO.C,D177*%
X105400000Y-85790000D02*
X106100000Y-85790000D01*
%TO.C,D207*%
X115820000Y-78960000D02*
X115120000Y-78960000D01*
%TO.C,D226*%
X85380000Y-93560000D02*
X86080000Y-93560000D01*
%TO.C,D180*%
X133760000Y-77740000D02*
X134460000Y-77740000D01*
%TO.C,D190*%
X113370000Y-77780000D02*
X114070000Y-77780000D01*
%TO.C,D197*%
X136160000Y-78970000D02*
X135460000Y-78970000D01*
%TO.C,D77*%
X85390000Y-54610000D02*
X86090000Y-54610000D01*
%TO.C,D51*%
X91800000Y-47960000D02*
X91100000Y-47960000D01*
%TO.C,D55*%
X107800000Y-47800000D02*
X107100000Y-47800000D01*
%TO.C,D167*%
X85380000Y-85810000D02*
X86080000Y-85810000D01*
%TO.C,D67*%
X125300000Y-54550000D02*
X126000000Y-54550000D01*
%TO.C,D60*%
X127700000Y-47900000D02*
X127000000Y-47900000D01*
%TO.C,D199*%
X132170000Y-78940000D02*
X131470000Y-78940000D01*
%TO.C,D107*%
X91800000Y-63210000D02*
X91100000Y-63210000D01*
%TO.C,D108*%
X95800000Y-63210000D02*
X95100000Y-63210000D01*
%TO.C,D32*%
X127750000Y-39900000D02*
X127050000Y-39900000D01*
%TO.C,D126*%
X129760000Y-70010000D02*
X130460000Y-70010000D01*
%TO.C,J2*%
X78385000Y-51615000D02*
X79765000Y-51615000D01*
X78385000Y-52995000D02*
X78385000Y-51615000D01*
X78385000Y-54265000D02*
X78385000Y-61995000D01*
X78385000Y-54265000D02*
X81145000Y-54265000D01*
X78385000Y-61995000D02*
X81145000Y-61995000D01*
X81145000Y-54265000D02*
X81145000Y-61995000D01*
%TO.C,D28*%
X111780000Y-39900000D02*
X111080000Y-39900000D01*
%TO.C,D142*%
X97390000Y-69890000D02*
X98090000Y-69890000D01*
%TO.C,D71*%
X109380000Y-54450000D02*
X110080000Y-54450000D01*
%TO.C,D202*%
X89400000Y-77710000D02*
X90100000Y-77710000D01*
%TO.C,D206*%
X87780000Y-78810000D02*
X87080000Y-78810000D01*
%TO.C,D106*%
X87790000Y-63210000D02*
X87090000Y-63210000D01*
%TO.C,D198*%
X97390000Y-77710000D02*
X98090000Y-77710000D01*
%TO.C,D99*%
X109430000Y-62180000D02*
X110130000Y-62180000D01*
%TO.C,D210*%
X95800000Y-78790000D02*
X95100000Y-78790000D01*
%TO.C,D84*%
X111780000Y-55700000D02*
X111080000Y-55700000D01*
%TO.C,D34*%
X135790000Y-39900000D02*
X135090000Y-39900000D01*
%TO.C,D62*%
X135790000Y-47880000D02*
X135090000Y-47880000D01*
%TO.C,D31*%
X123800000Y-39910000D02*
X123100000Y-39910000D01*
%TO.C,D69*%
X117420000Y-54530000D02*
X118120000Y-54530000D01*
%TO.C,D59*%
X123850000Y-47910000D02*
X123150000Y-47910000D01*
%TO.C,D73*%
X101390000Y-54460000D02*
X102090000Y-54460000D01*
%TO.C,D40*%
X121400000Y-46760000D02*
X122100000Y-46760000D01*
%TO.C,D46*%
X97390000Y-46760000D02*
X98090000Y-46760000D01*
%TO.C,D195*%
X140150000Y-78940000D02*
X139450000Y-78940000D01*
%TO.C,D89*%
X131780000Y-55790000D02*
X131080000Y-55790000D01*
%TO.C,D19*%
X95800000Y-39910000D02*
X95100000Y-39910000D01*
%TO.C,D101*%
X101420000Y-62210000D02*
X102120000Y-62210000D01*
%TO.C,D95*%
X125310000Y-62190000D02*
X126010000Y-62190000D01*
%TO.C,D135*%
X133760000Y-93600000D02*
X134460000Y-93600000D01*
%TO.C,D30*%
X119770000Y-39900000D02*
X119070000Y-39900000D01*
%TO.C,D124*%
X133770000Y-70010000D02*
X134470000Y-70010000D01*
%TO.C,D153*%
X111830000Y-86860000D02*
X111130000Y-86860000D01*
%TO.C,D103*%
X93550000Y-62240000D02*
X94250000Y-62240000D01*
%TO.C,D213*%
X103830000Y-78760000D02*
X103130000Y-78760000D01*
%TO.C,D157*%
X103830000Y-86890000D02*
X103130000Y-86890000D01*
%TO.C,D178*%
X137750000Y-77710000D02*
X138450000Y-77710000D01*
%TO.C,D148*%
X85390000Y-69860000D02*
X86090000Y-69860000D01*
%TO.C,D191*%
X133760000Y-85900000D02*
X134460000Y-85900000D01*
%TO.C,D102*%
X97540000Y-62260000D02*
X98240000Y-62260000D01*
%TO.C,D166*%
X119720000Y-71130000D02*
X119020000Y-71130000D01*
%TO.C,D43*%
X109380000Y-46630000D02*
X110080000Y-46630000D01*
%TO.C,D127*%
X117320000Y-93610000D02*
X118020000Y-93610000D01*
%TO.C,D152*%
X91800000Y-71010000D02*
X91100000Y-71010000D01*
%TO.C,D133*%
X129760000Y-93600000D02*
X130460000Y-93600000D01*
%TO.C,D182*%
X129770000Y-77740000D02*
X130470000Y-77740000D01*
%TO.C,D168*%
X123830000Y-71140000D02*
X123130000Y-71140000D01*
%TO.C,D120*%
X140140000Y-63210000D02*
X139440000Y-63210000D01*
%TO.C,D26*%
X103790000Y-39910000D02*
X103090000Y-39910000D01*
%TO.C,D35*%
X139780000Y-39900000D02*
X139080000Y-39900000D01*
%TO.C,D47*%
X93400000Y-46760000D02*
X94100000Y-46760000D01*
%TO.C,D187*%
X125690000Y-85900000D02*
X126390000Y-85900000D01*
%TO.C,D131*%
X125690000Y-93600000D02*
X126390000Y-93600000D01*
%TO.C,D17*%
X87790000Y-39910000D02*
X87090000Y-39910000D01*
%TO.C,D209*%
X111830000Y-78830000D02*
X111130000Y-78830000D01*
%TO.C,D29*%
X115770000Y-39900000D02*
X115070000Y-39900000D01*
%TO.C,D42*%
X113370000Y-46750000D02*
X114070000Y-46750000D01*
%TO.C,D48*%
X89400000Y-46760000D02*
X90100000Y-46760000D01*
%TO.C,D144*%
X93400000Y-69890000D02*
X94100000Y-69890000D01*
%TO.C,D211*%
X107800000Y-78840000D02*
X107100000Y-78840000D01*
%TO.C,D176*%
X140140000Y-71080000D02*
X139440000Y-71080000D01*
%TO.C,D44*%
X105400000Y-46650000D02*
X106100000Y-46650000D01*
%TO.C,D27*%
X107800000Y-39900000D02*
X107100000Y-39900000D01*
%TO.C,D96*%
X121440000Y-62170000D02*
X122140000Y-62170000D01*
%TO.C,D64*%
X137380000Y-54550000D02*
X138080000Y-54550000D01*
%TO.C,D164*%
X115770000Y-71130000D02*
X115070000Y-71130000D01*
%TO.C,D97*%
X117420000Y-62180000D02*
X118120000Y-62180000D01*
%TO.C,D158*%
X103830000Y-71010000D02*
X103130000Y-71010000D01*
%TO.C,D56*%
X111780000Y-47780000D02*
X111080000Y-47780000D01*
%TO.C,D196*%
X101430000Y-77660000D02*
X102130000Y-77660000D01*
%TO.C,D36*%
X137380000Y-46720000D02*
X138080000Y-46720000D01*
%TO.C,D194*%
X105400000Y-77690000D02*
X106100000Y-77690000D01*
%TO.C,D160*%
X107800000Y-71040000D02*
X107100000Y-71040000D01*
%TO.C,D111*%
X107800000Y-63190000D02*
X107100000Y-63190000D01*
%TO.C,D154*%
X95800000Y-71010000D02*
X95100000Y-71010000D01*
%TO.C,D146*%
X89400000Y-69860000D02*
X90100000Y-69860000D01*
%TO.C,D184*%
X125690000Y-77740000D02*
X126390000Y-77740000D01*
%TO.C,D41*%
X117370000Y-46750000D02*
X118070000Y-46750000D01*
%TO.C,D88*%
X127700000Y-55800000D02*
X127000000Y-55800000D01*
%TO.C,D204*%
X85380000Y-77710000D02*
X86080000Y-77710000D01*
%TO.C,D75*%
X93400000Y-54590000D02*
X94100000Y-54590000D01*
%TO.C,D201*%
X128090000Y-78940000D02*
X127390000Y-78940000D01*
%TO.C,D82*%
X103790000Y-55710000D02*
X103090000Y-55710000D01*
%TO.C,D104*%
X89400000Y-62260000D02*
X90100000Y-62260000D01*
%TO.C,D150*%
X87790000Y-71010000D02*
X87090000Y-71010000D01*
%TO.C,D189*%
X129760000Y-85900000D02*
X130460000Y-85900000D01*
%TO.C,D171*%
X93400000Y-85810000D02*
X94100000Y-85810000D01*
%TO.C,D132*%
X117320000Y-69950000D02*
X118020000Y-69950000D01*
%TO.C,D193*%
X137750000Y-85900000D02*
X138450000Y-85900000D01*
%TO.C,D72*%
X105400000Y-54450000D02*
X106100000Y-54450000D01*
%TO.C,D149*%
X119720000Y-86960000D02*
X119020000Y-86960000D01*
%TO.C,D192*%
X109430000Y-77680000D02*
X110130000Y-77680000D01*
%TO.C,D93*%
X133390000Y-62180000D02*
X134090000Y-62180000D01*
%TO.C,D174*%
X136160000Y-71100000D02*
X135460000Y-71100000D01*
%TO.C,D81*%
X99790000Y-55810000D02*
X99090000Y-55810000D01*
%TO.C,D118*%
X136150000Y-63240000D02*
X135450000Y-63240000D01*
%TO.C,D218*%
X93400000Y-93560000D02*
X94100000Y-93560000D01*
%TO.C,D138*%
X105400000Y-69820000D02*
X106100000Y-69820000D01*
%TO.C,D156*%
X99790000Y-71010000D02*
X99090000Y-71010000D01*
%TO.C,D33*%
X131780000Y-39910000D02*
X131080000Y-39910000D01*
%TO.C,D155*%
X107800000Y-86890000D02*
X107100000Y-86890000D01*
%TO.C,D145*%
X128090000Y-86950000D02*
X127390000Y-86950000D01*
%TO.C,D222*%
X89400000Y-93560000D02*
X90100000Y-93560000D01*
%TD*%
M02*
