%TF.GenerationSoftware,KiCad,Pcbnew,9.0.5*%
%TF.CreationDate,2025-10-27T06:24:04-04:00*%
%TF.ProjectId,GRID,47524944-2e6b-4696-9361-645f70636258,rev?*%
%TF.SameCoordinates,Original*%
%TF.FileFunction,Paste,Top*%
%TF.FilePolarity,Positive*%
%FSLAX46Y46*%
G04 Gerber Fmt 4.6, Leading zero omitted, Abs format (unit mm)*
G04 Created by KiCad (PCBNEW 9.0.5) date 2025-10-27 06:24:04*
%MOMM*%
%LPD*%
G01*
G04 APERTURE LIST*
%ADD10R,0.800000X0.500000*%
%ADD11R,0.500000X1.000000*%
%ADD12R,0.800000X0.300000*%
%ADD13R,0.500000X1.480000*%
G04 APERTURE END LIST*
D10*
%TO.C,D37*%
X133740000Y-44450000D03*
D11*
X134590000Y-44520000D03*
D12*
X133740000Y-45350000D03*
D10*
X133740000Y-46250000D03*
X135440000Y-46250000D03*
D12*
X135440000Y-45350000D03*
D13*
X134590000Y-45940000D03*
D10*
X135440000Y-44450000D03*
%TD*%
%TO.C,D173*%
X97740000Y-83510000D03*
D11*
X98590000Y-83580000D03*
D12*
X97740000Y-84410000D03*
D10*
X97740000Y-85310000D03*
X99440000Y-85310000D03*
D12*
X99440000Y-84410000D03*
D13*
X98590000Y-85000000D03*
D10*
X99440000Y-83510000D03*
%TD*%
%TO.C,D123*%
X109780000Y-91210000D03*
D11*
X110630000Y-91280000D03*
D12*
X109780000Y-92110000D03*
D10*
X109780000Y-93010000D03*
X111480000Y-93010000D03*
D12*
X111480000Y-92110000D03*
D13*
X110630000Y-92700000D03*
D10*
X111480000Y-91210000D03*
%TD*%
%TO.C,D200*%
X93750000Y-75410000D03*
D11*
X94600000Y-75480000D03*
D12*
X93750000Y-76310000D03*
D10*
X93750000Y-77210000D03*
X95450000Y-77210000D03*
D12*
X95450000Y-76310000D03*
D13*
X94600000Y-76900000D03*
D10*
X95450000Y-75410000D03*
%TD*%
%TO.C,D141*%
X135810000Y-89250000D03*
D11*
X134960000Y-89180000D03*
D12*
X135810000Y-88350000D03*
D10*
X135810000Y-87450000D03*
X134110000Y-87450000D03*
D12*
X134110000Y-88350000D03*
D13*
X134960000Y-87760000D03*
D10*
X134110000Y-89250000D03*
%TD*%
%TO.C,D114*%
X119370000Y-65600000D03*
D11*
X118520000Y-65530000D03*
D12*
X119370000Y-64700000D03*
D10*
X119370000Y-63800000D03*
X117670000Y-63800000D03*
D12*
X117670000Y-64700000D03*
D13*
X118520000Y-64110000D03*
D10*
X117670000Y-65600000D03*
%TD*%
%TO.C,D208*%
X91450000Y-81110000D03*
D11*
X90600000Y-81040000D03*
D12*
X91450000Y-80210000D03*
D10*
X91450000Y-79310000D03*
X89750000Y-79310000D03*
D12*
X89750000Y-80210000D03*
D13*
X90600000Y-79620000D03*
D10*
X89750000Y-81110000D03*
%TD*%
%TO.C,D74*%
X97740000Y-52260000D03*
D11*
X98590000Y-52330000D03*
D12*
X97740000Y-53160000D03*
D10*
X97740000Y-54060000D03*
X99440000Y-54060000D03*
D12*
X99440000Y-53160000D03*
D13*
X98590000Y-53750000D03*
D10*
X99440000Y-52260000D03*
%TD*%
%TO.C,D125*%
X113720000Y-91310000D03*
D11*
X114570000Y-91380000D03*
D12*
X113720000Y-92210000D03*
D10*
X113720000Y-93110000D03*
X115420000Y-93110000D03*
D12*
X115420000Y-92210000D03*
D13*
X114570000Y-92800000D03*
D10*
X115420000Y-91310000D03*
%TD*%
%TO.C,D100*%
X105750000Y-59880000D03*
D11*
X106600000Y-59950000D03*
D12*
X105750000Y-60780000D03*
D10*
X105750000Y-61680000D03*
X107450000Y-61680000D03*
D12*
X107450000Y-60780000D03*
D13*
X106600000Y-61370000D03*
D10*
X107450000Y-59880000D03*
%TD*%
%TO.C,D115*%
X123480000Y-65610000D03*
D11*
X122630000Y-65540000D03*
D12*
X123480000Y-64710000D03*
D10*
X123480000Y-63810000D03*
X121780000Y-63810000D03*
D12*
X121780000Y-64710000D03*
D13*
X122630000Y-64120000D03*
D10*
X121780000Y-65610000D03*
%TD*%
%TO.C,D61*%
X131430000Y-50210000D03*
D11*
X130580000Y-50140000D03*
D12*
X131430000Y-49310000D03*
D10*
X131430000Y-48410000D03*
X129730000Y-48410000D03*
D12*
X129730000Y-49310000D03*
D13*
X130580000Y-48720000D03*
D10*
X129730000Y-50210000D03*
%TD*%
%TO.C,D181*%
X113770000Y-83610000D03*
D11*
X114620000Y-83680000D03*
D12*
X113770000Y-84510000D03*
D10*
X113770000Y-85410000D03*
X115470000Y-85410000D03*
D12*
X115470000Y-84510000D03*
D13*
X114620000Y-85100000D03*
D10*
X115470000Y-83610000D03*
%TD*%
%TO.C,D53*%
X99440000Y-50260000D03*
D11*
X98590000Y-50190000D03*
D12*
X99440000Y-49360000D03*
D10*
X99440000Y-48460000D03*
X97740000Y-48460000D03*
D12*
X97740000Y-49360000D03*
D13*
X98590000Y-48770000D03*
D10*
X97740000Y-50260000D03*
%TD*%
%TO.C,D65*%
X133740000Y-52250000D03*
D11*
X134590000Y-52320000D03*
D12*
X133740000Y-53150000D03*
D10*
X133740000Y-54050000D03*
X135440000Y-54050000D03*
D12*
X135440000Y-53150000D03*
D13*
X134590000Y-53740000D03*
D10*
X135440000Y-52250000D03*
%TD*%
%TO.C,D58*%
X119470000Y-50230000D03*
D11*
X118620000Y-50160000D03*
D12*
X119470000Y-49330000D03*
D10*
X119470000Y-48430000D03*
X117770000Y-48430000D03*
D12*
X117770000Y-49330000D03*
D13*
X118620000Y-48740000D03*
D10*
X117770000Y-50230000D03*
%TD*%
%TO.C,D130*%
X121780000Y-67690000D03*
D11*
X122630000Y-67760000D03*
D12*
X121780000Y-68590000D03*
D10*
X121780000Y-69490000D03*
X123480000Y-69490000D03*
D12*
X123480000Y-68590000D03*
D13*
X122630000Y-69180000D03*
D10*
X123480000Y-67690000D03*
%TD*%
%TO.C,D122*%
X138110000Y-67680000D03*
D11*
X138960000Y-67750000D03*
D12*
X138110000Y-68580000D03*
D10*
X138110000Y-69480000D03*
X139810000Y-69480000D03*
D12*
X139810000Y-68580000D03*
D13*
X138960000Y-69170000D03*
D10*
X139810000Y-67680000D03*
%TD*%
%TO.C,D161*%
X95450000Y-89260000D03*
D11*
X94600000Y-89190000D03*
D12*
X95450000Y-88360000D03*
D10*
X95450000Y-87460000D03*
X93750000Y-87460000D03*
D12*
X93750000Y-88360000D03*
D13*
X94600000Y-87770000D03*
D10*
X93750000Y-89260000D03*
%TD*%
%TO.C,D151*%
X115420000Y-89260000D03*
D11*
X114570000Y-89190000D03*
D12*
X115420000Y-88360000D03*
D10*
X115420000Y-87460000D03*
X113720000Y-87460000D03*
D12*
X113720000Y-88360000D03*
D13*
X114570000Y-87770000D03*
D10*
X113720000Y-89260000D03*
%TD*%
%TO.C,D162*%
X111480000Y-73330000D03*
D11*
X110630000Y-73260000D03*
D12*
X111480000Y-72430000D03*
D10*
X111480000Y-71530000D03*
X109780000Y-71530000D03*
D12*
X109780000Y-72430000D03*
D13*
X110630000Y-71840000D03*
D10*
X109780000Y-73330000D03*
%TD*%
%TO.C,D186*%
X121780000Y-75440000D03*
D11*
X122630000Y-75510000D03*
D12*
X121780000Y-76340000D03*
D10*
X121780000Y-77240000D03*
X123480000Y-77240000D03*
D12*
X123480000Y-76340000D03*
D13*
X122630000Y-76930000D03*
D10*
X123480000Y-75440000D03*
%TD*%
%TO.C,D78*%
X87440000Y-58090000D03*
D11*
X86590000Y-58020000D03*
D12*
X87440000Y-57190000D03*
D10*
X87440000Y-56290000D03*
X85740000Y-56290000D03*
D12*
X85740000Y-57190000D03*
D13*
X86590000Y-56600000D03*
D10*
X85740000Y-58090000D03*
%TD*%
%TO.C,D113*%
X115470000Y-65580000D03*
D11*
X114620000Y-65510000D03*
D12*
X115470000Y-64680000D03*
D10*
X115470000Y-63780000D03*
X113770000Y-63780000D03*
D12*
X113770000Y-64680000D03*
D13*
X114620000Y-64090000D03*
D10*
X113770000Y-65580000D03*
%TD*%
%TO.C,D188*%
X117670000Y-75430000D03*
D11*
X118520000Y-75500000D03*
D12*
X117670000Y-76330000D03*
D10*
X117670000Y-77230000D03*
X119370000Y-77230000D03*
D12*
X119370000Y-76330000D03*
D13*
X118520000Y-76920000D03*
D10*
X119370000Y-75430000D03*
%TD*%
%TO.C,D172*%
X131800000Y-73420000D03*
D11*
X130950000Y-73350000D03*
D12*
X131800000Y-72520000D03*
D10*
X131800000Y-71620000D03*
X130100000Y-71620000D03*
D12*
X130100000Y-72520000D03*
D13*
X130950000Y-71930000D03*
D10*
X130100000Y-73420000D03*
%TD*%
%TO.C,D183*%
X117670000Y-83590000D03*
D11*
X118520000Y-83660000D03*
D12*
X117670000Y-84490000D03*
D10*
X117670000Y-85390000D03*
X119370000Y-85390000D03*
D12*
X119370000Y-84490000D03*
D13*
X118520000Y-85080000D03*
D10*
X119370000Y-83590000D03*
%TD*%
%TO.C,D86*%
X119470000Y-58100000D03*
D11*
X118620000Y-58030000D03*
D12*
X119470000Y-57200000D03*
D10*
X119470000Y-56300000D03*
X117770000Y-56300000D03*
D12*
X117770000Y-57200000D03*
D13*
X118620000Y-56610000D03*
D10*
X117770000Y-58100000D03*
%TD*%
%TO.C,D90*%
X135440000Y-58050000D03*
D11*
X134590000Y-57980000D03*
D12*
X135440000Y-57150000D03*
D10*
X135440000Y-56250000D03*
X133740000Y-56250000D03*
D12*
X133740000Y-57150000D03*
D13*
X134590000Y-56560000D03*
D10*
X133740000Y-58050000D03*
%TD*%
%TO.C,D87*%
X123500000Y-58110000D03*
D11*
X122650000Y-58040000D03*
D12*
X123500000Y-57210000D03*
D10*
X123500000Y-56310000D03*
X121800000Y-56310000D03*
D12*
X121800000Y-57210000D03*
D13*
X122650000Y-56620000D03*
D10*
X121800000Y-58110000D03*
%TD*%
%TO.C,D79*%
X91450000Y-58090000D03*
D11*
X90600000Y-58020000D03*
D12*
X91450000Y-57190000D03*
D10*
X91450000Y-56290000D03*
X89750000Y-56290000D03*
D12*
X89750000Y-57190000D03*
D13*
X90600000Y-56600000D03*
D10*
X89750000Y-58090000D03*
%TD*%
%TO.C,D76*%
X89750000Y-52310000D03*
D11*
X90600000Y-52380000D03*
D12*
X89750000Y-53210000D03*
D10*
X89750000Y-54110000D03*
X91450000Y-54110000D03*
D12*
X91450000Y-53210000D03*
D13*
X90600000Y-53800000D03*
D10*
X91450000Y-52310000D03*
%TD*%
%TO.C,D129*%
X121780000Y-91330000D03*
D11*
X122630000Y-91400000D03*
D12*
X121780000Y-92230000D03*
D10*
X121780000Y-93130000D03*
X123480000Y-93130000D03*
D12*
X123480000Y-92230000D03*
D13*
X122630000Y-92820000D03*
D10*
X123480000Y-91330000D03*
%TD*%
%TO.C,D18*%
X91450000Y-42210000D03*
D11*
X90600000Y-42140000D03*
D12*
X91450000Y-41310000D03*
D10*
X91450000Y-40410000D03*
X89750000Y-40410000D03*
D12*
X89750000Y-41310000D03*
D13*
X90600000Y-40720000D03*
D10*
X89750000Y-42210000D03*
%TD*%
%TO.C,D185*%
X121780000Y-83590000D03*
D11*
X122630000Y-83660000D03*
D12*
X121780000Y-84490000D03*
D10*
X121780000Y-85390000D03*
X123480000Y-85390000D03*
D12*
X123480000Y-84490000D03*
D13*
X122630000Y-85080000D03*
D10*
X123480000Y-83590000D03*
%TD*%
%TO.C,D45*%
X101740000Y-44390000D03*
D11*
X102590000Y-44460000D03*
D12*
X101740000Y-45290000D03*
D10*
X101740000Y-46190000D03*
X103440000Y-46190000D03*
D12*
X103440000Y-45290000D03*
D13*
X102590000Y-45880000D03*
D10*
X103440000Y-44390000D03*
%TD*%
%TO.C,D105*%
X85740000Y-59960000D03*
D11*
X86590000Y-60030000D03*
D12*
X85740000Y-60860000D03*
D10*
X85740000Y-61760000D03*
X87440000Y-61760000D03*
D12*
X87440000Y-60860000D03*
D13*
X86590000Y-61450000D03*
D10*
X87440000Y-59960000D03*
%TD*%
%TO.C,D50*%
X87430000Y-50260000D03*
D11*
X86580000Y-50190000D03*
D12*
X87430000Y-49360000D03*
D10*
X87430000Y-48460000D03*
X85730000Y-48460000D03*
D12*
X85730000Y-49360000D03*
D13*
X86580000Y-48770000D03*
D10*
X85730000Y-50260000D03*
%TD*%
%TO.C,D140*%
X101790000Y-67550000D03*
D11*
X102640000Y-67620000D03*
D12*
X101790000Y-68450000D03*
D10*
X101790000Y-69350000D03*
X103490000Y-69350000D03*
D12*
X103490000Y-68450000D03*
D13*
X102640000Y-69040000D03*
D10*
X103490000Y-67550000D03*
%TD*%
%TO.C,D80*%
X95450000Y-58110000D03*
D11*
X94600000Y-58040000D03*
D12*
X95450000Y-57210000D03*
D10*
X95450000Y-56310000D03*
X93750000Y-56310000D03*
D12*
X93750000Y-57210000D03*
D13*
X94600000Y-56620000D03*
D10*
X93750000Y-58110000D03*
%TD*%
%TO.C,D38*%
X129730000Y-44460000D03*
D11*
X130580000Y-44530000D03*
D12*
X129730000Y-45360000D03*
D10*
X129730000Y-46260000D03*
X131430000Y-46260000D03*
D12*
X131430000Y-45360000D03*
D13*
X130580000Y-45950000D03*
D10*
X131430000Y-44460000D03*
%TD*%
%TO.C,D163*%
X91450000Y-89290000D03*
D11*
X90600000Y-89220000D03*
D12*
X91450000Y-88390000D03*
D10*
X91450000Y-87490000D03*
X89750000Y-87490000D03*
D12*
X89750000Y-88390000D03*
D13*
X90600000Y-87800000D03*
D10*
X89750000Y-89290000D03*
%TD*%
%TO.C,D169*%
X89750000Y-83510000D03*
D11*
X90600000Y-83580000D03*
D12*
X89750000Y-84410000D03*
D10*
X89750000Y-85310000D03*
X91450000Y-85310000D03*
D12*
X91450000Y-84410000D03*
D13*
X90600000Y-85000000D03*
D10*
X91450000Y-83510000D03*
%TD*%
%TO.C,D119*%
X101780000Y-91210000D03*
D11*
X102630000Y-91280000D03*
D12*
X101780000Y-92110000D03*
D10*
X101780000Y-93010000D03*
X103480000Y-93010000D03*
D12*
X103480000Y-92110000D03*
D13*
X102630000Y-92700000D03*
D10*
X103480000Y-91210000D03*
%TD*%
%TO.C,D54*%
X103440000Y-50140000D03*
D11*
X102590000Y-50070000D03*
D12*
X103440000Y-49240000D03*
D10*
X103440000Y-48340000D03*
X101740000Y-48340000D03*
D12*
X101740000Y-49240000D03*
D13*
X102590000Y-48650000D03*
D10*
X101740000Y-50140000D03*
%TD*%
%TO.C,D98*%
X113720000Y-59870000D03*
D11*
X114570000Y-59940000D03*
D12*
X113720000Y-60770000D03*
D10*
X113720000Y-61670000D03*
X115420000Y-61670000D03*
D12*
X115420000Y-60770000D03*
D13*
X114570000Y-61360000D03*
D10*
X115420000Y-59870000D03*
%TD*%
%TO.C,D85*%
X115420000Y-58100000D03*
D11*
X114570000Y-58030000D03*
D12*
X115420000Y-57200000D03*
D10*
X115420000Y-56300000D03*
X113720000Y-56300000D03*
D12*
X113720000Y-57200000D03*
D13*
X114570000Y-56610000D03*
D10*
X113720000Y-58100000D03*
%TD*%
%TO.C,D212*%
X99440000Y-81110000D03*
D11*
X98590000Y-81040000D03*
D12*
X99440000Y-80210000D03*
D10*
X99440000Y-79310000D03*
X97740000Y-79310000D03*
D12*
X97740000Y-80210000D03*
D13*
X98590000Y-79620000D03*
D10*
X97740000Y-81110000D03*
%TD*%
%TO.C,D112*%
X111480000Y-65480000D03*
D11*
X110630000Y-65410000D03*
D12*
X111480000Y-64580000D03*
D10*
X111480000Y-63680000D03*
X109780000Y-63680000D03*
D12*
X109780000Y-64580000D03*
D13*
X110630000Y-63990000D03*
D10*
X109780000Y-65480000D03*
%TD*%
%TO.C,D214*%
X97740000Y-91260000D03*
D11*
X98590000Y-91330000D03*
D12*
X97740000Y-92160000D03*
D10*
X97740000Y-93060000D03*
X99440000Y-93060000D03*
D12*
X99440000Y-92160000D03*
D13*
X98590000Y-92750000D03*
D10*
X99440000Y-91260000D03*
%TD*%
%TO.C,D20*%
X99440000Y-42210000D03*
D11*
X98590000Y-42140000D03*
D12*
X99440000Y-41310000D03*
D10*
X99440000Y-40410000D03*
X97740000Y-40410000D03*
D12*
X97740000Y-41310000D03*
D13*
X98590000Y-40720000D03*
D10*
X97740000Y-42210000D03*
%TD*%
%TO.C,D68*%
X121800000Y-52260000D03*
D11*
X122650000Y-52330000D03*
D12*
X121800000Y-53160000D03*
D10*
X121800000Y-54060000D03*
X123500000Y-54060000D03*
D12*
X123500000Y-53160000D03*
D13*
X122650000Y-53750000D03*
D10*
X123500000Y-52260000D03*
%TD*%
%TO.C,D109*%
X99440000Y-65510000D03*
D11*
X98590000Y-65440000D03*
D12*
X99440000Y-64610000D03*
D10*
X99440000Y-63710000D03*
X97740000Y-63710000D03*
D12*
X97740000Y-64610000D03*
D13*
X98590000Y-64020000D03*
D10*
X97740000Y-65510000D03*
%TD*%
%TO.C,D66*%
X129730000Y-52260000D03*
D11*
X130580000Y-52330000D03*
D12*
X129730000Y-53160000D03*
D10*
X129730000Y-54060000D03*
X131430000Y-54060000D03*
D12*
X131430000Y-53160000D03*
D13*
X130580000Y-53750000D03*
D10*
X131430000Y-52260000D03*
%TD*%
%TO.C,D57*%
X115420000Y-50200000D03*
D11*
X114570000Y-50130000D03*
D12*
X115420000Y-49300000D03*
D10*
X115420000Y-48400000D03*
X113720000Y-48400000D03*
D12*
X113720000Y-49300000D03*
D13*
X114570000Y-48710000D03*
D10*
X113720000Y-50200000D03*
%TD*%
%TO.C,D143*%
X131810000Y-89250000D03*
D11*
X130960000Y-89180000D03*
D12*
X131810000Y-88350000D03*
D10*
X131810000Y-87450000D03*
X130110000Y-87450000D03*
D12*
X130110000Y-88350000D03*
D13*
X130960000Y-87760000D03*
D10*
X130110000Y-89250000D03*
%TD*%
%TO.C,D116*%
X127730000Y-65580000D03*
D11*
X126880000Y-65510000D03*
D12*
X127730000Y-64680000D03*
D10*
X127730000Y-63780000D03*
X126030000Y-63780000D03*
D12*
X126030000Y-64680000D03*
D13*
X126880000Y-64090000D03*
D10*
X126030000Y-65580000D03*
%TD*%
%TO.C,D92*%
X137720000Y-59870000D03*
D11*
X138570000Y-59940000D03*
D12*
X137720000Y-60770000D03*
D10*
X137720000Y-61670000D03*
X139420000Y-61670000D03*
D12*
X139420000Y-60770000D03*
D13*
X138570000Y-61360000D03*
D10*
X139420000Y-59870000D03*
%TD*%
%TO.C,D139*%
X139800000Y-89270000D03*
D11*
X138950000Y-89200000D03*
D12*
X139800000Y-88370000D03*
D10*
X139800000Y-87470000D03*
X138100000Y-87470000D03*
D12*
X138100000Y-88370000D03*
D13*
X138950000Y-87780000D03*
D10*
X138100000Y-89270000D03*
%TD*%
%TO.C,D134*%
X113770000Y-67650000D03*
D11*
X114620000Y-67720000D03*
D12*
X113770000Y-68550000D03*
D10*
X113770000Y-69450000D03*
X115470000Y-69450000D03*
D12*
X115470000Y-68550000D03*
D13*
X114620000Y-69140000D03*
D10*
X115470000Y-67650000D03*
%TD*%
%TO.C,D91*%
X139430000Y-58000000D03*
D11*
X138580000Y-57930000D03*
D12*
X139430000Y-57100000D03*
D10*
X139430000Y-56200000D03*
X137730000Y-56200000D03*
D12*
X137730000Y-57100000D03*
D13*
X138580000Y-56510000D03*
D10*
X137730000Y-58000000D03*
%TD*%
%TO.C,D137*%
X138100000Y-91320000D03*
D11*
X138950000Y-91390000D03*
D12*
X138100000Y-92220000D03*
D10*
X138100000Y-93120000D03*
X139800000Y-93120000D03*
D12*
X139800000Y-92220000D03*
D13*
X138950000Y-92810000D03*
D10*
X139800000Y-91320000D03*
%TD*%
%TO.C,D165*%
X87440000Y-89310000D03*
D11*
X86590000Y-89240000D03*
D12*
X87440000Y-88410000D03*
D10*
X87440000Y-87510000D03*
X85740000Y-87510000D03*
D12*
X85740000Y-88410000D03*
D13*
X86590000Y-87820000D03*
D10*
X85740000Y-89310000D03*
%TD*%
%TO.C,D175*%
X101780000Y-83460000D03*
D11*
X102630000Y-83530000D03*
D12*
X101780000Y-84360000D03*
D10*
X101780000Y-85260000D03*
X103480000Y-85260000D03*
D12*
X103480000Y-84360000D03*
D13*
X102630000Y-84950000D03*
D10*
X103480000Y-83460000D03*
%TD*%
%TO.C,D147*%
X123480000Y-89240000D03*
D11*
X122630000Y-89170000D03*
D12*
X123480000Y-88340000D03*
D10*
X123480000Y-87440000D03*
X121780000Y-87440000D03*
D12*
X121780000Y-88340000D03*
D13*
X122630000Y-87750000D03*
D10*
X121780000Y-89240000D03*
%TD*%
%TO.C,D52*%
X95450000Y-50260000D03*
D11*
X94600000Y-50190000D03*
D12*
X95450000Y-49360000D03*
D10*
X95450000Y-48460000D03*
X93750000Y-48460000D03*
D12*
X93750000Y-49360000D03*
D13*
X94600000Y-48770000D03*
D10*
X93750000Y-50260000D03*
%TD*%
%TO.C,D70*%
X113720000Y-52250000D03*
D11*
X114570000Y-52320000D03*
D12*
X113720000Y-53150000D03*
D10*
X113720000Y-54050000D03*
X115420000Y-54050000D03*
D12*
X115420000Y-53150000D03*
D13*
X114570000Y-53740000D03*
D10*
X115420000Y-52250000D03*
%TD*%
%TO.C,D49*%
X85730000Y-44500000D03*
D11*
X86580000Y-44570000D03*
D12*
X85730000Y-45400000D03*
D10*
X85730000Y-46300000D03*
X87430000Y-46300000D03*
D12*
X87430000Y-45400000D03*
D13*
X86580000Y-45990000D03*
D10*
X87430000Y-44500000D03*
%TD*%
%TO.C,D110*%
X103470000Y-65490000D03*
D11*
X102620000Y-65420000D03*
D12*
X103470000Y-64590000D03*
D10*
X103470000Y-63690000D03*
X101770000Y-63690000D03*
D12*
X101770000Y-64590000D03*
D13*
X102620000Y-64000000D03*
D10*
X101770000Y-65490000D03*
%TD*%
%TO.C,D121*%
X105750000Y-91240000D03*
D11*
X106600000Y-91310000D03*
D12*
X105750000Y-92140000D03*
D10*
X105750000Y-93040000D03*
X107450000Y-93040000D03*
D12*
X107450000Y-92140000D03*
D13*
X106600000Y-92730000D03*
D10*
X107450000Y-91240000D03*
%TD*%
%TO.C,D63*%
X139430000Y-50180000D03*
D11*
X138580000Y-50110000D03*
D12*
X139430000Y-49280000D03*
D10*
X139430000Y-48380000D03*
X137730000Y-48380000D03*
D12*
X137730000Y-49280000D03*
D13*
X138580000Y-48690000D03*
D10*
X137730000Y-50180000D03*
%TD*%
%TO.C,D128*%
X126030000Y-67700000D03*
D11*
X126880000Y-67770000D03*
D12*
X126030000Y-68600000D03*
D10*
X126030000Y-69500000D03*
X127730000Y-69500000D03*
D12*
X127730000Y-68600000D03*
D13*
X126880000Y-69190000D03*
D10*
X127730000Y-67700000D03*
%TD*%
%TO.C,D83*%
X107450000Y-58000000D03*
D11*
X106600000Y-57930000D03*
D12*
X107450000Y-57100000D03*
D10*
X107450000Y-56200000D03*
X105750000Y-56200000D03*
D12*
X105750000Y-57100000D03*
D13*
X106600000Y-56510000D03*
D10*
X105750000Y-58000000D03*
%TD*%
%TO.C,D205*%
X119370000Y-81230000D03*
D11*
X118520000Y-81160000D03*
D12*
X119370000Y-80330000D03*
D10*
X119370000Y-79430000D03*
X117670000Y-79430000D03*
D12*
X117670000Y-80330000D03*
D13*
X118520000Y-79740000D03*
D10*
X117670000Y-81230000D03*
%TD*%
%TO.C,D203*%
X123480000Y-81240000D03*
D11*
X122630000Y-81170000D03*
D12*
X123480000Y-80340000D03*
D10*
X123480000Y-79440000D03*
X121780000Y-79440000D03*
D12*
X121780000Y-80340000D03*
D13*
X122630000Y-79750000D03*
D10*
X121780000Y-81240000D03*
%TD*%
%TO.C,D39*%
X125650000Y-44450000D03*
D11*
X126500000Y-44520000D03*
D12*
X125650000Y-45350000D03*
D10*
X125650000Y-46250000D03*
X127350000Y-46250000D03*
D12*
X127350000Y-45350000D03*
D13*
X126500000Y-45940000D03*
D10*
X127350000Y-44450000D03*
%TD*%
%TO.C,D136*%
X109780000Y-67530000D03*
D11*
X110630000Y-67600000D03*
D12*
X109780000Y-68430000D03*
D10*
X109780000Y-69330000D03*
X111480000Y-69330000D03*
D12*
X111480000Y-68430000D03*
D13*
X110630000Y-69020000D03*
D10*
X111480000Y-67530000D03*
%TD*%
%TO.C,D159*%
X99440000Y-89260000D03*
D11*
X98590000Y-89190000D03*
D12*
X99440000Y-88360000D03*
D10*
X99440000Y-87460000D03*
X97740000Y-87460000D03*
D12*
X97740000Y-88360000D03*
D13*
X98590000Y-87770000D03*
D10*
X97740000Y-89260000D03*
%TD*%
%TO.C,D170*%
X127730000Y-73440000D03*
D11*
X126880000Y-73370000D03*
D12*
X127730000Y-72540000D03*
D10*
X127730000Y-71640000D03*
X126030000Y-71640000D03*
D12*
X126030000Y-72540000D03*
D13*
X126880000Y-71950000D03*
D10*
X126030000Y-73440000D03*
%TD*%
%TO.C,D94*%
X129730000Y-59890000D03*
D11*
X130580000Y-59960000D03*
D12*
X129730000Y-60790000D03*
D10*
X129730000Y-61690000D03*
X131430000Y-61690000D03*
D12*
X131430000Y-60790000D03*
D13*
X130580000Y-61380000D03*
D10*
X131430000Y-59890000D03*
%TD*%
%TO.C,D179*%
X109780000Y-83490000D03*
D11*
X110630000Y-83560000D03*
D12*
X109780000Y-84390000D03*
D10*
X109780000Y-85290000D03*
X111480000Y-85290000D03*
D12*
X111480000Y-84390000D03*
D13*
X110630000Y-84980000D03*
D10*
X111480000Y-83490000D03*
%TD*%
%TO.C,D117*%
X131810000Y-65610000D03*
D11*
X130960000Y-65540000D03*
D12*
X131810000Y-64710000D03*
D10*
X131810000Y-63810000D03*
X130110000Y-63810000D03*
D12*
X130110000Y-64710000D03*
D13*
X130960000Y-64120000D03*
D10*
X130110000Y-65610000D03*
%TD*%
%TO.C,D177*%
X105750000Y-83490000D03*
D11*
X106600000Y-83560000D03*
D12*
X105750000Y-84390000D03*
D10*
X105750000Y-85290000D03*
X107450000Y-85290000D03*
D12*
X107450000Y-84390000D03*
D13*
X106600000Y-84980000D03*
D10*
X107450000Y-83490000D03*
%TD*%
%TO.C,D207*%
X115470000Y-81260000D03*
D11*
X114620000Y-81190000D03*
D12*
X115470000Y-80360000D03*
D10*
X115470000Y-79460000D03*
X113770000Y-79460000D03*
D12*
X113770000Y-80360000D03*
D13*
X114620000Y-79770000D03*
D10*
X113770000Y-81260000D03*
%TD*%
%TO.C,D226*%
X85730000Y-91260000D03*
D11*
X86580000Y-91330000D03*
D12*
X85730000Y-92160000D03*
D10*
X85730000Y-93060000D03*
X87430000Y-93060000D03*
D12*
X87430000Y-92160000D03*
D13*
X86580000Y-92750000D03*
D10*
X87430000Y-91260000D03*
%TD*%
%TO.C,D180*%
X134110000Y-75440000D03*
D11*
X134960000Y-75510000D03*
D12*
X134110000Y-76340000D03*
D10*
X134110000Y-77240000D03*
X135810000Y-77240000D03*
D12*
X135810000Y-76340000D03*
D13*
X134960000Y-76930000D03*
D10*
X135810000Y-75440000D03*
%TD*%
%TO.C,D190*%
X113720000Y-75480000D03*
D11*
X114570000Y-75550000D03*
D12*
X113720000Y-76380000D03*
D10*
X113720000Y-77280000D03*
X115420000Y-77280000D03*
D12*
X115420000Y-76380000D03*
D13*
X114570000Y-76970000D03*
D10*
X115420000Y-75480000D03*
%TD*%
%TO.C,D197*%
X135810000Y-81270000D03*
D11*
X134960000Y-81200000D03*
D12*
X135810000Y-80370000D03*
D10*
X135810000Y-79470000D03*
X134110000Y-79470000D03*
D12*
X134110000Y-80370000D03*
D13*
X134960000Y-79780000D03*
D10*
X134110000Y-81270000D03*
%TD*%
%TO.C,D77*%
X85740000Y-52310000D03*
D11*
X86590000Y-52380000D03*
D12*
X85740000Y-53210000D03*
D10*
X85740000Y-54110000D03*
X87440000Y-54110000D03*
D12*
X87440000Y-53210000D03*
D13*
X86590000Y-53800000D03*
D10*
X87440000Y-52310000D03*
%TD*%
%TO.C,D51*%
X91450000Y-50260000D03*
D11*
X90600000Y-50190000D03*
D12*
X91450000Y-49360000D03*
D10*
X91450000Y-48460000D03*
X89750000Y-48460000D03*
D12*
X89750000Y-49360000D03*
D13*
X90600000Y-48770000D03*
D10*
X89750000Y-50260000D03*
%TD*%
%TO.C,D55*%
X107450000Y-50100000D03*
D11*
X106600000Y-50030000D03*
D12*
X107450000Y-49200000D03*
D10*
X107450000Y-48300000D03*
X105750000Y-48300000D03*
D12*
X105750000Y-49200000D03*
D13*
X106600000Y-48610000D03*
D10*
X105750000Y-50100000D03*
%TD*%
%TO.C,D167*%
X85730000Y-83510000D03*
D11*
X86580000Y-83580000D03*
D12*
X85730000Y-84410000D03*
D10*
X85730000Y-85310000D03*
X87430000Y-85310000D03*
D12*
X87430000Y-84410000D03*
D13*
X86580000Y-85000000D03*
D10*
X87430000Y-83510000D03*
%TD*%
%TO.C,D67*%
X125650000Y-52250000D03*
D11*
X126500000Y-52320000D03*
D12*
X125650000Y-53150000D03*
D10*
X125650000Y-54050000D03*
X127350000Y-54050000D03*
D12*
X127350000Y-53150000D03*
D13*
X126500000Y-53740000D03*
D10*
X127350000Y-52250000D03*
%TD*%
%TO.C,D60*%
X127350000Y-50200000D03*
D11*
X126500000Y-50130000D03*
D12*
X127350000Y-49300000D03*
D10*
X127350000Y-48400000D03*
X125650000Y-48400000D03*
D12*
X125650000Y-49300000D03*
D13*
X126500000Y-48710000D03*
D10*
X125650000Y-50200000D03*
%TD*%
%TO.C,D199*%
X131820000Y-81240000D03*
D11*
X130970000Y-81170000D03*
D12*
X131820000Y-80340000D03*
D10*
X131820000Y-79440000D03*
X130120000Y-79440000D03*
D12*
X130120000Y-80340000D03*
D13*
X130970000Y-79750000D03*
D10*
X130120000Y-81240000D03*
%TD*%
%TO.C,D107*%
X91450000Y-65510000D03*
D11*
X90600000Y-65440000D03*
D12*
X91450000Y-64610000D03*
D10*
X91450000Y-63710000D03*
X89750000Y-63710000D03*
D12*
X89750000Y-64610000D03*
D13*
X90600000Y-64020000D03*
D10*
X89750000Y-65510000D03*
%TD*%
%TO.C,D108*%
X95450000Y-65510000D03*
D11*
X94600000Y-65440000D03*
D12*
X95450000Y-64610000D03*
D10*
X95450000Y-63710000D03*
X93750000Y-63710000D03*
D12*
X93750000Y-64610000D03*
D13*
X94600000Y-64020000D03*
D10*
X93750000Y-65510000D03*
%TD*%
%TO.C,D32*%
X127400000Y-42200000D03*
D11*
X126550000Y-42130000D03*
D12*
X127400000Y-41300000D03*
D10*
X127400000Y-40400000D03*
X125700000Y-40400000D03*
D12*
X125700000Y-41300000D03*
D13*
X126550000Y-40710000D03*
D10*
X125700000Y-42200000D03*
%TD*%
%TO.C,D126*%
X130110000Y-67710000D03*
D11*
X130960000Y-67780000D03*
D12*
X130110000Y-68610000D03*
D10*
X130110000Y-69510000D03*
X131810000Y-69510000D03*
D12*
X131810000Y-68610000D03*
D13*
X130960000Y-69200000D03*
D10*
X131810000Y-67710000D03*
%TD*%
%TO.C,D28*%
X111430000Y-42200000D03*
D11*
X110580000Y-42130000D03*
D12*
X111430000Y-41300000D03*
D10*
X111430000Y-40400000D03*
X109730000Y-40400000D03*
D12*
X109730000Y-41300000D03*
D13*
X110580000Y-40710000D03*
D10*
X109730000Y-42200000D03*
%TD*%
%TO.C,D142*%
X97740000Y-67590000D03*
D11*
X98590000Y-67660000D03*
D12*
X97740000Y-68490000D03*
D10*
X97740000Y-69390000D03*
X99440000Y-69390000D03*
D12*
X99440000Y-68490000D03*
D13*
X98590000Y-69080000D03*
D10*
X99440000Y-67590000D03*
%TD*%
%TO.C,D71*%
X109730000Y-52150000D03*
D11*
X110580000Y-52220000D03*
D12*
X109730000Y-53050000D03*
D10*
X109730000Y-53950000D03*
X111430000Y-53950000D03*
D12*
X111430000Y-53050000D03*
D13*
X110580000Y-53640000D03*
D10*
X111430000Y-52150000D03*
%TD*%
%TO.C,D202*%
X89750000Y-75410000D03*
D11*
X90600000Y-75480000D03*
D12*
X89750000Y-76310000D03*
D10*
X89750000Y-77210000D03*
X91450000Y-77210000D03*
D12*
X91450000Y-76310000D03*
D13*
X90600000Y-76900000D03*
D10*
X91450000Y-75410000D03*
%TD*%
%TO.C,D206*%
X87430000Y-81110000D03*
D11*
X86580000Y-81040000D03*
D12*
X87430000Y-80210000D03*
D10*
X87430000Y-79310000D03*
X85730000Y-79310000D03*
D12*
X85730000Y-80210000D03*
D13*
X86580000Y-79620000D03*
D10*
X85730000Y-81110000D03*
%TD*%
%TO.C,D106*%
X87440000Y-65510000D03*
D11*
X86590000Y-65440000D03*
D12*
X87440000Y-64610000D03*
D10*
X87440000Y-63710000D03*
X85740000Y-63710000D03*
D12*
X85740000Y-64610000D03*
D13*
X86590000Y-64020000D03*
D10*
X85740000Y-65510000D03*
%TD*%
%TO.C,D198*%
X97740000Y-75410000D03*
D11*
X98590000Y-75480000D03*
D12*
X97740000Y-76310000D03*
D10*
X97740000Y-77210000D03*
X99440000Y-77210000D03*
D12*
X99440000Y-76310000D03*
D13*
X98590000Y-76900000D03*
D10*
X99440000Y-75410000D03*
%TD*%
%TO.C,D99*%
X109780000Y-59880000D03*
D11*
X110630000Y-59950000D03*
D12*
X109780000Y-60780000D03*
D10*
X109780000Y-61680000D03*
X111480000Y-61680000D03*
D12*
X111480000Y-60780000D03*
D13*
X110630000Y-61370000D03*
D10*
X111480000Y-59880000D03*
%TD*%
%TO.C,D210*%
X95450000Y-81090000D03*
D11*
X94600000Y-81020000D03*
D12*
X95450000Y-80190000D03*
D10*
X95450000Y-79290000D03*
X93750000Y-79290000D03*
D12*
X93750000Y-80190000D03*
D13*
X94600000Y-79600000D03*
D10*
X93750000Y-81090000D03*
%TD*%
%TO.C,D84*%
X111430000Y-58000000D03*
D11*
X110580000Y-57930000D03*
D12*
X111430000Y-57100000D03*
D10*
X111430000Y-56200000D03*
X109730000Y-56200000D03*
D12*
X109730000Y-57100000D03*
D13*
X110580000Y-56510000D03*
D10*
X109730000Y-58000000D03*
%TD*%
%TO.C,D34*%
X135440000Y-42200000D03*
D11*
X134590000Y-42130000D03*
D12*
X135440000Y-41300000D03*
D10*
X135440000Y-40400000D03*
X133740000Y-40400000D03*
D12*
X133740000Y-41300000D03*
D13*
X134590000Y-40710000D03*
D10*
X133740000Y-42200000D03*
%TD*%
%TO.C,D62*%
X135440000Y-50180000D03*
D11*
X134590000Y-50110000D03*
D12*
X135440000Y-49280000D03*
D10*
X135440000Y-48380000D03*
X133740000Y-48380000D03*
D12*
X133740000Y-49280000D03*
D13*
X134590000Y-48690000D03*
D10*
X133740000Y-50180000D03*
%TD*%
%TO.C,D31*%
X123450000Y-42210000D03*
D11*
X122600000Y-42140000D03*
D12*
X123450000Y-41310000D03*
D10*
X123450000Y-40410000D03*
X121750000Y-40410000D03*
D12*
X121750000Y-41310000D03*
D13*
X122600000Y-40720000D03*
D10*
X121750000Y-42210000D03*
%TD*%
%TO.C,D69*%
X117770000Y-52230000D03*
D11*
X118620000Y-52300000D03*
D12*
X117770000Y-53130000D03*
D10*
X117770000Y-54030000D03*
X119470000Y-54030000D03*
D12*
X119470000Y-53130000D03*
D13*
X118620000Y-53720000D03*
D10*
X119470000Y-52230000D03*
%TD*%
%TO.C,D59*%
X123500000Y-50210000D03*
D11*
X122650000Y-50140000D03*
D12*
X123500000Y-49310000D03*
D10*
X123500000Y-48410000D03*
X121800000Y-48410000D03*
D12*
X121800000Y-49310000D03*
D13*
X122650000Y-48720000D03*
D10*
X121800000Y-50210000D03*
%TD*%
%TO.C,D73*%
X101740000Y-52160000D03*
D11*
X102590000Y-52230000D03*
D12*
X101740000Y-53060000D03*
D10*
X101740000Y-53960000D03*
X103440000Y-53960000D03*
D12*
X103440000Y-53060000D03*
D13*
X102590000Y-53650000D03*
D10*
X103440000Y-52160000D03*
%TD*%
%TO.C,D40*%
X121750000Y-44460000D03*
D11*
X122600000Y-44530000D03*
D12*
X121750000Y-45360000D03*
D10*
X121750000Y-46260000D03*
X123450000Y-46260000D03*
D12*
X123450000Y-45360000D03*
D13*
X122600000Y-45950000D03*
D10*
X123450000Y-44460000D03*
%TD*%
%TO.C,D46*%
X97740000Y-44460000D03*
D11*
X98590000Y-44530000D03*
D12*
X97740000Y-45360000D03*
D10*
X97740000Y-46260000D03*
X99440000Y-46260000D03*
D12*
X99440000Y-45360000D03*
D13*
X98590000Y-45950000D03*
D10*
X99440000Y-44460000D03*
%TD*%
%TO.C,D195*%
X139800000Y-81240000D03*
D11*
X138950000Y-81170000D03*
D12*
X139800000Y-80340000D03*
D10*
X139800000Y-79440000D03*
X138100000Y-79440000D03*
D12*
X138100000Y-80340000D03*
D13*
X138950000Y-79750000D03*
D10*
X138100000Y-81240000D03*
%TD*%
%TO.C,D89*%
X131430000Y-58090000D03*
D11*
X130580000Y-58020000D03*
D12*
X131430000Y-57190000D03*
D10*
X131430000Y-56290000D03*
X129730000Y-56290000D03*
D12*
X129730000Y-57190000D03*
D13*
X130580000Y-56600000D03*
D10*
X129730000Y-58090000D03*
%TD*%
%TO.C,D19*%
X95450000Y-42210000D03*
D11*
X94600000Y-42140000D03*
D12*
X95450000Y-41310000D03*
D10*
X95450000Y-40410000D03*
X93750000Y-40410000D03*
D12*
X93750000Y-41310000D03*
D13*
X94600000Y-40720000D03*
D10*
X93750000Y-42210000D03*
%TD*%
%TO.C,D101*%
X101770000Y-59910000D03*
D11*
X102620000Y-59980000D03*
D12*
X101770000Y-60810000D03*
D10*
X101770000Y-61710000D03*
X103470000Y-61710000D03*
D12*
X103470000Y-60810000D03*
D13*
X102620000Y-61400000D03*
D10*
X103470000Y-59910000D03*
%TD*%
%TO.C,D95*%
X125660000Y-59890000D03*
D11*
X126510000Y-59960000D03*
D12*
X125660000Y-60790000D03*
D10*
X125660000Y-61690000D03*
X127360000Y-61690000D03*
D12*
X127360000Y-60790000D03*
D13*
X126510000Y-61380000D03*
D10*
X127360000Y-59890000D03*
%TD*%
%TO.C,D135*%
X134110000Y-91300000D03*
D11*
X134960000Y-91370000D03*
D12*
X134110000Y-92200000D03*
D10*
X134110000Y-93100000D03*
X135810000Y-93100000D03*
D12*
X135810000Y-92200000D03*
D13*
X134960000Y-92790000D03*
D10*
X135810000Y-91300000D03*
%TD*%
%TO.C,D30*%
X119420000Y-42200000D03*
D11*
X118570000Y-42130000D03*
D12*
X119420000Y-41300000D03*
D10*
X119420000Y-40400000D03*
X117720000Y-40400000D03*
D12*
X117720000Y-41300000D03*
D13*
X118570000Y-40710000D03*
D10*
X117720000Y-42200000D03*
%TD*%
%TO.C,D124*%
X134120000Y-67710000D03*
D11*
X134970000Y-67780000D03*
D12*
X134120000Y-68610000D03*
D10*
X134120000Y-69510000D03*
X135820000Y-69510000D03*
D12*
X135820000Y-68610000D03*
D13*
X134970000Y-69200000D03*
D10*
X135820000Y-67710000D03*
%TD*%
%TO.C,D153*%
X111480000Y-89160000D03*
D11*
X110630000Y-89090000D03*
D12*
X111480000Y-88260000D03*
D10*
X111480000Y-87360000D03*
X109780000Y-87360000D03*
D12*
X109780000Y-88260000D03*
D13*
X110630000Y-87670000D03*
D10*
X109780000Y-89160000D03*
%TD*%
%TO.C,D103*%
X93900000Y-59940000D03*
D11*
X94750000Y-60010000D03*
D12*
X93900000Y-60840000D03*
D10*
X93900000Y-61740000D03*
X95600000Y-61740000D03*
D12*
X95600000Y-60840000D03*
D13*
X94750000Y-61430000D03*
D10*
X95600000Y-59940000D03*
%TD*%
%TO.C,D213*%
X103480000Y-81060000D03*
D11*
X102630000Y-80990000D03*
D12*
X103480000Y-80160000D03*
D10*
X103480000Y-79260000D03*
X101780000Y-79260000D03*
D12*
X101780000Y-80160000D03*
D13*
X102630000Y-79570000D03*
D10*
X101780000Y-81060000D03*
%TD*%
%TO.C,D157*%
X103480000Y-89190000D03*
D11*
X102630000Y-89120000D03*
D12*
X103480000Y-88290000D03*
D10*
X103480000Y-87390000D03*
X101780000Y-87390000D03*
D12*
X101780000Y-88290000D03*
D13*
X102630000Y-87700000D03*
D10*
X101780000Y-89190000D03*
%TD*%
%TO.C,D178*%
X138100000Y-75410000D03*
D11*
X138950000Y-75480000D03*
D12*
X138100000Y-76310000D03*
D10*
X138100000Y-77210000D03*
X139800000Y-77210000D03*
D12*
X139800000Y-76310000D03*
D13*
X138950000Y-76900000D03*
D10*
X139800000Y-75410000D03*
%TD*%
%TO.C,D148*%
X85740000Y-67560000D03*
D11*
X86590000Y-67630000D03*
D12*
X85740000Y-68460000D03*
D10*
X85740000Y-69360000D03*
X87440000Y-69360000D03*
D12*
X87440000Y-68460000D03*
D13*
X86590000Y-69050000D03*
D10*
X87440000Y-67560000D03*
%TD*%
%TO.C,D191*%
X134110000Y-83600000D03*
D11*
X134960000Y-83670000D03*
D12*
X134110000Y-84500000D03*
D10*
X134110000Y-85400000D03*
X135810000Y-85400000D03*
D12*
X135810000Y-84500000D03*
D13*
X134960000Y-85090000D03*
D10*
X135810000Y-83600000D03*
%TD*%
%TO.C,D102*%
X97890000Y-59960000D03*
D11*
X98740000Y-60030000D03*
D12*
X97890000Y-60860000D03*
D10*
X97890000Y-61760000D03*
X99590000Y-61760000D03*
D12*
X99590000Y-60860000D03*
D13*
X98740000Y-61450000D03*
D10*
X99590000Y-59960000D03*
%TD*%
%TO.C,D166*%
X119370000Y-73430000D03*
D11*
X118520000Y-73360000D03*
D12*
X119370000Y-72530000D03*
D10*
X119370000Y-71630000D03*
X117670000Y-71630000D03*
D12*
X117670000Y-72530000D03*
D13*
X118520000Y-71940000D03*
D10*
X117670000Y-73430000D03*
%TD*%
%TO.C,D43*%
X109730000Y-44330000D03*
D11*
X110580000Y-44400000D03*
D12*
X109730000Y-45230000D03*
D10*
X109730000Y-46130000D03*
X111430000Y-46130000D03*
D12*
X111430000Y-45230000D03*
D13*
X110580000Y-45820000D03*
D10*
X111430000Y-44330000D03*
%TD*%
%TO.C,D127*%
X117670000Y-91310000D03*
D11*
X118520000Y-91380000D03*
D12*
X117670000Y-92210000D03*
D10*
X117670000Y-93110000D03*
X119370000Y-93110000D03*
D12*
X119370000Y-92210000D03*
D13*
X118520000Y-92800000D03*
D10*
X119370000Y-91310000D03*
%TD*%
%TO.C,D152*%
X91450000Y-73310000D03*
D11*
X90600000Y-73240000D03*
D12*
X91450000Y-72410000D03*
D10*
X91450000Y-71510000D03*
X89750000Y-71510000D03*
D12*
X89750000Y-72410000D03*
D13*
X90600000Y-71820000D03*
D10*
X89750000Y-73310000D03*
%TD*%
%TO.C,D133*%
X130110000Y-91300000D03*
D11*
X130960000Y-91370000D03*
D12*
X130110000Y-92200000D03*
D10*
X130110000Y-93100000D03*
X131810000Y-93100000D03*
D12*
X131810000Y-92200000D03*
D13*
X130960000Y-92790000D03*
D10*
X131810000Y-91300000D03*
%TD*%
%TO.C,D182*%
X130120000Y-75440000D03*
D11*
X130970000Y-75510000D03*
D12*
X130120000Y-76340000D03*
D10*
X130120000Y-77240000D03*
X131820000Y-77240000D03*
D12*
X131820000Y-76340000D03*
D13*
X130970000Y-76930000D03*
D10*
X131820000Y-75440000D03*
%TD*%
%TO.C,D168*%
X123480000Y-73440000D03*
D11*
X122630000Y-73370000D03*
D12*
X123480000Y-72540000D03*
D10*
X123480000Y-71640000D03*
X121780000Y-71640000D03*
D12*
X121780000Y-72540000D03*
D13*
X122630000Y-71950000D03*
D10*
X121780000Y-73440000D03*
%TD*%
%TO.C,D120*%
X139790000Y-65510000D03*
D11*
X138940000Y-65440000D03*
D12*
X139790000Y-64610000D03*
D10*
X139790000Y-63710000D03*
X138090000Y-63710000D03*
D12*
X138090000Y-64610000D03*
D13*
X138940000Y-64020000D03*
D10*
X138090000Y-65510000D03*
%TD*%
%TO.C,D26*%
X103440000Y-42210000D03*
D11*
X102590000Y-42140000D03*
D12*
X103440000Y-41310000D03*
D10*
X103440000Y-40410000D03*
X101740000Y-40410000D03*
D12*
X101740000Y-41310000D03*
D13*
X102590000Y-40720000D03*
D10*
X101740000Y-42210000D03*
%TD*%
%TO.C,D35*%
X139430000Y-42200000D03*
D11*
X138580000Y-42130000D03*
D12*
X139430000Y-41300000D03*
D10*
X139430000Y-40400000D03*
X137730000Y-40400000D03*
D12*
X137730000Y-41300000D03*
D13*
X138580000Y-40710000D03*
D10*
X137730000Y-42200000D03*
%TD*%
%TO.C,D47*%
X93750000Y-44460000D03*
D11*
X94600000Y-44530000D03*
D12*
X93750000Y-45360000D03*
D10*
X93750000Y-46260000D03*
X95450000Y-46260000D03*
D12*
X95450000Y-45360000D03*
D13*
X94600000Y-45950000D03*
D10*
X95450000Y-44460000D03*
%TD*%
%TO.C,D187*%
X126040000Y-83600000D03*
D11*
X126890000Y-83670000D03*
D12*
X126040000Y-84500000D03*
D10*
X126040000Y-85400000D03*
X127740000Y-85400000D03*
D12*
X127740000Y-84500000D03*
D13*
X126890000Y-85090000D03*
D10*
X127740000Y-83600000D03*
%TD*%
%TO.C,D131*%
X126040000Y-91300000D03*
D11*
X126890000Y-91370000D03*
D12*
X126040000Y-92200000D03*
D10*
X126040000Y-93100000D03*
X127740000Y-93100000D03*
D12*
X127740000Y-92200000D03*
D13*
X126890000Y-92790000D03*
D10*
X127740000Y-91300000D03*
%TD*%
%TO.C,D17*%
X87440000Y-42210000D03*
D11*
X86590000Y-42140000D03*
D12*
X87440000Y-41310000D03*
D10*
X87440000Y-40410000D03*
X85740000Y-40410000D03*
D12*
X85740000Y-41310000D03*
D13*
X86590000Y-40720000D03*
D10*
X85740000Y-42210000D03*
%TD*%
%TO.C,D209*%
X111480000Y-81130000D03*
D11*
X110630000Y-81060000D03*
D12*
X111480000Y-80230000D03*
D10*
X111480000Y-79330000D03*
X109780000Y-79330000D03*
D12*
X109780000Y-80230000D03*
D13*
X110630000Y-79640000D03*
D10*
X109780000Y-81130000D03*
%TD*%
%TO.C,D29*%
X115420000Y-42200000D03*
D11*
X114570000Y-42130000D03*
D12*
X115420000Y-41300000D03*
D10*
X115420000Y-40400000D03*
X113720000Y-40400000D03*
D12*
X113720000Y-41300000D03*
D13*
X114570000Y-40710000D03*
D10*
X113720000Y-42200000D03*
%TD*%
%TO.C,D42*%
X113720000Y-44450000D03*
D11*
X114570000Y-44520000D03*
D12*
X113720000Y-45350000D03*
D10*
X113720000Y-46250000D03*
X115420000Y-46250000D03*
D12*
X115420000Y-45350000D03*
D13*
X114570000Y-45940000D03*
D10*
X115420000Y-44450000D03*
%TD*%
%TO.C,D48*%
X89750000Y-44460000D03*
D11*
X90600000Y-44530000D03*
D12*
X89750000Y-45360000D03*
D10*
X89750000Y-46260000D03*
X91450000Y-46260000D03*
D12*
X91450000Y-45360000D03*
D13*
X90600000Y-45950000D03*
D10*
X91450000Y-44460000D03*
%TD*%
%TO.C,D144*%
X93750000Y-67590000D03*
D11*
X94600000Y-67660000D03*
D12*
X93750000Y-68490000D03*
D10*
X93750000Y-69390000D03*
X95450000Y-69390000D03*
D12*
X95450000Y-68490000D03*
D13*
X94600000Y-69080000D03*
D10*
X95450000Y-67590000D03*
%TD*%
%TO.C,D211*%
X107450000Y-81140000D03*
D11*
X106600000Y-81070000D03*
D12*
X107450000Y-80240000D03*
D10*
X107450000Y-79340000D03*
X105750000Y-79340000D03*
D12*
X105750000Y-80240000D03*
D13*
X106600000Y-79650000D03*
D10*
X105750000Y-81140000D03*
%TD*%
%TO.C,D176*%
X139790000Y-73380000D03*
D11*
X138940000Y-73310000D03*
D12*
X139790000Y-72480000D03*
D10*
X139790000Y-71580000D03*
X138090000Y-71580000D03*
D12*
X138090000Y-72480000D03*
D13*
X138940000Y-71890000D03*
D10*
X138090000Y-73380000D03*
%TD*%
%TO.C,D44*%
X105750000Y-44350000D03*
D11*
X106600000Y-44420000D03*
D12*
X105750000Y-45250000D03*
D10*
X105750000Y-46150000D03*
X107450000Y-46150000D03*
D12*
X107450000Y-45250000D03*
D13*
X106600000Y-45840000D03*
D10*
X107450000Y-44350000D03*
%TD*%
%TO.C,D27*%
X107450000Y-42200000D03*
D11*
X106600000Y-42130000D03*
D12*
X107450000Y-41300000D03*
D10*
X107450000Y-40400000D03*
X105750000Y-40400000D03*
D12*
X105750000Y-41300000D03*
D13*
X106600000Y-40710000D03*
D10*
X105750000Y-42200000D03*
%TD*%
%TO.C,D96*%
X121790000Y-59870000D03*
D11*
X122640000Y-59940000D03*
D12*
X121790000Y-60770000D03*
D10*
X121790000Y-61670000D03*
X123490000Y-61670000D03*
D12*
X123490000Y-60770000D03*
D13*
X122640000Y-61360000D03*
D10*
X123490000Y-59870000D03*
%TD*%
%TO.C,D64*%
X137730000Y-52250000D03*
D11*
X138580000Y-52320000D03*
D12*
X137730000Y-53150000D03*
D10*
X137730000Y-54050000D03*
X139430000Y-54050000D03*
D12*
X139430000Y-53150000D03*
D13*
X138580000Y-53740000D03*
D10*
X139430000Y-52250000D03*
%TD*%
%TO.C,D164*%
X115420000Y-73430000D03*
D11*
X114570000Y-73360000D03*
D12*
X115420000Y-72530000D03*
D10*
X115420000Y-71630000D03*
X113720000Y-71630000D03*
D12*
X113720000Y-72530000D03*
D13*
X114570000Y-71940000D03*
D10*
X113720000Y-73430000D03*
%TD*%
%TO.C,D97*%
X117770000Y-59880000D03*
D11*
X118620000Y-59950000D03*
D12*
X117770000Y-60780000D03*
D10*
X117770000Y-61680000D03*
X119470000Y-61680000D03*
D12*
X119470000Y-60780000D03*
D13*
X118620000Y-61370000D03*
D10*
X119470000Y-59880000D03*
%TD*%
%TO.C,D158*%
X103480000Y-73310000D03*
D11*
X102630000Y-73240000D03*
D12*
X103480000Y-72410000D03*
D10*
X103480000Y-71510000D03*
X101780000Y-71510000D03*
D12*
X101780000Y-72410000D03*
D13*
X102630000Y-71820000D03*
D10*
X101780000Y-73310000D03*
%TD*%
%TO.C,D56*%
X111430000Y-50080000D03*
D11*
X110580000Y-50010000D03*
D12*
X111430000Y-49180000D03*
D10*
X111430000Y-48280000D03*
X109730000Y-48280000D03*
D12*
X109730000Y-49180000D03*
D13*
X110580000Y-48590000D03*
D10*
X109730000Y-50080000D03*
%TD*%
%TO.C,D196*%
X101780000Y-75360000D03*
D11*
X102630000Y-75430000D03*
D12*
X101780000Y-76260000D03*
D10*
X101780000Y-77160000D03*
X103480000Y-77160000D03*
D12*
X103480000Y-76260000D03*
D13*
X102630000Y-76850000D03*
D10*
X103480000Y-75360000D03*
%TD*%
%TO.C,D36*%
X137730000Y-44420000D03*
D11*
X138580000Y-44490000D03*
D12*
X137730000Y-45320000D03*
D10*
X137730000Y-46220000D03*
X139430000Y-46220000D03*
D12*
X139430000Y-45320000D03*
D13*
X138580000Y-45910000D03*
D10*
X139430000Y-44420000D03*
%TD*%
%TO.C,D194*%
X105750000Y-75390000D03*
D11*
X106600000Y-75460000D03*
D12*
X105750000Y-76290000D03*
D10*
X105750000Y-77190000D03*
X107450000Y-77190000D03*
D12*
X107450000Y-76290000D03*
D13*
X106600000Y-76880000D03*
D10*
X107450000Y-75390000D03*
%TD*%
%TO.C,D160*%
X107450000Y-73340000D03*
D11*
X106600000Y-73270000D03*
D12*
X107450000Y-72440000D03*
D10*
X107450000Y-71540000D03*
X105750000Y-71540000D03*
D12*
X105750000Y-72440000D03*
D13*
X106600000Y-71850000D03*
D10*
X105750000Y-73340000D03*
%TD*%
%TO.C,D111*%
X107450000Y-65490000D03*
D11*
X106600000Y-65420000D03*
D12*
X107450000Y-64590000D03*
D10*
X107450000Y-63690000D03*
X105750000Y-63690000D03*
D12*
X105750000Y-64590000D03*
D13*
X106600000Y-64000000D03*
D10*
X105750000Y-65490000D03*
%TD*%
%TO.C,D154*%
X95450000Y-73310000D03*
D11*
X94600000Y-73240000D03*
D12*
X95450000Y-72410000D03*
D10*
X95450000Y-71510000D03*
X93750000Y-71510000D03*
D12*
X93750000Y-72410000D03*
D13*
X94600000Y-71820000D03*
D10*
X93750000Y-73310000D03*
%TD*%
%TO.C,D146*%
X89750000Y-67560000D03*
D11*
X90600000Y-67630000D03*
D12*
X89750000Y-68460000D03*
D10*
X89750000Y-69360000D03*
X91450000Y-69360000D03*
D12*
X91450000Y-68460000D03*
D13*
X90600000Y-69050000D03*
D10*
X91450000Y-67560000D03*
%TD*%
%TO.C,D184*%
X126040000Y-75440000D03*
D11*
X126890000Y-75510000D03*
D12*
X126040000Y-76340000D03*
D10*
X126040000Y-77240000D03*
X127740000Y-77240000D03*
D12*
X127740000Y-76340000D03*
D13*
X126890000Y-76930000D03*
D10*
X127740000Y-75440000D03*
%TD*%
%TO.C,D41*%
X117720000Y-44450000D03*
D11*
X118570000Y-44520000D03*
D12*
X117720000Y-45350000D03*
D10*
X117720000Y-46250000D03*
X119420000Y-46250000D03*
D12*
X119420000Y-45350000D03*
D13*
X118570000Y-45940000D03*
D10*
X119420000Y-44450000D03*
%TD*%
%TO.C,D88*%
X127350000Y-58100000D03*
D11*
X126500000Y-58030000D03*
D12*
X127350000Y-57200000D03*
D10*
X127350000Y-56300000D03*
X125650000Y-56300000D03*
D12*
X125650000Y-57200000D03*
D13*
X126500000Y-56610000D03*
D10*
X125650000Y-58100000D03*
%TD*%
%TO.C,D204*%
X85730000Y-75410000D03*
D11*
X86580000Y-75480000D03*
D12*
X85730000Y-76310000D03*
D10*
X85730000Y-77210000D03*
X87430000Y-77210000D03*
D12*
X87430000Y-76310000D03*
D13*
X86580000Y-76900000D03*
D10*
X87430000Y-75410000D03*
%TD*%
%TO.C,D75*%
X93750000Y-52290000D03*
D11*
X94600000Y-52360000D03*
D12*
X93750000Y-53190000D03*
D10*
X93750000Y-54090000D03*
X95450000Y-54090000D03*
D12*
X95450000Y-53190000D03*
D13*
X94600000Y-53780000D03*
D10*
X95450000Y-52290000D03*
%TD*%
%TO.C,D201*%
X127740000Y-81240000D03*
D11*
X126890000Y-81170000D03*
D12*
X127740000Y-80340000D03*
D10*
X127740000Y-79440000D03*
X126040000Y-79440000D03*
D12*
X126040000Y-80340000D03*
D13*
X126890000Y-79750000D03*
D10*
X126040000Y-81240000D03*
%TD*%
%TO.C,D82*%
X103440000Y-58010000D03*
D11*
X102590000Y-57940000D03*
D12*
X103440000Y-57110000D03*
D10*
X103440000Y-56210000D03*
X101740000Y-56210000D03*
D12*
X101740000Y-57110000D03*
D13*
X102590000Y-56520000D03*
D10*
X101740000Y-58010000D03*
%TD*%
%TO.C,D104*%
X89750000Y-59960000D03*
D11*
X90600000Y-60030000D03*
D12*
X89750000Y-60860000D03*
D10*
X89750000Y-61760000D03*
X91450000Y-61760000D03*
D12*
X91450000Y-60860000D03*
D13*
X90600000Y-61450000D03*
D10*
X91450000Y-59960000D03*
%TD*%
%TO.C,D150*%
X87440000Y-73310000D03*
D11*
X86590000Y-73240000D03*
D12*
X87440000Y-72410000D03*
D10*
X87440000Y-71510000D03*
X85740000Y-71510000D03*
D12*
X85740000Y-72410000D03*
D13*
X86590000Y-71820000D03*
D10*
X85740000Y-73310000D03*
%TD*%
%TO.C,D189*%
X130110000Y-83600000D03*
D11*
X130960000Y-83670000D03*
D12*
X130110000Y-84500000D03*
D10*
X130110000Y-85400000D03*
X131810000Y-85400000D03*
D12*
X131810000Y-84500000D03*
D13*
X130960000Y-85090000D03*
D10*
X131810000Y-83600000D03*
%TD*%
%TO.C,D171*%
X93750000Y-83510000D03*
D11*
X94600000Y-83580000D03*
D12*
X93750000Y-84410000D03*
D10*
X93750000Y-85310000D03*
X95450000Y-85310000D03*
D12*
X95450000Y-84410000D03*
D13*
X94600000Y-85000000D03*
D10*
X95450000Y-83510000D03*
%TD*%
%TO.C,D132*%
X117670000Y-67650000D03*
D11*
X118520000Y-67720000D03*
D12*
X117670000Y-68550000D03*
D10*
X117670000Y-69450000D03*
X119370000Y-69450000D03*
D12*
X119370000Y-68550000D03*
D13*
X118520000Y-69140000D03*
D10*
X119370000Y-67650000D03*
%TD*%
%TO.C,D193*%
X138100000Y-83600000D03*
D11*
X138950000Y-83670000D03*
D12*
X138100000Y-84500000D03*
D10*
X138100000Y-85400000D03*
X139800000Y-85400000D03*
D12*
X139800000Y-84500000D03*
D13*
X138950000Y-85090000D03*
D10*
X139800000Y-83600000D03*
%TD*%
%TO.C,D72*%
X105750000Y-52150000D03*
D11*
X106600000Y-52220000D03*
D12*
X105750000Y-53050000D03*
D10*
X105750000Y-53950000D03*
X107450000Y-53950000D03*
D12*
X107450000Y-53050000D03*
D13*
X106600000Y-53640000D03*
D10*
X107450000Y-52150000D03*
%TD*%
%TO.C,D149*%
X119370000Y-89260000D03*
D11*
X118520000Y-89190000D03*
D12*
X119370000Y-88360000D03*
D10*
X119370000Y-87460000D03*
X117670000Y-87460000D03*
D12*
X117670000Y-88360000D03*
D13*
X118520000Y-87770000D03*
D10*
X117670000Y-89260000D03*
%TD*%
%TO.C,D192*%
X109780000Y-75380000D03*
D11*
X110630000Y-75450000D03*
D12*
X109780000Y-76280000D03*
D10*
X109780000Y-77180000D03*
X111480000Y-77180000D03*
D12*
X111480000Y-76280000D03*
D13*
X110630000Y-76870000D03*
D10*
X111480000Y-75380000D03*
%TD*%
%TO.C,D93*%
X133740000Y-59880000D03*
D11*
X134590000Y-59950000D03*
D12*
X133740000Y-60780000D03*
D10*
X133740000Y-61680000D03*
X135440000Y-61680000D03*
D12*
X135440000Y-60780000D03*
D13*
X134590000Y-61370000D03*
D10*
X135440000Y-59880000D03*
%TD*%
%TO.C,D174*%
X135810000Y-73400000D03*
D11*
X134960000Y-73330000D03*
D12*
X135810000Y-72500000D03*
D10*
X135810000Y-71600000D03*
X134110000Y-71600000D03*
D12*
X134110000Y-72500000D03*
D13*
X134960000Y-71910000D03*
D10*
X134110000Y-73400000D03*
%TD*%
%TO.C,D81*%
X99440000Y-58110000D03*
D11*
X98590000Y-58040000D03*
D12*
X99440000Y-57210000D03*
D10*
X99440000Y-56310000D03*
X97740000Y-56310000D03*
D12*
X97740000Y-57210000D03*
D13*
X98590000Y-56620000D03*
D10*
X97740000Y-58110000D03*
%TD*%
%TO.C,D118*%
X135800000Y-65540000D03*
D11*
X134950000Y-65470000D03*
D12*
X135800000Y-64640000D03*
D10*
X135800000Y-63740000D03*
X134100000Y-63740000D03*
D12*
X134100000Y-64640000D03*
D13*
X134950000Y-64050000D03*
D10*
X134100000Y-65540000D03*
%TD*%
%TO.C,D218*%
X93750000Y-91260000D03*
D11*
X94600000Y-91330000D03*
D12*
X93750000Y-92160000D03*
D10*
X93750000Y-93060000D03*
X95450000Y-93060000D03*
D12*
X95450000Y-92160000D03*
D13*
X94600000Y-92750000D03*
D10*
X95450000Y-91260000D03*
%TD*%
%TO.C,D138*%
X105750000Y-67520000D03*
D11*
X106600000Y-67590000D03*
D12*
X105750000Y-68420000D03*
D10*
X105750000Y-69320000D03*
X107450000Y-69320000D03*
D12*
X107450000Y-68420000D03*
D13*
X106600000Y-69010000D03*
D10*
X107450000Y-67520000D03*
%TD*%
%TO.C,D156*%
X99440000Y-73310000D03*
D11*
X98590000Y-73240000D03*
D12*
X99440000Y-72410000D03*
D10*
X99440000Y-71510000D03*
X97740000Y-71510000D03*
D12*
X97740000Y-72410000D03*
D13*
X98590000Y-71820000D03*
D10*
X97740000Y-73310000D03*
%TD*%
%TO.C,D33*%
X131430000Y-42210000D03*
D11*
X130580000Y-42140000D03*
D12*
X131430000Y-41310000D03*
D10*
X131430000Y-40410000D03*
X129730000Y-40410000D03*
D12*
X129730000Y-41310000D03*
D13*
X130580000Y-40720000D03*
D10*
X129730000Y-42210000D03*
%TD*%
%TO.C,D155*%
X107450000Y-89190000D03*
D11*
X106600000Y-89120000D03*
D12*
X107450000Y-88290000D03*
D10*
X107450000Y-87390000D03*
X105750000Y-87390000D03*
D12*
X105750000Y-88290000D03*
D13*
X106600000Y-87700000D03*
D10*
X105750000Y-89190000D03*
%TD*%
%TO.C,D145*%
X127740000Y-89250000D03*
D11*
X126890000Y-89180000D03*
D12*
X127740000Y-88350000D03*
D10*
X127740000Y-87450000D03*
X126040000Y-87450000D03*
D12*
X126040000Y-88350000D03*
D13*
X126890000Y-87760000D03*
D10*
X126040000Y-89250000D03*
%TD*%
%TO.C,D222*%
X89750000Y-91260000D03*
D11*
X90600000Y-91330000D03*
D12*
X89750000Y-92160000D03*
D10*
X89750000Y-93060000D03*
X91450000Y-93060000D03*
D12*
X91450000Y-92160000D03*
D13*
X90600000Y-92750000D03*
D10*
X91450000Y-91260000D03*
%TD*%
M02*
