%TF.GenerationSoftware,KiCad,Pcbnew,9.0.1*%
%TF.CreationDate,2025-09-27T01:00:46-04:00*%
%TF.ProjectId,GRID,47524944-2e6b-4696-9361-645f70636258,rev?*%
%TF.SameCoordinates,Original*%
%TF.FileFunction,Legend,Top*%
%TF.FilePolarity,Positive*%
%FSLAX46Y46*%
G04 Gerber Fmt 4.6, Leading zero omitted, Abs format (unit mm)*
G04 Created by KiCad (PCBNEW 9.0.1) date 2025-09-27 01:00:46*
%MOMM*%
%LPD*%
G01*
G04 APERTURE LIST*
%ADD10C,0.150000*%
%ADD11C,0.100000*%
%ADD12C,0.120000*%
G04 APERTURE END LIST*
D10*
X63738095Y-59254819D02*
X63738095Y-58254819D01*
X63738095Y-58731009D02*
X64309523Y-58731009D01*
X64309523Y-59254819D02*
X64309523Y-58254819D01*
X65214285Y-58588152D02*
X65214285Y-59254819D01*
X64976190Y-58207200D02*
X64738095Y-58921485D01*
X64738095Y-58921485D02*
X65357142Y-58921485D01*
X56738095Y-69754819D02*
X56738095Y-68754819D01*
X56738095Y-69231009D02*
X57309523Y-69231009D01*
X57309523Y-69754819D02*
X57309523Y-68754819D01*
X57690476Y-68754819D02*
X58309523Y-68754819D01*
X58309523Y-68754819D02*
X57976190Y-69135771D01*
X57976190Y-69135771D02*
X58119047Y-69135771D01*
X58119047Y-69135771D02*
X58214285Y-69183390D01*
X58214285Y-69183390D02*
X58261904Y-69231009D01*
X58261904Y-69231009D02*
X58309523Y-69326247D01*
X58309523Y-69326247D02*
X58309523Y-69564342D01*
X58309523Y-69564342D02*
X58261904Y-69659580D01*
X58261904Y-69659580D02*
X58214285Y-69707200D01*
X58214285Y-69707200D02*
X58119047Y-69754819D01*
X58119047Y-69754819D02*
X57833333Y-69754819D01*
X57833333Y-69754819D02*
X57738095Y-69707200D01*
X57738095Y-69707200D02*
X57690476Y-69659580D01*
X106738095Y-69754819D02*
X106738095Y-68754819D01*
X106738095Y-69231009D02*
X107309523Y-69231009D01*
X107309523Y-69754819D02*
X107309523Y-68754819D01*
X107738095Y-68850057D02*
X107785714Y-68802438D01*
X107785714Y-68802438D02*
X107880952Y-68754819D01*
X107880952Y-68754819D02*
X108119047Y-68754819D01*
X108119047Y-68754819D02*
X108214285Y-68802438D01*
X108214285Y-68802438D02*
X108261904Y-68850057D01*
X108261904Y-68850057D02*
X108309523Y-68945295D01*
X108309523Y-68945295D02*
X108309523Y-69040533D01*
X108309523Y-69040533D02*
X108261904Y-69183390D01*
X108261904Y-69183390D02*
X107690476Y-69754819D01*
X107690476Y-69754819D02*
X108309523Y-69754819D01*
X106738095Y-39754819D02*
X106738095Y-38754819D01*
X106738095Y-39231009D02*
X107309523Y-39231009D01*
X107309523Y-39754819D02*
X107309523Y-38754819D01*
X108309523Y-39754819D02*
X107738095Y-39754819D01*
X108023809Y-39754819D02*
X108023809Y-38754819D01*
X108023809Y-38754819D02*
X107928571Y-38897676D01*
X107928571Y-38897676D02*
X107833333Y-38992914D01*
X107833333Y-38992914D02*
X107738095Y-39040533D01*
X61166666Y-43244819D02*
X61166666Y-43959104D01*
X61166666Y-43959104D02*
X61119047Y-44101961D01*
X61119047Y-44101961D02*
X61023809Y-44197200D01*
X61023809Y-44197200D02*
X60880952Y-44244819D01*
X60880952Y-44244819D02*
X60785714Y-44244819D01*
X61595238Y-43340057D02*
X61642857Y-43292438D01*
X61642857Y-43292438D02*
X61738095Y-43244819D01*
X61738095Y-43244819D02*
X61976190Y-43244819D01*
X61976190Y-43244819D02*
X62071428Y-43292438D01*
X62071428Y-43292438D02*
X62119047Y-43340057D01*
X62119047Y-43340057D02*
X62166666Y-43435295D01*
X62166666Y-43435295D02*
X62166666Y-43530533D01*
X62166666Y-43530533D02*
X62119047Y-43673390D01*
X62119047Y-43673390D02*
X61547619Y-44244819D01*
X61547619Y-44244819D02*
X62166666Y-44244819D01*
X76011905Y-72164819D02*
X76011905Y-71164819D01*
X76011905Y-71164819D02*
X76250000Y-71164819D01*
X76250000Y-71164819D02*
X76392857Y-71212438D01*
X76392857Y-71212438D02*
X76488095Y-71307676D01*
X76488095Y-71307676D02*
X76535714Y-71402914D01*
X76535714Y-71402914D02*
X76583333Y-71593390D01*
X76583333Y-71593390D02*
X76583333Y-71736247D01*
X76583333Y-71736247D02*
X76535714Y-71926723D01*
X76535714Y-71926723D02*
X76488095Y-72021961D01*
X76488095Y-72021961D02*
X76392857Y-72117200D01*
X76392857Y-72117200D02*
X76250000Y-72164819D01*
X76250000Y-72164819D02*
X76011905Y-72164819D01*
X77059524Y-72164819D02*
X77250000Y-72164819D01*
X77250000Y-72164819D02*
X77345238Y-72117200D01*
X77345238Y-72117200D02*
X77392857Y-72069580D01*
X77392857Y-72069580D02*
X77488095Y-71926723D01*
X77488095Y-71926723D02*
X77535714Y-71736247D01*
X77535714Y-71736247D02*
X77535714Y-71355295D01*
X77535714Y-71355295D02*
X77488095Y-71260057D01*
X77488095Y-71260057D02*
X77440476Y-71212438D01*
X77440476Y-71212438D02*
X77345238Y-71164819D01*
X77345238Y-71164819D02*
X77154762Y-71164819D01*
X77154762Y-71164819D02*
X77059524Y-71212438D01*
X77059524Y-71212438D02*
X77011905Y-71260057D01*
X77011905Y-71260057D02*
X76964286Y-71355295D01*
X76964286Y-71355295D02*
X76964286Y-71593390D01*
X76964286Y-71593390D02*
X77011905Y-71688628D01*
X77011905Y-71688628D02*
X77059524Y-71736247D01*
X77059524Y-71736247D02*
X77154762Y-71783866D01*
X77154762Y-71783866D02*
X77345238Y-71783866D01*
X77345238Y-71783866D02*
X77440476Y-71736247D01*
X77440476Y-71736247D02*
X77488095Y-71688628D01*
X77488095Y-71688628D02*
X77535714Y-71593390D01*
D11*
X75221428Y-68972371D02*
X74878571Y-68972371D01*
X75050000Y-68972371D02*
X75050000Y-68372371D01*
X75050000Y-68372371D02*
X74992857Y-68458085D01*
X74992857Y-68458085D02*
X74935714Y-68515228D01*
X74935714Y-68515228D02*
X74878571Y-68543800D01*
D10*
X88085714Y-72164819D02*
X88085714Y-71164819D01*
X88085714Y-71164819D02*
X88323809Y-71164819D01*
X88323809Y-71164819D02*
X88466666Y-71212438D01*
X88466666Y-71212438D02*
X88561904Y-71307676D01*
X88561904Y-71307676D02*
X88609523Y-71402914D01*
X88609523Y-71402914D02*
X88657142Y-71593390D01*
X88657142Y-71593390D02*
X88657142Y-71736247D01*
X88657142Y-71736247D02*
X88609523Y-71926723D01*
X88609523Y-71926723D02*
X88561904Y-72021961D01*
X88561904Y-72021961D02*
X88466666Y-72117200D01*
X88466666Y-72117200D02*
X88323809Y-72164819D01*
X88323809Y-72164819D02*
X88085714Y-72164819D01*
X89609523Y-72164819D02*
X89038095Y-72164819D01*
X89323809Y-72164819D02*
X89323809Y-71164819D01*
X89323809Y-71164819D02*
X89228571Y-71307676D01*
X89228571Y-71307676D02*
X89133333Y-71402914D01*
X89133333Y-71402914D02*
X89038095Y-71450533D01*
X90228571Y-71164819D02*
X90323809Y-71164819D01*
X90323809Y-71164819D02*
X90419047Y-71212438D01*
X90419047Y-71212438D02*
X90466666Y-71260057D01*
X90466666Y-71260057D02*
X90514285Y-71355295D01*
X90514285Y-71355295D02*
X90561904Y-71545771D01*
X90561904Y-71545771D02*
X90561904Y-71783866D01*
X90561904Y-71783866D02*
X90514285Y-71974342D01*
X90514285Y-71974342D02*
X90466666Y-72069580D01*
X90466666Y-72069580D02*
X90419047Y-72117200D01*
X90419047Y-72117200D02*
X90323809Y-72164819D01*
X90323809Y-72164819D02*
X90228571Y-72164819D01*
X90228571Y-72164819D02*
X90133333Y-72117200D01*
X90133333Y-72117200D02*
X90085714Y-72069580D01*
X90085714Y-72069580D02*
X90038095Y-71974342D01*
X90038095Y-71974342D02*
X89990476Y-71783866D01*
X89990476Y-71783866D02*
X89990476Y-71545771D01*
X89990476Y-71545771D02*
X90038095Y-71355295D01*
X90038095Y-71355295D02*
X90085714Y-71260057D01*
X90085714Y-71260057D02*
X90133333Y-71212438D01*
X90133333Y-71212438D02*
X90228571Y-71164819D01*
D11*
X87771428Y-68972371D02*
X87428571Y-68972371D01*
X87600000Y-68972371D02*
X87600000Y-68372371D01*
X87600000Y-68372371D02*
X87542857Y-68458085D01*
X87542857Y-68458085D02*
X87485714Y-68515228D01*
X87485714Y-68515228D02*
X87428571Y-68543800D01*
D10*
X81685714Y-72164819D02*
X81685714Y-71164819D01*
X81685714Y-71164819D02*
X81923809Y-71164819D01*
X81923809Y-71164819D02*
X82066666Y-71212438D01*
X82066666Y-71212438D02*
X82161904Y-71307676D01*
X82161904Y-71307676D02*
X82209523Y-71402914D01*
X82209523Y-71402914D02*
X82257142Y-71593390D01*
X82257142Y-71593390D02*
X82257142Y-71736247D01*
X82257142Y-71736247D02*
X82209523Y-71926723D01*
X82209523Y-71926723D02*
X82161904Y-72021961D01*
X82161904Y-72021961D02*
X82066666Y-72117200D01*
X82066666Y-72117200D02*
X81923809Y-72164819D01*
X81923809Y-72164819D02*
X81685714Y-72164819D01*
X83209523Y-72164819D02*
X82638095Y-72164819D01*
X82923809Y-72164819D02*
X82923809Y-71164819D01*
X82923809Y-71164819D02*
X82828571Y-71307676D01*
X82828571Y-71307676D02*
X82733333Y-71402914D01*
X82733333Y-71402914D02*
X82638095Y-71450533D01*
X84161904Y-72164819D02*
X83590476Y-72164819D01*
X83876190Y-72164819D02*
X83876190Y-71164819D01*
X83876190Y-71164819D02*
X83780952Y-71307676D01*
X83780952Y-71307676D02*
X83685714Y-71402914D01*
X83685714Y-71402914D02*
X83590476Y-71450533D01*
D11*
X81371428Y-68972371D02*
X81028571Y-68972371D01*
X81200000Y-68972371D02*
X81200000Y-68372371D01*
X81200000Y-68372371D02*
X81142857Y-68458085D01*
X81142857Y-68458085D02*
X81085714Y-68515228D01*
X81085714Y-68515228D02*
X81028571Y-68543800D01*
D10*
X93661905Y-72174819D02*
X93661905Y-71174819D01*
X93661905Y-71174819D02*
X93900000Y-71174819D01*
X93900000Y-71174819D02*
X94042857Y-71222438D01*
X94042857Y-71222438D02*
X94138095Y-71317676D01*
X94138095Y-71317676D02*
X94185714Y-71412914D01*
X94185714Y-71412914D02*
X94233333Y-71603390D01*
X94233333Y-71603390D02*
X94233333Y-71746247D01*
X94233333Y-71746247D02*
X94185714Y-71936723D01*
X94185714Y-71936723D02*
X94138095Y-72031961D01*
X94138095Y-72031961D02*
X94042857Y-72127200D01*
X94042857Y-72127200D02*
X93900000Y-72174819D01*
X93900000Y-72174819D02*
X93661905Y-72174819D01*
X94804762Y-71603390D02*
X94709524Y-71555771D01*
X94709524Y-71555771D02*
X94661905Y-71508152D01*
X94661905Y-71508152D02*
X94614286Y-71412914D01*
X94614286Y-71412914D02*
X94614286Y-71365295D01*
X94614286Y-71365295D02*
X94661905Y-71270057D01*
X94661905Y-71270057D02*
X94709524Y-71222438D01*
X94709524Y-71222438D02*
X94804762Y-71174819D01*
X94804762Y-71174819D02*
X94995238Y-71174819D01*
X94995238Y-71174819D02*
X95090476Y-71222438D01*
X95090476Y-71222438D02*
X95138095Y-71270057D01*
X95138095Y-71270057D02*
X95185714Y-71365295D01*
X95185714Y-71365295D02*
X95185714Y-71412914D01*
X95185714Y-71412914D02*
X95138095Y-71508152D01*
X95138095Y-71508152D02*
X95090476Y-71555771D01*
X95090476Y-71555771D02*
X94995238Y-71603390D01*
X94995238Y-71603390D02*
X94804762Y-71603390D01*
X94804762Y-71603390D02*
X94709524Y-71651009D01*
X94709524Y-71651009D02*
X94661905Y-71698628D01*
X94661905Y-71698628D02*
X94614286Y-71793866D01*
X94614286Y-71793866D02*
X94614286Y-71984342D01*
X94614286Y-71984342D02*
X94661905Y-72079580D01*
X94661905Y-72079580D02*
X94709524Y-72127200D01*
X94709524Y-72127200D02*
X94804762Y-72174819D01*
X94804762Y-72174819D02*
X94995238Y-72174819D01*
X94995238Y-72174819D02*
X95090476Y-72127200D01*
X95090476Y-72127200D02*
X95138095Y-72079580D01*
X95138095Y-72079580D02*
X95185714Y-71984342D01*
X95185714Y-71984342D02*
X95185714Y-71793866D01*
X95185714Y-71793866D02*
X95138095Y-71698628D01*
X95138095Y-71698628D02*
X95090476Y-71651009D01*
X95090476Y-71651009D02*
X94995238Y-71603390D01*
D11*
X92871428Y-68982371D02*
X92528571Y-68982371D01*
X92700000Y-68982371D02*
X92700000Y-68382371D01*
X92700000Y-68382371D02*
X92642857Y-68468085D01*
X92642857Y-68468085D02*
X92585714Y-68525228D01*
X92585714Y-68525228D02*
X92528571Y-68553800D01*
D10*
X81585714Y-60544819D02*
X81585714Y-59544819D01*
X81585714Y-59544819D02*
X81823809Y-59544819D01*
X81823809Y-59544819D02*
X81966666Y-59592438D01*
X81966666Y-59592438D02*
X82061904Y-59687676D01*
X82061904Y-59687676D02*
X82109523Y-59782914D01*
X82109523Y-59782914D02*
X82157142Y-59973390D01*
X82157142Y-59973390D02*
X82157142Y-60116247D01*
X82157142Y-60116247D02*
X82109523Y-60306723D01*
X82109523Y-60306723D02*
X82061904Y-60401961D01*
X82061904Y-60401961D02*
X81966666Y-60497200D01*
X81966666Y-60497200D02*
X81823809Y-60544819D01*
X81823809Y-60544819D02*
X81585714Y-60544819D01*
X82538095Y-59640057D02*
X82585714Y-59592438D01*
X82585714Y-59592438D02*
X82680952Y-59544819D01*
X82680952Y-59544819D02*
X82919047Y-59544819D01*
X82919047Y-59544819D02*
X83014285Y-59592438D01*
X83014285Y-59592438D02*
X83061904Y-59640057D01*
X83061904Y-59640057D02*
X83109523Y-59735295D01*
X83109523Y-59735295D02*
X83109523Y-59830533D01*
X83109523Y-59830533D02*
X83061904Y-59973390D01*
X83061904Y-59973390D02*
X82490476Y-60544819D01*
X82490476Y-60544819D02*
X83109523Y-60544819D01*
X84014285Y-59544819D02*
X83538095Y-59544819D01*
X83538095Y-59544819D02*
X83490476Y-60021009D01*
X83490476Y-60021009D02*
X83538095Y-59973390D01*
X83538095Y-59973390D02*
X83633333Y-59925771D01*
X83633333Y-59925771D02*
X83871428Y-59925771D01*
X83871428Y-59925771D02*
X83966666Y-59973390D01*
X83966666Y-59973390D02*
X84014285Y-60021009D01*
X84014285Y-60021009D02*
X84061904Y-60116247D01*
X84061904Y-60116247D02*
X84061904Y-60354342D01*
X84061904Y-60354342D02*
X84014285Y-60449580D01*
X84014285Y-60449580D02*
X83966666Y-60497200D01*
X83966666Y-60497200D02*
X83871428Y-60544819D01*
X83871428Y-60544819D02*
X83633333Y-60544819D01*
X83633333Y-60544819D02*
X83538095Y-60497200D01*
X83538095Y-60497200D02*
X83490476Y-60449580D01*
D11*
X84328571Y-62827628D02*
X84671428Y-62827628D01*
X84499999Y-62827628D02*
X84499999Y-63427628D01*
X84499999Y-63427628D02*
X84557142Y-63341914D01*
X84557142Y-63341914D02*
X84614285Y-63284771D01*
X84614285Y-63284771D02*
X84671428Y-63256200D01*
D10*
X88261905Y-60444819D02*
X88261905Y-59444819D01*
X88261905Y-59444819D02*
X88500000Y-59444819D01*
X88500000Y-59444819D02*
X88642857Y-59492438D01*
X88642857Y-59492438D02*
X88738095Y-59587676D01*
X88738095Y-59587676D02*
X88785714Y-59682914D01*
X88785714Y-59682914D02*
X88833333Y-59873390D01*
X88833333Y-59873390D02*
X88833333Y-60016247D01*
X88833333Y-60016247D02*
X88785714Y-60206723D01*
X88785714Y-60206723D02*
X88738095Y-60301961D01*
X88738095Y-60301961D02*
X88642857Y-60397200D01*
X88642857Y-60397200D02*
X88500000Y-60444819D01*
X88500000Y-60444819D02*
X88261905Y-60444819D01*
X89738095Y-59444819D02*
X89261905Y-59444819D01*
X89261905Y-59444819D02*
X89214286Y-59921009D01*
X89214286Y-59921009D02*
X89261905Y-59873390D01*
X89261905Y-59873390D02*
X89357143Y-59825771D01*
X89357143Y-59825771D02*
X89595238Y-59825771D01*
X89595238Y-59825771D02*
X89690476Y-59873390D01*
X89690476Y-59873390D02*
X89738095Y-59921009D01*
X89738095Y-59921009D02*
X89785714Y-60016247D01*
X89785714Y-60016247D02*
X89785714Y-60254342D01*
X89785714Y-60254342D02*
X89738095Y-60349580D01*
X89738095Y-60349580D02*
X89690476Y-60397200D01*
X89690476Y-60397200D02*
X89595238Y-60444819D01*
X89595238Y-60444819D02*
X89357143Y-60444819D01*
X89357143Y-60444819D02*
X89261905Y-60397200D01*
X89261905Y-60397200D02*
X89214286Y-60349580D01*
D11*
X90528571Y-62727628D02*
X90871428Y-62727628D01*
X90699999Y-62727628D02*
X90699999Y-63327628D01*
X90699999Y-63327628D02*
X90757142Y-63241914D01*
X90757142Y-63241914D02*
X90814285Y-63184771D01*
X90814285Y-63184771D02*
X90871428Y-63156200D01*
D10*
X66591666Y-43064819D02*
X66591666Y-43779104D01*
X66591666Y-43779104D02*
X66544047Y-43921961D01*
X66544047Y-43921961D02*
X66448809Y-44017200D01*
X66448809Y-44017200D02*
X66305952Y-44064819D01*
X66305952Y-44064819D02*
X66210714Y-44064819D01*
X67591666Y-44064819D02*
X67020238Y-44064819D01*
X67305952Y-44064819D02*
X67305952Y-43064819D01*
X67305952Y-43064819D02*
X67210714Y-43207676D01*
X67210714Y-43207676D02*
X67115476Y-43302914D01*
X67115476Y-43302914D02*
X67020238Y-43350533D01*
X82082142Y-52789580D02*
X82034523Y-52837200D01*
X82034523Y-52837200D02*
X81891666Y-52884819D01*
X81891666Y-52884819D02*
X81796428Y-52884819D01*
X81796428Y-52884819D02*
X81653571Y-52837200D01*
X81653571Y-52837200D02*
X81558333Y-52741961D01*
X81558333Y-52741961D02*
X81510714Y-52646723D01*
X81510714Y-52646723D02*
X81463095Y-52456247D01*
X81463095Y-52456247D02*
X81463095Y-52313390D01*
X81463095Y-52313390D02*
X81510714Y-52122914D01*
X81510714Y-52122914D02*
X81558333Y-52027676D01*
X81558333Y-52027676D02*
X81653571Y-51932438D01*
X81653571Y-51932438D02*
X81796428Y-51884819D01*
X81796428Y-51884819D02*
X81891666Y-51884819D01*
X81891666Y-51884819D02*
X82034523Y-51932438D01*
X82034523Y-51932438D02*
X82082142Y-51980057D01*
X82463095Y-51980057D02*
X82510714Y-51932438D01*
X82510714Y-51932438D02*
X82605952Y-51884819D01*
X82605952Y-51884819D02*
X82844047Y-51884819D01*
X82844047Y-51884819D02*
X82939285Y-51932438D01*
X82939285Y-51932438D02*
X82986904Y-51980057D01*
X82986904Y-51980057D02*
X83034523Y-52075295D01*
X83034523Y-52075295D02*
X83034523Y-52170533D01*
X83034523Y-52170533D02*
X82986904Y-52313390D01*
X82986904Y-52313390D02*
X82415476Y-52884819D01*
X82415476Y-52884819D02*
X83034523Y-52884819D01*
X83939285Y-51884819D02*
X83463095Y-51884819D01*
X83463095Y-51884819D02*
X83415476Y-52361009D01*
X83415476Y-52361009D02*
X83463095Y-52313390D01*
X83463095Y-52313390D02*
X83558333Y-52265771D01*
X83558333Y-52265771D02*
X83796428Y-52265771D01*
X83796428Y-52265771D02*
X83891666Y-52313390D01*
X83891666Y-52313390D02*
X83939285Y-52361009D01*
X83939285Y-52361009D02*
X83986904Y-52456247D01*
X83986904Y-52456247D02*
X83986904Y-52694342D01*
X83986904Y-52694342D02*
X83939285Y-52789580D01*
X83939285Y-52789580D02*
X83891666Y-52837200D01*
X83891666Y-52837200D02*
X83796428Y-52884819D01*
X83796428Y-52884819D02*
X83558333Y-52884819D01*
X83558333Y-52884819D02*
X83463095Y-52837200D01*
X83463095Y-52837200D02*
X83415476Y-52789580D01*
X75857142Y-68789580D02*
X75809523Y-68837200D01*
X75809523Y-68837200D02*
X75666666Y-68884819D01*
X75666666Y-68884819D02*
X75571428Y-68884819D01*
X75571428Y-68884819D02*
X75428571Y-68837200D01*
X75428571Y-68837200D02*
X75333333Y-68741961D01*
X75333333Y-68741961D02*
X75285714Y-68646723D01*
X75285714Y-68646723D02*
X75238095Y-68456247D01*
X75238095Y-68456247D02*
X75238095Y-68313390D01*
X75238095Y-68313390D02*
X75285714Y-68122914D01*
X75285714Y-68122914D02*
X75333333Y-68027676D01*
X75333333Y-68027676D02*
X75428571Y-67932438D01*
X75428571Y-67932438D02*
X75571428Y-67884819D01*
X75571428Y-67884819D02*
X75666666Y-67884819D01*
X75666666Y-67884819D02*
X75809523Y-67932438D01*
X75809523Y-67932438D02*
X75857142Y-67980057D01*
X76238095Y-67980057D02*
X76285714Y-67932438D01*
X76285714Y-67932438D02*
X76380952Y-67884819D01*
X76380952Y-67884819D02*
X76619047Y-67884819D01*
X76619047Y-67884819D02*
X76714285Y-67932438D01*
X76714285Y-67932438D02*
X76761904Y-67980057D01*
X76761904Y-67980057D02*
X76809523Y-68075295D01*
X76809523Y-68075295D02*
X76809523Y-68170533D01*
X76809523Y-68170533D02*
X76761904Y-68313390D01*
X76761904Y-68313390D02*
X76190476Y-68884819D01*
X76190476Y-68884819D02*
X76809523Y-68884819D01*
X77666666Y-68218152D02*
X77666666Y-68884819D01*
X77428571Y-67837200D02*
X77190476Y-68551485D01*
X77190476Y-68551485D02*
X77809523Y-68551485D01*
X76082142Y-63929580D02*
X76034523Y-63977200D01*
X76034523Y-63977200D02*
X75891666Y-64024819D01*
X75891666Y-64024819D02*
X75796428Y-64024819D01*
X75796428Y-64024819D02*
X75653571Y-63977200D01*
X75653571Y-63977200D02*
X75558333Y-63881961D01*
X75558333Y-63881961D02*
X75510714Y-63786723D01*
X75510714Y-63786723D02*
X75463095Y-63596247D01*
X75463095Y-63596247D02*
X75463095Y-63453390D01*
X75463095Y-63453390D02*
X75510714Y-63262914D01*
X75510714Y-63262914D02*
X75558333Y-63167676D01*
X75558333Y-63167676D02*
X75653571Y-63072438D01*
X75653571Y-63072438D02*
X75796428Y-63024819D01*
X75796428Y-63024819D02*
X75891666Y-63024819D01*
X75891666Y-63024819D02*
X76034523Y-63072438D01*
X76034523Y-63072438D02*
X76082142Y-63120057D01*
X76463095Y-63120057D02*
X76510714Y-63072438D01*
X76510714Y-63072438D02*
X76605952Y-63024819D01*
X76605952Y-63024819D02*
X76844047Y-63024819D01*
X76844047Y-63024819D02*
X76939285Y-63072438D01*
X76939285Y-63072438D02*
X76986904Y-63120057D01*
X76986904Y-63120057D02*
X77034523Y-63215295D01*
X77034523Y-63215295D02*
X77034523Y-63310533D01*
X77034523Y-63310533D02*
X76986904Y-63453390D01*
X76986904Y-63453390D02*
X76415476Y-64024819D01*
X76415476Y-64024819D02*
X77034523Y-64024819D01*
X77367857Y-63024819D02*
X77986904Y-63024819D01*
X77986904Y-63024819D02*
X77653571Y-63405771D01*
X77653571Y-63405771D02*
X77796428Y-63405771D01*
X77796428Y-63405771D02*
X77891666Y-63453390D01*
X77891666Y-63453390D02*
X77939285Y-63501009D01*
X77939285Y-63501009D02*
X77986904Y-63596247D01*
X77986904Y-63596247D02*
X77986904Y-63834342D01*
X77986904Y-63834342D02*
X77939285Y-63929580D01*
X77939285Y-63929580D02*
X77891666Y-63977200D01*
X77891666Y-63977200D02*
X77796428Y-64024819D01*
X77796428Y-64024819D02*
X77510714Y-64024819D01*
X77510714Y-64024819D02*
X77415476Y-63977200D01*
X77415476Y-63977200D02*
X77367857Y-63929580D01*
X93357142Y-63929580D02*
X93309523Y-63977200D01*
X93309523Y-63977200D02*
X93166666Y-64024819D01*
X93166666Y-64024819D02*
X93071428Y-64024819D01*
X93071428Y-64024819D02*
X92928571Y-63977200D01*
X92928571Y-63977200D02*
X92833333Y-63881961D01*
X92833333Y-63881961D02*
X92785714Y-63786723D01*
X92785714Y-63786723D02*
X92738095Y-63596247D01*
X92738095Y-63596247D02*
X92738095Y-63453390D01*
X92738095Y-63453390D02*
X92785714Y-63262914D01*
X92785714Y-63262914D02*
X92833333Y-63167676D01*
X92833333Y-63167676D02*
X92928571Y-63072438D01*
X92928571Y-63072438D02*
X93071428Y-63024819D01*
X93071428Y-63024819D02*
X93166666Y-63024819D01*
X93166666Y-63024819D02*
X93309523Y-63072438D01*
X93309523Y-63072438D02*
X93357142Y-63120057D01*
X93738095Y-63120057D02*
X93785714Y-63072438D01*
X93785714Y-63072438D02*
X93880952Y-63024819D01*
X93880952Y-63024819D02*
X94119047Y-63024819D01*
X94119047Y-63024819D02*
X94214285Y-63072438D01*
X94214285Y-63072438D02*
X94261904Y-63120057D01*
X94261904Y-63120057D02*
X94309523Y-63215295D01*
X94309523Y-63215295D02*
X94309523Y-63310533D01*
X94309523Y-63310533D02*
X94261904Y-63453390D01*
X94261904Y-63453390D02*
X93690476Y-64024819D01*
X93690476Y-64024819D02*
X94309523Y-64024819D01*
X94690476Y-63120057D02*
X94738095Y-63072438D01*
X94738095Y-63072438D02*
X94833333Y-63024819D01*
X94833333Y-63024819D02*
X95071428Y-63024819D01*
X95071428Y-63024819D02*
X95166666Y-63072438D01*
X95166666Y-63072438D02*
X95214285Y-63120057D01*
X95214285Y-63120057D02*
X95261904Y-63215295D01*
X95261904Y-63215295D02*
X95261904Y-63310533D01*
X95261904Y-63310533D02*
X95214285Y-63453390D01*
X95214285Y-63453390D02*
X94642857Y-64024819D01*
X94642857Y-64024819D02*
X95261904Y-64024819D01*
X98632142Y-68789580D02*
X98584523Y-68837200D01*
X98584523Y-68837200D02*
X98441666Y-68884819D01*
X98441666Y-68884819D02*
X98346428Y-68884819D01*
X98346428Y-68884819D02*
X98203571Y-68837200D01*
X98203571Y-68837200D02*
X98108333Y-68741961D01*
X98108333Y-68741961D02*
X98060714Y-68646723D01*
X98060714Y-68646723D02*
X98013095Y-68456247D01*
X98013095Y-68456247D02*
X98013095Y-68313390D01*
X98013095Y-68313390D02*
X98060714Y-68122914D01*
X98060714Y-68122914D02*
X98108333Y-68027676D01*
X98108333Y-68027676D02*
X98203571Y-67932438D01*
X98203571Y-67932438D02*
X98346428Y-67884819D01*
X98346428Y-67884819D02*
X98441666Y-67884819D01*
X98441666Y-67884819D02*
X98584523Y-67932438D01*
X98584523Y-67932438D02*
X98632142Y-67980057D01*
X99013095Y-67980057D02*
X99060714Y-67932438D01*
X99060714Y-67932438D02*
X99155952Y-67884819D01*
X99155952Y-67884819D02*
X99394047Y-67884819D01*
X99394047Y-67884819D02*
X99489285Y-67932438D01*
X99489285Y-67932438D02*
X99536904Y-67980057D01*
X99536904Y-67980057D02*
X99584523Y-68075295D01*
X99584523Y-68075295D02*
X99584523Y-68170533D01*
X99584523Y-68170533D02*
X99536904Y-68313390D01*
X99536904Y-68313390D02*
X98965476Y-68884819D01*
X98965476Y-68884819D02*
X99584523Y-68884819D01*
X100536904Y-68884819D02*
X99965476Y-68884819D01*
X100251190Y-68884819D02*
X100251190Y-67884819D01*
X100251190Y-67884819D02*
X100155952Y-68027676D01*
X100155952Y-68027676D02*
X100060714Y-68122914D01*
X100060714Y-68122914D02*
X99965476Y-68170533D01*
X82082142Y-68789580D02*
X82034523Y-68837200D01*
X82034523Y-68837200D02*
X81891666Y-68884819D01*
X81891666Y-68884819D02*
X81796428Y-68884819D01*
X81796428Y-68884819D02*
X81653571Y-68837200D01*
X81653571Y-68837200D02*
X81558333Y-68741961D01*
X81558333Y-68741961D02*
X81510714Y-68646723D01*
X81510714Y-68646723D02*
X81463095Y-68456247D01*
X81463095Y-68456247D02*
X81463095Y-68313390D01*
X81463095Y-68313390D02*
X81510714Y-68122914D01*
X81510714Y-68122914D02*
X81558333Y-68027676D01*
X81558333Y-68027676D02*
X81653571Y-67932438D01*
X81653571Y-67932438D02*
X81796428Y-67884819D01*
X81796428Y-67884819D02*
X81891666Y-67884819D01*
X81891666Y-67884819D02*
X82034523Y-67932438D01*
X82034523Y-67932438D02*
X82082142Y-67980057D01*
X82463095Y-67980057D02*
X82510714Y-67932438D01*
X82510714Y-67932438D02*
X82605952Y-67884819D01*
X82605952Y-67884819D02*
X82844047Y-67884819D01*
X82844047Y-67884819D02*
X82939285Y-67932438D01*
X82939285Y-67932438D02*
X82986904Y-67980057D01*
X82986904Y-67980057D02*
X83034523Y-68075295D01*
X83034523Y-68075295D02*
X83034523Y-68170533D01*
X83034523Y-68170533D02*
X82986904Y-68313390D01*
X82986904Y-68313390D02*
X82415476Y-68884819D01*
X82415476Y-68884819D02*
X83034523Y-68884819D01*
X83653571Y-67884819D02*
X83748809Y-67884819D01*
X83748809Y-67884819D02*
X83844047Y-67932438D01*
X83844047Y-67932438D02*
X83891666Y-67980057D01*
X83891666Y-67980057D02*
X83939285Y-68075295D01*
X83939285Y-68075295D02*
X83986904Y-68265771D01*
X83986904Y-68265771D02*
X83986904Y-68503866D01*
X83986904Y-68503866D02*
X83939285Y-68694342D01*
X83939285Y-68694342D02*
X83891666Y-68789580D01*
X83891666Y-68789580D02*
X83844047Y-68837200D01*
X83844047Y-68837200D02*
X83748809Y-68884819D01*
X83748809Y-68884819D02*
X83653571Y-68884819D01*
X83653571Y-68884819D02*
X83558333Y-68837200D01*
X83558333Y-68837200D02*
X83510714Y-68789580D01*
X83510714Y-68789580D02*
X83463095Y-68694342D01*
X83463095Y-68694342D02*
X83415476Y-68503866D01*
X83415476Y-68503866D02*
X83415476Y-68265771D01*
X83415476Y-68265771D02*
X83463095Y-68075295D01*
X83463095Y-68075295D02*
X83510714Y-67980057D01*
X83510714Y-67980057D02*
X83558333Y-67932438D01*
X83558333Y-67932438D02*
X83653571Y-67884819D01*
X88582142Y-68789580D02*
X88534523Y-68837200D01*
X88534523Y-68837200D02*
X88391666Y-68884819D01*
X88391666Y-68884819D02*
X88296428Y-68884819D01*
X88296428Y-68884819D02*
X88153571Y-68837200D01*
X88153571Y-68837200D02*
X88058333Y-68741961D01*
X88058333Y-68741961D02*
X88010714Y-68646723D01*
X88010714Y-68646723D02*
X87963095Y-68456247D01*
X87963095Y-68456247D02*
X87963095Y-68313390D01*
X87963095Y-68313390D02*
X88010714Y-68122914D01*
X88010714Y-68122914D02*
X88058333Y-68027676D01*
X88058333Y-68027676D02*
X88153571Y-67932438D01*
X88153571Y-67932438D02*
X88296428Y-67884819D01*
X88296428Y-67884819D02*
X88391666Y-67884819D01*
X88391666Y-67884819D02*
X88534523Y-67932438D01*
X88534523Y-67932438D02*
X88582142Y-67980057D01*
X89534523Y-68884819D02*
X88963095Y-68884819D01*
X89248809Y-68884819D02*
X89248809Y-67884819D01*
X89248809Y-67884819D02*
X89153571Y-68027676D01*
X89153571Y-68027676D02*
X89058333Y-68122914D01*
X89058333Y-68122914D02*
X88963095Y-68170533D01*
X90010714Y-68884819D02*
X90201190Y-68884819D01*
X90201190Y-68884819D02*
X90296428Y-68837200D01*
X90296428Y-68837200D02*
X90344047Y-68789580D01*
X90344047Y-68789580D02*
X90439285Y-68646723D01*
X90439285Y-68646723D02*
X90486904Y-68456247D01*
X90486904Y-68456247D02*
X90486904Y-68075295D01*
X90486904Y-68075295D02*
X90439285Y-67980057D01*
X90439285Y-67980057D02*
X90391666Y-67932438D01*
X90391666Y-67932438D02*
X90296428Y-67884819D01*
X90296428Y-67884819D02*
X90105952Y-67884819D01*
X90105952Y-67884819D02*
X90010714Y-67932438D01*
X90010714Y-67932438D02*
X89963095Y-67980057D01*
X89963095Y-67980057D02*
X89915476Y-68075295D01*
X89915476Y-68075295D02*
X89915476Y-68313390D01*
X89915476Y-68313390D02*
X89963095Y-68408628D01*
X89963095Y-68408628D02*
X90010714Y-68456247D01*
X90010714Y-68456247D02*
X90105952Y-68503866D01*
X90105952Y-68503866D02*
X90296428Y-68503866D01*
X90296428Y-68503866D02*
X90391666Y-68456247D01*
X90391666Y-68456247D02*
X90439285Y-68408628D01*
X90439285Y-68408628D02*
X90486904Y-68313390D01*
X88582142Y-63929580D02*
X88534523Y-63977200D01*
X88534523Y-63977200D02*
X88391666Y-64024819D01*
X88391666Y-64024819D02*
X88296428Y-64024819D01*
X88296428Y-64024819D02*
X88153571Y-63977200D01*
X88153571Y-63977200D02*
X88058333Y-63881961D01*
X88058333Y-63881961D02*
X88010714Y-63786723D01*
X88010714Y-63786723D02*
X87963095Y-63596247D01*
X87963095Y-63596247D02*
X87963095Y-63453390D01*
X87963095Y-63453390D02*
X88010714Y-63262914D01*
X88010714Y-63262914D02*
X88058333Y-63167676D01*
X88058333Y-63167676D02*
X88153571Y-63072438D01*
X88153571Y-63072438D02*
X88296428Y-63024819D01*
X88296428Y-63024819D02*
X88391666Y-63024819D01*
X88391666Y-63024819D02*
X88534523Y-63072438D01*
X88534523Y-63072438D02*
X88582142Y-63120057D01*
X89534523Y-64024819D02*
X88963095Y-64024819D01*
X89248809Y-64024819D02*
X89248809Y-63024819D01*
X89248809Y-63024819D02*
X89153571Y-63167676D01*
X89153571Y-63167676D02*
X89058333Y-63262914D01*
X89058333Y-63262914D02*
X88963095Y-63310533D01*
X90105952Y-63453390D02*
X90010714Y-63405771D01*
X90010714Y-63405771D02*
X89963095Y-63358152D01*
X89963095Y-63358152D02*
X89915476Y-63262914D01*
X89915476Y-63262914D02*
X89915476Y-63215295D01*
X89915476Y-63215295D02*
X89963095Y-63120057D01*
X89963095Y-63120057D02*
X90010714Y-63072438D01*
X90010714Y-63072438D02*
X90105952Y-63024819D01*
X90105952Y-63024819D02*
X90296428Y-63024819D01*
X90296428Y-63024819D02*
X90391666Y-63072438D01*
X90391666Y-63072438D02*
X90439285Y-63120057D01*
X90439285Y-63120057D02*
X90486904Y-63215295D01*
X90486904Y-63215295D02*
X90486904Y-63262914D01*
X90486904Y-63262914D02*
X90439285Y-63358152D01*
X90439285Y-63358152D02*
X90391666Y-63405771D01*
X90391666Y-63405771D02*
X90296428Y-63453390D01*
X90296428Y-63453390D02*
X90105952Y-63453390D01*
X90105952Y-63453390D02*
X90010714Y-63501009D01*
X90010714Y-63501009D02*
X89963095Y-63548628D01*
X89963095Y-63548628D02*
X89915476Y-63643866D01*
X89915476Y-63643866D02*
X89915476Y-63834342D01*
X89915476Y-63834342D02*
X89963095Y-63929580D01*
X89963095Y-63929580D02*
X90010714Y-63977200D01*
X90010714Y-63977200D02*
X90105952Y-64024819D01*
X90105952Y-64024819D02*
X90296428Y-64024819D01*
X90296428Y-64024819D02*
X90391666Y-63977200D01*
X90391666Y-63977200D02*
X90439285Y-63929580D01*
X90439285Y-63929580D02*
X90486904Y-63834342D01*
X90486904Y-63834342D02*
X90486904Y-63643866D01*
X90486904Y-63643866D02*
X90439285Y-63548628D01*
X90439285Y-63548628D02*
X90391666Y-63501009D01*
X90391666Y-63501009D02*
X90296428Y-63453390D01*
X93582142Y-65929580D02*
X93534523Y-65977200D01*
X93534523Y-65977200D02*
X93391666Y-66024819D01*
X93391666Y-66024819D02*
X93296428Y-66024819D01*
X93296428Y-66024819D02*
X93153571Y-65977200D01*
X93153571Y-65977200D02*
X93058333Y-65881961D01*
X93058333Y-65881961D02*
X93010714Y-65786723D01*
X93010714Y-65786723D02*
X92963095Y-65596247D01*
X92963095Y-65596247D02*
X92963095Y-65453390D01*
X92963095Y-65453390D02*
X93010714Y-65262914D01*
X93010714Y-65262914D02*
X93058333Y-65167676D01*
X93058333Y-65167676D02*
X93153571Y-65072438D01*
X93153571Y-65072438D02*
X93296428Y-65024819D01*
X93296428Y-65024819D02*
X93391666Y-65024819D01*
X93391666Y-65024819D02*
X93534523Y-65072438D01*
X93534523Y-65072438D02*
X93582142Y-65120057D01*
X94534523Y-66024819D02*
X93963095Y-66024819D01*
X94248809Y-66024819D02*
X94248809Y-65024819D01*
X94248809Y-65024819D02*
X94153571Y-65167676D01*
X94153571Y-65167676D02*
X94058333Y-65262914D01*
X94058333Y-65262914D02*
X93963095Y-65310533D01*
X94867857Y-65024819D02*
X95534523Y-65024819D01*
X95534523Y-65024819D02*
X95105952Y-66024819D01*
X98632142Y-66789580D02*
X98584523Y-66837200D01*
X98584523Y-66837200D02*
X98441666Y-66884819D01*
X98441666Y-66884819D02*
X98346428Y-66884819D01*
X98346428Y-66884819D02*
X98203571Y-66837200D01*
X98203571Y-66837200D02*
X98108333Y-66741961D01*
X98108333Y-66741961D02*
X98060714Y-66646723D01*
X98060714Y-66646723D02*
X98013095Y-66456247D01*
X98013095Y-66456247D02*
X98013095Y-66313390D01*
X98013095Y-66313390D02*
X98060714Y-66122914D01*
X98060714Y-66122914D02*
X98108333Y-66027676D01*
X98108333Y-66027676D02*
X98203571Y-65932438D01*
X98203571Y-65932438D02*
X98346428Y-65884819D01*
X98346428Y-65884819D02*
X98441666Y-65884819D01*
X98441666Y-65884819D02*
X98584523Y-65932438D01*
X98584523Y-65932438D02*
X98632142Y-65980057D01*
X99584523Y-66884819D02*
X99013095Y-66884819D01*
X99298809Y-66884819D02*
X99298809Y-65884819D01*
X99298809Y-65884819D02*
X99203571Y-66027676D01*
X99203571Y-66027676D02*
X99108333Y-66122914D01*
X99108333Y-66122914D02*
X99013095Y-66170533D01*
X100441666Y-65884819D02*
X100251190Y-65884819D01*
X100251190Y-65884819D02*
X100155952Y-65932438D01*
X100155952Y-65932438D02*
X100108333Y-65980057D01*
X100108333Y-65980057D02*
X100013095Y-66122914D01*
X100013095Y-66122914D02*
X99965476Y-66313390D01*
X99965476Y-66313390D02*
X99965476Y-66694342D01*
X99965476Y-66694342D02*
X100013095Y-66789580D01*
X100013095Y-66789580D02*
X100060714Y-66837200D01*
X100060714Y-66837200D02*
X100155952Y-66884819D01*
X100155952Y-66884819D02*
X100346428Y-66884819D01*
X100346428Y-66884819D02*
X100441666Y-66837200D01*
X100441666Y-66837200D02*
X100489285Y-66789580D01*
X100489285Y-66789580D02*
X100536904Y-66694342D01*
X100536904Y-66694342D02*
X100536904Y-66456247D01*
X100536904Y-66456247D02*
X100489285Y-66361009D01*
X100489285Y-66361009D02*
X100441666Y-66313390D01*
X100441666Y-66313390D02*
X100346428Y-66265771D01*
X100346428Y-66265771D02*
X100155952Y-66265771D01*
X100155952Y-66265771D02*
X100060714Y-66313390D01*
X100060714Y-66313390D02*
X100013095Y-66361009D01*
X100013095Y-66361009D02*
X99965476Y-66456247D01*
X82132142Y-66789580D02*
X82084523Y-66837200D01*
X82084523Y-66837200D02*
X81941666Y-66884819D01*
X81941666Y-66884819D02*
X81846428Y-66884819D01*
X81846428Y-66884819D02*
X81703571Y-66837200D01*
X81703571Y-66837200D02*
X81608333Y-66741961D01*
X81608333Y-66741961D02*
X81560714Y-66646723D01*
X81560714Y-66646723D02*
X81513095Y-66456247D01*
X81513095Y-66456247D02*
X81513095Y-66313390D01*
X81513095Y-66313390D02*
X81560714Y-66122914D01*
X81560714Y-66122914D02*
X81608333Y-66027676D01*
X81608333Y-66027676D02*
X81703571Y-65932438D01*
X81703571Y-65932438D02*
X81846428Y-65884819D01*
X81846428Y-65884819D02*
X81941666Y-65884819D01*
X81941666Y-65884819D02*
X82084523Y-65932438D01*
X82084523Y-65932438D02*
X82132142Y-65980057D01*
X83084523Y-66884819D02*
X82513095Y-66884819D01*
X82798809Y-66884819D02*
X82798809Y-65884819D01*
X82798809Y-65884819D02*
X82703571Y-66027676D01*
X82703571Y-66027676D02*
X82608333Y-66122914D01*
X82608333Y-66122914D02*
X82513095Y-66170533D01*
X83989285Y-65884819D02*
X83513095Y-65884819D01*
X83513095Y-65884819D02*
X83465476Y-66361009D01*
X83465476Y-66361009D02*
X83513095Y-66313390D01*
X83513095Y-66313390D02*
X83608333Y-66265771D01*
X83608333Y-66265771D02*
X83846428Y-66265771D01*
X83846428Y-66265771D02*
X83941666Y-66313390D01*
X83941666Y-66313390D02*
X83989285Y-66361009D01*
X83989285Y-66361009D02*
X84036904Y-66456247D01*
X84036904Y-66456247D02*
X84036904Y-66694342D01*
X84036904Y-66694342D02*
X83989285Y-66789580D01*
X83989285Y-66789580D02*
X83941666Y-66837200D01*
X83941666Y-66837200D02*
X83846428Y-66884819D01*
X83846428Y-66884819D02*
X83608333Y-66884819D01*
X83608333Y-66884819D02*
X83513095Y-66837200D01*
X83513095Y-66837200D02*
X83465476Y-66789580D01*
X76082142Y-49929580D02*
X76034523Y-49977200D01*
X76034523Y-49977200D02*
X75891666Y-50024819D01*
X75891666Y-50024819D02*
X75796428Y-50024819D01*
X75796428Y-50024819D02*
X75653571Y-49977200D01*
X75653571Y-49977200D02*
X75558333Y-49881961D01*
X75558333Y-49881961D02*
X75510714Y-49786723D01*
X75510714Y-49786723D02*
X75463095Y-49596247D01*
X75463095Y-49596247D02*
X75463095Y-49453390D01*
X75463095Y-49453390D02*
X75510714Y-49262914D01*
X75510714Y-49262914D02*
X75558333Y-49167676D01*
X75558333Y-49167676D02*
X75653571Y-49072438D01*
X75653571Y-49072438D02*
X75796428Y-49024819D01*
X75796428Y-49024819D02*
X75891666Y-49024819D01*
X75891666Y-49024819D02*
X76034523Y-49072438D01*
X76034523Y-49072438D02*
X76082142Y-49120057D01*
X77034523Y-50024819D02*
X76463095Y-50024819D01*
X76748809Y-50024819D02*
X76748809Y-49024819D01*
X76748809Y-49024819D02*
X76653571Y-49167676D01*
X76653571Y-49167676D02*
X76558333Y-49262914D01*
X76558333Y-49262914D02*
X76463095Y-49310533D01*
X77891666Y-49358152D02*
X77891666Y-50024819D01*
X77653571Y-48977200D02*
X77415476Y-49691485D01*
X77415476Y-49691485D02*
X78034523Y-49691485D01*
X76132142Y-50789580D02*
X76084523Y-50837200D01*
X76084523Y-50837200D02*
X75941666Y-50884819D01*
X75941666Y-50884819D02*
X75846428Y-50884819D01*
X75846428Y-50884819D02*
X75703571Y-50837200D01*
X75703571Y-50837200D02*
X75608333Y-50741961D01*
X75608333Y-50741961D02*
X75560714Y-50646723D01*
X75560714Y-50646723D02*
X75513095Y-50456247D01*
X75513095Y-50456247D02*
X75513095Y-50313390D01*
X75513095Y-50313390D02*
X75560714Y-50122914D01*
X75560714Y-50122914D02*
X75608333Y-50027676D01*
X75608333Y-50027676D02*
X75703571Y-49932438D01*
X75703571Y-49932438D02*
X75846428Y-49884819D01*
X75846428Y-49884819D02*
X75941666Y-49884819D01*
X75941666Y-49884819D02*
X76084523Y-49932438D01*
X76084523Y-49932438D02*
X76132142Y-49980057D01*
X77084523Y-50884819D02*
X76513095Y-50884819D01*
X76798809Y-50884819D02*
X76798809Y-49884819D01*
X76798809Y-49884819D02*
X76703571Y-50027676D01*
X76703571Y-50027676D02*
X76608333Y-50122914D01*
X76608333Y-50122914D02*
X76513095Y-50170533D01*
X77417857Y-49884819D02*
X78036904Y-49884819D01*
X78036904Y-49884819D02*
X77703571Y-50265771D01*
X77703571Y-50265771D02*
X77846428Y-50265771D01*
X77846428Y-50265771D02*
X77941666Y-50313390D01*
X77941666Y-50313390D02*
X77989285Y-50361009D01*
X77989285Y-50361009D02*
X78036904Y-50456247D01*
X78036904Y-50456247D02*
X78036904Y-50694342D01*
X78036904Y-50694342D02*
X77989285Y-50789580D01*
X77989285Y-50789580D02*
X77941666Y-50837200D01*
X77941666Y-50837200D02*
X77846428Y-50884819D01*
X77846428Y-50884819D02*
X77560714Y-50884819D01*
X77560714Y-50884819D02*
X77465476Y-50837200D01*
X77465476Y-50837200D02*
X77417857Y-50789580D01*
X82357142Y-50789580D02*
X82309523Y-50837200D01*
X82309523Y-50837200D02*
X82166666Y-50884819D01*
X82166666Y-50884819D02*
X82071428Y-50884819D01*
X82071428Y-50884819D02*
X81928571Y-50837200D01*
X81928571Y-50837200D02*
X81833333Y-50741961D01*
X81833333Y-50741961D02*
X81785714Y-50646723D01*
X81785714Y-50646723D02*
X81738095Y-50456247D01*
X81738095Y-50456247D02*
X81738095Y-50313390D01*
X81738095Y-50313390D02*
X81785714Y-50122914D01*
X81785714Y-50122914D02*
X81833333Y-50027676D01*
X81833333Y-50027676D02*
X81928571Y-49932438D01*
X81928571Y-49932438D02*
X82071428Y-49884819D01*
X82071428Y-49884819D02*
X82166666Y-49884819D01*
X82166666Y-49884819D02*
X82309523Y-49932438D01*
X82309523Y-49932438D02*
X82357142Y-49980057D01*
X83309523Y-50884819D02*
X82738095Y-50884819D01*
X83023809Y-50884819D02*
X83023809Y-49884819D01*
X83023809Y-49884819D02*
X82928571Y-50027676D01*
X82928571Y-50027676D02*
X82833333Y-50122914D01*
X82833333Y-50122914D02*
X82738095Y-50170533D01*
X83690476Y-49980057D02*
X83738095Y-49932438D01*
X83738095Y-49932438D02*
X83833333Y-49884819D01*
X83833333Y-49884819D02*
X84071428Y-49884819D01*
X84071428Y-49884819D02*
X84166666Y-49932438D01*
X84166666Y-49932438D02*
X84214285Y-49980057D01*
X84214285Y-49980057D02*
X84261904Y-50075295D01*
X84261904Y-50075295D02*
X84261904Y-50170533D01*
X84261904Y-50170533D02*
X84214285Y-50313390D01*
X84214285Y-50313390D02*
X83642857Y-50884819D01*
X83642857Y-50884819D02*
X84261904Y-50884819D01*
X98632142Y-49929580D02*
X98584523Y-49977200D01*
X98584523Y-49977200D02*
X98441666Y-50024819D01*
X98441666Y-50024819D02*
X98346428Y-50024819D01*
X98346428Y-50024819D02*
X98203571Y-49977200D01*
X98203571Y-49977200D02*
X98108333Y-49881961D01*
X98108333Y-49881961D02*
X98060714Y-49786723D01*
X98060714Y-49786723D02*
X98013095Y-49596247D01*
X98013095Y-49596247D02*
X98013095Y-49453390D01*
X98013095Y-49453390D02*
X98060714Y-49262914D01*
X98060714Y-49262914D02*
X98108333Y-49167676D01*
X98108333Y-49167676D02*
X98203571Y-49072438D01*
X98203571Y-49072438D02*
X98346428Y-49024819D01*
X98346428Y-49024819D02*
X98441666Y-49024819D01*
X98441666Y-49024819D02*
X98584523Y-49072438D01*
X98584523Y-49072438D02*
X98632142Y-49120057D01*
X99584523Y-50024819D02*
X99013095Y-50024819D01*
X99298809Y-50024819D02*
X99298809Y-49024819D01*
X99298809Y-49024819D02*
X99203571Y-49167676D01*
X99203571Y-49167676D02*
X99108333Y-49262914D01*
X99108333Y-49262914D02*
X99013095Y-49310533D01*
X100536904Y-50024819D02*
X99965476Y-50024819D01*
X100251190Y-50024819D02*
X100251190Y-49024819D01*
X100251190Y-49024819D02*
X100155952Y-49167676D01*
X100155952Y-49167676D02*
X100060714Y-49262914D01*
X100060714Y-49262914D02*
X99965476Y-49310533D01*
X87632142Y-49929580D02*
X87584523Y-49977200D01*
X87584523Y-49977200D02*
X87441666Y-50024819D01*
X87441666Y-50024819D02*
X87346428Y-50024819D01*
X87346428Y-50024819D02*
X87203571Y-49977200D01*
X87203571Y-49977200D02*
X87108333Y-49881961D01*
X87108333Y-49881961D02*
X87060714Y-49786723D01*
X87060714Y-49786723D02*
X87013095Y-49596247D01*
X87013095Y-49596247D02*
X87013095Y-49453390D01*
X87013095Y-49453390D02*
X87060714Y-49262914D01*
X87060714Y-49262914D02*
X87108333Y-49167676D01*
X87108333Y-49167676D02*
X87203571Y-49072438D01*
X87203571Y-49072438D02*
X87346428Y-49024819D01*
X87346428Y-49024819D02*
X87441666Y-49024819D01*
X87441666Y-49024819D02*
X87584523Y-49072438D01*
X87584523Y-49072438D02*
X87632142Y-49120057D01*
X88584523Y-50024819D02*
X88013095Y-50024819D01*
X88298809Y-50024819D02*
X88298809Y-49024819D01*
X88298809Y-49024819D02*
X88203571Y-49167676D01*
X88203571Y-49167676D02*
X88108333Y-49262914D01*
X88108333Y-49262914D02*
X88013095Y-49310533D01*
X89203571Y-49024819D02*
X89298809Y-49024819D01*
X89298809Y-49024819D02*
X89394047Y-49072438D01*
X89394047Y-49072438D02*
X89441666Y-49120057D01*
X89441666Y-49120057D02*
X89489285Y-49215295D01*
X89489285Y-49215295D02*
X89536904Y-49405771D01*
X89536904Y-49405771D02*
X89536904Y-49643866D01*
X89536904Y-49643866D02*
X89489285Y-49834342D01*
X89489285Y-49834342D02*
X89441666Y-49929580D01*
X89441666Y-49929580D02*
X89394047Y-49977200D01*
X89394047Y-49977200D02*
X89298809Y-50024819D01*
X89298809Y-50024819D02*
X89203571Y-50024819D01*
X89203571Y-50024819D02*
X89108333Y-49977200D01*
X89108333Y-49977200D02*
X89060714Y-49929580D01*
X89060714Y-49929580D02*
X89013095Y-49834342D01*
X89013095Y-49834342D02*
X88965476Y-49643866D01*
X88965476Y-49643866D02*
X88965476Y-49405771D01*
X88965476Y-49405771D02*
X89013095Y-49215295D01*
X89013095Y-49215295D02*
X89060714Y-49120057D01*
X89060714Y-49120057D02*
X89108333Y-49072438D01*
X89108333Y-49072438D02*
X89203571Y-49024819D01*
X88333333Y-47929580D02*
X88285714Y-47977200D01*
X88285714Y-47977200D02*
X88142857Y-48024819D01*
X88142857Y-48024819D02*
X88047619Y-48024819D01*
X88047619Y-48024819D02*
X87904762Y-47977200D01*
X87904762Y-47977200D02*
X87809524Y-47881961D01*
X87809524Y-47881961D02*
X87761905Y-47786723D01*
X87761905Y-47786723D02*
X87714286Y-47596247D01*
X87714286Y-47596247D02*
X87714286Y-47453390D01*
X87714286Y-47453390D02*
X87761905Y-47262914D01*
X87761905Y-47262914D02*
X87809524Y-47167676D01*
X87809524Y-47167676D02*
X87904762Y-47072438D01*
X87904762Y-47072438D02*
X88047619Y-47024819D01*
X88047619Y-47024819D02*
X88142857Y-47024819D01*
X88142857Y-47024819D02*
X88285714Y-47072438D01*
X88285714Y-47072438D02*
X88333333Y-47120057D01*
X88809524Y-48024819D02*
X89000000Y-48024819D01*
X89000000Y-48024819D02*
X89095238Y-47977200D01*
X89095238Y-47977200D02*
X89142857Y-47929580D01*
X89142857Y-47929580D02*
X89238095Y-47786723D01*
X89238095Y-47786723D02*
X89285714Y-47596247D01*
X89285714Y-47596247D02*
X89285714Y-47215295D01*
X89285714Y-47215295D02*
X89238095Y-47120057D01*
X89238095Y-47120057D02*
X89190476Y-47072438D01*
X89190476Y-47072438D02*
X89095238Y-47024819D01*
X89095238Y-47024819D02*
X88904762Y-47024819D01*
X88904762Y-47024819D02*
X88809524Y-47072438D01*
X88809524Y-47072438D02*
X88761905Y-47120057D01*
X88761905Y-47120057D02*
X88714286Y-47215295D01*
X88714286Y-47215295D02*
X88714286Y-47453390D01*
X88714286Y-47453390D02*
X88761905Y-47548628D01*
X88761905Y-47548628D02*
X88809524Y-47596247D01*
X88809524Y-47596247D02*
X88904762Y-47643866D01*
X88904762Y-47643866D02*
X89095238Y-47643866D01*
X89095238Y-47643866D02*
X89190476Y-47596247D01*
X89190476Y-47596247D02*
X89238095Y-47548628D01*
X89238095Y-47548628D02*
X89285714Y-47453390D01*
X93558333Y-49929580D02*
X93510714Y-49977200D01*
X93510714Y-49977200D02*
X93367857Y-50024819D01*
X93367857Y-50024819D02*
X93272619Y-50024819D01*
X93272619Y-50024819D02*
X93129762Y-49977200D01*
X93129762Y-49977200D02*
X93034524Y-49881961D01*
X93034524Y-49881961D02*
X92986905Y-49786723D01*
X92986905Y-49786723D02*
X92939286Y-49596247D01*
X92939286Y-49596247D02*
X92939286Y-49453390D01*
X92939286Y-49453390D02*
X92986905Y-49262914D01*
X92986905Y-49262914D02*
X93034524Y-49167676D01*
X93034524Y-49167676D02*
X93129762Y-49072438D01*
X93129762Y-49072438D02*
X93272619Y-49024819D01*
X93272619Y-49024819D02*
X93367857Y-49024819D01*
X93367857Y-49024819D02*
X93510714Y-49072438D01*
X93510714Y-49072438D02*
X93558333Y-49120057D01*
X94129762Y-49453390D02*
X94034524Y-49405771D01*
X94034524Y-49405771D02*
X93986905Y-49358152D01*
X93986905Y-49358152D02*
X93939286Y-49262914D01*
X93939286Y-49262914D02*
X93939286Y-49215295D01*
X93939286Y-49215295D02*
X93986905Y-49120057D01*
X93986905Y-49120057D02*
X94034524Y-49072438D01*
X94034524Y-49072438D02*
X94129762Y-49024819D01*
X94129762Y-49024819D02*
X94320238Y-49024819D01*
X94320238Y-49024819D02*
X94415476Y-49072438D01*
X94415476Y-49072438D02*
X94463095Y-49120057D01*
X94463095Y-49120057D02*
X94510714Y-49215295D01*
X94510714Y-49215295D02*
X94510714Y-49262914D01*
X94510714Y-49262914D02*
X94463095Y-49358152D01*
X94463095Y-49358152D02*
X94415476Y-49405771D01*
X94415476Y-49405771D02*
X94320238Y-49453390D01*
X94320238Y-49453390D02*
X94129762Y-49453390D01*
X94129762Y-49453390D02*
X94034524Y-49501009D01*
X94034524Y-49501009D02*
X93986905Y-49548628D01*
X93986905Y-49548628D02*
X93939286Y-49643866D01*
X93939286Y-49643866D02*
X93939286Y-49834342D01*
X93939286Y-49834342D02*
X93986905Y-49929580D01*
X93986905Y-49929580D02*
X94034524Y-49977200D01*
X94034524Y-49977200D02*
X94129762Y-50024819D01*
X94129762Y-50024819D02*
X94320238Y-50024819D01*
X94320238Y-50024819D02*
X94415476Y-49977200D01*
X94415476Y-49977200D02*
X94463095Y-49929580D01*
X94463095Y-49929580D02*
X94510714Y-49834342D01*
X94510714Y-49834342D02*
X94510714Y-49643866D01*
X94510714Y-49643866D02*
X94463095Y-49548628D01*
X94463095Y-49548628D02*
X94415476Y-49501009D01*
X94415476Y-49501009D02*
X94320238Y-49453390D01*
X93608333Y-47929580D02*
X93560714Y-47977200D01*
X93560714Y-47977200D02*
X93417857Y-48024819D01*
X93417857Y-48024819D02*
X93322619Y-48024819D01*
X93322619Y-48024819D02*
X93179762Y-47977200D01*
X93179762Y-47977200D02*
X93084524Y-47881961D01*
X93084524Y-47881961D02*
X93036905Y-47786723D01*
X93036905Y-47786723D02*
X92989286Y-47596247D01*
X92989286Y-47596247D02*
X92989286Y-47453390D01*
X92989286Y-47453390D02*
X93036905Y-47262914D01*
X93036905Y-47262914D02*
X93084524Y-47167676D01*
X93084524Y-47167676D02*
X93179762Y-47072438D01*
X93179762Y-47072438D02*
X93322619Y-47024819D01*
X93322619Y-47024819D02*
X93417857Y-47024819D01*
X93417857Y-47024819D02*
X93560714Y-47072438D01*
X93560714Y-47072438D02*
X93608333Y-47120057D01*
X93941667Y-47024819D02*
X94608333Y-47024819D01*
X94608333Y-47024819D02*
X94179762Y-48024819D01*
X98608333Y-47929580D02*
X98560714Y-47977200D01*
X98560714Y-47977200D02*
X98417857Y-48024819D01*
X98417857Y-48024819D02*
X98322619Y-48024819D01*
X98322619Y-48024819D02*
X98179762Y-47977200D01*
X98179762Y-47977200D02*
X98084524Y-47881961D01*
X98084524Y-47881961D02*
X98036905Y-47786723D01*
X98036905Y-47786723D02*
X97989286Y-47596247D01*
X97989286Y-47596247D02*
X97989286Y-47453390D01*
X97989286Y-47453390D02*
X98036905Y-47262914D01*
X98036905Y-47262914D02*
X98084524Y-47167676D01*
X98084524Y-47167676D02*
X98179762Y-47072438D01*
X98179762Y-47072438D02*
X98322619Y-47024819D01*
X98322619Y-47024819D02*
X98417857Y-47024819D01*
X98417857Y-47024819D02*
X98560714Y-47072438D01*
X98560714Y-47072438D02*
X98608333Y-47120057D01*
X99465476Y-47024819D02*
X99275000Y-47024819D01*
X99275000Y-47024819D02*
X99179762Y-47072438D01*
X99179762Y-47072438D02*
X99132143Y-47120057D01*
X99132143Y-47120057D02*
X99036905Y-47262914D01*
X99036905Y-47262914D02*
X98989286Y-47453390D01*
X98989286Y-47453390D02*
X98989286Y-47834342D01*
X98989286Y-47834342D02*
X99036905Y-47929580D01*
X99036905Y-47929580D02*
X99084524Y-47977200D01*
X99084524Y-47977200D02*
X99179762Y-48024819D01*
X99179762Y-48024819D02*
X99370238Y-48024819D01*
X99370238Y-48024819D02*
X99465476Y-47977200D01*
X99465476Y-47977200D02*
X99513095Y-47929580D01*
X99513095Y-47929580D02*
X99560714Y-47834342D01*
X99560714Y-47834342D02*
X99560714Y-47596247D01*
X99560714Y-47596247D02*
X99513095Y-47501009D01*
X99513095Y-47501009D02*
X99465476Y-47453390D01*
X99465476Y-47453390D02*
X99370238Y-47405771D01*
X99370238Y-47405771D02*
X99179762Y-47405771D01*
X99179762Y-47405771D02*
X99084524Y-47453390D01*
X99084524Y-47453390D02*
X99036905Y-47501009D01*
X99036905Y-47501009D02*
X98989286Y-47596247D01*
X75685714Y-60634819D02*
X75685714Y-59634819D01*
X75685714Y-59634819D02*
X75923809Y-59634819D01*
X75923809Y-59634819D02*
X76066666Y-59682438D01*
X76066666Y-59682438D02*
X76161904Y-59777676D01*
X76161904Y-59777676D02*
X76209523Y-59872914D01*
X76209523Y-59872914D02*
X76257142Y-60063390D01*
X76257142Y-60063390D02*
X76257142Y-60206247D01*
X76257142Y-60206247D02*
X76209523Y-60396723D01*
X76209523Y-60396723D02*
X76161904Y-60491961D01*
X76161904Y-60491961D02*
X76066666Y-60587200D01*
X76066666Y-60587200D02*
X75923809Y-60634819D01*
X75923809Y-60634819D02*
X75685714Y-60634819D01*
X76638095Y-59730057D02*
X76685714Y-59682438D01*
X76685714Y-59682438D02*
X76780952Y-59634819D01*
X76780952Y-59634819D02*
X77019047Y-59634819D01*
X77019047Y-59634819D02*
X77114285Y-59682438D01*
X77114285Y-59682438D02*
X77161904Y-59730057D01*
X77161904Y-59730057D02*
X77209523Y-59825295D01*
X77209523Y-59825295D02*
X77209523Y-59920533D01*
X77209523Y-59920533D02*
X77161904Y-60063390D01*
X77161904Y-60063390D02*
X76590476Y-60634819D01*
X76590476Y-60634819D02*
X77209523Y-60634819D01*
X78066666Y-59968152D02*
X78066666Y-60634819D01*
X77828571Y-59587200D02*
X77590476Y-60301485D01*
X77590476Y-60301485D02*
X78209523Y-60301485D01*
D11*
X78428571Y-62917628D02*
X78771428Y-62917628D01*
X78599999Y-62917628D02*
X78599999Y-63517628D01*
X78599999Y-63517628D02*
X78657142Y-63431914D01*
X78657142Y-63431914D02*
X78714285Y-63374771D01*
X78714285Y-63374771D02*
X78771428Y-63346200D01*
D10*
X75685714Y-56464819D02*
X75685714Y-55464819D01*
X75685714Y-55464819D02*
X75923809Y-55464819D01*
X75923809Y-55464819D02*
X76066666Y-55512438D01*
X76066666Y-55512438D02*
X76161904Y-55607676D01*
X76161904Y-55607676D02*
X76209523Y-55702914D01*
X76209523Y-55702914D02*
X76257142Y-55893390D01*
X76257142Y-55893390D02*
X76257142Y-56036247D01*
X76257142Y-56036247D02*
X76209523Y-56226723D01*
X76209523Y-56226723D02*
X76161904Y-56321961D01*
X76161904Y-56321961D02*
X76066666Y-56417200D01*
X76066666Y-56417200D02*
X75923809Y-56464819D01*
X75923809Y-56464819D02*
X75685714Y-56464819D01*
X76638095Y-55560057D02*
X76685714Y-55512438D01*
X76685714Y-55512438D02*
X76780952Y-55464819D01*
X76780952Y-55464819D02*
X77019047Y-55464819D01*
X77019047Y-55464819D02*
X77114285Y-55512438D01*
X77114285Y-55512438D02*
X77161904Y-55560057D01*
X77161904Y-55560057D02*
X77209523Y-55655295D01*
X77209523Y-55655295D02*
X77209523Y-55750533D01*
X77209523Y-55750533D02*
X77161904Y-55893390D01*
X77161904Y-55893390D02*
X76590476Y-56464819D01*
X76590476Y-56464819D02*
X77209523Y-56464819D01*
X77542857Y-55464819D02*
X78161904Y-55464819D01*
X78161904Y-55464819D02*
X77828571Y-55845771D01*
X77828571Y-55845771D02*
X77971428Y-55845771D01*
X77971428Y-55845771D02*
X78066666Y-55893390D01*
X78066666Y-55893390D02*
X78114285Y-55941009D01*
X78114285Y-55941009D02*
X78161904Y-56036247D01*
X78161904Y-56036247D02*
X78161904Y-56274342D01*
X78161904Y-56274342D02*
X78114285Y-56369580D01*
X78114285Y-56369580D02*
X78066666Y-56417200D01*
X78066666Y-56417200D02*
X77971428Y-56464819D01*
X77971428Y-56464819D02*
X77685714Y-56464819D01*
X77685714Y-56464819D02*
X77590476Y-56417200D01*
X77590476Y-56417200D02*
X77542857Y-56369580D01*
D11*
X75371428Y-53272371D02*
X75028571Y-53272371D01*
X75200000Y-53272371D02*
X75200000Y-52672371D01*
X75200000Y-52672371D02*
X75142857Y-52758085D01*
X75142857Y-52758085D02*
X75085714Y-52815228D01*
X75085714Y-52815228D02*
X75028571Y-52843800D01*
D10*
X81635714Y-56464819D02*
X81635714Y-55464819D01*
X81635714Y-55464819D02*
X81873809Y-55464819D01*
X81873809Y-55464819D02*
X82016666Y-55512438D01*
X82016666Y-55512438D02*
X82111904Y-55607676D01*
X82111904Y-55607676D02*
X82159523Y-55702914D01*
X82159523Y-55702914D02*
X82207142Y-55893390D01*
X82207142Y-55893390D02*
X82207142Y-56036247D01*
X82207142Y-56036247D02*
X82159523Y-56226723D01*
X82159523Y-56226723D02*
X82111904Y-56321961D01*
X82111904Y-56321961D02*
X82016666Y-56417200D01*
X82016666Y-56417200D02*
X81873809Y-56464819D01*
X81873809Y-56464819D02*
X81635714Y-56464819D01*
X82588095Y-55560057D02*
X82635714Y-55512438D01*
X82635714Y-55512438D02*
X82730952Y-55464819D01*
X82730952Y-55464819D02*
X82969047Y-55464819D01*
X82969047Y-55464819D02*
X83064285Y-55512438D01*
X83064285Y-55512438D02*
X83111904Y-55560057D01*
X83111904Y-55560057D02*
X83159523Y-55655295D01*
X83159523Y-55655295D02*
X83159523Y-55750533D01*
X83159523Y-55750533D02*
X83111904Y-55893390D01*
X83111904Y-55893390D02*
X82540476Y-56464819D01*
X82540476Y-56464819D02*
X83159523Y-56464819D01*
X83540476Y-55560057D02*
X83588095Y-55512438D01*
X83588095Y-55512438D02*
X83683333Y-55464819D01*
X83683333Y-55464819D02*
X83921428Y-55464819D01*
X83921428Y-55464819D02*
X84016666Y-55512438D01*
X84016666Y-55512438D02*
X84064285Y-55560057D01*
X84064285Y-55560057D02*
X84111904Y-55655295D01*
X84111904Y-55655295D02*
X84111904Y-55750533D01*
X84111904Y-55750533D02*
X84064285Y-55893390D01*
X84064285Y-55893390D02*
X83492857Y-56464819D01*
X83492857Y-56464819D02*
X84111904Y-56464819D01*
D11*
X81321428Y-53272371D02*
X80978571Y-53272371D01*
X81150000Y-53272371D02*
X81150000Y-52672371D01*
X81150000Y-52672371D02*
X81092857Y-52758085D01*
X81092857Y-52758085D02*
X81035714Y-52815228D01*
X81035714Y-52815228D02*
X80978571Y-52843800D01*
D10*
X87635714Y-56564819D02*
X87635714Y-55564819D01*
X87635714Y-55564819D02*
X87873809Y-55564819D01*
X87873809Y-55564819D02*
X88016666Y-55612438D01*
X88016666Y-55612438D02*
X88111904Y-55707676D01*
X88111904Y-55707676D02*
X88159523Y-55802914D01*
X88159523Y-55802914D02*
X88207142Y-55993390D01*
X88207142Y-55993390D02*
X88207142Y-56136247D01*
X88207142Y-56136247D02*
X88159523Y-56326723D01*
X88159523Y-56326723D02*
X88111904Y-56421961D01*
X88111904Y-56421961D02*
X88016666Y-56517200D01*
X88016666Y-56517200D02*
X87873809Y-56564819D01*
X87873809Y-56564819D02*
X87635714Y-56564819D01*
X88588095Y-55660057D02*
X88635714Y-55612438D01*
X88635714Y-55612438D02*
X88730952Y-55564819D01*
X88730952Y-55564819D02*
X88969047Y-55564819D01*
X88969047Y-55564819D02*
X89064285Y-55612438D01*
X89064285Y-55612438D02*
X89111904Y-55660057D01*
X89111904Y-55660057D02*
X89159523Y-55755295D01*
X89159523Y-55755295D02*
X89159523Y-55850533D01*
X89159523Y-55850533D02*
X89111904Y-55993390D01*
X89111904Y-55993390D02*
X88540476Y-56564819D01*
X88540476Y-56564819D02*
X89159523Y-56564819D01*
X90111904Y-56564819D02*
X89540476Y-56564819D01*
X89826190Y-56564819D02*
X89826190Y-55564819D01*
X89826190Y-55564819D02*
X89730952Y-55707676D01*
X89730952Y-55707676D02*
X89635714Y-55802914D01*
X89635714Y-55802914D02*
X89540476Y-55850533D01*
D11*
X87321428Y-53372371D02*
X86978571Y-53372371D01*
X87150000Y-53372371D02*
X87150000Y-52772371D01*
X87150000Y-52772371D02*
X87092857Y-52858085D01*
X87092857Y-52858085D02*
X87035714Y-52915228D01*
X87035714Y-52915228D02*
X86978571Y-52943800D01*
D10*
X92785714Y-56494819D02*
X92785714Y-55494819D01*
X92785714Y-55494819D02*
X93023809Y-55494819D01*
X93023809Y-55494819D02*
X93166666Y-55542438D01*
X93166666Y-55542438D02*
X93261904Y-55637676D01*
X93261904Y-55637676D02*
X93309523Y-55732914D01*
X93309523Y-55732914D02*
X93357142Y-55923390D01*
X93357142Y-55923390D02*
X93357142Y-56066247D01*
X93357142Y-56066247D02*
X93309523Y-56256723D01*
X93309523Y-56256723D02*
X93261904Y-56351961D01*
X93261904Y-56351961D02*
X93166666Y-56447200D01*
X93166666Y-56447200D02*
X93023809Y-56494819D01*
X93023809Y-56494819D02*
X92785714Y-56494819D01*
X94309523Y-56494819D02*
X93738095Y-56494819D01*
X94023809Y-56494819D02*
X94023809Y-55494819D01*
X94023809Y-55494819D02*
X93928571Y-55637676D01*
X93928571Y-55637676D02*
X93833333Y-55732914D01*
X93833333Y-55732914D02*
X93738095Y-55780533D01*
X95166666Y-55494819D02*
X94976190Y-55494819D01*
X94976190Y-55494819D02*
X94880952Y-55542438D01*
X94880952Y-55542438D02*
X94833333Y-55590057D01*
X94833333Y-55590057D02*
X94738095Y-55732914D01*
X94738095Y-55732914D02*
X94690476Y-55923390D01*
X94690476Y-55923390D02*
X94690476Y-56304342D01*
X94690476Y-56304342D02*
X94738095Y-56399580D01*
X94738095Y-56399580D02*
X94785714Y-56447200D01*
X94785714Y-56447200D02*
X94880952Y-56494819D01*
X94880952Y-56494819D02*
X95071428Y-56494819D01*
X95071428Y-56494819D02*
X95166666Y-56447200D01*
X95166666Y-56447200D02*
X95214285Y-56399580D01*
X95214285Y-56399580D02*
X95261904Y-56304342D01*
X95261904Y-56304342D02*
X95261904Y-56066247D01*
X95261904Y-56066247D02*
X95214285Y-55971009D01*
X95214285Y-55971009D02*
X95166666Y-55923390D01*
X95166666Y-55923390D02*
X95071428Y-55875771D01*
X95071428Y-55875771D02*
X94880952Y-55875771D01*
X94880952Y-55875771D02*
X94785714Y-55923390D01*
X94785714Y-55923390D02*
X94738095Y-55971009D01*
X94738095Y-55971009D02*
X94690476Y-56066247D01*
D11*
X92471428Y-53302371D02*
X92128571Y-53302371D01*
X92300000Y-53302371D02*
X92300000Y-52702371D01*
X92300000Y-52702371D02*
X92242857Y-52788085D01*
X92242857Y-52788085D02*
X92185714Y-52845228D01*
X92185714Y-52845228D02*
X92128571Y-52873800D01*
D10*
X92735714Y-44044819D02*
X92735714Y-43044819D01*
X92735714Y-43044819D02*
X92973809Y-43044819D01*
X92973809Y-43044819D02*
X93116666Y-43092438D01*
X93116666Y-43092438D02*
X93211904Y-43187676D01*
X93211904Y-43187676D02*
X93259523Y-43282914D01*
X93259523Y-43282914D02*
X93307142Y-43473390D01*
X93307142Y-43473390D02*
X93307142Y-43616247D01*
X93307142Y-43616247D02*
X93259523Y-43806723D01*
X93259523Y-43806723D02*
X93211904Y-43901961D01*
X93211904Y-43901961D02*
X93116666Y-43997200D01*
X93116666Y-43997200D02*
X92973809Y-44044819D01*
X92973809Y-44044819D02*
X92735714Y-44044819D01*
X94259523Y-44044819D02*
X93688095Y-44044819D01*
X93973809Y-44044819D02*
X93973809Y-43044819D01*
X93973809Y-43044819D02*
X93878571Y-43187676D01*
X93878571Y-43187676D02*
X93783333Y-43282914D01*
X93783333Y-43282914D02*
X93688095Y-43330533D01*
X95164285Y-43044819D02*
X94688095Y-43044819D01*
X94688095Y-43044819D02*
X94640476Y-43521009D01*
X94640476Y-43521009D02*
X94688095Y-43473390D01*
X94688095Y-43473390D02*
X94783333Y-43425771D01*
X94783333Y-43425771D02*
X95021428Y-43425771D01*
X95021428Y-43425771D02*
X95116666Y-43473390D01*
X95116666Y-43473390D02*
X95164285Y-43521009D01*
X95164285Y-43521009D02*
X95211904Y-43616247D01*
X95211904Y-43616247D02*
X95211904Y-43854342D01*
X95211904Y-43854342D02*
X95164285Y-43949580D01*
X95164285Y-43949580D02*
X95116666Y-43997200D01*
X95116666Y-43997200D02*
X95021428Y-44044819D01*
X95021428Y-44044819D02*
X94783333Y-44044819D01*
X94783333Y-44044819D02*
X94688095Y-43997200D01*
X94688095Y-43997200D02*
X94640476Y-43949580D01*
D11*
X95478571Y-46327628D02*
X95821428Y-46327628D01*
X95649999Y-46327628D02*
X95649999Y-46927628D01*
X95649999Y-46927628D02*
X95707142Y-46841914D01*
X95707142Y-46841914D02*
X95764285Y-46784771D01*
X95764285Y-46784771D02*
X95821428Y-46756200D01*
D10*
X81535714Y-44014819D02*
X81535714Y-43014819D01*
X81535714Y-43014819D02*
X81773809Y-43014819D01*
X81773809Y-43014819D02*
X81916666Y-43062438D01*
X81916666Y-43062438D02*
X82011904Y-43157676D01*
X82011904Y-43157676D02*
X82059523Y-43252914D01*
X82059523Y-43252914D02*
X82107142Y-43443390D01*
X82107142Y-43443390D02*
X82107142Y-43586247D01*
X82107142Y-43586247D02*
X82059523Y-43776723D01*
X82059523Y-43776723D02*
X82011904Y-43871961D01*
X82011904Y-43871961D02*
X81916666Y-43967200D01*
X81916666Y-43967200D02*
X81773809Y-44014819D01*
X81773809Y-44014819D02*
X81535714Y-44014819D01*
X83059523Y-44014819D02*
X82488095Y-44014819D01*
X82773809Y-44014819D02*
X82773809Y-43014819D01*
X82773809Y-43014819D02*
X82678571Y-43157676D01*
X82678571Y-43157676D02*
X82583333Y-43252914D01*
X82583333Y-43252914D02*
X82488095Y-43300533D01*
X83916666Y-43348152D02*
X83916666Y-44014819D01*
X83678571Y-42967200D02*
X83440476Y-43681485D01*
X83440476Y-43681485D02*
X84059523Y-43681485D01*
D11*
X84278571Y-46297628D02*
X84621428Y-46297628D01*
X84449999Y-46297628D02*
X84449999Y-46897628D01*
X84449999Y-46897628D02*
X84507142Y-46811914D01*
X84507142Y-46811914D02*
X84564285Y-46754771D01*
X84564285Y-46754771D02*
X84621428Y-46726200D01*
D10*
X75635714Y-44044819D02*
X75635714Y-43044819D01*
X75635714Y-43044819D02*
X75873809Y-43044819D01*
X75873809Y-43044819D02*
X76016666Y-43092438D01*
X76016666Y-43092438D02*
X76111904Y-43187676D01*
X76111904Y-43187676D02*
X76159523Y-43282914D01*
X76159523Y-43282914D02*
X76207142Y-43473390D01*
X76207142Y-43473390D02*
X76207142Y-43616247D01*
X76207142Y-43616247D02*
X76159523Y-43806723D01*
X76159523Y-43806723D02*
X76111904Y-43901961D01*
X76111904Y-43901961D02*
X76016666Y-43997200D01*
X76016666Y-43997200D02*
X75873809Y-44044819D01*
X75873809Y-44044819D02*
X75635714Y-44044819D01*
X77159523Y-44044819D02*
X76588095Y-44044819D01*
X76873809Y-44044819D02*
X76873809Y-43044819D01*
X76873809Y-43044819D02*
X76778571Y-43187676D01*
X76778571Y-43187676D02*
X76683333Y-43282914D01*
X76683333Y-43282914D02*
X76588095Y-43330533D01*
X77492857Y-43044819D02*
X78111904Y-43044819D01*
X78111904Y-43044819D02*
X77778571Y-43425771D01*
X77778571Y-43425771D02*
X77921428Y-43425771D01*
X77921428Y-43425771D02*
X78016666Y-43473390D01*
X78016666Y-43473390D02*
X78064285Y-43521009D01*
X78064285Y-43521009D02*
X78111904Y-43616247D01*
X78111904Y-43616247D02*
X78111904Y-43854342D01*
X78111904Y-43854342D02*
X78064285Y-43949580D01*
X78064285Y-43949580D02*
X78016666Y-43997200D01*
X78016666Y-43997200D02*
X77921428Y-44044819D01*
X77921428Y-44044819D02*
X77635714Y-44044819D01*
X77635714Y-44044819D02*
X77540476Y-43997200D01*
X77540476Y-43997200D02*
X77492857Y-43949580D01*
D11*
X78378571Y-46327628D02*
X78721428Y-46327628D01*
X78549999Y-46327628D02*
X78549999Y-46927628D01*
X78549999Y-46927628D02*
X78607142Y-46841914D01*
X78607142Y-46841914D02*
X78664285Y-46784771D01*
X78664285Y-46784771D02*
X78721428Y-46756200D01*
D10*
X98561905Y-60434819D02*
X98561905Y-59434819D01*
X98561905Y-59434819D02*
X98800000Y-59434819D01*
X98800000Y-59434819D02*
X98942857Y-59482438D01*
X98942857Y-59482438D02*
X99038095Y-59577676D01*
X99038095Y-59577676D02*
X99085714Y-59672914D01*
X99085714Y-59672914D02*
X99133333Y-59863390D01*
X99133333Y-59863390D02*
X99133333Y-60006247D01*
X99133333Y-60006247D02*
X99085714Y-60196723D01*
X99085714Y-60196723D02*
X99038095Y-60291961D01*
X99038095Y-60291961D02*
X98942857Y-60387200D01*
X98942857Y-60387200D02*
X98800000Y-60434819D01*
X98800000Y-60434819D02*
X98561905Y-60434819D01*
X99466667Y-59434819D02*
X100133333Y-59434819D01*
X100133333Y-59434819D02*
X99704762Y-60434819D01*
D11*
X100828571Y-62717628D02*
X101171428Y-62717628D01*
X100999999Y-62717628D02*
X100999999Y-63317628D01*
X100999999Y-63317628D02*
X101057142Y-63231914D01*
X101057142Y-63231914D02*
X101114285Y-63174771D01*
X101114285Y-63174771D02*
X101171428Y-63146200D01*
D10*
X93461905Y-60434819D02*
X93461905Y-59434819D01*
X93461905Y-59434819D02*
X93700000Y-59434819D01*
X93700000Y-59434819D02*
X93842857Y-59482438D01*
X93842857Y-59482438D02*
X93938095Y-59577676D01*
X93938095Y-59577676D02*
X93985714Y-59672914D01*
X93985714Y-59672914D02*
X94033333Y-59863390D01*
X94033333Y-59863390D02*
X94033333Y-60006247D01*
X94033333Y-60006247D02*
X93985714Y-60196723D01*
X93985714Y-60196723D02*
X93938095Y-60291961D01*
X93938095Y-60291961D02*
X93842857Y-60387200D01*
X93842857Y-60387200D02*
X93700000Y-60434819D01*
X93700000Y-60434819D02*
X93461905Y-60434819D01*
X94890476Y-59434819D02*
X94700000Y-59434819D01*
X94700000Y-59434819D02*
X94604762Y-59482438D01*
X94604762Y-59482438D02*
X94557143Y-59530057D01*
X94557143Y-59530057D02*
X94461905Y-59672914D01*
X94461905Y-59672914D02*
X94414286Y-59863390D01*
X94414286Y-59863390D02*
X94414286Y-60244342D01*
X94414286Y-60244342D02*
X94461905Y-60339580D01*
X94461905Y-60339580D02*
X94509524Y-60387200D01*
X94509524Y-60387200D02*
X94604762Y-60434819D01*
X94604762Y-60434819D02*
X94795238Y-60434819D01*
X94795238Y-60434819D02*
X94890476Y-60387200D01*
X94890476Y-60387200D02*
X94938095Y-60339580D01*
X94938095Y-60339580D02*
X94985714Y-60244342D01*
X94985714Y-60244342D02*
X94985714Y-60006247D01*
X94985714Y-60006247D02*
X94938095Y-59911009D01*
X94938095Y-59911009D02*
X94890476Y-59863390D01*
X94890476Y-59863390D02*
X94795238Y-59815771D01*
X94795238Y-59815771D02*
X94604762Y-59815771D01*
X94604762Y-59815771D02*
X94509524Y-59863390D01*
X94509524Y-59863390D02*
X94461905Y-59911009D01*
X94461905Y-59911009D02*
X94414286Y-60006247D01*
D11*
X95728571Y-62717628D02*
X96071428Y-62717628D01*
X95899999Y-62717628D02*
X95899999Y-63317628D01*
X95899999Y-63317628D02*
X95957142Y-63231914D01*
X95957142Y-63231914D02*
X96014285Y-63174771D01*
X96014285Y-63174771D02*
X96071428Y-63146200D01*
D10*
X98761905Y-72164819D02*
X98761905Y-71164819D01*
X98761905Y-71164819D02*
X99000000Y-71164819D01*
X99000000Y-71164819D02*
X99142857Y-71212438D01*
X99142857Y-71212438D02*
X99238095Y-71307676D01*
X99238095Y-71307676D02*
X99285714Y-71402914D01*
X99285714Y-71402914D02*
X99333333Y-71593390D01*
X99333333Y-71593390D02*
X99333333Y-71736247D01*
X99333333Y-71736247D02*
X99285714Y-71926723D01*
X99285714Y-71926723D02*
X99238095Y-72021961D01*
X99238095Y-72021961D02*
X99142857Y-72117200D01*
X99142857Y-72117200D02*
X99000000Y-72164819D01*
X99000000Y-72164819D02*
X98761905Y-72164819D01*
X100190476Y-71498152D02*
X100190476Y-72164819D01*
X99952381Y-71117200D02*
X99714286Y-71831485D01*
X99714286Y-71831485D02*
X100333333Y-71831485D01*
D11*
X97971428Y-68972371D02*
X97628571Y-68972371D01*
X97800000Y-68972371D02*
X97800000Y-68372371D01*
X97800000Y-68372371D02*
X97742857Y-68458085D01*
X97742857Y-68458085D02*
X97685714Y-68515228D01*
X97685714Y-68515228D02*
X97628571Y-68543800D01*
D10*
X98461905Y-56394819D02*
X98461905Y-55394819D01*
X98461905Y-55394819D02*
X98700000Y-55394819D01*
X98700000Y-55394819D02*
X98842857Y-55442438D01*
X98842857Y-55442438D02*
X98938095Y-55537676D01*
X98938095Y-55537676D02*
X98985714Y-55632914D01*
X98985714Y-55632914D02*
X99033333Y-55823390D01*
X99033333Y-55823390D02*
X99033333Y-55966247D01*
X99033333Y-55966247D02*
X98985714Y-56156723D01*
X98985714Y-56156723D02*
X98938095Y-56251961D01*
X98938095Y-56251961D02*
X98842857Y-56347200D01*
X98842857Y-56347200D02*
X98700000Y-56394819D01*
X98700000Y-56394819D02*
X98461905Y-56394819D01*
X99366667Y-55394819D02*
X99985714Y-55394819D01*
X99985714Y-55394819D02*
X99652381Y-55775771D01*
X99652381Y-55775771D02*
X99795238Y-55775771D01*
X99795238Y-55775771D02*
X99890476Y-55823390D01*
X99890476Y-55823390D02*
X99938095Y-55871009D01*
X99938095Y-55871009D02*
X99985714Y-55966247D01*
X99985714Y-55966247D02*
X99985714Y-56204342D01*
X99985714Y-56204342D02*
X99938095Y-56299580D01*
X99938095Y-56299580D02*
X99890476Y-56347200D01*
X99890476Y-56347200D02*
X99795238Y-56394819D01*
X99795238Y-56394819D02*
X99509524Y-56394819D01*
X99509524Y-56394819D02*
X99414286Y-56347200D01*
X99414286Y-56347200D02*
X99366667Y-56299580D01*
D11*
X97671428Y-53202371D02*
X97328571Y-53202371D01*
X97500000Y-53202371D02*
X97500000Y-52602371D01*
X97500000Y-52602371D02*
X97442857Y-52688085D01*
X97442857Y-52688085D02*
X97385714Y-52745228D01*
X97385714Y-52745228D02*
X97328571Y-52773800D01*
D10*
X98061905Y-44044819D02*
X98061905Y-43044819D01*
X98061905Y-43044819D02*
X98300000Y-43044819D01*
X98300000Y-43044819D02*
X98442857Y-43092438D01*
X98442857Y-43092438D02*
X98538095Y-43187676D01*
X98538095Y-43187676D02*
X98585714Y-43282914D01*
X98585714Y-43282914D02*
X98633333Y-43473390D01*
X98633333Y-43473390D02*
X98633333Y-43616247D01*
X98633333Y-43616247D02*
X98585714Y-43806723D01*
X98585714Y-43806723D02*
X98538095Y-43901961D01*
X98538095Y-43901961D02*
X98442857Y-43997200D01*
X98442857Y-43997200D02*
X98300000Y-44044819D01*
X98300000Y-44044819D02*
X98061905Y-44044819D01*
X99014286Y-43140057D02*
X99061905Y-43092438D01*
X99061905Y-43092438D02*
X99157143Y-43044819D01*
X99157143Y-43044819D02*
X99395238Y-43044819D01*
X99395238Y-43044819D02*
X99490476Y-43092438D01*
X99490476Y-43092438D02*
X99538095Y-43140057D01*
X99538095Y-43140057D02*
X99585714Y-43235295D01*
X99585714Y-43235295D02*
X99585714Y-43330533D01*
X99585714Y-43330533D02*
X99538095Y-43473390D01*
X99538095Y-43473390D02*
X98966667Y-44044819D01*
X98966667Y-44044819D02*
X99585714Y-44044819D01*
D11*
X100328571Y-46327628D02*
X100671428Y-46327628D01*
X100499999Y-46327628D02*
X100499999Y-46927628D01*
X100499999Y-46927628D02*
X100557142Y-46841914D01*
X100557142Y-46841914D02*
X100614285Y-46784771D01*
X100614285Y-46784771D02*
X100671428Y-46756200D01*
D10*
X87861905Y-44044819D02*
X87861905Y-43044819D01*
X87861905Y-43044819D02*
X88100000Y-43044819D01*
X88100000Y-43044819D02*
X88242857Y-43092438D01*
X88242857Y-43092438D02*
X88338095Y-43187676D01*
X88338095Y-43187676D02*
X88385714Y-43282914D01*
X88385714Y-43282914D02*
X88433333Y-43473390D01*
X88433333Y-43473390D02*
X88433333Y-43616247D01*
X88433333Y-43616247D02*
X88385714Y-43806723D01*
X88385714Y-43806723D02*
X88338095Y-43901961D01*
X88338095Y-43901961D02*
X88242857Y-43997200D01*
X88242857Y-43997200D02*
X88100000Y-44044819D01*
X88100000Y-44044819D02*
X87861905Y-44044819D01*
X89385714Y-44044819D02*
X88814286Y-44044819D01*
X89100000Y-44044819D02*
X89100000Y-43044819D01*
X89100000Y-43044819D02*
X89004762Y-43187676D01*
X89004762Y-43187676D02*
X88909524Y-43282914D01*
X88909524Y-43282914D02*
X88814286Y-43330533D01*
D11*
X90128571Y-46327628D02*
X90471428Y-46327628D01*
X90299999Y-46327628D02*
X90299999Y-46927628D01*
X90299999Y-46927628D02*
X90357142Y-46841914D01*
X90357142Y-46841914D02*
X90414285Y-46784771D01*
X90414285Y-46784771D02*
X90471428Y-46756200D01*
D12*
%TO.C,J2*%
X60170000Y-47830000D02*
X60170000Y-55510000D01*
X60170000Y-47830000D02*
X62830000Y-47830000D01*
X60170000Y-55510000D02*
X62830000Y-55510000D01*
X61500000Y-45230000D02*
X62830000Y-45230000D01*
X62830000Y-45230000D02*
X62830000Y-46560000D01*
X62830000Y-47830000D02*
X62830000Y-55510000D01*
%TO.C,D9*%
X75550000Y-71000000D02*
X76250000Y-71000000D01*
%TO.C,D10*%
X88100000Y-71000000D02*
X88800000Y-71000000D01*
%TO.C,D11*%
X81700000Y-71000000D02*
X82400000Y-71000000D01*
%TO.C,D8*%
X93200000Y-71010000D02*
X93900000Y-71010000D01*
%TO.C,D25*%
X84000000Y-60800000D02*
X83300000Y-60800000D01*
%TO.C,D5*%
X90200000Y-60700000D02*
X89500000Y-60700000D01*
%TO.C,J1*%
X65595000Y-47650000D02*
X65595000Y-55330000D01*
X65595000Y-47650000D02*
X68255000Y-47650000D01*
X65595000Y-55330000D02*
X68255000Y-55330000D01*
X66925000Y-45050000D02*
X68255000Y-45050000D01*
X68255000Y-45050000D02*
X68255000Y-46380000D01*
X68255000Y-47650000D02*
X68255000Y-55330000D01*
%TO.C,C25*%
X82865580Y-51510000D02*
X82584420Y-51510000D01*
X82865580Y-50490000D02*
X82584420Y-50490000D01*
%TO.C,C24*%
X76640580Y-67510000D02*
X76359420Y-67510000D01*
X76640580Y-66490000D02*
X76359420Y-66490000D01*
%TO.C,C23*%
X76584420Y-64490000D02*
X76865580Y-64490000D01*
X76584420Y-65510000D02*
X76865580Y-65510000D01*
%TO.C,C22*%
X93859420Y-64490000D02*
X94140580Y-64490000D01*
X93859420Y-65510000D02*
X94140580Y-65510000D01*
%TO.C,C21*%
X99415580Y-67510000D02*
X99134420Y-67510000D01*
X99415580Y-66490000D02*
X99134420Y-66490000D01*
%TO.C,C20*%
X82865580Y-67510000D02*
X82584420Y-67510000D01*
X82865580Y-66490000D02*
X82584420Y-66490000D01*
%TO.C,C19*%
X89365580Y-67510000D02*
X89084420Y-67510000D01*
X89365580Y-66490000D02*
X89084420Y-66490000D01*
%TO.C,C18*%
X89084420Y-64490000D02*
X89365580Y-64490000D01*
X89084420Y-65510000D02*
X89365580Y-65510000D01*
%TO.C,C17*%
X94084420Y-66490000D02*
X94365580Y-66490000D01*
X94084420Y-67510000D02*
X94365580Y-67510000D01*
%TO.C,C16*%
X99415580Y-65510000D02*
X99134420Y-65510000D01*
X99415580Y-64490000D02*
X99134420Y-64490000D01*
%TO.C,C15*%
X82915580Y-65510000D02*
X82634420Y-65510000D01*
X82915580Y-64490000D02*
X82634420Y-64490000D01*
%TO.C,C14*%
X76584420Y-50490000D02*
X76865580Y-50490000D01*
X76584420Y-51510000D02*
X76865580Y-51510000D01*
%TO.C,C13*%
X76915580Y-49510000D02*
X76634420Y-49510000D01*
X76915580Y-48490000D02*
X76634420Y-48490000D01*
%TO.C,C12*%
X83140580Y-49510000D02*
X82859420Y-49510000D01*
X83140580Y-48490000D02*
X82859420Y-48490000D01*
%TO.C,C11*%
X99134420Y-50490000D02*
X99415580Y-50490000D01*
X99134420Y-51510000D02*
X99415580Y-51510000D01*
%TO.C,C10*%
X88134420Y-50490000D02*
X88415580Y-50490000D01*
X88134420Y-51510000D02*
X88415580Y-51510000D01*
%TO.C,C9*%
X88359420Y-48490000D02*
X88640580Y-48490000D01*
X88359420Y-49510000D02*
X88640580Y-49510000D01*
%TO.C,C8*%
X93584420Y-50490000D02*
X93865580Y-50490000D01*
X93584420Y-51510000D02*
X93865580Y-51510000D01*
%TO.C,C7*%
X93634420Y-48490000D02*
X93915580Y-48490000D01*
X93634420Y-49510000D02*
X93915580Y-49510000D01*
%TO.C,C6*%
X98634420Y-48490000D02*
X98915580Y-48490000D01*
X98634420Y-49510000D02*
X98915580Y-49510000D01*
%TO.C,D24*%
X78100000Y-60890000D02*
X77400000Y-60890000D01*
%TO.C,D23*%
X75700000Y-55300000D02*
X76400000Y-55300000D01*
%TO.C,D22*%
X81650000Y-55300000D02*
X82350000Y-55300000D01*
%TO.C,D21*%
X87650000Y-55400000D02*
X88350000Y-55400000D01*
%TO.C,D16*%
X92800000Y-55330000D02*
X93500000Y-55330000D01*
%TO.C,D15*%
X95150000Y-44300000D02*
X94450000Y-44300000D01*
%TO.C,D14*%
X83950000Y-44270000D02*
X83250000Y-44270000D01*
%TO.C,D13*%
X78050000Y-44300000D02*
X77350000Y-44300000D01*
%TO.C,D7*%
X100500000Y-60690000D02*
X99800000Y-60690000D01*
%TO.C,D6*%
X95400000Y-60690000D02*
X94700000Y-60690000D01*
%TO.C,D4*%
X98300000Y-71000000D02*
X99000000Y-71000000D01*
%TO.C,D3*%
X98000000Y-55230000D02*
X98700000Y-55230000D01*
%TO.C,D2*%
X100000000Y-44300000D02*
X99300000Y-44300000D01*
%TO.C,D1*%
X89800000Y-44300000D02*
X89100000Y-44300000D01*
%TD*%
M02*
