%TF.GenerationSoftware,KiCad,Pcbnew,9.0.1*%
%TF.CreationDate,2025-09-27T01:00:46-04:00*%
%TF.ProjectId,GRID,47524944-2e6b-4696-9361-645f70636258,rev?*%
%TF.SameCoordinates,Original*%
%TF.FileFunction,Paste,Top*%
%TF.FilePolarity,Positive*%
%FSLAX46Y46*%
G04 Gerber Fmt 4.6, Leading zero omitted, Abs format (unit mm)*
G04 Created by KiCad (PCBNEW 9.0.1) date 2025-09-27 01:00:46*
%MOMM*%
%LPD*%
G01*
G04 APERTURE LIST*
G04 Aperture macros list*
%AMRoundRect*
0 Rectangle with rounded corners*
0 $1 Rounding radius*
0 $2 $3 $4 $5 $6 $7 $8 $9 X,Y pos of 4 corners*
0 Add a 4 corners polygon primitive as box body*
4,1,4,$2,$3,$4,$5,$6,$7,$8,$9,$2,$3,0*
0 Add four circle primitives for the rounded corners*
1,1,$1+$1,$2,$3*
1,1,$1+$1,$4,$5*
1,1,$1+$1,$6,$7*
1,1,$1+$1,$8,$9*
0 Add four rect primitives between the rounded corners*
20,1,$1+$1,$2,$3,$4,$5,0*
20,1,$1+$1,$4,$5,$6,$7,0*
20,1,$1+$1,$6,$7,$8,$9,0*
20,1,$1+$1,$8,$9,$2,$3,0*%
G04 Aperture macros list end*
%ADD10R,0.800000X0.500000*%
%ADD11R,0.500000X1.480000*%
%ADD12R,0.800000X0.300000*%
%ADD13R,0.500000X1.000000*%
%ADD14RoundRect,0.225000X0.225000X0.250000X-0.225000X0.250000X-0.225000X-0.250000X0.225000X-0.250000X0*%
%ADD15RoundRect,0.225000X-0.225000X-0.250000X0.225000X-0.250000X0.225000X0.250000X-0.225000X0.250000X0*%
G04 APERTURE END LIST*
D10*
%TO.C,D9*%
X77600000Y-68700000D03*
D11*
X76750000Y-70190000D03*
D12*
X77600000Y-69600000D03*
D10*
X77600000Y-70500000D03*
X75900000Y-70500000D03*
D12*
X75900000Y-69600000D03*
D13*
X76750000Y-68770000D03*
D10*
X75900000Y-68700000D03*
%TD*%
%TO.C,D10*%
X90150000Y-68700000D03*
D11*
X89300000Y-70190000D03*
D12*
X90150000Y-69600000D03*
D10*
X90150000Y-70500000D03*
X88450000Y-70500000D03*
D12*
X88450000Y-69600000D03*
D13*
X89300000Y-68770000D03*
D10*
X88450000Y-68700000D03*
%TD*%
%TO.C,D11*%
X83750000Y-68700000D03*
D11*
X82900000Y-70190000D03*
D12*
X83750000Y-69600000D03*
D10*
X83750000Y-70500000D03*
X82050000Y-70500000D03*
D12*
X82050000Y-69600000D03*
D13*
X82900000Y-68770000D03*
D10*
X82050000Y-68700000D03*
%TD*%
%TO.C,D8*%
X95250000Y-68710000D03*
D11*
X94400000Y-70200000D03*
D12*
X95250000Y-69610000D03*
D10*
X95250000Y-70510000D03*
X93550000Y-70510000D03*
D12*
X93550000Y-69610000D03*
D13*
X94400000Y-68780000D03*
D10*
X93550000Y-68710000D03*
%TD*%
%TO.C,D25*%
X81950000Y-63100000D03*
D11*
X82800000Y-61610000D03*
D12*
X81950000Y-62200000D03*
D10*
X81950000Y-61300000D03*
X83650000Y-61300000D03*
D12*
X83650000Y-62200000D03*
D13*
X82800000Y-63030000D03*
D10*
X83650000Y-63100000D03*
%TD*%
%TO.C,D5*%
X88150000Y-63000000D03*
D11*
X89000000Y-61510000D03*
D12*
X88150000Y-62100000D03*
D10*
X88150000Y-61200000D03*
X89850000Y-61200000D03*
D12*
X89850000Y-62100000D03*
D13*
X89000000Y-62930000D03*
D10*
X89850000Y-63000000D03*
%TD*%
D14*
%TO.C,C25*%
X83500000Y-51000000D03*
X81950000Y-51000000D03*
%TD*%
%TO.C,C24*%
X77275000Y-67000000D03*
X75725000Y-67000000D03*
%TD*%
D15*
%TO.C,C23*%
X75950000Y-65000000D03*
X77500000Y-65000000D03*
%TD*%
%TO.C,C22*%
X93225000Y-65000000D03*
X94775000Y-65000000D03*
%TD*%
D14*
%TO.C,C21*%
X100050000Y-67000000D03*
X98500000Y-67000000D03*
%TD*%
%TO.C,C20*%
X83500000Y-67000000D03*
X81950000Y-67000000D03*
%TD*%
%TO.C,C19*%
X90000000Y-67000000D03*
X88450000Y-67000000D03*
%TD*%
D15*
%TO.C,C18*%
X88450000Y-65000000D03*
X90000000Y-65000000D03*
%TD*%
%TO.C,C17*%
X93450000Y-67000000D03*
X95000000Y-67000000D03*
%TD*%
D14*
%TO.C,C16*%
X100050000Y-65000000D03*
X98500000Y-65000000D03*
%TD*%
%TO.C,C15*%
X83550000Y-65000000D03*
X82000000Y-65000000D03*
%TD*%
D15*
%TO.C,C14*%
X75950000Y-51000000D03*
X77500000Y-51000000D03*
%TD*%
D14*
%TO.C,C13*%
X77550000Y-49000000D03*
X76000000Y-49000000D03*
%TD*%
%TO.C,C12*%
X83775000Y-49000000D03*
X82225000Y-49000000D03*
%TD*%
D15*
%TO.C,C11*%
X98500000Y-51000000D03*
X100050000Y-51000000D03*
%TD*%
%TO.C,C10*%
X87500000Y-51000000D03*
X89050000Y-51000000D03*
%TD*%
%TO.C,C9*%
X87725000Y-49000000D03*
X89275000Y-49000000D03*
%TD*%
%TO.C,C8*%
X92950000Y-51000000D03*
X94500000Y-51000000D03*
%TD*%
%TO.C,C7*%
X93000000Y-49000000D03*
X94550000Y-49000000D03*
%TD*%
%TO.C,C6*%
X98000000Y-49000000D03*
X99550000Y-49000000D03*
%TD*%
D10*
%TO.C,D24*%
X77750000Y-63190000D03*
D13*
X76900000Y-63120000D03*
D12*
X77750000Y-62290000D03*
D10*
X77750000Y-61390000D03*
X76050000Y-61390000D03*
D12*
X76050000Y-62290000D03*
D11*
X76900000Y-61700000D03*
D10*
X76050000Y-63190000D03*
%TD*%
%TO.C,D23*%
X76050000Y-53000000D03*
D13*
X76900000Y-53070000D03*
D12*
X76050000Y-53900000D03*
D10*
X76050000Y-54800000D03*
X77750000Y-54800000D03*
D12*
X77750000Y-53900000D03*
D11*
X76900000Y-54490000D03*
D10*
X77750000Y-53000000D03*
%TD*%
%TO.C,D22*%
X82000000Y-53000000D03*
D13*
X82850000Y-53070000D03*
D12*
X82000000Y-53900000D03*
D10*
X82000000Y-54800000D03*
X83700000Y-54800000D03*
D12*
X83700000Y-53900000D03*
D11*
X82850000Y-54490000D03*
D10*
X83700000Y-53000000D03*
%TD*%
%TO.C,D21*%
X88000000Y-53100000D03*
D13*
X88850000Y-53170000D03*
D12*
X88000000Y-54000000D03*
D10*
X88000000Y-54900000D03*
X89700000Y-54900000D03*
D12*
X89700000Y-54000000D03*
D11*
X88850000Y-54590000D03*
D10*
X89700000Y-53100000D03*
%TD*%
%TO.C,D16*%
X93150000Y-53030000D03*
D13*
X94000000Y-53100000D03*
D12*
X93150000Y-53930000D03*
D10*
X93150000Y-54830000D03*
X94850000Y-54830000D03*
D12*
X94850000Y-53930000D03*
D11*
X94000000Y-54520000D03*
D10*
X94850000Y-53030000D03*
%TD*%
%TO.C,D15*%
X94800000Y-46600000D03*
D13*
X93950000Y-46530000D03*
D12*
X94800000Y-45700000D03*
D10*
X94800000Y-44800000D03*
X93100000Y-44800000D03*
D12*
X93100000Y-45700000D03*
D11*
X93950000Y-45110000D03*
D10*
X93100000Y-46600000D03*
%TD*%
%TO.C,D14*%
X83600000Y-46570000D03*
D13*
X82750000Y-46500000D03*
D12*
X83600000Y-45670000D03*
D10*
X83600000Y-44770000D03*
X81900000Y-44770000D03*
D12*
X81900000Y-45670000D03*
D11*
X82750000Y-45080000D03*
D10*
X81900000Y-46570000D03*
%TD*%
%TO.C,D13*%
X77700000Y-46600000D03*
D13*
X76850000Y-46530000D03*
D12*
X77700000Y-45700000D03*
D10*
X77700000Y-44800000D03*
X76000000Y-44800000D03*
D12*
X76000000Y-45700000D03*
D11*
X76850000Y-45110000D03*
D10*
X76000000Y-46600000D03*
%TD*%
%TO.C,D7*%
X100150000Y-62990000D03*
D13*
X99300000Y-62920000D03*
D12*
X100150000Y-62090000D03*
D10*
X100150000Y-61190000D03*
X98450000Y-61190000D03*
D12*
X98450000Y-62090000D03*
D11*
X99300000Y-61500000D03*
D10*
X98450000Y-62990000D03*
%TD*%
%TO.C,D6*%
X95050000Y-62990000D03*
D13*
X94200000Y-62920000D03*
D12*
X95050000Y-62090000D03*
D10*
X95050000Y-61190000D03*
X93350000Y-61190000D03*
D12*
X93350000Y-62090000D03*
D11*
X94200000Y-61500000D03*
D10*
X93350000Y-62990000D03*
%TD*%
%TO.C,D4*%
X98650000Y-68700000D03*
D13*
X99500000Y-68770000D03*
D12*
X98650000Y-69600000D03*
D10*
X98650000Y-70500000D03*
X100350000Y-70500000D03*
D12*
X100350000Y-69600000D03*
D11*
X99500000Y-70190000D03*
D10*
X100350000Y-68700000D03*
%TD*%
%TO.C,D3*%
X98350000Y-52930000D03*
D13*
X99200000Y-53000000D03*
D12*
X98350000Y-53830000D03*
D10*
X98350000Y-54730000D03*
X100050000Y-54730000D03*
D12*
X100050000Y-53830000D03*
D11*
X99200000Y-54420000D03*
D10*
X100050000Y-52930000D03*
%TD*%
%TO.C,D2*%
X99650000Y-46600000D03*
D13*
X98800000Y-46530000D03*
D12*
X99650000Y-45700000D03*
D10*
X99650000Y-44800000D03*
X97950000Y-44800000D03*
D12*
X97950000Y-45700000D03*
D11*
X98800000Y-45110000D03*
D10*
X97950000Y-46600000D03*
%TD*%
%TO.C,D1*%
X89450000Y-46600000D03*
D13*
X88600000Y-46530000D03*
D12*
X89450000Y-45700000D03*
D10*
X89450000Y-44800000D03*
X87750000Y-44800000D03*
D12*
X87750000Y-45700000D03*
D11*
X88600000Y-45110000D03*
D10*
X87750000Y-46600000D03*
%TD*%
M02*
