%TF.GenerationSoftware,KiCad,Pcbnew,9.0.1*%
%TF.CreationDate,2025-09-27T01:00:53-04:00*%
%TF.ProjectId,GRID,47524944-2e6b-4696-9361-645f70636258,rev?*%
%TF.SameCoordinates,Original*%
%TF.FileFunction,Drillmap*%
%TF.FilePolarity,Positive*%
%FSLAX45Y45*%
G04 Gerber Fmt 4.5, Leading zero omitted, Abs format (unit mm)*
G04 Created by KiCad (PCBNEW 9.0.1) date 2025-09-27 01:00:53*
%MOMM*%
%LPD*%
G01*
G04 APERTURE LIST*
%ADD10C,0.050000*%
%ADD11C,0.200000*%
%ADD12C,0.100000*%
G04 APERTURE END LIST*
D10*
X5500000Y-4000000D02*
X5500000Y-7500000D01*
X11000000Y-7500000D02*
X5500000Y-7500000D01*
X11000000Y-4000000D02*
X11000000Y-7500000D01*
X5500000Y-4000000D02*
X11000000Y-4000000D01*
D11*
D12*
X6965147Y-5315147D02*
X7015147Y-5365147D01*
X7015147Y-5315147D02*
X6965147Y-5365147D01*
X7225000Y-7175000D02*
X7275000Y-7225000D01*
X7275000Y-7175000D02*
X7225000Y-7225000D01*
X7925000Y-4725000D02*
X7975000Y-4775000D01*
X7975000Y-4725000D02*
X7925000Y-4775000D01*
X7925000Y-6425000D02*
X7975000Y-6475000D01*
X7975000Y-6425000D02*
X7925000Y-6475000D01*
X7925000Y-6815000D02*
X7975000Y-6865000D01*
X7975000Y-6815000D02*
X7925000Y-6865000D01*
X7975000Y-5125000D02*
X8025000Y-5175000D01*
X8025000Y-5125000D02*
X7975000Y-5175000D01*
X8525000Y-4825000D02*
X8575000Y-4875000D01*
X8575000Y-4825000D02*
X8525000Y-4875000D01*
X8525000Y-6425000D02*
X8575000Y-6475000D01*
X8575000Y-6425000D02*
X8525000Y-6475000D01*
X8578666Y-6782331D02*
X8628666Y-6832331D01*
X8628666Y-6782331D02*
X8578666Y-6832331D01*
X9075000Y-4775000D02*
X9125000Y-4825000D01*
X9125000Y-4775000D02*
X9075000Y-4825000D01*
X9075000Y-5075000D02*
X9125000Y-5125000D01*
X9125000Y-5075000D02*
X9075000Y-5125000D01*
X9125000Y-5625000D02*
X9175000Y-5675000D01*
X9175000Y-5625000D02*
X9125000Y-5675000D01*
X9125000Y-6325000D02*
X9175000Y-6375000D01*
X9175000Y-6325000D02*
X9125000Y-6375000D01*
X9125000Y-7145000D02*
X9175000Y-7195000D01*
X9175000Y-7145000D02*
X9125000Y-7195000D01*
X9175000Y-6775000D02*
X9225000Y-6825000D01*
X9225000Y-6775000D02*
X9175000Y-6825000D01*
X9575000Y-4775000D02*
X9625000Y-4825000D01*
X9625000Y-4775000D02*
X9575000Y-4825000D01*
X9625000Y-5075000D02*
X9675000Y-5125000D01*
X9675000Y-5075000D02*
X9625000Y-5125000D01*
X9625000Y-6425000D02*
X9675000Y-6475000D01*
X9675000Y-6425000D02*
X9625000Y-6475000D01*
X9675000Y-5825000D02*
X9725000Y-5875000D01*
X9725000Y-5825000D02*
X9675000Y-5875000D01*
X9675000Y-6816000D02*
X9725000Y-6866000D01*
X9725000Y-6816000D02*
X9675000Y-6866000D01*
X10125000Y-4375000D02*
X10175000Y-4425000D01*
X10175000Y-4375000D02*
X10125000Y-4425000D01*
X10175000Y-4675000D02*
X10225000Y-4725000D01*
X10225000Y-4675000D02*
X10175000Y-4725000D01*
X10175000Y-6094000D02*
X10225000Y-6144000D01*
X10225000Y-6094000D02*
X10175000Y-6144000D01*
X10175000Y-6275000D02*
X10225000Y-6325000D01*
X10225000Y-6275000D02*
X10175000Y-6325000D01*
X10175000Y-6795000D02*
X10225000Y-6845000D01*
X10225000Y-6795000D02*
X10175000Y-6845000D01*
X10225000Y-5388000D02*
X10275000Y-5438000D01*
X10275000Y-5388000D02*
X10225000Y-5438000D01*
X10225000Y-5575000D02*
X10275000Y-5625000D01*
X10275000Y-5575000D02*
X10225000Y-5625000D01*
X10275000Y-4925000D02*
X10325000Y-4975000D01*
X10325000Y-4925000D02*
X10275000Y-4975000D01*
X10275000Y-7025000D02*
X10325000Y-7075000D01*
X10325000Y-7025000D02*
X10275000Y-7075000D01*
X10305000Y-5925000D02*
X10355000Y-5975000D01*
X10355000Y-5925000D02*
X10305000Y-5975000D01*
X6450000Y-4250000D02*
G75*
G02*
X6350000Y-4250000I-50000J0D01*
G01*
X6350000Y-4250000D02*
G75*
G02*
X6450000Y-4250000I50000J0D01*
G01*
X7000000Y-5900000D02*
G75*
G02*
X6900000Y-5900000I-50000J0D01*
G01*
X6900000Y-5900000D02*
G75*
G02*
X7000000Y-5900000I50000J0D01*
G01*
X7100000Y-4750000D02*
G75*
G02*
X7000000Y-4750000I-50000J0D01*
G01*
X7000000Y-4750000D02*
G75*
G02*
X7100000Y-4750000I50000J0D01*
G01*
X7100000Y-5100000D02*
G75*
G02*
X7000000Y-5100000I-50000J0D01*
G01*
X7000000Y-5100000D02*
G75*
G02*
X7100000Y-5100000I50000J0D01*
G01*
X6150000Y-4606000D02*
X6150000Y-4706000D01*
X6100000Y-4656000D02*
X6200000Y-4656000D01*
X6150000Y-4860000D02*
X6150000Y-4960000D01*
X6100000Y-4910000D02*
X6200000Y-4910000D01*
X6150000Y-5114000D02*
X6150000Y-5214000D01*
X6100000Y-5164000D02*
X6200000Y-5164000D01*
X6150000Y-5368000D02*
X6150000Y-5468000D01*
X6100000Y-5418000D02*
X6200000Y-5418000D01*
X6692500Y-4588000D02*
X6692500Y-4688000D01*
X6642500Y-4638000D02*
X6742500Y-4638000D01*
X6692500Y-4842000D02*
X6692500Y-4942000D01*
X6642500Y-4892000D02*
X6742500Y-4892000D01*
X6692500Y-5096000D02*
X6692500Y-5196000D01*
X6642500Y-5146000D02*
X6742500Y-5146000D01*
X6692500Y-5350000D02*
X6692500Y-5450000D01*
X6642500Y-5400000D02*
X6742500Y-5400000D01*
D11*
X5758277Y-7813984D02*
X5758277Y-7613984D01*
X5758277Y-7613984D02*
X5805896Y-7613984D01*
X5805896Y-7613984D02*
X5834467Y-7623508D01*
X5834467Y-7623508D02*
X5853515Y-7642555D01*
X5853515Y-7642555D02*
X5863039Y-7661603D01*
X5863039Y-7661603D02*
X5872562Y-7699698D01*
X5872562Y-7699698D02*
X5872562Y-7728269D01*
X5872562Y-7728269D02*
X5863039Y-7766365D01*
X5863039Y-7766365D02*
X5853515Y-7785412D01*
X5853515Y-7785412D02*
X5834467Y-7804460D01*
X5834467Y-7804460D02*
X5805896Y-7813984D01*
X5805896Y-7813984D02*
X5758277Y-7813984D01*
X5958277Y-7813984D02*
X5958277Y-7680650D01*
X5958277Y-7718746D02*
X5967801Y-7699698D01*
X5967801Y-7699698D02*
X5977324Y-7690174D01*
X5977324Y-7690174D02*
X5996372Y-7680650D01*
X5996372Y-7680650D02*
X6015420Y-7680650D01*
X6082086Y-7813984D02*
X6082086Y-7680650D01*
X6082086Y-7613984D02*
X6072562Y-7623508D01*
X6072562Y-7623508D02*
X6082086Y-7633031D01*
X6082086Y-7633031D02*
X6091610Y-7623508D01*
X6091610Y-7623508D02*
X6082086Y-7613984D01*
X6082086Y-7613984D02*
X6082086Y-7633031D01*
X6205896Y-7813984D02*
X6186848Y-7804460D01*
X6186848Y-7804460D02*
X6177324Y-7785412D01*
X6177324Y-7785412D02*
X6177324Y-7613984D01*
X6310658Y-7813984D02*
X6291610Y-7804460D01*
X6291610Y-7804460D02*
X6282086Y-7785412D01*
X6282086Y-7785412D02*
X6282086Y-7613984D01*
X6539229Y-7813984D02*
X6539229Y-7613984D01*
X6539229Y-7613984D02*
X6605896Y-7756841D01*
X6605896Y-7756841D02*
X6672562Y-7613984D01*
X6672562Y-7613984D02*
X6672562Y-7813984D01*
X6853515Y-7813984D02*
X6853515Y-7709222D01*
X6853515Y-7709222D02*
X6843991Y-7690174D01*
X6843991Y-7690174D02*
X6824943Y-7680650D01*
X6824943Y-7680650D02*
X6786848Y-7680650D01*
X6786848Y-7680650D02*
X6767801Y-7690174D01*
X6853515Y-7804460D02*
X6834467Y-7813984D01*
X6834467Y-7813984D02*
X6786848Y-7813984D01*
X6786848Y-7813984D02*
X6767801Y-7804460D01*
X6767801Y-7804460D02*
X6758277Y-7785412D01*
X6758277Y-7785412D02*
X6758277Y-7766365D01*
X6758277Y-7766365D02*
X6767801Y-7747317D01*
X6767801Y-7747317D02*
X6786848Y-7737793D01*
X6786848Y-7737793D02*
X6834467Y-7737793D01*
X6834467Y-7737793D02*
X6853515Y-7728269D01*
X6948753Y-7680650D02*
X6948753Y-7880650D01*
X6948753Y-7690174D02*
X6967801Y-7680650D01*
X6967801Y-7680650D02*
X7005896Y-7680650D01*
X7005896Y-7680650D02*
X7024943Y-7690174D01*
X7024943Y-7690174D02*
X7034467Y-7699698D01*
X7034467Y-7699698D02*
X7043991Y-7718746D01*
X7043991Y-7718746D02*
X7043991Y-7775888D01*
X7043991Y-7775888D02*
X7034467Y-7794936D01*
X7034467Y-7794936D02*
X7024943Y-7804460D01*
X7024943Y-7804460D02*
X7005896Y-7813984D01*
X7005896Y-7813984D02*
X6967801Y-7813984D01*
X6967801Y-7813984D02*
X6948753Y-7804460D01*
X7129705Y-7794936D02*
X7139229Y-7804460D01*
X7139229Y-7804460D02*
X7129705Y-7813984D01*
X7129705Y-7813984D02*
X7120182Y-7804460D01*
X7120182Y-7804460D02*
X7129705Y-7794936D01*
X7129705Y-7794936D02*
X7129705Y-7813984D01*
X7129705Y-7690174D02*
X7139229Y-7699698D01*
X7139229Y-7699698D02*
X7129705Y-7709222D01*
X7129705Y-7709222D02*
X7120182Y-7699698D01*
X7120182Y-7699698D02*
X7129705Y-7690174D01*
X7129705Y-7690174D02*
X7129705Y-7709222D01*
D12*
X5447500Y-8117500D02*
X5497500Y-8167500D01*
X5497500Y-8117500D02*
X5447500Y-8167500D01*
D11*
X5796372Y-8033984D02*
X5815420Y-8033984D01*
X5815420Y-8033984D02*
X5834467Y-8043508D01*
X5834467Y-8043508D02*
X5843991Y-8053031D01*
X5843991Y-8053031D02*
X5853515Y-8072079D01*
X5853515Y-8072079D02*
X5863039Y-8110174D01*
X5863039Y-8110174D02*
X5863039Y-8157793D01*
X5863039Y-8157793D02*
X5853515Y-8195888D01*
X5853515Y-8195888D02*
X5843991Y-8214936D01*
X5843991Y-8214936D02*
X5834467Y-8224460D01*
X5834467Y-8224460D02*
X5815420Y-8233984D01*
X5815420Y-8233984D02*
X5796372Y-8233984D01*
X5796372Y-8233984D02*
X5777324Y-8224460D01*
X5777324Y-8224460D02*
X5767801Y-8214936D01*
X5767801Y-8214936D02*
X5758277Y-8195888D01*
X5758277Y-8195888D02*
X5748753Y-8157793D01*
X5748753Y-8157793D02*
X5748753Y-8110174D01*
X5748753Y-8110174D02*
X5758277Y-8072079D01*
X5758277Y-8072079D02*
X5767801Y-8053031D01*
X5767801Y-8053031D02*
X5777324Y-8043508D01*
X5777324Y-8043508D02*
X5796372Y-8033984D01*
X5948753Y-8214936D02*
X5958277Y-8224460D01*
X5958277Y-8224460D02*
X5948753Y-8233984D01*
X5948753Y-8233984D02*
X5939229Y-8224460D01*
X5939229Y-8224460D02*
X5948753Y-8214936D01*
X5948753Y-8214936D02*
X5948753Y-8233984D01*
X6139229Y-8033984D02*
X6043991Y-8033984D01*
X6043991Y-8033984D02*
X6034467Y-8129222D01*
X6034467Y-8129222D02*
X6043991Y-8119698D01*
X6043991Y-8119698D02*
X6063039Y-8110174D01*
X6063039Y-8110174D02*
X6110658Y-8110174D01*
X6110658Y-8110174D02*
X6129705Y-8119698D01*
X6129705Y-8119698D02*
X6139229Y-8129222D01*
X6139229Y-8129222D02*
X6148753Y-8148269D01*
X6148753Y-8148269D02*
X6148753Y-8195888D01*
X6148753Y-8195888D02*
X6139229Y-8214936D01*
X6139229Y-8214936D02*
X6129705Y-8224460D01*
X6129705Y-8224460D02*
X6110658Y-8233984D01*
X6110658Y-8233984D02*
X6063039Y-8233984D01*
X6063039Y-8233984D02*
X6043991Y-8224460D01*
X6043991Y-8224460D02*
X6034467Y-8214936D01*
X6272562Y-8033984D02*
X6291610Y-8033984D01*
X6291610Y-8033984D02*
X6310658Y-8043508D01*
X6310658Y-8043508D02*
X6320182Y-8053031D01*
X6320182Y-8053031D02*
X6329705Y-8072079D01*
X6329705Y-8072079D02*
X6339229Y-8110174D01*
X6339229Y-8110174D02*
X6339229Y-8157793D01*
X6339229Y-8157793D02*
X6329705Y-8195888D01*
X6329705Y-8195888D02*
X6320182Y-8214936D01*
X6320182Y-8214936D02*
X6310658Y-8224460D01*
X6310658Y-8224460D02*
X6291610Y-8233984D01*
X6291610Y-8233984D02*
X6272562Y-8233984D01*
X6272562Y-8233984D02*
X6253515Y-8224460D01*
X6253515Y-8224460D02*
X6243991Y-8214936D01*
X6243991Y-8214936D02*
X6234467Y-8195888D01*
X6234467Y-8195888D02*
X6224943Y-8157793D01*
X6224943Y-8157793D02*
X6224943Y-8110174D01*
X6224943Y-8110174D02*
X6234467Y-8072079D01*
X6234467Y-8072079D02*
X6243991Y-8053031D01*
X6243991Y-8053031D02*
X6253515Y-8043508D01*
X6253515Y-8043508D02*
X6272562Y-8033984D01*
X6463039Y-8033984D02*
X6482086Y-8033984D01*
X6482086Y-8033984D02*
X6501134Y-8043508D01*
X6501134Y-8043508D02*
X6510658Y-8053031D01*
X6510658Y-8053031D02*
X6520182Y-8072079D01*
X6520182Y-8072079D02*
X6529705Y-8110174D01*
X6529705Y-8110174D02*
X6529705Y-8157793D01*
X6529705Y-8157793D02*
X6520182Y-8195888D01*
X6520182Y-8195888D02*
X6510658Y-8214936D01*
X6510658Y-8214936D02*
X6501134Y-8224460D01*
X6501134Y-8224460D02*
X6482086Y-8233984D01*
X6482086Y-8233984D02*
X6463039Y-8233984D01*
X6463039Y-8233984D02*
X6443991Y-8224460D01*
X6443991Y-8224460D02*
X6434467Y-8214936D01*
X6434467Y-8214936D02*
X6424943Y-8195888D01*
X6424943Y-8195888D02*
X6415420Y-8157793D01*
X6415420Y-8157793D02*
X6415420Y-8110174D01*
X6415420Y-8110174D02*
X6424943Y-8072079D01*
X6424943Y-8072079D02*
X6434467Y-8053031D01*
X6434467Y-8053031D02*
X6443991Y-8043508D01*
X6443991Y-8043508D02*
X6463039Y-8033984D01*
X6615420Y-8233984D02*
X6615420Y-8100650D01*
X6615420Y-8119698D02*
X6624943Y-8110174D01*
X6624943Y-8110174D02*
X6643991Y-8100650D01*
X6643991Y-8100650D02*
X6672563Y-8100650D01*
X6672563Y-8100650D02*
X6691610Y-8110174D01*
X6691610Y-8110174D02*
X6701134Y-8129222D01*
X6701134Y-8129222D02*
X6701134Y-8233984D01*
X6701134Y-8129222D02*
X6710658Y-8110174D01*
X6710658Y-8110174D02*
X6729705Y-8100650D01*
X6729705Y-8100650D02*
X6758277Y-8100650D01*
X6758277Y-8100650D02*
X6777324Y-8110174D01*
X6777324Y-8110174D02*
X6786848Y-8129222D01*
X6786848Y-8129222D02*
X6786848Y-8233984D01*
X6882086Y-8233984D02*
X6882086Y-8100650D01*
X6882086Y-8119698D02*
X6891610Y-8110174D01*
X6891610Y-8110174D02*
X6910658Y-8100650D01*
X6910658Y-8100650D02*
X6939229Y-8100650D01*
X6939229Y-8100650D02*
X6958277Y-8110174D01*
X6958277Y-8110174D02*
X6967801Y-8129222D01*
X6967801Y-8129222D02*
X6967801Y-8233984D01*
X6967801Y-8129222D02*
X6977324Y-8110174D01*
X6977324Y-8110174D02*
X6996372Y-8100650D01*
X6996372Y-8100650D02*
X7024943Y-8100650D01*
X7024943Y-8100650D02*
X7043991Y-8110174D01*
X7043991Y-8110174D02*
X7053515Y-8129222D01*
X7053515Y-8129222D02*
X7053515Y-8233984D01*
X7443991Y-8024460D02*
X7272563Y-8281603D01*
X7701134Y-8033984D02*
X7720182Y-8033984D01*
X7720182Y-8033984D02*
X7739229Y-8043508D01*
X7739229Y-8043508D02*
X7748753Y-8053031D01*
X7748753Y-8053031D02*
X7758277Y-8072079D01*
X7758277Y-8072079D02*
X7767801Y-8110174D01*
X7767801Y-8110174D02*
X7767801Y-8157793D01*
X7767801Y-8157793D02*
X7758277Y-8195888D01*
X7758277Y-8195888D02*
X7748753Y-8214936D01*
X7748753Y-8214936D02*
X7739229Y-8224460D01*
X7739229Y-8224460D02*
X7720182Y-8233984D01*
X7720182Y-8233984D02*
X7701134Y-8233984D01*
X7701134Y-8233984D02*
X7682086Y-8224460D01*
X7682086Y-8224460D02*
X7672563Y-8214936D01*
X7672563Y-8214936D02*
X7663039Y-8195888D01*
X7663039Y-8195888D02*
X7653515Y-8157793D01*
X7653515Y-8157793D02*
X7653515Y-8110174D01*
X7653515Y-8110174D02*
X7663039Y-8072079D01*
X7663039Y-8072079D02*
X7672563Y-8053031D01*
X7672563Y-8053031D02*
X7682086Y-8043508D01*
X7682086Y-8043508D02*
X7701134Y-8033984D01*
X7853515Y-8214936D02*
X7863039Y-8224460D01*
X7863039Y-8224460D02*
X7853515Y-8233984D01*
X7853515Y-8233984D02*
X7843991Y-8224460D01*
X7843991Y-8224460D02*
X7853515Y-8214936D01*
X7853515Y-8214936D02*
X7853515Y-8233984D01*
X7986848Y-8033984D02*
X8005896Y-8033984D01*
X8005896Y-8033984D02*
X8024944Y-8043508D01*
X8024944Y-8043508D02*
X8034467Y-8053031D01*
X8034467Y-8053031D02*
X8043991Y-8072079D01*
X8043991Y-8072079D02*
X8053515Y-8110174D01*
X8053515Y-8110174D02*
X8053515Y-8157793D01*
X8053515Y-8157793D02*
X8043991Y-8195888D01*
X8043991Y-8195888D02*
X8034467Y-8214936D01*
X8034467Y-8214936D02*
X8024944Y-8224460D01*
X8024944Y-8224460D02*
X8005896Y-8233984D01*
X8005896Y-8233984D02*
X7986848Y-8233984D01*
X7986848Y-8233984D02*
X7967801Y-8224460D01*
X7967801Y-8224460D02*
X7958277Y-8214936D01*
X7958277Y-8214936D02*
X7948753Y-8195888D01*
X7948753Y-8195888D02*
X7939229Y-8157793D01*
X7939229Y-8157793D02*
X7939229Y-8110174D01*
X7939229Y-8110174D02*
X7948753Y-8072079D01*
X7948753Y-8072079D02*
X7958277Y-8053031D01*
X7958277Y-8053031D02*
X7967801Y-8043508D01*
X7967801Y-8043508D02*
X7986848Y-8033984D01*
X8243991Y-8233984D02*
X8129706Y-8233984D01*
X8186848Y-8233984D02*
X8186848Y-8033984D01*
X8186848Y-8033984D02*
X8167801Y-8062555D01*
X8167801Y-8062555D02*
X8148753Y-8081603D01*
X8148753Y-8081603D02*
X8129706Y-8091127D01*
X8339229Y-8233984D02*
X8377325Y-8233984D01*
X8377325Y-8233984D02*
X8396372Y-8224460D01*
X8396372Y-8224460D02*
X8405896Y-8214936D01*
X8405896Y-8214936D02*
X8424944Y-8186365D01*
X8424944Y-8186365D02*
X8434468Y-8148269D01*
X8434468Y-8148269D02*
X8434468Y-8072079D01*
X8434468Y-8072079D02*
X8424944Y-8053031D01*
X8424944Y-8053031D02*
X8415420Y-8043508D01*
X8415420Y-8043508D02*
X8396372Y-8033984D01*
X8396372Y-8033984D02*
X8358277Y-8033984D01*
X8358277Y-8033984D02*
X8339229Y-8043508D01*
X8339229Y-8043508D02*
X8329706Y-8053031D01*
X8329706Y-8053031D02*
X8320182Y-8072079D01*
X8320182Y-8072079D02*
X8320182Y-8119698D01*
X8320182Y-8119698D02*
X8329706Y-8138746D01*
X8329706Y-8138746D02*
X8339229Y-8148269D01*
X8339229Y-8148269D02*
X8358277Y-8157793D01*
X8358277Y-8157793D02*
X8396372Y-8157793D01*
X8396372Y-8157793D02*
X8415420Y-8148269D01*
X8415420Y-8148269D02*
X8424944Y-8138746D01*
X8424944Y-8138746D02*
X8434468Y-8119698D01*
X8501134Y-8033984D02*
X8634468Y-8033984D01*
X8634468Y-8033984D02*
X8548753Y-8233984D01*
X8701134Y-8033984D02*
X8701134Y-8072079D01*
X8777325Y-8033984D02*
X8777325Y-8072079D01*
X9072563Y-8310174D02*
X9063039Y-8300650D01*
X9063039Y-8300650D02*
X9043991Y-8272079D01*
X9043991Y-8272079D02*
X9034468Y-8253031D01*
X9034468Y-8253031D02*
X9024944Y-8224460D01*
X9024944Y-8224460D02*
X9015420Y-8176841D01*
X9015420Y-8176841D02*
X9015420Y-8138746D01*
X9015420Y-8138746D02*
X9024944Y-8091127D01*
X9024944Y-8091127D02*
X9034468Y-8062555D01*
X9034468Y-8062555D02*
X9043991Y-8043508D01*
X9043991Y-8043508D02*
X9063039Y-8014936D01*
X9063039Y-8014936D02*
X9072563Y-8005412D01*
X9129706Y-8033984D02*
X9253515Y-8033984D01*
X9253515Y-8033984D02*
X9186849Y-8110174D01*
X9186849Y-8110174D02*
X9215420Y-8110174D01*
X9215420Y-8110174D02*
X9234468Y-8119698D01*
X9234468Y-8119698D02*
X9243991Y-8129222D01*
X9243991Y-8129222D02*
X9253515Y-8148269D01*
X9253515Y-8148269D02*
X9253515Y-8195888D01*
X9253515Y-8195888D02*
X9243991Y-8214936D01*
X9243991Y-8214936D02*
X9234468Y-8224460D01*
X9234468Y-8224460D02*
X9215420Y-8233984D01*
X9215420Y-8233984D02*
X9158277Y-8233984D01*
X9158277Y-8233984D02*
X9139230Y-8224460D01*
X9139230Y-8224460D02*
X9129706Y-8214936D01*
X9377325Y-8033984D02*
X9396372Y-8033984D01*
X9396372Y-8033984D02*
X9415420Y-8043508D01*
X9415420Y-8043508D02*
X9424944Y-8053031D01*
X9424944Y-8053031D02*
X9434468Y-8072079D01*
X9434468Y-8072079D02*
X9443991Y-8110174D01*
X9443991Y-8110174D02*
X9443991Y-8157793D01*
X9443991Y-8157793D02*
X9434468Y-8195888D01*
X9434468Y-8195888D02*
X9424944Y-8214936D01*
X9424944Y-8214936D02*
X9415420Y-8224460D01*
X9415420Y-8224460D02*
X9396372Y-8233984D01*
X9396372Y-8233984D02*
X9377325Y-8233984D01*
X9377325Y-8233984D02*
X9358277Y-8224460D01*
X9358277Y-8224460D02*
X9348753Y-8214936D01*
X9348753Y-8214936D02*
X9339230Y-8195888D01*
X9339230Y-8195888D02*
X9329706Y-8157793D01*
X9329706Y-8157793D02*
X9329706Y-8110174D01*
X9329706Y-8110174D02*
X9339230Y-8072079D01*
X9339230Y-8072079D02*
X9348753Y-8053031D01*
X9348753Y-8053031D02*
X9358277Y-8043508D01*
X9358277Y-8043508D02*
X9377325Y-8033984D01*
X9682087Y-8233984D02*
X9682087Y-8033984D01*
X9767801Y-8233984D02*
X9767801Y-8129222D01*
X9767801Y-8129222D02*
X9758277Y-8110174D01*
X9758277Y-8110174D02*
X9739230Y-8100650D01*
X9739230Y-8100650D02*
X9710658Y-8100650D01*
X9710658Y-8100650D02*
X9691611Y-8110174D01*
X9691611Y-8110174D02*
X9682087Y-8119698D01*
X9891611Y-8233984D02*
X9872563Y-8224460D01*
X9872563Y-8224460D02*
X9863039Y-8214936D01*
X9863039Y-8214936D02*
X9853515Y-8195888D01*
X9853515Y-8195888D02*
X9853515Y-8138746D01*
X9853515Y-8138746D02*
X9863039Y-8119698D01*
X9863039Y-8119698D02*
X9872563Y-8110174D01*
X9872563Y-8110174D02*
X9891611Y-8100650D01*
X9891611Y-8100650D02*
X9920182Y-8100650D01*
X9920182Y-8100650D02*
X9939230Y-8110174D01*
X9939230Y-8110174D02*
X9948753Y-8119698D01*
X9948753Y-8119698D02*
X9958277Y-8138746D01*
X9958277Y-8138746D02*
X9958277Y-8195888D01*
X9958277Y-8195888D02*
X9948753Y-8214936D01*
X9948753Y-8214936D02*
X9939230Y-8224460D01*
X9939230Y-8224460D02*
X9920182Y-8233984D01*
X9920182Y-8233984D02*
X9891611Y-8233984D01*
X10072563Y-8233984D02*
X10053515Y-8224460D01*
X10053515Y-8224460D02*
X10043992Y-8205412D01*
X10043992Y-8205412D02*
X10043992Y-8033984D01*
X10224944Y-8224460D02*
X10205896Y-8233984D01*
X10205896Y-8233984D02*
X10167801Y-8233984D01*
X10167801Y-8233984D02*
X10148753Y-8224460D01*
X10148753Y-8224460D02*
X10139230Y-8205412D01*
X10139230Y-8205412D02*
X10139230Y-8129222D01*
X10139230Y-8129222D02*
X10148753Y-8110174D01*
X10148753Y-8110174D02*
X10167801Y-8100650D01*
X10167801Y-8100650D02*
X10205896Y-8100650D01*
X10205896Y-8100650D02*
X10224944Y-8110174D01*
X10224944Y-8110174D02*
X10234468Y-8129222D01*
X10234468Y-8129222D02*
X10234468Y-8148269D01*
X10234468Y-8148269D02*
X10139230Y-8167317D01*
X10310658Y-8224460D02*
X10329706Y-8233984D01*
X10329706Y-8233984D02*
X10367801Y-8233984D01*
X10367801Y-8233984D02*
X10386849Y-8224460D01*
X10386849Y-8224460D02*
X10396373Y-8205412D01*
X10396373Y-8205412D02*
X10396373Y-8195888D01*
X10396373Y-8195888D02*
X10386849Y-8176841D01*
X10386849Y-8176841D02*
X10367801Y-8167317D01*
X10367801Y-8167317D02*
X10339230Y-8167317D01*
X10339230Y-8167317D02*
X10320182Y-8157793D01*
X10320182Y-8157793D02*
X10310658Y-8138746D01*
X10310658Y-8138746D02*
X10310658Y-8129222D01*
X10310658Y-8129222D02*
X10320182Y-8110174D01*
X10320182Y-8110174D02*
X10339230Y-8100650D01*
X10339230Y-8100650D02*
X10367801Y-8100650D01*
X10367801Y-8100650D02*
X10386849Y-8110174D01*
X10463039Y-8310174D02*
X10472563Y-8300650D01*
X10472563Y-8300650D02*
X10491611Y-8272079D01*
X10491611Y-8272079D02*
X10501134Y-8253031D01*
X10501134Y-8253031D02*
X10510658Y-8224460D01*
X10510658Y-8224460D02*
X10520182Y-8176841D01*
X10520182Y-8176841D02*
X10520182Y-8138746D01*
X10520182Y-8138746D02*
X10510658Y-8091127D01*
X10510658Y-8091127D02*
X10501134Y-8062555D01*
X10501134Y-8062555D02*
X10491611Y-8043508D01*
X10491611Y-8043508D02*
X10472563Y-8014936D01*
X10472563Y-8014936D02*
X10463039Y-8005412D01*
D12*
X5497500Y-8406500D02*
G75*
G02*
X5397500Y-8406500I-50000J0D01*
G01*
X5397500Y-8406500D02*
G75*
G02*
X5497500Y-8406500I50000J0D01*
G01*
D11*
X5863039Y-8497984D02*
X5748753Y-8497984D01*
X5805896Y-8497984D02*
X5805896Y-8297984D01*
X5805896Y-8297984D02*
X5786848Y-8326555D01*
X5786848Y-8326555D02*
X5767801Y-8345603D01*
X5767801Y-8345603D02*
X5748753Y-8355127D01*
X5948753Y-8478936D02*
X5958277Y-8488460D01*
X5958277Y-8488460D02*
X5948753Y-8497984D01*
X5948753Y-8497984D02*
X5939229Y-8488460D01*
X5939229Y-8488460D02*
X5948753Y-8478936D01*
X5948753Y-8478936D02*
X5948753Y-8497984D01*
X6082086Y-8297984D02*
X6101134Y-8297984D01*
X6101134Y-8297984D02*
X6120182Y-8307508D01*
X6120182Y-8307508D02*
X6129705Y-8317031D01*
X6129705Y-8317031D02*
X6139229Y-8336079D01*
X6139229Y-8336079D02*
X6148753Y-8374174D01*
X6148753Y-8374174D02*
X6148753Y-8421793D01*
X6148753Y-8421793D02*
X6139229Y-8459889D01*
X6139229Y-8459889D02*
X6129705Y-8478936D01*
X6129705Y-8478936D02*
X6120182Y-8488460D01*
X6120182Y-8488460D02*
X6101134Y-8497984D01*
X6101134Y-8497984D02*
X6082086Y-8497984D01*
X6082086Y-8497984D02*
X6063039Y-8488460D01*
X6063039Y-8488460D02*
X6053515Y-8478936D01*
X6053515Y-8478936D02*
X6043991Y-8459889D01*
X6043991Y-8459889D02*
X6034467Y-8421793D01*
X6034467Y-8421793D02*
X6034467Y-8374174D01*
X6034467Y-8374174D02*
X6043991Y-8336079D01*
X6043991Y-8336079D02*
X6053515Y-8317031D01*
X6053515Y-8317031D02*
X6063039Y-8307508D01*
X6063039Y-8307508D02*
X6082086Y-8297984D01*
X6272562Y-8297984D02*
X6291610Y-8297984D01*
X6291610Y-8297984D02*
X6310658Y-8307508D01*
X6310658Y-8307508D02*
X6320182Y-8317031D01*
X6320182Y-8317031D02*
X6329705Y-8336079D01*
X6329705Y-8336079D02*
X6339229Y-8374174D01*
X6339229Y-8374174D02*
X6339229Y-8421793D01*
X6339229Y-8421793D02*
X6329705Y-8459889D01*
X6329705Y-8459889D02*
X6320182Y-8478936D01*
X6320182Y-8478936D02*
X6310658Y-8488460D01*
X6310658Y-8488460D02*
X6291610Y-8497984D01*
X6291610Y-8497984D02*
X6272562Y-8497984D01*
X6272562Y-8497984D02*
X6253515Y-8488460D01*
X6253515Y-8488460D02*
X6243991Y-8478936D01*
X6243991Y-8478936D02*
X6234467Y-8459889D01*
X6234467Y-8459889D02*
X6224943Y-8421793D01*
X6224943Y-8421793D02*
X6224943Y-8374174D01*
X6224943Y-8374174D02*
X6234467Y-8336079D01*
X6234467Y-8336079D02*
X6243991Y-8317031D01*
X6243991Y-8317031D02*
X6253515Y-8307508D01*
X6253515Y-8307508D02*
X6272562Y-8297984D01*
X6463039Y-8297984D02*
X6482086Y-8297984D01*
X6482086Y-8297984D02*
X6501134Y-8307508D01*
X6501134Y-8307508D02*
X6510658Y-8317031D01*
X6510658Y-8317031D02*
X6520182Y-8336079D01*
X6520182Y-8336079D02*
X6529705Y-8374174D01*
X6529705Y-8374174D02*
X6529705Y-8421793D01*
X6529705Y-8421793D02*
X6520182Y-8459889D01*
X6520182Y-8459889D02*
X6510658Y-8478936D01*
X6510658Y-8478936D02*
X6501134Y-8488460D01*
X6501134Y-8488460D02*
X6482086Y-8497984D01*
X6482086Y-8497984D02*
X6463039Y-8497984D01*
X6463039Y-8497984D02*
X6443991Y-8488460D01*
X6443991Y-8488460D02*
X6434467Y-8478936D01*
X6434467Y-8478936D02*
X6424943Y-8459889D01*
X6424943Y-8459889D02*
X6415420Y-8421793D01*
X6415420Y-8421793D02*
X6415420Y-8374174D01*
X6415420Y-8374174D02*
X6424943Y-8336079D01*
X6424943Y-8336079D02*
X6434467Y-8317031D01*
X6434467Y-8317031D02*
X6443991Y-8307508D01*
X6443991Y-8307508D02*
X6463039Y-8297984D01*
X6615420Y-8497984D02*
X6615420Y-8364650D01*
X6615420Y-8383698D02*
X6624943Y-8374174D01*
X6624943Y-8374174D02*
X6643991Y-8364650D01*
X6643991Y-8364650D02*
X6672563Y-8364650D01*
X6672563Y-8364650D02*
X6691610Y-8374174D01*
X6691610Y-8374174D02*
X6701134Y-8393222D01*
X6701134Y-8393222D02*
X6701134Y-8497984D01*
X6701134Y-8393222D02*
X6710658Y-8374174D01*
X6710658Y-8374174D02*
X6729705Y-8364650D01*
X6729705Y-8364650D02*
X6758277Y-8364650D01*
X6758277Y-8364650D02*
X6777324Y-8374174D01*
X6777324Y-8374174D02*
X6786848Y-8393222D01*
X6786848Y-8393222D02*
X6786848Y-8497984D01*
X6882086Y-8497984D02*
X6882086Y-8364650D01*
X6882086Y-8383698D02*
X6891610Y-8374174D01*
X6891610Y-8374174D02*
X6910658Y-8364650D01*
X6910658Y-8364650D02*
X6939229Y-8364650D01*
X6939229Y-8364650D02*
X6958277Y-8374174D01*
X6958277Y-8374174D02*
X6967801Y-8393222D01*
X6967801Y-8393222D02*
X6967801Y-8497984D01*
X6967801Y-8393222D02*
X6977324Y-8374174D01*
X6977324Y-8374174D02*
X6996372Y-8364650D01*
X6996372Y-8364650D02*
X7024943Y-8364650D01*
X7024943Y-8364650D02*
X7043991Y-8374174D01*
X7043991Y-8374174D02*
X7053515Y-8393222D01*
X7053515Y-8393222D02*
X7053515Y-8497984D01*
X7443991Y-8288460D02*
X7272563Y-8545603D01*
X7701134Y-8297984D02*
X7720182Y-8297984D01*
X7720182Y-8297984D02*
X7739229Y-8307508D01*
X7739229Y-8307508D02*
X7748753Y-8317031D01*
X7748753Y-8317031D02*
X7758277Y-8336079D01*
X7758277Y-8336079D02*
X7767801Y-8374174D01*
X7767801Y-8374174D02*
X7767801Y-8421793D01*
X7767801Y-8421793D02*
X7758277Y-8459889D01*
X7758277Y-8459889D02*
X7748753Y-8478936D01*
X7748753Y-8478936D02*
X7739229Y-8488460D01*
X7739229Y-8488460D02*
X7720182Y-8497984D01*
X7720182Y-8497984D02*
X7701134Y-8497984D01*
X7701134Y-8497984D02*
X7682086Y-8488460D01*
X7682086Y-8488460D02*
X7672563Y-8478936D01*
X7672563Y-8478936D02*
X7663039Y-8459889D01*
X7663039Y-8459889D02*
X7653515Y-8421793D01*
X7653515Y-8421793D02*
X7653515Y-8374174D01*
X7653515Y-8374174D02*
X7663039Y-8336079D01*
X7663039Y-8336079D02*
X7672563Y-8317031D01*
X7672563Y-8317031D02*
X7682086Y-8307508D01*
X7682086Y-8307508D02*
X7701134Y-8297984D01*
X7853515Y-8478936D02*
X7863039Y-8488460D01*
X7863039Y-8488460D02*
X7853515Y-8497984D01*
X7853515Y-8497984D02*
X7843991Y-8488460D01*
X7843991Y-8488460D02*
X7853515Y-8478936D01*
X7853515Y-8478936D02*
X7853515Y-8497984D01*
X7986848Y-8297984D02*
X8005896Y-8297984D01*
X8005896Y-8297984D02*
X8024944Y-8307508D01*
X8024944Y-8307508D02*
X8034467Y-8317031D01*
X8034467Y-8317031D02*
X8043991Y-8336079D01*
X8043991Y-8336079D02*
X8053515Y-8374174D01*
X8053515Y-8374174D02*
X8053515Y-8421793D01*
X8053515Y-8421793D02*
X8043991Y-8459889D01*
X8043991Y-8459889D02*
X8034467Y-8478936D01*
X8034467Y-8478936D02*
X8024944Y-8488460D01*
X8024944Y-8488460D02*
X8005896Y-8497984D01*
X8005896Y-8497984D02*
X7986848Y-8497984D01*
X7986848Y-8497984D02*
X7967801Y-8488460D01*
X7967801Y-8488460D02*
X7958277Y-8478936D01*
X7958277Y-8478936D02*
X7948753Y-8459889D01*
X7948753Y-8459889D02*
X7939229Y-8421793D01*
X7939229Y-8421793D02*
X7939229Y-8374174D01*
X7939229Y-8374174D02*
X7948753Y-8336079D01*
X7948753Y-8336079D02*
X7958277Y-8317031D01*
X7958277Y-8317031D02*
X7967801Y-8307508D01*
X7967801Y-8307508D02*
X7986848Y-8297984D01*
X8120182Y-8297984D02*
X8243991Y-8297984D01*
X8243991Y-8297984D02*
X8177325Y-8374174D01*
X8177325Y-8374174D02*
X8205896Y-8374174D01*
X8205896Y-8374174D02*
X8224944Y-8383698D01*
X8224944Y-8383698D02*
X8234467Y-8393222D01*
X8234467Y-8393222D02*
X8243991Y-8412270D01*
X8243991Y-8412270D02*
X8243991Y-8459889D01*
X8243991Y-8459889D02*
X8234467Y-8478936D01*
X8234467Y-8478936D02*
X8224944Y-8488460D01*
X8224944Y-8488460D02*
X8205896Y-8497984D01*
X8205896Y-8497984D02*
X8148753Y-8497984D01*
X8148753Y-8497984D02*
X8129706Y-8488460D01*
X8129706Y-8488460D02*
X8120182Y-8478936D01*
X8339229Y-8497984D02*
X8377325Y-8497984D01*
X8377325Y-8497984D02*
X8396372Y-8488460D01*
X8396372Y-8488460D02*
X8405896Y-8478936D01*
X8405896Y-8478936D02*
X8424944Y-8450365D01*
X8424944Y-8450365D02*
X8434468Y-8412270D01*
X8434468Y-8412270D02*
X8434468Y-8336079D01*
X8434468Y-8336079D02*
X8424944Y-8317031D01*
X8424944Y-8317031D02*
X8415420Y-8307508D01*
X8415420Y-8307508D02*
X8396372Y-8297984D01*
X8396372Y-8297984D02*
X8358277Y-8297984D01*
X8358277Y-8297984D02*
X8339229Y-8307508D01*
X8339229Y-8307508D02*
X8329706Y-8317031D01*
X8329706Y-8317031D02*
X8320182Y-8336079D01*
X8320182Y-8336079D02*
X8320182Y-8383698D01*
X8320182Y-8383698D02*
X8329706Y-8402746D01*
X8329706Y-8402746D02*
X8339229Y-8412270D01*
X8339229Y-8412270D02*
X8358277Y-8421793D01*
X8358277Y-8421793D02*
X8396372Y-8421793D01*
X8396372Y-8421793D02*
X8415420Y-8412270D01*
X8415420Y-8412270D02*
X8424944Y-8402746D01*
X8424944Y-8402746D02*
X8434468Y-8383698D01*
X8605896Y-8364650D02*
X8605896Y-8497984D01*
X8558277Y-8288460D02*
X8510658Y-8431317D01*
X8510658Y-8431317D02*
X8634468Y-8431317D01*
X8701134Y-8297984D02*
X8701134Y-8336079D01*
X8777325Y-8297984D02*
X8777325Y-8336079D01*
X9072563Y-8574174D02*
X9063039Y-8564650D01*
X9063039Y-8564650D02*
X9043991Y-8536079D01*
X9043991Y-8536079D02*
X9034468Y-8517031D01*
X9034468Y-8517031D02*
X9024944Y-8488460D01*
X9024944Y-8488460D02*
X9015420Y-8440841D01*
X9015420Y-8440841D02*
X9015420Y-8402746D01*
X9015420Y-8402746D02*
X9024944Y-8355127D01*
X9024944Y-8355127D02*
X9034468Y-8326555D01*
X9034468Y-8326555D02*
X9043991Y-8307508D01*
X9043991Y-8307508D02*
X9063039Y-8278936D01*
X9063039Y-8278936D02*
X9072563Y-8269412D01*
X9234468Y-8364650D02*
X9234468Y-8497984D01*
X9186849Y-8288460D02*
X9139230Y-8431317D01*
X9139230Y-8431317D02*
X9263039Y-8431317D01*
X9491611Y-8497984D02*
X9491611Y-8297984D01*
X9577325Y-8497984D02*
X9577325Y-8393222D01*
X9577325Y-8393222D02*
X9567801Y-8374174D01*
X9567801Y-8374174D02*
X9548753Y-8364650D01*
X9548753Y-8364650D02*
X9520182Y-8364650D01*
X9520182Y-8364650D02*
X9501134Y-8374174D01*
X9501134Y-8374174D02*
X9491611Y-8383698D01*
X9701134Y-8497984D02*
X9682087Y-8488460D01*
X9682087Y-8488460D02*
X9672563Y-8478936D01*
X9672563Y-8478936D02*
X9663039Y-8459889D01*
X9663039Y-8459889D02*
X9663039Y-8402746D01*
X9663039Y-8402746D02*
X9672563Y-8383698D01*
X9672563Y-8383698D02*
X9682087Y-8374174D01*
X9682087Y-8374174D02*
X9701134Y-8364650D01*
X9701134Y-8364650D02*
X9729706Y-8364650D01*
X9729706Y-8364650D02*
X9748753Y-8374174D01*
X9748753Y-8374174D02*
X9758277Y-8383698D01*
X9758277Y-8383698D02*
X9767801Y-8402746D01*
X9767801Y-8402746D02*
X9767801Y-8459889D01*
X9767801Y-8459889D02*
X9758277Y-8478936D01*
X9758277Y-8478936D02*
X9748753Y-8488460D01*
X9748753Y-8488460D02*
X9729706Y-8497984D01*
X9729706Y-8497984D02*
X9701134Y-8497984D01*
X9882087Y-8497984D02*
X9863039Y-8488460D01*
X9863039Y-8488460D02*
X9853515Y-8469412D01*
X9853515Y-8469412D02*
X9853515Y-8297984D01*
X10034468Y-8488460D02*
X10015420Y-8497984D01*
X10015420Y-8497984D02*
X9977325Y-8497984D01*
X9977325Y-8497984D02*
X9958277Y-8488460D01*
X9958277Y-8488460D02*
X9948753Y-8469412D01*
X9948753Y-8469412D02*
X9948753Y-8393222D01*
X9948753Y-8393222D02*
X9958277Y-8374174D01*
X9958277Y-8374174D02*
X9977325Y-8364650D01*
X9977325Y-8364650D02*
X10015420Y-8364650D01*
X10015420Y-8364650D02*
X10034468Y-8374174D01*
X10034468Y-8374174D02*
X10043992Y-8393222D01*
X10043992Y-8393222D02*
X10043992Y-8412270D01*
X10043992Y-8412270D02*
X9948753Y-8431317D01*
X10120182Y-8488460D02*
X10139230Y-8497984D01*
X10139230Y-8497984D02*
X10177325Y-8497984D01*
X10177325Y-8497984D02*
X10196373Y-8488460D01*
X10196373Y-8488460D02*
X10205896Y-8469412D01*
X10205896Y-8469412D02*
X10205896Y-8459889D01*
X10205896Y-8459889D02*
X10196373Y-8440841D01*
X10196373Y-8440841D02*
X10177325Y-8431317D01*
X10177325Y-8431317D02*
X10148753Y-8431317D01*
X10148753Y-8431317D02*
X10129706Y-8421793D01*
X10129706Y-8421793D02*
X10120182Y-8402746D01*
X10120182Y-8402746D02*
X10120182Y-8393222D01*
X10120182Y-8393222D02*
X10129706Y-8374174D01*
X10129706Y-8374174D02*
X10148753Y-8364650D01*
X10148753Y-8364650D02*
X10177325Y-8364650D01*
X10177325Y-8364650D02*
X10196373Y-8374174D01*
X10272563Y-8574174D02*
X10282087Y-8564650D01*
X10282087Y-8564650D02*
X10301134Y-8536079D01*
X10301134Y-8536079D02*
X10310658Y-8517031D01*
X10310658Y-8517031D02*
X10320182Y-8488460D01*
X10320182Y-8488460D02*
X10329706Y-8440841D01*
X10329706Y-8440841D02*
X10329706Y-8402746D01*
X10329706Y-8402746D02*
X10320182Y-8355127D01*
X10320182Y-8355127D02*
X10310658Y-8326555D01*
X10310658Y-8326555D02*
X10301134Y-8307508D01*
X10301134Y-8307508D02*
X10282087Y-8278936D01*
X10282087Y-8278936D02*
X10272563Y-8269412D01*
D12*
X5447500Y-8620500D02*
X5447500Y-8720500D01*
X5397500Y-8670500D02*
X5497500Y-8670500D01*
D11*
X5863039Y-8761984D02*
X5748753Y-8761984D01*
X5805896Y-8761984D02*
X5805896Y-8561984D01*
X5805896Y-8561984D02*
X5786848Y-8590555D01*
X5786848Y-8590555D02*
X5767801Y-8609603D01*
X5767801Y-8609603D02*
X5748753Y-8619127D01*
X5948753Y-8742936D02*
X5958277Y-8752460D01*
X5958277Y-8752460D02*
X5948753Y-8761984D01*
X5948753Y-8761984D02*
X5939229Y-8752460D01*
X5939229Y-8752460D02*
X5948753Y-8742936D01*
X5948753Y-8742936D02*
X5948753Y-8761984D01*
X6082086Y-8561984D02*
X6101134Y-8561984D01*
X6101134Y-8561984D02*
X6120182Y-8571508D01*
X6120182Y-8571508D02*
X6129705Y-8581031D01*
X6129705Y-8581031D02*
X6139229Y-8600079D01*
X6139229Y-8600079D02*
X6148753Y-8638174D01*
X6148753Y-8638174D02*
X6148753Y-8685793D01*
X6148753Y-8685793D02*
X6139229Y-8723889D01*
X6139229Y-8723889D02*
X6129705Y-8742936D01*
X6129705Y-8742936D02*
X6120182Y-8752460D01*
X6120182Y-8752460D02*
X6101134Y-8761984D01*
X6101134Y-8761984D02*
X6082086Y-8761984D01*
X6082086Y-8761984D02*
X6063039Y-8752460D01*
X6063039Y-8752460D02*
X6053515Y-8742936D01*
X6053515Y-8742936D02*
X6043991Y-8723889D01*
X6043991Y-8723889D02*
X6034467Y-8685793D01*
X6034467Y-8685793D02*
X6034467Y-8638174D01*
X6034467Y-8638174D02*
X6043991Y-8600079D01*
X6043991Y-8600079D02*
X6053515Y-8581031D01*
X6053515Y-8581031D02*
X6063039Y-8571508D01*
X6063039Y-8571508D02*
X6082086Y-8561984D01*
X6272562Y-8561984D02*
X6291610Y-8561984D01*
X6291610Y-8561984D02*
X6310658Y-8571508D01*
X6310658Y-8571508D02*
X6320182Y-8581031D01*
X6320182Y-8581031D02*
X6329705Y-8600079D01*
X6329705Y-8600079D02*
X6339229Y-8638174D01*
X6339229Y-8638174D02*
X6339229Y-8685793D01*
X6339229Y-8685793D02*
X6329705Y-8723889D01*
X6329705Y-8723889D02*
X6320182Y-8742936D01*
X6320182Y-8742936D02*
X6310658Y-8752460D01*
X6310658Y-8752460D02*
X6291610Y-8761984D01*
X6291610Y-8761984D02*
X6272562Y-8761984D01*
X6272562Y-8761984D02*
X6253515Y-8752460D01*
X6253515Y-8752460D02*
X6243991Y-8742936D01*
X6243991Y-8742936D02*
X6234467Y-8723889D01*
X6234467Y-8723889D02*
X6224943Y-8685793D01*
X6224943Y-8685793D02*
X6224943Y-8638174D01*
X6224943Y-8638174D02*
X6234467Y-8600079D01*
X6234467Y-8600079D02*
X6243991Y-8581031D01*
X6243991Y-8581031D02*
X6253515Y-8571508D01*
X6253515Y-8571508D02*
X6272562Y-8561984D01*
X6463039Y-8561984D02*
X6482086Y-8561984D01*
X6482086Y-8561984D02*
X6501134Y-8571508D01*
X6501134Y-8571508D02*
X6510658Y-8581031D01*
X6510658Y-8581031D02*
X6520182Y-8600079D01*
X6520182Y-8600079D02*
X6529705Y-8638174D01*
X6529705Y-8638174D02*
X6529705Y-8685793D01*
X6529705Y-8685793D02*
X6520182Y-8723889D01*
X6520182Y-8723889D02*
X6510658Y-8742936D01*
X6510658Y-8742936D02*
X6501134Y-8752460D01*
X6501134Y-8752460D02*
X6482086Y-8761984D01*
X6482086Y-8761984D02*
X6463039Y-8761984D01*
X6463039Y-8761984D02*
X6443991Y-8752460D01*
X6443991Y-8752460D02*
X6434467Y-8742936D01*
X6434467Y-8742936D02*
X6424943Y-8723889D01*
X6424943Y-8723889D02*
X6415420Y-8685793D01*
X6415420Y-8685793D02*
X6415420Y-8638174D01*
X6415420Y-8638174D02*
X6424943Y-8600079D01*
X6424943Y-8600079D02*
X6434467Y-8581031D01*
X6434467Y-8581031D02*
X6443991Y-8571508D01*
X6443991Y-8571508D02*
X6463039Y-8561984D01*
X6615420Y-8761984D02*
X6615420Y-8628650D01*
X6615420Y-8647698D02*
X6624943Y-8638174D01*
X6624943Y-8638174D02*
X6643991Y-8628650D01*
X6643991Y-8628650D02*
X6672563Y-8628650D01*
X6672563Y-8628650D02*
X6691610Y-8638174D01*
X6691610Y-8638174D02*
X6701134Y-8657222D01*
X6701134Y-8657222D02*
X6701134Y-8761984D01*
X6701134Y-8657222D02*
X6710658Y-8638174D01*
X6710658Y-8638174D02*
X6729705Y-8628650D01*
X6729705Y-8628650D02*
X6758277Y-8628650D01*
X6758277Y-8628650D02*
X6777324Y-8638174D01*
X6777324Y-8638174D02*
X6786848Y-8657222D01*
X6786848Y-8657222D02*
X6786848Y-8761984D01*
X6882086Y-8761984D02*
X6882086Y-8628650D01*
X6882086Y-8647698D02*
X6891610Y-8638174D01*
X6891610Y-8638174D02*
X6910658Y-8628650D01*
X6910658Y-8628650D02*
X6939229Y-8628650D01*
X6939229Y-8628650D02*
X6958277Y-8638174D01*
X6958277Y-8638174D02*
X6967801Y-8657222D01*
X6967801Y-8657222D02*
X6967801Y-8761984D01*
X6967801Y-8657222D02*
X6977324Y-8638174D01*
X6977324Y-8638174D02*
X6996372Y-8628650D01*
X6996372Y-8628650D02*
X7024943Y-8628650D01*
X7024943Y-8628650D02*
X7043991Y-8638174D01*
X7043991Y-8638174D02*
X7053515Y-8657222D01*
X7053515Y-8657222D02*
X7053515Y-8761984D01*
X7443991Y-8552460D02*
X7272563Y-8809603D01*
X7701134Y-8561984D02*
X7720182Y-8561984D01*
X7720182Y-8561984D02*
X7739229Y-8571508D01*
X7739229Y-8571508D02*
X7748753Y-8581031D01*
X7748753Y-8581031D02*
X7758277Y-8600079D01*
X7758277Y-8600079D02*
X7767801Y-8638174D01*
X7767801Y-8638174D02*
X7767801Y-8685793D01*
X7767801Y-8685793D02*
X7758277Y-8723889D01*
X7758277Y-8723889D02*
X7748753Y-8742936D01*
X7748753Y-8742936D02*
X7739229Y-8752460D01*
X7739229Y-8752460D02*
X7720182Y-8761984D01*
X7720182Y-8761984D02*
X7701134Y-8761984D01*
X7701134Y-8761984D02*
X7682086Y-8752460D01*
X7682086Y-8752460D02*
X7672563Y-8742936D01*
X7672563Y-8742936D02*
X7663039Y-8723889D01*
X7663039Y-8723889D02*
X7653515Y-8685793D01*
X7653515Y-8685793D02*
X7653515Y-8638174D01*
X7653515Y-8638174D02*
X7663039Y-8600079D01*
X7663039Y-8600079D02*
X7672563Y-8581031D01*
X7672563Y-8581031D02*
X7682086Y-8571508D01*
X7682086Y-8571508D02*
X7701134Y-8561984D01*
X7853515Y-8742936D02*
X7863039Y-8752460D01*
X7863039Y-8752460D02*
X7853515Y-8761984D01*
X7853515Y-8761984D02*
X7843991Y-8752460D01*
X7843991Y-8752460D02*
X7853515Y-8742936D01*
X7853515Y-8742936D02*
X7853515Y-8761984D01*
X7986848Y-8561984D02*
X8005896Y-8561984D01*
X8005896Y-8561984D02*
X8024944Y-8571508D01*
X8024944Y-8571508D02*
X8034467Y-8581031D01*
X8034467Y-8581031D02*
X8043991Y-8600079D01*
X8043991Y-8600079D02*
X8053515Y-8638174D01*
X8053515Y-8638174D02*
X8053515Y-8685793D01*
X8053515Y-8685793D02*
X8043991Y-8723889D01*
X8043991Y-8723889D02*
X8034467Y-8742936D01*
X8034467Y-8742936D02*
X8024944Y-8752460D01*
X8024944Y-8752460D02*
X8005896Y-8761984D01*
X8005896Y-8761984D02*
X7986848Y-8761984D01*
X7986848Y-8761984D02*
X7967801Y-8752460D01*
X7967801Y-8752460D02*
X7958277Y-8742936D01*
X7958277Y-8742936D02*
X7948753Y-8723889D01*
X7948753Y-8723889D02*
X7939229Y-8685793D01*
X7939229Y-8685793D02*
X7939229Y-8638174D01*
X7939229Y-8638174D02*
X7948753Y-8600079D01*
X7948753Y-8600079D02*
X7958277Y-8581031D01*
X7958277Y-8581031D02*
X7967801Y-8571508D01*
X7967801Y-8571508D02*
X7986848Y-8561984D01*
X8120182Y-8561984D02*
X8243991Y-8561984D01*
X8243991Y-8561984D02*
X8177325Y-8638174D01*
X8177325Y-8638174D02*
X8205896Y-8638174D01*
X8205896Y-8638174D02*
X8224944Y-8647698D01*
X8224944Y-8647698D02*
X8234467Y-8657222D01*
X8234467Y-8657222D02*
X8243991Y-8676270D01*
X8243991Y-8676270D02*
X8243991Y-8723889D01*
X8243991Y-8723889D02*
X8234467Y-8742936D01*
X8234467Y-8742936D02*
X8224944Y-8752460D01*
X8224944Y-8752460D02*
X8205896Y-8761984D01*
X8205896Y-8761984D02*
X8148753Y-8761984D01*
X8148753Y-8761984D02*
X8129706Y-8752460D01*
X8129706Y-8752460D02*
X8120182Y-8742936D01*
X8339229Y-8761984D02*
X8377325Y-8761984D01*
X8377325Y-8761984D02*
X8396372Y-8752460D01*
X8396372Y-8752460D02*
X8405896Y-8742936D01*
X8405896Y-8742936D02*
X8424944Y-8714365D01*
X8424944Y-8714365D02*
X8434468Y-8676270D01*
X8434468Y-8676270D02*
X8434468Y-8600079D01*
X8434468Y-8600079D02*
X8424944Y-8581031D01*
X8424944Y-8581031D02*
X8415420Y-8571508D01*
X8415420Y-8571508D02*
X8396372Y-8561984D01*
X8396372Y-8561984D02*
X8358277Y-8561984D01*
X8358277Y-8561984D02*
X8339229Y-8571508D01*
X8339229Y-8571508D02*
X8329706Y-8581031D01*
X8329706Y-8581031D02*
X8320182Y-8600079D01*
X8320182Y-8600079D02*
X8320182Y-8647698D01*
X8320182Y-8647698D02*
X8329706Y-8666746D01*
X8329706Y-8666746D02*
X8339229Y-8676270D01*
X8339229Y-8676270D02*
X8358277Y-8685793D01*
X8358277Y-8685793D02*
X8396372Y-8685793D01*
X8396372Y-8685793D02*
X8415420Y-8676270D01*
X8415420Y-8676270D02*
X8424944Y-8666746D01*
X8424944Y-8666746D02*
X8434468Y-8647698D01*
X8605896Y-8628650D02*
X8605896Y-8761984D01*
X8558277Y-8552460D02*
X8510658Y-8695317D01*
X8510658Y-8695317D02*
X8634468Y-8695317D01*
X8701134Y-8561984D02*
X8701134Y-8600079D01*
X8777325Y-8561984D02*
X8777325Y-8600079D01*
X9072563Y-8838174D02*
X9063039Y-8828650D01*
X9063039Y-8828650D02*
X9043991Y-8800079D01*
X9043991Y-8800079D02*
X9034468Y-8781031D01*
X9034468Y-8781031D02*
X9024944Y-8752460D01*
X9024944Y-8752460D02*
X9015420Y-8704841D01*
X9015420Y-8704841D02*
X9015420Y-8666746D01*
X9015420Y-8666746D02*
X9024944Y-8619127D01*
X9024944Y-8619127D02*
X9034468Y-8590555D01*
X9034468Y-8590555D02*
X9043991Y-8571508D01*
X9043991Y-8571508D02*
X9063039Y-8542936D01*
X9063039Y-8542936D02*
X9072563Y-8533412D01*
X9177325Y-8647698D02*
X9158277Y-8638174D01*
X9158277Y-8638174D02*
X9148753Y-8628650D01*
X9148753Y-8628650D02*
X9139230Y-8609603D01*
X9139230Y-8609603D02*
X9139230Y-8600079D01*
X9139230Y-8600079D02*
X9148753Y-8581031D01*
X9148753Y-8581031D02*
X9158277Y-8571508D01*
X9158277Y-8571508D02*
X9177325Y-8561984D01*
X9177325Y-8561984D02*
X9215420Y-8561984D01*
X9215420Y-8561984D02*
X9234468Y-8571508D01*
X9234468Y-8571508D02*
X9243991Y-8581031D01*
X9243991Y-8581031D02*
X9253515Y-8600079D01*
X9253515Y-8600079D02*
X9253515Y-8609603D01*
X9253515Y-8609603D02*
X9243991Y-8628650D01*
X9243991Y-8628650D02*
X9234468Y-8638174D01*
X9234468Y-8638174D02*
X9215420Y-8647698D01*
X9215420Y-8647698D02*
X9177325Y-8647698D01*
X9177325Y-8647698D02*
X9158277Y-8657222D01*
X9158277Y-8657222D02*
X9148753Y-8666746D01*
X9148753Y-8666746D02*
X9139230Y-8685793D01*
X9139230Y-8685793D02*
X9139230Y-8723889D01*
X9139230Y-8723889D02*
X9148753Y-8742936D01*
X9148753Y-8742936D02*
X9158277Y-8752460D01*
X9158277Y-8752460D02*
X9177325Y-8761984D01*
X9177325Y-8761984D02*
X9215420Y-8761984D01*
X9215420Y-8761984D02*
X9234468Y-8752460D01*
X9234468Y-8752460D02*
X9243991Y-8742936D01*
X9243991Y-8742936D02*
X9253515Y-8723889D01*
X9253515Y-8723889D02*
X9253515Y-8685793D01*
X9253515Y-8685793D02*
X9243991Y-8666746D01*
X9243991Y-8666746D02*
X9234468Y-8657222D01*
X9234468Y-8657222D02*
X9215420Y-8647698D01*
X9491611Y-8761984D02*
X9491611Y-8561984D01*
X9577325Y-8761984D02*
X9577325Y-8657222D01*
X9577325Y-8657222D02*
X9567801Y-8638174D01*
X9567801Y-8638174D02*
X9548753Y-8628650D01*
X9548753Y-8628650D02*
X9520182Y-8628650D01*
X9520182Y-8628650D02*
X9501134Y-8638174D01*
X9501134Y-8638174D02*
X9491611Y-8647698D01*
X9701134Y-8761984D02*
X9682087Y-8752460D01*
X9682087Y-8752460D02*
X9672563Y-8742936D01*
X9672563Y-8742936D02*
X9663039Y-8723889D01*
X9663039Y-8723889D02*
X9663039Y-8666746D01*
X9663039Y-8666746D02*
X9672563Y-8647698D01*
X9672563Y-8647698D02*
X9682087Y-8638174D01*
X9682087Y-8638174D02*
X9701134Y-8628650D01*
X9701134Y-8628650D02*
X9729706Y-8628650D01*
X9729706Y-8628650D02*
X9748753Y-8638174D01*
X9748753Y-8638174D02*
X9758277Y-8647698D01*
X9758277Y-8647698D02*
X9767801Y-8666746D01*
X9767801Y-8666746D02*
X9767801Y-8723889D01*
X9767801Y-8723889D02*
X9758277Y-8742936D01*
X9758277Y-8742936D02*
X9748753Y-8752460D01*
X9748753Y-8752460D02*
X9729706Y-8761984D01*
X9729706Y-8761984D02*
X9701134Y-8761984D01*
X9882087Y-8761984D02*
X9863039Y-8752460D01*
X9863039Y-8752460D02*
X9853515Y-8733412D01*
X9853515Y-8733412D02*
X9853515Y-8561984D01*
X10034468Y-8752460D02*
X10015420Y-8761984D01*
X10015420Y-8761984D02*
X9977325Y-8761984D01*
X9977325Y-8761984D02*
X9958277Y-8752460D01*
X9958277Y-8752460D02*
X9948753Y-8733412D01*
X9948753Y-8733412D02*
X9948753Y-8657222D01*
X9948753Y-8657222D02*
X9958277Y-8638174D01*
X9958277Y-8638174D02*
X9977325Y-8628650D01*
X9977325Y-8628650D02*
X10015420Y-8628650D01*
X10015420Y-8628650D02*
X10034468Y-8638174D01*
X10034468Y-8638174D02*
X10043992Y-8657222D01*
X10043992Y-8657222D02*
X10043992Y-8676270D01*
X10043992Y-8676270D02*
X9948753Y-8695317D01*
X10120182Y-8752460D02*
X10139230Y-8761984D01*
X10139230Y-8761984D02*
X10177325Y-8761984D01*
X10177325Y-8761984D02*
X10196373Y-8752460D01*
X10196373Y-8752460D02*
X10205896Y-8733412D01*
X10205896Y-8733412D02*
X10205896Y-8723889D01*
X10205896Y-8723889D02*
X10196373Y-8704841D01*
X10196373Y-8704841D02*
X10177325Y-8695317D01*
X10177325Y-8695317D02*
X10148753Y-8695317D01*
X10148753Y-8695317D02*
X10129706Y-8685793D01*
X10129706Y-8685793D02*
X10120182Y-8666746D01*
X10120182Y-8666746D02*
X10120182Y-8657222D01*
X10120182Y-8657222D02*
X10129706Y-8638174D01*
X10129706Y-8638174D02*
X10148753Y-8628650D01*
X10148753Y-8628650D02*
X10177325Y-8628650D01*
X10177325Y-8628650D02*
X10196373Y-8638174D01*
X10272563Y-8838174D02*
X10282087Y-8828650D01*
X10282087Y-8828650D02*
X10301134Y-8800079D01*
X10301134Y-8800079D02*
X10310658Y-8781031D01*
X10310658Y-8781031D02*
X10320182Y-8752460D01*
X10320182Y-8752460D02*
X10329706Y-8704841D01*
X10329706Y-8704841D02*
X10329706Y-8666746D01*
X10329706Y-8666746D02*
X10320182Y-8619127D01*
X10320182Y-8619127D02*
X10310658Y-8590555D01*
X10310658Y-8590555D02*
X10301134Y-8571508D01*
X10301134Y-8571508D02*
X10282087Y-8542936D01*
X10282087Y-8542936D02*
X10272563Y-8533412D01*
M02*
