M48
METRIC
T1C0.500
T2C1.000
T3C1.000
%
G90
G05
T1
X69.901Y-53.401
X72.5Y-72.0
X79.5Y-47.5
X79.5Y-64.5
X79.5Y-68.4
X80.0Y-51.5
X85.5Y-48.5
X85.5Y-64.5
X86.037Y-68.073
X91.0Y-48.0
X91.0Y-51.0
X91.5Y-56.5
X91.5Y-63.5
X91.5Y-71.7
X92.0Y-68.0
X96.0Y-48.0
X96.5Y-51.0
X96.5Y-64.5
X97.0Y-58.5
X97.0Y-68.41
X101.5Y-44.0
X102.0Y-47.0
X102.0Y-61.19
X102.0Y-63.0
X102.0Y-68.2
X102.5Y-54.13
X102.5Y-56.0
X103.0Y-49.5
X103.0Y-70.5
X103.3Y-59.5
T2
X64.0Y-42.5
X69.5Y-59.0
X70.5Y-47.5
X70.5Y-51.0
T3
X61.5Y-46.56
X61.5Y-49.1
X61.5Y-51.64
X61.5Y-54.18
X66.925Y-46.38
X66.925Y-48.92
X66.925Y-51.46
X66.925Y-54.0
M30
