%TF.GenerationSoftware,KiCad,Pcbnew,9.0.1*%
%TF.CreationDate,2025-09-08T03:32:05-04:00*%
%TF.ProjectId,SNAKE_GAME,534e414b-455f-4474-914d-452e6b696361,rev?*%
%TF.SameCoordinates,Original*%
%TF.FileFunction,Copper,L1,Top*%
%TF.FilePolarity,Positive*%
%FSLAX46Y46*%
G04 Gerber Fmt 4.6, Leading zero omitted, Abs format (unit mm)*
G04 Created by KiCad (PCBNEW 9.0.1) date 2025-09-08 03:32:05*
%MOMM*%
%LPD*%
G01*
G04 APERTURE LIST*
G04 Aperture macros list*
%AMRoundRect*
0 Rectangle with rounded corners*
0 $1 Rounding radius*
0 $2 $3 $4 $5 $6 $7 $8 $9 X,Y pos of 4 corners*
0 Add a 4 corners polygon primitive as box body*
4,1,4,$2,$3,$4,$5,$6,$7,$8,$9,$2,$3,0*
0 Add four circle primitives for the rounded corners*
1,1,$1+$1,$2,$3*
1,1,$1+$1,$4,$5*
1,1,$1+$1,$6,$7*
1,1,$1+$1,$8,$9*
0 Add four rect primitives between the rounded corners*
20,1,$1+$1,$2,$3,$4,$5,0*
20,1,$1+$1,$4,$5,$6,$7,0*
20,1,$1+$1,$6,$7,$8,$9,0*
20,1,$1+$1,$8,$9,$2,$3,0*%
G04 Aperture macros list end*
%TA.AperFunction,ComponentPad*%
%ADD10R,1.700000X1.700000*%
%TD*%
%TA.AperFunction,ComponentPad*%
%ADD11C,1.700000*%
%TD*%
%TA.AperFunction,ComponentPad*%
%ADD12R,1.600000X1.600000*%
%TD*%
%TA.AperFunction,ComponentPad*%
%ADD13C,1.600000*%
%TD*%
%TA.AperFunction,ComponentPad*%
%ADD14O,1.600000X1.600000*%
%TD*%
%TA.AperFunction,ComponentPad*%
%ADD15RoundRect,0.250000X-0.600000X0.600000X-0.600000X-0.600000X0.600000X-0.600000X0.600000X0.600000X0*%
%TD*%
%TA.AperFunction,ComponentPad*%
%ADD16C,2.800000*%
%TD*%
%TA.AperFunction,ComponentPad*%
%ADD17RoundRect,0.250001X-1.149999X1.149999X-1.149999X-1.149999X1.149999X-1.149999X1.149999X1.149999X0*%
%TD*%
%TA.AperFunction,ComponentPad*%
%ADD18RoundRect,0.250000X-0.550000X-0.550000X0.550000X-0.550000X0.550000X0.550000X-0.550000X0.550000X0*%
%TD*%
%TA.AperFunction,ComponentPad*%
%ADD19RoundRect,0.250001X1.149999X1.149999X-1.149999X1.149999X-1.149999X-1.149999X1.149999X-1.149999X0*%
%TD*%
%TA.AperFunction,ComponentPad*%
%ADD20RoundRect,0.250001X-1.149999X-1.149999X1.149999X-1.149999X1.149999X1.149999X-1.149999X1.149999X0*%
%TD*%
%TA.AperFunction,ComponentPad*%
%ADD21RoundRect,0.250001X1.149999X-1.149999X1.149999X1.149999X-1.149999X1.149999X-1.149999X-1.149999X0*%
%TD*%
%TA.AperFunction,ComponentPad*%
%ADD22R,3.500000X3.500000*%
%TD*%
%TA.AperFunction,ComponentPad*%
%ADD23RoundRect,0.750000X0.750000X1.000000X-0.750000X1.000000X-0.750000X-1.000000X0.750000X-1.000000X0*%
%TD*%
%TA.AperFunction,ComponentPad*%
%ADD24RoundRect,0.875000X0.875000X0.875000X-0.875000X0.875000X-0.875000X-0.875000X0.875000X-0.875000X0*%
%TD*%
%TA.AperFunction,ComponentPad*%
%ADD25C,2.000000*%
%TD*%
%TA.AperFunction,ViaPad*%
%ADD26C,2.500000*%
%TD*%
%TA.AperFunction,Conductor*%
%ADD27C,1.000000*%
%TD*%
G04 APERTURE END LIST*
D10*
%TO.P,J7,1,Pin_1*%
%TO.N,VCC*%
X127025000Y69550000D03*
D11*
%TO.P,J7,2,Pin_2*%
%TO.N,GND*%
X127025000Y67010000D03*
%TO.P,J7,3,Pin_3*%
%TO.N,/TXD*%
X127025000Y64470000D03*
%TO.P,J7,4,Pin_4*%
%TO.N,/RXD*%
X127025000Y61930000D03*
%TD*%
D12*
%TO.P,C3,1*%
%TO.N,Net-(U1-XTAL2{slash}PB7)*%
X63815000Y27140000D03*
D13*
%TO.P,C3,2*%
%TO.N,GND*%
X61315000Y27140000D03*
%TD*%
%TO.P,R13,1*%
%TO.N,Net-(U1-PB0)*%
X51580000Y57250000D03*
D14*
%TO.P,R13,2*%
%TO.N,/B_SELECT*%
X41420000Y57250000D03*
%TD*%
D12*
%TO.P,C1,1*%
%TO.N,GND*%
X106315000Y38140000D03*
D13*
%TO.P,C1,2*%
%TO.N,VCC*%
X106315000Y35640000D03*
%TD*%
%TO.P,220UF1,1*%
%TO.N,VCC*%
X124000000Y81750000D03*
%TO.P,220UF1,2*%
%TO.N,GND*%
X124000000Y84250000D03*
%TD*%
%TO.P,R2,1*%
%TO.N,Net-(U1-PD2)*%
X51080000Y48250000D03*
D14*
%TO.P,R2,2*%
%TO.N,/JS_UP*%
X40920000Y48250000D03*
%TD*%
D13*
%TO.P,R3,1*%
%TO.N,Net-(U1-PD3)*%
X51080000Y43250000D03*
D14*
%TO.P,R3,2*%
%TO.N,/JS_DOWN*%
X40920000Y43250000D03*
%TD*%
D13*
%TO.P,R4,1*%
%TO.N,Net-(U1-PD4)*%
X51580000Y38250000D03*
D14*
%TO.P,R4,2*%
%TO.N,/JS_LEFT*%
X41420000Y38250000D03*
%TD*%
D13*
%TO.P,R5,1*%
%TO.N,Net-(U1-PD5)*%
X51830000Y33250000D03*
D14*
%TO.P,R5,2*%
%TO.N,/JS_RIGHT*%
X41670000Y33250000D03*
%TD*%
D13*
%TO.P,R6,1*%
%TO.N,Net-(U1-PD6)*%
X51580000Y67500000D03*
D14*
%TO.P,R6,2*%
%TO.N,/B_EXIT*%
X41420000Y67500000D03*
%TD*%
D10*
%TO.P,J3,1,Pin_1*%
%TO.N,GND*%
X121750000Y96250000D03*
D11*
%TO.P,J3,2,Pin_2*%
%TO.N,Net-(J3-Pin_2)*%
X119210000Y96250000D03*
%TO.P,J3,3,Pin_3*%
%TO.N,VCC*%
X116670000Y96250000D03*
%TD*%
D15*
%TO.P,J4,1,Pin_1*%
%TO.N,/MOSI*%
X117000000Y8210000D03*
D11*
%TO.P,J4,2,Pin_2*%
%TO.N,VCC*%
X117000000Y5670000D03*
%TO.P,J4,3,Pin_3*%
%TO.N,unconnected-(J4-Pin_3-Pad3)*%
X114460000Y8210000D03*
%TO.P,J4,4,Pin_4*%
%TO.N,unconnected-(J4-Pin_4-Pad4)*%
X114460000Y5670000D03*
%TO.P,J4,5,Pin_5*%
%TO.N,/RESET*%
X111920000Y8210000D03*
%TO.P,J4,6,Pin_6*%
%TO.N,unconnected-(J4-Pin_6-Pad6)*%
X111920000Y5670000D03*
%TO.P,J4,7,Pin_7*%
%TO.N,/SCK*%
X109380000Y8210000D03*
%TO.P,J4,8,Pin_8*%
%TO.N,GND*%
X109380000Y5670000D03*
%TO.P,J4,9,Pin_9*%
%TO.N,/MISO*%
X106840000Y8210000D03*
%TO.P,J4,10,Pin_10*%
%TO.N,GND*%
X106840000Y5670000D03*
%TD*%
D12*
%TO.P,C4,1*%
%TO.N,GND*%
X72794888Y41500000D03*
D13*
%TO.P,C4,2*%
%TO.N,VCC*%
X75294888Y41500000D03*
%TD*%
D16*
%TO.P,J6,4,Pin_4*%
%TO.N,/JS_RIGHT*%
X33000000Y33250000D03*
%TO.P,J6,3,Pin_3*%
%TO.N,/JS_LEFT*%
X33000000Y38250000D03*
%TO.P,J6,2,Pin_2*%
%TO.N,/JS_DOWN*%
X33000000Y43250000D03*
D17*
%TO.P,J6,1,Pin_1*%
%TO.N,/JS_UP*%
X33000000Y48250000D03*
%TD*%
D12*
%TO.P,C2,1*%
%TO.N,Net-(U1-XTAL1{slash}PB6)*%
X63520113Y37640000D03*
D13*
%TO.P,C2,2*%
%TO.N,GND*%
X61020113Y37640000D03*
%TD*%
%TO.P,R7,1*%
%TO.N,Net-(U1-PD7)*%
X51580000Y62750000D03*
D14*
%TO.P,R7,2*%
%TO.N,/B_START*%
X41420000Y62750000D03*
%TD*%
D13*
%TO.P,R14,1*%
%TO.N,/B_SELECT*%
X24080000Y57250000D03*
D14*
%TO.P,R14,2*%
%TO.N,VCC*%
X13920000Y57250000D03*
%TD*%
D13*
%TO.P,R15,1*%
%TO.N,/B_START*%
X24080000Y62250000D03*
D14*
%TO.P,R15,2*%
%TO.N,VCC*%
X13920000Y62250000D03*
%TD*%
D13*
%TO.P,R16,1*%
%TO.N,/B_EXIT*%
X24080000Y67250000D03*
D14*
%TO.P,R16,2*%
%TO.N,VCC*%
X13920000Y67250000D03*
%TD*%
D13*
%TO.P,R17,1*%
%TO.N,/JS_RIGHT*%
X24580000Y33750000D03*
D14*
%TO.P,R17,2*%
%TO.N,VCC*%
X14420000Y33750000D03*
%TD*%
D13*
%TO.P,R18,1*%
%TO.N,/JS_LEFT*%
X24580000Y38250000D03*
D14*
%TO.P,R18,2*%
%TO.N,VCC*%
X14420000Y38250000D03*
%TD*%
D13*
%TO.P,R19,1*%
%TO.N,/JS_DOWN*%
X24580000Y43250000D03*
D14*
%TO.P,R19,2*%
%TO.N,VCC*%
X14420000Y43250000D03*
%TD*%
D13*
%TO.P,R20,1*%
%TO.N,/JS_UP*%
X24580000Y48250000D03*
D14*
%TO.P,R20,2*%
%TO.N,VCC*%
X14420000Y48250000D03*
%TD*%
D13*
%TO.P,R21,1*%
%TO.N,VCC*%
X77875000Y69125000D03*
D14*
%TO.P,R21,2*%
%TO.N,/SDA*%
X77875000Y79285000D03*
%TD*%
D13*
%TO.P,R22,1*%
%TO.N,VCC*%
X83875000Y69045000D03*
D14*
%TO.P,R22,2*%
%TO.N,/SCL*%
X83875000Y79205000D03*
%TD*%
D13*
%TO.P,R24,1*%
%TO.N,/DIN_GRID*%
X98000000Y86580000D03*
D14*
%TO.P,R24,2*%
%TO.N,VCC*%
X98000000Y76420000D03*
%TD*%
D13*
%TO.P,U1,28,PC5*%
%TO.N,/SCL*%
X93815000Y54260000D03*
%TO.P,U1,27,PC4*%
%TO.N,/SDA*%
X93815000Y51720000D03*
%TO.P,U1,26,PC3*%
%TO.N,unconnected-(U1-PC3-Pad26)*%
X93815000Y49180000D03*
%TO.P,U1,25,PC2*%
%TO.N,unconnected-(U1-PC2-Pad25)*%
X93815000Y46640000D03*
%TO.P,U1,24,PC1*%
%TO.N,unconnected-(U1-PC1-Pad24)*%
X93815000Y44100000D03*
%TO.P,U1,23,PC0*%
%TO.N,/DIN_GRID*%
X93815000Y41560000D03*
%TO.P,U1,22,GND*%
%TO.N,GND*%
X93815000Y39020000D03*
%TO.P,U1,21,AREF*%
%TO.N,Net-(U1-AREF)*%
X93815000Y36480000D03*
%TO.P,U1,20,AVCC*%
%TO.N,VCC*%
X93815000Y33940000D03*
%TO.P,U1,19,PB5*%
%TO.N,/SCK*%
X93815000Y31400000D03*
%TO.P,U1,18,PB4*%
%TO.N,/MISO*%
X93815000Y28860000D03*
%TO.P,U1,17,PB3*%
%TO.N,/MOSI*%
X93815000Y26320000D03*
%TO.P,U1,16,PB2*%
%TO.N,unconnected-(U1-PB2-Pad16)*%
X93815000Y23780000D03*
%TO.P,U1,15,PB1*%
%TO.N,unconnected-(U1-PB1-Pad15)*%
X93815000Y21240000D03*
%TO.P,U1,14,PB0*%
%TO.N,Net-(U1-PB0)*%
X86195000Y21240000D03*
%TO.P,U1,13,PD7*%
%TO.N,Net-(U1-PD7)*%
X86195000Y23780000D03*
%TO.P,U1,12,PD6*%
%TO.N,Net-(U1-PD6)*%
X86195000Y26320000D03*
%TO.P,U1,11,PD5*%
%TO.N,Net-(U1-PD5)*%
X86195000Y28860000D03*
%TO.P,U1,10,XTAL2/PB7*%
%TO.N,Net-(U1-XTAL2{slash}PB7)*%
X86195000Y31400000D03*
%TO.P,U1,9,XTAL1/PB6*%
%TO.N,Net-(U1-XTAL1{slash}PB6)*%
X86195000Y33940000D03*
%TO.P,U1,8,GND*%
%TO.N,GND*%
X86195000Y36480000D03*
%TO.P,U1,7,VCC*%
%TO.N,VCC*%
X86195000Y39020000D03*
%TO.P,U1,6,PD4*%
%TO.N,Net-(U1-PD4)*%
X86195000Y41560000D03*
%TO.P,U1,5,PD3*%
%TO.N,Net-(U1-PD3)*%
X86195000Y44100000D03*
%TO.P,U1,4,PD2*%
%TO.N,Net-(U1-PD2)*%
X86195000Y46640000D03*
%TO.P,U1,3,PD1*%
%TO.N,/TXD*%
X86195000Y49180000D03*
%TO.P,U1,2,PD0*%
%TO.N,/RXD*%
X86195000Y51720000D03*
D18*
%TO.P,U1,1,~{RESET}/PC6*%
%TO.N,/RESET*%
X86195000Y54260000D03*
%TD*%
D11*
%TO.P,Y1,1,1*%
%TO.N,Net-(U1-XTAL2{slash}PB7)*%
X73815000Y30140000D03*
%TO.P,Y1,2,2*%
%TO.N,Net-(U1-XTAL1{slash}PB6)*%
X73815000Y35140000D03*
%TD*%
D12*
%TO.P,C5,1*%
%TO.N,GND*%
X105250000Y43500000D03*
D13*
%TO.P,C5,2*%
%TO.N,Net-(U1-AREF)*%
X102750000Y43500000D03*
%TD*%
D17*
%TO.P,J5,1,Pin_1*%
%TO.N,/B_EXIT*%
X33000000Y67250000D03*
D16*
%TO.P,J5,2,Pin_2*%
%TO.N,/B_START*%
X33000000Y62250000D03*
%TO.P,J5,3,Pin_3*%
%TO.N,/B_SELECT*%
X33000000Y57250000D03*
%TD*%
D19*
%TO.P,J1,1,Pin_1*%
%TO.N,VCC*%
X108000000Y92750000D03*
D16*
%TO.P,J1,2,Pin_2*%
%TO.N,GND*%
X103000000Y92750000D03*
%TO.P,J1,3,Pin_3*%
%TO.N,/DIN_GRID*%
X98000000Y92750000D03*
%TD*%
D20*
%TO.P,J8,1,Pin_1*%
%TO.N,GND*%
X67875000Y88125000D03*
D16*
%TO.P,J8,2,Pin_2*%
%TO.N,VCC*%
X72875000Y88125000D03*
%TO.P,J8,3,Pin_3*%
%TO.N,/SDA*%
X77875000Y88125000D03*
%TO.P,J8,4,Pin_4*%
%TO.N,/SCL*%
X82875000Y88125000D03*
%TD*%
D21*
%TO.P,J9,1,Pin_1*%
%TO.N,GND*%
X132000000Y37490000D03*
D16*
%TO.P,J9,2,Pin_2*%
X132000000Y42490000D03*
%TO.P,J9,3,Pin_3*%
X132000000Y47490000D03*
%TO.P,J9,4,Pin_4*%
X132000000Y52490000D03*
%TD*%
D21*
%TO.P,J10,1,Pin_1*%
%TO.N,VCC*%
X132000000Y13490000D03*
D16*
%TO.P,J10,2,Pin_2*%
X132000000Y18490000D03*
%TO.P,J10,3,Pin_3*%
X132000000Y23490000D03*
%TO.P,J10,4,Pin_4*%
X132000000Y28490000D03*
%TD*%
D22*
%TO.P,J11,1*%
%TO.N,VCC*%
X138750000Y82792500D03*
D23*
%TO.P,J11,2*%
%TO.N,unconnected-(J11-Pad2)*%
X144750000Y82792500D03*
D24*
%TO.P,J11,3*%
%TO.N,GND*%
X141750000Y87492500D03*
%TD*%
D25*
%TO.P,SW1,1,1*%
%TO.N,/RESET*%
X129750000Y97750000D03*
X136250000Y97750000D03*
%TO.P,SW1,2,2*%
%TO.N,Net-(J3-Pin_2)*%
X129750000Y93250000D03*
X136250000Y93250000D03*
%TD*%
D26*
%TO.N,Net-(U1-PD6)*%
X77500000Y25000000D03*
X64000000Y65250000D03*
%TO.N,/RESET*%
X100500000Y72500000D03*
%TO.N,/RXD*%
X118000000Y61750000D03*
%TO.N,/TXD*%
X81500000Y55000000D03*
%TO.N,Net-(U1-PB0)*%
X57000000Y55000000D03*
%TO.N,/RESET*%
X107250000Y54000000D03*
%TO.N,Net-(U1-PD7)*%
X75750000Y21500000D03*
%TO.N,/MOSI*%
X115750000Y15750000D03*
%TO.N,/TXD*%
X111250000Y58250000D03*
%TO.N,/RXD*%
X91250000Y61750000D03*
%TO.N,Net-(U1-PD7)*%
X63000000Y60500000D03*
%TO.N,/RESET*%
X89250000Y64750000D03*
%TO.N,Net-(U1-PB0)*%
X74000000Y17250000D03*
%TO.N,/RESET*%
X112000000Y30000000D03*
%TO.N,/MOSI*%
X100250000Y17500000D03*
%TO.N,/RESET*%
X114750000Y100000000D03*
%TD*%
D27*
%TO.N,Net-(U1-PD6)*%
X73500000Y25000000D02*
X77500000Y25000000D01*
%TO.N,/RESET*%
X112000000Y49250000D02*
X107250000Y54000000D01*
%TO.N,/TXD*%
X83750000Y58250000D02*
X111250000Y58250000D01*
%TO.N,/RESET*%
X89250000Y64750000D02*
X92750000Y64750000D01*
%TO.N,Net-(U1-PB0)*%
X57000000Y55000000D02*
X57000000Y23250000D01*
%TO.N,Net-(U1-PD7)*%
X63000000Y60500000D02*
X66500000Y57000000D01*
X66500000Y28750000D02*
X73750000Y21500000D01*
%TO.N,/RESET*%
X112000000Y30000000D02*
X112000000Y49250000D01*
%TO.N,/MOSI*%
X102000000Y15750000D02*
X100250000Y17500000D01*
X115750000Y15750000D02*
X102000000Y15750000D01*
%TO.N,/TXD*%
X81500000Y55000000D02*
X81500000Y56000000D01*
%TO.N,Net-(U1-PD7)*%
X66500000Y57000000D02*
X66500000Y28750000D01*
%TO.N,/RESET*%
X113250000Y98500000D02*
X114750000Y100000000D01*
%TO.N,/TXD*%
X81500000Y56000000D02*
X83750000Y58250000D01*
X111250000Y58250000D02*
X112000000Y58250000D01*
%TO.N,Net-(U1-PB0)*%
X63000000Y17250000D02*
X74000000Y17250000D01*
%TO.N,Net-(U1-PD6)*%
X68750000Y29750000D02*
X73500000Y25000000D01*
X68750000Y60500000D02*
X68750000Y29750000D01*
%TO.N,/RESET*%
X92750000Y64750000D02*
X113250000Y85250000D01*
X113250000Y85250000D02*
X113250000Y98500000D01*
%TO.N,Net-(U1-PD7)*%
X73750000Y21500000D02*
X75750000Y21500000D01*
%TO.N,Net-(U1-PD6)*%
X64000000Y65250000D02*
X68750000Y60500000D01*
%TO.N,/RXD*%
X91250000Y61750000D02*
X118000000Y61750000D01*
%TO.N,VCC*%
X83795000Y69125000D02*
X83875000Y69045000D01*
%TO.N,Net-(U1-PB0)*%
X57000000Y23250000D02*
X63000000Y17250000D01*
%TD*%
%TA.AperFunction,Conductor*%
%TO.N,GND*%
G36*
X148442539Y102229815D02*
G01*
X148488294Y102177011D01*
X148499500Y102125500D01*
X148499500Y1874500D01*
X148479815Y1807461D01*
X148427011Y1761706D01*
X148375500Y1750500D01*
X10124500Y1750500D01*
X10057461Y1770185D01*
X10011706Y1822989D01*
X10000500Y1874500D01*
X10000500Y4871288D01*
X11149500Y4871288D01*
X11149500Y4628711D01*
X11181161Y4388214D01*
X11243947Y4153895D01*
X11336773Y3929794D01*
X11336777Y3929785D01*
X11458067Y3719706D01*
X11605733Y3527263D01*
X11605739Y3527256D01*
X11777256Y3355739D01*
X11777263Y3355733D01*
X11969706Y3208067D01*
X12179785Y3086777D01*
X12179794Y3086773D01*
X12403895Y2993947D01*
X12638214Y2931161D01*
X12878711Y2899500D01*
X12878712Y2899500D01*
X13121289Y2899500D01*
X13361785Y2931161D01*
X13596104Y2993947D01*
X13820205Y3086773D01*
X13820214Y3086777D01*
X13858661Y3108974D01*
X14030289Y3208064D01*
X14030293Y3208067D01*
X14222736Y3355733D01*
X14222743Y3355739D01*
X14394260Y3527256D01*
X14394266Y3527263D01*
X14541932Y3719706D01*
X14541936Y3719711D01*
X14663224Y3929788D01*
X14756054Y4153900D01*
X14818838Y4388211D01*
X14850500Y4628712D01*
X14850500Y4871288D01*
X14818838Y5111789D01*
X14756054Y5346100D01*
X14663224Y5570212D01*
X14541936Y5780289D01*
X14394265Y5972738D01*
X14222738Y6144265D01*
X14030289Y6291936D01*
X13820212Y6413224D01*
X13596100Y6506054D01*
X13361789Y6568838D01*
X13169388Y6594167D01*
X13121289Y6600500D01*
X13121288Y6600500D01*
X12878712Y6600500D01*
X12878711Y6600500D01*
X12818586Y6592584D01*
X12638211Y6568838D01*
X12403900Y6506054D01*
X12179788Y6413224D01*
X11969711Y6291936D01*
X11969706Y6291932D01*
X11777263Y6144266D01*
X11777256Y6144260D01*
X11605739Y5972743D01*
X11605735Y5972738D01*
X11458064Y5780289D01*
X11358974Y5608661D01*
X11336777Y5570214D01*
X11336773Y5570205D01*
X11243947Y5346104D01*
X11181161Y5111785D01*
X11149500Y4871288D01*
X10000500Y4871288D01*
X10000500Y8316286D01*
X105489500Y8316286D01*
X105489500Y8103713D01*
X105522753Y7893760D01*
X105588444Y7691585D01*
X105684951Y7502179D01*
X105809890Y7330213D01*
X105960213Y7179890D01*
X106132179Y7054951D01*
X106321585Y6958444D01*
X106523760Y6892753D01*
X106523759Y6892753D01*
X106676555Y6868553D01*
X106733713Y6859500D01*
X106733714Y6859500D01*
X106946286Y6859500D01*
X106946287Y6859500D01*
X107012587Y6870001D01*
X107156239Y6892753D01*
X107156241Y6892753D01*
X107156243Y6892754D01*
X107358412Y6958443D01*
X107444897Y7002509D01*
X107547820Y7054951D01*
X107719786Y7179890D01*
X107870109Y7330213D01*
X107995050Y7502182D01*
X107999516Y7510946D01*
X108047491Y7561742D01*
X108115312Y7578536D01*
X108181447Y7555998D01*
X108220484Y7510946D01*
X108224949Y7502182D01*
X108349890Y7330213D01*
X108500213Y7179890D01*
X108672179Y7054951D01*
X108861585Y6958444D01*
X109063760Y6892753D01*
X109063759Y6892753D01*
X109216555Y6868553D01*
X109273713Y6859500D01*
X109273714Y6859500D01*
X109486286Y6859500D01*
X109486287Y6859500D01*
X109552587Y6870001D01*
X109696239Y6892753D01*
X109696241Y6892753D01*
X109696243Y6892754D01*
X109898412Y6958443D01*
X109984897Y7002509D01*
X110087820Y7054951D01*
X110259786Y7179890D01*
X110410109Y7330213D01*
X110535050Y7502182D01*
X110539516Y7510946D01*
X110587491Y7561742D01*
X110655312Y7578536D01*
X110721447Y7555998D01*
X110760484Y7510946D01*
X110764949Y7502182D01*
X110889890Y7330213D01*
X111040213Y7179890D01*
X111212182Y7054949D01*
X111220946Y7050484D01*
X111271742Y7002509D01*
X111288536Y6934688D01*
X111265998Y6868553D01*
X111220946Y6829516D01*
X111212182Y6825050D01*
X111040213Y6700109D01*
X110889890Y6549786D01*
X110764951Y6377820D01*
X110668444Y6188414D01*
X110602753Y5986239D01*
X110579534Y5839644D01*
X110570135Y5780293D01*
X110569500Y5776286D01*
X110569500Y5563713D01*
X110602753Y5353760D01*
X110668444Y5151585D01*
X110764951Y4962179D01*
X110889890Y4790213D01*
X111040213Y4639890D01*
X111212179Y4514951D01*
X111401585Y4418444D01*
X111603760Y4352753D01*
X111603759Y4352753D01*
X111774202Y4325757D01*
X111813713Y4319500D01*
X111813714Y4319500D01*
X112026286Y4319500D01*
X112026287Y4319500D01*
X112089644Y4329534D01*
X112236239Y4352753D01*
X112236241Y4352753D01*
X112236243Y4352754D01*
X112438412Y4418443D01*
X112627816Y4514949D01*
X112627820Y4514951D01*
X112799786Y4639890D01*
X112950109Y4790213D01*
X113075050Y4962182D01*
X113079516Y4970946D01*
X113127491Y5021742D01*
X113195312Y5038536D01*
X113261447Y5015998D01*
X113300484Y4970946D01*
X113304949Y4962182D01*
X113429890Y4790213D01*
X113580213Y4639890D01*
X113752179Y4514951D01*
X113941585Y4418444D01*
X114143760Y4352753D01*
X114143759Y4352753D01*
X114314202Y4325757D01*
X114353713Y4319500D01*
X114353714Y4319500D01*
X114566286Y4319500D01*
X114566287Y4319500D01*
X114629644Y4329534D01*
X114776239Y4352753D01*
X114776241Y4352753D01*
X114776243Y4352754D01*
X114978412Y4418443D01*
X115167816Y4514949D01*
X115167820Y4514951D01*
X115339786Y4639890D01*
X115490109Y4790213D01*
X115615050Y4962182D01*
X115619516Y4970946D01*
X115667491Y5021742D01*
X115735312Y5038536D01*
X115801447Y5015998D01*
X115840484Y4970946D01*
X115844949Y4962182D01*
X115969890Y4790213D01*
X116120213Y4639890D01*
X116292179Y4514951D01*
X116481585Y4418444D01*
X116683760Y4352753D01*
X116683759Y4352753D01*
X116854202Y4325757D01*
X116893713Y4319500D01*
X116893714Y4319500D01*
X117106286Y4319500D01*
X117106287Y4319500D01*
X117169644Y4329534D01*
X117316239Y4352753D01*
X117316241Y4352753D01*
X117316243Y4352754D01*
X117518412Y4418443D01*
X117707816Y4514949D01*
X117707820Y4514951D01*
X117879786Y4639890D01*
X118030109Y4790213D01*
X118089013Y4871288D01*
X143649500Y4871288D01*
X143649500Y4628711D01*
X143681161Y4388214D01*
X143743947Y4153895D01*
X143836773Y3929794D01*
X143836777Y3929785D01*
X143958067Y3719706D01*
X144105733Y3527263D01*
X144105739Y3527256D01*
X144277256Y3355739D01*
X144277263Y3355733D01*
X144469706Y3208067D01*
X144679785Y3086777D01*
X144679794Y3086773D01*
X144903895Y2993947D01*
X145138214Y2931161D01*
X145378711Y2899500D01*
X145378712Y2899500D01*
X145621289Y2899500D01*
X145861785Y2931161D01*
X146096104Y2993947D01*
X146320205Y3086773D01*
X146320214Y3086777D01*
X146358661Y3108974D01*
X146530289Y3208064D01*
X146530293Y3208067D01*
X146722736Y3355733D01*
X146722743Y3355739D01*
X146894260Y3527256D01*
X146894266Y3527263D01*
X147041932Y3719706D01*
X147041936Y3719711D01*
X147163224Y3929788D01*
X147256054Y4153900D01*
X147318838Y4388211D01*
X147350500Y4628712D01*
X147350500Y4871288D01*
X147318838Y5111789D01*
X147256054Y5346100D01*
X147163224Y5570212D01*
X147041936Y5780289D01*
X146894265Y5972738D01*
X146722738Y6144265D01*
X146530289Y6291936D01*
X146320212Y6413224D01*
X146096100Y6506054D01*
X145861789Y6568838D01*
X145669388Y6594167D01*
X145621289Y6600500D01*
X145621288Y6600500D01*
X145378712Y6600500D01*
X145378711Y6600500D01*
X145318586Y6592584D01*
X145138211Y6568838D01*
X144903900Y6506054D01*
X144679788Y6413224D01*
X144469711Y6291936D01*
X144469706Y6291932D01*
X144277263Y6144266D01*
X144277256Y6144260D01*
X144105739Y5972743D01*
X144105735Y5972738D01*
X143958064Y5780289D01*
X143858974Y5608661D01*
X143836777Y5570214D01*
X143836773Y5570205D01*
X143743947Y5346104D01*
X143681161Y5111785D01*
X143649500Y4871288D01*
X118089013Y4871288D01*
X118144915Y4948232D01*
X118155048Y4962180D01*
X118155051Y4962184D01*
X118251557Y5151588D01*
X118317246Y5353757D01*
X118350500Y5563713D01*
X118350500Y5776287D01*
X118317246Y5986243D01*
X118251557Y6188412D01*
X118155051Y6377816D01*
X118061883Y6506052D01*
X118030109Y6549786D01*
X118030106Y6549788D01*
X118030104Y6549792D01*
X117879792Y6700104D01*
X117874896Y6703660D01*
X117832230Y6758987D01*
X117826248Y6828600D01*
X117858851Y6890397D01*
X117908772Y6921686D01*
X117919329Y6925184D01*
X117919336Y6925187D01*
X118059181Y7011444D01*
X118068656Y7017288D01*
X118192712Y7141344D01*
X118284814Y7290666D01*
X118339999Y7457203D01*
X118350500Y7559991D01*
X118350499Y8860008D01*
X118339999Y8962797D01*
X118284814Y9129334D01*
X118192712Y9278656D01*
X118068656Y9402712D01*
X117919334Y9494814D01*
X117752797Y9549999D01*
X117650009Y9560500D01*
X116349992Y9560499D01*
X116349983Y9560498D01*
X116349981Y9560498D01*
X116247203Y9549999D01*
X116080666Y9494814D01*
X115931344Y9402712D01*
X115931342Y9402710D01*
X115807289Y9278657D01*
X115715187Y9129336D01*
X115715182Y9129325D01*
X115711686Y9118773D01*
X115671913Y9061328D01*
X115607397Y9034506D01*
X115538621Y9046822D01*
X115493656Y9084903D01*
X115490107Y9089788D01*
X115490106Y9089788D01*
X115490104Y9089792D01*
X115339792Y9240104D01*
X115339788Y9240106D01*
X115339786Y9240109D01*
X115167820Y9365048D01*
X115167816Y9365051D01*
X114978412Y9461557D01*
X114776243Y9527246D01*
X114566287Y9560500D01*
X114353713Y9560500D01*
X114143757Y9527246D01*
X113941588Y9461557D01*
X113752184Y9365051D01*
X113752181Y9365049D01*
X113752179Y9365048D01*
X113580213Y9240109D01*
X113429890Y9089786D01*
X113304951Y8917820D01*
X113300486Y8909056D01*
X113252512Y8858259D01*
X113184692Y8841463D01*
X113118556Y8863999D01*
X113079514Y8909056D01*
X113075051Y8917816D01*
X113042369Y8962799D01*
X112950109Y9089786D01*
X112950106Y9089788D01*
X112950104Y9089792D01*
X112799792Y9240104D01*
X112799788Y9240106D01*
X112799786Y9240109D01*
X112627820Y9365048D01*
X112627816Y9365051D01*
X112438412Y9461557D01*
X112236243Y9527246D01*
X112026287Y9560500D01*
X111813713Y9560500D01*
X111603757Y9527246D01*
X111401588Y9461557D01*
X111212184Y9365051D01*
X111212181Y9365049D01*
X111212179Y9365048D01*
X111040213Y9240109D01*
X110889890Y9089786D01*
X110764951Y8917820D01*
X110760486Y8909056D01*
X110712512Y8858259D01*
X110644692Y8841463D01*
X110578556Y8863999D01*
X110539514Y8909056D01*
X110535051Y8917816D01*
X110502369Y8962799D01*
X110410109Y9089786D01*
X110410106Y9089788D01*
X110410104Y9089792D01*
X110259792Y9240104D01*
X110259788Y9240106D01*
X110259786Y9240109D01*
X110087820Y9365048D01*
X110087816Y9365051D01*
X109898412Y9461557D01*
X109696243Y9527246D01*
X109486287Y9560500D01*
X109273713Y9560500D01*
X109063757Y9527246D01*
X108861588Y9461557D01*
X108672184Y9365051D01*
X108672181Y9365049D01*
X108672179Y9365048D01*
X108500213Y9240109D01*
X108349890Y9089786D01*
X108224951Y8917820D01*
X108220486Y8909056D01*
X108172512Y8858259D01*
X108104692Y8841463D01*
X108038556Y8863999D01*
X107999514Y8909056D01*
X107995051Y8917816D01*
X107962369Y8962799D01*
X107870109Y9089786D01*
X107870106Y9089788D01*
X107870104Y9089792D01*
X107719792Y9240104D01*
X107719788Y9240106D01*
X107719786Y9240109D01*
X107547820Y9365048D01*
X107547816Y9365051D01*
X107358412Y9461557D01*
X107156243Y9527246D01*
X106946287Y9560500D01*
X106733713Y9560500D01*
X106523757Y9527246D01*
X106321588Y9461557D01*
X106132184Y9365051D01*
X106132181Y9365049D01*
X106132179Y9365048D01*
X105960213Y9240109D01*
X105809890Y9089786D01*
X105684951Y8917820D01*
X105588444Y8728414D01*
X105522753Y8526239D01*
X105489500Y8316286D01*
X10000500Y8316286D01*
X10000500Y33852351D01*
X13119500Y33852351D01*
X13119500Y33647648D01*
X13151522Y33445465D01*
X13214781Y33250776D01*
X13307715Y33068386D01*
X13428028Y32902786D01*
X13572786Y32758028D01*
X13738386Y32637715D01*
X13920776Y32544781D01*
X14115465Y32481522D01*
X14293329Y32453351D01*
X14317648Y32449500D01*
X14317649Y32449500D01*
X14522351Y32449500D01*
X14522352Y32449500D01*
X14549995Y32453878D01*
X14724534Y32481522D01*
X14919223Y32544781D01*
X15044653Y32608691D01*
X15101610Y32637713D01*
X15138740Y32664689D01*
X15267213Y32758028D01*
X15411971Y32902786D01*
X15532284Y33068386D01*
X15532287Y33068390D01*
X15591503Y33184607D01*
X15625218Y33250776D01*
X15688477Y33445465D01*
X15720500Y33647648D01*
X15720500Y33852351D01*
X23279500Y33852351D01*
X23279500Y33647648D01*
X23311522Y33445465D01*
X23374781Y33250776D01*
X23467715Y33068386D01*
X23588028Y32902786D01*
X23732786Y32758028D01*
X23898386Y32637715D01*
X24080776Y32544781D01*
X24275465Y32481522D01*
X24453329Y32453351D01*
X24477648Y32449500D01*
X24477649Y32449500D01*
X24682351Y32449500D01*
X24682352Y32449500D01*
X24709995Y32453878D01*
X24884534Y32481522D01*
X25079223Y32544781D01*
X25204653Y32608691D01*
X25261610Y32637713D01*
X25298740Y32664689D01*
X25427213Y32758028D01*
X25571971Y32902786D01*
X25692284Y33068386D01*
X25692287Y33068390D01*
X25785220Y33250781D01*
X25825438Y33374558D01*
X31099500Y33374558D01*
X31099500Y33125441D01*
X31099501Y33125424D01*
X31132017Y32878438D01*
X31196498Y32637792D01*
X31291830Y32407638D01*
X31291837Y32407623D01*
X31416400Y32191873D01*
X31568060Y31994225D01*
X31568066Y31994218D01*
X31744218Y31818066D01*
X31744225Y31818060D01*
X31941873Y31666400D01*
X32157623Y31541837D01*
X32157638Y31541830D01*
X32387792Y31446498D01*
X32628438Y31382017D01*
X32875424Y31349501D01*
X32875429Y31349500D01*
X32875435Y31349500D01*
X32875442Y31349500D01*
X33124558Y31349500D01*
X33124565Y31349500D01*
X33124570Y31349500D01*
X33124575Y31349501D01*
X33371561Y31382017D01*
X33612207Y31446498D01*
X33842361Y31541830D01*
X33842376Y31541837D01*
X34058126Y31666400D01*
X34255774Y31818060D01*
X34255781Y31818066D01*
X34431933Y31994218D01*
X34431939Y31994225D01*
X34583599Y32191873D01*
X34708162Y32407623D01*
X34708169Y32407638D01*
X34771078Y32559515D01*
X34803502Y32637793D01*
X34867982Y32878435D01*
X34900500Y33125435D01*
X34900500Y33352351D01*
X40369500Y33352351D01*
X40369500Y33147648D01*
X40401522Y32945465D01*
X40464781Y32750776D01*
X40557715Y32568386D01*
X40678028Y32402786D01*
X40822786Y32258028D01*
X40988386Y32137715D01*
X41170776Y32044781D01*
X41365465Y31981522D01*
X41543329Y31953351D01*
X41567648Y31949500D01*
X41567649Y31949500D01*
X41772351Y31949500D01*
X41772352Y31949500D01*
X41799995Y31953878D01*
X41974534Y31981522D01*
X42169223Y32044781D01*
X42294653Y32108691D01*
X42351610Y32137713D01*
X42351613Y32137715D01*
X42517213Y32258028D01*
X42661971Y32402786D01*
X42782284Y32568386D01*
X42782287Y32568390D01*
X42841503Y32684607D01*
X42875218Y32750776D01*
X42877575Y32758028D01*
X42924608Y32902781D01*
X42938477Y32945465D01*
X42970500Y33147648D01*
X42970500Y33352351D01*
X50529500Y33352351D01*
X50529500Y33147648D01*
X50561522Y32945465D01*
X50624781Y32750776D01*
X50717715Y32568386D01*
X50838028Y32402786D01*
X50982786Y32258028D01*
X51148386Y32137715D01*
X51330776Y32044781D01*
X51525465Y31981522D01*
X51703329Y31953351D01*
X51727648Y31949500D01*
X51727649Y31949500D01*
X51932351Y31949500D01*
X51932352Y31949500D01*
X51959995Y31953878D01*
X52134534Y31981522D01*
X52329223Y32044781D01*
X52454653Y32108691D01*
X52511610Y32137713D01*
X52511613Y32137715D01*
X52677213Y32258028D01*
X52821971Y32402786D01*
X52942284Y32568386D01*
X52942287Y32568390D01*
X53001503Y32684607D01*
X53035218Y32750776D01*
X53037575Y32758028D01*
X53084608Y32902781D01*
X53098477Y32945465D01*
X53130500Y33147648D01*
X53130500Y33352351D01*
X53098477Y33554534D01*
X53035220Y33749219D01*
X52942287Y33931610D01*
X52825485Y34092376D01*
X52821971Y34097213D01*
X52821968Y34097215D01*
X52821966Y34097219D01*
X52677219Y34241966D01*
X52677215Y34241968D01*
X52677213Y34241971D01*
X52586155Y34308127D01*
X52511610Y34362287D01*
X52329219Y34455220D01*
X52134534Y34518477D01*
X51932352Y34550500D01*
X51727648Y34550500D01*
X51626557Y34534488D01*
X51525465Y34518477D01*
X51486376Y34505776D01*
X51330781Y34455220D01*
X51330778Y34455218D01*
X51330776Y34455218D01*
X51284444Y34431610D01*
X51148390Y34362287D01*
X51148386Y34362284D01*
X50982786Y34241971D01*
X50838028Y34097213D01*
X50717715Y33931613D01*
X50624781Y33749223D01*
X50561522Y33554534D01*
X50529500Y33352351D01*
X42970500Y33352351D01*
X42938477Y33554534D01*
X42875220Y33749219D01*
X42782287Y33931610D01*
X42665485Y34092376D01*
X42661971Y34097213D01*
X42661968Y34097215D01*
X42661966Y34097219D01*
X42517219Y34241966D01*
X42517215Y34241968D01*
X42517213Y34241971D01*
X42426155Y34308127D01*
X42351610Y34362287D01*
X42169219Y34455220D01*
X41974534Y34518477D01*
X41772352Y34550500D01*
X41567648Y34550500D01*
X41466557Y34534488D01*
X41365465Y34518477D01*
X41326376Y34505776D01*
X41170781Y34455220D01*
X41170778Y34455218D01*
X41170776Y34455218D01*
X41124444Y34431610D01*
X40988390Y34362287D01*
X40988386Y34362284D01*
X40822786Y34241971D01*
X40678028Y34097213D01*
X40557715Y33931613D01*
X40464781Y33749223D01*
X40401522Y33554534D01*
X40369500Y33352351D01*
X34900500Y33352351D01*
X34900500Y33374565D01*
X34867982Y33621565D01*
X34803502Y33862207D01*
X34708164Y34092373D01*
X34583599Y34308127D01*
X34431938Y34505776D01*
X34255776Y34681938D01*
X34058127Y34833599D01*
X33842373Y34958164D01*
X33612207Y35053502D01*
X33371565Y35117982D01*
X33124565Y35150500D01*
X32875435Y35150500D01*
X32628435Y35117982D01*
X32387793Y35053502D01*
X32256825Y34999253D01*
X32157638Y34958169D01*
X32157623Y34958162D01*
X31941873Y34833599D01*
X31744225Y34681939D01*
X31744218Y34681933D01*
X31568066Y34505781D01*
X31568060Y34505774D01*
X31416400Y34308126D01*
X31291837Y34092376D01*
X31291830Y34092361D01*
X31196498Y33862207D01*
X31132017Y33621561D01*
X31099501Y33374575D01*
X31099500Y33374558D01*
X25825438Y33374558D01*
X25839210Y33416944D01*
X25848475Y33445458D01*
X25848476Y33445464D01*
X25848477Y33445466D01*
X25880500Y33647648D01*
X25880500Y33852352D01*
X25848477Y34054534D01*
X25785220Y34249219D01*
X25692287Y34431610D01*
X25605909Y34550500D01*
X25571971Y34597213D01*
X25571968Y34597215D01*
X25571966Y34597219D01*
X25427219Y34741966D01*
X25427215Y34741968D01*
X25427213Y34741971D01*
X25314638Y34823760D01*
X25261610Y34862287D01*
X25079219Y34955220D01*
X24884534Y35018477D01*
X24682352Y35050500D01*
X24477648Y35050500D01*
X24376557Y35034488D01*
X24275465Y35018477D01*
X24185137Y34989127D01*
X24080781Y34955220D01*
X24080778Y34955218D01*
X24080776Y34955218D01*
X24014607Y34921503D01*
X23898390Y34862287D01*
X23898386Y34862284D01*
X23732786Y34741971D01*
X23588028Y34597213D01*
X23467715Y34431613D01*
X23374781Y34249223D01*
X23311522Y34054534D01*
X23279500Y33852351D01*
X15720500Y33852351D01*
X15707946Y33931610D01*
X15688477Y34054534D01*
X15625220Y34249219D01*
X15532287Y34431610D01*
X15445909Y34550500D01*
X15411971Y34597213D01*
X15411968Y34597215D01*
X15411966Y34597219D01*
X15267219Y34741966D01*
X15267215Y34741968D01*
X15267213Y34741971D01*
X15154638Y34823760D01*
X15101610Y34862287D01*
X14919219Y34955220D01*
X14724534Y35018477D01*
X14522352Y35050500D01*
X14317648Y35050500D01*
X14216557Y35034488D01*
X14115465Y35018477D01*
X14025137Y34989127D01*
X13920781Y34955220D01*
X13920778Y34955218D01*
X13920776Y34955218D01*
X13854607Y34921503D01*
X13738390Y34862287D01*
X13738386Y34862284D01*
X13572786Y34741971D01*
X13428028Y34597213D01*
X13307715Y34431613D01*
X13214781Y34249223D01*
X13151522Y34054534D01*
X13119500Y33852351D01*
X10000500Y33852351D01*
X10000500Y38352351D01*
X13119500Y38352351D01*
X13119500Y38147648D01*
X13151522Y37945465D01*
X13214781Y37750776D01*
X13307715Y37568386D01*
X13428028Y37402786D01*
X13572786Y37258028D01*
X13738386Y37137715D01*
X13920776Y37044781D01*
X14115465Y36981522D01*
X14293329Y36953351D01*
X14317648Y36949500D01*
X14317649Y36949500D01*
X14522351Y36949500D01*
X14522352Y36949500D01*
X14549995Y36953878D01*
X14724534Y36981522D01*
X14919223Y37044781D01*
X15044653Y37108691D01*
X15101610Y37137713D01*
X15134506Y37161613D01*
X15267213Y37258028D01*
X15411971Y37402786D01*
X15532284Y37568386D01*
X15532287Y37568390D01*
X15609282Y37719500D01*
X15625218Y37750776D01*
X15625461Y37751522D01*
X15688477Y37945466D01*
X15720500Y38147648D01*
X15720500Y38352351D01*
X23279500Y38352351D01*
X23279500Y38147648D01*
X23311522Y37945465D01*
X23374781Y37750776D01*
X23467715Y37568386D01*
X23588028Y37402786D01*
X23732786Y37258028D01*
X23898386Y37137715D01*
X24080776Y37044781D01*
X24275465Y36981522D01*
X24453329Y36953351D01*
X24477648Y36949500D01*
X24477649Y36949500D01*
X24682351Y36949500D01*
X24682352Y36949500D01*
X24709995Y36953878D01*
X24884534Y36981522D01*
X25079223Y37044781D01*
X25204653Y37108691D01*
X25261610Y37137713D01*
X25294506Y37161613D01*
X25427213Y37258028D01*
X25571971Y37402786D01*
X25692284Y37568386D01*
X25692287Y37568390D01*
X25769282Y37719500D01*
X25785218Y37750776D01*
X25785461Y37751522D01*
X25848477Y37945466D01*
X25880500Y38147648D01*
X25880500Y38352352D01*
X25876983Y38374558D01*
X31099500Y38374558D01*
X31099500Y38125441D01*
X31099501Y38125424D01*
X31132017Y37878438D01*
X31196498Y37637792D01*
X31291830Y37407638D01*
X31291837Y37407623D01*
X31416400Y37191873D01*
X31568060Y36994225D01*
X31568066Y36994218D01*
X31744218Y36818066D01*
X31744225Y36818060D01*
X31941873Y36666400D01*
X32157623Y36541837D01*
X32157638Y36541830D01*
X32387792Y36446498D01*
X32628438Y36382017D01*
X32875424Y36349501D01*
X32875429Y36349500D01*
X32875435Y36349500D01*
X32875442Y36349500D01*
X33124558Y36349500D01*
X33124565Y36349500D01*
X33124570Y36349500D01*
X33124575Y36349501D01*
X33371561Y36382017D01*
X33612207Y36446498D01*
X33842361Y36541830D01*
X33842376Y36541837D01*
X34058126Y36666400D01*
X34255774Y36818060D01*
X34255781Y36818066D01*
X34431933Y36994218D01*
X34431939Y36994225D01*
X34583599Y37191873D01*
X34708162Y37407623D01*
X34708169Y37407638D01*
X34749253Y37506825D01*
X34803502Y37637793D01*
X34867982Y37878435D01*
X34900500Y38125435D01*
X34900500Y38352351D01*
X40119500Y38352351D01*
X40119500Y38147648D01*
X40151522Y37945465D01*
X40214781Y37750776D01*
X40307715Y37568386D01*
X40428028Y37402786D01*
X40572786Y37258028D01*
X40738386Y37137715D01*
X40920776Y37044781D01*
X41115465Y36981522D01*
X41293329Y36953351D01*
X41317648Y36949500D01*
X41317649Y36949500D01*
X41522351Y36949500D01*
X41522352Y36949500D01*
X41549995Y36953878D01*
X41724534Y36981522D01*
X41919223Y37044781D01*
X42044653Y37108691D01*
X42101610Y37137713D01*
X42134506Y37161613D01*
X42267213Y37258028D01*
X42411971Y37402786D01*
X42532284Y37568386D01*
X42532287Y37568390D01*
X42609282Y37719500D01*
X42625218Y37750776D01*
X42625461Y37751522D01*
X42688477Y37945466D01*
X42720500Y38147648D01*
X42720500Y38352351D01*
X50279500Y38352351D01*
X50279500Y38147648D01*
X50311522Y37945465D01*
X50374781Y37750776D01*
X50467715Y37568386D01*
X50588028Y37402786D01*
X50732786Y37258028D01*
X50898386Y37137715D01*
X51080776Y37044781D01*
X51275465Y36981522D01*
X51453329Y36953351D01*
X51477648Y36949500D01*
X51477649Y36949500D01*
X51682351Y36949500D01*
X51682352Y36949500D01*
X51709995Y36953878D01*
X51884534Y36981522D01*
X52079223Y37044781D01*
X52204653Y37108691D01*
X52261610Y37137713D01*
X52294506Y37161613D01*
X52427213Y37258028D01*
X52571971Y37402786D01*
X52692284Y37568386D01*
X52692287Y37568390D01*
X52769282Y37719500D01*
X52785218Y37750776D01*
X52785461Y37751522D01*
X52848477Y37945466D01*
X52880500Y38147648D01*
X52880500Y38352352D01*
X52848477Y38554534D01*
X52785220Y38749219D01*
X52692287Y38931610D01*
X52575485Y39092376D01*
X52571971Y39097213D01*
X52571968Y39097215D01*
X52571966Y39097219D01*
X52427219Y39241966D01*
X52427215Y39241968D01*
X52427213Y39241971D01*
X52336155Y39308127D01*
X52261610Y39362287D01*
X52079219Y39455220D01*
X51884534Y39518477D01*
X51682352Y39550500D01*
X51477648Y39550500D01*
X51376557Y39534488D01*
X51275465Y39518477D01*
X51236376Y39505776D01*
X51080781Y39455220D01*
X51080778Y39455218D01*
X51080776Y39455218D01*
X51014607Y39421503D01*
X50898390Y39362287D01*
X50898386Y39362284D01*
X50732786Y39241971D01*
X50588028Y39097213D01*
X50467715Y38931613D01*
X50374781Y38749223D01*
X50311522Y38554534D01*
X50279500Y38352351D01*
X42720500Y38352351D01*
X42720500Y38352352D01*
X42688477Y38554534D01*
X42625220Y38749219D01*
X42532287Y38931610D01*
X42415485Y39092376D01*
X42411971Y39097213D01*
X42411968Y39097215D01*
X42411966Y39097219D01*
X42267219Y39241966D01*
X42267215Y39241968D01*
X42267213Y39241971D01*
X42176155Y39308127D01*
X42101610Y39362287D01*
X41919219Y39455220D01*
X41724534Y39518477D01*
X41522352Y39550500D01*
X41317648Y39550500D01*
X41216557Y39534488D01*
X41115465Y39518477D01*
X41076376Y39505776D01*
X40920781Y39455220D01*
X40920778Y39455218D01*
X40920776Y39455218D01*
X40854607Y39421503D01*
X40738390Y39362287D01*
X40738386Y39362284D01*
X40572786Y39241971D01*
X40428028Y39097213D01*
X40307715Y38931613D01*
X40214781Y38749223D01*
X40151522Y38554534D01*
X40119500Y38352351D01*
X34900500Y38352351D01*
X34900500Y38374565D01*
X34867982Y38621565D01*
X34803502Y38862207D01*
X34708164Y39092373D01*
X34583599Y39308127D01*
X34431938Y39505776D01*
X34255776Y39681938D01*
X34058127Y39833599D01*
X33842373Y39958164D01*
X33612207Y40053502D01*
X33371565Y40117982D01*
X33124565Y40150500D01*
X32875435Y40150500D01*
X32628435Y40117982D01*
X32387793Y40053502D01*
X32256825Y39999253D01*
X32157638Y39958169D01*
X32157623Y39958162D01*
X31941873Y39833599D01*
X31744225Y39681939D01*
X31744218Y39681933D01*
X31568066Y39505781D01*
X31568060Y39505774D01*
X31416400Y39308126D01*
X31291837Y39092376D01*
X31291830Y39092361D01*
X31219462Y38917648D01*
X31196498Y38862207D01*
X31157179Y38715465D01*
X31132017Y38621561D01*
X31099501Y38374575D01*
X31099500Y38374558D01*
X25876983Y38374558D01*
X25848477Y38554534D01*
X25785220Y38749219D01*
X25692287Y38931610D01*
X25575485Y39092376D01*
X25571971Y39097213D01*
X25571968Y39097215D01*
X25571966Y39097219D01*
X25427219Y39241966D01*
X25427215Y39241968D01*
X25427213Y39241971D01*
X25336155Y39308127D01*
X25261610Y39362287D01*
X25079219Y39455220D01*
X24884534Y39518477D01*
X24682352Y39550500D01*
X24477648Y39550500D01*
X24376557Y39534488D01*
X24275465Y39518477D01*
X24236376Y39505776D01*
X24080781Y39455220D01*
X24080778Y39455218D01*
X24080776Y39455218D01*
X24014607Y39421503D01*
X23898390Y39362287D01*
X23898386Y39362284D01*
X23732786Y39241971D01*
X23588028Y39097213D01*
X23467715Y38931613D01*
X23374781Y38749223D01*
X23311522Y38554534D01*
X23279500Y38352351D01*
X15720500Y38352351D01*
X15720500Y38352352D01*
X15688477Y38554534D01*
X15625220Y38749219D01*
X15532287Y38931610D01*
X15415485Y39092376D01*
X15411971Y39097213D01*
X15411968Y39097215D01*
X15411966Y39097219D01*
X15267219Y39241966D01*
X15267215Y39241968D01*
X15267213Y39241971D01*
X15176155Y39308127D01*
X15101610Y39362287D01*
X14919219Y39455220D01*
X14724534Y39518477D01*
X14522352Y39550500D01*
X14317648Y39550500D01*
X14216557Y39534488D01*
X14115465Y39518477D01*
X14076376Y39505776D01*
X13920781Y39455220D01*
X13920778Y39455218D01*
X13920776Y39455218D01*
X13854607Y39421503D01*
X13738390Y39362287D01*
X13738386Y39362284D01*
X13572786Y39241971D01*
X13428028Y39097213D01*
X13307715Y38931613D01*
X13214781Y38749223D01*
X13151522Y38554534D01*
X13119500Y38352351D01*
X10000500Y38352351D01*
X10000500Y43352351D01*
X13119500Y43352351D01*
X13119500Y43147648D01*
X13151522Y42945465D01*
X13214781Y42750776D01*
X13307715Y42568386D01*
X13428028Y42402786D01*
X13572786Y42258028D01*
X13738386Y42137715D01*
X13920776Y42044781D01*
X14115465Y41981522D01*
X14293329Y41953351D01*
X14317648Y41949500D01*
X14317649Y41949500D01*
X14522351Y41949500D01*
X14522352Y41949500D01*
X14549995Y41953878D01*
X14724534Y41981522D01*
X14919223Y42044781D01*
X15044653Y42108691D01*
X15101610Y42137713D01*
X15101613Y42137715D01*
X15267213Y42258028D01*
X15411971Y42402786D01*
X15532284Y42568386D01*
X15532287Y42568390D01*
X15591503Y42684607D01*
X15625218Y42750776D01*
X15627746Y42758554D01*
X15688477Y42945466D01*
X15695169Y42987713D01*
X15720500Y43147648D01*
X15720500Y43352351D01*
X23279500Y43352351D01*
X23279500Y43147648D01*
X23311522Y42945465D01*
X23374781Y42750776D01*
X23467715Y42568386D01*
X23588028Y42402786D01*
X23732786Y42258028D01*
X23898386Y42137715D01*
X24080776Y42044781D01*
X24275465Y41981522D01*
X24453329Y41953351D01*
X24477648Y41949500D01*
X24477649Y41949500D01*
X24682351Y41949500D01*
X24682352Y41949500D01*
X24709995Y41953878D01*
X24884534Y41981522D01*
X25079223Y42044781D01*
X25204653Y42108691D01*
X25261610Y42137713D01*
X25261613Y42137715D01*
X25427213Y42258028D01*
X25571971Y42402786D01*
X25692284Y42568386D01*
X25692287Y42568390D01*
X25751503Y42684607D01*
X25785218Y42750776D01*
X25787746Y42758554D01*
X25848477Y42945466D01*
X25855169Y42987713D01*
X25880500Y43147648D01*
X25880500Y43352349D01*
X25879411Y43359225D01*
X25879411Y43359226D01*
X25876983Y43374558D01*
X31099500Y43374558D01*
X31099500Y43125441D01*
X31099501Y43125424D01*
X31132017Y42878438D01*
X31196498Y42637792D01*
X31291830Y42407638D01*
X31291837Y42407623D01*
X31416400Y42191873D01*
X31568060Y41994225D01*
X31568066Y41994218D01*
X31744218Y41818066D01*
X31744225Y41818060D01*
X31941873Y41666400D01*
X32157623Y41541837D01*
X32157638Y41541830D01*
X32387792Y41446498D01*
X32628438Y41382017D01*
X32875424Y41349501D01*
X32875429Y41349500D01*
X32875435Y41349500D01*
X32875442Y41349500D01*
X33124558Y41349500D01*
X33124565Y41349500D01*
X33124570Y41349500D01*
X33124575Y41349501D01*
X33371561Y41382017D01*
X33612207Y41446498D01*
X33842361Y41541830D01*
X33842376Y41541837D01*
X34058126Y41666400D01*
X34255774Y41818060D01*
X34255781Y41818066D01*
X34431933Y41994218D01*
X34431939Y41994225D01*
X34583599Y42191873D01*
X34708162Y42407623D01*
X34708169Y42407638D01*
X34767953Y42551971D01*
X34803502Y42637793D01*
X34867982Y42878435D01*
X34900500Y43125435D01*
X34900500Y43352351D01*
X39619500Y43352351D01*
X39619500Y43147648D01*
X39651522Y42945465D01*
X39714781Y42750776D01*
X39807715Y42568386D01*
X39928028Y42402786D01*
X40072786Y42258028D01*
X40238386Y42137715D01*
X40420776Y42044781D01*
X40615465Y41981522D01*
X40793329Y41953351D01*
X40817648Y41949500D01*
X40817649Y41949500D01*
X41022351Y41949500D01*
X41022352Y41949500D01*
X41049995Y41953878D01*
X41224534Y41981522D01*
X41419223Y42044781D01*
X41544653Y42108691D01*
X41601610Y42137713D01*
X41601613Y42137715D01*
X41767213Y42258028D01*
X41911971Y42402786D01*
X42032284Y42568386D01*
X42032287Y42568390D01*
X42091503Y42684607D01*
X42125218Y42750776D01*
X42127746Y42758554D01*
X42188477Y42945466D01*
X42195169Y42987713D01*
X42220500Y43147648D01*
X42220500Y43352351D01*
X49779500Y43352351D01*
X49779500Y43147648D01*
X49811522Y42945465D01*
X49874781Y42750776D01*
X49967715Y42568386D01*
X50088028Y42402786D01*
X50232786Y42258028D01*
X50398386Y42137715D01*
X50580776Y42044781D01*
X50775465Y41981522D01*
X50953329Y41953351D01*
X50977648Y41949500D01*
X50977649Y41949500D01*
X51182351Y41949500D01*
X51182352Y41949500D01*
X51209995Y41953878D01*
X51384534Y41981522D01*
X51579223Y42044781D01*
X51704653Y42108691D01*
X51761610Y42137713D01*
X51761613Y42137715D01*
X51927213Y42258028D01*
X52071971Y42402786D01*
X52192284Y42568386D01*
X52192287Y42568390D01*
X52251503Y42684607D01*
X52285218Y42750776D01*
X52287746Y42758554D01*
X52348477Y42945466D01*
X52355169Y42987713D01*
X52380500Y43147648D01*
X52380500Y43352351D01*
X52348477Y43554534D01*
X52332940Y43602352D01*
X52285220Y43749219D01*
X52192287Y43931610D01*
X52075485Y44092376D01*
X52071971Y44097213D01*
X52071968Y44097215D01*
X52071966Y44097219D01*
X51927219Y44241966D01*
X51927215Y44241968D01*
X51927213Y44241971D01*
X51836155Y44308127D01*
X51761610Y44362287D01*
X51579219Y44455220D01*
X51384534Y44518477D01*
X51182352Y44550500D01*
X50977648Y44550500D01*
X50876557Y44534488D01*
X50775465Y44518477D01*
X50685137Y44489127D01*
X50580781Y44455220D01*
X50580778Y44455218D01*
X50580776Y44455218D01*
X50514607Y44421503D01*
X50398390Y44362287D01*
X50398386Y44362284D01*
X50232786Y44241971D01*
X50088028Y44097213D01*
X49967715Y43931613D01*
X49874781Y43749223D01*
X49811522Y43554534D01*
X49779500Y43352351D01*
X42220500Y43352351D01*
X42188477Y43554534D01*
X42172940Y43602352D01*
X42125220Y43749219D01*
X42032287Y43931610D01*
X41915485Y44092376D01*
X41911971Y44097213D01*
X41911968Y44097215D01*
X41911966Y44097219D01*
X41767219Y44241966D01*
X41767215Y44241968D01*
X41767213Y44241971D01*
X41676155Y44308127D01*
X41601610Y44362287D01*
X41419219Y44455220D01*
X41224534Y44518477D01*
X41022352Y44550500D01*
X40817648Y44550500D01*
X40716557Y44534488D01*
X40615465Y44518477D01*
X40525137Y44489127D01*
X40420781Y44455220D01*
X40420778Y44455218D01*
X40420776Y44455218D01*
X40354607Y44421503D01*
X40238390Y44362287D01*
X40238386Y44362284D01*
X40072786Y44241971D01*
X39928028Y44097213D01*
X39807715Y43931613D01*
X39714781Y43749223D01*
X39651522Y43554534D01*
X39619500Y43352351D01*
X34900500Y43352351D01*
X34900500Y43374565D01*
X34867982Y43621565D01*
X34803502Y43862207D01*
X34708164Y44092373D01*
X34583599Y44308127D01*
X34431938Y44505776D01*
X34255776Y44681938D01*
X34058127Y44833599D01*
X33842373Y44958164D01*
X33612207Y45053502D01*
X33371565Y45117982D01*
X33124565Y45150500D01*
X32875435Y45150500D01*
X32628435Y45117982D01*
X32387793Y45053502D01*
X32256825Y44999253D01*
X32157638Y44958169D01*
X32157623Y44958162D01*
X31941873Y44833599D01*
X31744225Y44681939D01*
X31744218Y44681933D01*
X31568066Y44505781D01*
X31568060Y44505774D01*
X31416400Y44308126D01*
X31291837Y44092376D01*
X31291830Y44092361D01*
X31196498Y43862207D01*
X31178615Y43795465D01*
X31132017Y43621561D01*
X31099501Y43374575D01*
X31099500Y43374558D01*
X25876983Y43374558D01*
X25848477Y43554534D01*
X25832940Y43602352D01*
X25785220Y43749219D01*
X25692287Y43931610D01*
X25575485Y44092376D01*
X25571971Y44097213D01*
X25571968Y44097215D01*
X25571966Y44097219D01*
X25427219Y44241966D01*
X25427215Y44241968D01*
X25427213Y44241971D01*
X25336155Y44308127D01*
X25261610Y44362287D01*
X25079219Y44455220D01*
X24884534Y44518477D01*
X24682352Y44550500D01*
X24477648Y44550500D01*
X24376557Y44534488D01*
X24275465Y44518477D01*
X24185137Y44489127D01*
X24080781Y44455220D01*
X24080778Y44455218D01*
X24080776Y44455218D01*
X24014607Y44421503D01*
X23898390Y44362287D01*
X23898386Y44362284D01*
X23732786Y44241971D01*
X23588028Y44097213D01*
X23467715Y43931613D01*
X23374781Y43749223D01*
X23311522Y43554534D01*
X23279500Y43352351D01*
X15720500Y43352351D01*
X15688477Y43554534D01*
X15672940Y43602352D01*
X15625220Y43749219D01*
X15532287Y43931610D01*
X15415485Y44092376D01*
X15411971Y44097213D01*
X15411968Y44097215D01*
X15411966Y44097219D01*
X15267219Y44241966D01*
X15267215Y44241968D01*
X15267213Y44241971D01*
X15176155Y44308127D01*
X15101610Y44362287D01*
X14919219Y44455220D01*
X14724534Y44518477D01*
X14522352Y44550500D01*
X14317648Y44550500D01*
X14216557Y44534488D01*
X14115465Y44518477D01*
X14025137Y44489127D01*
X13920781Y44455220D01*
X13920778Y44455218D01*
X13920776Y44455218D01*
X13854607Y44421503D01*
X13738390Y44362287D01*
X13738386Y44362284D01*
X13572786Y44241971D01*
X13428028Y44097213D01*
X13307715Y43931613D01*
X13214781Y43749223D01*
X13151522Y43554534D01*
X13119500Y43352351D01*
X10000500Y43352351D01*
X10000500Y48352351D01*
X13119500Y48352351D01*
X13119500Y48147648D01*
X13151522Y47945465D01*
X13214781Y47750776D01*
X13307715Y47568386D01*
X13428028Y47402786D01*
X13572786Y47258028D01*
X13738386Y47137715D01*
X13920776Y47044781D01*
X14115465Y46981522D01*
X14293329Y46953351D01*
X14317648Y46949500D01*
X14317649Y46949500D01*
X14522351Y46949500D01*
X14522352Y46949500D01*
X14549995Y46953878D01*
X14724534Y46981522D01*
X14919223Y47044781D01*
X15044653Y47108691D01*
X15101610Y47137713D01*
X15103683Y47139219D01*
X15267213Y47258028D01*
X15411971Y47402786D01*
X15532284Y47568386D01*
X15532287Y47568390D01*
X15591503Y47684607D01*
X15625218Y47750776D01*
X15641055Y47799515D01*
X15676459Y47908477D01*
X15688477Y47945465D01*
X15720500Y48147648D01*
X15720500Y48352351D01*
X23279500Y48352351D01*
X23279500Y48147648D01*
X23311522Y47945465D01*
X23374781Y47750776D01*
X23467715Y47568386D01*
X23588028Y47402786D01*
X23732786Y47258028D01*
X23898386Y47137715D01*
X24080776Y47044781D01*
X24275465Y46981522D01*
X24453329Y46953351D01*
X24477648Y46949500D01*
X24477649Y46949500D01*
X24682351Y46949500D01*
X24682352Y46949500D01*
X24709995Y46953878D01*
X24884534Y46981522D01*
X25079223Y47044781D01*
X25204653Y47108691D01*
X25261610Y47137713D01*
X25263683Y47139219D01*
X25427213Y47258028D01*
X25571971Y47402786D01*
X25692284Y47568386D01*
X25692287Y47568390D01*
X25751503Y47684607D01*
X25785218Y47750776D01*
X25801055Y47799515D01*
X25836459Y47908477D01*
X25848477Y47945465D01*
X25880500Y48147648D01*
X25880500Y48352351D01*
X25848477Y48554534D01*
X25807458Y48680776D01*
X25785220Y48749219D01*
X25692287Y48931610D01*
X25624732Y49024590D01*
X25571971Y49097213D01*
X25571968Y49097215D01*
X25571966Y49097219D01*
X25427219Y49241966D01*
X25261610Y49362287D01*
X25089434Y49450015D01*
X31099500Y49450015D01*
X31099500Y47049984D01*
X31110000Y46947204D01*
X31110001Y46947203D01*
X31165186Y46780664D01*
X31165187Y46780662D01*
X31257286Y46631348D01*
X31257289Y46631344D01*
X31381344Y46507289D01*
X31381348Y46507286D01*
X31530662Y46415187D01*
X31530664Y46415186D01*
X31697203Y46360001D01*
X31697204Y46360000D01*
X31799984Y46349500D01*
X31799992Y46349500D01*
X34200015Y46349500D01*
X34302795Y46360000D01*
X34302797Y46360001D01*
X34386065Y46387593D01*
X34469335Y46415186D01*
X34469337Y46415187D01*
X34618651Y46507286D01*
X34618655Y46507289D01*
X34742710Y46631344D01*
X34742713Y46631348D01*
X34834812Y46780662D01*
X34834813Y46780664D01*
X34834814Y46780666D01*
X34889999Y46947203D01*
X34900500Y47049992D01*
X34900500Y48352351D01*
X39619500Y48352351D01*
X39619500Y48147648D01*
X39651522Y47945465D01*
X39714781Y47750776D01*
X39807715Y47568386D01*
X39928028Y47402786D01*
X40072786Y47258028D01*
X40238386Y47137715D01*
X40420776Y47044781D01*
X40615465Y46981522D01*
X40793329Y46953351D01*
X40817648Y46949500D01*
X40817649Y46949500D01*
X41022351Y46949500D01*
X41022352Y46949500D01*
X41049995Y46953878D01*
X41224534Y46981522D01*
X41419223Y47044781D01*
X41544653Y47108691D01*
X41601610Y47137713D01*
X41603683Y47139219D01*
X41767213Y47258028D01*
X41911971Y47402786D01*
X42032284Y47568386D01*
X42032287Y47568390D01*
X42091503Y47684607D01*
X42125218Y47750776D01*
X42141055Y47799515D01*
X42176459Y47908477D01*
X42188477Y47945465D01*
X42220500Y48147648D01*
X42220500Y48352351D01*
X49779500Y48352351D01*
X49779500Y48147648D01*
X49811522Y47945465D01*
X49874781Y47750776D01*
X49967715Y47568386D01*
X50088028Y47402786D01*
X50232786Y47258028D01*
X50398386Y47137715D01*
X50580776Y47044781D01*
X50775465Y46981522D01*
X50953329Y46953351D01*
X50977648Y46949500D01*
X50977649Y46949500D01*
X51182351Y46949500D01*
X51182352Y46949500D01*
X51209995Y46953878D01*
X51384534Y46981522D01*
X51579223Y47044781D01*
X51704653Y47108691D01*
X51761610Y47137713D01*
X51763683Y47139219D01*
X51927213Y47258028D01*
X52071971Y47402786D01*
X52192284Y47568386D01*
X52192287Y47568390D01*
X52251503Y47684607D01*
X52285218Y47750776D01*
X52301055Y47799515D01*
X52336459Y47908477D01*
X52348477Y47945465D01*
X52380500Y48147648D01*
X52380500Y48352351D01*
X52348477Y48554534D01*
X52307458Y48680776D01*
X52285220Y48749219D01*
X52192287Y48931610D01*
X52124732Y49024590D01*
X52071971Y49097213D01*
X52071968Y49097215D01*
X52071966Y49097219D01*
X51927219Y49241966D01*
X51927215Y49241968D01*
X51927213Y49241971D01*
X51854590Y49294732D01*
X51761610Y49362287D01*
X51579219Y49455220D01*
X51384534Y49518477D01*
X51182352Y49550500D01*
X50977648Y49550500D01*
X50876557Y49534488D01*
X50775465Y49518477D01*
X50685137Y49489127D01*
X50580781Y49455220D01*
X50580778Y49455218D01*
X50580776Y49455218D01*
X50514607Y49421503D01*
X50398390Y49362287D01*
X50398386Y49362284D01*
X50232786Y49241971D01*
X50088028Y49097213D01*
X49967715Y48931613D01*
X49874781Y48749223D01*
X49811522Y48554534D01*
X49779500Y48352351D01*
X42220500Y48352351D01*
X42188477Y48554534D01*
X42147458Y48680776D01*
X42125220Y48749219D01*
X42032287Y48931610D01*
X41964732Y49024590D01*
X41911971Y49097213D01*
X41911968Y49097215D01*
X41911966Y49097219D01*
X41767219Y49241966D01*
X41767215Y49241968D01*
X41767213Y49241971D01*
X41694590Y49294732D01*
X41601610Y49362287D01*
X41419219Y49455220D01*
X41224534Y49518477D01*
X41022352Y49550500D01*
X40817648Y49550500D01*
X40716557Y49534488D01*
X40615465Y49518477D01*
X40525137Y49489127D01*
X40420781Y49455220D01*
X40420778Y49455218D01*
X40420776Y49455218D01*
X40354607Y49421503D01*
X40238390Y49362287D01*
X40238386Y49362284D01*
X40072786Y49241971D01*
X39928028Y49097213D01*
X39807715Y48931613D01*
X39714781Y48749223D01*
X39651522Y48554534D01*
X39619500Y48352351D01*
X34900500Y48352351D01*
X34900500Y49450008D01*
X34889999Y49552797D01*
X34834814Y49719334D01*
X34742711Y49868655D01*
X34618655Y49992711D01*
X34469334Y50084814D01*
X34302797Y50139999D01*
X34200008Y50150500D01*
X31799992Y50150500D01*
X31697203Y50139999D01*
X31530666Y50084814D01*
X31530664Y50084813D01*
X31530662Y50084812D01*
X31381348Y49992713D01*
X31381344Y49992710D01*
X31257289Y49868655D01*
X31257286Y49868651D01*
X31165187Y49719337D01*
X31165186Y49719335D01*
X31110002Y49552800D01*
X31110000Y49552795D01*
X31099500Y49450015D01*
X25089434Y49450015D01*
X25079219Y49455220D01*
X24884534Y49518477D01*
X24682352Y49550500D01*
X24477648Y49550500D01*
X24376557Y49534488D01*
X24275465Y49518477D01*
X24185137Y49489127D01*
X24080781Y49455220D01*
X24080778Y49455218D01*
X24080776Y49455218D01*
X24014607Y49421503D01*
X23898390Y49362287D01*
X23898386Y49362284D01*
X23732786Y49241971D01*
X23588028Y49097213D01*
X23467715Y48931613D01*
X23374781Y48749223D01*
X23311522Y48554534D01*
X23279500Y48352351D01*
X15720500Y48352351D01*
X15688477Y48554534D01*
X15647458Y48680776D01*
X15625220Y48749219D01*
X15532287Y48931610D01*
X15464732Y49024590D01*
X15411971Y49097213D01*
X15411968Y49097215D01*
X15411966Y49097219D01*
X15267219Y49241966D01*
X15267215Y49241968D01*
X15267213Y49241971D01*
X15194590Y49294732D01*
X15101610Y49362287D01*
X14919219Y49455220D01*
X14724534Y49518477D01*
X14522352Y49550500D01*
X14317648Y49550500D01*
X14216557Y49534488D01*
X14115465Y49518477D01*
X14025137Y49489127D01*
X13920781Y49455220D01*
X13920778Y49455218D01*
X13920776Y49455218D01*
X13854607Y49421503D01*
X13738390Y49362287D01*
X13738386Y49362284D01*
X13572786Y49241971D01*
X13428028Y49097213D01*
X13307715Y48931613D01*
X13214781Y48749223D01*
X13151522Y48554534D01*
X13119500Y48352351D01*
X10000500Y48352351D01*
X10000500Y55114741D01*
X55249500Y55114741D01*
X55249500Y54885258D01*
X55279451Y54657770D01*
X55279453Y54657759D01*
X55338842Y54436112D01*
X55426650Y54224123D01*
X55426657Y54224109D01*
X55541392Y54025382D01*
X55681081Y53843338D01*
X55843339Y53681081D01*
X55950988Y53598478D01*
X55992190Y53542050D01*
X55999500Y53500103D01*
X55999500Y23151456D01*
X55999499Y23151456D01*
X56037947Y22958170D01*
X56037950Y22958160D01*
X56113364Y22776092D01*
X56113371Y22776079D01*
X56222859Y22612219D01*
X56260299Y22574780D01*
X56362218Y22472861D01*
X56362220Y22472859D01*
X62222860Y16612219D01*
X62222861Y16612218D01*
X62292540Y16542538D01*
X62362219Y16472859D01*
X62526080Y16363371D01*
X62526089Y16363366D01*
X62574441Y16343339D01*
X62708163Y16287949D01*
X62708171Y16287947D01*
X62901454Y16249500D01*
X62901459Y16249500D01*
X63098540Y16249500D01*
X72500104Y16249500D01*
X72567143Y16229815D01*
X72598480Y16200986D01*
X72681079Y16093340D01*
X72681085Y16093333D01*
X72843330Y15931089D01*
X72843338Y15931081D01*
X73025382Y15791392D01*
X73224109Y15676657D01*
X73224123Y15676650D01*
X73436112Y15588842D01*
X73564076Y15554554D01*
X73657762Y15529452D01*
X73657770Y15529451D01*
X73885258Y15499500D01*
X73885266Y15499500D01*
X74114741Y15499500D01*
X74304215Y15524446D01*
X74342238Y15529452D01*
X74563887Y15588842D01*
X74775876Y15676650D01*
X74775890Y15676657D01*
X74974617Y15791392D01*
X75156661Y15931081D01*
X75156670Y15931089D01*
X75318911Y16093330D01*
X75318918Y16093338D01*
X75458607Y16275382D01*
X75458608Y16275385D01*
X75458611Y16275388D01*
X75573344Y16474112D01*
X75594786Y16525876D01*
X75621140Y16589501D01*
X75661158Y16686113D01*
X75720548Y16907762D01*
X75750500Y17135266D01*
X75750500Y17364734D01*
X75720548Y17592238D01*
X75714518Y17614741D01*
X98499500Y17614741D01*
X98499500Y17385258D01*
X98529451Y17157770D01*
X98529453Y17157759D01*
X98588842Y16936112D01*
X98676650Y16724123D01*
X98676657Y16724109D01*
X98791392Y16525382D01*
X98931081Y16343339D01*
X98931089Y16343330D01*
X99093338Y16181081D01*
X99275382Y16041392D01*
X99474109Y15926657D01*
X99474123Y15926650D01*
X99686112Y15838842D01*
X99814076Y15804554D01*
X99907762Y15779452D01*
X99907770Y15779451D01*
X100135258Y15749500D01*
X100135266Y15749500D01*
X100364727Y15749500D01*
X100364734Y15749500D01*
X100364739Y15749500D01*
X100364744Y15749501D01*
X100499259Y15767210D01*
X100568294Y15756444D01*
X100603125Y15731952D01*
X101362218Y14972859D01*
X101403046Y14945580D01*
X101403045Y14945579D01*
X101526084Y14863368D01*
X101611918Y14827814D01*
X101654834Y14810038D01*
X101654834Y14810037D01*
X101708161Y14787949D01*
X101708167Y14787947D01*
X101804812Y14768724D01*
X101901455Y14749500D01*
X101901459Y14749500D01*
X101901460Y14749500D01*
X102098540Y14749500D01*
X114250104Y14749500D01*
X114317143Y14729815D01*
X114348480Y14700986D01*
X114431079Y14593340D01*
X114431085Y14593333D01*
X114593330Y14431089D01*
X114593338Y14431081D01*
X114775382Y14291392D01*
X114974109Y14176657D01*
X114974123Y14176650D01*
X115186112Y14088842D01*
X115314076Y14054554D01*
X115407762Y14029452D01*
X115407770Y14029451D01*
X115635258Y13999500D01*
X115635266Y13999500D01*
X115864741Y13999500D01*
X116054215Y14024446D01*
X116092238Y14029452D01*
X116313887Y14088842D01*
X116525876Y14176650D01*
X116525890Y14176657D01*
X116724617Y14291392D01*
X116906661Y14431081D01*
X116906670Y14431089D01*
X117068911Y14593330D01*
X117068918Y14593338D01*
X117143102Y14690015D01*
X130099500Y14690015D01*
X130099500Y12289984D01*
X130110000Y12187204D01*
X130110001Y12187203D01*
X130165186Y12020664D01*
X130165187Y12020662D01*
X130257286Y11871348D01*
X130257289Y11871344D01*
X130381344Y11747289D01*
X130381348Y11747286D01*
X130530662Y11655187D01*
X130530664Y11655186D01*
X130697203Y11600001D01*
X130697204Y11600000D01*
X130799984Y11589500D01*
X130799992Y11589500D01*
X133200015Y11589500D01*
X133302795Y11600000D01*
X133302797Y11600001D01*
X133386065Y11627593D01*
X133469335Y11655186D01*
X133469337Y11655187D01*
X133618651Y11747286D01*
X133618655Y11747289D01*
X133742710Y11871344D01*
X133742713Y11871348D01*
X133834812Y12020662D01*
X133834813Y12020664D01*
X133834814Y12020666D01*
X133889999Y12187203D01*
X133900500Y12289992D01*
X133900500Y14690008D01*
X133889999Y14792797D01*
X133834814Y14959334D01*
X133742711Y15108655D01*
X133618655Y15232711D01*
X133469334Y15324814D01*
X133302797Y15379999D01*
X133200008Y15390500D01*
X130799992Y15390500D01*
X130697203Y15379999D01*
X130530666Y15324814D01*
X130530664Y15324813D01*
X130530662Y15324812D01*
X130381348Y15232713D01*
X130381344Y15232710D01*
X130257289Y15108655D01*
X130257286Y15108651D01*
X130165187Y14959337D01*
X130165186Y14959335D01*
X130110001Y14792796D01*
X130110000Y14792795D01*
X130099500Y14690015D01*
X117143102Y14690015D01*
X117203443Y14768652D01*
X117208608Y14775384D01*
X117208611Y14775388D01*
X117323344Y14974112D01*
X117411158Y15186113D01*
X117470548Y15407762D01*
X117500500Y15635266D01*
X117500500Y15864734D01*
X117470548Y16092238D01*
X117411158Y16313887D01*
X117323344Y16525888D01*
X117208611Y16724612D01*
X117068919Y16906661D01*
X117068914Y16906666D01*
X117068911Y16906670D01*
X116906670Y17068911D01*
X116906665Y17068914D01*
X116906661Y17068919D01*
X116724612Y17208611D01*
X116525888Y17323344D01*
X116313887Y17411158D01*
X116092238Y17470548D01*
X115864734Y17500500D01*
X115635266Y17500500D01*
X115407762Y17470548D01*
X115186113Y17411158D01*
X115074053Y17364741D01*
X114974123Y17323349D01*
X114974117Y17323346D01*
X114974112Y17323344D01*
X114775388Y17208611D01*
X114775385Y17208608D01*
X114775382Y17208607D01*
X114593338Y17068918D01*
X114593330Y17068911D01*
X114431085Y16906666D01*
X114431079Y16906659D01*
X114348480Y16799014D01*
X114292052Y16757811D01*
X114250104Y16750500D01*
X102465783Y16750500D01*
X102398744Y16770185D01*
X102378102Y16786819D01*
X102352914Y16812006D01*
X102018044Y17146875D01*
X101984561Y17208196D01*
X101982788Y17250734D01*
X102000500Y17385266D01*
X102000500Y17614734D01*
X101970548Y17842238D01*
X101911158Y18063887D01*
X101823344Y18275888D01*
X101708611Y18474612D01*
X101601226Y18614558D01*
X130099500Y18614558D01*
X130099500Y18365441D01*
X130099501Y18365424D01*
X130132017Y18118438D01*
X130196498Y17877792D01*
X130291830Y17647638D01*
X130291837Y17647623D01*
X130416400Y17431873D01*
X130568060Y17234225D01*
X130568066Y17234218D01*
X130744218Y17058066D01*
X130744225Y17058060D01*
X130941873Y16906400D01*
X131157623Y16781837D01*
X131157638Y16781830D01*
X131387792Y16686498D01*
X131628438Y16622017D01*
X131875424Y16589501D01*
X131875429Y16589500D01*
X131875435Y16589500D01*
X131875442Y16589500D01*
X132124558Y16589500D01*
X132124565Y16589500D01*
X132124570Y16589500D01*
X132124575Y16589501D01*
X132371561Y16622017D01*
X132612207Y16686498D01*
X132842361Y16781830D01*
X132842376Y16781837D01*
X133058126Y16906400D01*
X133255774Y17058060D01*
X133255781Y17058066D01*
X133431933Y17234218D01*
X133431939Y17234225D01*
X133583599Y17431873D01*
X133708162Y17647623D01*
X133708169Y17647638D01*
X133777031Y17813887D01*
X133803502Y17877793D01*
X133867982Y18118435D01*
X133900500Y18365435D01*
X133900500Y18614565D01*
X133867982Y18861565D01*
X133803502Y19102207D01*
X133708164Y19332373D01*
X133583599Y19548127D01*
X133431938Y19745776D01*
X133255776Y19921938D01*
X133058127Y20073599D01*
X132842373Y20198164D01*
X132612207Y20293502D01*
X132371565Y20357982D01*
X132124565Y20390500D01*
X131875435Y20390500D01*
X131628435Y20357982D01*
X131387793Y20293502D01*
X131278024Y20248034D01*
X131157638Y20198169D01*
X131157623Y20198162D01*
X130941873Y20073599D01*
X130744225Y19921939D01*
X130744218Y19921933D01*
X130568066Y19745781D01*
X130568060Y19745774D01*
X130416400Y19548126D01*
X130291837Y19332376D01*
X130291830Y19332361D01*
X130220916Y19161158D01*
X130196498Y19102207D01*
X130158022Y18958611D01*
X130132017Y18861561D01*
X130099501Y18614575D01*
X130099500Y18614558D01*
X101601226Y18614558D01*
X101568919Y18656661D01*
X101568914Y18656665D01*
X101568911Y18656670D01*
X101406670Y18818911D01*
X101406665Y18818914D01*
X101406661Y18818919D01*
X101224612Y18958611D01*
X101025888Y19073344D01*
X100813887Y19161158D01*
X100592238Y19220548D01*
X100364734Y19250500D01*
X100135266Y19250500D01*
X99907762Y19220548D01*
X99686113Y19161158D01*
X99565480Y19111190D01*
X99474123Y19073349D01*
X99474117Y19073346D01*
X99474112Y19073344D01*
X99275388Y18958611D01*
X99275385Y18958608D01*
X99275382Y18958607D01*
X99213546Y18911158D01*
X99099113Y18823349D01*
X99093338Y18818918D01*
X99093330Y18818911D01*
X98931089Y18656670D01*
X98931081Y18656661D01*
X98791392Y18474617D01*
X98791389Y18474612D01*
X98752158Y18406661D01*
X98676657Y18275890D01*
X98676650Y18275876D01*
X98588842Y18063887D01*
X98529452Y17842238D01*
X98524446Y17804215D01*
X98499500Y17614741D01*
X75714518Y17614741D01*
X75661158Y17813887D01*
X75573344Y18025888D01*
X75458611Y18224612D01*
X75318919Y18406661D01*
X75318914Y18406666D01*
X75318911Y18406670D01*
X75156670Y18568911D01*
X75156665Y18568914D01*
X75156661Y18568919D01*
X74974612Y18708611D01*
X74775888Y18823344D01*
X74563887Y18911158D01*
X74342238Y18970548D01*
X74114734Y19000500D01*
X73885266Y19000500D01*
X73657762Y18970548D01*
X73436113Y18911158D01*
X73316385Y18861565D01*
X73224123Y18823349D01*
X73224117Y18823346D01*
X73224112Y18823344D01*
X73025388Y18708611D01*
X73025385Y18708608D01*
X73025382Y18708607D01*
X72843338Y18568918D01*
X72843330Y18568911D01*
X72681085Y18406666D01*
X72681079Y18406659D01*
X72598480Y18299014D01*
X72542052Y18257811D01*
X72500104Y18250500D01*
X63465783Y18250500D01*
X63398744Y18270185D01*
X63378102Y18286819D01*
X58036819Y23628101D01*
X58003334Y23689424D01*
X58000500Y23715782D01*
X58000500Y27987864D01*
X62514500Y27987864D01*
X62514500Y26292129D01*
X62514501Y26292123D01*
X62520908Y26232516D01*
X62571202Y26097671D01*
X62571206Y26097664D01*
X62657452Y25982455D01*
X62657455Y25982452D01*
X62772664Y25896206D01*
X62772671Y25896202D01*
X62907517Y25845908D01*
X62907516Y25845908D01*
X62967116Y25839501D01*
X62967119Y25839500D01*
X62967127Y25839500D01*
X62967134Y25839500D01*
X62967135Y25839500D01*
X64662870Y25839500D01*
X64662876Y25839501D01*
X64722483Y25845908D01*
X64857328Y25896202D01*
X64857335Y25896206D01*
X64972544Y25982452D01*
X64972547Y25982455D01*
X65058793Y26097664D01*
X65058797Y26097671D01*
X65109091Y26232517D01*
X65115500Y26292127D01*
X65115499Y27987872D01*
X65109091Y28047483D01*
X65058796Y28182331D01*
X64972546Y28297546D01*
X64857331Y28383796D01*
X64722483Y28434091D01*
X64662873Y28440500D01*
X62967128Y28440499D01*
X62918757Y28435299D01*
X62907516Y28434091D01*
X62772671Y28383797D01*
X62772664Y28383793D01*
X62657455Y28297547D01*
X62657452Y28297544D01*
X62571206Y28182335D01*
X62571204Y28182331D01*
X62520908Y28047482D01*
X62517178Y28012781D01*
X62514501Y27987876D01*
X62514500Y27987864D01*
X58000500Y27987864D01*
X58000500Y38487864D01*
X62219613Y38487864D01*
X62219613Y36792129D01*
X62219614Y36792123D01*
X62226021Y36732516D01*
X62276315Y36597671D01*
X62276319Y36597664D01*
X62362565Y36482455D01*
X62362568Y36482452D01*
X62477777Y36396206D01*
X62477784Y36396202D01*
X62612630Y36345908D01*
X62612629Y36345908D01*
X62672229Y36339501D01*
X62672232Y36339500D01*
X62672240Y36339500D01*
X62672247Y36339500D01*
X62672248Y36339500D01*
X64367983Y36339500D01*
X64367989Y36339501D01*
X64427596Y36345908D01*
X64562441Y36396202D01*
X64562448Y36396206D01*
X64677657Y36482452D01*
X64677660Y36482455D01*
X64763906Y36597664D01*
X64763910Y36597671D01*
X64814204Y36732517D01*
X64816329Y36752284D01*
X64820613Y36792127D01*
X64820612Y38487872D01*
X64814204Y38547483D01*
X64763909Y38682331D01*
X64677659Y38797546D01*
X64562444Y38883796D01*
X64427596Y38934091D01*
X64367986Y38940500D01*
X62672241Y38940499D01*
X62623870Y38935299D01*
X62612629Y38934091D01*
X62477784Y38883797D01*
X62477777Y38883793D01*
X62362568Y38797547D01*
X62362565Y38797544D01*
X62276319Y38682335D01*
X62276315Y38682328D01*
X62226021Y38547482D01*
X62219614Y38487883D01*
X62219614Y38487876D01*
X62219613Y38487864D01*
X58000500Y38487864D01*
X58000500Y53500103D01*
X58020185Y53567142D01*
X58049012Y53598478D01*
X58051393Y53600305D01*
X58156661Y53681081D01*
X58318919Y53843339D01*
X58404958Y53955466D01*
X58458607Y54025382D01*
X58458608Y54025385D01*
X58458611Y54025388D01*
X58573344Y54224112D01*
X58661158Y54436113D01*
X58720548Y54657762D01*
X58750500Y54885266D01*
X58750500Y55114734D01*
X58720548Y55342238D01*
X58661158Y55563887D01*
X58573344Y55775888D01*
X58458611Y55974612D01*
X58318919Y56156661D01*
X58318914Y56156665D01*
X58318911Y56156670D01*
X58156670Y56318911D01*
X58156665Y56318914D01*
X58156661Y56318919D01*
X57974612Y56458611D01*
X57775888Y56573344D01*
X57563887Y56661158D01*
X57342238Y56720548D01*
X57114734Y56750500D01*
X56885266Y56750500D01*
X56657762Y56720548D01*
X56436113Y56661158D01*
X56379703Y56637792D01*
X56224123Y56573349D01*
X56224117Y56573346D01*
X56224112Y56573344D01*
X56025388Y56458611D01*
X56025385Y56458608D01*
X56025382Y56458607D01*
X55843338Y56318918D01*
X55843330Y56318911D01*
X55681089Y56156670D01*
X55681081Y56156661D01*
X55541392Y55974617D01*
X55426657Y55775890D01*
X55426650Y55775876D01*
X55342761Y55573349D01*
X55338842Y55563887D01*
X55279452Y55342238D01*
X55279451Y55342229D01*
X55249500Y55114741D01*
X10000500Y55114741D01*
X10000500Y57352351D01*
X12619500Y57352351D01*
X12619500Y57147648D01*
X12651522Y56945465D01*
X12714781Y56750776D01*
X12807715Y56568386D01*
X12928028Y56402786D01*
X13072786Y56258028D01*
X13238386Y56137715D01*
X13420776Y56044781D01*
X13615465Y55981522D01*
X13793329Y55953351D01*
X13817648Y55949500D01*
X13817649Y55949500D01*
X14022351Y55949500D01*
X14022352Y55949500D01*
X14049995Y55953878D01*
X14224534Y55981522D01*
X14419223Y56044781D01*
X14544653Y56108691D01*
X14601610Y56137713D01*
X14627690Y56156661D01*
X14767213Y56258028D01*
X14911971Y56402786D01*
X15032284Y56568386D01*
X15032287Y56568390D01*
X15091503Y56684607D01*
X15125218Y56750776D01*
X15133785Y56777140D01*
X15188477Y56945466D01*
X15220500Y57147648D01*
X15220500Y57352351D01*
X22779500Y57352351D01*
X22779500Y57147648D01*
X22811522Y56945465D01*
X22874781Y56750776D01*
X22967715Y56568386D01*
X23088028Y56402786D01*
X23232786Y56258028D01*
X23398386Y56137715D01*
X23580776Y56044781D01*
X23775465Y55981522D01*
X23953329Y55953351D01*
X23977648Y55949500D01*
X23977649Y55949500D01*
X24182351Y55949500D01*
X24182352Y55949500D01*
X24209995Y55953878D01*
X24384534Y55981522D01*
X24579223Y56044781D01*
X24704653Y56108691D01*
X24761610Y56137713D01*
X24787690Y56156661D01*
X24927213Y56258028D01*
X25071971Y56402786D01*
X25192284Y56568386D01*
X25192287Y56568390D01*
X25251503Y56684607D01*
X25285218Y56750776D01*
X25293785Y56777140D01*
X25348477Y56945466D01*
X25380500Y57147648D01*
X25380500Y57352352D01*
X25376983Y57374558D01*
X31099500Y57374558D01*
X31099500Y57125441D01*
X31099501Y57125424D01*
X31132017Y56878438D01*
X31196498Y56637792D01*
X31291830Y56407638D01*
X31291837Y56407623D01*
X31416400Y56191873D01*
X31568060Y55994225D01*
X31568066Y55994218D01*
X31744218Y55818066D01*
X31744225Y55818060D01*
X31941873Y55666400D01*
X32157623Y55541837D01*
X32157638Y55541830D01*
X32387792Y55446498D01*
X32628438Y55382017D01*
X32875424Y55349501D01*
X32875429Y55349500D01*
X32875435Y55349500D01*
X32875442Y55349500D01*
X33124558Y55349500D01*
X33124565Y55349500D01*
X33124570Y55349500D01*
X33124575Y55349501D01*
X33371561Y55382017D01*
X33612207Y55446498D01*
X33842361Y55541830D01*
X33842376Y55541837D01*
X34058126Y55666400D01*
X34255774Y55818060D01*
X34255781Y55818066D01*
X34431933Y55994218D01*
X34431939Y55994225D01*
X34583599Y56191873D01*
X34708162Y56407623D01*
X34708169Y56407638D01*
X34758626Y56529453D01*
X34803502Y56637793D01*
X34867982Y56878435D01*
X34900500Y57125435D01*
X34900500Y57352351D01*
X40119500Y57352351D01*
X40119500Y57147648D01*
X40151522Y56945465D01*
X40214781Y56750776D01*
X40307715Y56568386D01*
X40428028Y56402786D01*
X40572786Y56258028D01*
X40738386Y56137715D01*
X40920776Y56044781D01*
X41115465Y55981522D01*
X41293329Y55953351D01*
X41317648Y55949500D01*
X41317649Y55949500D01*
X41522351Y55949500D01*
X41522352Y55949500D01*
X41549995Y55953878D01*
X41724534Y55981522D01*
X41919223Y56044781D01*
X42044653Y56108691D01*
X42101610Y56137713D01*
X42127690Y56156661D01*
X42267213Y56258028D01*
X42411971Y56402786D01*
X42532284Y56568386D01*
X42532287Y56568390D01*
X42591503Y56684607D01*
X42625218Y56750776D01*
X42633785Y56777140D01*
X42688477Y56945466D01*
X42720500Y57147648D01*
X42720500Y57352351D01*
X50279500Y57352351D01*
X50279500Y57147648D01*
X50311522Y56945465D01*
X50374781Y56750776D01*
X50467715Y56568386D01*
X50588028Y56402786D01*
X50732786Y56258028D01*
X50898386Y56137715D01*
X51080776Y56044781D01*
X51275465Y55981522D01*
X51453329Y55953351D01*
X51477648Y55949500D01*
X51477649Y55949500D01*
X51682351Y55949500D01*
X51682352Y55949500D01*
X51709995Y55953878D01*
X51884534Y55981522D01*
X52079223Y56044781D01*
X52204653Y56108691D01*
X52261610Y56137713D01*
X52287690Y56156661D01*
X52427213Y56258028D01*
X52571971Y56402786D01*
X52692284Y56568386D01*
X52692287Y56568390D01*
X52751503Y56684607D01*
X52785218Y56750776D01*
X52793785Y56777140D01*
X52848477Y56945466D01*
X52880500Y57147648D01*
X52880500Y57352352D01*
X52848477Y57554534D01*
X52785220Y57749219D01*
X52692287Y57931610D01*
X52575485Y58092376D01*
X52571971Y58097213D01*
X52571968Y58097215D01*
X52571966Y58097219D01*
X52427219Y58241966D01*
X52427215Y58241968D01*
X52427213Y58241971D01*
X52336155Y58308127D01*
X52261610Y58362287D01*
X52079219Y58455220D01*
X51884534Y58518477D01*
X51682352Y58550500D01*
X51477648Y58550500D01*
X51376557Y58534488D01*
X51275465Y58518477D01*
X51236376Y58505776D01*
X51080781Y58455220D01*
X51080778Y58455218D01*
X51080776Y58455218D01*
X51014607Y58421503D01*
X50898390Y58362287D01*
X50898386Y58362284D01*
X50732786Y58241971D01*
X50588028Y58097213D01*
X50467715Y57931613D01*
X50467713Y57931610D01*
X50438691Y57874653D01*
X50374781Y57749223D01*
X50311522Y57554534D01*
X50279500Y57352351D01*
X42720500Y57352351D01*
X42720500Y57352352D01*
X42688477Y57554534D01*
X42625220Y57749219D01*
X42532287Y57931610D01*
X42415485Y58092376D01*
X42411971Y58097213D01*
X42411968Y58097215D01*
X42411966Y58097219D01*
X42267219Y58241966D01*
X42267215Y58241968D01*
X42267213Y58241971D01*
X42176155Y58308127D01*
X42101610Y58362287D01*
X41919219Y58455220D01*
X41724534Y58518477D01*
X41522352Y58550500D01*
X41317648Y58550500D01*
X41216557Y58534488D01*
X41115465Y58518477D01*
X41076376Y58505776D01*
X40920781Y58455220D01*
X40920778Y58455218D01*
X40920776Y58455218D01*
X40854607Y58421503D01*
X40738390Y58362287D01*
X40738386Y58362284D01*
X40572786Y58241971D01*
X40428028Y58097213D01*
X40307715Y57931613D01*
X40307713Y57931610D01*
X40278691Y57874653D01*
X40214781Y57749223D01*
X40151522Y57554534D01*
X40119500Y57352351D01*
X34900500Y57352351D01*
X34900500Y57374565D01*
X34867982Y57621565D01*
X34803502Y57862207D01*
X34708164Y58092373D01*
X34583599Y58308127D01*
X34431938Y58505776D01*
X34255776Y58681938D01*
X34058127Y58833599D01*
X33842373Y58958164D01*
X33612207Y59053502D01*
X33371565Y59117982D01*
X33124565Y59150500D01*
X32875435Y59150500D01*
X32628435Y59117982D01*
X32387793Y59053502D01*
X32256825Y58999253D01*
X32157638Y58958169D01*
X32157623Y58958162D01*
X31941873Y58833599D01*
X31744225Y58681939D01*
X31744218Y58681933D01*
X31568066Y58505781D01*
X31568060Y58505774D01*
X31416400Y58308126D01*
X31291837Y58092376D01*
X31291830Y58092361D01*
X31196498Y57862207D01*
X31132017Y57621561D01*
X31099501Y57374575D01*
X31099500Y57374558D01*
X25376983Y57374558D01*
X25348477Y57554534D01*
X25285220Y57749219D01*
X25192287Y57931610D01*
X25075485Y58092376D01*
X25071971Y58097213D01*
X25071968Y58097215D01*
X25071966Y58097219D01*
X24927219Y58241966D01*
X24927215Y58241968D01*
X24927213Y58241971D01*
X24836155Y58308127D01*
X24761610Y58362287D01*
X24579219Y58455220D01*
X24384534Y58518477D01*
X24182352Y58550500D01*
X23977648Y58550500D01*
X23876557Y58534488D01*
X23775465Y58518477D01*
X23736376Y58505776D01*
X23580781Y58455220D01*
X23580778Y58455218D01*
X23580776Y58455218D01*
X23514607Y58421503D01*
X23398390Y58362287D01*
X23398386Y58362284D01*
X23232786Y58241971D01*
X23088028Y58097213D01*
X22967715Y57931613D01*
X22967713Y57931610D01*
X22938691Y57874653D01*
X22874781Y57749223D01*
X22811522Y57554534D01*
X22779500Y57352351D01*
X15220500Y57352351D01*
X15220500Y57352352D01*
X15188477Y57554534D01*
X15125220Y57749219D01*
X15032287Y57931610D01*
X14915485Y58092376D01*
X14911971Y58097213D01*
X14911968Y58097215D01*
X14911966Y58097219D01*
X14767219Y58241966D01*
X14767215Y58241968D01*
X14767213Y58241971D01*
X14676155Y58308127D01*
X14601610Y58362287D01*
X14419219Y58455220D01*
X14224534Y58518477D01*
X14022352Y58550500D01*
X13817648Y58550500D01*
X13716557Y58534488D01*
X13615465Y58518477D01*
X13576376Y58505776D01*
X13420781Y58455220D01*
X13420778Y58455218D01*
X13420776Y58455218D01*
X13354607Y58421503D01*
X13238390Y58362287D01*
X13238386Y58362284D01*
X13072786Y58241971D01*
X12928028Y58097213D01*
X12807715Y57931613D01*
X12807713Y57931610D01*
X12778691Y57874653D01*
X12714781Y57749223D01*
X12651522Y57554534D01*
X12619500Y57352351D01*
X10000500Y57352351D01*
X10000500Y62352351D01*
X12619500Y62352351D01*
X12619500Y62147648D01*
X12651522Y61945465D01*
X12714781Y61750776D01*
X12807715Y61568386D01*
X12928028Y61402786D01*
X13072786Y61258028D01*
X13238386Y61137715D01*
X13420776Y61044781D01*
X13615465Y60981522D01*
X13793329Y60953351D01*
X13817648Y60949500D01*
X13817649Y60949500D01*
X14022351Y60949500D01*
X14022352Y60949500D01*
X14049995Y60953878D01*
X14224534Y60981522D01*
X14419223Y61044781D01*
X14544653Y61108691D01*
X14601610Y61137713D01*
X14601705Y61137782D01*
X14767213Y61258028D01*
X14911971Y61402786D01*
X15032284Y61568386D01*
X15032287Y61568390D01*
X15091503Y61684607D01*
X15125218Y61750776D01*
X15127575Y61758028D01*
X15174608Y61902781D01*
X15188477Y61945465D01*
X15220500Y62147648D01*
X15220500Y62352351D01*
X22779500Y62352351D01*
X22779500Y62147648D01*
X22811522Y61945465D01*
X22874781Y61750776D01*
X22967715Y61568386D01*
X23088028Y61402786D01*
X23232786Y61258028D01*
X23398386Y61137715D01*
X23580776Y61044781D01*
X23775465Y60981522D01*
X23953329Y60953351D01*
X23977648Y60949500D01*
X23977649Y60949500D01*
X24182351Y60949500D01*
X24182352Y60949500D01*
X24209995Y60953878D01*
X24384534Y60981522D01*
X24579223Y61044781D01*
X24704653Y61108691D01*
X24761610Y61137713D01*
X24761705Y61137782D01*
X24927213Y61258028D01*
X25071971Y61402786D01*
X25192284Y61568386D01*
X25192287Y61568390D01*
X25251503Y61684607D01*
X25285218Y61750776D01*
X25287575Y61758028D01*
X25334608Y61902781D01*
X25348477Y61945465D01*
X25380500Y62147648D01*
X25380500Y62352349D01*
X25379411Y62359225D01*
X25379411Y62359226D01*
X25376983Y62374558D01*
X31099500Y62374558D01*
X31099500Y62125441D01*
X31099501Y62125424D01*
X31132017Y61878438D01*
X31196498Y61637792D01*
X31291830Y61407638D01*
X31291837Y61407623D01*
X31416400Y61191873D01*
X31568060Y60994225D01*
X31568066Y60994218D01*
X31744218Y60818066D01*
X31744225Y60818060D01*
X31941873Y60666400D01*
X32157623Y60541837D01*
X32157638Y60541830D01*
X32387792Y60446498D01*
X32628438Y60382017D01*
X32875424Y60349501D01*
X32875429Y60349500D01*
X32875435Y60349500D01*
X32875442Y60349500D01*
X33124558Y60349500D01*
X33124565Y60349500D01*
X33124570Y60349500D01*
X33124575Y60349501D01*
X33371561Y60382017D01*
X33383687Y60385266D01*
X33612207Y60446498D01*
X33842361Y60541830D01*
X33842376Y60541837D01*
X33968650Y60614741D01*
X61249500Y60614741D01*
X61249500Y60385258D01*
X61279451Y60157770D01*
X61279453Y60157759D01*
X61338842Y59936112D01*
X61426650Y59724123D01*
X61426657Y59724109D01*
X61541392Y59525382D01*
X61681081Y59343338D01*
X61843338Y59181081D01*
X62025382Y59041392D01*
X62224109Y58926657D01*
X62224123Y58926650D01*
X62436112Y58838842D01*
X62455680Y58833599D01*
X62657762Y58779452D01*
X62657770Y58779451D01*
X62885258Y58749500D01*
X62885266Y58749500D01*
X63114727Y58749500D01*
X63114734Y58749500D01*
X63114739Y58749500D01*
X63114744Y58749501D01*
X63249259Y58767210D01*
X63318294Y58756444D01*
X63353125Y58731952D01*
X65463181Y56621897D01*
X65496666Y56560574D01*
X65499500Y56534216D01*
X65499500Y28651455D01*
X65537947Y28458170D01*
X65537949Y28458164D01*
X65548185Y28433453D01*
X65613364Y28276092D01*
X65613371Y28276079D01*
X65722859Y28112219D01*
X65787596Y28047483D01*
X65862218Y27972861D01*
X65862220Y27972859D01*
X72972860Y20862219D01*
X72972861Y20862218D01*
X73042540Y20792538D01*
X73112219Y20722859D01*
X73276079Y20613371D01*
X73276089Y20613366D01*
X73363044Y20577348D01*
X73382745Y20569188D01*
X73458164Y20537949D01*
X73458165Y20537948D01*
X73458167Y20537948D01*
X73458171Y20537946D01*
X73651454Y20499500D01*
X73651459Y20499500D01*
X74250104Y20499500D01*
X74317143Y20479815D01*
X74348480Y20450986D01*
X74431079Y20343340D01*
X74431085Y20343333D01*
X74593330Y20181089D01*
X74593338Y20181081D01*
X74775382Y20041392D01*
X74974109Y19926657D01*
X74974123Y19926650D01*
X75186112Y19838842D01*
X75314076Y19804554D01*
X75407762Y19779452D01*
X75407770Y19779451D01*
X75635258Y19749500D01*
X75635266Y19749500D01*
X75864741Y19749500D01*
X76054215Y19774446D01*
X76092238Y19779452D01*
X76313887Y19838842D01*
X76525876Y19926650D01*
X76525890Y19926657D01*
X76713165Y20034780D01*
X76724612Y20041389D01*
X76724617Y20041392D01*
X76906661Y20181081D01*
X76906670Y20181089D01*
X77068911Y20343330D01*
X77068918Y20343338D01*
X77208607Y20525382D01*
X77208608Y20525385D01*
X77208611Y20525388D01*
X77323344Y20724112D01*
X77330247Y20740776D01*
X77361190Y20815480D01*
X77411158Y20936113D01*
X77470548Y21157762D01*
X77500500Y21385266D01*
X77500500Y21614734D01*
X77470548Y21842238D01*
X77411158Y22063887D01*
X77323344Y22275888D01*
X77208611Y22474612D01*
X77068919Y22656661D01*
X77068914Y22656666D01*
X77068911Y22656670D01*
X76906670Y22818911D01*
X76906665Y22818914D01*
X76906661Y22818919D01*
X76724612Y22958611D01*
X76525888Y23073344D01*
X76313887Y23161158D01*
X76092238Y23220548D01*
X75864734Y23250500D01*
X75635266Y23250500D01*
X75407762Y23220548D01*
X75186113Y23161158D01*
X75082978Y23118438D01*
X74974123Y23073349D01*
X74974117Y23073346D01*
X74974112Y23073344D01*
X74775388Y22958611D01*
X74775385Y22958608D01*
X74775382Y22958607D01*
X74593338Y22818918D01*
X74593330Y22818911D01*
X74431085Y22656666D01*
X74431079Y22656659D01*
X74348480Y22549014D01*
X74345401Y22546765D01*
X74343817Y22543297D01*
X74317402Y22526321D01*
X74292052Y22507811D01*
X74287314Y22506985D01*
X74285039Y22505523D01*
X74250104Y22500500D01*
X74215783Y22500500D01*
X74148744Y22520185D01*
X74128102Y22536819D01*
X67536819Y29128101D01*
X67503334Y29189424D01*
X67500500Y29215782D01*
X67500500Y57098543D01*
X67465324Y57275382D01*
X67462051Y57291835D01*
X67441874Y57340546D01*
X67387068Y57472861D01*
X67386632Y57473914D01*
X67277139Y57637782D01*
X67137782Y57777139D01*
X67137781Y57777139D01*
X64768044Y60146875D01*
X64734561Y60208196D01*
X64732788Y60250734D01*
X64750500Y60385266D01*
X64750500Y60614734D01*
X64720548Y60842238D01*
X64661158Y61063887D01*
X64573344Y61275888D01*
X64458611Y61474612D01*
X64318919Y61656661D01*
X64318914Y61656665D01*
X64318911Y61656670D01*
X64156670Y61818911D01*
X64156665Y61818914D01*
X64156661Y61818919D01*
X63974612Y61958611D01*
X63775888Y62073344D01*
X63563887Y62161158D01*
X63342238Y62220548D01*
X63114734Y62250500D01*
X62885266Y62250500D01*
X62657762Y62220548D01*
X62436113Y62161158D01*
X62349844Y62125424D01*
X62224123Y62073349D01*
X62224117Y62073346D01*
X62224112Y62073344D01*
X62025388Y61958611D01*
X62025385Y61958608D01*
X62025382Y61958607D01*
X61843338Y61818918D01*
X61843330Y61818911D01*
X61681089Y61656670D01*
X61681081Y61656661D01*
X61541392Y61474617D01*
X61426657Y61275890D01*
X61426650Y61275876D01*
X61338842Y61063887D01*
X61279452Y60842238D01*
X61279451Y60842229D01*
X61249500Y60614741D01*
X33968650Y60614741D01*
X34058126Y60666400D01*
X34124290Y60717169D01*
X34255774Y60818060D01*
X34255781Y60818066D01*
X34431933Y60994218D01*
X34431939Y60994225D01*
X34583599Y61191873D01*
X34708162Y61407623D01*
X34708169Y61407638D01*
X34764975Y61544781D01*
X34803502Y61637793D01*
X34867982Y61878435D01*
X34900500Y62125435D01*
X34900500Y62374565D01*
X34867982Y62621565D01*
X34806143Y62852351D01*
X40119500Y62852351D01*
X40119500Y62647648D01*
X40151522Y62445465D01*
X40214781Y62250776D01*
X40307715Y62068386D01*
X40428028Y61902786D01*
X40572786Y61758028D01*
X40738386Y61637715D01*
X40920776Y61544781D01*
X41115465Y61481522D01*
X41293329Y61453351D01*
X41317648Y61449500D01*
X41317649Y61449500D01*
X41522351Y61449500D01*
X41522352Y61449500D01*
X41549995Y61453878D01*
X41724534Y61481522D01*
X41919223Y61544781D01*
X42054600Y61613760D01*
X42101610Y61637713D01*
X42127690Y61656661D01*
X42267213Y61758028D01*
X42411971Y61902786D01*
X42532284Y62068386D01*
X42532287Y62068390D01*
X42591503Y62184607D01*
X42625218Y62250776D01*
X42688477Y62445465D01*
X42720500Y62647648D01*
X42720500Y62852351D01*
X50279500Y62852351D01*
X50279500Y62647648D01*
X50311522Y62445465D01*
X50374781Y62250776D01*
X50467715Y62068386D01*
X50588028Y61902786D01*
X50732786Y61758028D01*
X50898386Y61637715D01*
X51080776Y61544781D01*
X51275465Y61481522D01*
X51453329Y61453351D01*
X51477648Y61449500D01*
X51477649Y61449500D01*
X51682351Y61449500D01*
X51682352Y61449500D01*
X51709995Y61453878D01*
X51884534Y61481522D01*
X52079223Y61544781D01*
X52214600Y61613760D01*
X52261610Y61637713D01*
X52287690Y61656661D01*
X52427213Y61758028D01*
X52571971Y61902786D01*
X52692284Y62068386D01*
X52692287Y62068390D01*
X52751503Y62184607D01*
X52785218Y62250776D01*
X52848477Y62445465D01*
X52880500Y62647648D01*
X52880500Y62852351D01*
X52867946Y62931610D01*
X52848477Y63054534D01*
X52785220Y63249219D01*
X52692287Y63431610D01*
X52621201Y63529452D01*
X52571971Y63597213D01*
X52571968Y63597215D01*
X52571966Y63597219D01*
X52427219Y63741966D01*
X52427215Y63741968D01*
X52427213Y63741971D01*
X52333524Y63810039D01*
X52261610Y63862287D01*
X52079219Y63955220D01*
X51884534Y64018477D01*
X51682352Y64050500D01*
X51477648Y64050500D01*
X51376557Y64034488D01*
X51275465Y64018477D01*
X51185137Y63989127D01*
X51080781Y63955220D01*
X51080778Y63955218D01*
X51080776Y63955218D01*
X51014607Y63921503D01*
X50898390Y63862287D01*
X50898386Y63862284D01*
X50732786Y63741971D01*
X50588028Y63597213D01*
X50467715Y63431613D01*
X50467713Y63431610D01*
X50461298Y63419020D01*
X50374781Y63249223D01*
X50311522Y63054534D01*
X50279500Y62852351D01*
X42720500Y62852351D01*
X42707946Y62931610D01*
X42688477Y63054534D01*
X42625220Y63249219D01*
X42532287Y63431610D01*
X42461201Y63529452D01*
X42411971Y63597213D01*
X42411968Y63597215D01*
X42411966Y63597219D01*
X42267219Y63741966D01*
X42267215Y63741968D01*
X42267213Y63741971D01*
X42173524Y63810039D01*
X42101610Y63862287D01*
X41919219Y63955220D01*
X41724534Y64018477D01*
X41522352Y64050500D01*
X41317648Y64050500D01*
X41216557Y64034488D01*
X41115465Y64018477D01*
X41025137Y63989127D01*
X40920781Y63955220D01*
X40920778Y63955218D01*
X40920776Y63955218D01*
X40854607Y63921503D01*
X40738390Y63862287D01*
X40738386Y63862284D01*
X40572786Y63741971D01*
X40428028Y63597213D01*
X40307715Y63431613D01*
X40307713Y63431610D01*
X40301298Y63419020D01*
X40214781Y63249223D01*
X40151522Y63054534D01*
X40119500Y62852351D01*
X34806143Y62852351D01*
X34803502Y62862207D01*
X34708164Y63092373D01*
X34583599Y63308127D01*
X34431938Y63505776D01*
X34255776Y63681938D01*
X34058127Y63833599D01*
X33842373Y63958164D01*
X33612207Y64053502D01*
X33371565Y64117982D01*
X33124565Y64150500D01*
X32875435Y64150500D01*
X32628435Y64117982D01*
X32387793Y64053502D01*
X32256825Y63999253D01*
X32157638Y63958169D01*
X32157623Y63958162D01*
X31941873Y63833599D01*
X31744225Y63681939D01*
X31744218Y63681933D01*
X31568066Y63505781D01*
X31568060Y63505774D01*
X31416400Y63308126D01*
X31291837Y63092376D01*
X31291830Y63092361D01*
X31206236Y62885717D01*
X31196498Y62862207D01*
X31136373Y62637816D01*
X31132017Y62621561D01*
X31099501Y62374575D01*
X31099500Y62374558D01*
X25376983Y62374558D01*
X25348477Y62554534D01*
X25285220Y62749219D01*
X25192287Y62931610D01*
X25121201Y63029452D01*
X25071971Y63097213D01*
X25071968Y63097215D01*
X25071966Y63097219D01*
X24927219Y63241966D01*
X24927215Y63241968D01*
X24927213Y63241971D01*
X24832911Y63310484D01*
X24761610Y63362287D01*
X24579219Y63455220D01*
X24384534Y63518477D01*
X24182352Y63550500D01*
X23977648Y63550500D01*
X23876557Y63534488D01*
X23775465Y63518477D01*
X23685137Y63489127D01*
X23580781Y63455220D01*
X23580778Y63455218D01*
X23580776Y63455218D01*
X23514607Y63421503D01*
X23398390Y63362287D01*
X23398386Y63362284D01*
X23232786Y63241971D01*
X23088028Y63097213D01*
X22988415Y62960104D01*
X22967713Y62931610D01*
X22955001Y62906661D01*
X22874781Y62749223D01*
X22811522Y62554534D01*
X22779500Y62352351D01*
X15220500Y62352351D01*
X15188477Y62554534D01*
X15125220Y62749219D01*
X15032287Y62931610D01*
X14961201Y63029452D01*
X14911971Y63097213D01*
X14911968Y63097215D01*
X14911966Y63097219D01*
X14767219Y63241966D01*
X14767215Y63241968D01*
X14767213Y63241971D01*
X14672911Y63310484D01*
X14601610Y63362287D01*
X14419219Y63455220D01*
X14224534Y63518477D01*
X14022352Y63550500D01*
X13817648Y63550500D01*
X13716557Y63534488D01*
X13615465Y63518477D01*
X13525137Y63489127D01*
X13420781Y63455220D01*
X13420778Y63455218D01*
X13420776Y63455218D01*
X13354607Y63421503D01*
X13238390Y63362287D01*
X13238386Y63362284D01*
X13072786Y63241971D01*
X12928028Y63097213D01*
X12828415Y62960104D01*
X12807713Y62931610D01*
X12795001Y62906661D01*
X12714781Y62749223D01*
X12651522Y62554534D01*
X12619500Y62352351D01*
X10000500Y62352351D01*
X10000500Y67352351D01*
X12619500Y67352351D01*
X12619500Y67147648D01*
X12651522Y66945465D01*
X12714781Y66750776D01*
X12807715Y66568386D01*
X12928028Y66402786D01*
X13072786Y66258028D01*
X13238386Y66137715D01*
X13420776Y66044781D01*
X13615465Y65981522D01*
X13793329Y65953351D01*
X13817648Y65949500D01*
X13817649Y65949500D01*
X14022351Y65949500D01*
X14022352Y65949500D01*
X14049995Y65953878D01*
X14224534Y65981522D01*
X14419223Y66044781D01*
X14544653Y66108691D01*
X14601610Y66137713D01*
X14601613Y66137715D01*
X14767213Y66258028D01*
X14911971Y66402786D01*
X15032284Y66568386D01*
X15032287Y66568390D01*
X15103733Y66708611D01*
X15125218Y66750776D01*
X15148797Y66823342D01*
X15159127Y66855137D01*
X15188477Y66945465D01*
X15220500Y67147648D01*
X15220500Y67352351D01*
X22779500Y67352351D01*
X22779500Y67147648D01*
X22811522Y66945465D01*
X22874781Y66750776D01*
X22967715Y66568386D01*
X23088028Y66402786D01*
X23232786Y66258028D01*
X23398386Y66137715D01*
X23580776Y66044781D01*
X23775465Y65981522D01*
X23953329Y65953351D01*
X23977648Y65949500D01*
X23977649Y65949500D01*
X24182351Y65949500D01*
X24182352Y65949500D01*
X24209995Y65953878D01*
X24384534Y65981522D01*
X24579223Y66044781D01*
X24704653Y66108691D01*
X24761610Y66137713D01*
X24761613Y66137715D01*
X24927213Y66258028D01*
X25071971Y66402786D01*
X25192284Y66568386D01*
X25192287Y66568390D01*
X25263733Y66708611D01*
X25285218Y66750776D01*
X25308797Y66823342D01*
X25319127Y66855137D01*
X25348477Y66945465D01*
X25380500Y67147648D01*
X25380500Y67352351D01*
X25348477Y67554534D01*
X25286753Y67744500D01*
X25285220Y67749219D01*
X25192287Y67931610D01*
X25124732Y68024590D01*
X25071971Y68097213D01*
X25071968Y68097215D01*
X25071966Y68097219D01*
X24927219Y68241966D01*
X24761610Y68362287D01*
X24589434Y68450015D01*
X31099500Y68450015D01*
X31099500Y66049984D01*
X31110000Y65947204D01*
X31110001Y65947203D01*
X31165186Y65780664D01*
X31165187Y65780662D01*
X31257286Y65631348D01*
X31257289Y65631344D01*
X31381344Y65507289D01*
X31381348Y65507286D01*
X31530662Y65415187D01*
X31530664Y65415186D01*
X31697203Y65360001D01*
X31697204Y65360000D01*
X31799984Y65349500D01*
X31799992Y65349500D01*
X34200015Y65349500D01*
X34302795Y65360000D01*
X34302797Y65360001D01*
X34317102Y65364741D01*
X62249500Y65364741D01*
X62249500Y65135258D01*
X62279451Y64907770D01*
X62279453Y64907759D01*
X62338842Y64686112D01*
X62426650Y64474123D01*
X62426657Y64474109D01*
X62541392Y64275382D01*
X62681081Y64093338D01*
X62843338Y63931081D01*
X63025382Y63791392D01*
X63224109Y63676657D01*
X63224123Y63676650D01*
X63436112Y63588842D01*
X63564076Y63554554D01*
X63657762Y63529452D01*
X63657770Y63529451D01*
X63885258Y63499500D01*
X63885266Y63499500D01*
X64114727Y63499500D01*
X64114734Y63499500D01*
X64114739Y63499500D01*
X64114744Y63499501D01*
X64249259Y63517210D01*
X64318294Y63506444D01*
X64353125Y63481952D01*
X67713181Y60121897D01*
X67746666Y60060574D01*
X67749500Y60034216D01*
X67749500Y29651455D01*
X67787947Y29458167D01*
X67787950Y29458159D01*
X67810038Y29404835D01*
X67863366Y29276089D01*
X67863371Y29276079D01*
X67972859Y29112219D01*
X68042538Y29042540D01*
X68112218Y28972861D01*
X68112220Y28972859D01*
X72722860Y24362219D01*
X72722861Y24362218D01*
X72792540Y24292538D01*
X72862219Y24222859D01*
X73026080Y24113371D01*
X73026089Y24113366D01*
X73075274Y24092994D01*
X73208163Y24037949D01*
X73208171Y24037947D01*
X73401454Y23999500D01*
X73401459Y23999500D01*
X73598540Y23999500D01*
X76000104Y23999500D01*
X76067143Y23979815D01*
X76098480Y23950986D01*
X76181079Y23843340D01*
X76181085Y23843333D01*
X76343330Y23681089D01*
X76343338Y23681081D01*
X76525382Y23541392D01*
X76724109Y23426657D01*
X76724123Y23426650D01*
X76936112Y23338842D01*
X77064076Y23304554D01*
X77157762Y23279452D01*
X77157770Y23279451D01*
X77385258Y23249500D01*
X77385266Y23249500D01*
X77614741Y23249500D01*
X77804215Y23274446D01*
X77842238Y23279452D01*
X78063887Y23338842D01*
X78275876Y23426650D01*
X78275890Y23426657D01*
X78474617Y23541392D01*
X78656661Y23681081D01*
X78656670Y23681089D01*
X78818911Y23843330D01*
X78818918Y23843338D01*
X78958607Y24025382D01*
X78958608Y24025385D01*
X78958611Y24025388D01*
X79073344Y24224112D01*
X79161158Y24436113D01*
X79220548Y24657762D01*
X79250500Y24885266D01*
X79250500Y25114734D01*
X79220548Y25342238D01*
X79161158Y25563887D01*
X79073344Y25775888D01*
X78958611Y25974612D01*
X78818919Y26156661D01*
X78818914Y26156666D01*
X78818911Y26156670D01*
X78656670Y26318911D01*
X78656665Y26318914D01*
X78656661Y26318919D01*
X78474612Y26458611D01*
X78275888Y26573344D01*
X78063887Y26661158D01*
X77842238Y26720548D01*
X77614734Y26750500D01*
X77385266Y26750500D01*
X77157762Y26720548D01*
X76936113Y26661158D01*
X76841621Y26622018D01*
X76724123Y26573349D01*
X76724117Y26573346D01*
X76724112Y26573344D01*
X76525388Y26458611D01*
X76525385Y26458608D01*
X76525382Y26458607D01*
X76343338Y26318918D01*
X76343330Y26318911D01*
X76181085Y26156666D01*
X76181079Y26156659D01*
X76098480Y26049014D01*
X76042052Y26007811D01*
X76000104Y26000500D01*
X73965783Y26000500D01*
X73898744Y26020185D01*
X73878102Y26036819D01*
X69786819Y30128101D01*
X69772115Y30155028D01*
X69755523Y30180847D01*
X69754631Y30187047D01*
X69753334Y30189424D01*
X69750500Y30215782D01*
X69750500Y30246286D01*
X72464500Y30246286D01*
X72464500Y30033713D01*
X72497753Y29823760D01*
X72563444Y29621585D01*
X72659951Y29432179D01*
X72784890Y29260213D01*
X72935213Y29109890D01*
X73107179Y28984951D01*
X73296585Y28888444D01*
X73498760Y28822753D01*
X73498759Y28822753D01*
X73669202Y28795757D01*
X73708713Y28789500D01*
X73708714Y28789500D01*
X73921286Y28789500D01*
X73921287Y28789500D01*
X73984644Y28799534D01*
X74131239Y28822753D01*
X74131241Y28822753D01*
X74131243Y28822754D01*
X74333412Y28888443D01*
X74522816Y28984949D01*
X74522820Y28984951D01*
X74694786Y29109890D01*
X74845109Y29260213D01*
X74970048Y29432179D01*
X74972052Y29436112D01*
X75066557Y29621588D01*
X75132246Y29823757D01*
X75165500Y30033713D01*
X75165500Y30246287D01*
X75132246Y30456243D01*
X75066557Y30658412D01*
X74970051Y30847816D01*
X74877929Y30974612D01*
X74845109Y31019786D01*
X74845106Y31019788D01*
X74845104Y31019792D01*
X74694792Y31170104D01*
X74694788Y31170106D01*
X74694786Y31170109D01*
X74522820Y31295048D01*
X74522816Y31295051D01*
X74333412Y31391557D01*
X74131243Y31457246D01*
X73921287Y31490500D01*
X73708713Y31490500D01*
X73498757Y31457246D01*
X73296588Y31391557D01*
X73107184Y31295051D01*
X73107181Y31295049D01*
X73107179Y31295048D01*
X72935213Y31170109D01*
X72784890Y31019786D01*
X72659951Y30847820D01*
X72659949Y30847816D01*
X72563443Y30658412D01*
X72497754Y30456243D01*
X72497753Y30456239D01*
X72464500Y30246286D01*
X69750500Y30246286D01*
X69750500Y35246286D01*
X72464500Y35246286D01*
X72464500Y35033713D01*
X72497753Y34823760D01*
X72563444Y34621585D01*
X72659951Y34432179D01*
X72784890Y34260213D01*
X72935213Y34109890D01*
X73107179Y33984951D01*
X73296585Y33888444D01*
X73498760Y33822753D01*
X73498759Y33822753D01*
X73669202Y33795757D01*
X73708713Y33789500D01*
X73708714Y33789500D01*
X73921286Y33789500D01*
X73921287Y33789500D01*
X73984644Y33799534D01*
X74131239Y33822753D01*
X74131241Y33822753D01*
X74131243Y33822754D01*
X74333412Y33888443D01*
X74522816Y33984949D01*
X74522820Y33984951D01*
X74601825Y34042351D01*
X84894500Y34042351D01*
X84894500Y33837648D01*
X84926522Y33635465D01*
X84989781Y33440776D01*
X85082715Y33258386D01*
X85203028Y33092786D01*
X85347786Y32948028D01*
X85513386Y32827715D01*
X85606080Y32780485D01*
X85656876Y32732510D01*
X85673671Y32664689D01*
X85651134Y32598554D01*
X85606080Y32559515D01*
X85513390Y32512287D01*
X85513386Y32512284D01*
X85347786Y32391971D01*
X85203028Y32247213D01*
X85082715Y32081613D01*
X84989781Y31899223D01*
X84926522Y31704534D01*
X84894500Y31502351D01*
X84894500Y31297648D01*
X84926522Y31095465D01*
X84989781Y30900776D01*
X85082715Y30718386D01*
X85203028Y30552786D01*
X85347786Y30408028D01*
X85513386Y30287715D01*
X85606080Y30240485D01*
X85656876Y30192510D01*
X85673671Y30124689D01*
X85651134Y30058554D01*
X85606080Y30019515D01*
X85513390Y29972287D01*
X85513386Y29972284D01*
X85347786Y29851971D01*
X85203028Y29707213D01*
X85082715Y29541613D01*
X84989781Y29359223D01*
X84926522Y29164534D01*
X84916651Y29102207D01*
X84896165Y28972861D01*
X84894500Y28962351D01*
X84894500Y28757648D01*
X84926522Y28555465D01*
X84989781Y28360776D01*
X85082715Y28178386D01*
X85203028Y28012786D01*
X85347786Y27868028D01*
X85513386Y27747715D01*
X85606080Y27700485D01*
X85656876Y27652510D01*
X85673671Y27584689D01*
X85651134Y27518554D01*
X85606080Y27479515D01*
X85513390Y27432287D01*
X85513386Y27432284D01*
X85347786Y27311971D01*
X85203028Y27167213D01*
X85082715Y27001613D01*
X84989781Y26819223D01*
X84926522Y26624534D01*
X84894500Y26422351D01*
X84894500Y26217648D01*
X84926522Y26015465D01*
X84989781Y25820776D01*
X85082715Y25638386D01*
X85203028Y25472786D01*
X85347786Y25328028D01*
X85513386Y25207715D01*
X85606080Y25160485D01*
X85656876Y25112510D01*
X85673671Y25044689D01*
X85651134Y24978554D01*
X85606080Y24939515D01*
X85513390Y24892287D01*
X85513386Y24892284D01*
X85347786Y24771971D01*
X85203028Y24627213D01*
X85082715Y24461613D01*
X84989781Y24279223D01*
X84926522Y24084534D01*
X84894500Y23882351D01*
X84894500Y23677648D01*
X84926522Y23475465D01*
X84989781Y23280776D01*
X85082715Y23098386D01*
X85203028Y22932786D01*
X85347786Y22788028D01*
X85513386Y22667715D01*
X85606080Y22620485D01*
X85656876Y22572510D01*
X85673671Y22504689D01*
X85651134Y22438554D01*
X85606080Y22399515D01*
X85513390Y22352287D01*
X85513386Y22352284D01*
X85347786Y22231971D01*
X85203028Y22087213D01*
X85082715Y21921613D01*
X84989781Y21739223D01*
X84926522Y21544534D01*
X84894500Y21342351D01*
X84894500Y21137648D01*
X84926522Y20935465D01*
X84989781Y20740776D01*
X85082715Y20558386D01*
X85203028Y20392786D01*
X85347786Y20248028D01*
X85513386Y20127715D01*
X85695776Y20034781D01*
X85890465Y19971522D01*
X86068329Y19943351D01*
X86092648Y19939500D01*
X86092649Y19939500D01*
X86297351Y19939500D01*
X86297352Y19939500D01*
X86324995Y19943878D01*
X86499534Y19971522D01*
X86694223Y20034781D01*
X86819653Y20098691D01*
X86876610Y20127713D01*
X86876613Y20127715D01*
X87042213Y20248028D01*
X87186971Y20392786D01*
X87307284Y20558386D01*
X87307287Y20558390D01*
X87366503Y20674607D01*
X87400218Y20740776D01*
X87463477Y20935465D01*
X87495500Y21137648D01*
X87495500Y21342351D01*
X87463477Y21544534D01*
X87400220Y21739219D01*
X87307287Y21921610D01*
X87203918Y22063887D01*
X87186971Y22087213D01*
X87186968Y22087215D01*
X87186966Y22087219D01*
X87042219Y22231966D01*
X87042215Y22231968D01*
X87042213Y22231971D01*
X86876614Y22352284D01*
X86876610Y22352287D01*
X86783917Y22399516D01*
X86733123Y22447489D01*
X86716328Y22515310D01*
X86738865Y22581445D01*
X86783917Y22620483D01*
X86876610Y22667713D01*
X86876614Y22667715D01*
X87042213Y22788028D01*
X87186971Y22932786D01*
X87307284Y23098386D01*
X87307287Y23098390D01*
X87384791Y23250500D01*
X87400218Y23280776D01*
X87463477Y23475465D01*
X87495500Y23677648D01*
X87495500Y23882351D01*
X87463477Y24084534D01*
X87418532Y24222859D01*
X87400220Y24279219D01*
X87307287Y24461610D01*
X87239732Y24554590D01*
X87186971Y24627213D01*
X87186968Y24627215D01*
X87186966Y24627219D01*
X87042219Y24771966D01*
X87042215Y24771968D01*
X87042213Y24771971D01*
X86876614Y24892284D01*
X86876610Y24892287D01*
X86783917Y24939516D01*
X86733123Y24987489D01*
X86716328Y25055310D01*
X86738865Y25121445D01*
X86783917Y25160483D01*
X86876610Y25207713D01*
X86876614Y25207715D01*
X87042213Y25328028D01*
X87186971Y25472786D01*
X87307284Y25638386D01*
X87307287Y25638390D01*
X87377347Y25775890D01*
X87400218Y25820776D01*
X87408385Y25845909D01*
X87450203Y25974612D01*
X87463477Y26015465D01*
X87495500Y26217648D01*
X87495500Y26422351D01*
X87463875Y26622018D01*
X87463477Y26624534D01*
X87400220Y26819219D01*
X87307287Y27001610D01*
X87239732Y27094590D01*
X87186971Y27167213D01*
X87186968Y27167215D01*
X87186966Y27167219D01*
X87042219Y27311966D01*
X87042215Y27311968D01*
X87042213Y27311971D01*
X86876614Y27432284D01*
X86876610Y27432287D01*
X86783917Y27479516D01*
X86733123Y27527489D01*
X86716328Y27595310D01*
X86738865Y27661445D01*
X86783917Y27700483D01*
X86876610Y27747713D01*
X86876614Y27747715D01*
X87042213Y27868028D01*
X87186971Y28012786D01*
X87307284Y28178386D01*
X87307287Y28178390D01*
X87389042Y28338842D01*
X87400218Y28360776D01*
X87401729Y28365424D01*
X87463477Y28555466D01*
X87472837Y28614558D01*
X87495500Y28757648D01*
X87495500Y28962351D01*
X87493835Y28972861D01*
X87463477Y29164534D01*
X87400220Y29359219D01*
X87307287Y29541610D01*
X87222901Y29657759D01*
X87186971Y29707213D01*
X87186968Y29707215D01*
X87186966Y29707219D01*
X87042219Y29851966D01*
X87042215Y29851968D01*
X87042213Y29851971D01*
X86876614Y29972284D01*
X86876610Y29972287D01*
X86783917Y30019516D01*
X86733123Y30067489D01*
X86716328Y30135310D01*
X86738865Y30201445D01*
X86783917Y30240483D01*
X86876610Y30287713D01*
X86876614Y30287715D01*
X87042213Y30408028D01*
X87186971Y30552786D01*
X87307284Y30718386D01*
X87307287Y30718390D01*
X87373235Y30847820D01*
X87400218Y30900776D01*
X87463477Y31095465D01*
X87495500Y31297648D01*
X87495500Y31502351D01*
X87463477Y31704534D01*
X87426590Y31818060D01*
X87400220Y31899219D01*
X87307287Y32081610D01*
X87227177Y32191873D01*
X87186971Y32247213D01*
X87186968Y32247215D01*
X87186966Y32247219D01*
X87042219Y32391966D01*
X87042215Y32391968D01*
X87042213Y32391971D01*
X86876614Y32512284D01*
X86876610Y32512287D01*
X86783917Y32559516D01*
X86733123Y32607489D01*
X86716328Y32675310D01*
X86738865Y32741445D01*
X86783917Y32780483D01*
X86876610Y32827713D01*
X86876614Y32827715D01*
X87042213Y32948028D01*
X87186971Y33092786D01*
X87307284Y33258386D01*
X87307287Y33258390D01*
X87366503Y33374607D01*
X87400218Y33440776D01*
X87401740Y33445458D01*
X87458959Y33621561D01*
X87463477Y33635465D01*
X87495500Y33837648D01*
X87495500Y34042351D01*
X87493570Y34054534D01*
X87463477Y34244534D01*
X87400220Y34439219D01*
X87307287Y34621610D01*
X87219844Y34741966D01*
X87186971Y34787213D01*
X87186968Y34787215D01*
X87186966Y34787219D01*
X87042219Y34931966D01*
X87042215Y34931968D01*
X87042213Y34931971D01*
X86969590Y34984732D01*
X86876610Y35052287D01*
X86694219Y35145220D01*
X86499534Y35208477D01*
X86297352Y35240500D01*
X86092648Y35240500D01*
X85991557Y35224488D01*
X85890465Y35208477D01*
X85800137Y35179127D01*
X85695781Y35145220D01*
X85695778Y35145218D01*
X85695776Y35145218D01*
X85642323Y35117982D01*
X85513390Y35052287D01*
X85513386Y35052284D01*
X85347786Y34931971D01*
X85203028Y34787213D01*
X85082715Y34621613D01*
X85082713Y34621610D01*
X85070285Y34597219D01*
X84989781Y34439223D01*
X84926522Y34244534D01*
X84905198Y34109896D01*
X84896430Y34054534D01*
X84894500Y34042351D01*
X74601825Y34042351D01*
X74694786Y34109890D01*
X74845109Y34260213D01*
X74970048Y34432179D01*
X74970051Y34432184D01*
X75066557Y34621588D01*
X75132246Y34823757D01*
X75165500Y35033713D01*
X75165500Y35246287D01*
X75132246Y35456243D01*
X75066557Y35658412D01*
X74970051Y35847816D01*
X74873447Y35980781D01*
X74845109Y36019786D01*
X74845106Y36019788D01*
X74845104Y36019792D01*
X74694792Y36170104D01*
X74694788Y36170106D01*
X74694786Y36170109D01*
X74522820Y36295048D01*
X74522816Y36295051D01*
X74333412Y36391557D01*
X74131243Y36457246D01*
X73921287Y36490500D01*
X73708713Y36490500D01*
X73498757Y36457246D01*
X73296588Y36391557D01*
X73107184Y36295051D01*
X73107181Y36295049D01*
X73107179Y36295048D01*
X72935213Y36170109D01*
X72784890Y36019786D01*
X72659951Y35847820D01*
X72659949Y35847816D01*
X72563443Y35658412D01*
X72508084Y35488034D01*
X72497753Y35456239D01*
X72464500Y35246286D01*
X69750500Y35246286D01*
X69750500Y36582351D01*
X92514500Y36582351D01*
X92514500Y36377648D01*
X92546522Y36175465D01*
X92609781Y35980776D01*
X92702715Y35798386D01*
X92823028Y35632786D01*
X92967786Y35488028D01*
X93133386Y35367715D01*
X93226080Y35320485D01*
X93276876Y35272510D01*
X93293671Y35204689D01*
X93271134Y35138554D01*
X93226080Y35099515D01*
X93133390Y35052287D01*
X93133386Y35052284D01*
X92967786Y34931971D01*
X92823028Y34787213D01*
X92702715Y34621613D01*
X92702713Y34621610D01*
X92690285Y34597219D01*
X92609781Y34439223D01*
X92546522Y34244534D01*
X92525198Y34109896D01*
X92516430Y34054534D01*
X92514500Y34042351D01*
X92514500Y33837648D01*
X92546522Y33635465D01*
X92609781Y33440776D01*
X92702715Y33258386D01*
X92823028Y33092786D01*
X92967786Y32948028D01*
X93133386Y32827715D01*
X93226080Y32780485D01*
X93276876Y32732510D01*
X93293671Y32664689D01*
X93271134Y32598554D01*
X93226080Y32559515D01*
X93133390Y32512287D01*
X93133386Y32512284D01*
X92967786Y32391971D01*
X92823028Y32247213D01*
X92702715Y32081613D01*
X92609781Y31899223D01*
X92546522Y31704534D01*
X92514500Y31502351D01*
X92514500Y31297648D01*
X92546522Y31095465D01*
X92609781Y30900776D01*
X92702715Y30718386D01*
X92823028Y30552786D01*
X92967786Y30408028D01*
X93133386Y30287715D01*
X93226080Y30240485D01*
X93276876Y30192510D01*
X93293671Y30124689D01*
X93271134Y30058554D01*
X93226080Y30019515D01*
X93133390Y29972287D01*
X93133386Y29972284D01*
X92967786Y29851971D01*
X92823028Y29707213D01*
X92702715Y29541613D01*
X92609781Y29359223D01*
X92546522Y29164534D01*
X92536651Y29102207D01*
X92516165Y28972861D01*
X92514500Y28962351D01*
X92514500Y28757648D01*
X92546522Y28555465D01*
X92609781Y28360776D01*
X92702715Y28178386D01*
X92823028Y28012786D01*
X92967786Y27868028D01*
X93133386Y27747715D01*
X93226080Y27700485D01*
X93276876Y27652510D01*
X93293671Y27584689D01*
X93271134Y27518554D01*
X93226080Y27479515D01*
X93133390Y27432287D01*
X93133386Y27432284D01*
X92967786Y27311971D01*
X92823028Y27167213D01*
X92702715Y27001613D01*
X92609781Y26819223D01*
X92546522Y26624534D01*
X92514500Y26422351D01*
X92514500Y26217648D01*
X92546522Y26015465D01*
X92609781Y25820776D01*
X92702715Y25638386D01*
X92823028Y25472786D01*
X92967786Y25328028D01*
X93133386Y25207715D01*
X93226080Y25160485D01*
X93276876Y25112510D01*
X93293671Y25044689D01*
X93271134Y24978554D01*
X93226080Y24939515D01*
X93133390Y24892287D01*
X93133386Y24892284D01*
X92967786Y24771971D01*
X92823028Y24627213D01*
X92702715Y24461613D01*
X92609781Y24279223D01*
X92546522Y24084534D01*
X92514500Y23882351D01*
X92514500Y23677648D01*
X92546522Y23475465D01*
X92609781Y23280776D01*
X92702715Y23098386D01*
X92823028Y22932786D01*
X92967786Y22788028D01*
X93133386Y22667715D01*
X93226080Y22620485D01*
X93276876Y22572510D01*
X93293671Y22504689D01*
X93271134Y22438554D01*
X93226080Y22399515D01*
X93133390Y22352287D01*
X93133386Y22352284D01*
X92967786Y22231971D01*
X92823028Y22087213D01*
X92702715Y21921613D01*
X92609781Y21739223D01*
X92546522Y21544534D01*
X92514500Y21342351D01*
X92514500Y21137648D01*
X92546522Y20935465D01*
X92609781Y20740776D01*
X92702715Y20558386D01*
X92823028Y20392786D01*
X92967786Y20248028D01*
X93133386Y20127715D01*
X93315776Y20034781D01*
X93510465Y19971522D01*
X93688329Y19943351D01*
X93712648Y19939500D01*
X93712649Y19939500D01*
X93917351Y19939500D01*
X93917352Y19939500D01*
X93944995Y19943878D01*
X94119534Y19971522D01*
X94314223Y20034781D01*
X94439653Y20098691D01*
X94496610Y20127713D01*
X94496613Y20127715D01*
X94662213Y20248028D01*
X94806971Y20392786D01*
X94927284Y20558386D01*
X94927287Y20558390D01*
X94986503Y20674607D01*
X95020218Y20740776D01*
X95083477Y20935465D01*
X95115500Y21137648D01*
X95115500Y21342351D01*
X95083477Y21544534D01*
X95020220Y21739219D01*
X94927287Y21921610D01*
X94823918Y22063887D01*
X94806971Y22087213D01*
X94806968Y22087215D01*
X94806966Y22087219D01*
X94662219Y22231966D01*
X94662215Y22231968D01*
X94662213Y22231971D01*
X94496614Y22352284D01*
X94496610Y22352287D01*
X94403917Y22399516D01*
X94353123Y22447489D01*
X94336328Y22515310D01*
X94358865Y22581445D01*
X94403917Y22620483D01*
X94496610Y22667713D01*
X94496614Y22667715D01*
X94662213Y22788028D01*
X94806971Y22932786D01*
X94927284Y23098386D01*
X94927287Y23098390D01*
X95004791Y23250500D01*
X95020218Y23280776D01*
X95083477Y23475465D01*
X95105508Y23614558D01*
X130099500Y23614558D01*
X130099500Y23365441D01*
X130099501Y23365424D01*
X130132017Y23118438D01*
X130196498Y22877792D01*
X130291830Y22647638D01*
X130291837Y22647623D01*
X130416400Y22431873D01*
X130568060Y22234225D01*
X130568066Y22234218D01*
X130744218Y22058066D01*
X130744225Y22058060D01*
X130941873Y21906400D01*
X131157623Y21781837D01*
X131157638Y21781830D01*
X131387792Y21686498D01*
X131628438Y21622017D01*
X131875424Y21589501D01*
X131875429Y21589500D01*
X131875435Y21589500D01*
X131875442Y21589500D01*
X132124558Y21589500D01*
X132124565Y21589500D01*
X132124570Y21589500D01*
X132124575Y21589501D01*
X132371561Y21622017D01*
X132612207Y21686498D01*
X132842361Y21781830D01*
X132842376Y21781837D01*
X133058126Y21906400D01*
X133255774Y22058060D01*
X133255781Y22058066D01*
X133431933Y22234218D01*
X133431939Y22234225D01*
X133583599Y22431873D01*
X133708162Y22647623D01*
X133708169Y22647638D01*
X133749253Y22746825D01*
X133803502Y22877793D01*
X133867982Y23118435D01*
X133900500Y23365435D01*
X133900500Y23614565D01*
X133867982Y23861565D01*
X133803502Y24102207D01*
X133708164Y24332373D01*
X133583599Y24548127D01*
X133431938Y24745776D01*
X133255776Y24921938D01*
X133058127Y25073599D01*
X132842373Y25198164D01*
X132612207Y25293502D01*
X132371565Y25357982D01*
X132124565Y25390500D01*
X131875435Y25390500D01*
X131628435Y25357982D01*
X131387793Y25293502D01*
X131256825Y25239253D01*
X131157638Y25198169D01*
X131157623Y25198162D01*
X130941873Y25073599D01*
X130744225Y24921939D01*
X130744218Y24921933D01*
X130568066Y24745781D01*
X130568060Y24745774D01*
X130416400Y24548126D01*
X130291837Y24332376D01*
X130291830Y24332361D01*
X130196498Y24102207D01*
X130132017Y23861561D01*
X130099501Y23614575D01*
X130099500Y23614558D01*
X95105508Y23614558D01*
X95109224Y23638022D01*
X95115500Y23677647D01*
X95115500Y23882351D01*
X95083477Y24084534D01*
X95038532Y24222859D01*
X95020220Y24279219D01*
X94927287Y24461610D01*
X94859732Y24554590D01*
X94806971Y24627213D01*
X94806968Y24627215D01*
X94806966Y24627219D01*
X94662219Y24771966D01*
X94662215Y24771968D01*
X94662213Y24771971D01*
X94496614Y24892284D01*
X94496610Y24892287D01*
X94403917Y24939516D01*
X94353123Y24987489D01*
X94336328Y25055310D01*
X94358865Y25121445D01*
X94403917Y25160483D01*
X94496610Y25207713D01*
X94496614Y25207715D01*
X94662213Y25328028D01*
X94806971Y25472786D01*
X94927284Y25638386D01*
X94927287Y25638390D01*
X94997347Y25775890D01*
X95020218Y25820776D01*
X95028385Y25845909D01*
X95070203Y25974612D01*
X95083477Y26015465D01*
X95115500Y26217648D01*
X95115500Y26422351D01*
X95083875Y26622018D01*
X95083477Y26624534D01*
X95020220Y26819219D01*
X94927287Y27001610D01*
X94859732Y27094590D01*
X94806971Y27167213D01*
X94806968Y27167215D01*
X94806966Y27167219D01*
X94662219Y27311966D01*
X94662215Y27311968D01*
X94662213Y27311971D01*
X94496614Y27432284D01*
X94496610Y27432287D01*
X94403917Y27479516D01*
X94353123Y27527489D01*
X94336328Y27595310D01*
X94358865Y27661445D01*
X94403917Y27700483D01*
X94496610Y27747713D01*
X94496614Y27747715D01*
X94662213Y27868028D01*
X94806971Y28012786D01*
X94927284Y28178386D01*
X94927287Y28178390D01*
X95009042Y28338842D01*
X95020218Y28360776D01*
X95021729Y28365424D01*
X95083477Y28555466D01*
X95092837Y28614558D01*
X95115500Y28757648D01*
X95115500Y28962351D01*
X95113835Y28972861D01*
X95083477Y29164534D01*
X95020220Y29359219D01*
X94927287Y29541610D01*
X94842901Y29657759D01*
X94806971Y29707213D01*
X94806968Y29707215D01*
X94806966Y29707219D01*
X94662219Y29851966D01*
X94662215Y29851968D01*
X94662213Y29851971D01*
X94496614Y29972284D01*
X94496610Y29972287D01*
X94403917Y30019516D01*
X94353123Y30067489D01*
X94336328Y30135310D01*
X94358865Y30201445D01*
X94403917Y30240483D01*
X94496610Y30287713D01*
X94496614Y30287715D01*
X94662213Y30408028D01*
X94806971Y30552786D01*
X94927284Y30718386D01*
X94927287Y30718390D01*
X94993235Y30847820D01*
X95020218Y30900776D01*
X95083477Y31095465D01*
X95115500Y31297648D01*
X95115500Y31502351D01*
X95083477Y31704534D01*
X95046590Y31818060D01*
X95020220Y31899219D01*
X94927287Y32081610D01*
X94847177Y32191873D01*
X94806971Y32247213D01*
X94806968Y32247215D01*
X94806966Y32247219D01*
X94662219Y32391966D01*
X94662215Y32391968D01*
X94662213Y32391971D01*
X94496614Y32512284D01*
X94496610Y32512287D01*
X94403917Y32559516D01*
X94353123Y32607489D01*
X94336328Y32675310D01*
X94358865Y32741445D01*
X94403917Y32780483D01*
X94496610Y32827713D01*
X94496614Y32827715D01*
X94662213Y32948028D01*
X94806971Y33092786D01*
X94927284Y33258386D01*
X94927287Y33258390D01*
X94986503Y33374607D01*
X95020218Y33440776D01*
X95021740Y33445458D01*
X95078959Y33621561D01*
X95083477Y33635465D01*
X95115500Y33837648D01*
X95115500Y34042351D01*
X95113570Y34054534D01*
X95083477Y34244534D01*
X95020220Y34439219D01*
X94927287Y34621610D01*
X94839844Y34741966D01*
X94806971Y34787213D01*
X94806968Y34787215D01*
X94806966Y34787219D01*
X94662219Y34931966D01*
X94662215Y34931968D01*
X94662213Y34931971D01*
X94496614Y35052284D01*
X94496610Y35052287D01*
X94403917Y35099516D01*
X94353123Y35147489D01*
X94336328Y35215310D01*
X94358865Y35281445D01*
X94403917Y35320483D01*
X94496610Y35367713D01*
X94496614Y35367715D01*
X94662213Y35488028D01*
X94806971Y35632786D01*
X94886573Y35742351D01*
X105014500Y35742351D01*
X105014500Y35537648D01*
X105046522Y35335465D01*
X105109781Y35140776D01*
X105202715Y34958386D01*
X105323028Y34792786D01*
X105467786Y34648028D01*
X105633386Y34527715D01*
X105815776Y34434781D01*
X106010465Y34371522D01*
X106188329Y34343351D01*
X106212648Y34339500D01*
X106212649Y34339500D01*
X106417351Y34339500D01*
X106417352Y34339500D01*
X106444995Y34343878D01*
X106619534Y34371522D01*
X106814223Y34434781D01*
X106978483Y34518477D01*
X106996610Y34527713D01*
X107027974Y34550500D01*
X107162213Y34648028D01*
X107306971Y34792786D01*
X107427284Y34958386D01*
X107427287Y34958390D01*
X107499194Y35099515D01*
X107520218Y35140776D01*
X107521662Y35145218D01*
X107565925Y35281445D01*
X107583477Y35335465D01*
X107615500Y35537648D01*
X107615500Y35742351D01*
X107583477Y35944534D01*
X107559024Y36019792D01*
X107520220Y36139219D01*
X107427287Y36321610D01*
X107359732Y36414590D01*
X107306971Y36487213D01*
X107306968Y36487215D01*
X107306966Y36487219D01*
X107162219Y36631966D01*
X107162215Y36631968D01*
X107162213Y36631971D01*
X107089590Y36684732D01*
X106996610Y36752287D01*
X106814219Y36845220D01*
X106619534Y36908477D01*
X106417352Y36940500D01*
X106212648Y36940500D01*
X106111557Y36924488D01*
X106010465Y36908477D01*
X105920137Y36879127D01*
X105815781Y36845220D01*
X105815778Y36845218D01*
X105815776Y36845218D01*
X105749607Y36811503D01*
X105633390Y36752287D01*
X105633386Y36752284D01*
X105467786Y36631971D01*
X105323028Y36487213D01*
X105202715Y36321613D01*
X105202713Y36321610D01*
X105189179Y36295048D01*
X105109781Y36139223D01*
X105046522Y35944534D01*
X105014500Y35742351D01*
X94886573Y35742351D01*
X94927284Y35798385D01*
X94929899Y35803517D01*
X94929900Y35803519D01*
X95020218Y35980776D01*
X95083477Y36175465D01*
X95115500Y36377648D01*
X95115500Y36582351D01*
X95088584Y36752287D01*
X95083477Y36784534D01*
X95020220Y36979219D01*
X94927287Y37161610D01*
X94857231Y37258034D01*
X94806971Y37327213D01*
X94806968Y37327215D01*
X94806966Y37327219D01*
X94662219Y37471966D01*
X94662215Y37471968D01*
X94662213Y37471971D01*
X94589590Y37524732D01*
X94496610Y37592287D01*
X94314219Y37685220D01*
X94119534Y37748477D01*
X93917352Y37780500D01*
X93712648Y37780500D01*
X93611557Y37764488D01*
X93510465Y37748477D01*
X93421284Y37719500D01*
X93315781Y37685220D01*
X93315778Y37685218D01*
X93315776Y37685218D01*
X93249607Y37651503D01*
X93133390Y37592287D01*
X93133386Y37592284D01*
X92967786Y37471971D01*
X92823028Y37327213D01*
X92702715Y37161613D01*
X92609781Y36979223D01*
X92546522Y36784534D01*
X92514500Y36582351D01*
X69750500Y36582351D01*
X69750500Y41602351D01*
X73994388Y41602351D01*
X73994388Y41397648D01*
X74026410Y41195465D01*
X74089669Y41000776D01*
X74182603Y40818386D01*
X74302916Y40652786D01*
X74447674Y40508028D01*
X74613274Y40387715D01*
X74795664Y40294781D01*
X74990353Y40231522D01*
X75168217Y40203351D01*
X75192536Y40199500D01*
X75192537Y40199500D01*
X75397239Y40199500D01*
X75397240Y40199500D01*
X75424883Y40203878D01*
X75599422Y40231522D01*
X75794111Y40294781D01*
X75924944Y40361445D01*
X75976498Y40387713D01*
X75976501Y40387715D01*
X76142101Y40508028D01*
X76286859Y40652786D01*
X76407172Y40818386D01*
X76407175Y40818390D01*
X76466391Y40934607D01*
X76500106Y41000776D01*
X76519602Y41060776D01*
X76563365Y41195466D01*
X76595388Y41397648D01*
X76595388Y41602352D01*
X76563365Y41804534D01*
X76500108Y41999219D01*
X76407175Y42181610D01*
X76324952Y42294781D01*
X76286859Y42347213D01*
X76286856Y42347215D01*
X76286854Y42347219D01*
X76142107Y42491966D01*
X76142103Y42491968D01*
X76142101Y42491971D01*
X76059523Y42551966D01*
X75976498Y42612287D01*
X75794107Y42705220D01*
X75599422Y42768477D01*
X75397240Y42800500D01*
X75192536Y42800500D01*
X75091445Y42784488D01*
X74990353Y42768477D01*
X74935891Y42750781D01*
X74795669Y42705220D01*
X74795666Y42705218D01*
X74795664Y42705218D01*
X74731034Y42672287D01*
X74613278Y42612287D01*
X74613274Y42612284D01*
X74447674Y42491971D01*
X74302916Y42347213D01*
X74182603Y42181613D01*
X74089669Y41999223D01*
X74026410Y41804534D01*
X73994388Y41602351D01*
X69750500Y41602351D01*
X69750500Y55114741D01*
X79749500Y55114741D01*
X79749500Y54885258D01*
X79779451Y54657770D01*
X79779453Y54657759D01*
X79838842Y54436112D01*
X79926650Y54224123D01*
X79926657Y54224109D01*
X80041392Y54025382D01*
X80181081Y53843338D01*
X80343338Y53681081D01*
X80525382Y53541392D01*
X80724109Y53426657D01*
X80724123Y53426650D01*
X80936112Y53338842D01*
X81064076Y53304554D01*
X81157762Y53279452D01*
X81157770Y53279451D01*
X81385258Y53249500D01*
X81385266Y53249500D01*
X81614741Y53249500D01*
X81804215Y53274446D01*
X81842238Y53279452D01*
X82063887Y53338842D01*
X82275876Y53426650D01*
X82275890Y53426657D01*
X82474617Y53541392D01*
X82656661Y53681081D01*
X82656670Y53681089D01*
X82818911Y53843330D01*
X82818918Y53843338D01*
X82851096Y53885272D01*
X82904958Y53955466D01*
X82958607Y54025382D01*
X82958608Y54025385D01*
X82958611Y54025388D01*
X83073344Y54224112D01*
X83161158Y54436113D01*
X83220548Y54657762D01*
X83247176Y54860016D01*
X84894500Y54860016D01*
X84894500Y53659998D01*
X84894501Y53659981D01*
X84905000Y53557203D01*
X84905001Y53557200D01*
X84960185Y53390668D01*
X84960187Y53390663D01*
X85052289Y53241342D01*
X85176342Y53117289D01*
X85325663Y53025187D01*
X85325666Y53025186D01*
X85407571Y52998045D01*
X85465016Y52958271D01*
X85491838Y52893755D01*
X85479522Y52824979D01*
X85441452Y52780021D01*
X85347781Y52711966D01*
X85347780Y52711965D01*
X85203028Y52567213D01*
X85082715Y52401613D01*
X84989781Y52219223D01*
X84926522Y52024534D01*
X84894500Y51822351D01*
X84894500Y51617648D01*
X84926522Y51415465D01*
X84989781Y51220776D01*
X85082715Y51038386D01*
X85203028Y50872786D01*
X85347786Y50728028D01*
X85513386Y50607715D01*
X85606080Y50560485D01*
X85656876Y50512510D01*
X85673671Y50444689D01*
X85651134Y50378554D01*
X85606080Y50339515D01*
X85513390Y50292287D01*
X85513386Y50292284D01*
X85347786Y50171971D01*
X85203028Y50027213D01*
X85082715Y49861613D01*
X84989781Y49679223D01*
X84926522Y49484534D01*
X84894500Y49282351D01*
X84894500Y49077648D01*
X84926522Y48875465D01*
X84989781Y48680776D01*
X85082715Y48498386D01*
X85203028Y48332786D01*
X85347786Y48188028D01*
X85513386Y48067715D01*
X85606080Y48020485D01*
X85656876Y47972510D01*
X85673671Y47904689D01*
X85651134Y47838554D01*
X85606080Y47799515D01*
X85513390Y47752287D01*
X85513386Y47752284D01*
X85347786Y47631971D01*
X85203028Y47487213D01*
X85082715Y47321613D01*
X84989781Y47139223D01*
X84926522Y46944534D01*
X84894500Y46742351D01*
X84894500Y46537648D01*
X84926522Y46335465D01*
X84989781Y46140776D01*
X85082715Y45958386D01*
X85203028Y45792786D01*
X85347786Y45648028D01*
X85513386Y45527715D01*
X85606080Y45480485D01*
X85656876Y45432510D01*
X85673671Y45364689D01*
X85651134Y45298554D01*
X85606080Y45259515D01*
X85513390Y45212287D01*
X85513386Y45212284D01*
X85347786Y45091971D01*
X85203028Y44947213D01*
X85096437Y44800500D01*
X85082713Y44781610D01*
X85053691Y44724653D01*
X84989781Y44599223D01*
X84926522Y44404534D01*
X84894500Y44202351D01*
X84894500Y43997648D01*
X84926522Y43795465D01*
X84989781Y43600776D01*
X85082715Y43418386D01*
X85203028Y43252786D01*
X85347786Y43108028D01*
X85513386Y42987715D01*
X85606080Y42940485D01*
X85656876Y42892510D01*
X85673671Y42824689D01*
X85651134Y42758554D01*
X85606080Y42719515D01*
X85513390Y42672287D01*
X85513386Y42672284D01*
X85347786Y42551971D01*
X85203028Y42407213D01*
X85094641Y42258028D01*
X85082713Y42241610D01*
X85077573Y42231522D01*
X84989781Y42059223D01*
X84926522Y41864534D01*
X84894500Y41662351D01*
X84894500Y41457648D01*
X84926522Y41255465D01*
X84989781Y41060776D01*
X85082715Y40878386D01*
X85203028Y40712786D01*
X85347786Y40568028D01*
X85513386Y40447715D01*
X85606080Y40400485D01*
X85656876Y40352510D01*
X85673671Y40284689D01*
X85651134Y40218554D01*
X85606080Y40179515D01*
X85513390Y40132287D01*
X85513386Y40132284D01*
X85347786Y40011971D01*
X85203028Y39867213D01*
X85082715Y39701613D01*
X84989781Y39519223D01*
X84926522Y39324534D01*
X84894500Y39122351D01*
X84894500Y38917648D01*
X84926522Y38715465D01*
X84989781Y38520776D01*
X85082715Y38338386D01*
X85203028Y38172786D01*
X85347786Y38028028D01*
X85513386Y37907715D01*
X85695776Y37814781D01*
X85890465Y37751522D01*
X86068329Y37723351D01*
X86092648Y37719500D01*
X86092649Y37719500D01*
X86297351Y37719500D01*
X86297352Y37719500D01*
X86324995Y37723878D01*
X86499534Y37751522D01*
X86694223Y37814781D01*
X86819653Y37878691D01*
X86876610Y37907713D01*
X86928572Y37945465D01*
X87042213Y38028028D01*
X87186971Y38172786D01*
X87307284Y38338386D01*
X87307287Y38338390D01*
X87383458Y38487883D01*
X87400218Y38520776D01*
X87408896Y38547482D01*
X87463477Y38715466D01*
X87495500Y38917648D01*
X87495500Y39122352D01*
X87463477Y39324534D01*
X87400220Y39519219D01*
X87307287Y39701610D01*
X87239732Y39794590D01*
X87186971Y39867213D01*
X87186968Y39867215D01*
X87186966Y39867219D01*
X87042219Y40011966D01*
X87042215Y40011968D01*
X87042213Y40011971D01*
X86876614Y40132284D01*
X86876610Y40132287D01*
X86783917Y40179516D01*
X86733123Y40227489D01*
X86716328Y40295310D01*
X86738865Y40361445D01*
X86783917Y40400483D01*
X86876610Y40447713D01*
X86876614Y40447715D01*
X87042213Y40568028D01*
X87186971Y40712786D01*
X87307284Y40878386D01*
X87307287Y40878390D01*
X87369648Y41000781D01*
X87400218Y41060776D01*
X87463477Y41255465D01*
X87495500Y41457648D01*
X87495500Y41662351D01*
X87463477Y41864534D01*
X87421338Y41994224D01*
X87400220Y42059219D01*
X87307287Y42241610D01*
X87201138Y42387713D01*
X87186971Y42407213D01*
X87186968Y42407215D01*
X87186966Y42407219D01*
X87042219Y42551966D01*
X87042215Y42551968D01*
X87042213Y42551971D01*
X86876614Y42672284D01*
X86876610Y42672287D01*
X86783917Y42719516D01*
X86733123Y42767489D01*
X86716328Y42835310D01*
X86738865Y42901445D01*
X86783917Y42940483D01*
X86876610Y42987713D01*
X86876614Y42987715D01*
X87042213Y43108028D01*
X87186971Y43252786D01*
X87307284Y43418386D01*
X87307287Y43418390D01*
X87376656Y43554534D01*
X87400218Y43600776D01*
X87463477Y43795465D01*
X87495500Y43997648D01*
X87495500Y44202351D01*
X87463477Y44404534D01*
X87447008Y44455220D01*
X87400220Y44599219D01*
X87307287Y44781610D01*
X87239732Y44874590D01*
X87186971Y44947213D01*
X87186968Y44947215D01*
X87186966Y44947219D01*
X87042219Y45091966D01*
X87042215Y45091968D01*
X87042213Y45091971D01*
X86876614Y45212284D01*
X86876610Y45212287D01*
X86783917Y45259516D01*
X86733123Y45307489D01*
X86716328Y45375310D01*
X86738865Y45441445D01*
X86783917Y45480483D01*
X86876610Y45527713D01*
X86876614Y45527715D01*
X87042213Y45648028D01*
X87186971Y45792786D01*
X87307284Y45958386D01*
X87307287Y45958390D01*
X87366503Y46074607D01*
X87400218Y46140776D01*
X87463477Y46335465D01*
X87495500Y46537648D01*
X87495500Y46742351D01*
X87489431Y46780666D01*
X87463477Y46944534D01*
X87400220Y47139219D01*
X87307287Y47321610D01*
X87239732Y47414590D01*
X87186971Y47487213D01*
X87186968Y47487215D01*
X87186966Y47487219D01*
X87042219Y47631966D01*
X87042215Y47631968D01*
X87042213Y47631971D01*
X86876614Y47752284D01*
X86876610Y47752287D01*
X86783917Y47799516D01*
X86733123Y47847489D01*
X86716328Y47915310D01*
X86738865Y47981445D01*
X86783917Y48020483D01*
X86876610Y48067713D01*
X86876614Y48067715D01*
X87042213Y48188028D01*
X87186971Y48332786D01*
X87307284Y48498386D01*
X87307287Y48498390D01*
X87366503Y48614607D01*
X87400218Y48680776D01*
X87463477Y48875465D01*
X87495500Y49077648D01*
X87495500Y49282351D01*
X87485016Y49348541D01*
X87463477Y49484534D01*
X87400220Y49679219D01*
X87307287Y49861610D01*
X87212038Y49992710D01*
X87186971Y50027213D01*
X87186968Y50027215D01*
X87186966Y50027219D01*
X87042219Y50171966D01*
X87042215Y50171968D01*
X87042213Y50171971D01*
X86876614Y50292284D01*
X86876610Y50292287D01*
X86783917Y50339516D01*
X86733123Y50387489D01*
X86716328Y50455310D01*
X86738865Y50521445D01*
X86783917Y50560483D01*
X86876610Y50607713D01*
X86876614Y50607715D01*
X87042213Y50728028D01*
X87186971Y50872786D01*
X87307284Y51038386D01*
X87307287Y51038390D01*
X87366503Y51154607D01*
X87400218Y51220776D01*
X87463477Y51415465D01*
X87495500Y51617648D01*
X87495500Y51822351D01*
X87463477Y52024534D01*
X87400220Y52219219D01*
X87307287Y52401610D01*
X87239732Y52494590D01*
X87186971Y52567213D01*
X87186968Y52567215D01*
X87186966Y52567219D01*
X87042219Y52711966D01*
X86948547Y52780021D01*
X86905882Y52835349D01*
X86899902Y52904963D01*
X86932507Y52966758D01*
X86982428Y52998045D01*
X87064334Y53025186D01*
X87064662Y53025388D01*
X87123120Y53061445D01*
X87213656Y53117288D01*
X87337712Y53241344D01*
X87429814Y53390666D01*
X87484999Y53557203D01*
X87495500Y53659991D01*
X87495499Y54362351D01*
X92514500Y54362351D01*
X92514500Y54157648D01*
X92546522Y53955465D01*
X92609781Y53760776D01*
X92702715Y53578386D01*
X92823028Y53412786D01*
X92967786Y53268028D01*
X93133386Y53147715D01*
X93226080Y53100485D01*
X93276876Y53052510D01*
X93293671Y52984689D01*
X93271134Y52918554D01*
X93226080Y52879515D01*
X93133390Y52832287D01*
X93133386Y52832284D01*
X92967786Y52711971D01*
X92823028Y52567213D01*
X92702715Y52401613D01*
X92609781Y52219223D01*
X92546522Y52024534D01*
X92514500Y51822351D01*
X92514500Y51617648D01*
X92546522Y51415465D01*
X92609781Y51220776D01*
X92702715Y51038386D01*
X92823028Y50872786D01*
X92967786Y50728028D01*
X93133386Y50607715D01*
X93226080Y50560485D01*
X93276876Y50512510D01*
X93293671Y50444689D01*
X93271134Y50378554D01*
X93226080Y50339515D01*
X93133390Y50292287D01*
X93133386Y50292284D01*
X92967786Y50171971D01*
X92823028Y50027213D01*
X92702715Y49861613D01*
X92609781Y49679223D01*
X92546522Y49484534D01*
X92514500Y49282351D01*
X92514500Y49077648D01*
X92546522Y48875465D01*
X92609781Y48680776D01*
X92702715Y48498386D01*
X92823028Y48332786D01*
X92967786Y48188028D01*
X93133386Y48067715D01*
X93226080Y48020485D01*
X93276876Y47972510D01*
X93293671Y47904689D01*
X93271134Y47838554D01*
X93226080Y47799515D01*
X93133390Y47752287D01*
X93133386Y47752284D01*
X92967786Y47631971D01*
X92823028Y47487213D01*
X92702715Y47321613D01*
X92609781Y47139223D01*
X92546522Y46944534D01*
X92514500Y46742351D01*
X92514500Y46537648D01*
X92546522Y46335465D01*
X92609781Y46140776D01*
X92702715Y45958386D01*
X92823028Y45792786D01*
X92967786Y45648028D01*
X93133386Y45527715D01*
X93226080Y45480485D01*
X93276876Y45432510D01*
X93293671Y45364689D01*
X93271134Y45298554D01*
X93226080Y45259515D01*
X93133390Y45212287D01*
X93133386Y45212284D01*
X92967786Y45091971D01*
X92823028Y44947213D01*
X92716437Y44800500D01*
X92702713Y44781610D01*
X92673691Y44724653D01*
X92609781Y44599223D01*
X92546522Y44404534D01*
X92514500Y44202351D01*
X92514500Y43997648D01*
X92546522Y43795465D01*
X92609781Y43600776D01*
X92702715Y43418386D01*
X92823028Y43252786D01*
X92967786Y43108028D01*
X93133386Y42987715D01*
X93226080Y42940485D01*
X93276876Y42892510D01*
X93293671Y42824689D01*
X93271134Y42758554D01*
X93226080Y42719515D01*
X93133390Y42672287D01*
X93133386Y42672284D01*
X92967786Y42551971D01*
X92823028Y42407213D01*
X92714641Y42258028D01*
X92702713Y42241610D01*
X92697573Y42231522D01*
X92609781Y42059223D01*
X92546522Y41864534D01*
X92514500Y41662351D01*
X92514500Y41457648D01*
X92546522Y41255465D01*
X92609781Y41060776D01*
X92702715Y40878386D01*
X92823028Y40712786D01*
X92967786Y40568028D01*
X93133386Y40447715D01*
X93315776Y40354781D01*
X93510465Y40291522D01*
X93688329Y40263351D01*
X93712648Y40259500D01*
X93712649Y40259500D01*
X93917351Y40259500D01*
X93917352Y40259500D01*
X93944995Y40263878D01*
X94119534Y40291522D01*
X94314223Y40354781D01*
X94439653Y40418691D01*
X94496610Y40447713D01*
X94496613Y40447715D01*
X94662213Y40568028D01*
X94806971Y40712786D01*
X94927284Y40878386D01*
X94927287Y40878390D01*
X94989648Y41000781D01*
X95020218Y41060776D01*
X95083477Y41255465D01*
X95115500Y41457648D01*
X95115500Y41662351D01*
X95083477Y41864534D01*
X95041338Y41994224D01*
X95020220Y42059219D01*
X94927287Y42241610D01*
X94821138Y42387713D01*
X94806971Y42407213D01*
X94806968Y42407215D01*
X94806966Y42407219D01*
X94662219Y42551966D01*
X94662215Y42551968D01*
X94662213Y42551971D01*
X94496614Y42672284D01*
X94496610Y42672287D01*
X94403917Y42719516D01*
X94353123Y42767489D01*
X94336328Y42835310D01*
X94358865Y42901445D01*
X94403917Y42940483D01*
X94496610Y42987713D01*
X94496614Y42987715D01*
X94662213Y43108028D01*
X94806971Y43252786D01*
X94927284Y43418386D01*
X94927287Y43418390D01*
X95020220Y43600781D01*
X95020730Y43602351D01*
X101449500Y43602351D01*
X101449500Y43397648D01*
X101481522Y43195465D01*
X101544781Y43000776D01*
X101637715Y42818386D01*
X101758028Y42652786D01*
X101902786Y42508028D01*
X102068386Y42387715D01*
X102250776Y42294781D01*
X102445465Y42231522D01*
X102623329Y42203351D01*
X102647648Y42199500D01*
X102647649Y42199500D01*
X102852351Y42199500D01*
X102852352Y42199500D01*
X102879995Y42203878D01*
X103054534Y42231522D01*
X103249223Y42294781D01*
X103374653Y42358691D01*
X103431610Y42387713D01*
X103431613Y42387715D01*
X103597213Y42508028D01*
X103741971Y42652786D01*
X103862284Y42818386D01*
X103862287Y42818390D01*
X103948563Y42987715D01*
X103955218Y43000776D01*
X104018477Y43195465D01*
X104050500Y43397648D01*
X104050500Y43602351D01*
X104047457Y43621561D01*
X104018477Y43804534D01*
X103955220Y43999219D01*
X103862287Y44181610D01*
X103794732Y44274590D01*
X103741971Y44347213D01*
X103741968Y44347215D01*
X103741966Y44347219D01*
X103597219Y44491966D01*
X103597215Y44491968D01*
X103597213Y44491971D01*
X103516653Y44550500D01*
X103431610Y44612287D01*
X103249219Y44705220D01*
X103054534Y44768477D01*
X102852352Y44800500D01*
X102647648Y44800500D01*
X102546557Y44784488D01*
X102445465Y44768477D01*
X102355137Y44739127D01*
X102250781Y44705220D01*
X102250778Y44705218D01*
X102250776Y44705218D01*
X102184607Y44671503D01*
X102068390Y44612287D01*
X102068386Y44612284D01*
X101902786Y44491971D01*
X101758028Y44347213D01*
X101637715Y44181613D01*
X101544781Y43999223D01*
X101481522Y43804534D01*
X101456341Y43645543D01*
X101452543Y43621561D01*
X101449500Y43602351D01*
X95020730Y43602351D01*
X95038870Y43658180D01*
X95083476Y43795461D01*
X95083476Y43795464D01*
X95083477Y43795466D01*
X95115500Y43997648D01*
X95115500Y44202352D01*
X95083477Y44404534D01*
X95020220Y44599219D01*
X94927287Y44781610D01*
X94859732Y44874590D01*
X94806971Y44947213D01*
X94806968Y44947215D01*
X94806966Y44947219D01*
X94662219Y45091966D01*
X94662215Y45091968D01*
X94662213Y45091971D01*
X94496614Y45212284D01*
X94496610Y45212287D01*
X94403917Y45259516D01*
X94353123Y45307489D01*
X94336328Y45375310D01*
X94358865Y45441445D01*
X94403917Y45480483D01*
X94496610Y45527713D01*
X94496614Y45527715D01*
X94662213Y45648028D01*
X94806971Y45792786D01*
X94927284Y45958386D01*
X94927287Y45958390D01*
X94986503Y46074607D01*
X95020218Y46140776D01*
X95083477Y46335465D01*
X95115500Y46537648D01*
X95115500Y46742351D01*
X95109431Y46780666D01*
X95083477Y46944534D01*
X95020220Y47139219D01*
X94927287Y47321610D01*
X94859732Y47414590D01*
X94806971Y47487213D01*
X94806968Y47487215D01*
X94806966Y47487219D01*
X94662219Y47631966D01*
X94662215Y47631968D01*
X94662213Y47631971D01*
X94496614Y47752284D01*
X94496610Y47752287D01*
X94403917Y47799516D01*
X94353123Y47847489D01*
X94336328Y47915310D01*
X94358865Y47981445D01*
X94403917Y48020483D01*
X94496610Y48067713D01*
X94496614Y48067715D01*
X94662213Y48188028D01*
X94806971Y48332786D01*
X94927284Y48498386D01*
X94927287Y48498390D01*
X94986503Y48614607D01*
X95020218Y48680776D01*
X95083477Y48875465D01*
X95115500Y49077648D01*
X95115500Y49282351D01*
X95105016Y49348541D01*
X95083477Y49484534D01*
X95020220Y49679219D01*
X94927287Y49861610D01*
X94832038Y49992710D01*
X94806971Y50027213D01*
X94806968Y50027215D01*
X94806966Y50027219D01*
X94662219Y50171966D01*
X94662215Y50171968D01*
X94662213Y50171971D01*
X94496614Y50292284D01*
X94496610Y50292287D01*
X94403917Y50339516D01*
X94353123Y50387489D01*
X94336328Y50455310D01*
X94358865Y50521445D01*
X94403917Y50560483D01*
X94496610Y50607713D01*
X94496614Y50607715D01*
X94662213Y50728028D01*
X94806971Y50872786D01*
X94927284Y51038386D01*
X94927287Y51038390D01*
X94986503Y51154607D01*
X95020218Y51220776D01*
X95083477Y51415465D01*
X95115500Y51617648D01*
X95115500Y51822351D01*
X95083477Y52024534D01*
X95020220Y52219219D01*
X94927287Y52401610D01*
X94859732Y52494590D01*
X94806971Y52567213D01*
X94806968Y52567215D01*
X94806966Y52567219D01*
X94662219Y52711966D01*
X94662215Y52711969D01*
X94662213Y52711971D01*
X94496614Y52832284D01*
X94496610Y52832287D01*
X94403917Y52879516D01*
X94353123Y52927489D01*
X94336328Y52995310D01*
X94358865Y53061445D01*
X94403917Y53100483D01*
X94496610Y53147713D01*
X94496614Y53147715D01*
X94662213Y53268028D01*
X94806971Y53412786D01*
X94927284Y53578386D01*
X94927287Y53578390D01*
X95015104Y53750740D01*
X95020218Y53760776D01*
X95083477Y53955465D01*
X95108704Y54114741D01*
X105499500Y54114741D01*
X105499500Y53885258D01*
X105517211Y53750740D01*
X105529452Y53657762D01*
X105553733Y53567142D01*
X105588842Y53436112D01*
X105676650Y53224123D01*
X105676657Y53224109D01*
X105791392Y53025382D01*
X105931081Y52843338D01*
X106093338Y52681081D01*
X106275382Y52541392D01*
X106474109Y52426657D01*
X106474123Y52426650D01*
X106686112Y52338842D01*
X106814076Y52304554D01*
X106907762Y52279452D01*
X106907770Y52279451D01*
X107135258Y52249500D01*
X107135266Y52249500D01*
X107364727Y52249500D01*
X107364734Y52249500D01*
X107364739Y52249500D01*
X107364744Y52249501D01*
X107499259Y52267210D01*
X107568294Y52256444D01*
X107603125Y52231952D01*
X110963181Y48871897D01*
X110996666Y48810574D01*
X110999500Y48784216D01*
X110999500Y31499896D01*
X110979815Y31432857D01*
X110950986Y31401520D01*
X110843340Y31318920D01*
X110843333Y31318914D01*
X110681089Y31156670D01*
X110681081Y31156661D01*
X110541392Y30974617D01*
X110426657Y30775890D01*
X110426650Y30775876D01*
X110338842Y30563887D01*
X110279452Y30342238D01*
X110279451Y30342229D01*
X110249500Y30114741D01*
X110249500Y29885258D01*
X110278009Y29668715D01*
X110279452Y29657762D01*
X110304554Y29564076D01*
X110338842Y29436112D01*
X110426650Y29224123D01*
X110426657Y29224109D01*
X110541392Y29025382D01*
X110681081Y28843338D01*
X110843338Y28681081D01*
X111025382Y28541392D01*
X111224109Y28426657D01*
X111224123Y28426650D01*
X111436112Y28338842D01*
X111564076Y28304554D01*
X111657762Y28279452D01*
X111657770Y28279451D01*
X111885258Y28249500D01*
X111885266Y28249500D01*
X112114741Y28249500D01*
X112316671Y28276086D01*
X112342238Y28279452D01*
X112563887Y28338842D01*
X112775876Y28426650D01*
X112775890Y28426657D01*
X112974617Y28541392D01*
X113069968Y28614558D01*
X130099500Y28614558D01*
X130099500Y28365441D01*
X130099501Y28365424D01*
X130132017Y28118438D01*
X130196498Y27877792D01*
X130291830Y27647638D01*
X130291837Y27647623D01*
X130416400Y27431873D01*
X130568060Y27234225D01*
X130568066Y27234218D01*
X130744218Y27058066D01*
X130744225Y27058060D01*
X130941873Y26906400D01*
X131157623Y26781837D01*
X131157638Y26781830D01*
X131387792Y26686498D01*
X131628438Y26622017D01*
X131875424Y26589501D01*
X131875429Y26589500D01*
X131875435Y26589500D01*
X131875442Y26589500D01*
X132124558Y26589500D01*
X132124565Y26589500D01*
X132124570Y26589500D01*
X132124575Y26589501D01*
X132371561Y26622017D01*
X132612207Y26686498D01*
X132842361Y26781830D01*
X132842376Y26781837D01*
X133058126Y26906400D01*
X133255774Y27058060D01*
X133255781Y27058066D01*
X133431933Y27234218D01*
X133431939Y27234225D01*
X133583599Y27431873D01*
X133708162Y27647623D01*
X133708169Y27647638D01*
X133799457Y27868028D01*
X133803502Y27877793D01*
X133867982Y28118435D01*
X133900500Y28365435D01*
X133900500Y28614565D01*
X133867982Y28861565D01*
X133803502Y29102207D01*
X133708164Y29332373D01*
X133583599Y29548127D01*
X133431938Y29745776D01*
X133255776Y29921938D01*
X133058127Y30073599D01*
X132842373Y30198164D01*
X132612207Y30293502D01*
X132371565Y30357982D01*
X132124565Y30390500D01*
X131875435Y30390500D01*
X131628435Y30357982D01*
X131387793Y30293502D01*
X131273806Y30246287D01*
X131157638Y30198169D01*
X131157623Y30198162D01*
X130941873Y30073599D01*
X130744225Y29921939D01*
X130744218Y29921933D01*
X130568066Y29745781D01*
X130568060Y29745774D01*
X130416400Y29548126D01*
X130291837Y29332376D01*
X130291830Y29332361D01*
X130196498Y29102207D01*
X130132017Y28861561D01*
X130099501Y28614575D01*
X130099500Y28614558D01*
X113069968Y28614558D01*
X113156661Y28681081D01*
X113156670Y28681089D01*
X113318911Y28843330D01*
X113318918Y28843338D01*
X113353530Y28888444D01*
X113410241Y28962351D01*
X113458607Y29025382D01*
X113458608Y29025385D01*
X113458611Y29025388D01*
X113573344Y29224112D01*
X113594873Y29276086D01*
X113618187Y29332373D01*
X113661158Y29436113D01*
X113720548Y29657762D01*
X113750500Y29885266D01*
X113750500Y30114734D01*
X113720548Y30342238D01*
X113661158Y30563887D01*
X113573344Y30775888D01*
X113458611Y30974612D01*
X113318919Y31156661D01*
X113318914Y31156665D01*
X113318911Y31156670D01*
X113156666Y31318914D01*
X113156661Y31318919D01*
X113049014Y31401520D01*
X113007811Y31457948D01*
X113000500Y31499896D01*
X113000500Y49348543D01*
X113000499Y49348545D01*
X112999643Y49352846D01*
X112962051Y49541835D01*
X112957510Y49552797D01*
X112888529Y49719334D01*
X112886632Y49723914D01*
X112777139Y49887782D01*
X112637782Y50027139D01*
X112637781Y50027139D01*
X109018044Y53646875D01*
X108984561Y53708196D01*
X108982788Y53750734D01*
X109000500Y53885266D01*
X109000500Y54114734D01*
X108970548Y54342238D01*
X108911158Y54563887D01*
X108823344Y54775888D01*
X108708611Y54974612D01*
X108568919Y55156661D01*
X108568914Y55156665D01*
X108568911Y55156670D01*
X108406670Y55318911D01*
X108406665Y55318914D01*
X108406661Y55318919D01*
X108224612Y55458611D01*
X108025888Y55573344D01*
X107813887Y55661158D01*
X107592238Y55720548D01*
X107364734Y55750500D01*
X107135266Y55750500D01*
X106907762Y55720548D01*
X106686113Y55661158D01*
X106565480Y55611190D01*
X106474123Y55573349D01*
X106474117Y55573346D01*
X106474112Y55573344D01*
X106275388Y55458611D01*
X106275385Y55458608D01*
X106275382Y55458607D01*
X106093338Y55318918D01*
X106093330Y55318911D01*
X105931089Y55156670D01*
X105931081Y55156661D01*
X105791392Y54974617D01*
X105791389Y54974612D01*
X105772337Y54941613D01*
X105676657Y54775890D01*
X105676650Y54775876D01*
X105627726Y54657762D01*
X105588842Y54563887D01*
X105529452Y54342238D01*
X105529451Y54342229D01*
X105499500Y54114741D01*
X95108704Y54114741D01*
X95112418Y54138191D01*
X95112418Y54138192D01*
X95115500Y54157650D01*
X95115500Y54362351D01*
X95083477Y54564534D01*
X95053185Y54657762D01*
X95020220Y54759219D01*
X94927287Y54941610D01*
X94859732Y55034590D01*
X94806971Y55107213D01*
X94806968Y55107215D01*
X94806966Y55107219D01*
X94662219Y55251966D01*
X94662215Y55251968D01*
X94662213Y55251971D01*
X94570076Y55318911D01*
X94496610Y55372287D01*
X94314219Y55465220D01*
X94119534Y55528477D01*
X93917352Y55560500D01*
X93712648Y55560500D01*
X93646342Y55549998D01*
X93510465Y55528477D01*
X93420137Y55499127D01*
X93315781Y55465220D01*
X93315778Y55465218D01*
X93315776Y55465218D01*
X93279037Y55446498D01*
X93133390Y55372287D01*
X93133386Y55372284D01*
X92967786Y55251971D01*
X92823028Y55107213D01*
X92702715Y54941613D01*
X92609781Y54759223D01*
X92546522Y54564534D01*
X92514500Y54362351D01*
X87495499Y54362351D01*
X87495499Y54860008D01*
X87484999Y54962797D01*
X87429814Y55129334D01*
X87337712Y55278656D01*
X87213656Y55402712D01*
X87064334Y55494814D01*
X86897797Y55549999D01*
X86795009Y55560500D01*
X85594992Y55560499D01*
X85594983Y55560498D01*
X85594981Y55560498D01*
X85492203Y55549999D01*
X85325666Y55494814D01*
X85176344Y55402712D01*
X85052288Y55278656D01*
X84960186Y55129334D01*
X84905001Y54962797D01*
X84905001Y54962795D01*
X84905000Y54962795D01*
X84894500Y54860016D01*
X83247176Y54860016D01*
X83250500Y54885266D01*
X83250500Y55114734D01*
X83220548Y55342238D01*
X83161158Y55563887D01*
X83073344Y55775888D01*
X82980899Y55936007D01*
X82964427Y56003905D01*
X82987279Y56069932D01*
X83000606Y56085686D01*
X83552701Y56637780D01*
X84128102Y57213181D01*
X84189425Y57246666D01*
X84215783Y57249500D01*
X109750104Y57249500D01*
X109817143Y57229815D01*
X109848480Y57200986D01*
X109931079Y57093340D01*
X109931085Y57093333D01*
X110093330Y56931089D01*
X110093338Y56931081D01*
X110275382Y56791392D01*
X110474109Y56676657D01*
X110474123Y56676650D01*
X110686112Y56588842D01*
X110791612Y56560574D01*
X110907762Y56529452D01*
X110907770Y56529451D01*
X111135258Y56499500D01*
X111135266Y56499500D01*
X111364741Y56499500D01*
X111554215Y56524446D01*
X111592238Y56529452D01*
X111813887Y56588842D01*
X111893689Y56621897D01*
X112025876Y56676650D01*
X112025890Y56676657D01*
X112199932Y56777140D01*
X112224612Y56791389D01*
X112224617Y56791392D01*
X112406661Y56931081D01*
X112406670Y56931089D01*
X112568911Y57093330D01*
X112568918Y57093338D01*
X112572911Y57098541D01*
X112660878Y57213181D01*
X112708607Y57275382D01*
X112708608Y57275385D01*
X112708611Y57275388D01*
X112823344Y57474112D01*
X112911158Y57686113D01*
X112970548Y57907762D01*
X113000500Y58135266D01*
X113000500Y58364734D01*
X112970548Y58592238D01*
X112911158Y58813887D01*
X112823344Y59025888D01*
X112708611Y59224612D01*
X112568919Y59406661D01*
X112568914Y59406666D01*
X112568911Y59406670D01*
X112406670Y59568911D01*
X112406665Y59568914D01*
X112406661Y59568919D01*
X112224612Y59708611D01*
X112025888Y59823344D01*
X111813887Y59911158D01*
X111592238Y59970548D01*
X111364734Y60000500D01*
X111135266Y60000500D01*
X110907762Y59970548D01*
X110686113Y59911158D01*
X110565480Y59861190D01*
X110474123Y59823349D01*
X110474117Y59823346D01*
X110474112Y59823344D01*
X110275388Y59708611D01*
X110275385Y59708608D01*
X110275382Y59708607D01*
X110093338Y59568918D01*
X110093330Y59568911D01*
X109931085Y59406666D01*
X109931079Y59406659D01*
X109848480Y59299014D01*
X109792052Y59257811D01*
X109750104Y59250500D01*
X83854675Y59250500D01*
X83854655Y59250501D01*
X83848541Y59250501D01*
X83651460Y59250501D01*
X83651457Y59250501D01*
X83534849Y59227305D01*
X83458165Y59212052D01*
X83383395Y59181081D01*
X83276088Y59136633D01*
X83276079Y59136628D01*
X83112219Y59027140D01*
X83112215Y59027137D01*
X80869289Y56784209D01*
X80869285Y56784206D01*
X80869286Y56784206D01*
X80862220Y56777140D01*
X80862218Y56777139D01*
X80761736Y56676657D01*
X80722859Y56637780D01*
X80668039Y56555736D01*
X80626937Y56517240D01*
X80525388Y56458611D01*
X80525385Y56458608D01*
X80525382Y56458607D01*
X80343338Y56318918D01*
X80343330Y56318911D01*
X80181089Y56156670D01*
X80181081Y56156661D01*
X80041392Y55974617D01*
X79926657Y55775890D01*
X79926650Y55775876D01*
X79842761Y55573349D01*
X79838842Y55563887D01*
X79779452Y55342238D01*
X79779451Y55342229D01*
X79749500Y55114741D01*
X69750500Y55114741D01*
X69750500Y60598543D01*
X69715324Y60775382D01*
X69712051Y60791835D01*
X69636632Y60973914D01*
X69527139Y61137782D01*
X69387782Y61277139D01*
X69387781Y61277139D01*
X65800178Y64864741D01*
X87499500Y64864741D01*
X87499500Y64635258D01*
X87529451Y64407770D01*
X87529453Y64407759D01*
X87588842Y64186112D01*
X87676650Y63974123D01*
X87676657Y63974109D01*
X87791392Y63775382D01*
X87931081Y63593338D01*
X88093338Y63431081D01*
X88275382Y63291392D01*
X88474109Y63176657D01*
X88474123Y63176650D01*
X88686112Y63088842D01*
X88760467Y63068919D01*
X88907762Y63029452D01*
X88907770Y63029451D01*
X89135258Y62999500D01*
X89135266Y62999500D01*
X89364741Y62999500D01*
X89554215Y63024446D01*
X89592238Y63029452D01*
X89784542Y63080979D01*
X89854392Y63079316D01*
X89912254Y63040153D01*
X89939758Y62975924D01*
X89928171Y62907022D01*
X89915010Y62885717D01*
X89791392Y62724617D01*
X89676657Y62525890D01*
X89676650Y62525876D01*
X89588842Y62313887D01*
X89529452Y62092238D01*
X89529451Y62092229D01*
X89499500Y61864741D01*
X89499500Y61635258D01*
X89529451Y61407770D01*
X89529453Y61407759D01*
X89588842Y61186112D01*
X89676650Y60974123D01*
X89676657Y60974109D01*
X89791392Y60775382D01*
X89931081Y60593338D01*
X90093338Y60431081D01*
X90275382Y60291392D01*
X90474109Y60176657D01*
X90474123Y60176650D01*
X90686112Y60088842D01*
X90791612Y60060574D01*
X90907762Y60029452D01*
X90907770Y60029451D01*
X91135258Y59999500D01*
X91135266Y59999500D01*
X91364741Y59999500D01*
X91554215Y60024446D01*
X91592238Y60029452D01*
X91813887Y60088842D01*
X91893689Y60121897D01*
X92025876Y60176650D01*
X92025890Y60176657D01*
X92224617Y60291392D01*
X92406661Y60431081D01*
X92406670Y60431089D01*
X92568914Y60593333D01*
X92568920Y60593340D01*
X92651520Y60700986D01*
X92707948Y60742189D01*
X92749896Y60749500D01*
X116500104Y60749500D01*
X116567143Y60729815D01*
X116598480Y60700986D01*
X116681079Y60593340D01*
X116681085Y60593333D01*
X116843330Y60431089D01*
X116843338Y60431081D01*
X117025382Y60291392D01*
X117224109Y60176657D01*
X117224123Y60176650D01*
X117436112Y60088842D01*
X117541612Y60060574D01*
X117657762Y60029452D01*
X117657770Y60029451D01*
X117885258Y59999500D01*
X117885266Y59999500D01*
X118114741Y59999500D01*
X118304215Y60024446D01*
X118342238Y60029452D01*
X118563887Y60088842D01*
X118643689Y60121897D01*
X118775876Y60176650D01*
X118775890Y60176657D01*
X118974617Y60291392D01*
X119156661Y60431081D01*
X119156670Y60431089D01*
X119318911Y60593330D01*
X119318918Y60593338D01*
X119322911Y60598541D01*
X119413938Y60717169D01*
X119458607Y60775382D01*
X119458608Y60775385D01*
X119458611Y60775388D01*
X119573344Y60974112D01*
X119576414Y60981522D01*
X119641110Y61137713D01*
X119661158Y61186113D01*
X119720548Y61407762D01*
X119750500Y61635266D01*
X119750500Y61864734D01*
X119720548Y62092238D01*
X119661158Y62313887D01*
X119573344Y62525888D01*
X119458611Y62724612D01*
X119318919Y62906661D01*
X119318914Y62906666D01*
X119318911Y62906670D01*
X119156670Y63068911D01*
X119156665Y63068914D01*
X119156661Y63068919D01*
X118974612Y63208611D01*
X118775888Y63323344D01*
X118563887Y63411158D01*
X118342238Y63470548D01*
X118114734Y63500500D01*
X117885266Y63500500D01*
X117657762Y63470548D01*
X117436113Y63411158D01*
X117318128Y63362287D01*
X117224123Y63323349D01*
X117224117Y63323346D01*
X117224112Y63323344D01*
X117025388Y63208611D01*
X117025385Y63208608D01*
X117025382Y63208607D01*
X116932699Y63137488D01*
X116864363Y63085051D01*
X116843338Y63068918D01*
X116843330Y63068911D01*
X116681085Y62906666D01*
X116681079Y62906659D01*
X116598480Y62799014D01*
X116542052Y62757811D01*
X116500104Y62750500D01*
X92749896Y62750500D01*
X92682857Y62770185D01*
X92651520Y62799014D01*
X92584990Y62885717D01*
X92568919Y62906661D01*
X92499656Y62975924D01*
X92406670Y63068911D01*
X92406665Y63068914D01*
X92406661Y63068919D01*
X92224612Y63208611D01*
X92025888Y63323344D01*
X91813887Y63411158D01*
X91592238Y63470548D01*
X91364734Y63500500D01*
X91135266Y63500500D01*
X90907762Y63470548D01*
X90715454Y63419020D01*
X90645608Y63420683D01*
X90587746Y63459846D01*
X90560242Y63524074D01*
X90571829Y63592976D01*
X90584989Y63614281D01*
X90651520Y63700986D01*
X90707948Y63742189D01*
X90749896Y63749500D01*
X92848544Y63749500D01*
X92945188Y63768724D01*
X93041828Y63787946D01*
X93041832Y63787948D01*
X93041836Y63787949D01*
X93095165Y63810038D01*
X93152046Y63833599D01*
X93223911Y63863366D01*
X93223920Y63863371D01*
X93387781Y63972860D01*
X93387785Y63972863D01*
X93531459Y64116537D01*
X93531479Y64116559D01*
X93991206Y64576286D01*
X125674500Y64576286D01*
X125674500Y64363713D01*
X125707753Y64153760D01*
X125773444Y63951585D01*
X125869951Y63762179D01*
X125994890Y63590213D01*
X126145213Y63439890D01*
X126317182Y63314949D01*
X126325946Y63310484D01*
X126376742Y63262509D01*
X126393536Y63194688D01*
X126370998Y63128553D01*
X126325946Y63089516D01*
X126317182Y63085050D01*
X126145213Y62960109D01*
X125994890Y62809786D01*
X125869951Y62637820D01*
X125869949Y62637816D01*
X125773443Y62448412D01*
X125709227Y62250776D01*
X125707753Y62246239D01*
X125674500Y62036286D01*
X125674500Y61823713D01*
X125707753Y61613760D01*
X125773444Y61411585D01*
X125869951Y61222179D01*
X125994890Y61050213D01*
X126145213Y60899890D01*
X126317179Y60774951D01*
X126506585Y60678444D01*
X126708760Y60612753D01*
X126708759Y60612753D01*
X126879202Y60585757D01*
X126918713Y60579500D01*
X126918714Y60579500D01*
X127131286Y60579500D01*
X127131287Y60579500D01*
X127218656Y60593338D01*
X127341239Y60612753D01*
X127341241Y60612753D01*
X127341243Y60612754D01*
X127543412Y60678443D01*
X127668521Y60742189D01*
X127732820Y60774951D01*
X127904786Y60899890D01*
X128055109Y61050213D01*
X128180048Y61222179D01*
X128207408Y61275876D01*
X128276557Y61411588D01*
X128342246Y61613757D01*
X128375500Y61823713D01*
X128375500Y62036287D01*
X128342246Y62246243D01*
X128276557Y62448412D01*
X128180051Y62637816D01*
X128164086Y62659789D01*
X128055109Y62809786D01*
X128055106Y62809788D01*
X128055104Y62809792D01*
X127904792Y62960104D01*
X127904788Y62960106D01*
X127904786Y62960109D01*
X127732820Y63085048D01*
X127732816Y63085051D01*
X127724054Y63089514D01*
X127673259Y63137488D01*
X127656463Y63205308D01*
X127678999Y63271444D01*
X127724054Y63310484D01*
X127732816Y63314949D01*
X127732820Y63314951D01*
X127904786Y63439890D01*
X128055109Y63590213D01*
X128180048Y63762179D01*
X128183383Y63768724D01*
X128276557Y63951588D01*
X128342246Y64153757D01*
X128375500Y64363713D01*
X128375500Y64576287D01*
X128342246Y64786243D01*
X128276557Y64988412D01*
X128180051Y65177816D01*
X128164086Y65199789D01*
X128055109Y65349786D01*
X128055106Y65349788D01*
X128055104Y65349792D01*
X127904792Y65500104D01*
X127904788Y65500106D01*
X127904786Y65500109D01*
X127732820Y65625048D01*
X127732816Y65625051D01*
X127543412Y65721557D01*
X127341243Y65787246D01*
X127131287Y65820500D01*
X126918713Y65820500D01*
X126708757Y65787246D01*
X126506588Y65721557D01*
X126317184Y65625051D01*
X126317181Y65625049D01*
X126317179Y65625048D01*
X126145213Y65500109D01*
X125994890Y65349786D01*
X125869951Y65177820D01*
X125869949Y65177816D01*
X125773443Y64988412D01*
X125707754Y64786243D01*
X125707753Y64786239D01*
X125674500Y64576286D01*
X93991206Y64576286D01*
X99862784Y70447864D01*
X125674500Y70447864D01*
X125674500Y68652129D01*
X125674501Y68652123D01*
X125680908Y68592516D01*
X125731202Y68457671D01*
X125731206Y68457664D01*
X125817452Y68342455D01*
X125817455Y68342452D01*
X125932664Y68256206D01*
X125932671Y68256202D01*
X126067517Y68205908D01*
X126067516Y68205908D01*
X126127116Y68199501D01*
X126127119Y68199500D01*
X126127127Y68199500D01*
X126127134Y68199500D01*
X126127135Y68199500D01*
X127922870Y68199500D01*
X127922876Y68199501D01*
X127982483Y68205908D01*
X128117328Y68256202D01*
X128117335Y68256206D01*
X128232544Y68342452D01*
X128232547Y68342455D01*
X128318793Y68457664D01*
X128318797Y68457671D01*
X128369091Y68592517D01*
X128371216Y68612284D01*
X128375500Y68652127D01*
X128375499Y70447872D01*
X128369091Y70507483D01*
X128318796Y70642331D01*
X128232546Y70757546D01*
X128117331Y70843796D01*
X127982483Y70894091D01*
X127922873Y70900500D01*
X126127128Y70900499D01*
X126078757Y70895299D01*
X126067516Y70894091D01*
X125932671Y70843797D01*
X125932664Y70843793D01*
X125817455Y70757547D01*
X125817452Y70757544D01*
X125731206Y70642335D01*
X125731202Y70642328D01*
X125680908Y70507482D01*
X125674501Y70447883D01*
X125674501Y70447876D01*
X125674500Y70447864D01*
X99862784Y70447864D01*
X100146872Y70731952D01*
X100208195Y70765437D01*
X100250738Y70767210D01*
X100385265Y70749500D01*
X100385266Y70749500D01*
X100614741Y70749500D01*
X100804215Y70774446D01*
X100842238Y70779452D01*
X101063887Y70838842D01*
X101075847Y70843796D01*
X101275876Y70926650D01*
X101275890Y70926657D01*
X101474617Y71041392D01*
X101656661Y71181081D01*
X101656670Y71181089D01*
X101818911Y71343330D01*
X101818918Y71343338D01*
X101958607Y71525382D01*
X101958608Y71525385D01*
X101958611Y71525388D01*
X102073344Y71724112D01*
X102161158Y71936113D01*
X102220548Y72157762D01*
X102250500Y72385266D01*
X102250500Y72614734D01*
X102232788Y72749262D01*
X102243553Y72818294D01*
X102268046Y72853126D01*
X111267271Y81852351D01*
X122699500Y81852351D01*
X122699500Y81647648D01*
X122731522Y81445465D01*
X122794781Y81250776D01*
X122887715Y81068386D01*
X123008028Y80902786D01*
X123152786Y80758028D01*
X123318386Y80637715D01*
X123500776Y80544781D01*
X123695465Y80481522D01*
X123873329Y80453351D01*
X123897648Y80449500D01*
X123897649Y80449500D01*
X124102351Y80449500D01*
X124102352Y80449500D01*
X124129995Y80453878D01*
X124304534Y80481522D01*
X124499223Y80544781D01*
X124624653Y80608691D01*
X124681610Y80637713D01*
X124681613Y80637715D01*
X124847213Y80758028D01*
X124991971Y80902786D01*
X125112284Y81068386D01*
X125112287Y81068390D01*
X125171503Y81184607D01*
X125205218Y81250776D01*
X125268477Y81445465D01*
X125300500Y81647648D01*
X125300500Y81852351D01*
X125268477Y82054534D01*
X125205220Y82249219D01*
X125112287Y82431610D01*
X125044732Y82524590D01*
X124991971Y82597213D01*
X124991968Y82597215D01*
X124991966Y82597219D01*
X124847219Y82741966D01*
X124847215Y82741968D01*
X124847213Y82741971D01*
X124774590Y82794732D01*
X124681610Y82862287D01*
X124499219Y82955220D01*
X124304534Y83018477D01*
X124102352Y83050500D01*
X123897648Y83050500D01*
X123796557Y83034488D01*
X123695465Y83018477D01*
X123605137Y82989127D01*
X123500781Y82955220D01*
X123500778Y82955218D01*
X123500776Y82955218D01*
X123434607Y82921503D01*
X123318390Y82862287D01*
X123318386Y82862284D01*
X123152786Y82741971D01*
X123008028Y82597213D01*
X122887715Y82431613D01*
X122794781Y82249223D01*
X122731522Y82054534D01*
X122699500Y81852351D01*
X111267271Y81852351D01*
X113884655Y84469735D01*
X113884686Y84469764D01*
X114005286Y84590364D01*
X136499500Y84590364D01*
X136499500Y80994629D01*
X136499501Y80994623D01*
X136505908Y80935016D01*
X136556202Y80800171D01*
X136556206Y80800164D01*
X136642452Y80684955D01*
X136642455Y80684952D01*
X136757664Y80598706D01*
X136757671Y80598702D01*
X136892517Y80548408D01*
X136892516Y80548408D01*
X136952116Y80542001D01*
X136952119Y80542000D01*
X136952127Y80542000D01*
X136952134Y80542000D01*
X136952135Y80542000D01*
X140547870Y80542000D01*
X140547876Y80542001D01*
X140607483Y80548408D01*
X140742328Y80598702D01*
X140742335Y80598706D01*
X140857544Y80684952D01*
X140857547Y80684955D01*
X140943793Y80800164D01*
X140943797Y80800171D01*
X140994091Y80935017D01*
X141000500Y80994627D01*
X141000499Y83856722D01*
X142749500Y83856722D01*
X142749500Y81728291D01*
X142749501Y81728276D01*
X142759904Y81596086D01*
X142759905Y81596079D01*
X142814902Y81377821D01*
X142814903Y81377818D01*
X142907991Y81172877D01*
X142907997Y81172867D01*
X143036174Y80987854D01*
X143036184Y80987842D01*
X143195342Y80828684D01*
X143195354Y80828674D01*
X143380367Y80700497D01*
X143380377Y80700491D01*
X143585318Y80607403D01*
X143585321Y80607402D01*
X143803579Y80552405D01*
X143803586Y80552404D01*
X143891718Y80545468D01*
X143935783Y80542000D01*
X143935784Y80542000D01*
X145564208Y80542000D01*
X145564223Y80542001D01*
X145696413Y80552404D01*
X145696420Y80552405D01*
X145914678Y80607402D01*
X145914681Y80607403D01*
X146119622Y80700491D01*
X146119623Y80700491D01*
X146119626Y80700493D01*
X146202673Y80758028D01*
X146304645Y80828674D01*
X146304650Y80828678D01*
X146304654Y80828681D01*
X146463819Y80987846D01*
X146468510Y80994616D01*
X146592002Y81172867D01*
X146592007Y81172874D01*
X146685096Y81377817D01*
X146740096Y81596088D01*
X146750500Y81728283D01*
X146750499Y83856716D01*
X146740096Y83988912D01*
X146685096Y84207183D01*
X146592007Y84412126D01*
X146463819Y84597154D01*
X146304654Y84756319D01*
X146119626Y84884507D01*
X145914683Y84977596D01*
X145696412Y85032596D01*
X145564217Y85043000D01*
X143935784Y85042999D01*
X143803588Y85032596D01*
X143803581Y85032594D01*
X143803579Y85032594D01*
X143591590Y84979176D01*
X143585317Y84977596D01*
X143380374Y84884507D01*
X143380367Y84884502D01*
X143195354Y84756325D01*
X143195350Y84756322D01*
X143195346Y84756319D01*
X143036181Y84597154D01*
X143036178Y84597150D01*
X143036174Y84597145D01*
X142907997Y84412132D01*
X142907991Y84412122D01*
X142814903Y84207181D01*
X142814902Y84207178D01*
X142759905Y83988920D01*
X142759904Y83988913D01*
X142749500Y83856722D01*
X141000499Y83856722D01*
X141000499Y84590372D01*
X140994091Y84649983D01*
X140943796Y84784831D01*
X140857546Y84900046D01*
X140742331Y84986296D01*
X140607483Y85036591D01*
X140547873Y85043000D01*
X136952128Y85042999D01*
X136903757Y85037799D01*
X136892516Y85036591D01*
X136757671Y84986297D01*
X136757664Y84986293D01*
X136642455Y84900047D01*
X136642452Y84900044D01*
X136556206Y84784835D01*
X136556202Y84784828D01*
X136505908Y84649982D01*
X136501848Y84612214D01*
X136499501Y84590376D01*
X136499500Y84590364D01*
X114005286Y84590364D01*
X114027136Y84612214D01*
X114027139Y84612218D01*
X114060794Y84662585D01*
X114136628Y84776079D01*
X114136635Y84776092D01*
X114212049Y84958160D01*
X114212052Y84958170D01*
X114250500Y85151456D01*
X114250500Y93368097D01*
X128249500Y93368097D01*
X128249500Y93131902D01*
X128286446Y92898631D01*
X128359433Y92674003D01*
X128466657Y92463566D01*
X128528507Y92378438D01*
X128605483Y92272490D01*
X128605485Y92272488D01*
X128605485Y92272487D01*
X128772487Y92105485D01*
X128963566Y91966657D01*
X129174003Y91859433D01*
X129398631Y91786446D01*
X129631903Y91749500D01*
X129631908Y91749500D01*
X129868097Y91749500D01*
X130101368Y91786446D01*
X130325996Y91859433D01*
X130536433Y91966657D01*
X130727510Y92105483D01*
X130894517Y92272490D01*
X131033343Y92463567D01*
X131084002Y92562991D01*
X131140566Y92674003D01*
X131213553Y92898631D01*
X131250500Y93131902D01*
X131250500Y93368097D01*
X134749500Y93368097D01*
X134749500Y93131902D01*
X134786446Y92898631D01*
X134859433Y92674003D01*
X134966657Y92463566D01*
X135028507Y92378438D01*
X135105483Y92272490D01*
X135105485Y92272488D01*
X135105485Y92272487D01*
X135272487Y92105485D01*
X135463566Y91966657D01*
X135674003Y91859433D01*
X135898631Y91786446D01*
X136131903Y91749500D01*
X136131908Y91749500D01*
X136368097Y91749500D01*
X136601368Y91786446D01*
X136825996Y91859433D01*
X137036433Y91966657D01*
X137227510Y92105483D01*
X137394517Y92272490D01*
X137533343Y92463567D01*
X137584002Y92562991D01*
X137640566Y92674003D01*
X137713553Y92898631D01*
X137750500Y93131902D01*
X137750500Y93368097D01*
X137713553Y93601368D01*
X137640568Y93825992D01*
X137533343Y94036433D01*
X137394517Y94227510D01*
X137227510Y94394517D01*
X137036433Y94533343D01*
X136825992Y94640568D01*
X136601368Y94713553D01*
X136368097Y94750500D01*
X136368092Y94750500D01*
X136131908Y94750500D01*
X136131903Y94750500D01*
X135898631Y94713553D01*
X135794412Y94679689D01*
X135674008Y94640568D01*
X135674005Y94640566D01*
X135674003Y94640566D01*
X135629680Y94617982D01*
X135463567Y94533343D01*
X135272490Y94394517D01*
X135105483Y94227510D01*
X134978545Y94052795D01*
X134966657Y94036433D01*
X134859433Y93825996D01*
X134786446Y93601368D01*
X134749500Y93368097D01*
X131250500Y93368097D01*
X131213553Y93601368D01*
X131140568Y93825992D01*
X131033343Y94036433D01*
X130894517Y94227510D01*
X130727510Y94394517D01*
X130536433Y94533343D01*
X130325992Y94640568D01*
X130101368Y94713553D01*
X129868097Y94750500D01*
X129868092Y94750500D01*
X129631908Y94750500D01*
X129631903Y94750500D01*
X129398631Y94713553D01*
X129294412Y94679689D01*
X129174008Y94640568D01*
X129174005Y94640566D01*
X129174003Y94640566D01*
X129129680Y94617982D01*
X128963567Y94533343D01*
X128772490Y94394517D01*
X128605483Y94227510D01*
X128478545Y94052795D01*
X128466657Y94036433D01*
X128359433Y93825996D01*
X128286446Y93601368D01*
X128249500Y93368097D01*
X114250500Y93368097D01*
X114250500Y96356286D01*
X115319500Y96356286D01*
X115319500Y96143713D01*
X115352753Y95933760D01*
X115418444Y95731585D01*
X115514951Y95542179D01*
X115639890Y95370213D01*
X115790213Y95219890D01*
X115962179Y95094951D01*
X116151585Y94998444D01*
X116353760Y94932753D01*
X116353759Y94932753D01*
X116524202Y94905757D01*
X116563713Y94899500D01*
X116563714Y94899500D01*
X116776286Y94899500D01*
X116776287Y94899500D01*
X116839644Y94909534D01*
X116986239Y94932753D01*
X116986241Y94932753D01*
X116986243Y94932754D01*
X117188412Y94998443D01*
X117377816Y95094949D01*
X117377820Y95094951D01*
X117549786Y95219890D01*
X117700109Y95370213D01*
X117825050Y95542182D01*
X117829516Y95550946D01*
X117877491Y95601742D01*
X117945312Y95618536D01*
X118011447Y95595998D01*
X118050484Y95550946D01*
X118054949Y95542182D01*
X118179890Y95370213D01*
X118330213Y95219890D01*
X118502179Y95094951D01*
X118691585Y94998444D01*
X118893760Y94932753D01*
X118893759Y94932753D01*
X119064202Y94905757D01*
X119103713Y94899500D01*
X119103714Y94899500D01*
X119316286Y94899500D01*
X119316287Y94899500D01*
X119379644Y94909534D01*
X119526239Y94932753D01*
X119526241Y94932753D01*
X119526243Y94932754D01*
X119728412Y94998443D01*
X119917816Y95094949D01*
X119917820Y95094951D01*
X120089786Y95219890D01*
X120240109Y95370213D01*
X120365048Y95542179D01*
X120369515Y95550946D01*
X120461557Y95731588D01*
X120527246Y95933757D01*
X120560500Y96143713D01*
X120560500Y96356287D01*
X120527246Y96566243D01*
X120461557Y96768412D01*
X120365051Y96957816D01*
X120349086Y96979789D01*
X120240109Y97129786D01*
X120240106Y97129788D01*
X120240104Y97129792D01*
X120089792Y97280104D01*
X120089788Y97280106D01*
X120089786Y97280109D01*
X119917820Y97405048D01*
X119917816Y97405051D01*
X119728412Y97501557D01*
X119526243Y97567246D01*
X119316287Y97600500D01*
X119103713Y97600500D01*
X118893757Y97567246D01*
X118691588Y97501557D01*
X118502184Y97405051D01*
X118502181Y97405049D01*
X118502179Y97405048D01*
X118330213Y97280109D01*
X118179890Y97129786D01*
X118054951Y96957820D01*
X118050486Y96949056D01*
X118002512Y96898259D01*
X117934692Y96881463D01*
X117868556Y96903999D01*
X117829514Y96949056D01*
X117825051Y96957816D01*
X117809086Y96979789D01*
X117700109Y97129786D01*
X117700106Y97129788D01*
X117700104Y97129792D01*
X117549792Y97280104D01*
X117549788Y97280106D01*
X117549786Y97280109D01*
X117377820Y97405048D01*
X117377816Y97405051D01*
X117188412Y97501557D01*
X116986243Y97567246D01*
X116776287Y97600500D01*
X116563713Y97600500D01*
X116353757Y97567246D01*
X116151588Y97501557D01*
X115962184Y97405051D01*
X115962181Y97405049D01*
X115962179Y97405048D01*
X115790213Y97280109D01*
X115639890Y97129786D01*
X115514951Y96957820D01*
X115418444Y96768414D01*
X115352753Y96566239D01*
X115319500Y96356286D01*
X114250500Y96356286D01*
X114250500Y97868097D01*
X128249500Y97868097D01*
X128249500Y97631902D01*
X128286446Y97398631D01*
X128359433Y97174003D01*
X128466657Y96963566D01*
X128514106Y96898259D01*
X128605483Y96772490D01*
X128605485Y96772488D01*
X128605485Y96772487D01*
X128772487Y96605485D01*
X128963566Y96466657D01*
X129174003Y96359433D01*
X129398631Y96286446D01*
X129631903Y96249500D01*
X129631908Y96249500D01*
X129868097Y96249500D01*
X130101368Y96286446D01*
X130325996Y96359433D01*
X130536433Y96466657D01*
X130727510Y96605483D01*
X130894517Y96772490D01*
X131033343Y96963567D01*
X131118039Y97129792D01*
X131140566Y97174003D01*
X131213553Y97398631D01*
X131250500Y97631902D01*
X131250500Y97868097D01*
X134749500Y97868097D01*
X134749500Y97631902D01*
X134786446Y97398631D01*
X134859433Y97174003D01*
X134966657Y96963566D01*
X135014106Y96898259D01*
X135105483Y96772490D01*
X135105485Y96772488D01*
X135105485Y96772487D01*
X135272487Y96605485D01*
X135463566Y96466657D01*
X135674003Y96359433D01*
X135898631Y96286446D01*
X136131903Y96249500D01*
X136131908Y96249500D01*
X136368097Y96249500D01*
X136601368Y96286446D01*
X136825996Y96359433D01*
X137036433Y96466657D01*
X137227510Y96605483D01*
X137394517Y96772490D01*
X137533343Y96963567D01*
X137618039Y97129792D01*
X137640566Y97174003D01*
X137713553Y97398631D01*
X137750500Y97631902D01*
X137750500Y97868097D01*
X137713553Y98101368D01*
X137706882Y98121898D01*
X137640568Y98325992D01*
X137533343Y98536433D01*
X137394517Y98727510D01*
X137227510Y98894517D01*
X137036433Y99033343D01*
X136825992Y99140568D01*
X136601368Y99213553D01*
X136368097Y99250500D01*
X136368092Y99250500D01*
X136131908Y99250500D01*
X136131903Y99250500D01*
X135898631Y99213553D01*
X135794412Y99179689D01*
X135674008Y99140568D01*
X135674005Y99140566D01*
X135674003Y99140566D01*
X135562991Y99084002D01*
X135463567Y99033343D01*
X135272490Y98894517D01*
X135105483Y98727510D01*
X134970260Y98541392D01*
X134966657Y98536433D01*
X134859433Y98325996D01*
X134786446Y98101368D01*
X134749500Y97868097D01*
X131250500Y97868097D01*
X131213553Y98101368D01*
X131206882Y98121898D01*
X131140568Y98325992D01*
X131033343Y98536433D01*
X130894517Y98727510D01*
X130727510Y98894517D01*
X130536433Y99033343D01*
X130325992Y99140568D01*
X130101368Y99213553D01*
X129868097Y99250500D01*
X129868092Y99250500D01*
X129631908Y99250500D01*
X129631903Y99250500D01*
X129398631Y99213553D01*
X129294412Y99179689D01*
X129174008Y99140568D01*
X129174005Y99140566D01*
X129174003Y99140566D01*
X129062991Y99084002D01*
X128963567Y99033343D01*
X128772490Y98894517D01*
X128605483Y98727510D01*
X128470260Y98541392D01*
X128466657Y98536433D01*
X128359433Y98325996D01*
X128286446Y98101368D01*
X128249500Y97868097D01*
X114250500Y97868097D01*
X114250500Y98034217D01*
X114270185Y98101256D01*
X114286819Y98121898D01*
X114396873Y98231952D01*
X114458196Y98265437D01*
X114500739Y98267210D01*
X114635265Y98249500D01*
X114635266Y98249500D01*
X114864741Y98249500D01*
X115054215Y98274446D01*
X115092238Y98279452D01*
X115313887Y98338842D01*
X115525876Y98426650D01*
X115525890Y98426657D01*
X115724617Y98541392D01*
X115906661Y98681081D01*
X115906670Y98681089D01*
X116068911Y98843330D01*
X116068918Y98843338D01*
X116208607Y99025382D01*
X116208608Y99025385D01*
X116208611Y99025388D01*
X116323344Y99224112D01*
X116334275Y99250500D01*
X116384307Y99371288D01*
X143649500Y99371288D01*
X143649500Y99128711D01*
X143681161Y98888214D01*
X143743947Y98653895D01*
X143836773Y98429794D01*
X143836777Y98429785D01*
X143958067Y98219706D01*
X144105733Y98027263D01*
X144105739Y98027256D01*
X144277256Y97855739D01*
X144277263Y97855733D01*
X144469706Y97708067D01*
X144679785Y97586777D01*
X144679794Y97586773D01*
X144903895Y97493947D01*
X145138214Y97431161D01*
X145378711Y97399500D01*
X145378712Y97399500D01*
X145621289Y97399500D01*
X145861785Y97431161D01*
X146096104Y97493947D01*
X146320205Y97586773D01*
X146320214Y97586777D01*
X146358661Y97608974D01*
X146530289Y97708064D01*
X146530293Y97708067D01*
X146722736Y97855733D01*
X146722743Y97855739D01*
X146894260Y98027256D01*
X146894266Y98027263D01*
X147041932Y98219706D01*
X147041936Y98219711D01*
X147163224Y98429788D01*
X147256054Y98653900D01*
X147318838Y98888211D01*
X147350500Y99128712D01*
X147350500Y99371288D01*
X147318838Y99611789D01*
X147256054Y99846100D01*
X147163224Y100070212D01*
X147041936Y100280289D01*
X146894265Y100472738D01*
X146722738Y100644265D01*
X146530289Y100791936D01*
X146320212Y100913224D01*
X146096100Y101006054D01*
X145861789Y101068838D01*
X145669388Y101094167D01*
X145621289Y101100500D01*
X145621288Y101100500D01*
X145378712Y101100500D01*
X145378711Y101100500D01*
X145318586Y101092584D01*
X145138211Y101068838D01*
X144903900Y101006054D01*
X144679788Y100913224D01*
X144469711Y100791936D01*
X144448797Y100775888D01*
X144277263Y100644266D01*
X144277256Y100644260D01*
X144105739Y100472743D01*
X144105733Y100472736D01*
X144005599Y100342238D01*
X143958064Y100280289D01*
X143862485Y100114741D01*
X143836777Y100070214D01*
X143836773Y100070205D01*
X143743947Y99846104D01*
X143681161Y99611785D01*
X143649500Y99371288D01*
X116384307Y99371288D01*
X116405643Y99422799D01*
X116411157Y99436111D01*
X116411158Y99436113D01*
X116470548Y99657762D01*
X116500500Y99885266D01*
X116500500Y100114734D01*
X116470548Y100342238D01*
X116411158Y100563887D01*
X116323344Y100775888D01*
X116208611Y100974612D01*
X116068919Y101156661D01*
X116068914Y101156665D01*
X116068911Y101156670D01*
X115906670Y101318911D01*
X115906665Y101318914D01*
X115906661Y101318919D01*
X115724612Y101458611D01*
X115525888Y101573344D01*
X115313887Y101661158D01*
X115092238Y101720548D01*
X114864734Y101750500D01*
X114635266Y101750500D01*
X114407762Y101720548D01*
X114186113Y101661158D01*
X114065480Y101611190D01*
X113974123Y101573349D01*
X113974117Y101573346D01*
X113974112Y101573344D01*
X113775388Y101458611D01*
X113775385Y101458608D01*
X113775382Y101458607D01*
X113593338Y101318918D01*
X113593330Y101318911D01*
X113431089Y101156670D01*
X113431081Y101156661D01*
X113291392Y100974617D01*
X113176657Y100775890D01*
X113176650Y100775876D01*
X113088842Y100563887D01*
X113029452Y100342238D01*
X113029451Y100342229D01*
X112999500Y100114741D01*
X112999500Y99885265D01*
X113017210Y99750739D01*
X113006444Y99681703D01*
X112981952Y99646873D01*
X112619289Y99284209D01*
X112619285Y99284206D01*
X112619286Y99284206D01*
X112612220Y99277140D01*
X112612218Y99277139D01*
X112475647Y99140568D01*
X112472859Y99137780D01*
X112363371Y98973920D01*
X112363364Y98973907D01*
X112287950Y98791839D01*
X112287947Y98791829D01*
X112249500Y98598543D01*
X112249500Y85715782D01*
X112229815Y85648743D01*
X112213181Y85628101D01*
X100853126Y74268046D01*
X100791803Y74234561D01*
X100749264Y74232788D01*
X100614734Y74250500D01*
X100385266Y74250500D01*
X100157762Y74220548D01*
X99936113Y74161158D01*
X99815480Y74111190D01*
X99724123Y74073349D01*
X99724117Y74073346D01*
X99724112Y74073344D01*
X99525388Y73958611D01*
X99525385Y73958608D01*
X99525382Y73958607D01*
X99343338Y73818918D01*
X99343330Y73818911D01*
X99181089Y73656670D01*
X99181081Y73656661D01*
X99041392Y73474617D01*
X98926657Y73275890D01*
X98926650Y73275876D01*
X98838842Y73063887D01*
X98779452Y72842238D01*
X98779451Y72842229D01*
X98749500Y72614741D01*
X98749500Y72385265D01*
X98767210Y72250738D01*
X98756444Y72181702D01*
X98731952Y72146872D01*
X92371899Y65786819D01*
X92310576Y65753334D01*
X92284218Y65750500D01*
X90749896Y65750500D01*
X90682857Y65770185D01*
X90651520Y65799014D01*
X90625829Y65832494D01*
X90568919Y65906661D01*
X90494057Y65981523D01*
X90406670Y66068911D01*
X90406665Y66068914D01*
X90406661Y66068919D01*
X90224612Y66208611D01*
X90025888Y66323344D01*
X89813887Y66411158D01*
X89592238Y66470548D01*
X89364734Y66500500D01*
X89135266Y66500500D01*
X88907762Y66470548D01*
X88686113Y66411158D01*
X88565480Y66361190D01*
X88474123Y66323349D01*
X88474117Y66323346D01*
X88474112Y66323344D01*
X88275388Y66208611D01*
X88275385Y66208608D01*
X88275382Y66208607D01*
X88093338Y66068918D01*
X88093330Y66068911D01*
X87931089Y65906670D01*
X87931081Y65906661D01*
X87791392Y65724617D01*
X87676657Y65525890D01*
X87676650Y65525876D01*
X87603714Y65349792D01*
X87588842Y65313887D01*
X87529452Y65092238D01*
X87529451Y65092229D01*
X87499500Y64864741D01*
X65800178Y64864741D01*
X65768044Y64896875D01*
X65734561Y64958196D01*
X65732788Y65000734D01*
X65750500Y65135266D01*
X65750500Y65364734D01*
X65720548Y65592238D01*
X65661158Y65813887D01*
X65573344Y66025888D01*
X65458611Y66224612D01*
X65318919Y66406661D01*
X65318914Y66406665D01*
X65318911Y66406670D01*
X65156670Y66568911D01*
X65156665Y66568914D01*
X65156661Y66568919D01*
X64974612Y66708611D01*
X64775888Y66823344D01*
X64563887Y66911158D01*
X64342238Y66970548D01*
X64114734Y67000500D01*
X63885266Y67000500D01*
X63657762Y66970548D01*
X63436113Y66911158D01*
X63315480Y66861190D01*
X63224123Y66823349D01*
X63224117Y66823346D01*
X63224112Y66823344D01*
X63025388Y66708611D01*
X63025385Y66708608D01*
X63025382Y66708607D01*
X62843338Y66568918D01*
X62843330Y66568911D01*
X62681089Y66406670D01*
X62681081Y66406661D01*
X62541392Y66224617D01*
X62426657Y66025890D01*
X62426650Y66025876D01*
X62341581Y65820500D01*
X62338842Y65813887D01*
X62279452Y65592238D01*
X62279451Y65592229D01*
X62249500Y65364741D01*
X34317102Y65364741D01*
X34386065Y65387593D01*
X34469335Y65415186D01*
X34469337Y65415187D01*
X34565223Y65474331D01*
X34618651Y65507286D01*
X34618655Y65507289D01*
X34742710Y65631344D01*
X34742713Y65631348D01*
X34834812Y65780662D01*
X34834813Y65780664D01*
X34845822Y65813887D01*
X34889999Y65947203D01*
X34900500Y66049992D01*
X34900500Y67602351D01*
X40119500Y67602351D01*
X40119500Y67397648D01*
X40151522Y67195465D01*
X40214781Y67000776D01*
X40307715Y66818386D01*
X40428028Y66652786D01*
X40572786Y66508028D01*
X40738386Y66387715D01*
X40920776Y66294781D01*
X41115465Y66231522D01*
X41293329Y66203351D01*
X41317648Y66199500D01*
X41317649Y66199500D01*
X41522351Y66199500D01*
X41522352Y66199500D01*
X41549995Y66203878D01*
X41724534Y66231522D01*
X41919223Y66294781D01*
X42044653Y66358691D01*
X42101610Y66387713D01*
X42101613Y66387715D01*
X42267213Y66508028D01*
X42411971Y66652786D01*
X42532284Y66818386D01*
X42532287Y66818390D01*
X42597036Y66945466D01*
X42625218Y67000776D01*
X42688477Y67195465D01*
X42720500Y67397648D01*
X42720500Y67602351D01*
X50279500Y67602351D01*
X50279500Y67397648D01*
X50311522Y67195465D01*
X50374781Y67000776D01*
X50467715Y66818386D01*
X50588028Y66652786D01*
X50732786Y66508028D01*
X50898386Y66387715D01*
X51080776Y66294781D01*
X51275465Y66231522D01*
X51453329Y66203351D01*
X51477648Y66199500D01*
X51477649Y66199500D01*
X51682351Y66199500D01*
X51682352Y66199500D01*
X51709995Y66203878D01*
X51884534Y66231522D01*
X52079223Y66294781D01*
X52204653Y66358691D01*
X52261610Y66387713D01*
X52261613Y66387715D01*
X52427213Y66508028D01*
X52571971Y66652786D01*
X52692284Y66818386D01*
X52692287Y66818390D01*
X52757036Y66945466D01*
X52785218Y67000776D01*
X52848477Y67195465D01*
X52880500Y67397648D01*
X52880500Y67602351D01*
X52857237Y67749223D01*
X52848477Y67804534D01*
X52785220Y67999219D01*
X52692287Y68181610D01*
X52622412Y68277786D01*
X52571971Y68347213D01*
X52571968Y68347215D01*
X52571966Y68347219D01*
X52427219Y68491966D01*
X52427215Y68491968D01*
X52427213Y68491971D01*
X52343493Y68552796D01*
X52261610Y68612287D01*
X52079219Y68705220D01*
X51884534Y68768477D01*
X51682352Y68800500D01*
X51477648Y68800500D01*
X51376557Y68784488D01*
X51275465Y68768477D01*
X51189257Y68740466D01*
X51080781Y68705220D01*
X51080778Y68705218D01*
X51080776Y68705218D01*
X51014607Y68671503D01*
X50898390Y68612287D01*
X50898386Y68612284D01*
X50732786Y68491971D01*
X50588028Y68347213D01*
X50467715Y68181613D01*
X50374781Y67999223D01*
X50311522Y67804534D01*
X50279500Y67602351D01*
X42720500Y67602351D01*
X42697237Y67749223D01*
X42688477Y67804534D01*
X42625220Y67999219D01*
X42532287Y68181610D01*
X42462412Y68277786D01*
X42411971Y68347213D01*
X42411968Y68347215D01*
X42411966Y68347219D01*
X42267219Y68491966D01*
X42267215Y68491968D01*
X42267213Y68491971D01*
X42183493Y68552796D01*
X42101610Y68612287D01*
X41919219Y68705220D01*
X41724534Y68768477D01*
X41522352Y68800500D01*
X41317648Y68800500D01*
X41216557Y68784488D01*
X41115465Y68768477D01*
X41029257Y68740466D01*
X40920781Y68705220D01*
X40920778Y68705218D01*
X40920776Y68705218D01*
X40854607Y68671503D01*
X40738390Y68612287D01*
X40738386Y68612284D01*
X40572786Y68491971D01*
X40428028Y68347213D01*
X40307715Y68181613D01*
X40214781Y67999223D01*
X40151522Y67804534D01*
X40119500Y67602351D01*
X34900500Y67602351D01*
X34900500Y68450008D01*
X34889999Y68552797D01*
X34834814Y68719334D01*
X34742711Y68868655D01*
X34618655Y68992711D01*
X34469334Y69084814D01*
X34302797Y69139999D01*
X34200008Y69150500D01*
X31799992Y69150500D01*
X31697203Y69139999D01*
X31530666Y69084814D01*
X31530664Y69084813D01*
X31530662Y69084812D01*
X31381348Y68992713D01*
X31381344Y68992710D01*
X31257289Y68868655D01*
X31257286Y68868651D01*
X31165187Y68719337D01*
X31165186Y68719335D01*
X31110001Y68552796D01*
X31110000Y68552795D01*
X31099500Y68450015D01*
X24589434Y68450015D01*
X24579219Y68455220D01*
X24384534Y68518477D01*
X24182352Y68550500D01*
X23977648Y68550500D01*
X23876557Y68534488D01*
X23775465Y68518477D01*
X23685137Y68489127D01*
X23580781Y68455220D01*
X23580778Y68455218D01*
X23580776Y68455218D01*
X23514607Y68421503D01*
X23398390Y68362287D01*
X23398386Y68362284D01*
X23232786Y68241971D01*
X23088028Y68097213D01*
X23016836Y67999223D01*
X22967713Y67931610D01*
X22938691Y67874653D01*
X22874781Y67749223D01*
X22811522Y67554534D01*
X22779500Y67352351D01*
X15220500Y67352351D01*
X15188477Y67554534D01*
X15126753Y67744500D01*
X15125220Y67749219D01*
X15032287Y67931610D01*
X14964732Y68024590D01*
X14911971Y68097213D01*
X14911968Y68097215D01*
X14911966Y68097219D01*
X14767219Y68241966D01*
X14767215Y68241968D01*
X14767213Y68241971D01*
X14694590Y68294732D01*
X14601610Y68362287D01*
X14419219Y68455220D01*
X14224534Y68518477D01*
X14022352Y68550500D01*
X13817648Y68550500D01*
X13716557Y68534488D01*
X13615465Y68518477D01*
X13525137Y68489127D01*
X13420781Y68455220D01*
X13420778Y68455218D01*
X13420776Y68455218D01*
X13354607Y68421503D01*
X13238390Y68362287D01*
X13238386Y68362284D01*
X13072786Y68241971D01*
X12928028Y68097213D01*
X12856836Y67999223D01*
X12807713Y67931610D01*
X12778691Y67874653D01*
X12714781Y67749223D01*
X12651522Y67554534D01*
X12619500Y67352351D01*
X10000500Y67352351D01*
X10000500Y69227351D01*
X76574500Y69227351D01*
X76574500Y69022648D01*
X76606522Y68820465D01*
X76669781Y68625776D01*
X76762715Y68443386D01*
X76883028Y68277786D01*
X77027786Y68133028D01*
X77193386Y68012715D01*
X77375776Y67919781D01*
X77570465Y67856522D01*
X77748329Y67828351D01*
X77772648Y67824500D01*
X77772649Y67824500D01*
X77977351Y67824500D01*
X77977352Y67824500D01*
X78004995Y67828878D01*
X78179534Y67856522D01*
X78374223Y67919781D01*
X78499653Y67983691D01*
X78556610Y68012713D01*
X78556613Y68012715D01*
X78722213Y68133028D01*
X78866971Y68277786D01*
X78987284Y68443386D01*
X78987287Y68443390D01*
X79073343Y68612284D01*
X79080218Y68625776D01*
X79088777Y68652116D01*
X79143477Y68820466D01*
X79175500Y69022648D01*
X79175500Y69147351D01*
X82574500Y69147351D01*
X82574500Y68942648D01*
X82606522Y68740465D01*
X82669781Y68545776D01*
X82762715Y68363386D01*
X82883028Y68197786D01*
X83027786Y68053028D01*
X83193386Y67932715D01*
X83375776Y67839781D01*
X83570465Y67776522D01*
X83742854Y67749219D01*
X83772648Y67744500D01*
X83772649Y67744500D01*
X83977351Y67744500D01*
X83977352Y67744500D01*
X84007171Y67749223D01*
X84179534Y67776522D01*
X84374223Y67839781D01*
X84499653Y67903691D01*
X84556610Y67932713D01*
X84556613Y67932715D01*
X84722213Y68053028D01*
X84866971Y68197786D01*
X84987284Y68363386D01*
X84987287Y68363390D01*
X85066308Y68518477D01*
X85080218Y68545776D01*
X85082500Y68552797D01*
X85143477Y68740466D01*
X85163781Y68868655D01*
X85175500Y68942648D01*
X85175500Y69147351D01*
X85175001Y69150499D01*
X85143477Y69349534D01*
X85080220Y69544219D01*
X84987287Y69726610D01*
X84919732Y69819590D01*
X84866971Y69892213D01*
X84866968Y69892215D01*
X84866966Y69892219D01*
X84722219Y70036966D01*
X84722215Y70036968D01*
X84722213Y70036971D01*
X84649590Y70089732D01*
X84556610Y70157287D01*
X84374219Y70250220D01*
X84179534Y70313477D01*
X83977352Y70345500D01*
X83772648Y70345500D01*
X83676175Y70330220D01*
X83570465Y70313477D01*
X83480137Y70284127D01*
X83375781Y70250220D01*
X83375778Y70250218D01*
X83375776Y70250218D01*
X83309607Y70216503D01*
X83193390Y70157287D01*
X83193386Y70157284D01*
X83027786Y70036971D01*
X82883028Y69892213D01*
X82762715Y69726613D01*
X82669781Y69544223D01*
X82606522Y69349534D01*
X82587171Y69227352D01*
X82574999Y69150499D01*
X82574500Y69147351D01*
X79175500Y69147351D01*
X79175500Y69227352D01*
X79143477Y69429534D01*
X79080220Y69624219D01*
X78987287Y69806610D01*
X78919732Y69899590D01*
X78866971Y69972213D01*
X78866968Y69972215D01*
X78866966Y69972219D01*
X78722219Y70116966D01*
X78722215Y70116968D01*
X78722213Y70116971D01*
X78649590Y70169732D01*
X78556610Y70237287D01*
X78374219Y70330220D01*
X78179534Y70393477D01*
X77977352Y70425500D01*
X77772648Y70425500D01*
X77671557Y70409488D01*
X77570465Y70393477D01*
X77480137Y70364127D01*
X77375781Y70330220D01*
X77375778Y70330218D01*
X77375776Y70330218D01*
X77342921Y70313477D01*
X77193390Y70237287D01*
X77193386Y70237284D01*
X77027786Y70116971D01*
X76883028Y69972213D01*
X76762715Y69806613D01*
X76669781Y69624223D01*
X76606522Y69429534D01*
X76574500Y69227351D01*
X10000500Y69227351D01*
X10000500Y76522351D01*
X96699500Y76522351D01*
X96699500Y76317648D01*
X96731522Y76115465D01*
X96794781Y75920776D01*
X96887715Y75738386D01*
X97008028Y75572786D01*
X97152786Y75428028D01*
X97318386Y75307715D01*
X97500776Y75214781D01*
X97695465Y75151522D01*
X97873329Y75123351D01*
X97897648Y75119500D01*
X97897649Y75119500D01*
X98102351Y75119500D01*
X98102352Y75119500D01*
X98129995Y75123878D01*
X98304534Y75151522D01*
X98499223Y75214781D01*
X98624653Y75278691D01*
X98681610Y75307713D01*
X98681613Y75307715D01*
X98847213Y75428028D01*
X98991971Y75572786D01*
X99112284Y75738386D01*
X99112287Y75738390D01*
X99171503Y75854607D01*
X99205218Y75920776D01*
X99268477Y76115465D01*
X99300500Y76317648D01*
X99300500Y76522351D01*
X99268477Y76724534D01*
X99205220Y76919219D01*
X99112287Y77101610D01*
X99044732Y77194590D01*
X98991971Y77267213D01*
X98991968Y77267215D01*
X98991966Y77267219D01*
X98847219Y77411966D01*
X98847215Y77411968D01*
X98847213Y77411971D01*
X98774590Y77464732D01*
X98681610Y77532287D01*
X98499219Y77625220D01*
X98304534Y77688477D01*
X98102352Y77720500D01*
X97897648Y77720500D01*
X97796557Y77704488D01*
X97695465Y77688477D01*
X97605137Y77659127D01*
X97500781Y77625220D01*
X97500778Y77625218D01*
X97500776Y77625218D01*
X97434607Y77591503D01*
X97318390Y77532287D01*
X97318386Y77532284D01*
X97152786Y77411971D01*
X97008028Y77267213D01*
X96887715Y77101613D01*
X96794781Y76919223D01*
X96731522Y76724534D01*
X96699500Y76522351D01*
X10000500Y76522351D01*
X10000500Y79387351D01*
X76574500Y79387351D01*
X76574500Y79182648D01*
X76606522Y78980465D01*
X76669781Y78785776D01*
X76762715Y78603386D01*
X76883028Y78437786D01*
X77027786Y78293028D01*
X77193386Y78172715D01*
X77375776Y78079781D01*
X77570465Y78016522D01*
X77748329Y77988351D01*
X77772648Y77984500D01*
X77772649Y77984500D01*
X77977351Y77984500D01*
X77977352Y77984500D01*
X78004995Y77988878D01*
X78179534Y78016522D01*
X78374223Y78079781D01*
X78499653Y78143691D01*
X78556610Y78172713D01*
X78556613Y78172715D01*
X78722213Y78293028D01*
X78866971Y78437786D01*
X78987284Y78603386D01*
X78987287Y78603390D01*
X79046503Y78719607D01*
X79080218Y78785776D01*
X79143477Y78980465D01*
X79175500Y79182648D01*
X79175500Y79307351D01*
X82574500Y79307351D01*
X82574500Y79102648D01*
X82606522Y78900465D01*
X82669781Y78705776D01*
X82762715Y78523386D01*
X82883028Y78357786D01*
X83027786Y78213028D01*
X83193386Y78092715D01*
X83375776Y77999781D01*
X83570465Y77936522D01*
X83748329Y77908351D01*
X83772648Y77904500D01*
X83772649Y77904500D01*
X83977351Y77904500D01*
X83977352Y77904500D01*
X84004995Y77908878D01*
X84179534Y77936522D01*
X84374223Y77999781D01*
X84499653Y78063691D01*
X84556610Y78092713D01*
X84556613Y78092715D01*
X84722213Y78213028D01*
X84866971Y78357786D01*
X84987284Y78523386D01*
X84987287Y78523390D01*
X85046503Y78639607D01*
X85080218Y78705776D01*
X85106214Y78785781D01*
X85143477Y78900466D01*
X85175500Y79102648D01*
X85175500Y79307352D01*
X85143477Y79509534D01*
X85080220Y79704219D01*
X84987287Y79886610D01*
X84919732Y79979590D01*
X84866971Y80052213D01*
X84866968Y80052215D01*
X84866966Y80052219D01*
X84722219Y80196966D01*
X84722215Y80196968D01*
X84722213Y80196971D01*
X84649590Y80249732D01*
X84556610Y80317287D01*
X84374219Y80410220D01*
X84179534Y80473477D01*
X83977352Y80505500D01*
X83772648Y80505500D01*
X83676175Y80490220D01*
X83570465Y80473477D01*
X83496672Y80449500D01*
X83375781Y80410220D01*
X83375778Y80410218D01*
X83375776Y80410218D01*
X83309607Y80376503D01*
X83193390Y80317287D01*
X83193386Y80317284D01*
X83027786Y80196971D01*
X82883028Y80052213D01*
X82762715Y79886613D01*
X82669781Y79704223D01*
X82606522Y79509534D01*
X82574500Y79307351D01*
X79175500Y79307351D01*
X79175500Y79387351D01*
X79143477Y79589534D01*
X79080220Y79784219D01*
X78987287Y79966610D01*
X78919732Y80059590D01*
X78866971Y80132213D01*
X78866968Y80132215D01*
X78866966Y80132219D01*
X78722219Y80276966D01*
X78722215Y80276968D01*
X78722213Y80276971D01*
X78649590Y80329732D01*
X78556610Y80397287D01*
X78374219Y80490220D01*
X78179534Y80553477D01*
X77977352Y80585500D01*
X77772648Y80585500D01*
X77671557Y80569488D01*
X77570465Y80553477D01*
X77535143Y80542000D01*
X77375781Y80490220D01*
X77375778Y80490218D01*
X77375776Y80490218D01*
X77342921Y80473477D01*
X77193390Y80397287D01*
X77193386Y80397284D01*
X77027786Y80276971D01*
X76883028Y80132213D01*
X76762715Y79966613D01*
X76669781Y79784223D01*
X76606522Y79589534D01*
X76574500Y79387351D01*
X10000500Y79387351D01*
X10000500Y88249558D01*
X70974500Y88249558D01*
X70974500Y88000441D01*
X70974501Y88000424D01*
X71007017Y87753438D01*
X71071498Y87512792D01*
X71166830Y87282638D01*
X71166837Y87282623D01*
X71291400Y87066873D01*
X71443060Y86869225D01*
X71443066Y86869218D01*
X71619218Y86693066D01*
X71619225Y86693060D01*
X71816873Y86541400D01*
X72032623Y86416837D01*
X72032638Y86416830D01*
X72262792Y86321498D01*
X72503438Y86257017D01*
X72750424Y86224501D01*
X72750429Y86224500D01*
X72750435Y86224500D01*
X72750442Y86224500D01*
X72999558Y86224500D01*
X72999565Y86224500D01*
X72999570Y86224500D01*
X72999575Y86224501D01*
X73246561Y86257017D01*
X73487207Y86321498D01*
X73717361Y86416830D01*
X73717376Y86416837D01*
X73933126Y86541400D01*
X74130774Y86693060D01*
X74130781Y86693066D01*
X74306933Y86869218D01*
X74306939Y86869225D01*
X74458599Y87066873D01*
X74583162Y87282623D01*
X74583169Y87282638D01*
X74624253Y87381825D01*
X74678502Y87512793D01*
X74742982Y87753435D01*
X74775500Y88000435D01*
X74775500Y88249558D01*
X75974500Y88249558D01*
X75974500Y88000441D01*
X75974501Y88000424D01*
X76007017Y87753438D01*
X76071498Y87512792D01*
X76166830Y87282638D01*
X76166837Y87282623D01*
X76291400Y87066873D01*
X76443060Y86869225D01*
X76443066Y86869218D01*
X76619218Y86693066D01*
X76619225Y86693060D01*
X76816873Y86541400D01*
X77032623Y86416837D01*
X77032638Y86416830D01*
X77262792Y86321498D01*
X77503438Y86257017D01*
X77750424Y86224501D01*
X77750429Y86224500D01*
X77750435Y86224500D01*
X77750442Y86224500D01*
X77999558Y86224500D01*
X77999565Y86224500D01*
X77999570Y86224500D01*
X77999575Y86224501D01*
X78246561Y86257017D01*
X78487207Y86321498D01*
X78717361Y86416830D01*
X78717376Y86416837D01*
X78933126Y86541400D01*
X79130774Y86693060D01*
X79130781Y86693066D01*
X79306933Y86869218D01*
X79306939Y86869225D01*
X79458599Y87066873D01*
X79583162Y87282623D01*
X79583169Y87282638D01*
X79624253Y87381825D01*
X79678502Y87512793D01*
X79742982Y87753435D01*
X79775500Y88000435D01*
X79775500Y88249558D01*
X80974500Y88249558D01*
X80974500Y88000441D01*
X80974501Y88000424D01*
X81007017Y87753438D01*
X81071498Y87512792D01*
X81166830Y87282638D01*
X81166837Y87282623D01*
X81291400Y87066873D01*
X81443060Y86869225D01*
X81443066Y86869218D01*
X81619218Y86693066D01*
X81619225Y86693060D01*
X81816873Y86541400D01*
X82032623Y86416837D01*
X82032638Y86416830D01*
X82262792Y86321498D01*
X82503438Y86257017D01*
X82750424Y86224501D01*
X82750429Y86224500D01*
X82750435Y86224500D01*
X82750442Y86224500D01*
X82999558Y86224500D01*
X82999565Y86224500D01*
X82999570Y86224500D01*
X82999575Y86224501D01*
X83246561Y86257017D01*
X83487207Y86321498D01*
X83717361Y86416830D01*
X83717376Y86416837D01*
X83933126Y86541400D01*
X84116818Y86682351D01*
X96699500Y86682351D01*
X96699500Y86477648D01*
X96731522Y86275465D01*
X96794781Y86080776D01*
X96887715Y85898386D01*
X97008028Y85732786D01*
X97152786Y85588028D01*
X97318386Y85467715D01*
X97500776Y85374781D01*
X97695465Y85311522D01*
X97873329Y85283351D01*
X97897648Y85279500D01*
X97897649Y85279500D01*
X98102351Y85279500D01*
X98102352Y85279500D01*
X98129995Y85283878D01*
X98304534Y85311522D01*
X98499223Y85374781D01*
X98624653Y85438691D01*
X98681610Y85467713D01*
X98681613Y85467715D01*
X98847213Y85588028D01*
X98991971Y85732786D01*
X99112284Y85898386D01*
X99112287Y85898390D01*
X99171503Y86014607D01*
X99205218Y86080776D01*
X99268477Y86275465D01*
X99300500Y86477648D01*
X99300500Y86682351D01*
X99268477Y86884534D01*
X99209231Y87066873D01*
X99205220Y87079219D01*
X99112287Y87261610D01*
X99044732Y87354590D01*
X98991971Y87427213D01*
X98991968Y87427215D01*
X98991966Y87427219D01*
X98847219Y87571966D01*
X98847215Y87571968D01*
X98847213Y87571971D01*
X98774590Y87624732D01*
X98681610Y87692287D01*
X98499219Y87785220D01*
X98304534Y87848477D01*
X98102352Y87880500D01*
X97897648Y87880500D01*
X97796557Y87864488D01*
X97695465Y87848477D01*
X97605137Y87819127D01*
X97500781Y87785220D01*
X97500778Y87785218D01*
X97500776Y87785218D01*
X97434607Y87751503D01*
X97318390Y87692287D01*
X97318386Y87692284D01*
X97152786Y87571971D01*
X97008028Y87427213D01*
X96887715Y87261613D01*
X96794781Y87079223D01*
X96731522Y86884534D01*
X96699500Y86682351D01*
X84116818Y86682351D01*
X84130774Y86693060D01*
X84130781Y86693066D01*
X84306933Y86869218D01*
X84306939Y86869225D01*
X84458599Y87066873D01*
X84583162Y87282623D01*
X84583169Y87282638D01*
X84624253Y87381825D01*
X84678502Y87512793D01*
X84742982Y87753435D01*
X84775500Y88000435D01*
X84775500Y88249565D01*
X84742982Y88496565D01*
X84678502Y88737207D01*
X84583164Y88967373D01*
X84458599Y89183127D01*
X84306938Y89380776D01*
X84130776Y89556938D01*
X83933127Y89708599D01*
X83717373Y89833164D01*
X83487207Y89928502D01*
X83246565Y89992982D01*
X82999565Y90025500D01*
X82750435Y90025500D01*
X82503435Y89992982D01*
X82262793Y89928502D01*
X82131825Y89874253D01*
X82032638Y89833169D01*
X82032623Y89833162D01*
X81816873Y89708599D01*
X81619225Y89556939D01*
X81619218Y89556933D01*
X81443066Y89380781D01*
X81443060Y89380774D01*
X81291400Y89183126D01*
X81166837Y88967376D01*
X81166830Y88967361D01*
X81071498Y88737207D01*
X81007017Y88496561D01*
X80974501Y88249575D01*
X80974500Y88249558D01*
X79775500Y88249558D01*
X79775500Y88249565D01*
X79742982Y88496565D01*
X79678502Y88737207D01*
X79583164Y88967373D01*
X79458599Y89183127D01*
X79306938Y89380776D01*
X79130776Y89556938D01*
X78933127Y89708599D01*
X78717373Y89833164D01*
X78487207Y89928502D01*
X78246565Y89992982D01*
X77999565Y90025500D01*
X77750435Y90025500D01*
X77503435Y89992982D01*
X77262793Y89928502D01*
X77131825Y89874253D01*
X77032638Y89833169D01*
X77032623Y89833162D01*
X76816873Y89708599D01*
X76619225Y89556939D01*
X76619218Y89556933D01*
X76443066Y89380781D01*
X76443060Y89380774D01*
X76291400Y89183126D01*
X76166837Y88967376D01*
X76166830Y88967361D01*
X76071498Y88737207D01*
X76007017Y88496561D01*
X75974501Y88249575D01*
X75974500Y88249558D01*
X74775500Y88249558D01*
X74775500Y88249565D01*
X74742982Y88496565D01*
X74678502Y88737207D01*
X74583164Y88967373D01*
X74458599Y89183127D01*
X74306938Y89380776D01*
X74130776Y89556938D01*
X73933127Y89708599D01*
X73717373Y89833164D01*
X73487207Y89928502D01*
X73246565Y89992982D01*
X72999565Y90025500D01*
X72750435Y90025500D01*
X72503435Y89992982D01*
X72262793Y89928502D01*
X72131825Y89874253D01*
X72032638Y89833169D01*
X72032623Y89833162D01*
X71816873Y89708599D01*
X71619225Y89556939D01*
X71619218Y89556933D01*
X71443066Y89380781D01*
X71443060Y89380774D01*
X71291400Y89183126D01*
X71166837Y88967376D01*
X71166830Y88967361D01*
X71071498Y88737207D01*
X71007017Y88496561D01*
X70974501Y88249575D01*
X70974500Y88249558D01*
X10000500Y88249558D01*
X10000500Y92874558D01*
X96099500Y92874558D01*
X96099500Y92625441D01*
X96099501Y92625424D01*
X96132017Y92378438D01*
X96196498Y92137792D01*
X96291830Y91907638D01*
X96291837Y91907623D01*
X96416400Y91691873D01*
X96568060Y91494225D01*
X96568066Y91494218D01*
X96744218Y91318066D01*
X96744225Y91318060D01*
X96941873Y91166400D01*
X97157623Y91041837D01*
X97157638Y91041830D01*
X97387792Y90946498D01*
X97628438Y90882017D01*
X97875424Y90849501D01*
X97875429Y90849500D01*
X97875435Y90849500D01*
X97875442Y90849500D01*
X98124558Y90849500D01*
X98124565Y90849500D01*
X98124570Y90849500D01*
X98124575Y90849501D01*
X98371561Y90882017D01*
X98612207Y90946498D01*
X98842361Y91041830D01*
X98842376Y91041837D01*
X99058126Y91166400D01*
X99255774Y91318060D01*
X99255781Y91318066D01*
X99431933Y91494218D01*
X99431939Y91494225D01*
X99583599Y91691873D01*
X99708162Y91907623D01*
X99708169Y91907638D01*
X99749253Y92006825D01*
X99803502Y92137793D01*
X99867982Y92378435D01*
X99900500Y92625435D01*
X99900500Y92874565D01*
X99867982Y93121565D01*
X99803502Y93362207D01*
X99708164Y93592373D01*
X99583599Y93808127D01*
X99474725Y93950015D01*
X106099500Y93950015D01*
X106099500Y91549984D01*
X106110000Y91447204D01*
X106110001Y91447203D01*
X106165186Y91280664D01*
X106165187Y91280662D01*
X106257286Y91131348D01*
X106257289Y91131344D01*
X106381344Y91007289D01*
X106381348Y91007286D01*
X106530662Y90915187D01*
X106530664Y90915186D01*
X106697203Y90860001D01*
X106697204Y90860000D01*
X106799984Y90849500D01*
X106799992Y90849500D01*
X109200015Y90849500D01*
X109302795Y90860000D01*
X109302797Y90860001D01*
X109386065Y90887593D01*
X109469335Y90915186D01*
X109469337Y90915187D01*
X109618651Y91007286D01*
X109618655Y91007289D01*
X109742710Y91131344D01*
X109742713Y91131348D01*
X109834812Y91280662D01*
X109834813Y91280664D01*
X109847205Y91318060D01*
X109889999Y91447203D01*
X109900500Y91549992D01*
X109900500Y93950008D01*
X109889999Y94052797D01*
X109834814Y94219334D01*
X109742711Y94368655D01*
X109618655Y94492711D01*
X109469334Y94584814D01*
X109302797Y94639999D01*
X109200008Y94650500D01*
X106799992Y94650500D01*
X106697203Y94639999D01*
X106530666Y94584814D01*
X106530664Y94584813D01*
X106530662Y94584812D01*
X106381348Y94492713D01*
X106381344Y94492710D01*
X106257289Y94368655D01*
X106257286Y94368651D01*
X106165187Y94219337D01*
X106165186Y94219335D01*
X106110001Y94052796D01*
X106110000Y94052795D01*
X106099500Y93950015D01*
X99474725Y93950015D01*
X99431938Y94005776D01*
X99255776Y94181938D01*
X99058127Y94333599D01*
X98842373Y94458164D01*
X98612207Y94553502D01*
X98371565Y94617982D01*
X98124565Y94650500D01*
X97875435Y94650500D01*
X97628435Y94617982D01*
X97387793Y94553502D01*
X97339123Y94533342D01*
X97157638Y94458169D01*
X97157623Y94458162D01*
X96941873Y94333599D01*
X96744225Y94181939D01*
X96744218Y94181933D01*
X96568066Y94005781D01*
X96568060Y94005774D01*
X96416400Y93808126D01*
X96291837Y93592376D01*
X96291830Y93592361D01*
X96196498Y93362207D01*
X96132017Y93121561D01*
X96099501Y92874575D01*
X96099500Y92874558D01*
X10000500Y92874558D01*
X10000500Y99371288D01*
X11149500Y99371288D01*
X11149500Y99128711D01*
X11181161Y98888214D01*
X11243947Y98653895D01*
X11336773Y98429794D01*
X11336777Y98429785D01*
X11458067Y98219706D01*
X11605733Y98027263D01*
X11605739Y98027256D01*
X11777256Y97855739D01*
X11777263Y97855733D01*
X11969706Y97708067D01*
X12179785Y97586777D01*
X12179794Y97586773D01*
X12403895Y97493947D01*
X12638214Y97431161D01*
X12878711Y97399500D01*
X12878712Y97399500D01*
X13121289Y97399500D01*
X13361785Y97431161D01*
X13596104Y97493947D01*
X13820205Y97586773D01*
X13820214Y97586777D01*
X13858661Y97608974D01*
X14030289Y97708064D01*
X14030293Y97708067D01*
X14222736Y97855733D01*
X14222743Y97855739D01*
X14394260Y98027256D01*
X14394266Y98027263D01*
X14541932Y98219706D01*
X14541936Y98219711D01*
X14663224Y98429788D01*
X14756054Y98653900D01*
X14818838Y98888211D01*
X14850500Y99128712D01*
X14850500Y99371288D01*
X14818838Y99611789D01*
X14756054Y99846100D01*
X14663224Y100070212D01*
X14541936Y100280289D01*
X14394265Y100472738D01*
X14222738Y100644265D01*
X14030289Y100791936D01*
X13820212Y100913224D01*
X13596100Y101006054D01*
X13361789Y101068838D01*
X13169388Y101094167D01*
X13121289Y101100500D01*
X13121288Y101100500D01*
X12878712Y101100500D01*
X12878711Y101100500D01*
X12818586Y101092584D01*
X12638211Y101068838D01*
X12403900Y101006054D01*
X12179788Y100913224D01*
X11969711Y100791936D01*
X11948797Y100775888D01*
X11777263Y100644266D01*
X11777256Y100644260D01*
X11605739Y100472743D01*
X11605733Y100472736D01*
X11505599Y100342238D01*
X11458064Y100280289D01*
X11362485Y100114741D01*
X11336777Y100070214D01*
X11336773Y100070205D01*
X11243947Y99846104D01*
X11181161Y99611785D01*
X11149500Y99371288D01*
X10000500Y99371288D01*
X10000500Y102125500D01*
X10020185Y102192539D01*
X10072989Y102238294D01*
X10124500Y102249500D01*
X148375500Y102249500D01*
X148442539Y102229815D01*
G37*
%TD.AperFunction*%
%TD*%
M02*
