M48
METRIC
T1C0.800
T2C1.000
T3C1.000
T4C1.100
T5C1.300
%
G90
G05
T1
X4.92Y59.75
X4.92Y54.75
X4.92Y49.75
X5.42Y40.75
X5.42Y35.75
X5.42Y30.75
X5.42Y26.25
X15.08Y59.75
X15.08Y54.75
X15.08Y49.75
X15.58Y40.75
X15.58Y35.75
X15.58Y30.75
X15.58Y26.25
X31.92Y40.75
X31.92Y35.75
X32.42Y60.0
X32.42Y55.25
X32.42Y49.75
X32.42Y30.75
X32.67Y25.75
X42.08Y40.75
X42.08Y35.75
X42.58Y60.0
X42.58Y55.25
X42.58Y49.75
X42.58Y30.75
X42.83Y25.75
X50.02Y30.14
X50.315Y19.64
X52.52Y30.14
X52.815Y19.64
X61.795Y34.0
X64.295Y34.0
X66.875Y71.785
X66.875Y61.625
X72.875Y71.705
X72.875Y61.545
X75.195Y46.76
X75.195Y44.22
X75.195Y41.68
X75.195Y39.14
X75.195Y36.6
X75.195Y34.06
X75.195Y31.52
X75.195Y28.98
X75.195Y26.44
X75.195Y23.9
X75.195Y21.36
X75.195Y18.82
X75.195Y16.28
X75.195Y13.74
X82.815Y46.76
X82.815Y44.22
X82.815Y41.68
X82.815Y39.14
X82.815Y36.6
X82.815Y34.06
X82.815Y31.52
X82.815Y28.98
X82.815Y26.44
X82.815Y23.9
X82.815Y21.36
X82.815Y18.82
X82.815Y16.28
X82.815Y13.74
X87.0Y79.08
X87.0Y68.92
X91.75Y36.0
X94.25Y36.0
X95.315Y30.64
X95.315Y28.14
X113.0Y76.75
X113.0Y74.25
T2
X46.5Y47.0
X52.0Y53.0
X53.0Y57.75
X63.0Y9.75
X64.75Y14.0
X66.5Y17.5
X70.5Y47.5
X78.25Y57.25
X80.25Y54.25
X89.5Y65.0
X91.75Y16.75
X96.25Y46.5
X100.25Y50.75
X101.0Y22.5
X103.75Y92.5
X104.25Y15.25
X107.0Y54.25
T3
X62.815Y27.64
X62.815Y22.64
X95.09Y7.0
X95.09Y4.46
X97.63Y7.0
X97.63Y4.46
X100.17Y7.0
X100.17Y4.46
X102.71Y7.0
X102.71Y4.46
X105.25Y7.0
X105.25Y4.46
X105.67Y88.75
X108.21Y88.75
X110.75Y88.75
X116.025Y62.05
X116.025Y59.51
X116.025Y56.97
X116.025Y54.43
T4
X118.75Y90.25
X118.75Y85.75
X125.25Y90.25
X125.25Y85.75
T5
X24.0Y59.75
X24.0Y54.75
X24.0Y49.75
X24.0Y40.75
X24.0Y35.75
X24.0Y30.75
X24.0Y25.75
X56.875Y80.625
X61.875Y80.625
X66.875Y80.625
X71.875Y80.625
X87.0Y85.25
X92.0Y85.25
X97.0Y85.25
X121.0Y44.99
X121.0Y39.99
X121.0Y34.99
X121.0Y29.99
X121.0Y20.99
X121.0Y15.99
X121.0Y10.99
X121.0Y5.99
T3
X127.75Y74.292G85X127.75Y76.292
G05
X131.75Y79.992G85X129.75Y79.992
G05
X133.75Y74.292G85X133.75Y76.292
G05
M30
