%TF.GenerationSoftware,KiCad,Pcbnew,9.0.1*%
%TF.CreationDate,2025-09-08T03:32:05-04:00*%
%TF.ProjectId,SNAKE_GAME,534e414b-455f-4474-914d-452e6b696361,rev?*%
%TF.SameCoordinates,Original*%
%TF.FileFunction,Legend,Top*%
%TF.FilePolarity,Positive*%
%FSLAX46Y46*%
G04 Gerber Fmt 4.6, Leading zero omitted, Abs format (unit mm)*
G04 Created by KiCad (PCBNEW 9.0.1) date 2025-09-08 03:32:05*
%MOMM*%
%LPD*%
G01*
G04 APERTURE LIST*
%ADD10C,0.150000*%
%ADD11C,0.120000*%
G04 APERTURE END LIST*
D10*
X126691666Y72865180D02*
X126691666Y72150895D01*
X126691666Y72150895D02*
X126644047Y72008038D01*
X126644047Y72008038D02*
X126548809Y71912800D01*
X126548809Y71912800D02*
X126405952Y71865180D01*
X126405952Y71865180D02*
X126310714Y71865180D01*
X127072619Y72865180D02*
X127739285Y72865180D01*
X127739285Y72865180D02*
X127310714Y71865180D01*
X62398333Y23030419D02*
X62350714Y22982800D01*
X62350714Y22982800D02*
X62207857Y22935180D01*
X62207857Y22935180D02*
X62112619Y22935180D01*
X62112619Y22935180D02*
X61969762Y22982800D01*
X61969762Y22982800D02*
X61874524Y23078038D01*
X61874524Y23078038D02*
X61826905Y23173276D01*
X61826905Y23173276D02*
X61779286Y23363752D01*
X61779286Y23363752D02*
X61779286Y23506609D01*
X61779286Y23506609D02*
X61826905Y23697085D01*
X61826905Y23697085D02*
X61874524Y23792323D01*
X61874524Y23792323D02*
X61969762Y23887561D01*
X61969762Y23887561D02*
X62112619Y23935180D01*
X62112619Y23935180D02*
X62207857Y23935180D01*
X62207857Y23935180D02*
X62350714Y23887561D01*
X62350714Y23887561D02*
X62398333Y23839942D01*
X62731667Y23935180D02*
X63350714Y23935180D01*
X63350714Y23935180D02*
X63017381Y23554228D01*
X63017381Y23554228D02*
X63160238Y23554228D01*
X63160238Y23554228D02*
X63255476Y23506609D01*
X63255476Y23506609D02*
X63303095Y23458990D01*
X63303095Y23458990D02*
X63350714Y23363752D01*
X63350714Y23363752D02*
X63350714Y23125657D01*
X63350714Y23125657D02*
X63303095Y23030419D01*
X63303095Y23030419D02*
X63255476Y22982800D01*
X63255476Y22982800D02*
X63160238Y22935180D01*
X63160238Y22935180D02*
X62874524Y22935180D01*
X62874524Y22935180D02*
X62779286Y22982800D01*
X62779286Y22982800D02*
X62731667Y23030419D01*
X45857142Y54425180D02*
X45523809Y54901371D01*
X45285714Y54425180D02*
X45285714Y55425180D01*
X45285714Y55425180D02*
X45666666Y55425180D01*
X45666666Y55425180D02*
X45761904Y55377561D01*
X45761904Y55377561D02*
X45809523Y55329942D01*
X45809523Y55329942D02*
X45857142Y55234704D01*
X45857142Y55234704D02*
X45857142Y55091847D01*
X45857142Y55091847D02*
X45809523Y54996609D01*
X45809523Y54996609D02*
X45761904Y54948990D01*
X45761904Y54948990D02*
X45666666Y54901371D01*
X45666666Y54901371D02*
X45285714Y54901371D01*
X46809523Y54425180D02*
X46238095Y54425180D01*
X46523809Y54425180D02*
X46523809Y55425180D01*
X46523809Y55425180D02*
X46428571Y55282323D01*
X46428571Y55282323D02*
X46333333Y55187085D01*
X46333333Y55187085D02*
X46238095Y55139466D01*
X47142857Y55425180D02*
X47761904Y55425180D01*
X47761904Y55425180D02*
X47428571Y55044228D01*
X47428571Y55044228D02*
X47571428Y55044228D01*
X47571428Y55044228D02*
X47666666Y54996609D01*
X47666666Y54996609D02*
X47714285Y54948990D01*
X47714285Y54948990D02*
X47761904Y54853752D01*
X47761904Y54853752D02*
X47761904Y54615657D01*
X47761904Y54615657D02*
X47714285Y54520419D01*
X47714285Y54520419D02*
X47666666Y54472800D01*
X47666666Y54472800D02*
X47571428Y54425180D01*
X47571428Y54425180D02*
X47285714Y54425180D01*
X47285714Y54425180D02*
X47190476Y54472800D01*
X47190476Y54472800D02*
X47142857Y54520419D01*
X110424580Y36723333D02*
X110472200Y36675714D01*
X110472200Y36675714D02*
X110519819Y36532857D01*
X110519819Y36532857D02*
X110519819Y36437619D01*
X110519819Y36437619D02*
X110472200Y36294762D01*
X110472200Y36294762D02*
X110376961Y36199524D01*
X110376961Y36199524D02*
X110281723Y36151905D01*
X110281723Y36151905D02*
X110091247Y36104286D01*
X110091247Y36104286D02*
X109948390Y36104286D01*
X109948390Y36104286D02*
X109757914Y36151905D01*
X109757914Y36151905D02*
X109662676Y36199524D01*
X109662676Y36199524D02*
X109567438Y36294762D01*
X109567438Y36294762D02*
X109519819Y36437619D01*
X109519819Y36437619D02*
X109519819Y36532857D01*
X109519819Y36532857D02*
X109567438Y36675714D01*
X109567438Y36675714D02*
X109615057Y36723333D01*
X110519819Y37675714D02*
X110519819Y37104286D01*
X110519819Y37390000D02*
X109519819Y37390000D01*
X109519819Y37390000D02*
X109662676Y37294762D01*
X109662676Y37294762D02*
X109757914Y37199524D01*
X109757914Y37199524D02*
X109805533Y37104286D01*
X121500057Y80333333D02*
X121452438Y80380952D01*
X121452438Y80380952D02*
X121404819Y80476190D01*
X121404819Y80476190D02*
X121404819Y80714285D01*
X121404819Y80714285D02*
X121452438Y80809523D01*
X121452438Y80809523D02*
X121500057Y80857142D01*
X121500057Y80857142D02*
X121595295Y80904761D01*
X121595295Y80904761D02*
X121690533Y80904761D01*
X121690533Y80904761D02*
X121833390Y80857142D01*
X121833390Y80857142D02*
X122404819Y80285714D01*
X122404819Y80285714D02*
X122404819Y80904761D01*
X121500057Y81285714D02*
X121452438Y81333333D01*
X121452438Y81333333D02*
X121404819Y81428571D01*
X121404819Y81428571D02*
X121404819Y81666666D01*
X121404819Y81666666D02*
X121452438Y81761904D01*
X121452438Y81761904D02*
X121500057Y81809523D01*
X121500057Y81809523D02*
X121595295Y81857142D01*
X121595295Y81857142D02*
X121690533Y81857142D01*
X121690533Y81857142D02*
X121833390Y81809523D01*
X121833390Y81809523D02*
X122404819Y81238095D01*
X122404819Y81238095D02*
X122404819Y81857142D01*
X121404819Y82476190D02*
X121404819Y82571428D01*
X121404819Y82571428D02*
X121452438Y82666666D01*
X121452438Y82666666D02*
X121500057Y82714285D01*
X121500057Y82714285D02*
X121595295Y82761904D01*
X121595295Y82761904D02*
X121785771Y82809523D01*
X121785771Y82809523D02*
X122023866Y82809523D01*
X122023866Y82809523D02*
X122214342Y82761904D01*
X122214342Y82761904D02*
X122309580Y82714285D01*
X122309580Y82714285D02*
X122357200Y82666666D01*
X122357200Y82666666D02*
X122404819Y82571428D01*
X122404819Y82571428D02*
X122404819Y82476190D01*
X122404819Y82476190D02*
X122357200Y82380952D01*
X122357200Y82380952D02*
X122309580Y82333333D01*
X122309580Y82333333D02*
X122214342Y82285714D01*
X122214342Y82285714D02*
X122023866Y82238095D01*
X122023866Y82238095D02*
X121785771Y82238095D01*
X121785771Y82238095D02*
X121595295Y82285714D01*
X121595295Y82285714D02*
X121500057Y82333333D01*
X121500057Y82333333D02*
X121452438Y82380952D01*
X121452438Y82380952D02*
X121404819Y82476190D01*
X121404819Y83238095D02*
X122214342Y83238095D01*
X122214342Y83238095D02*
X122309580Y83285714D01*
X122309580Y83285714D02*
X122357200Y83333333D01*
X122357200Y83333333D02*
X122404819Y83428571D01*
X122404819Y83428571D02*
X122404819Y83619047D01*
X122404819Y83619047D02*
X122357200Y83714285D01*
X122357200Y83714285D02*
X122309580Y83761904D01*
X122309580Y83761904D02*
X122214342Y83809523D01*
X122214342Y83809523D02*
X121404819Y83809523D01*
X121881009Y84619047D02*
X121881009Y84285714D01*
X122404819Y84285714D02*
X121404819Y84285714D01*
X121404819Y84285714D02*
X121404819Y84761904D01*
X122404819Y85666666D02*
X122404819Y85095238D01*
X122404819Y85380952D02*
X121404819Y85380952D01*
X121404819Y85380952D02*
X121547676Y85285714D01*
X121547676Y85285714D02*
X121642914Y85190476D01*
X121642914Y85190476D02*
X121690533Y85095238D01*
X45833333Y45425180D02*
X45500000Y45901371D01*
X45261905Y45425180D02*
X45261905Y46425180D01*
X45261905Y46425180D02*
X45642857Y46425180D01*
X45642857Y46425180D02*
X45738095Y46377561D01*
X45738095Y46377561D02*
X45785714Y46329942D01*
X45785714Y46329942D02*
X45833333Y46234704D01*
X45833333Y46234704D02*
X45833333Y46091847D01*
X45833333Y46091847D02*
X45785714Y45996609D01*
X45785714Y45996609D02*
X45738095Y45948990D01*
X45738095Y45948990D02*
X45642857Y45901371D01*
X45642857Y45901371D02*
X45261905Y45901371D01*
X46214286Y46329942D02*
X46261905Y46377561D01*
X46261905Y46377561D02*
X46357143Y46425180D01*
X46357143Y46425180D02*
X46595238Y46425180D01*
X46595238Y46425180D02*
X46690476Y46377561D01*
X46690476Y46377561D02*
X46738095Y46329942D01*
X46738095Y46329942D02*
X46785714Y46234704D01*
X46785714Y46234704D02*
X46785714Y46139466D01*
X46785714Y46139466D02*
X46738095Y45996609D01*
X46738095Y45996609D02*
X46166667Y45425180D01*
X46166667Y45425180D02*
X46785714Y45425180D01*
X45833333Y40425180D02*
X45500000Y40901371D01*
X45261905Y40425180D02*
X45261905Y41425180D01*
X45261905Y41425180D02*
X45642857Y41425180D01*
X45642857Y41425180D02*
X45738095Y41377561D01*
X45738095Y41377561D02*
X45785714Y41329942D01*
X45785714Y41329942D02*
X45833333Y41234704D01*
X45833333Y41234704D02*
X45833333Y41091847D01*
X45833333Y41091847D02*
X45785714Y40996609D01*
X45785714Y40996609D02*
X45738095Y40948990D01*
X45738095Y40948990D02*
X45642857Y40901371D01*
X45642857Y40901371D02*
X45261905Y40901371D01*
X46166667Y41425180D02*
X46785714Y41425180D01*
X46785714Y41425180D02*
X46452381Y41044228D01*
X46452381Y41044228D02*
X46595238Y41044228D01*
X46595238Y41044228D02*
X46690476Y40996609D01*
X46690476Y40996609D02*
X46738095Y40948990D01*
X46738095Y40948990D02*
X46785714Y40853752D01*
X46785714Y40853752D02*
X46785714Y40615657D01*
X46785714Y40615657D02*
X46738095Y40520419D01*
X46738095Y40520419D02*
X46690476Y40472800D01*
X46690476Y40472800D02*
X46595238Y40425180D01*
X46595238Y40425180D02*
X46309524Y40425180D01*
X46309524Y40425180D02*
X46214286Y40472800D01*
X46214286Y40472800D02*
X46166667Y40520419D01*
X46333333Y35425180D02*
X46000000Y35901371D01*
X45761905Y35425180D02*
X45761905Y36425180D01*
X45761905Y36425180D02*
X46142857Y36425180D01*
X46142857Y36425180D02*
X46238095Y36377561D01*
X46238095Y36377561D02*
X46285714Y36329942D01*
X46285714Y36329942D02*
X46333333Y36234704D01*
X46333333Y36234704D02*
X46333333Y36091847D01*
X46333333Y36091847D02*
X46285714Y35996609D01*
X46285714Y35996609D02*
X46238095Y35948990D01*
X46238095Y35948990D02*
X46142857Y35901371D01*
X46142857Y35901371D02*
X45761905Y35901371D01*
X47190476Y36091847D02*
X47190476Y35425180D01*
X46952381Y36472800D02*
X46714286Y35758514D01*
X46714286Y35758514D02*
X47333333Y35758514D01*
X46583333Y30425180D02*
X46250000Y30901371D01*
X46011905Y30425180D02*
X46011905Y31425180D01*
X46011905Y31425180D02*
X46392857Y31425180D01*
X46392857Y31425180D02*
X46488095Y31377561D01*
X46488095Y31377561D02*
X46535714Y31329942D01*
X46535714Y31329942D02*
X46583333Y31234704D01*
X46583333Y31234704D02*
X46583333Y31091847D01*
X46583333Y31091847D02*
X46535714Y30996609D01*
X46535714Y30996609D02*
X46488095Y30948990D01*
X46488095Y30948990D02*
X46392857Y30901371D01*
X46392857Y30901371D02*
X46011905Y30901371D01*
X47488095Y31425180D02*
X47011905Y31425180D01*
X47011905Y31425180D02*
X46964286Y30948990D01*
X46964286Y30948990D02*
X47011905Y30996609D01*
X47011905Y30996609D02*
X47107143Y31044228D01*
X47107143Y31044228D02*
X47345238Y31044228D01*
X47345238Y31044228D02*
X47440476Y30996609D01*
X47440476Y30996609D02*
X47488095Y30948990D01*
X47488095Y30948990D02*
X47535714Y30853752D01*
X47535714Y30853752D02*
X47535714Y30615657D01*
X47535714Y30615657D02*
X47488095Y30520419D01*
X47488095Y30520419D02*
X47440476Y30472800D01*
X47440476Y30472800D02*
X47345238Y30425180D01*
X47345238Y30425180D02*
X47107143Y30425180D01*
X47107143Y30425180D02*
X47011905Y30472800D01*
X47011905Y30472800D02*
X46964286Y30520419D01*
X46333333Y64675180D02*
X46000000Y65151371D01*
X45761905Y64675180D02*
X45761905Y65675180D01*
X45761905Y65675180D02*
X46142857Y65675180D01*
X46142857Y65675180D02*
X46238095Y65627561D01*
X46238095Y65627561D02*
X46285714Y65579942D01*
X46285714Y65579942D02*
X46333333Y65484704D01*
X46333333Y65484704D02*
X46333333Y65341847D01*
X46333333Y65341847D02*
X46285714Y65246609D01*
X46285714Y65246609D02*
X46238095Y65198990D01*
X46238095Y65198990D02*
X46142857Y65151371D01*
X46142857Y65151371D02*
X45761905Y65151371D01*
X47190476Y65675180D02*
X47000000Y65675180D01*
X47000000Y65675180D02*
X46904762Y65627561D01*
X46904762Y65627561D02*
X46857143Y65579942D01*
X46857143Y65579942D02*
X46761905Y65437085D01*
X46761905Y65437085D02*
X46714286Y65246609D01*
X46714286Y65246609D02*
X46714286Y64865657D01*
X46714286Y64865657D02*
X46761905Y64770419D01*
X46761905Y64770419D02*
X46809524Y64722800D01*
X46809524Y64722800D02*
X46904762Y64675180D01*
X46904762Y64675180D02*
X47095238Y64675180D01*
X47095238Y64675180D02*
X47190476Y64722800D01*
X47190476Y64722800D02*
X47238095Y64770419D01*
X47238095Y64770419D02*
X47285714Y64865657D01*
X47285714Y64865657D02*
X47285714Y65103752D01*
X47285714Y65103752D02*
X47238095Y65198990D01*
X47238095Y65198990D02*
X47190476Y65246609D01*
X47190476Y65246609D02*
X47095238Y65294228D01*
X47095238Y65294228D02*
X46904762Y65294228D01*
X46904762Y65294228D02*
X46809524Y65246609D01*
X46809524Y65246609D02*
X46761905Y65198990D01*
X46761905Y65198990D02*
X46714286Y65103752D01*
X123974819Y95916666D02*
X124689104Y95916666D01*
X124689104Y95916666D02*
X124831961Y95869047D01*
X124831961Y95869047D02*
X124927200Y95773809D01*
X124927200Y95773809D02*
X124974819Y95630952D01*
X124974819Y95630952D02*
X124974819Y95535714D01*
X123974819Y96297619D02*
X123974819Y96916666D01*
X123974819Y96916666D02*
X124355771Y96583333D01*
X124355771Y96583333D02*
X124355771Y96726190D01*
X124355771Y96726190D02*
X124403390Y96821428D01*
X124403390Y96821428D02*
X124451009Y96869047D01*
X124451009Y96869047D02*
X124546247Y96916666D01*
X124546247Y96916666D02*
X124784342Y96916666D01*
X124784342Y96916666D02*
X124879580Y96869047D01*
X124879580Y96869047D02*
X124927200Y96821428D01*
X124927200Y96821428D02*
X124974819Y96726190D01*
X124974819Y96726190D02*
X124974819Y96440476D01*
X124974819Y96440476D02*
X124927200Y96345238D01*
X124927200Y96345238D02*
X124879580Y96297619D01*
X122554819Y6606666D02*
X123269104Y6606666D01*
X123269104Y6606666D02*
X123411961Y6559047D01*
X123411961Y6559047D02*
X123507200Y6463809D01*
X123507200Y6463809D02*
X123554819Y6320952D01*
X123554819Y6320952D02*
X123554819Y6225714D01*
X122888152Y7511428D02*
X123554819Y7511428D01*
X122507200Y7273333D02*
X123221485Y7035238D01*
X123221485Y7035238D02*
X123221485Y7654285D01*
X73878221Y44890419D02*
X73830602Y44842800D01*
X73830602Y44842800D02*
X73687745Y44795180D01*
X73687745Y44795180D02*
X73592507Y44795180D01*
X73592507Y44795180D02*
X73449650Y44842800D01*
X73449650Y44842800D02*
X73354412Y44938038D01*
X73354412Y44938038D02*
X73306793Y45033276D01*
X73306793Y45033276D02*
X73259174Y45223752D01*
X73259174Y45223752D02*
X73259174Y45366609D01*
X73259174Y45366609D02*
X73306793Y45557085D01*
X73306793Y45557085D02*
X73354412Y45652323D01*
X73354412Y45652323D02*
X73449650Y45747561D01*
X73449650Y45747561D02*
X73592507Y45795180D01*
X73592507Y45795180D02*
X73687745Y45795180D01*
X73687745Y45795180D02*
X73830602Y45747561D01*
X73830602Y45747561D02*
X73878221Y45699942D01*
X74735364Y45461847D02*
X74735364Y44795180D01*
X74497269Y45842800D02*
X74259174Y45128514D01*
X74259174Y45128514D02*
X74878221Y45128514D01*
X37574819Y40666666D02*
X38289104Y40666666D01*
X38289104Y40666666D02*
X38431961Y40619047D01*
X38431961Y40619047D02*
X38527200Y40523809D01*
X38527200Y40523809D02*
X38574819Y40380952D01*
X38574819Y40380952D02*
X38574819Y40285714D01*
X37574819Y41571428D02*
X37574819Y41380952D01*
X37574819Y41380952D02*
X37622438Y41285714D01*
X37622438Y41285714D02*
X37670057Y41238095D01*
X37670057Y41238095D02*
X37812914Y41142857D01*
X37812914Y41142857D02*
X38003390Y41095238D01*
X38003390Y41095238D02*
X38384342Y41095238D01*
X38384342Y41095238D02*
X38479580Y41142857D01*
X38479580Y41142857D02*
X38527200Y41190476D01*
X38527200Y41190476D02*
X38574819Y41285714D01*
X38574819Y41285714D02*
X38574819Y41476190D01*
X38574819Y41476190D02*
X38527200Y41571428D01*
X38527200Y41571428D02*
X38479580Y41619047D01*
X38479580Y41619047D02*
X38384342Y41666666D01*
X38384342Y41666666D02*
X38146247Y41666666D01*
X38146247Y41666666D02*
X38051009Y41619047D01*
X38051009Y41619047D02*
X38003390Y41571428D01*
X38003390Y41571428D02*
X37955771Y41476190D01*
X37955771Y41476190D02*
X37955771Y41285714D01*
X37955771Y41285714D02*
X38003390Y41190476D01*
X38003390Y41190476D02*
X38051009Y41142857D01*
X38051009Y41142857D02*
X38146247Y41095238D01*
X62103446Y33530419D02*
X62055827Y33482800D01*
X62055827Y33482800D02*
X61912970Y33435180D01*
X61912970Y33435180D02*
X61817732Y33435180D01*
X61817732Y33435180D02*
X61674875Y33482800D01*
X61674875Y33482800D02*
X61579637Y33578038D01*
X61579637Y33578038D02*
X61532018Y33673276D01*
X61532018Y33673276D02*
X61484399Y33863752D01*
X61484399Y33863752D02*
X61484399Y34006609D01*
X61484399Y34006609D02*
X61532018Y34197085D01*
X61532018Y34197085D02*
X61579637Y34292323D01*
X61579637Y34292323D02*
X61674875Y34387561D01*
X61674875Y34387561D02*
X61817732Y34435180D01*
X61817732Y34435180D02*
X61912970Y34435180D01*
X61912970Y34435180D02*
X62055827Y34387561D01*
X62055827Y34387561D02*
X62103446Y34339942D01*
X62484399Y34339942D02*
X62532018Y34387561D01*
X62532018Y34387561D02*
X62627256Y34435180D01*
X62627256Y34435180D02*
X62865351Y34435180D01*
X62865351Y34435180D02*
X62960589Y34387561D01*
X62960589Y34387561D02*
X63008208Y34339942D01*
X63008208Y34339942D02*
X63055827Y34244704D01*
X63055827Y34244704D02*
X63055827Y34149466D01*
X63055827Y34149466D02*
X63008208Y34006609D01*
X63008208Y34006609D02*
X62436780Y33435180D01*
X62436780Y33435180D02*
X63055827Y33435180D01*
X46333333Y59925180D02*
X46000000Y60401371D01*
X45761905Y59925180D02*
X45761905Y60925180D01*
X45761905Y60925180D02*
X46142857Y60925180D01*
X46142857Y60925180D02*
X46238095Y60877561D01*
X46238095Y60877561D02*
X46285714Y60829942D01*
X46285714Y60829942D02*
X46333333Y60734704D01*
X46333333Y60734704D02*
X46333333Y60591847D01*
X46333333Y60591847D02*
X46285714Y60496609D01*
X46285714Y60496609D02*
X46238095Y60448990D01*
X46238095Y60448990D02*
X46142857Y60401371D01*
X46142857Y60401371D02*
X45761905Y60401371D01*
X46666667Y60925180D02*
X47333333Y60925180D01*
X47333333Y60925180D02*
X46904762Y59925180D01*
X18357142Y54425180D02*
X18023809Y54901371D01*
X17785714Y54425180D02*
X17785714Y55425180D01*
X17785714Y55425180D02*
X18166666Y55425180D01*
X18166666Y55425180D02*
X18261904Y55377561D01*
X18261904Y55377561D02*
X18309523Y55329942D01*
X18309523Y55329942D02*
X18357142Y55234704D01*
X18357142Y55234704D02*
X18357142Y55091847D01*
X18357142Y55091847D02*
X18309523Y54996609D01*
X18309523Y54996609D02*
X18261904Y54948990D01*
X18261904Y54948990D02*
X18166666Y54901371D01*
X18166666Y54901371D02*
X17785714Y54901371D01*
X19309523Y54425180D02*
X18738095Y54425180D01*
X19023809Y54425180D02*
X19023809Y55425180D01*
X19023809Y55425180D02*
X18928571Y55282323D01*
X18928571Y55282323D02*
X18833333Y55187085D01*
X18833333Y55187085D02*
X18738095Y55139466D01*
X20166666Y55091847D02*
X20166666Y54425180D01*
X19928571Y55472800D02*
X19690476Y54758514D01*
X19690476Y54758514D02*
X20309523Y54758514D01*
X18357142Y59425180D02*
X18023809Y59901371D01*
X17785714Y59425180D02*
X17785714Y60425180D01*
X17785714Y60425180D02*
X18166666Y60425180D01*
X18166666Y60425180D02*
X18261904Y60377561D01*
X18261904Y60377561D02*
X18309523Y60329942D01*
X18309523Y60329942D02*
X18357142Y60234704D01*
X18357142Y60234704D02*
X18357142Y60091847D01*
X18357142Y60091847D02*
X18309523Y59996609D01*
X18309523Y59996609D02*
X18261904Y59948990D01*
X18261904Y59948990D02*
X18166666Y59901371D01*
X18166666Y59901371D02*
X17785714Y59901371D01*
X19309523Y59425180D02*
X18738095Y59425180D01*
X19023809Y59425180D02*
X19023809Y60425180D01*
X19023809Y60425180D02*
X18928571Y60282323D01*
X18928571Y60282323D02*
X18833333Y60187085D01*
X18833333Y60187085D02*
X18738095Y60139466D01*
X20214285Y60425180D02*
X19738095Y60425180D01*
X19738095Y60425180D02*
X19690476Y59948990D01*
X19690476Y59948990D02*
X19738095Y59996609D01*
X19738095Y59996609D02*
X19833333Y60044228D01*
X19833333Y60044228D02*
X20071428Y60044228D01*
X20071428Y60044228D02*
X20166666Y59996609D01*
X20166666Y59996609D02*
X20214285Y59948990D01*
X20214285Y59948990D02*
X20261904Y59853752D01*
X20261904Y59853752D02*
X20261904Y59615657D01*
X20261904Y59615657D02*
X20214285Y59520419D01*
X20214285Y59520419D02*
X20166666Y59472800D01*
X20166666Y59472800D02*
X20071428Y59425180D01*
X20071428Y59425180D02*
X19833333Y59425180D01*
X19833333Y59425180D02*
X19738095Y59472800D01*
X19738095Y59472800D02*
X19690476Y59520419D01*
X18357142Y64425180D02*
X18023809Y64901371D01*
X17785714Y64425180D02*
X17785714Y65425180D01*
X17785714Y65425180D02*
X18166666Y65425180D01*
X18166666Y65425180D02*
X18261904Y65377561D01*
X18261904Y65377561D02*
X18309523Y65329942D01*
X18309523Y65329942D02*
X18357142Y65234704D01*
X18357142Y65234704D02*
X18357142Y65091847D01*
X18357142Y65091847D02*
X18309523Y64996609D01*
X18309523Y64996609D02*
X18261904Y64948990D01*
X18261904Y64948990D02*
X18166666Y64901371D01*
X18166666Y64901371D02*
X17785714Y64901371D01*
X19309523Y64425180D02*
X18738095Y64425180D01*
X19023809Y64425180D02*
X19023809Y65425180D01*
X19023809Y65425180D02*
X18928571Y65282323D01*
X18928571Y65282323D02*
X18833333Y65187085D01*
X18833333Y65187085D02*
X18738095Y65139466D01*
X20166666Y65425180D02*
X19976190Y65425180D01*
X19976190Y65425180D02*
X19880952Y65377561D01*
X19880952Y65377561D02*
X19833333Y65329942D01*
X19833333Y65329942D02*
X19738095Y65187085D01*
X19738095Y65187085D02*
X19690476Y64996609D01*
X19690476Y64996609D02*
X19690476Y64615657D01*
X19690476Y64615657D02*
X19738095Y64520419D01*
X19738095Y64520419D02*
X19785714Y64472800D01*
X19785714Y64472800D02*
X19880952Y64425180D01*
X19880952Y64425180D02*
X20071428Y64425180D01*
X20071428Y64425180D02*
X20166666Y64472800D01*
X20166666Y64472800D02*
X20214285Y64520419D01*
X20214285Y64520419D02*
X20261904Y64615657D01*
X20261904Y64615657D02*
X20261904Y64853752D01*
X20261904Y64853752D02*
X20214285Y64948990D01*
X20214285Y64948990D02*
X20166666Y64996609D01*
X20166666Y64996609D02*
X20071428Y65044228D01*
X20071428Y65044228D02*
X19880952Y65044228D01*
X19880952Y65044228D02*
X19785714Y64996609D01*
X19785714Y64996609D02*
X19738095Y64948990D01*
X19738095Y64948990D02*
X19690476Y64853752D01*
X18857142Y30925180D02*
X18523809Y31401371D01*
X18285714Y30925180D02*
X18285714Y31925180D01*
X18285714Y31925180D02*
X18666666Y31925180D01*
X18666666Y31925180D02*
X18761904Y31877561D01*
X18761904Y31877561D02*
X18809523Y31829942D01*
X18809523Y31829942D02*
X18857142Y31734704D01*
X18857142Y31734704D02*
X18857142Y31591847D01*
X18857142Y31591847D02*
X18809523Y31496609D01*
X18809523Y31496609D02*
X18761904Y31448990D01*
X18761904Y31448990D02*
X18666666Y31401371D01*
X18666666Y31401371D02*
X18285714Y31401371D01*
X19809523Y30925180D02*
X19238095Y30925180D01*
X19523809Y30925180D02*
X19523809Y31925180D01*
X19523809Y31925180D02*
X19428571Y31782323D01*
X19428571Y31782323D02*
X19333333Y31687085D01*
X19333333Y31687085D02*
X19238095Y31639466D01*
X20142857Y31925180D02*
X20809523Y31925180D01*
X20809523Y31925180D02*
X20380952Y30925180D01*
X18857142Y35425180D02*
X18523809Y35901371D01*
X18285714Y35425180D02*
X18285714Y36425180D01*
X18285714Y36425180D02*
X18666666Y36425180D01*
X18666666Y36425180D02*
X18761904Y36377561D01*
X18761904Y36377561D02*
X18809523Y36329942D01*
X18809523Y36329942D02*
X18857142Y36234704D01*
X18857142Y36234704D02*
X18857142Y36091847D01*
X18857142Y36091847D02*
X18809523Y35996609D01*
X18809523Y35996609D02*
X18761904Y35948990D01*
X18761904Y35948990D02*
X18666666Y35901371D01*
X18666666Y35901371D02*
X18285714Y35901371D01*
X19809523Y35425180D02*
X19238095Y35425180D01*
X19523809Y35425180D02*
X19523809Y36425180D01*
X19523809Y36425180D02*
X19428571Y36282323D01*
X19428571Y36282323D02*
X19333333Y36187085D01*
X19333333Y36187085D02*
X19238095Y36139466D01*
X20380952Y35996609D02*
X20285714Y36044228D01*
X20285714Y36044228D02*
X20238095Y36091847D01*
X20238095Y36091847D02*
X20190476Y36187085D01*
X20190476Y36187085D02*
X20190476Y36234704D01*
X20190476Y36234704D02*
X20238095Y36329942D01*
X20238095Y36329942D02*
X20285714Y36377561D01*
X20285714Y36377561D02*
X20380952Y36425180D01*
X20380952Y36425180D02*
X20571428Y36425180D01*
X20571428Y36425180D02*
X20666666Y36377561D01*
X20666666Y36377561D02*
X20714285Y36329942D01*
X20714285Y36329942D02*
X20761904Y36234704D01*
X20761904Y36234704D02*
X20761904Y36187085D01*
X20761904Y36187085D02*
X20714285Y36091847D01*
X20714285Y36091847D02*
X20666666Y36044228D01*
X20666666Y36044228D02*
X20571428Y35996609D01*
X20571428Y35996609D02*
X20380952Y35996609D01*
X20380952Y35996609D02*
X20285714Y35948990D01*
X20285714Y35948990D02*
X20238095Y35901371D01*
X20238095Y35901371D02*
X20190476Y35806133D01*
X20190476Y35806133D02*
X20190476Y35615657D01*
X20190476Y35615657D02*
X20238095Y35520419D01*
X20238095Y35520419D02*
X20285714Y35472800D01*
X20285714Y35472800D02*
X20380952Y35425180D01*
X20380952Y35425180D02*
X20571428Y35425180D01*
X20571428Y35425180D02*
X20666666Y35472800D01*
X20666666Y35472800D02*
X20714285Y35520419D01*
X20714285Y35520419D02*
X20761904Y35615657D01*
X20761904Y35615657D02*
X20761904Y35806133D01*
X20761904Y35806133D02*
X20714285Y35901371D01*
X20714285Y35901371D02*
X20666666Y35948990D01*
X20666666Y35948990D02*
X20571428Y35996609D01*
X18857142Y40425180D02*
X18523809Y40901371D01*
X18285714Y40425180D02*
X18285714Y41425180D01*
X18285714Y41425180D02*
X18666666Y41425180D01*
X18666666Y41425180D02*
X18761904Y41377561D01*
X18761904Y41377561D02*
X18809523Y41329942D01*
X18809523Y41329942D02*
X18857142Y41234704D01*
X18857142Y41234704D02*
X18857142Y41091847D01*
X18857142Y41091847D02*
X18809523Y40996609D01*
X18809523Y40996609D02*
X18761904Y40948990D01*
X18761904Y40948990D02*
X18666666Y40901371D01*
X18666666Y40901371D02*
X18285714Y40901371D01*
X19809523Y40425180D02*
X19238095Y40425180D01*
X19523809Y40425180D02*
X19523809Y41425180D01*
X19523809Y41425180D02*
X19428571Y41282323D01*
X19428571Y41282323D02*
X19333333Y41187085D01*
X19333333Y41187085D02*
X19238095Y41139466D01*
X20285714Y40425180D02*
X20476190Y40425180D01*
X20476190Y40425180D02*
X20571428Y40472800D01*
X20571428Y40472800D02*
X20619047Y40520419D01*
X20619047Y40520419D02*
X20714285Y40663276D01*
X20714285Y40663276D02*
X20761904Y40853752D01*
X20761904Y40853752D02*
X20761904Y41234704D01*
X20761904Y41234704D02*
X20714285Y41329942D01*
X20714285Y41329942D02*
X20666666Y41377561D01*
X20666666Y41377561D02*
X20571428Y41425180D01*
X20571428Y41425180D02*
X20380952Y41425180D01*
X20380952Y41425180D02*
X20285714Y41377561D01*
X20285714Y41377561D02*
X20238095Y41329942D01*
X20238095Y41329942D02*
X20190476Y41234704D01*
X20190476Y41234704D02*
X20190476Y40996609D01*
X20190476Y40996609D02*
X20238095Y40901371D01*
X20238095Y40901371D02*
X20285714Y40853752D01*
X20285714Y40853752D02*
X20380952Y40806133D01*
X20380952Y40806133D02*
X20571428Y40806133D01*
X20571428Y40806133D02*
X20666666Y40853752D01*
X20666666Y40853752D02*
X20714285Y40901371D01*
X20714285Y40901371D02*
X20761904Y40996609D01*
X18857142Y45425180D02*
X18523809Y45901371D01*
X18285714Y45425180D02*
X18285714Y46425180D01*
X18285714Y46425180D02*
X18666666Y46425180D01*
X18666666Y46425180D02*
X18761904Y46377561D01*
X18761904Y46377561D02*
X18809523Y46329942D01*
X18809523Y46329942D02*
X18857142Y46234704D01*
X18857142Y46234704D02*
X18857142Y46091847D01*
X18857142Y46091847D02*
X18809523Y45996609D01*
X18809523Y45996609D02*
X18761904Y45948990D01*
X18761904Y45948990D02*
X18666666Y45901371D01*
X18666666Y45901371D02*
X18285714Y45901371D01*
X19238095Y46329942D02*
X19285714Y46377561D01*
X19285714Y46377561D02*
X19380952Y46425180D01*
X19380952Y46425180D02*
X19619047Y46425180D01*
X19619047Y46425180D02*
X19714285Y46377561D01*
X19714285Y46377561D02*
X19761904Y46329942D01*
X19761904Y46329942D02*
X19809523Y46234704D01*
X19809523Y46234704D02*
X19809523Y46139466D01*
X19809523Y46139466D02*
X19761904Y45996609D01*
X19761904Y45996609D02*
X19190476Y45425180D01*
X19190476Y45425180D02*
X19809523Y45425180D01*
X20428571Y46425180D02*
X20523809Y46425180D01*
X20523809Y46425180D02*
X20619047Y46377561D01*
X20619047Y46377561D02*
X20666666Y46329942D01*
X20666666Y46329942D02*
X20714285Y46234704D01*
X20714285Y46234704D02*
X20761904Y46044228D01*
X20761904Y46044228D02*
X20761904Y45806133D01*
X20761904Y45806133D02*
X20714285Y45615657D01*
X20714285Y45615657D02*
X20666666Y45520419D01*
X20666666Y45520419D02*
X20619047Y45472800D01*
X20619047Y45472800D02*
X20523809Y45425180D01*
X20523809Y45425180D02*
X20428571Y45425180D01*
X20428571Y45425180D02*
X20333333Y45472800D01*
X20333333Y45472800D02*
X20285714Y45520419D01*
X20285714Y45520419D02*
X20238095Y45615657D01*
X20238095Y45615657D02*
X20190476Y45806133D01*
X20190476Y45806133D02*
X20190476Y46044228D01*
X20190476Y46044228D02*
X20238095Y46234704D01*
X20238095Y46234704D02*
X20285714Y46329942D01*
X20285714Y46329942D02*
X20333333Y46377561D01*
X20333333Y46377561D02*
X20428571Y46425180D01*
X75959819Y73562142D02*
X75483628Y73228809D01*
X75959819Y72990714D02*
X74959819Y72990714D01*
X74959819Y72990714D02*
X74959819Y73371666D01*
X74959819Y73371666D02*
X75007438Y73466904D01*
X75007438Y73466904D02*
X75055057Y73514523D01*
X75055057Y73514523D02*
X75150295Y73562142D01*
X75150295Y73562142D02*
X75293152Y73562142D01*
X75293152Y73562142D02*
X75388390Y73514523D01*
X75388390Y73514523D02*
X75436009Y73466904D01*
X75436009Y73466904D02*
X75483628Y73371666D01*
X75483628Y73371666D02*
X75483628Y72990714D01*
X75055057Y73943095D02*
X75007438Y73990714D01*
X75007438Y73990714D02*
X74959819Y74085952D01*
X74959819Y74085952D02*
X74959819Y74324047D01*
X74959819Y74324047D02*
X75007438Y74419285D01*
X75007438Y74419285D02*
X75055057Y74466904D01*
X75055057Y74466904D02*
X75150295Y74514523D01*
X75150295Y74514523D02*
X75245533Y74514523D01*
X75245533Y74514523D02*
X75388390Y74466904D01*
X75388390Y74466904D02*
X75959819Y73895476D01*
X75959819Y73895476D02*
X75959819Y74514523D01*
X75959819Y75466904D02*
X75959819Y74895476D01*
X75959819Y75181190D02*
X74959819Y75181190D01*
X74959819Y75181190D02*
X75102676Y75085952D01*
X75102676Y75085952D02*
X75197914Y74990714D01*
X75197914Y74990714D02*
X75245533Y74895476D01*
X81959819Y73482142D02*
X81483628Y73148809D01*
X81959819Y72910714D02*
X80959819Y72910714D01*
X80959819Y72910714D02*
X80959819Y73291666D01*
X80959819Y73291666D02*
X81007438Y73386904D01*
X81007438Y73386904D02*
X81055057Y73434523D01*
X81055057Y73434523D02*
X81150295Y73482142D01*
X81150295Y73482142D02*
X81293152Y73482142D01*
X81293152Y73482142D02*
X81388390Y73434523D01*
X81388390Y73434523D02*
X81436009Y73386904D01*
X81436009Y73386904D02*
X81483628Y73291666D01*
X81483628Y73291666D02*
X81483628Y72910714D01*
X81055057Y73863095D02*
X81007438Y73910714D01*
X81007438Y73910714D02*
X80959819Y74005952D01*
X80959819Y74005952D02*
X80959819Y74244047D01*
X80959819Y74244047D02*
X81007438Y74339285D01*
X81007438Y74339285D02*
X81055057Y74386904D01*
X81055057Y74386904D02*
X81150295Y74434523D01*
X81150295Y74434523D02*
X81245533Y74434523D01*
X81245533Y74434523D02*
X81388390Y74386904D01*
X81388390Y74386904D02*
X81959819Y73815476D01*
X81959819Y73815476D02*
X81959819Y74434523D01*
X81055057Y74815476D02*
X81007438Y74863095D01*
X81007438Y74863095D02*
X80959819Y74958333D01*
X80959819Y74958333D02*
X80959819Y75196428D01*
X80959819Y75196428D02*
X81007438Y75291666D01*
X81007438Y75291666D02*
X81055057Y75339285D01*
X81055057Y75339285D02*
X81150295Y75386904D01*
X81150295Y75386904D02*
X81245533Y75386904D01*
X81245533Y75386904D02*
X81388390Y75339285D01*
X81388390Y75339285D02*
X81959819Y74767857D01*
X81959819Y74767857D02*
X81959819Y75386904D01*
X100824819Y80857142D02*
X100348628Y80523809D01*
X100824819Y80285714D02*
X99824819Y80285714D01*
X99824819Y80285714D02*
X99824819Y80666666D01*
X99824819Y80666666D02*
X99872438Y80761904D01*
X99872438Y80761904D02*
X99920057Y80809523D01*
X99920057Y80809523D02*
X100015295Y80857142D01*
X100015295Y80857142D02*
X100158152Y80857142D01*
X100158152Y80857142D02*
X100253390Y80809523D01*
X100253390Y80809523D02*
X100301009Y80761904D01*
X100301009Y80761904D02*
X100348628Y80666666D01*
X100348628Y80666666D02*
X100348628Y80285714D01*
X99920057Y81238095D02*
X99872438Y81285714D01*
X99872438Y81285714D02*
X99824819Y81380952D01*
X99824819Y81380952D02*
X99824819Y81619047D01*
X99824819Y81619047D02*
X99872438Y81714285D01*
X99872438Y81714285D02*
X99920057Y81761904D01*
X99920057Y81761904D02*
X100015295Y81809523D01*
X100015295Y81809523D02*
X100110533Y81809523D01*
X100110533Y81809523D02*
X100253390Y81761904D01*
X100253390Y81761904D02*
X100824819Y81190476D01*
X100824819Y81190476D02*
X100824819Y81809523D01*
X100158152Y82666666D02*
X100824819Y82666666D01*
X99777200Y82428571D02*
X100491485Y82190476D01*
X100491485Y82190476D02*
X100491485Y82809523D01*
X89243095Y57135180D02*
X89243095Y56325657D01*
X89243095Y56325657D02*
X89290714Y56230419D01*
X89290714Y56230419D02*
X89338333Y56182800D01*
X89338333Y56182800D02*
X89433571Y56135180D01*
X89433571Y56135180D02*
X89624047Y56135180D01*
X89624047Y56135180D02*
X89719285Y56182800D01*
X89719285Y56182800D02*
X89766904Y56230419D01*
X89766904Y56230419D02*
X89814523Y56325657D01*
X89814523Y56325657D02*
X89814523Y57135180D01*
X90814523Y56135180D02*
X90243095Y56135180D01*
X90528809Y56135180D02*
X90528809Y57135180D01*
X90528809Y57135180D02*
X90433571Y56992323D01*
X90433571Y56992323D02*
X90338333Y56897085D01*
X90338333Y56897085D02*
X90243095Y56849466D01*
X71093628Y32163809D02*
X71569819Y32163809D01*
X70569819Y31830476D02*
X71093628Y32163809D01*
X71093628Y32163809D02*
X70569819Y32497142D01*
X71569819Y33354285D02*
X71569819Y32782857D01*
X71569819Y33068571D02*
X70569819Y33068571D01*
X70569819Y33068571D02*
X70712676Y32973333D01*
X70712676Y32973333D02*
X70807914Y32878095D01*
X70807914Y32878095D02*
X70855533Y32782857D01*
X103833333Y39390419D02*
X103785714Y39342800D01*
X103785714Y39342800D02*
X103642857Y39295180D01*
X103642857Y39295180D02*
X103547619Y39295180D01*
X103547619Y39295180D02*
X103404762Y39342800D01*
X103404762Y39342800D02*
X103309524Y39438038D01*
X103309524Y39438038D02*
X103261905Y39533276D01*
X103261905Y39533276D02*
X103214286Y39723752D01*
X103214286Y39723752D02*
X103214286Y39866609D01*
X103214286Y39866609D02*
X103261905Y40057085D01*
X103261905Y40057085D02*
X103309524Y40152323D01*
X103309524Y40152323D02*
X103404762Y40247561D01*
X103404762Y40247561D02*
X103547619Y40295180D01*
X103547619Y40295180D02*
X103642857Y40295180D01*
X103642857Y40295180D02*
X103785714Y40247561D01*
X103785714Y40247561D02*
X103833333Y40199942D01*
X104738095Y40295180D02*
X104261905Y40295180D01*
X104261905Y40295180D02*
X104214286Y39818990D01*
X104214286Y39818990D02*
X104261905Y39866609D01*
X104261905Y39866609D02*
X104357143Y39914228D01*
X104357143Y39914228D02*
X104595238Y39914228D01*
X104595238Y39914228D02*
X104690476Y39866609D01*
X104690476Y39866609D02*
X104738095Y39818990D01*
X104738095Y39818990D02*
X104785714Y39723752D01*
X104785714Y39723752D02*
X104785714Y39485657D01*
X104785714Y39485657D02*
X104738095Y39390419D01*
X104738095Y39390419D02*
X104690476Y39342800D01*
X104690476Y39342800D02*
X104595238Y39295180D01*
X104595238Y39295180D02*
X104357143Y39295180D01*
X104357143Y39295180D02*
X104261905Y39342800D01*
X104261905Y39342800D02*
X104214286Y39390419D01*
X102916666Y88175180D02*
X102916666Y87460895D01*
X102916666Y87460895D02*
X102869047Y87318038D01*
X102869047Y87318038D02*
X102773809Y87222800D01*
X102773809Y87222800D02*
X102630952Y87175180D01*
X102630952Y87175180D02*
X102535714Y87175180D01*
X103916666Y87175180D02*
X103345238Y87175180D01*
X103630952Y87175180D02*
X103630952Y88175180D01*
X103630952Y88175180D02*
X103535714Y88032323D01*
X103535714Y88032323D02*
X103440476Y87937085D01*
X103440476Y87937085D02*
X103345238Y87889466D01*
X144738095Y8495180D02*
X144738095Y9495180D01*
X144738095Y9018990D02*
X145309523Y9018990D01*
X145309523Y8495180D02*
X145309523Y9495180D01*
X145738095Y9399942D02*
X145785714Y9447561D01*
X145785714Y9447561D02*
X145880952Y9495180D01*
X145880952Y9495180D02*
X146119047Y9495180D01*
X146119047Y9495180D02*
X146214285Y9447561D01*
X146214285Y9447561D02*
X146261904Y9399942D01*
X146261904Y9399942D02*
X146309523Y9304704D01*
X146309523Y9304704D02*
X146309523Y9209466D01*
X146309523Y9209466D02*
X146261904Y9066609D01*
X146261904Y9066609D02*
X145690476Y8495180D01*
X145690476Y8495180D02*
X146309523Y8495180D01*
X12238095Y8495180D02*
X12238095Y9495180D01*
X12238095Y9018990D02*
X12809523Y9018990D01*
X12809523Y8495180D02*
X12809523Y9495180D01*
X13190476Y9495180D02*
X13809523Y9495180D01*
X13809523Y9495180D02*
X13476190Y9114228D01*
X13476190Y9114228D02*
X13619047Y9114228D01*
X13619047Y9114228D02*
X13714285Y9066609D01*
X13714285Y9066609D02*
X13761904Y9018990D01*
X13761904Y9018990D02*
X13809523Y8923752D01*
X13809523Y8923752D02*
X13809523Y8685657D01*
X13809523Y8685657D02*
X13761904Y8590419D01*
X13761904Y8590419D02*
X13714285Y8542800D01*
X13714285Y8542800D02*
X13619047Y8495180D01*
X13619047Y8495180D02*
X13333333Y8495180D01*
X13333333Y8495180D02*
X13238095Y8542800D01*
X13238095Y8542800D02*
X13190476Y8590419D01*
X74541666Y82670180D02*
X74541666Y81955895D01*
X74541666Y81955895D02*
X74494047Y81813038D01*
X74494047Y81813038D02*
X74398809Y81717800D01*
X74398809Y81717800D02*
X74255952Y81670180D01*
X74255952Y81670180D02*
X74160714Y81670180D01*
X75160714Y82241609D02*
X75065476Y82289228D01*
X75065476Y82289228D02*
X75017857Y82336847D01*
X75017857Y82336847D02*
X74970238Y82432085D01*
X74970238Y82432085D02*
X74970238Y82479704D01*
X74970238Y82479704D02*
X75017857Y82574942D01*
X75017857Y82574942D02*
X75065476Y82622561D01*
X75065476Y82622561D02*
X75160714Y82670180D01*
X75160714Y82670180D02*
X75351190Y82670180D01*
X75351190Y82670180D02*
X75446428Y82622561D01*
X75446428Y82622561D02*
X75494047Y82574942D01*
X75494047Y82574942D02*
X75541666Y82479704D01*
X75541666Y82479704D02*
X75541666Y82432085D01*
X75541666Y82432085D02*
X75494047Y82336847D01*
X75494047Y82336847D02*
X75446428Y82289228D01*
X75446428Y82289228D02*
X75351190Y82241609D01*
X75351190Y82241609D02*
X75160714Y82241609D01*
X75160714Y82241609D02*
X75065476Y82193990D01*
X75065476Y82193990D02*
X75017857Y82146371D01*
X75017857Y82146371D02*
X74970238Y82051133D01*
X74970238Y82051133D02*
X74970238Y81860657D01*
X74970238Y81860657D02*
X75017857Y81765419D01*
X75017857Y81765419D02*
X75065476Y81717800D01*
X75065476Y81717800D02*
X75160714Y81670180D01*
X75160714Y81670180D02*
X75351190Y81670180D01*
X75351190Y81670180D02*
X75446428Y81717800D01*
X75446428Y81717800D02*
X75494047Y81765419D01*
X75494047Y81765419D02*
X75541666Y81860657D01*
X75541666Y81860657D02*
X75541666Y82051133D01*
X75541666Y82051133D02*
X75494047Y82146371D01*
X75494047Y82146371D02*
X75446428Y82193990D01*
X75446428Y82193990D02*
X75351190Y82241609D01*
X126334819Y44406666D02*
X127049104Y44406666D01*
X127049104Y44406666D02*
X127191961Y44359047D01*
X127191961Y44359047D02*
X127287200Y44263809D01*
X127287200Y44263809D02*
X127334819Y44120952D01*
X127334819Y44120952D02*
X127334819Y44025714D01*
X127334819Y44930476D02*
X127334819Y45120952D01*
X127334819Y45120952D02*
X127287200Y45216190D01*
X127287200Y45216190D02*
X127239580Y45263809D01*
X127239580Y45263809D02*
X127096723Y45359047D01*
X127096723Y45359047D02*
X126906247Y45406666D01*
X126906247Y45406666D02*
X126525295Y45406666D01*
X126525295Y45406666D02*
X126430057Y45359047D01*
X126430057Y45359047D02*
X126382438Y45311428D01*
X126382438Y45311428D02*
X126334819Y45216190D01*
X126334819Y45216190D02*
X126334819Y45025714D01*
X126334819Y45025714D02*
X126382438Y44930476D01*
X126382438Y44930476D02*
X126430057Y44882857D01*
X126430057Y44882857D02*
X126525295Y44835238D01*
X126525295Y44835238D02*
X126763390Y44835238D01*
X126763390Y44835238D02*
X126858628Y44882857D01*
X126858628Y44882857D02*
X126906247Y44930476D01*
X126906247Y44930476D02*
X126953866Y45025714D01*
X126953866Y45025714D02*
X126953866Y45216190D01*
X126953866Y45216190D02*
X126906247Y45311428D01*
X126906247Y45311428D02*
X126858628Y45359047D01*
X126858628Y45359047D02*
X126763390Y45406666D01*
X126334819Y19930476D02*
X127049104Y19930476D01*
X127049104Y19930476D02*
X127191961Y19882857D01*
X127191961Y19882857D02*
X127287200Y19787619D01*
X127287200Y19787619D02*
X127334819Y19644762D01*
X127334819Y19644762D02*
X127334819Y19549524D01*
X127334819Y20930476D02*
X127334819Y20359048D01*
X127334819Y20644762D02*
X126334819Y20644762D01*
X126334819Y20644762D02*
X126477676Y20549524D01*
X126477676Y20549524D02*
X126572914Y20454286D01*
X126572914Y20454286D02*
X126620533Y20359048D01*
X126334819Y21549524D02*
X126334819Y21644762D01*
X126334819Y21644762D02*
X126382438Y21740000D01*
X126382438Y21740000D02*
X126430057Y21787619D01*
X126430057Y21787619D02*
X126525295Y21835238D01*
X126525295Y21835238D02*
X126715771Y21882857D01*
X126715771Y21882857D02*
X126953866Y21882857D01*
X126953866Y21882857D02*
X127144342Y21835238D01*
X127144342Y21835238D02*
X127239580Y21787619D01*
X127239580Y21787619D02*
X127287200Y21740000D01*
X127287200Y21740000D02*
X127334819Y21644762D01*
X127334819Y21644762D02*
X127334819Y21549524D01*
X127334819Y21549524D02*
X127287200Y21454286D01*
X127287200Y21454286D02*
X127239580Y21406667D01*
X127239580Y21406667D02*
X127144342Y21359048D01*
X127144342Y21359048D02*
X126953866Y21311429D01*
X126953866Y21311429D02*
X126715771Y21311429D01*
X126715771Y21311429D02*
X126525295Y21359048D01*
X126525295Y21359048D02*
X126430057Y21406667D01*
X126430057Y21406667D02*
X126382438Y21454286D01*
X126382438Y21454286D02*
X126334819Y21549524D01*
X146390476Y89087680D02*
X146390476Y88373395D01*
X146390476Y88373395D02*
X146342857Y88230538D01*
X146342857Y88230538D02*
X146247619Y88135300D01*
X146247619Y88135300D02*
X146104762Y88087680D01*
X146104762Y88087680D02*
X146009524Y88087680D01*
X147390476Y88087680D02*
X146819048Y88087680D01*
X147104762Y88087680D02*
X147104762Y89087680D01*
X147104762Y89087680D02*
X147009524Y88944823D01*
X147009524Y88944823D02*
X146914286Y88849585D01*
X146914286Y88849585D02*
X146819048Y88801966D01*
X148342857Y88087680D02*
X147771429Y88087680D01*
X148057143Y88087680D02*
X148057143Y89087680D01*
X148057143Y89087680D02*
X147961905Y88944823D01*
X147961905Y88944823D02*
X147866667Y88849585D01*
X147866667Y88849585D02*
X147771429Y88801966D01*
X144738095Y98795180D02*
X144738095Y99795180D01*
X144738095Y99318990D02*
X145309523Y99318990D01*
X145309523Y98795180D02*
X145309523Y99795180D01*
X146309523Y98795180D02*
X145738095Y98795180D01*
X146023809Y98795180D02*
X146023809Y99795180D01*
X146023809Y99795180D02*
X145928571Y99652323D01*
X145928571Y99652323D02*
X145833333Y99557085D01*
X145833333Y99557085D02*
X145738095Y99509466D01*
X131666667Y99342800D02*
X131809524Y99295180D01*
X131809524Y99295180D02*
X132047619Y99295180D01*
X132047619Y99295180D02*
X132142857Y99342800D01*
X132142857Y99342800D02*
X132190476Y99390419D01*
X132190476Y99390419D02*
X132238095Y99485657D01*
X132238095Y99485657D02*
X132238095Y99580895D01*
X132238095Y99580895D02*
X132190476Y99676133D01*
X132190476Y99676133D02*
X132142857Y99723752D01*
X132142857Y99723752D02*
X132047619Y99771371D01*
X132047619Y99771371D02*
X131857143Y99818990D01*
X131857143Y99818990D02*
X131761905Y99866609D01*
X131761905Y99866609D02*
X131714286Y99914228D01*
X131714286Y99914228D02*
X131666667Y100009466D01*
X131666667Y100009466D02*
X131666667Y100104704D01*
X131666667Y100104704D02*
X131714286Y100199942D01*
X131714286Y100199942D02*
X131761905Y100247561D01*
X131761905Y100247561D02*
X131857143Y100295180D01*
X131857143Y100295180D02*
X132095238Y100295180D01*
X132095238Y100295180D02*
X132238095Y100247561D01*
X132571429Y100295180D02*
X132809524Y99295180D01*
X132809524Y99295180D02*
X133000000Y100009466D01*
X133000000Y100009466D02*
X133190476Y99295180D01*
X133190476Y99295180D02*
X133428572Y100295180D01*
X134333333Y99295180D02*
X133761905Y99295180D01*
X134047619Y99295180D02*
X134047619Y100295180D01*
X134047619Y100295180D02*
X133952381Y100152323D01*
X133952381Y100152323D02*
X133857143Y100057085D01*
X133857143Y100057085D02*
X133761905Y100009466D01*
X12238095Y102995180D02*
X12238095Y103995180D01*
X12238095Y103518990D02*
X12809523Y103518990D01*
X12809523Y102995180D02*
X12809523Y103995180D01*
X13714285Y103661847D02*
X13714285Y102995180D01*
X13476190Y104042800D02*
X13238095Y103328514D01*
X13238095Y103328514D02*
X13857142Y103328514D01*
D11*
%TO.C,J7*%
X125695000Y68280000D02*
X125695000Y60600000D01*
X125695000Y68280000D02*
X128355000Y68280000D01*
X125695000Y60600000D02*
X128355000Y60600000D01*
X127025000Y70880000D02*
X128355000Y70880000D01*
X128355000Y70880000D02*
X128355000Y69550000D01*
X128355000Y68280000D02*
X128355000Y60600000D01*
%TO.C,C3*%
X65369775Y25665000D02*
X64869775Y25665000D01*
X65119775Y25415000D02*
X65119775Y25915000D01*
X62565000Y24560000D02*
X62565000Y29720000D01*
X62525000Y24560000D02*
X62525000Y29720000D01*
X62485000Y24561000D02*
X62485000Y29719000D01*
X62445000Y24563000D02*
X62445000Y29717000D01*
X62405000Y24565000D02*
X62405000Y29715000D01*
X62365000Y24568000D02*
X62365000Y29712000D01*
X62325000Y24571000D02*
X62325000Y26100000D01*
X62325000Y28180000D02*
X62325000Y29709000D01*
X62285000Y24575000D02*
X62285000Y26100000D01*
X62285000Y28180000D02*
X62285000Y29705000D01*
X62245000Y24580000D02*
X62245000Y26100000D01*
X62245000Y28180000D02*
X62245000Y29700000D01*
X62205000Y24585000D02*
X62205000Y26100000D01*
X62205000Y28180000D02*
X62205000Y29695000D01*
X62165000Y24591000D02*
X62165000Y26100000D01*
X62165000Y28180000D02*
X62165000Y29689000D01*
X62125000Y24597000D02*
X62125000Y26100000D01*
X62125000Y28180000D02*
X62125000Y29683000D01*
X62085000Y24604000D02*
X62085000Y26100000D01*
X62085000Y28180000D02*
X62085000Y29676000D01*
X62045000Y24612000D02*
X62045000Y26100000D01*
X62045000Y28180000D02*
X62045000Y29668000D01*
X62005000Y24621000D02*
X62005000Y26100000D01*
X62005000Y28180000D02*
X62005000Y29659000D01*
X61965000Y24630000D02*
X61965000Y26100000D01*
X61965000Y28180000D02*
X61965000Y29650000D01*
X61925000Y24639000D02*
X61925000Y26100000D01*
X61925000Y28180000D02*
X61925000Y29641000D01*
X61885000Y24650000D02*
X61885000Y26100000D01*
X61885000Y28180000D02*
X61885000Y29630000D01*
X61845000Y24661000D02*
X61845000Y26100000D01*
X61845000Y28180000D02*
X61845000Y29619000D01*
X61805000Y24673000D02*
X61805000Y26100000D01*
X61805000Y28180000D02*
X61805000Y29607000D01*
X61765000Y24685000D02*
X61765000Y26100000D01*
X61765000Y28180000D02*
X61765000Y29595000D01*
X61725000Y24698000D02*
X61725000Y26100000D01*
X61725000Y28180000D02*
X61725000Y29582000D01*
X61685000Y24712000D02*
X61685000Y26100000D01*
X61685000Y28180000D02*
X61685000Y29568000D01*
X61645000Y24727000D02*
X61645000Y26100000D01*
X61645000Y28180000D02*
X61645000Y29553000D01*
X61605000Y24742000D02*
X61605000Y26100000D01*
X61605000Y28180000D02*
X61605000Y29538000D01*
X61565000Y24758000D02*
X61565000Y26100000D01*
X61565000Y28180000D02*
X61565000Y29522000D01*
X61525000Y24775000D02*
X61525000Y26100000D01*
X61525000Y28180000D02*
X61525000Y29505000D01*
X61485000Y24793000D02*
X61485000Y26100000D01*
X61485000Y28180000D02*
X61485000Y29487000D01*
X61445000Y24811000D02*
X61445000Y26100000D01*
X61445000Y28180000D02*
X61445000Y29469000D01*
X61405000Y24831000D02*
X61405000Y26100000D01*
X61405000Y28180000D02*
X61405000Y29449000D01*
X61365000Y24851000D02*
X61365000Y26100000D01*
X61365000Y28180000D02*
X61365000Y29429000D01*
X61325000Y24872000D02*
X61325000Y26100000D01*
X61325000Y28180000D02*
X61325000Y29408000D01*
X61285000Y24894000D02*
X61285000Y26100000D01*
X61285000Y28180000D02*
X61285000Y29386000D01*
X61245000Y24917000D02*
X61245000Y26100000D01*
X61245000Y28180000D02*
X61245000Y29363000D01*
X61205000Y24941000D02*
X61205000Y26100000D01*
X61205000Y28180000D02*
X61205000Y29339000D01*
X61165000Y24965000D02*
X61165000Y26100000D01*
X61165000Y28180000D02*
X61165000Y29315000D01*
X61125000Y24991000D02*
X61125000Y26100000D01*
X61125000Y28180000D02*
X61125000Y29289000D01*
X61085000Y25018000D02*
X61085000Y26100000D01*
X61085000Y28180000D02*
X61085000Y29262000D01*
X61045000Y25046000D02*
X61045000Y26100000D01*
X61045000Y28180000D02*
X61045000Y29234000D01*
X61005000Y25075000D02*
X61005000Y26100000D01*
X61005000Y28180000D02*
X61005000Y29205000D01*
X60965000Y25105000D02*
X60965000Y26100000D01*
X60965000Y28180000D02*
X60965000Y29175000D01*
X60925000Y25137000D02*
X60925000Y26100000D01*
X60925000Y28180000D02*
X60925000Y29143000D01*
X60885000Y25170000D02*
X60885000Y26100000D01*
X60885000Y28180000D02*
X60885000Y29110000D01*
X60845000Y25204000D02*
X60845000Y26100000D01*
X60845000Y28180000D02*
X60845000Y29076000D01*
X60805000Y25239000D02*
X60805000Y26100000D01*
X60805000Y28180000D02*
X60805000Y29041000D01*
X60765000Y25276000D02*
X60765000Y26100000D01*
X60765000Y28180000D02*
X60765000Y29004000D01*
X60725000Y25315000D02*
X60725000Y26100000D01*
X60725000Y28180000D02*
X60725000Y28965000D01*
X60685000Y25355000D02*
X60685000Y26100000D01*
X60685000Y28180000D02*
X60685000Y28925000D01*
X60645000Y25397000D02*
X60645000Y26100000D01*
X60645000Y28180000D02*
X60645000Y28883000D01*
X60605000Y25441000D02*
X60605000Y26100000D01*
X60605000Y28180000D02*
X60605000Y28839000D01*
X60565000Y25488000D02*
X60565000Y26100000D01*
X60565000Y28180000D02*
X60565000Y28792000D01*
X60525000Y25536000D02*
X60525000Y26100000D01*
X60525000Y28180000D02*
X60525000Y28744000D01*
X60485000Y25587000D02*
X60485000Y26100000D01*
X60485000Y28180000D02*
X60485000Y28693000D01*
X60445000Y25641000D02*
X60445000Y26100000D01*
X60445000Y28180000D02*
X60445000Y28639000D01*
X60405000Y25697000D02*
X60405000Y26100000D01*
X60405000Y28180000D02*
X60405000Y28583000D01*
X60365000Y25757000D02*
X60365000Y26100000D01*
X60365000Y28180000D02*
X60365000Y28523000D01*
X60325000Y25821000D02*
X60325000Y26100000D01*
X60325000Y28180000D02*
X60325000Y28459000D01*
X60285000Y25889000D02*
X60285000Y26100000D01*
X60285000Y28180000D02*
X60285000Y28391000D01*
X60245000Y25963000D02*
X60245000Y28317000D01*
X60205000Y26042000D02*
X60205000Y28238000D01*
X60165000Y26129000D02*
X60165000Y28151000D01*
X60125000Y26226000D02*
X60125000Y28054000D01*
X60085000Y26335000D02*
X60085000Y27945000D01*
X60045000Y26463000D02*
X60045000Y27817000D01*
X60005000Y26623000D02*
X60005000Y27657000D01*
X59965000Y26857000D02*
X59965000Y27423000D01*
X65185000Y27140000D02*
G75*
G02*
X59945000Y27140000I-2620000J0D01*
G01*
X59945000Y27140000D02*
G75*
G02*
X65185000Y27140000I2620000J0D01*
G01*
%TO.C,R13*%
X50540000Y57250000D02*
X49770000Y57250000D01*
X49770000Y55880000D02*
X49770000Y58620000D01*
X49770000Y58620000D02*
X43230000Y58620000D01*
X43230000Y55880000D02*
X49770000Y55880000D01*
X43230000Y58620000D02*
X43230000Y55880000D01*
X42460000Y57250000D02*
X43230000Y57250000D01*
%TO.C,C1*%
X107790000Y39694775D02*
X107790000Y39194775D01*
X108040000Y39444775D02*
X107540000Y39444775D01*
X108895000Y36890000D02*
X103735000Y36890000D01*
X108895000Y36850000D02*
X103735000Y36850000D01*
X108894000Y36810000D02*
X103736000Y36810000D01*
X108892000Y36770000D02*
X103738000Y36770000D01*
X108890000Y36730000D02*
X103740000Y36730000D01*
X108887000Y36690000D02*
X103743000Y36690000D01*
X108884000Y36650000D02*
X107355000Y36650000D01*
X105275000Y36650000D02*
X103746000Y36650000D01*
X108880000Y36610000D02*
X107355000Y36610000D01*
X105275000Y36610000D02*
X103750000Y36610000D01*
X108875000Y36570000D02*
X107355000Y36570000D01*
X105275000Y36570000D02*
X103755000Y36570000D01*
X108870000Y36530000D02*
X107355000Y36530000D01*
X105275000Y36530000D02*
X103760000Y36530000D01*
X108864000Y36490000D02*
X107355000Y36490000D01*
X105275000Y36490000D02*
X103766000Y36490000D01*
X108858000Y36450000D02*
X107355000Y36450000D01*
X105275000Y36450000D02*
X103772000Y36450000D01*
X108851000Y36410000D02*
X107355000Y36410000D01*
X105275000Y36410000D02*
X103779000Y36410000D01*
X108843000Y36370000D02*
X107355000Y36370000D01*
X105275000Y36370000D02*
X103787000Y36370000D01*
X108834000Y36330000D02*
X107355000Y36330000D01*
X105275000Y36330000D02*
X103796000Y36330000D01*
X108825000Y36290000D02*
X107355000Y36290000D01*
X105275000Y36290000D02*
X103805000Y36290000D01*
X108816000Y36250000D02*
X107355000Y36250000D01*
X105275000Y36250000D02*
X103814000Y36250000D01*
X108805000Y36210000D02*
X107355000Y36210000D01*
X105275000Y36210000D02*
X103825000Y36210000D01*
X108794000Y36170000D02*
X107355000Y36170000D01*
X105275000Y36170000D02*
X103836000Y36170000D01*
X108782000Y36130000D02*
X107355000Y36130000D01*
X105275000Y36130000D02*
X103848000Y36130000D01*
X108770000Y36090000D02*
X107355000Y36090000D01*
X105275000Y36090000D02*
X103860000Y36090000D01*
X108757000Y36050000D02*
X107355000Y36050000D01*
X105275000Y36050000D02*
X103873000Y36050000D01*
X108743000Y36010000D02*
X107355000Y36010000D01*
X105275000Y36010000D02*
X103887000Y36010000D01*
X108728000Y35970000D02*
X107355000Y35970000D01*
X105275000Y35970000D02*
X103902000Y35970000D01*
X108713000Y35930000D02*
X107355000Y35930000D01*
X105275000Y35930000D02*
X103917000Y35930000D01*
X108697000Y35890000D02*
X107355000Y35890000D01*
X105275000Y35890000D02*
X103933000Y35890000D01*
X108680000Y35850000D02*
X107355000Y35850000D01*
X105275000Y35850000D02*
X103950000Y35850000D01*
X108662000Y35810000D02*
X107355000Y35810000D01*
X105275000Y35810000D02*
X103968000Y35810000D01*
X108644000Y35770000D02*
X107355000Y35770000D01*
X105275000Y35770000D02*
X103986000Y35770000D01*
X108624000Y35730000D02*
X107355000Y35730000D01*
X105275000Y35730000D02*
X104006000Y35730000D01*
X108604000Y35690000D02*
X107355000Y35690000D01*
X105275000Y35690000D02*
X104026000Y35690000D01*
X108583000Y35650000D02*
X107355000Y35650000D01*
X105275000Y35650000D02*
X104047000Y35650000D01*
X108561000Y35610000D02*
X107355000Y35610000D01*
X105275000Y35610000D02*
X104069000Y35610000D01*
X108538000Y35570000D02*
X107355000Y35570000D01*
X105275000Y35570000D02*
X104092000Y35570000D01*
X108514000Y35530000D02*
X107355000Y35530000D01*
X105275000Y35530000D02*
X104116000Y35530000D01*
X108490000Y35490000D02*
X107355000Y35490000D01*
X105275000Y35490000D02*
X104140000Y35490000D01*
X108464000Y35450000D02*
X107355000Y35450000D01*
X105275000Y35450000D02*
X104166000Y35450000D01*
X108437000Y35410000D02*
X107355000Y35410000D01*
X105275000Y35410000D02*
X104193000Y35410000D01*
X108409000Y35370000D02*
X107355000Y35370000D01*
X105275000Y35370000D02*
X104221000Y35370000D01*
X108380000Y35330000D02*
X107355000Y35330000D01*
X105275000Y35330000D02*
X104250000Y35330000D01*
X108350000Y35290000D02*
X107355000Y35290000D01*
X105275000Y35290000D02*
X104280000Y35290000D01*
X108318000Y35250000D02*
X107355000Y35250000D01*
X105275000Y35250000D02*
X104312000Y35250000D01*
X108285000Y35210000D02*
X107355000Y35210000D01*
X105275000Y35210000D02*
X104345000Y35210000D01*
X108251000Y35170000D02*
X107355000Y35170000D01*
X105275000Y35170000D02*
X104379000Y35170000D01*
X108216000Y35130000D02*
X107355000Y35130000D01*
X105275000Y35130000D02*
X104414000Y35130000D01*
X108179000Y35090000D02*
X107355000Y35090000D01*
X105275000Y35090000D02*
X104451000Y35090000D01*
X108140000Y35050000D02*
X107355000Y35050000D01*
X105275000Y35050000D02*
X104490000Y35050000D01*
X108100000Y35010000D02*
X107355000Y35010000D01*
X105275000Y35010000D02*
X104530000Y35010000D01*
X108058000Y34970000D02*
X107355000Y34970000D01*
X105275000Y34970000D02*
X104572000Y34970000D01*
X108014000Y34930000D02*
X107355000Y34930000D01*
X105275000Y34930000D02*
X104616000Y34930000D01*
X107967000Y34890000D02*
X107355000Y34890000D01*
X105275000Y34890000D02*
X104663000Y34890000D01*
X107919000Y34850000D02*
X107355000Y34850000D01*
X105275000Y34850000D02*
X104711000Y34850000D01*
X107868000Y34810000D02*
X107355000Y34810000D01*
X105275000Y34810000D02*
X104762000Y34810000D01*
X107814000Y34770000D02*
X107355000Y34770000D01*
X105275000Y34770000D02*
X104816000Y34770000D01*
X107758000Y34730000D02*
X107355000Y34730000D01*
X105275000Y34730000D02*
X104872000Y34730000D01*
X107698000Y34690000D02*
X107355000Y34690000D01*
X105275000Y34690000D02*
X104932000Y34690000D01*
X107634000Y34650000D02*
X107355000Y34650000D01*
X105275000Y34650000D02*
X104996000Y34650000D01*
X107566000Y34610000D02*
X107355000Y34610000D01*
X105275000Y34610000D02*
X105064000Y34610000D01*
X107492000Y34570000D02*
X105138000Y34570000D01*
X107413000Y34530000D02*
X105217000Y34530000D01*
X107326000Y34490000D02*
X105304000Y34490000D01*
X107229000Y34450000D02*
X105401000Y34450000D01*
X107120000Y34410000D02*
X105510000Y34410000D01*
X106992000Y34370000D02*
X105638000Y34370000D01*
X106832000Y34330000D02*
X105798000Y34330000D01*
X106598000Y34290000D02*
X106032000Y34290000D01*
X108935000Y36890000D02*
G75*
G02*
X103695000Y36890000I-2620000J0D01*
G01*
X103695000Y36890000D02*
G75*
G02*
X108935000Y36890000I2620000J0D01*
G01*
%TO.C,220UF1*%
X123080000Y82235000D02*
X123080000Y83765000D01*
X124920000Y82235000D02*
X124920000Y83765000D01*
%TO.C,R2*%
X50040000Y48250000D02*
X49270000Y48250000D01*
X49270000Y46880000D02*
X49270000Y49620000D01*
X49270000Y49620000D02*
X42730000Y49620000D01*
X42730000Y46880000D02*
X49270000Y46880000D01*
X42730000Y49620000D02*
X42730000Y46880000D01*
X41960000Y48250000D02*
X42730000Y48250000D01*
%TO.C,R3*%
X50040000Y43250000D02*
X49270000Y43250000D01*
X49270000Y41880000D02*
X49270000Y44620000D01*
X49270000Y44620000D02*
X42730000Y44620000D01*
X42730000Y41880000D02*
X49270000Y41880000D01*
X42730000Y44620000D02*
X42730000Y41880000D01*
X41960000Y43250000D02*
X42730000Y43250000D01*
%TO.C,R4*%
X50540000Y38250000D02*
X49770000Y38250000D01*
X49770000Y36880000D02*
X49770000Y39620000D01*
X49770000Y39620000D02*
X43230000Y39620000D01*
X43230000Y36880000D02*
X49770000Y36880000D01*
X43230000Y39620000D02*
X43230000Y36880000D01*
X42460000Y38250000D02*
X43230000Y38250000D01*
%TO.C,R5*%
X50790000Y33250000D02*
X50020000Y33250000D01*
X50020000Y31880000D02*
X50020000Y34620000D01*
X50020000Y34620000D02*
X43480000Y34620000D01*
X43480000Y31880000D02*
X50020000Y31880000D01*
X43480000Y34620000D02*
X43480000Y31880000D01*
X42710000Y33250000D02*
X43480000Y33250000D01*
%TO.C,R6*%
X50540000Y67500000D02*
X49770000Y67500000D01*
X49770000Y66130000D02*
X49770000Y68870000D01*
X49770000Y68870000D02*
X43230000Y68870000D01*
X43230000Y66130000D02*
X49770000Y66130000D01*
X43230000Y68870000D02*
X43230000Y66130000D01*
X42460000Y67500000D02*
X43230000Y67500000D01*
%TO.C,J3*%
X120480000Y97580000D02*
X115340000Y97580000D01*
X120480000Y97580000D02*
X120480000Y94920000D01*
X115340000Y97580000D02*
X115340000Y94920000D01*
X123080000Y96250000D02*
X123080000Y94920000D01*
X123080000Y94920000D02*
X121750000Y94920000D01*
X120480000Y94920000D02*
X115340000Y94920000D01*
%TO.C,J4*%
X117500000Y12890000D02*
X116500000Y12890000D01*
X116500000Y12890000D02*
X117000000Y11890000D01*
X117000000Y11890000D02*
X117500000Y12890000D01*
X122210000Y11500000D02*
X122210000Y2380000D01*
X113970000Y11500000D02*
X113970000Y10190000D01*
X101630000Y11500000D02*
X122210000Y11500000D01*
X120910000Y10190000D02*
X120910000Y3690000D01*
X113970000Y10190000D02*
X120910000Y10190000D01*
X109870000Y10190000D02*
X109870000Y11500000D01*
X109870000Y10190000D02*
X109870000Y10190000D01*
X102930000Y10190000D02*
X109870000Y10190000D01*
X120910000Y3690000D02*
X102930000Y3690000D01*
X102930000Y3690000D02*
X102930000Y10190000D01*
X122210000Y2380000D02*
X101630000Y2380000D01*
X101630000Y2380000D02*
X101630000Y11500000D01*
%TO.C,C4*%
X71240113Y42975000D02*
X71740113Y42975000D01*
X71490113Y43225000D02*
X71490113Y42725000D01*
X74044888Y44080000D02*
X74044888Y38920000D01*
X74084888Y44080000D02*
X74084888Y38920000D01*
X74124888Y44079000D02*
X74124888Y38921000D01*
X74164888Y44077000D02*
X74164888Y38923000D01*
X74204888Y44075000D02*
X74204888Y38925000D01*
X74244888Y44072000D02*
X74244888Y38928000D01*
X74284888Y44069000D02*
X74284888Y42540000D01*
X74284888Y40460000D02*
X74284888Y38931000D01*
X74324888Y44065000D02*
X74324888Y42540000D01*
X74324888Y40460000D02*
X74324888Y38935000D01*
X74364888Y44060000D02*
X74364888Y42540000D01*
X74364888Y40460000D02*
X74364888Y38940000D01*
X74404888Y44055000D02*
X74404888Y42540000D01*
X74404888Y40460000D02*
X74404888Y38945000D01*
X74444888Y44049000D02*
X74444888Y42540000D01*
X74444888Y40460000D02*
X74444888Y38951000D01*
X74484888Y44043000D02*
X74484888Y42540000D01*
X74484888Y40460000D02*
X74484888Y38957000D01*
X74524888Y44036000D02*
X74524888Y42540000D01*
X74524888Y40460000D02*
X74524888Y38964000D01*
X74564888Y44028000D02*
X74564888Y42540000D01*
X74564888Y40460000D02*
X74564888Y38972000D01*
X74604888Y44019000D02*
X74604888Y42540000D01*
X74604888Y40460000D02*
X74604888Y38981000D01*
X74644888Y44010000D02*
X74644888Y42540000D01*
X74644888Y40460000D02*
X74644888Y38990000D01*
X74684888Y44001000D02*
X74684888Y42540000D01*
X74684888Y40460000D02*
X74684888Y38999000D01*
X74724888Y43990000D02*
X74724888Y42540000D01*
X74724888Y40460000D02*
X74724888Y39010000D01*
X74764888Y43979000D02*
X74764888Y42540000D01*
X74764888Y40460000D02*
X74764888Y39021000D01*
X74804888Y43967000D02*
X74804888Y42540000D01*
X74804888Y40460000D02*
X74804888Y39033000D01*
X74844888Y43955000D02*
X74844888Y42540000D01*
X74844888Y40460000D02*
X74844888Y39045000D01*
X74884888Y43942000D02*
X74884888Y42540000D01*
X74884888Y40460000D02*
X74884888Y39058000D01*
X74924888Y43928000D02*
X74924888Y42540000D01*
X74924888Y40460000D02*
X74924888Y39072000D01*
X74964888Y43913000D02*
X74964888Y42540000D01*
X74964888Y40460000D02*
X74964888Y39087000D01*
X75004888Y43898000D02*
X75004888Y42540000D01*
X75004888Y40460000D02*
X75004888Y39102000D01*
X75044888Y43882000D02*
X75044888Y42540000D01*
X75044888Y40460000D02*
X75044888Y39118000D01*
X75084888Y43865000D02*
X75084888Y42540000D01*
X75084888Y40460000D02*
X75084888Y39135000D01*
X75124888Y43847000D02*
X75124888Y42540000D01*
X75124888Y40460000D02*
X75124888Y39153000D01*
X75164888Y43829000D02*
X75164888Y42540000D01*
X75164888Y40460000D02*
X75164888Y39171000D01*
X75204888Y43809000D02*
X75204888Y42540000D01*
X75204888Y40460000D02*
X75204888Y39191000D01*
X75244888Y43789000D02*
X75244888Y42540000D01*
X75244888Y40460000D02*
X75244888Y39211000D01*
X75284888Y43768000D02*
X75284888Y42540000D01*
X75284888Y40460000D02*
X75284888Y39232000D01*
X75324888Y43746000D02*
X75324888Y42540000D01*
X75324888Y40460000D02*
X75324888Y39254000D01*
X75364888Y43723000D02*
X75364888Y42540000D01*
X75364888Y40460000D02*
X75364888Y39277000D01*
X75404888Y43699000D02*
X75404888Y42540000D01*
X75404888Y40460000D02*
X75404888Y39301000D01*
X75444888Y43675000D02*
X75444888Y42540000D01*
X75444888Y40460000D02*
X75444888Y39325000D01*
X75484888Y43649000D02*
X75484888Y42540000D01*
X75484888Y40460000D02*
X75484888Y39351000D01*
X75524888Y43622000D02*
X75524888Y42540000D01*
X75524888Y40460000D02*
X75524888Y39378000D01*
X75564888Y43594000D02*
X75564888Y42540000D01*
X75564888Y40460000D02*
X75564888Y39406000D01*
X75604888Y43565000D02*
X75604888Y42540000D01*
X75604888Y40460000D02*
X75604888Y39435000D01*
X75644888Y43535000D02*
X75644888Y42540000D01*
X75644888Y40460000D02*
X75644888Y39465000D01*
X75684888Y43503000D02*
X75684888Y42540000D01*
X75684888Y40460000D02*
X75684888Y39497000D01*
X75724888Y43470000D02*
X75724888Y42540000D01*
X75724888Y40460000D02*
X75724888Y39530000D01*
X75764888Y43436000D02*
X75764888Y42540000D01*
X75764888Y40460000D02*
X75764888Y39564000D01*
X75804888Y43401000D02*
X75804888Y42540000D01*
X75804888Y40460000D02*
X75804888Y39599000D01*
X75844888Y43364000D02*
X75844888Y42540000D01*
X75844888Y40460000D02*
X75844888Y39636000D01*
X75884888Y43325000D02*
X75884888Y42540000D01*
X75884888Y40460000D02*
X75884888Y39675000D01*
X75924888Y43285000D02*
X75924888Y42540000D01*
X75924888Y40460000D02*
X75924888Y39715000D01*
X75964888Y43243000D02*
X75964888Y42540000D01*
X75964888Y40460000D02*
X75964888Y39757000D01*
X76004888Y43199000D02*
X76004888Y42540000D01*
X76004888Y40460000D02*
X76004888Y39801000D01*
X76044888Y43152000D02*
X76044888Y42540000D01*
X76044888Y40460000D02*
X76044888Y39848000D01*
X76084888Y43104000D02*
X76084888Y42540000D01*
X76084888Y40460000D02*
X76084888Y39896000D01*
X76124888Y43053000D02*
X76124888Y42540000D01*
X76124888Y40460000D02*
X76124888Y39947000D01*
X76164888Y42999000D02*
X76164888Y42540000D01*
X76164888Y40460000D02*
X76164888Y40001000D01*
X76204888Y42943000D02*
X76204888Y42540000D01*
X76204888Y40460000D02*
X76204888Y40057000D01*
X76244888Y42883000D02*
X76244888Y42540000D01*
X76244888Y40460000D02*
X76244888Y40117000D01*
X76284888Y42819000D02*
X76284888Y42540000D01*
X76284888Y40460000D02*
X76284888Y40181000D01*
X76324888Y42751000D02*
X76324888Y42540000D01*
X76324888Y40460000D02*
X76324888Y40249000D01*
X76364888Y42677000D02*
X76364888Y40323000D01*
X76404888Y42598000D02*
X76404888Y40402000D01*
X76444888Y42511000D02*
X76444888Y40489000D01*
X76484888Y42414000D02*
X76484888Y40586000D01*
X76524888Y42305000D02*
X76524888Y40695000D01*
X76564888Y42177000D02*
X76564888Y40823000D01*
X76604888Y42017000D02*
X76604888Y40983000D01*
X76644888Y41783000D02*
X76644888Y41217000D01*
X76664888Y41500000D02*
G75*
G02*
X71424888Y41500000I-2620000J0D01*
G01*
X71424888Y41500000D02*
G75*
G02*
X76664888Y41500000I2620000J0D01*
G01*
%TO.C,J6*%
X29080000Y48250000D02*
X28470000Y47810000D01*
X28470000Y48690000D01*
X29080000Y48250000D01*
G36*
X29080000Y48250000D02*
G01*
X28470000Y47810000D01*
X28470000Y48690000D01*
X29080000Y48250000D01*
G37*
X37120000Y30630000D02*
X29080000Y30630000D01*
X32500000Y31438000D02*
X32500000Y30630000D01*
X33500000Y31438000D02*
X33500000Y30630000D01*
X31200000Y32707000D02*
X31200000Y30630000D01*
X32500000Y36438000D02*
X32500000Y35062000D01*
X33500000Y36438000D02*
X33500000Y35062000D01*
X31200000Y37707000D02*
X31200000Y33793000D01*
X32500000Y41438000D02*
X32500000Y40062000D01*
X33500000Y41438000D02*
X33500000Y40062000D01*
X31200000Y42707000D02*
X31200000Y38793000D01*
X31200000Y46370000D02*
X31200000Y43793000D01*
X32500000Y46370000D02*
X32500000Y45062000D01*
X33500000Y46370000D02*
X33500000Y45062000D01*
X29080000Y47950000D02*
X29080000Y30630000D01*
X29080000Y51370000D02*
X29080000Y48550000D01*
X31200000Y51370000D02*
X31200000Y50130000D01*
X32500000Y51370000D02*
X32500000Y50130000D01*
X33500000Y51370000D02*
X33500000Y50130000D01*
X37120000Y51370000D02*
X37120000Y30630000D01*
X37120000Y51370000D02*
X29080000Y51370000D01*
%TO.C,C2*%
X65074888Y36165000D02*
X64574888Y36165000D01*
X64824888Y35915000D02*
X64824888Y36415000D01*
X62270113Y35060000D02*
X62270113Y40220000D01*
X62230113Y35060000D02*
X62230113Y40220000D01*
X62190113Y35061000D02*
X62190113Y40219000D01*
X62150113Y35063000D02*
X62150113Y40217000D01*
X62110113Y35065000D02*
X62110113Y40215000D01*
X62070113Y35068000D02*
X62070113Y40212000D01*
X62030113Y35071000D02*
X62030113Y36600000D01*
X62030113Y38680000D02*
X62030113Y40209000D01*
X61990113Y35075000D02*
X61990113Y36600000D01*
X61990113Y38680000D02*
X61990113Y40205000D01*
X61950113Y35080000D02*
X61950113Y36600000D01*
X61950113Y38680000D02*
X61950113Y40200000D01*
X61910113Y35085000D02*
X61910113Y36600000D01*
X61910113Y38680000D02*
X61910113Y40195000D01*
X61870113Y35091000D02*
X61870113Y36600000D01*
X61870113Y38680000D02*
X61870113Y40189000D01*
X61830113Y35097000D02*
X61830113Y36600000D01*
X61830113Y38680000D02*
X61830113Y40183000D01*
X61790113Y35104000D02*
X61790113Y36600000D01*
X61790113Y38680000D02*
X61790113Y40176000D01*
X61750113Y35112000D02*
X61750113Y36600000D01*
X61750113Y38680000D02*
X61750113Y40168000D01*
X61710113Y35121000D02*
X61710113Y36600000D01*
X61710113Y38680000D02*
X61710113Y40159000D01*
X61670113Y35130000D02*
X61670113Y36600000D01*
X61670113Y38680000D02*
X61670113Y40150000D01*
X61630113Y35139000D02*
X61630113Y36600000D01*
X61630113Y38680000D02*
X61630113Y40141000D01*
X61590113Y35150000D02*
X61590113Y36600000D01*
X61590113Y38680000D02*
X61590113Y40130000D01*
X61550113Y35161000D02*
X61550113Y36600000D01*
X61550113Y38680000D02*
X61550113Y40119000D01*
X61510113Y35173000D02*
X61510113Y36600000D01*
X61510113Y38680000D02*
X61510113Y40107000D01*
X61470113Y35185000D02*
X61470113Y36600000D01*
X61470113Y38680000D02*
X61470113Y40095000D01*
X61430113Y35198000D02*
X61430113Y36600000D01*
X61430113Y38680000D02*
X61430113Y40082000D01*
X61390113Y35212000D02*
X61390113Y36600000D01*
X61390113Y38680000D02*
X61390113Y40068000D01*
X61350113Y35227000D02*
X61350113Y36600000D01*
X61350113Y38680000D02*
X61350113Y40053000D01*
X61310113Y35242000D02*
X61310113Y36600000D01*
X61310113Y38680000D02*
X61310113Y40038000D01*
X61270113Y35258000D02*
X61270113Y36600000D01*
X61270113Y38680000D02*
X61270113Y40022000D01*
X61230113Y35275000D02*
X61230113Y36600000D01*
X61230113Y38680000D02*
X61230113Y40005000D01*
X61190113Y35293000D02*
X61190113Y36600000D01*
X61190113Y38680000D02*
X61190113Y39987000D01*
X61150113Y35311000D02*
X61150113Y36600000D01*
X61150113Y38680000D02*
X61150113Y39969000D01*
X61110113Y35331000D02*
X61110113Y36600000D01*
X61110113Y38680000D02*
X61110113Y39949000D01*
X61070113Y35351000D02*
X61070113Y36600000D01*
X61070113Y38680000D02*
X61070113Y39929000D01*
X61030113Y35372000D02*
X61030113Y36600000D01*
X61030113Y38680000D02*
X61030113Y39908000D01*
X60990113Y35394000D02*
X60990113Y36600000D01*
X60990113Y38680000D02*
X60990113Y39886000D01*
X60950113Y35417000D02*
X60950113Y36600000D01*
X60950113Y38680000D02*
X60950113Y39863000D01*
X60910113Y35441000D02*
X60910113Y36600000D01*
X60910113Y38680000D02*
X60910113Y39839000D01*
X60870113Y35465000D02*
X60870113Y36600000D01*
X60870113Y38680000D02*
X60870113Y39815000D01*
X60830113Y35491000D02*
X60830113Y36600000D01*
X60830113Y38680000D02*
X60830113Y39789000D01*
X60790113Y35518000D02*
X60790113Y36600000D01*
X60790113Y38680000D02*
X60790113Y39762000D01*
X60750113Y35546000D02*
X60750113Y36600000D01*
X60750113Y38680000D02*
X60750113Y39734000D01*
X60710113Y35575000D02*
X60710113Y36600000D01*
X60710113Y38680000D02*
X60710113Y39705000D01*
X60670113Y35605000D02*
X60670113Y36600000D01*
X60670113Y38680000D02*
X60670113Y39675000D01*
X60630113Y35637000D02*
X60630113Y36600000D01*
X60630113Y38680000D02*
X60630113Y39643000D01*
X60590113Y35670000D02*
X60590113Y36600000D01*
X60590113Y38680000D02*
X60590113Y39610000D01*
X60550113Y35704000D02*
X60550113Y36600000D01*
X60550113Y38680000D02*
X60550113Y39576000D01*
X60510113Y35739000D02*
X60510113Y36600000D01*
X60510113Y38680000D02*
X60510113Y39541000D01*
X60470113Y35776000D02*
X60470113Y36600000D01*
X60470113Y38680000D02*
X60470113Y39504000D01*
X60430113Y35815000D02*
X60430113Y36600000D01*
X60430113Y38680000D02*
X60430113Y39465000D01*
X60390113Y35855000D02*
X60390113Y36600000D01*
X60390113Y38680000D02*
X60390113Y39425000D01*
X60350113Y35897000D02*
X60350113Y36600000D01*
X60350113Y38680000D02*
X60350113Y39383000D01*
X60310113Y35941000D02*
X60310113Y36600000D01*
X60310113Y38680000D02*
X60310113Y39339000D01*
X60270113Y35988000D02*
X60270113Y36600000D01*
X60270113Y38680000D02*
X60270113Y39292000D01*
X60230113Y36036000D02*
X60230113Y36600000D01*
X60230113Y38680000D02*
X60230113Y39244000D01*
X60190113Y36087000D02*
X60190113Y36600000D01*
X60190113Y38680000D02*
X60190113Y39193000D01*
X60150113Y36141000D02*
X60150113Y36600000D01*
X60150113Y38680000D02*
X60150113Y39139000D01*
X60110113Y36197000D02*
X60110113Y36600000D01*
X60110113Y38680000D02*
X60110113Y39083000D01*
X60070113Y36257000D02*
X60070113Y36600000D01*
X60070113Y38680000D02*
X60070113Y39023000D01*
X60030113Y36321000D02*
X60030113Y36600000D01*
X60030113Y38680000D02*
X60030113Y38959000D01*
X59990113Y36389000D02*
X59990113Y36600000D01*
X59990113Y38680000D02*
X59990113Y38891000D01*
X59950113Y36463000D02*
X59950113Y38817000D01*
X59910113Y36542000D02*
X59910113Y38738000D01*
X59870113Y36629000D02*
X59870113Y38651000D01*
X59830113Y36726000D02*
X59830113Y38554000D01*
X59790113Y36835000D02*
X59790113Y38445000D01*
X59750113Y36963000D02*
X59750113Y38317000D01*
X59710113Y37123000D02*
X59710113Y38157000D01*
X59670113Y37357000D02*
X59670113Y37923000D01*
X64890113Y37640000D02*
G75*
G02*
X59650113Y37640000I-2620000J0D01*
G01*
X59650113Y37640000D02*
G75*
G02*
X64890113Y37640000I2620000J0D01*
G01*
%TO.C,R7*%
X50540000Y62750000D02*
X49770000Y62750000D01*
X49770000Y61380000D02*
X49770000Y64120000D01*
X49770000Y64120000D02*
X43230000Y64120000D01*
X43230000Y61380000D02*
X49770000Y61380000D01*
X43230000Y64120000D02*
X43230000Y61380000D01*
X42460000Y62750000D02*
X43230000Y62750000D01*
%TO.C,R14*%
X23040000Y57250000D02*
X22270000Y57250000D01*
X22270000Y55880000D02*
X22270000Y58620000D01*
X22270000Y58620000D02*
X15730000Y58620000D01*
X15730000Y55880000D02*
X22270000Y55880000D01*
X15730000Y58620000D02*
X15730000Y55880000D01*
X14960000Y57250000D02*
X15730000Y57250000D01*
%TO.C,R15*%
X23040000Y62250000D02*
X22270000Y62250000D01*
X22270000Y60880000D02*
X22270000Y63620000D01*
X22270000Y63620000D02*
X15730000Y63620000D01*
X15730000Y60880000D02*
X22270000Y60880000D01*
X15730000Y63620000D02*
X15730000Y60880000D01*
X14960000Y62250000D02*
X15730000Y62250000D01*
%TO.C,R16*%
X23040000Y67250000D02*
X22270000Y67250000D01*
X22270000Y65880000D02*
X22270000Y68620000D01*
X22270000Y68620000D02*
X15730000Y68620000D01*
X15730000Y65880000D02*
X22270000Y65880000D01*
X15730000Y68620000D02*
X15730000Y65880000D01*
X14960000Y67250000D02*
X15730000Y67250000D01*
%TO.C,R17*%
X23540000Y33750000D02*
X22770000Y33750000D01*
X22770000Y32380000D02*
X22770000Y35120000D01*
X22770000Y35120000D02*
X16230000Y35120000D01*
X16230000Y32380000D02*
X22770000Y32380000D01*
X16230000Y35120000D02*
X16230000Y32380000D01*
X15460000Y33750000D02*
X16230000Y33750000D01*
%TO.C,R18*%
X23540000Y38250000D02*
X22770000Y38250000D01*
X22770000Y36880000D02*
X22770000Y39620000D01*
X22770000Y39620000D02*
X16230000Y39620000D01*
X16230000Y36880000D02*
X22770000Y36880000D01*
X16230000Y39620000D02*
X16230000Y36880000D01*
X15460000Y38250000D02*
X16230000Y38250000D01*
%TO.C,R19*%
X23540000Y43250000D02*
X22770000Y43250000D01*
X22770000Y41880000D02*
X22770000Y44620000D01*
X22770000Y44620000D02*
X16230000Y44620000D01*
X16230000Y41880000D02*
X22770000Y41880000D01*
X16230000Y44620000D02*
X16230000Y41880000D01*
X15460000Y43250000D02*
X16230000Y43250000D01*
%TO.C,R20*%
X23540000Y48250000D02*
X22770000Y48250000D01*
X22770000Y46880000D02*
X22770000Y49620000D01*
X22770000Y49620000D02*
X16230000Y49620000D01*
X16230000Y46880000D02*
X22770000Y46880000D01*
X16230000Y49620000D02*
X16230000Y46880000D01*
X15460000Y48250000D02*
X16230000Y48250000D01*
%TO.C,R21*%
X77875000Y70165000D02*
X77875000Y70935000D01*
X76505000Y70935000D02*
X79245000Y70935000D01*
X79245000Y70935000D02*
X79245000Y77475000D01*
X76505000Y77475000D02*
X76505000Y70935000D01*
X79245000Y77475000D02*
X76505000Y77475000D01*
X77875000Y78245000D02*
X77875000Y77475000D01*
%TO.C,R22*%
X83875000Y70085000D02*
X83875000Y70855000D01*
X82505000Y70855000D02*
X85245000Y70855000D01*
X85245000Y70855000D02*
X85245000Y77395000D01*
X82505000Y77395000D02*
X82505000Y70855000D01*
X85245000Y77395000D02*
X82505000Y77395000D01*
X83875000Y78165000D02*
X83875000Y77395000D01*
%TO.C,R24*%
X98000000Y85540000D02*
X98000000Y84770000D01*
X99370000Y84770000D02*
X96630000Y84770000D01*
X96630000Y84770000D02*
X96630000Y78230000D01*
X99370000Y78230000D02*
X99370000Y84770000D01*
X96630000Y78230000D02*
X99370000Y78230000D01*
X98000000Y77460000D02*
X98000000Y78230000D01*
%TO.C,U1*%
X91005000Y55590000D02*
G75*
G02*
X89005000Y55590000I-1000000J0D01*
G01*
X92655000Y19910000D02*
X92655000Y55590000D01*
X92655000Y55590000D02*
X91005000Y55590000D01*
X89005000Y55590000D02*
X87355000Y55590000D01*
X87355000Y19910000D02*
X92655000Y19910000D01*
X87355000Y55590000D02*
X87355000Y19910000D01*
%TO.C,Y1*%
X72115000Y31140000D02*
X72115000Y34140000D01*
X75515000Y31140000D02*
X75515000Y34140000D01*
X72766039Y29802210D02*
G75*
G02*
X72115000Y31140000I1048957J1337788D01*
G01*
X75515000Y31140000D02*
G75*
G02*
X74863961Y29802210I-1700000J0D01*
G01*
X72115000Y34140000D02*
G75*
G02*
X72766039Y35477790I1700000J0D01*
G01*
X74863961Y35477790D02*
G75*
G02*
X75515000Y34140000I-1048961J-1337790D01*
G01*
%TO.C,C5*%
X106804775Y42025000D02*
X106304775Y42025000D01*
X106554775Y41775000D02*
X106554775Y42275000D01*
X104000000Y40920000D02*
X104000000Y46080000D01*
X103960000Y40920000D02*
X103960000Y46080000D01*
X103920000Y40921000D02*
X103920000Y46079000D01*
X103880000Y40923000D02*
X103880000Y46077000D01*
X103840000Y40925000D02*
X103840000Y46075000D01*
X103800000Y40928000D02*
X103800000Y46072000D01*
X103760000Y40931000D02*
X103760000Y42460000D01*
X103760000Y44540000D02*
X103760000Y46069000D01*
X103720000Y40935000D02*
X103720000Y42460000D01*
X103720000Y44540000D02*
X103720000Y46065000D01*
X103680000Y40940000D02*
X103680000Y42460000D01*
X103680000Y44540000D02*
X103680000Y46060000D01*
X103640000Y40945000D02*
X103640000Y42460000D01*
X103640000Y44540000D02*
X103640000Y46055000D01*
X103600000Y40951000D02*
X103600000Y42460000D01*
X103600000Y44540000D02*
X103600000Y46049000D01*
X103560000Y40957000D02*
X103560000Y42460000D01*
X103560000Y44540000D02*
X103560000Y46043000D01*
X103520000Y40964000D02*
X103520000Y42460000D01*
X103520000Y44540000D02*
X103520000Y46036000D01*
X103480000Y40972000D02*
X103480000Y42460000D01*
X103480000Y44540000D02*
X103480000Y46028000D01*
X103440000Y40981000D02*
X103440000Y42460000D01*
X103440000Y44540000D02*
X103440000Y46019000D01*
X103400000Y40990000D02*
X103400000Y42460000D01*
X103400000Y44540000D02*
X103400000Y46010000D01*
X103360000Y40999000D02*
X103360000Y42460000D01*
X103360000Y44540000D02*
X103360000Y46001000D01*
X103320000Y41010000D02*
X103320000Y42460000D01*
X103320000Y44540000D02*
X103320000Y45990000D01*
X103280000Y41021000D02*
X103280000Y42460000D01*
X103280000Y44540000D02*
X103280000Y45979000D01*
X103240000Y41033000D02*
X103240000Y42460000D01*
X103240000Y44540000D02*
X103240000Y45967000D01*
X103200000Y41045000D02*
X103200000Y42460000D01*
X103200000Y44540000D02*
X103200000Y45955000D01*
X103160000Y41058000D02*
X103160000Y42460000D01*
X103160000Y44540000D02*
X103160000Y45942000D01*
X103120000Y41072000D02*
X103120000Y42460000D01*
X103120000Y44540000D02*
X103120000Y45928000D01*
X103080000Y41087000D02*
X103080000Y42460000D01*
X103080000Y44540000D02*
X103080000Y45913000D01*
X103040000Y41102000D02*
X103040000Y42460000D01*
X103040000Y44540000D02*
X103040000Y45898000D01*
X103000000Y41118000D02*
X103000000Y42460000D01*
X103000000Y44540000D02*
X103000000Y45882000D01*
X102960000Y41135000D02*
X102960000Y42460000D01*
X102960000Y44540000D02*
X102960000Y45865000D01*
X102920000Y41153000D02*
X102920000Y42460000D01*
X102920000Y44540000D02*
X102920000Y45847000D01*
X102880000Y41171000D02*
X102880000Y42460000D01*
X102880000Y44540000D02*
X102880000Y45829000D01*
X102840000Y41191000D02*
X102840000Y42460000D01*
X102840000Y44540000D02*
X102840000Y45809000D01*
X102800000Y41211000D02*
X102800000Y42460000D01*
X102800000Y44540000D02*
X102800000Y45789000D01*
X102760000Y41232000D02*
X102760000Y42460000D01*
X102760000Y44540000D02*
X102760000Y45768000D01*
X102720000Y41254000D02*
X102720000Y42460000D01*
X102720000Y44540000D02*
X102720000Y45746000D01*
X102680000Y41277000D02*
X102680000Y42460000D01*
X102680000Y44540000D02*
X102680000Y45723000D01*
X102640000Y41301000D02*
X102640000Y42460000D01*
X102640000Y44540000D02*
X102640000Y45699000D01*
X102600000Y41325000D02*
X102600000Y42460000D01*
X102600000Y44540000D02*
X102600000Y45675000D01*
X102560000Y41351000D02*
X102560000Y42460000D01*
X102560000Y44540000D02*
X102560000Y45649000D01*
X102520000Y41378000D02*
X102520000Y42460000D01*
X102520000Y44540000D02*
X102520000Y45622000D01*
X102480000Y41406000D02*
X102480000Y42460000D01*
X102480000Y44540000D02*
X102480000Y45594000D01*
X102440000Y41435000D02*
X102440000Y42460000D01*
X102440000Y44540000D02*
X102440000Y45565000D01*
X102400000Y41465000D02*
X102400000Y42460000D01*
X102400000Y44540000D02*
X102400000Y45535000D01*
X102360000Y41497000D02*
X102360000Y42460000D01*
X102360000Y44540000D02*
X102360000Y45503000D01*
X102320000Y41530000D02*
X102320000Y42460000D01*
X102320000Y44540000D02*
X102320000Y45470000D01*
X102280000Y41564000D02*
X102280000Y42460000D01*
X102280000Y44540000D02*
X102280000Y45436000D01*
X102240000Y41599000D02*
X102240000Y42460000D01*
X102240000Y44540000D02*
X102240000Y45401000D01*
X102200000Y41636000D02*
X102200000Y42460000D01*
X102200000Y44540000D02*
X102200000Y45364000D01*
X102160000Y41675000D02*
X102160000Y42460000D01*
X102160000Y44540000D02*
X102160000Y45325000D01*
X102120000Y41715000D02*
X102120000Y42460000D01*
X102120000Y44540000D02*
X102120000Y45285000D01*
X102080000Y41757000D02*
X102080000Y42460000D01*
X102080000Y44540000D02*
X102080000Y45243000D01*
X102040000Y41801000D02*
X102040000Y42460000D01*
X102040000Y44540000D02*
X102040000Y45199000D01*
X102000000Y41848000D02*
X102000000Y42460000D01*
X102000000Y44540000D02*
X102000000Y45152000D01*
X101960000Y41896000D02*
X101960000Y42460000D01*
X101960000Y44540000D02*
X101960000Y45104000D01*
X101920000Y41947000D02*
X101920000Y42460000D01*
X101920000Y44540000D02*
X101920000Y45053000D01*
X101880000Y42001000D02*
X101880000Y42460000D01*
X101880000Y44540000D02*
X101880000Y44999000D01*
X101840000Y42057000D02*
X101840000Y42460000D01*
X101840000Y44540000D02*
X101840000Y44943000D01*
X101800000Y42117000D02*
X101800000Y42460000D01*
X101800000Y44540000D02*
X101800000Y44883000D01*
X101760000Y42181000D02*
X101760000Y42460000D01*
X101760000Y44540000D02*
X101760000Y44819000D01*
X101720000Y42249000D02*
X101720000Y42460000D01*
X101720000Y44540000D02*
X101720000Y44751000D01*
X101680000Y42323000D02*
X101680000Y44677000D01*
X101640000Y42402000D02*
X101640000Y44598000D01*
X101600000Y42489000D02*
X101600000Y44511000D01*
X101560000Y42586000D02*
X101560000Y44414000D01*
X101520000Y42695000D02*
X101520000Y44305000D01*
X101480000Y42823000D02*
X101480000Y44177000D01*
X101440000Y42983000D02*
X101440000Y44017000D01*
X101400000Y43217000D02*
X101400000Y43783000D01*
X106620000Y43500000D02*
G75*
G02*
X101380000Y43500000I-2620000J0D01*
G01*
X101380000Y43500000D02*
G75*
G02*
X106620000Y43500000I2620000J0D01*
G01*
%TO.C,J5*%
X37120000Y70370000D02*
X29080000Y70370000D01*
X37120000Y70370000D02*
X37120000Y54630000D01*
X33500000Y70370000D02*
X33500000Y69130000D01*
X32500000Y70370000D02*
X32500000Y69130000D01*
X31200000Y70370000D02*
X31200000Y69130000D01*
X29080000Y70370000D02*
X29080000Y67550000D01*
X29080000Y66950000D02*
X29080000Y54630000D01*
X33500000Y65370000D02*
X33500000Y64062000D01*
X32500000Y65370000D02*
X32500000Y64062000D01*
X31200000Y65370000D02*
X31200000Y62793000D01*
X31200000Y61707000D02*
X31200000Y57793000D01*
X33500000Y60438000D02*
X33500000Y59062000D01*
X32500000Y60438000D02*
X32500000Y59062000D01*
X31200000Y56707000D02*
X31200000Y54630000D01*
X33500000Y55438000D02*
X33500000Y54630000D01*
X32500000Y55438000D02*
X32500000Y54630000D01*
X37120000Y54630000D02*
X29080000Y54630000D01*
X29080000Y67250000D02*
X28470000Y66810000D01*
X28470000Y67690000D01*
X29080000Y67250000D01*
G36*
X29080000Y67250000D02*
G01*
X28470000Y66810000D01*
X28470000Y67690000D01*
X29080000Y67250000D01*
G37*
%TO.C,J1*%
X111120000Y88630000D02*
X111120000Y96670000D01*
X111120000Y88630000D02*
X95380000Y88630000D01*
X111120000Y92250000D02*
X109880000Y92250000D01*
X111120000Y93250000D02*
X109880000Y93250000D01*
X111120000Y94550000D02*
X109880000Y94550000D01*
X111120000Y96670000D02*
X108300000Y96670000D01*
X107700000Y96670000D02*
X95380000Y96670000D01*
X106120000Y92250000D02*
X104812000Y92250000D01*
X106120000Y93250000D02*
X104812000Y93250000D01*
X106120000Y94550000D02*
X103543000Y94550000D01*
X102457000Y94550000D02*
X98543000Y94550000D01*
X101188000Y92250000D02*
X99812000Y92250000D01*
X101188000Y93250000D02*
X99812000Y93250000D01*
X97457000Y94550000D02*
X95380000Y94550000D01*
X96188000Y92250000D02*
X95380000Y92250000D01*
X96188000Y93250000D02*
X95380000Y93250000D01*
X95380000Y88630000D02*
X95380000Y96670000D01*
X108000000Y96670000D02*
X107560000Y97280000D01*
X108440000Y97280000D01*
X108000000Y96670000D01*
G36*
X108000000Y96670000D02*
G01*
X107560000Y97280000D01*
X108440000Y97280000D01*
X108000000Y96670000D01*
G37*
%TO.C,J8*%
X64755000Y92245000D02*
X64755000Y84205000D01*
X64755000Y92245000D02*
X85495000Y92245000D01*
X64755000Y88625000D02*
X65995000Y88625000D01*
X64755000Y87625000D02*
X65995000Y87625000D01*
X64755000Y86325000D02*
X65995000Y86325000D01*
X64755000Y84205000D02*
X67575000Y84205000D01*
X68175000Y84205000D02*
X85495000Y84205000D01*
X69755000Y88625000D02*
X71063000Y88625000D01*
X69755000Y87625000D02*
X71063000Y87625000D01*
X69755000Y86325000D02*
X72332000Y86325000D01*
X73418000Y86325000D02*
X77332000Y86325000D01*
X74687000Y88625000D02*
X76063000Y88625000D01*
X74687000Y87625000D02*
X76063000Y87625000D01*
X78418000Y86325000D02*
X82332000Y86325000D01*
X79687000Y88625000D02*
X81063000Y88625000D01*
X79687000Y87625000D02*
X81063000Y87625000D01*
X83418000Y86325000D02*
X85495000Y86325000D01*
X84687000Y88625000D02*
X85495000Y88625000D01*
X84687000Y87625000D02*
X85495000Y87625000D01*
X85495000Y92245000D02*
X85495000Y84205000D01*
X68315000Y83595000D02*
X67435000Y83595000D01*
X67875000Y84205000D01*
X68315000Y83595000D01*
G36*
X68315000Y83595000D02*
G01*
X67435000Y83595000D01*
X67875000Y84205000D01*
X68315000Y83595000D01*
G37*
%TO.C,J9*%
X127880000Y34370000D02*
X135920000Y34370000D01*
X127880000Y34370000D02*
X127880000Y55110000D01*
X131500000Y34370000D02*
X131500000Y35610000D01*
X132500000Y34370000D02*
X132500000Y35610000D01*
X133800000Y34370000D02*
X133800000Y35610000D01*
X135920000Y34370000D02*
X135920000Y37190000D01*
X135920000Y37790000D02*
X135920000Y55110000D01*
X131500000Y39370000D02*
X131500000Y40678000D01*
X132500000Y39370000D02*
X132500000Y40678000D01*
X133800000Y39370000D02*
X133800000Y41947000D01*
X133800000Y43033000D02*
X133800000Y46947000D01*
X131500000Y44302000D02*
X131500000Y45678000D01*
X132500000Y44302000D02*
X132500000Y45678000D01*
X133800000Y48033000D02*
X133800000Y51947000D01*
X131500000Y49302000D02*
X131500000Y50678000D01*
X132500000Y49302000D02*
X132500000Y50678000D01*
X133800000Y53033000D02*
X133800000Y55110000D01*
X131500000Y54302000D02*
X131500000Y55110000D01*
X132500000Y54302000D02*
X132500000Y55110000D01*
X127880000Y55110000D02*
X135920000Y55110000D01*
X136530000Y37050000D02*
X135920000Y37490000D01*
X136530000Y37930000D01*
X136530000Y37050000D01*
G36*
X136530000Y37050000D02*
G01*
X135920000Y37490000D01*
X136530000Y37930000D01*
X136530000Y37050000D01*
G37*
%TO.C,J10*%
X127880000Y10370000D02*
X135920000Y10370000D01*
X127880000Y10370000D02*
X127880000Y31110000D01*
X131500000Y10370000D02*
X131500000Y11610000D01*
X132500000Y10370000D02*
X132500000Y11610000D01*
X133800000Y10370000D02*
X133800000Y11610000D01*
X135920000Y10370000D02*
X135920000Y13190000D01*
X135920000Y13790000D02*
X135920000Y31110000D01*
X131500000Y15370000D02*
X131500000Y16678000D01*
X132500000Y15370000D02*
X132500000Y16678000D01*
X133800000Y15370000D02*
X133800000Y17947000D01*
X133800000Y19033000D02*
X133800000Y22947000D01*
X131500000Y20302000D02*
X131500000Y21678000D01*
X132500000Y20302000D02*
X132500000Y21678000D01*
X133800000Y24033000D02*
X133800000Y27947000D01*
X131500000Y25302000D02*
X131500000Y26678000D01*
X132500000Y25302000D02*
X132500000Y26678000D01*
X133800000Y29033000D02*
X133800000Y31110000D01*
X131500000Y30302000D02*
X131500000Y31110000D01*
X132500000Y30302000D02*
X132500000Y31110000D01*
X127880000Y31110000D02*
X135920000Y31110000D01*
X136530000Y13050000D02*
X135920000Y13490000D01*
X136530000Y13930000D01*
X136530000Y13050000D01*
G36*
X136530000Y13050000D02*
G01*
X135920000Y13490000D01*
X136530000Y13930000D01*
X136530000Y13050000D01*
G37*
%TO.C,J11*%
X152550000Y78192500D02*
X137850000Y78192500D01*
X152550000Y87392500D02*
X152550000Y78192500D01*
X143750000Y87392500D02*
X152550000Y87392500D01*
X138700000Y77992500D02*
X137650000Y77992500D01*
X137850000Y78192500D02*
X137850000Y80792500D01*
X137850000Y84692500D02*
X137850000Y87392500D01*
X137850000Y87392500D02*
X139750000Y87392500D01*
X137650000Y79042500D02*
X137650000Y77992500D01*
%TO.C,SW1*%
X129500000Y96250000D02*
X129500000Y94750000D01*
X130750000Y92250000D02*
X135250000Y92250000D01*
X135250000Y98750000D02*
X130750000Y98750000D01*
X136500000Y94750000D02*
X136500000Y96250000D01*
%TD*%
M02*
