%TF.GenerationSoftware,KiCad,Pcbnew,9.0.1*%
%TF.CreationDate,2025-09-08T04:28:44-04:00*%
%TF.ProjectId,SNAKE_GAME,534e414b-455f-4474-914d-452e6b696361,rev?*%
%TF.SameCoordinates,Original*%
%TF.FileFunction,Soldermask,Top*%
%TF.FilePolarity,Negative*%
%FSLAX46Y46*%
G04 Gerber Fmt 4.6, Leading zero omitted, Abs format (unit mm)*
G04 Created by KiCad (PCBNEW 9.0.1) date 2025-09-08 04:28:44*
%MOMM*%
%LPD*%
G01*
G04 APERTURE LIST*
G04 Aperture macros list*
%AMRoundRect*
0 Rectangle with rounded corners*
0 $1 Rounding radius*
0 $2 $3 $4 $5 $6 $7 $8 $9 X,Y pos of 4 corners*
0 Add a 4 corners polygon primitive as box body*
4,1,4,$2,$3,$4,$5,$6,$7,$8,$9,$2,$3,0*
0 Add four circle primitives for the rounded corners*
1,1,$1+$1,$2,$3*
1,1,$1+$1,$4,$5*
1,1,$1+$1,$6,$7*
1,1,$1+$1,$8,$9*
0 Add four rect primitives between the rounded corners*
20,1,$1+$1,$2,$3,$4,$5,0*
20,1,$1+$1,$4,$5,$6,$7,0*
20,1,$1+$1,$6,$7,$8,$9,0*
20,1,$1+$1,$8,$9,$2,$3,0*%
G04 Aperture macros list end*
%ADD10O,1.600000X1.600000*%
%ADD11C,1.600000*%
%ADD12R,1.700000X1.700000*%
%ADD13C,1.700000*%
%ADD14R,1.600000X1.600000*%
%ADD15RoundRect,0.250000X-0.600000X0.600000X-0.600000X-0.600000X0.600000X-0.600000X0.600000X0.600000X0*%
%ADD16C,2.800000*%
%ADD17RoundRect,0.250001X-1.149999X1.149999X-1.149999X-1.149999X1.149999X-1.149999X1.149999X1.149999X0*%
%ADD18RoundRect,0.250000X-0.550000X-0.550000X0.550000X-0.550000X0.550000X0.550000X-0.550000X0.550000X0*%
%ADD19RoundRect,0.250001X1.149999X1.149999X-1.149999X1.149999X-1.149999X-1.149999X1.149999X-1.149999X0*%
%ADD20C,3.200000*%
%ADD21RoundRect,0.250001X-1.149999X-1.149999X1.149999X-1.149999X1.149999X1.149999X-1.149999X1.149999X0*%
%ADD22RoundRect,0.250001X1.149999X-1.149999X1.149999X1.149999X-1.149999X1.149999X-1.149999X-1.149999X0*%
%ADD23R,3.500000X3.500000*%
%ADD24RoundRect,0.750000X0.750000X1.000000X-0.750000X1.000000X-0.750000X-1.000000X0.750000X-1.000000X0*%
%ADD25RoundRect,0.875000X0.875000X0.875000X-0.875000X0.875000X-0.875000X-0.875000X0.875000X-0.875000X0*%
%ADD26C,2.000000*%
G04 APERTURE END LIST*
D10*
%TO.C,R6*%
X32420000Y60000000D03*
D11*
X42580000Y60000000D03*
%TD*%
D12*
%TO.C,J7*%
X116025000Y62050000D03*
D13*
X116025000Y59510000D03*
X116025000Y56970000D03*
X116025000Y54430000D03*
%TD*%
D14*
%TO.C,C3*%
X52815000Y19640000D03*
D11*
X50315000Y19640000D03*
%TD*%
%TO.C,R13*%
X42580000Y49750000D03*
D10*
X32420000Y49750000D03*
%TD*%
D14*
%TO.C,C1*%
X95315000Y30640000D03*
D11*
X95315000Y28140000D03*
%TD*%
%TO.C,220UF1*%
X113000000Y74250000D03*
X113000000Y76750000D03*
%TD*%
%TO.C,R2*%
X42080000Y40750000D03*
D10*
X31920000Y40750000D03*
%TD*%
D11*
%TO.C,R3*%
X42080000Y35750000D03*
D10*
X31920000Y35750000D03*
%TD*%
D11*
%TO.C,R4*%
X42580000Y30750000D03*
D10*
X32420000Y30750000D03*
%TD*%
D11*
%TO.C,R5*%
X42830000Y25750000D03*
D10*
X32670000Y25750000D03*
%TD*%
D12*
%TO.C,J3*%
X110750000Y88750000D03*
D13*
X108210000Y88750000D03*
X105670000Y88750000D03*
%TD*%
D15*
%TO.C,J4*%
X105250000Y7000000D03*
D13*
X105250000Y4460000D03*
X102710000Y7000000D03*
X102710000Y4460000D03*
X100170000Y7000000D03*
X100170000Y4460000D03*
X97630000Y7000000D03*
X97630000Y4460000D03*
X95090000Y7000000D03*
X95090000Y4460000D03*
%TD*%
D14*
%TO.C,C4*%
X61794888Y34000000D03*
D11*
X64294888Y34000000D03*
%TD*%
D16*
%TO.C,J6*%
X24000000Y25750000D03*
X24000000Y30750000D03*
X24000000Y35750000D03*
D17*
X24000000Y40750000D03*
%TD*%
D14*
%TO.C,C2*%
X52520113Y30140000D03*
D11*
X50020113Y30140000D03*
%TD*%
%TO.C,R7*%
X42580000Y55250000D03*
D10*
X32420000Y55250000D03*
%TD*%
D11*
%TO.C,R14*%
X15080000Y49750000D03*
D10*
X4920000Y49750000D03*
%TD*%
D11*
%TO.C,R15*%
X15080000Y54750000D03*
D10*
X4920000Y54750000D03*
%TD*%
D11*
%TO.C,R16*%
X15080000Y59750000D03*
D10*
X4920000Y59750000D03*
%TD*%
D11*
%TO.C,R17*%
X15580000Y26250000D03*
D10*
X5420000Y26250000D03*
%TD*%
D11*
%TO.C,R18*%
X15580000Y30750000D03*
D10*
X5420000Y30750000D03*
%TD*%
D11*
%TO.C,R19*%
X15580000Y35750000D03*
D10*
X5420000Y35750000D03*
%TD*%
D11*
%TO.C,R20*%
X15580000Y40750000D03*
D10*
X5420000Y40750000D03*
%TD*%
D11*
%TO.C,R21*%
X66875000Y61625000D03*
D10*
X66875000Y71785000D03*
%TD*%
D11*
%TO.C,R22*%
X72875000Y61545000D03*
D10*
X72875000Y71705000D03*
%TD*%
D11*
%TO.C,R24*%
X87000000Y79080000D03*
D10*
X87000000Y68920000D03*
%TD*%
D11*
%TO.C,U1*%
X82815000Y46760000D03*
X82815000Y44220000D03*
X82815000Y41680000D03*
X82815000Y39140000D03*
X82815000Y36600000D03*
X82815000Y34060000D03*
X82815000Y31520000D03*
X82815000Y28980000D03*
X82815000Y26440000D03*
X82815000Y23900000D03*
X82815000Y21360000D03*
X82815000Y18820000D03*
X82815000Y16280000D03*
X82815000Y13740000D03*
X75195000Y13740000D03*
X75195000Y16280000D03*
X75195000Y18820000D03*
X75195000Y21360000D03*
X75195000Y23900000D03*
X75195000Y26440000D03*
X75195000Y28980000D03*
X75195000Y31520000D03*
X75195000Y34060000D03*
X75195000Y36600000D03*
X75195000Y39140000D03*
X75195000Y41680000D03*
X75195000Y44220000D03*
D18*
X75195000Y46760000D03*
%TD*%
D13*
%TO.C,Y1*%
X62815000Y22640000D03*
X62815000Y27640000D03*
%TD*%
D14*
%TO.C,C5*%
X94250000Y36000000D03*
D11*
X91750000Y36000000D03*
%TD*%
D17*
%TO.C,J5*%
X24000000Y59750000D03*
D16*
X24000000Y54750000D03*
X24000000Y49750000D03*
%TD*%
D19*
%TO.C,J1*%
X97000000Y85250000D03*
D16*
X92000000Y85250000D03*
X87000000Y85250000D03*
%TD*%
D20*
%TO.C,H2*%
X134500000Y3250000D03*
%TD*%
%TO.C,H3*%
X4750000Y3250000D03*
%TD*%
D21*
%TO.C,J8*%
X56875000Y80625000D03*
D16*
X61875000Y80625000D03*
X66875000Y80625000D03*
X71875000Y80625000D03*
%TD*%
D22*
%TO.C,J9*%
X121000000Y29990000D03*
D16*
X121000000Y34990000D03*
X121000000Y39990000D03*
X121000000Y44990000D03*
%TD*%
D22*
%TO.C,J10*%
X121000000Y5990000D03*
D16*
X121000000Y10990000D03*
X121000000Y15990000D03*
X121000000Y20990000D03*
%TD*%
D23*
%TO.C,J11*%
X127750000Y75292500D03*
D24*
X133750000Y75292500D03*
D25*
X130750000Y79992500D03*
%TD*%
D20*
%TO.C,H1*%
X134500000Y91750000D03*
%TD*%
D26*
%TO.C,SW1*%
X118750000Y90250000D03*
X125250000Y90250000D03*
X118750000Y85750000D03*
X125250000Y85750000D03*
%TD*%
D20*
%TO.C,H4*%
X4750000Y91750000D03*
%TD*%
M02*
