%TF.GenerationSoftware,KiCad,Pcbnew,9.0.1*%
%TF.CreationDate,2025-09-08T04:28:44-04:00*%
%TF.ProjectId,SNAKE_GAME,534e414b-455f-4474-914d-452e6b696361,rev?*%
%TF.SameCoordinates,Original*%
%TF.FileFunction,Copper,L2,Bot*%
%TF.FilePolarity,Positive*%
%FSLAX46Y46*%
G04 Gerber Fmt 4.6, Leading zero omitted, Abs format (unit mm)*
G04 Created by KiCad (PCBNEW 9.0.1) date 2025-09-08 04:28:44*
%MOMM*%
%LPD*%
G01*
G04 APERTURE LIST*
G04 Aperture macros list*
%AMRoundRect*
0 Rectangle with rounded corners*
0 $1 Rounding radius*
0 $2 $3 $4 $5 $6 $7 $8 $9 X,Y pos of 4 corners*
0 Add a 4 corners polygon primitive as box body*
4,1,4,$2,$3,$4,$5,$6,$7,$8,$9,$2,$3,0*
0 Add four circle primitives for the rounded corners*
1,1,$1+$1,$2,$3*
1,1,$1+$1,$4,$5*
1,1,$1+$1,$6,$7*
1,1,$1+$1,$8,$9*
0 Add four rect primitives between the rounded corners*
20,1,$1+$1,$2,$3,$4,$5,0*
20,1,$1+$1,$4,$5,$6,$7,0*
20,1,$1+$1,$6,$7,$8,$9,0*
20,1,$1+$1,$8,$9,$2,$3,0*%
G04 Aperture macros list end*
%TA.AperFunction,ComponentPad*%
%ADD10O,1.600000X1.600000*%
%TD*%
%TA.AperFunction,ComponentPad*%
%ADD11C,1.600000*%
%TD*%
%TA.AperFunction,ComponentPad*%
%ADD12R,1.700000X1.700000*%
%TD*%
%TA.AperFunction,ComponentPad*%
%ADD13C,1.700000*%
%TD*%
%TA.AperFunction,ComponentPad*%
%ADD14R,1.600000X1.600000*%
%TD*%
%TA.AperFunction,ComponentPad*%
%ADD15RoundRect,0.250000X-0.600000X0.600000X-0.600000X-0.600000X0.600000X-0.600000X0.600000X0.600000X0*%
%TD*%
%TA.AperFunction,ComponentPad*%
%ADD16C,2.800000*%
%TD*%
%TA.AperFunction,ComponentPad*%
%ADD17RoundRect,0.250001X-1.149999X1.149999X-1.149999X-1.149999X1.149999X-1.149999X1.149999X1.149999X0*%
%TD*%
%TA.AperFunction,ComponentPad*%
%ADD18RoundRect,0.250000X-0.550000X-0.550000X0.550000X-0.550000X0.550000X0.550000X-0.550000X0.550000X0*%
%TD*%
%TA.AperFunction,ComponentPad*%
%ADD19RoundRect,0.250001X1.149999X1.149999X-1.149999X1.149999X-1.149999X-1.149999X1.149999X-1.149999X0*%
%TD*%
%TA.AperFunction,ComponentPad*%
%ADD20RoundRect,0.250001X-1.149999X-1.149999X1.149999X-1.149999X1.149999X1.149999X-1.149999X1.149999X0*%
%TD*%
%TA.AperFunction,ComponentPad*%
%ADD21RoundRect,0.250001X1.149999X-1.149999X1.149999X1.149999X-1.149999X1.149999X-1.149999X-1.149999X0*%
%TD*%
%TA.AperFunction,ComponentPad*%
%ADD22R,3.500000X3.500000*%
%TD*%
%TA.AperFunction,ComponentPad*%
%ADD23RoundRect,0.750000X0.750000X1.000000X-0.750000X1.000000X-0.750000X-1.000000X0.750000X-1.000000X0*%
%TD*%
%TA.AperFunction,ComponentPad*%
%ADD24RoundRect,0.875000X0.875000X0.875000X-0.875000X0.875000X-0.875000X-0.875000X0.875000X-0.875000X0*%
%TD*%
%TA.AperFunction,ComponentPad*%
%ADD25C,2.000000*%
%TD*%
%TA.AperFunction,ViaPad*%
%ADD26C,2.500000*%
%TD*%
%TA.AperFunction,Conductor*%
%ADD27C,1.000000*%
%TD*%
%TA.AperFunction,Conductor*%
%ADD28C,3.000000*%
%TD*%
G04 APERTURE END LIST*
D10*
%TO.P,R6,2*%
%TO.N,/B_EXIT*%
X32420000Y60000000D03*
D11*
%TO.P,R6,1*%
%TO.N,Net-(U1-PD6)*%
X42580000Y60000000D03*
%TD*%
D12*
%TO.P,J7,1,Pin_1*%
%TO.N,VCC*%
X116025000Y62050000D03*
D13*
%TO.P,J7,2,Pin_2*%
%TO.N,GND*%
X116025000Y59510000D03*
%TO.P,J7,3,Pin_3*%
%TO.N,/TXD*%
X116025000Y56970000D03*
%TO.P,J7,4,Pin_4*%
%TO.N,/RXD*%
X116025000Y54430000D03*
%TD*%
D14*
%TO.P,C3,1*%
%TO.N,Net-(U1-XTAL2{slash}PB7)*%
X52815000Y19640000D03*
D11*
%TO.P,C3,2*%
%TO.N,GND*%
X50315000Y19640000D03*
%TD*%
%TO.P,R13,1*%
%TO.N,Net-(U1-PB0)*%
X42580000Y49750000D03*
D10*
%TO.P,R13,2*%
%TO.N,/B_SELECT*%
X32420000Y49750000D03*
%TD*%
D14*
%TO.P,C1,1*%
%TO.N,GND*%
X95315000Y30640000D03*
D11*
%TO.P,C1,2*%
%TO.N,VCC*%
X95315000Y28140000D03*
%TD*%
%TO.P,220UF1,1*%
%TO.N,VCC*%
X113000000Y74250000D03*
%TO.P,220UF1,2*%
%TO.N,GND*%
X113000000Y76750000D03*
%TD*%
%TO.P,R2,1*%
%TO.N,Net-(U1-PD2)*%
X42080000Y40750000D03*
D10*
%TO.P,R2,2*%
%TO.N,/JS_UP*%
X31920000Y40750000D03*
%TD*%
D11*
%TO.P,R3,1*%
%TO.N,Net-(U1-PD3)*%
X42080000Y35750000D03*
D10*
%TO.P,R3,2*%
%TO.N,/JS_DOWN*%
X31920000Y35750000D03*
%TD*%
D11*
%TO.P,R4,1*%
%TO.N,Net-(U1-PD4)*%
X42580000Y30750000D03*
D10*
%TO.P,R4,2*%
%TO.N,/JS_LEFT*%
X32420000Y30750000D03*
%TD*%
D11*
%TO.P,R5,1*%
%TO.N,Net-(U1-PD5)*%
X42830000Y25750000D03*
D10*
%TO.P,R5,2*%
%TO.N,/JS_RIGHT*%
X32670000Y25750000D03*
%TD*%
D12*
%TO.P,J3,1,Pin_1*%
%TO.N,GND*%
X110750000Y88750000D03*
D13*
%TO.P,J3,2,Pin_2*%
%TO.N,Net-(J3-Pin_2)*%
X108210000Y88750000D03*
%TO.P,J3,3,Pin_3*%
%TO.N,VCC*%
X105670000Y88750000D03*
%TD*%
D15*
%TO.P,J4,1,Pin_1*%
%TO.N,/MOSI*%
X105250000Y7000000D03*
D13*
%TO.P,J4,2,Pin_2*%
%TO.N,VCC*%
X105250000Y4460000D03*
%TO.P,J4,3,Pin_3*%
%TO.N,unconnected-(J4-Pin_3-Pad3)*%
X102710000Y7000000D03*
%TO.P,J4,4,Pin_4*%
%TO.N,unconnected-(J4-Pin_4-Pad4)*%
X102710000Y4460000D03*
%TO.P,J4,5,Pin_5*%
%TO.N,/RESET*%
X100170000Y7000000D03*
%TO.P,J4,6,Pin_6*%
%TO.N,unconnected-(J4-Pin_6-Pad6)*%
X100170000Y4460000D03*
%TO.P,J4,7,Pin_7*%
%TO.N,/SCK*%
X97630000Y7000000D03*
%TO.P,J4,8,Pin_8*%
%TO.N,GND*%
X97630000Y4460000D03*
%TO.P,J4,9,Pin_9*%
%TO.N,/MISO*%
X95090000Y7000000D03*
%TO.P,J4,10,Pin_10*%
%TO.N,GND*%
X95090000Y4460000D03*
%TD*%
D14*
%TO.P,C4,1*%
%TO.N,GND*%
X61794888Y34000000D03*
D11*
%TO.P,C4,2*%
%TO.N,VCC*%
X64294888Y34000000D03*
%TD*%
D16*
%TO.P,J6,4,Pin_4*%
%TO.N,/JS_RIGHT*%
X24000000Y25750000D03*
%TO.P,J6,3,Pin_3*%
%TO.N,/JS_LEFT*%
X24000000Y30750000D03*
%TO.P,J6,2,Pin_2*%
%TO.N,/JS_DOWN*%
X24000000Y35750000D03*
D17*
%TO.P,J6,1,Pin_1*%
%TO.N,/JS_UP*%
X24000000Y40750000D03*
%TD*%
D14*
%TO.P,C2,1*%
%TO.N,Net-(U1-XTAL1{slash}PB6)*%
X52520113Y30140000D03*
D11*
%TO.P,C2,2*%
%TO.N,GND*%
X50020113Y30140000D03*
%TD*%
%TO.P,R7,1*%
%TO.N,Net-(U1-PD7)*%
X42580000Y55250000D03*
D10*
%TO.P,R7,2*%
%TO.N,/B_START*%
X32420000Y55250000D03*
%TD*%
D11*
%TO.P,R14,1*%
%TO.N,/B_SELECT*%
X15080000Y49750000D03*
D10*
%TO.P,R14,2*%
%TO.N,VCC*%
X4920000Y49750000D03*
%TD*%
D11*
%TO.P,R15,1*%
%TO.N,/B_START*%
X15080000Y54750000D03*
D10*
%TO.P,R15,2*%
%TO.N,VCC*%
X4920000Y54750000D03*
%TD*%
D11*
%TO.P,R16,1*%
%TO.N,/B_EXIT*%
X15080000Y59750000D03*
D10*
%TO.P,R16,2*%
%TO.N,VCC*%
X4920000Y59750000D03*
%TD*%
D11*
%TO.P,R17,1*%
%TO.N,/JS_RIGHT*%
X15580000Y26250000D03*
D10*
%TO.P,R17,2*%
%TO.N,VCC*%
X5420000Y26250000D03*
%TD*%
D11*
%TO.P,R18,1*%
%TO.N,/JS_LEFT*%
X15580000Y30750000D03*
D10*
%TO.P,R18,2*%
%TO.N,VCC*%
X5420000Y30750000D03*
%TD*%
D11*
%TO.P,R19,1*%
%TO.N,/JS_DOWN*%
X15580000Y35750000D03*
D10*
%TO.P,R19,2*%
%TO.N,VCC*%
X5420000Y35750000D03*
%TD*%
D11*
%TO.P,R20,1*%
%TO.N,/JS_UP*%
X15580000Y40750000D03*
D10*
%TO.P,R20,2*%
%TO.N,VCC*%
X5420000Y40750000D03*
%TD*%
D11*
%TO.P,R21,1*%
%TO.N,VCC*%
X66875000Y61625000D03*
D10*
%TO.P,R21,2*%
%TO.N,/SDA*%
X66875000Y71785000D03*
%TD*%
D11*
%TO.P,R22,1*%
%TO.N,VCC*%
X72875000Y61545000D03*
D10*
%TO.P,R22,2*%
%TO.N,/SCL*%
X72875000Y71705000D03*
%TD*%
D11*
%TO.P,R24,1*%
%TO.N,/DIN_GRID*%
X87000000Y79080000D03*
D10*
%TO.P,R24,2*%
%TO.N,VCC*%
X87000000Y68920000D03*
%TD*%
D11*
%TO.P,U1,28,PC5*%
%TO.N,/SCL*%
X82815000Y46760000D03*
%TO.P,U1,27,PC4*%
%TO.N,/SDA*%
X82815000Y44220000D03*
%TO.P,U1,26,PC3*%
%TO.N,unconnected-(U1-PC3-Pad26)*%
X82815000Y41680000D03*
%TO.P,U1,25,PC2*%
%TO.N,unconnected-(U1-PC2-Pad25)*%
X82815000Y39140000D03*
%TO.P,U1,24,PC1*%
%TO.N,unconnected-(U1-PC1-Pad24)*%
X82815000Y36600000D03*
%TO.P,U1,23,PC0*%
%TO.N,/DIN_GRID*%
X82815000Y34060000D03*
%TO.P,U1,22,GND*%
%TO.N,GND*%
X82815000Y31520000D03*
%TO.P,U1,21,AREF*%
%TO.N,Net-(U1-AREF)*%
X82815000Y28980000D03*
%TO.P,U1,20,AVCC*%
%TO.N,VCC*%
X82815000Y26440000D03*
%TO.P,U1,19,PB5*%
%TO.N,/SCK*%
X82815000Y23900000D03*
%TO.P,U1,18,PB4*%
%TO.N,/MISO*%
X82815000Y21360000D03*
%TO.P,U1,17,PB3*%
%TO.N,/MOSI*%
X82815000Y18820000D03*
%TO.P,U1,16,PB2*%
%TO.N,unconnected-(U1-PB2-Pad16)*%
X82815000Y16280000D03*
%TO.P,U1,15,PB1*%
%TO.N,unconnected-(U1-PB1-Pad15)*%
X82815000Y13740000D03*
%TO.P,U1,14,PB0*%
%TO.N,Net-(U1-PB0)*%
X75195000Y13740000D03*
%TO.P,U1,13,PD7*%
%TO.N,Net-(U1-PD7)*%
X75195000Y16280000D03*
%TO.P,U1,12,PD6*%
%TO.N,Net-(U1-PD6)*%
X75195000Y18820000D03*
%TO.P,U1,11,PD5*%
%TO.N,Net-(U1-PD5)*%
X75195000Y21360000D03*
%TO.P,U1,10,XTAL2/PB7*%
%TO.N,Net-(U1-XTAL2{slash}PB7)*%
X75195000Y23900000D03*
%TO.P,U1,9,XTAL1/PB6*%
%TO.N,Net-(U1-XTAL1{slash}PB6)*%
X75195000Y26440000D03*
%TO.P,U1,8,GND*%
%TO.N,GND*%
X75195000Y28980000D03*
%TO.P,U1,7,VCC*%
%TO.N,VCC*%
X75195000Y31520000D03*
%TO.P,U1,6,PD4*%
%TO.N,Net-(U1-PD4)*%
X75195000Y34060000D03*
%TO.P,U1,5,PD3*%
%TO.N,Net-(U1-PD3)*%
X75195000Y36600000D03*
%TO.P,U1,4,PD2*%
%TO.N,Net-(U1-PD2)*%
X75195000Y39140000D03*
%TO.P,U1,3,PD1*%
%TO.N,/TXD*%
X75195000Y41680000D03*
%TO.P,U1,2,PD0*%
%TO.N,/RXD*%
X75195000Y44220000D03*
D18*
%TO.P,U1,1,~{RESET}/PC6*%
%TO.N,/RESET*%
X75195000Y46760000D03*
%TD*%
D13*
%TO.P,Y1,1,1*%
%TO.N,Net-(U1-XTAL2{slash}PB7)*%
X62815000Y22640000D03*
%TO.P,Y1,2,2*%
%TO.N,Net-(U1-XTAL1{slash}PB6)*%
X62815000Y27640000D03*
%TD*%
D14*
%TO.P,C5,1*%
%TO.N,GND*%
X94250000Y36000000D03*
D11*
%TO.P,C5,2*%
%TO.N,Net-(U1-AREF)*%
X91750000Y36000000D03*
%TD*%
D17*
%TO.P,J5,1,Pin_1*%
%TO.N,/B_EXIT*%
X24000000Y59750000D03*
D16*
%TO.P,J5,2,Pin_2*%
%TO.N,/B_START*%
X24000000Y54750000D03*
%TO.P,J5,3,Pin_3*%
%TO.N,/B_SELECT*%
X24000000Y49750000D03*
%TD*%
D19*
%TO.P,J1,1,Pin_1*%
%TO.N,VCC*%
X97000000Y85250000D03*
D16*
%TO.P,J1,2,Pin_2*%
%TO.N,GND*%
X92000000Y85250000D03*
%TO.P,J1,3,Pin_3*%
%TO.N,/DIN_GRID*%
X87000000Y85250000D03*
%TD*%
D20*
%TO.P,J8,1,Pin_1*%
%TO.N,GND*%
X56875000Y80625000D03*
D16*
%TO.P,J8,2,Pin_2*%
%TO.N,VCC*%
X61875000Y80625000D03*
%TO.P,J8,3,Pin_3*%
%TO.N,/SDA*%
X66875000Y80625000D03*
%TO.P,J8,4,Pin_4*%
%TO.N,/SCL*%
X71875000Y80625000D03*
%TD*%
D21*
%TO.P,J9,1,Pin_1*%
%TO.N,GND*%
X121000000Y29990000D03*
D16*
%TO.P,J9,2,Pin_2*%
X121000000Y34990000D03*
%TO.P,J9,3,Pin_3*%
X121000000Y39990000D03*
%TO.P,J9,4,Pin_4*%
X121000000Y44990000D03*
%TD*%
D21*
%TO.P,J10,1,Pin_1*%
%TO.N,VCC*%
X121000000Y5990000D03*
D16*
%TO.P,J10,2,Pin_2*%
X121000000Y10990000D03*
%TO.P,J10,3,Pin_3*%
X121000000Y15990000D03*
%TO.P,J10,4,Pin_4*%
X121000000Y20990000D03*
%TD*%
D22*
%TO.P,J11,1*%
%TO.N,VCC*%
X127750000Y75292500D03*
D23*
%TO.P,J11,2*%
%TO.N,unconnected-(J11-Pad2)*%
X133750000Y75292500D03*
D24*
%TO.P,J11,3*%
%TO.N,GND*%
X130750000Y79992500D03*
%TD*%
D25*
%TO.P,SW1,1,1*%
%TO.N,/RESET*%
X118750000Y90250000D03*
X125250000Y90250000D03*
%TO.P,SW1,2,2*%
%TO.N,Net-(J3-Pin_2)*%
X118750000Y85750000D03*
X125250000Y85750000D03*
%TD*%
D26*
%TO.N,/MOSI*%
X104250000Y15250000D03*
X91750000Y16750000D03*
%TO.N,Net-(U1-PD6)*%
X66500000Y17500000D03*
X53000000Y57750000D03*
%TO.N,/RESET*%
X89500000Y65000000D03*
%TO.N,/RXD*%
X107000000Y54250000D03*
%TO.N,/TXD*%
X70500000Y47500000D03*
%TO.N,Net-(U1-PB0)*%
X46500000Y47000000D03*
%TO.N,/RESET*%
X96250000Y46500000D03*
%TO.N,Net-(U1-PD7)*%
X64750000Y14000000D03*
%TO.N,/TXD*%
X100250000Y50750000D03*
%TO.N,/RXD*%
X80250000Y54250000D03*
%TO.N,Net-(U1-PD7)*%
X52000000Y53000000D03*
%TO.N,/RESET*%
X78250000Y57250000D03*
%TO.N,Net-(U1-PB0)*%
X63000000Y9750000D03*
%TO.N,/RESET*%
X101000000Y22500000D03*
X103750000Y92500000D03*
%TD*%
D27*
%TO.N,VCC*%
X105250000Y4460000D02*
X119470000Y4460000D01*
X119470000Y4460000D02*
X121000000Y5990000D01*
%TO.N,/RESET*%
X101000000Y22500000D02*
X101000000Y21500000D01*
X101000000Y21500000D02*
X100170000Y20670000D01*
X100170000Y20670000D02*
X100170000Y7000000D01*
%TO.N,/MOSI*%
X104250000Y15250000D02*
X105250000Y14250000D01*
X105250000Y14250000D02*
X105250000Y7000000D01*
X89680000Y18820000D02*
X91750000Y16750000D01*
X82815000Y18820000D02*
X89680000Y18820000D01*
%TO.N,/MISO*%
X82815000Y21360000D02*
X92140000Y21360000D01*
X95250000Y18250000D02*
X95250000Y11000000D01*
X95250000Y11000000D02*
X95090000Y10840000D01*
X92140000Y21360000D02*
X95250000Y18250000D01*
X95090000Y10840000D02*
X95090000Y7000000D01*
%TO.N,/SCK*%
X82815000Y23900000D02*
X93100000Y23900000D01*
X93100000Y23900000D02*
X97630000Y19370000D01*
X97630000Y19370000D02*
X97630000Y7000000D01*
%TO.N,Net-(U1-PD5)*%
X42830000Y25750000D02*
X42830000Y22420000D01*
X42830000Y22420000D02*
X49750000Y15500000D01*
%TO.N,Net-(U1-PD3)*%
X44750000Y35750000D02*
X42080000Y35750000D01*
%TO.N,Net-(U1-PD2)*%
X46000000Y40750000D02*
X42080000Y40750000D01*
%TO.N,Net-(U1-PB0)*%
X42580000Y49750000D02*
X43750000Y49750000D01*
X43750000Y49750000D02*
X46500000Y47000000D01*
%TO.N,Net-(U1-PD7)*%
X49750000Y55250000D02*
X42580000Y55250000D01*
%TO.N,Net-(U1-PD6)*%
X50750000Y60000000D02*
X42580000Y60000000D01*
D28*
%TO.N,VCC*%
X23500000Y89750000D02*
X62000000Y89750000D01*
D27*
X66774888Y31520000D02*
X75195000Y31520000D01*
%TO.N,Net-(J3-Pin_2)*%
X115000000Y85750000D02*
X118750000Y85750000D01*
%TO.N,/RESET*%
X75195000Y54195000D02*
X78250000Y57250000D01*
%TO.N,/SCL*%
X71875000Y80625000D02*
X71875000Y72705000D01*
%TO.N,Net-(U1-XTAL2{slash}PB7)*%
X52815000Y19640000D02*
X59815000Y19640000D01*
%TO.N,VCC*%
X77980000Y31520000D02*
X79250000Y30250000D01*
%TO.N,Net-(U1-XTAL1{slash}PB6)*%
X60315000Y30140000D02*
X62815000Y27640000D01*
X64015000Y26440000D02*
X75195000Y26440000D01*
%TO.N,VCC*%
X113760000Y20990000D02*
X121000000Y20990000D01*
%TO.N,/SDA*%
X68750000Y85500000D02*
X66875000Y83625000D01*
%TO.N,/JS_DOWN*%
X24000000Y35750000D02*
X31920000Y35750000D01*
%TO.N,Net-(J3-Pin_2)*%
X114250000Y85000000D02*
X115000000Y85750000D01*
D28*
%TO.N,VCC*%
X5420000Y26250000D02*
X5420000Y59250000D01*
X5420000Y59250000D02*
X4920000Y59750000D01*
D27*
%TO.N,/SDA*%
X77500000Y67250000D02*
X77500000Y82750000D01*
%TO.N,/RXD*%
X107000000Y54250000D02*
X115845000Y54250000D01*
%TO.N,/TXD*%
X75195000Y41680000D02*
X73820000Y41680000D01*
%TO.N,/RXD*%
X115845000Y54250000D02*
X116025000Y54430000D01*
%TO.N,VCC*%
X66875000Y61625000D02*
X65375000Y61625000D01*
X95315000Y28140000D02*
X106610000Y28140000D01*
%TO.N,/JS_UP*%
X24000000Y40750000D02*
X31920000Y40750000D01*
%TO.N,/B_SELECT*%
X32420000Y49750000D02*
X24000000Y49750000D01*
%TO.N,/JS_RIGHT*%
X23500000Y26250000D02*
X24000000Y25750000D01*
D28*
%TO.N,VCC*%
X4920000Y71170000D02*
X23500000Y89750000D01*
D27*
%TO.N,/JS_DOWN*%
X15580000Y35750000D02*
X24000000Y35750000D01*
%TO.N,/SDA*%
X88000000Y56750000D02*
X77500000Y67250000D01*
%TO.N,Net-(U1-PD2)*%
X71610000Y39140000D02*
X75195000Y39140000D01*
%TO.N,Net-(U1-PD4)*%
X51250000Y38750000D02*
X64750000Y38750000D01*
%TO.N,/JS_UP*%
X15580000Y40750000D02*
X24000000Y40750000D01*
%TO.N,Net-(U1-PD7)*%
X49750000Y55250000D02*
X52000000Y53000000D01*
%TO.N,Net-(U1-PD6)*%
X66500000Y17500000D02*
X67820000Y18820000D01*
%TO.N,Net-(U1-PB0)*%
X68750000Y9750000D02*
X72740000Y13740000D01*
D28*
%TO.N,VCC*%
X127750000Y64750000D02*
X127750000Y75292500D01*
D27*
%TO.N,/SDA*%
X66875000Y80625000D02*
X66875000Y71785000D01*
%TO.N,Net-(U1-AREF)*%
X82815000Y28980000D02*
X86230000Y28980000D01*
%TO.N,/RESET*%
X118750000Y90250000D02*
X125250000Y90250000D01*
X96250000Y58250000D02*
X89500000Y65000000D01*
X96250000Y46500000D02*
X96250000Y58250000D01*
D28*
%TO.N,VCC*%
X121000000Y10990000D02*
X121000000Y5990000D01*
X84000000Y91750000D02*
X94500000Y91750000D01*
X62000000Y89750000D02*
X82000000Y89750000D01*
X121000000Y15990000D02*
X124990000Y15990000D01*
X94500000Y91750000D02*
X97000000Y89250000D01*
X124990000Y15990000D02*
X132750000Y23750000D01*
X132750000Y59750000D02*
X127750000Y64750000D01*
X4920000Y59750000D02*
X4920000Y71170000D01*
X97000000Y89250000D02*
X97000000Y85250000D01*
X132750000Y23750000D02*
X132750000Y59750000D01*
D27*
%TO.N,Net-(U1-PD3)*%
X44750000Y35750000D02*
X50000000Y41000000D01*
%TO.N,Net-(U1-PD4)*%
X64750000Y38750000D02*
X69440000Y34060000D01*
%TO.N,/TXD*%
X70500000Y45000000D02*
X70500000Y47500000D01*
X108280000Y56970000D02*
X116025000Y56970000D01*
X104000000Y57000000D02*
X108250000Y57000000D01*
%TO.N,Net-(U1-PD2)*%
X48750000Y43500000D02*
X67250000Y43500000D01*
%TO.N,/RESET*%
X75195000Y46760000D02*
X75195000Y54195000D01*
%TO.N,/DIN_GRID*%
X82500000Y66500000D02*
X82500000Y75250000D01*
D28*
%TO.N,VCC*%
X61875000Y88125000D02*
X61875000Y80625000D01*
D27*
X79250000Y28000000D02*
X80810000Y26440000D01*
%TO.N,Net-(J3-Pin_2)*%
X108210000Y87547919D02*
X110757919Y85000000D01*
%TO.N,/B_EXIT*%
X15080000Y59750000D02*
X24000000Y59750000D01*
%TO.N,/DIN_GRID*%
X85810000Y34060000D02*
X87750000Y36000000D01*
X82500000Y75250000D02*
X86330000Y79080000D01*
%TO.N,VCC*%
X106610000Y28140000D02*
X113760000Y20990000D01*
%TO.N,/JS_LEFT*%
X24000000Y30750000D02*
X32420000Y30750000D01*
%TO.N,/B_START*%
X15080000Y54750000D02*
X24000000Y54750000D01*
D28*
%TO.N,VCC*%
X62000000Y89750000D02*
X62000000Y88250000D01*
D27*
%TO.N,/RXD*%
X78500000Y52500000D02*
X80250000Y54250000D01*
X75195000Y44220000D02*
X76970000Y44220000D01*
X76970000Y44220000D02*
X78500000Y45750000D01*
X78500000Y45750000D02*
X78500000Y52500000D01*
%TO.N,/TXD*%
X73820000Y41680000D02*
X70500000Y45000000D01*
X100250000Y50750000D02*
X102250000Y52750000D01*
X102250000Y52750000D02*
X102250000Y55250000D01*
X102250000Y55250000D02*
X104000000Y57000000D01*
X108250000Y57000000D02*
X108280000Y56970000D01*
%TO.N,Net-(U1-PD5)*%
X49750000Y15500000D02*
X60000000Y15500000D01*
%TO.N,Net-(U1-PD3)*%
X66250000Y41000000D02*
X70650000Y36600000D01*
%TO.N,VCC*%
X65375000Y61625000D02*
X61875000Y65125000D01*
%TO.N,/DIN_GRID*%
X87000000Y85250000D02*
X87000000Y79080000D01*
%TO.N,Net-(J3-Pin_2)*%
X110757919Y85000000D02*
X114250000Y85000000D01*
%TO.N,/DIN_GRID*%
X90750000Y44750000D02*
X90750000Y58250000D01*
%TO.N,Net-(U1-PD7)*%
X70280000Y16280000D02*
X75195000Y16280000D01*
%TO.N,VCC*%
X105670000Y88750000D02*
X105670000Y76580000D01*
%TO.N,Net-(U1-PB0)*%
X72740000Y13740000D02*
X75195000Y13740000D01*
%TO.N,Net-(U1-PD6)*%
X67820000Y18820000D02*
X75195000Y18820000D01*
%TO.N,Net-(U1-PD2)*%
X46000000Y40750000D02*
X48750000Y43500000D01*
%TO.N,Net-(U1-XTAL2{slash}PB7)*%
X64075000Y23900000D02*
X75195000Y23900000D01*
%TO.N,/RESET*%
X104250000Y93000000D02*
X116000000Y93000000D01*
%TO.N,/DIN_GRID*%
X82815000Y34060000D02*
X85810000Y34060000D01*
X86330000Y79080000D02*
X87000000Y79080000D01*
%TO.N,Net-(J3-Pin_2)*%
X108210000Y88750000D02*
X108210000Y87547919D01*
%TO.N,Net-(U1-PD3)*%
X70650000Y36600000D02*
X75195000Y36600000D01*
%TO.N,/SDA*%
X88000000Y47500000D02*
X88000000Y56750000D01*
%TO.N,VCC*%
X93830000Y68920000D02*
X96500000Y66250000D01*
X82815000Y26440000D02*
X93615000Y26440000D01*
%TO.N,Net-(U1-PD6)*%
X50750000Y60000000D02*
X53000000Y57750000D01*
%TO.N,/SDA*%
X82815000Y44220000D02*
X84720000Y44220000D01*
X66875000Y83625000D02*
X66875000Y80625000D01*
%TO.N,Net-(U1-PD4)*%
X69440000Y34060000D02*
X75195000Y34060000D01*
%TO.N,VCC*%
X66955000Y61545000D02*
X66875000Y61625000D01*
X75195000Y31520000D02*
X77980000Y31520000D01*
%TO.N,Net-(U1-XTAL1{slash}PB6)*%
X52520113Y30140000D02*
X60315000Y30140000D01*
%TO.N,Net-(U1-XTAL2{slash}PB7)*%
X59815000Y19640000D02*
X62815000Y22640000D01*
%TO.N,Net-(U1-AREF)*%
X91750000Y34500000D02*
X91750000Y36000000D01*
%TO.N,/DIN_GRID*%
X87750000Y36000000D02*
X87750000Y41750000D01*
%TO.N,Net-(U1-PB0)*%
X63000000Y9750000D02*
X68750000Y9750000D01*
%TO.N,/SDA*%
X77500000Y82750000D02*
X74750000Y85500000D01*
%TO.N,VCC*%
X105670000Y76580000D02*
X107750000Y74500000D01*
%TO.N,/JS_RIGHT*%
X24000000Y25750000D02*
X32670000Y25750000D01*
%TO.N,/SCL*%
X85500000Y49445000D02*
X85500000Y55250000D01*
%TO.N,/SDA*%
X74750000Y85500000D02*
X68750000Y85500000D01*
%TO.N,/SCL*%
X85500000Y55250000D02*
X72875000Y67875000D01*
%TO.N,/SDA*%
X84720000Y44220000D02*
X88000000Y47500000D01*
%TO.N,/DIN_GRID*%
X90750000Y58250000D02*
X82500000Y66500000D01*
%TO.N,/B_EXIT*%
X24250000Y60000000D02*
X24000000Y59750000D01*
%TO.N,Net-(U1-XTAL1{slash}PB6)*%
X62815000Y27640000D02*
X64015000Y26440000D01*
%TO.N,Net-(U1-AREF)*%
X86230000Y28980000D02*
X91750000Y34500000D01*
D28*
%TO.N,VCC*%
X82000000Y89750000D02*
X84000000Y91750000D01*
D27*
%TO.N,/RESET*%
X100920000Y22420000D02*
X101000000Y22500000D01*
%TO.N,/JS_LEFT*%
X15580000Y30750000D02*
X24000000Y30750000D01*
%TO.N,/B_START*%
X24500000Y55250000D02*
X24000000Y54750000D01*
%TO.N,Net-(U1-PD5)*%
X60000000Y15500000D02*
X65860000Y21360000D01*
X65860000Y21360000D02*
X75195000Y21360000D01*
%TO.N,Net-(U1-PD4)*%
X43250000Y30750000D02*
X51250000Y38750000D01*
%TO.N,VCC*%
X61875000Y65125000D02*
X61875000Y80625000D01*
%TO.N,/RESET*%
X103750000Y92500000D02*
X104250000Y93000000D01*
%TO.N,/B_START*%
X32420000Y55250000D02*
X24500000Y55250000D01*
%TO.N,/DIN_GRID*%
X87750000Y41750000D02*
X90750000Y44750000D01*
%TO.N,VCC*%
X79250000Y30250000D02*
X79250000Y28000000D01*
D28*
X121000000Y10990000D02*
X121000000Y20990000D01*
D27*
%TO.N,/SCL*%
X82815000Y46760000D02*
X85500000Y49445000D01*
%TO.N,VCC*%
X80810000Y26440000D02*
X82815000Y26440000D01*
X64294888Y34000000D02*
X66774888Y31520000D01*
%TO.N,Net-(J3-Pin_2)*%
X118750000Y85750000D02*
X125250000Y85750000D01*
%TO.N,Net-(U1-PD2)*%
X67250000Y43500000D02*
X71610000Y39140000D01*
%TO.N,Net-(U1-PD7)*%
X64750000Y14000000D02*
X68000000Y14000000D01*
%TO.N,/SCL*%
X72875000Y67875000D02*
X72875000Y71705000D01*
%TO.N,/RESET*%
X116000000Y93000000D02*
X118750000Y90250000D01*
%TO.N,Net-(U1-PD7)*%
X68000000Y14000000D02*
X70280000Y16280000D01*
%TO.N,VCC*%
X93615000Y26440000D02*
X95315000Y28140000D01*
%TO.N,/JS_RIGHT*%
X15580000Y26250000D02*
X23500000Y26250000D01*
%TO.N,Net-(U1-PD3)*%
X50000000Y41000000D02*
X66250000Y41000000D01*
%TO.N,/B_EXIT*%
X32420000Y60000000D02*
X24250000Y60000000D01*
%TO.N,VCC*%
X87000000Y68920000D02*
X93830000Y68920000D01*
X72875000Y61545000D02*
X66955000Y61545000D01*
D28*
X62000000Y88250000D02*
X61875000Y88125000D01*
D27*
%TO.N,/SCL*%
X71875000Y72705000D02*
X72875000Y71705000D01*
%TO.N,/B_SELECT*%
X15080000Y49750000D02*
X24000000Y49750000D01*
%TO.N,Net-(U1-XTAL2{slash}PB7)*%
X62815000Y22640000D02*
X64075000Y23900000D01*
%TD*%
%TA.AperFunction,Conductor*%
%TO.N,VCC*%
G36*
X99765677Y87980315D02*
G01*
X99786319Y87963681D01*
X100963681Y86786319D01*
X100997166Y86724996D01*
X101000000Y86698638D01*
X101000000Y82750000D01*
X103250000Y75749999D01*
X111749986Y75500000D01*
X112618961Y75500000D01*
X112657277Y75493931D01*
X112674572Y75488311D01*
X112695468Y75481522D01*
X112859599Y75455526D01*
X112897648Y75449500D01*
X112897649Y75449500D01*
X113102351Y75449500D01*
X113102352Y75449500D01*
X113163364Y75459163D01*
X113304530Y75481522D01*
X113304531Y75481522D01*
X113307590Y75482516D01*
X113342722Y75493931D01*
X113381039Y75500000D01*
X114750002Y75500000D01*
X119238962Y76746934D01*
X119261408Y76750992D01*
X124994641Y77249534D01*
X125005383Y77250000D01*
X129626000Y77250000D01*
X129693039Y77230315D01*
X129738794Y77177511D01*
X129750000Y77126000D01*
X129750000Y71263988D01*
X129746882Y71236358D01*
X127769067Y62583419D01*
X127734940Y62522451D01*
X127673268Y62489612D01*
X127665248Y62488228D01*
X118772666Y61253148D01*
X118758489Y61251179D01*
X118741431Y61250000D01*
X113764060Y61250000D01*
X113736297Y61253148D01*
X113529639Y61300623D01*
X95343788Y65478454D01*
X95282862Y65512647D01*
X95250091Y65574355D01*
X95247595Y65596195D01*
X94750346Y85486158D01*
X94752715Y85513575D01*
X95230064Y87900318D01*
X95262514Y87962196D01*
X95323266Y87996706D01*
X95351656Y88000000D01*
X99698638Y88000000D01*
X99765677Y87980315D01*
G37*
%TD.AperFunction*%
%TD*%
M02*
