%TF.GenerationSoftware,KiCad,Pcbnew,9.0.1*%
%TF.CreationDate,2025-09-08T03:32:05-04:00*%
%TF.ProjectId,SNAKE_GAME,534e414b-455f-4474-914d-452e6b696361,rev?*%
%TF.SameCoordinates,Original*%
%TF.FileFunction,Soldermask,Bot*%
%TF.FilePolarity,Negative*%
%FSLAX46Y46*%
G04 Gerber Fmt 4.6, Leading zero omitted, Abs format (unit mm)*
G04 Created by KiCad (PCBNEW 9.0.1) date 2025-09-08 03:32:05*
%MOMM*%
%LPD*%
G01*
G04 APERTURE LIST*
G04 Aperture macros list*
%AMRoundRect*
0 Rectangle with rounded corners*
0 $1 Rounding radius*
0 $2 $3 $4 $5 $6 $7 $8 $9 X,Y pos of 4 corners*
0 Add a 4 corners polygon primitive as box body*
4,1,4,$2,$3,$4,$5,$6,$7,$8,$9,$2,$3,0*
0 Add four circle primitives for the rounded corners*
1,1,$1+$1,$2,$3*
1,1,$1+$1,$4,$5*
1,1,$1+$1,$6,$7*
1,1,$1+$1,$8,$9*
0 Add four rect primitives between the rounded corners*
20,1,$1+$1,$2,$3,$4,$5,0*
20,1,$1+$1,$4,$5,$6,$7,0*
20,1,$1+$1,$6,$7,$8,$9,0*
20,1,$1+$1,$8,$9,$2,$3,0*%
G04 Aperture macros list end*
%ADD10R,1.700000X1.700000*%
%ADD11C,1.700000*%
%ADD12R,1.600000X1.600000*%
%ADD13C,1.600000*%
%ADD14O,1.600000X1.600000*%
%ADD15RoundRect,0.250000X-0.600000X0.600000X-0.600000X-0.600000X0.600000X-0.600000X0.600000X0.600000X0*%
%ADD16C,2.800000*%
%ADD17RoundRect,0.250001X-1.149999X1.149999X-1.149999X-1.149999X1.149999X-1.149999X1.149999X1.149999X0*%
%ADD18RoundRect,0.250000X-0.550000X-0.550000X0.550000X-0.550000X0.550000X0.550000X-0.550000X0.550000X0*%
%ADD19RoundRect,0.250001X1.149999X1.149999X-1.149999X1.149999X-1.149999X-1.149999X1.149999X-1.149999X0*%
%ADD20C,3.200000*%
%ADD21RoundRect,0.250001X-1.149999X-1.149999X1.149999X-1.149999X1.149999X1.149999X-1.149999X1.149999X0*%
%ADD22RoundRect,0.250001X1.149999X-1.149999X1.149999X1.149999X-1.149999X1.149999X-1.149999X-1.149999X0*%
%ADD23R,3.500000X3.500000*%
%ADD24RoundRect,0.750000X0.750000X1.000000X-0.750000X1.000000X-0.750000X-1.000000X0.750000X-1.000000X0*%
%ADD25RoundRect,0.875000X0.875000X0.875000X-0.875000X0.875000X-0.875000X-0.875000X0.875000X-0.875000X0*%
%ADD26C,2.000000*%
G04 APERTURE END LIST*
D10*
%TO.C,J7*%
X127025000Y69550000D03*
D11*
X127025000Y67010000D03*
X127025000Y64470000D03*
X127025000Y61930000D03*
%TD*%
D12*
%TO.C,C3*%
X63815000Y27140000D03*
D13*
X61315000Y27140000D03*
%TD*%
%TO.C,R13*%
X51580000Y57250000D03*
D14*
X41420000Y57250000D03*
%TD*%
D12*
%TO.C,C1*%
X106315000Y38140000D03*
D13*
X106315000Y35640000D03*
%TD*%
%TO.C,220UF1*%
X124000000Y81750000D03*
X124000000Y84250000D03*
%TD*%
%TO.C,R2*%
X51080000Y48250000D03*
D14*
X40920000Y48250000D03*
%TD*%
D13*
%TO.C,R3*%
X51080000Y43250000D03*
D14*
X40920000Y43250000D03*
%TD*%
D13*
%TO.C,R4*%
X51580000Y38250000D03*
D14*
X41420000Y38250000D03*
%TD*%
D13*
%TO.C,R5*%
X51830000Y33250000D03*
D14*
X41670000Y33250000D03*
%TD*%
D13*
%TO.C,R6*%
X51580000Y67500000D03*
D14*
X41420000Y67500000D03*
%TD*%
D10*
%TO.C,J3*%
X121750000Y96250000D03*
D11*
X119210000Y96250000D03*
X116670000Y96250000D03*
%TD*%
D15*
%TO.C,J4*%
X117000000Y8210000D03*
D11*
X117000000Y5670000D03*
X114460000Y8210000D03*
X114460000Y5670000D03*
X111920000Y8210000D03*
X111920000Y5670000D03*
X109380000Y8210000D03*
X109380000Y5670000D03*
X106840000Y8210000D03*
X106840000Y5670000D03*
%TD*%
D12*
%TO.C,C4*%
X72794888Y41500000D03*
D13*
X75294888Y41500000D03*
%TD*%
D16*
%TO.C,J6*%
X33000000Y33250000D03*
X33000000Y38250000D03*
X33000000Y43250000D03*
D17*
X33000000Y48250000D03*
%TD*%
D12*
%TO.C,C2*%
X63520113Y37640000D03*
D13*
X61020113Y37640000D03*
%TD*%
%TO.C,R7*%
X51580000Y62750000D03*
D14*
X41420000Y62750000D03*
%TD*%
D13*
%TO.C,R14*%
X24080000Y57250000D03*
D14*
X13920000Y57250000D03*
%TD*%
D13*
%TO.C,R15*%
X24080000Y62250000D03*
D14*
X13920000Y62250000D03*
%TD*%
D13*
%TO.C,R16*%
X24080000Y67250000D03*
D14*
X13920000Y67250000D03*
%TD*%
D13*
%TO.C,R17*%
X24580000Y33750000D03*
D14*
X14420000Y33750000D03*
%TD*%
D13*
%TO.C,R18*%
X24580000Y38250000D03*
D14*
X14420000Y38250000D03*
%TD*%
D13*
%TO.C,R19*%
X24580000Y43250000D03*
D14*
X14420000Y43250000D03*
%TD*%
D13*
%TO.C,R20*%
X24580000Y48250000D03*
D14*
X14420000Y48250000D03*
%TD*%
D13*
%TO.C,R21*%
X77875000Y69125000D03*
D14*
X77875000Y79285000D03*
%TD*%
D13*
%TO.C,R22*%
X83875000Y69045000D03*
D14*
X83875000Y79205000D03*
%TD*%
D13*
%TO.C,R24*%
X98000000Y86580000D03*
D14*
X98000000Y76420000D03*
%TD*%
D13*
%TO.C,U1*%
X93815000Y54260000D03*
X93815000Y51720000D03*
X93815000Y49180000D03*
X93815000Y46640000D03*
X93815000Y44100000D03*
X93815000Y41560000D03*
X93815000Y39020000D03*
X93815000Y36480000D03*
X93815000Y33940000D03*
X93815000Y31400000D03*
X93815000Y28860000D03*
X93815000Y26320000D03*
X93815000Y23780000D03*
X93815000Y21240000D03*
X86195000Y21240000D03*
X86195000Y23780000D03*
X86195000Y26320000D03*
X86195000Y28860000D03*
X86195000Y31400000D03*
X86195000Y33940000D03*
X86195000Y36480000D03*
X86195000Y39020000D03*
X86195000Y41560000D03*
X86195000Y44100000D03*
X86195000Y46640000D03*
X86195000Y49180000D03*
X86195000Y51720000D03*
D18*
X86195000Y54260000D03*
%TD*%
D11*
%TO.C,Y1*%
X73815000Y30140000D03*
X73815000Y35140000D03*
%TD*%
D12*
%TO.C,C5*%
X105250000Y43500000D03*
D13*
X102750000Y43500000D03*
%TD*%
D17*
%TO.C,J5*%
X33000000Y67250000D03*
D16*
X33000000Y62250000D03*
X33000000Y57250000D03*
%TD*%
D19*
%TO.C,J1*%
X108000000Y92750000D03*
D16*
X103000000Y92750000D03*
X98000000Y92750000D03*
%TD*%
D20*
%TO.C,H2*%
X145500000Y4750000D03*
%TD*%
%TO.C,H3*%
X13000000Y4750000D03*
%TD*%
D21*
%TO.C,J8*%
X67875000Y88125000D03*
D16*
X72875000Y88125000D03*
X77875000Y88125000D03*
X82875000Y88125000D03*
%TD*%
D22*
%TO.C,J9*%
X132000000Y37490000D03*
D16*
X132000000Y42490000D03*
X132000000Y47490000D03*
X132000000Y52490000D03*
%TD*%
D22*
%TO.C,J10*%
X132000000Y13490000D03*
D16*
X132000000Y18490000D03*
X132000000Y23490000D03*
X132000000Y28490000D03*
%TD*%
D23*
%TO.C,J11*%
X138750000Y82792500D03*
D24*
X144750000Y82792500D03*
D25*
X141750000Y87492500D03*
%TD*%
D20*
%TO.C,H1*%
X145500000Y99250000D03*
%TD*%
D26*
%TO.C,SW1*%
X129750000Y97750000D03*
X136250000Y97750000D03*
X129750000Y93250000D03*
X136250000Y93250000D03*
%TD*%
D20*
%TO.C,H4*%
X13000000Y99250000D03*
%TD*%
M02*
