%TF.GenerationSoftware,KiCad,Pcbnew,9.0.1*%
%TF.CreationDate,2025-09-08T03:32:05-04:00*%
%TF.ProjectId,SNAKE_GAME,534e414b-455f-4474-914d-452e6b696361,rev?*%
%TF.SameCoordinates,Original*%
%TF.FileFunction,Copper,L2,Bot*%
%TF.FilePolarity,Positive*%
%FSLAX46Y46*%
G04 Gerber Fmt 4.6, Leading zero omitted, Abs format (unit mm)*
G04 Created by KiCad (PCBNEW 9.0.1) date 2025-09-08 03:32:05*
%MOMM*%
%LPD*%
G01*
G04 APERTURE LIST*
G04 Aperture macros list*
%AMRoundRect*
0 Rectangle with rounded corners*
0 $1 Rounding radius*
0 $2 $3 $4 $5 $6 $7 $8 $9 X,Y pos of 4 corners*
0 Add a 4 corners polygon primitive as box body*
4,1,4,$2,$3,$4,$5,$6,$7,$8,$9,$2,$3,0*
0 Add four circle primitives for the rounded corners*
1,1,$1+$1,$2,$3*
1,1,$1+$1,$4,$5*
1,1,$1+$1,$6,$7*
1,1,$1+$1,$8,$9*
0 Add four rect primitives between the rounded corners*
20,1,$1+$1,$2,$3,$4,$5,0*
20,1,$1+$1,$4,$5,$6,$7,0*
20,1,$1+$1,$6,$7,$8,$9,0*
20,1,$1+$1,$8,$9,$2,$3,0*%
G04 Aperture macros list end*
%TA.AperFunction,ComponentPad*%
%ADD10R,1.700000X1.700000*%
%TD*%
%TA.AperFunction,ComponentPad*%
%ADD11C,1.700000*%
%TD*%
%TA.AperFunction,ComponentPad*%
%ADD12R,1.600000X1.600000*%
%TD*%
%TA.AperFunction,ComponentPad*%
%ADD13C,1.600000*%
%TD*%
%TA.AperFunction,ComponentPad*%
%ADD14O,1.600000X1.600000*%
%TD*%
%TA.AperFunction,ComponentPad*%
%ADD15RoundRect,0.250000X-0.600000X0.600000X-0.600000X-0.600000X0.600000X-0.600000X0.600000X0.600000X0*%
%TD*%
%TA.AperFunction,ComponentPad*%
%ADD16C,2.800000*%
%TD*%
%TA.AperFunction,ComponentPad*%
%ADD17RoundRect,0.250001X-1.149999X1.149999X-1.149999X-1.149999X1.149999X-1.149999X1.149999X1.149999X0*%
%TD*%
%TA.AperFunction,ComponentPad*%
%ADD18RoundRect,0.250000X-0.550000X-0.550000X0.550000X-0.550000X0.550000X0.550000X-0.550000X0.550000X0*%
%TD*%
%TA.AperFunction,ComponentPad*%
%ADD19RoundRect,0.250001X1.149999X1.149999X-1.149999X1.149999X-1.149999X-1.149999X1.149999X-1.149999X0*%
%TD*%
%TA.AperFunction,ComponentPad*%
%ADD20RoundRect,0.250001X-1.149999X-1.149999X1.149999X-1.149999X1.149999X1.149999X-1.149999X1.149999X0*%
%TD*%
%TA.AperFunction,ComponentPad*%
%ADD21RoundRect,0.250001X1.149999X-1.149999X1.149999X1.149999X-1.149999X1.149999X-1.149999X-1.149999X0*%
%TD*%
%TA.AperFunction,ComponentPad*%
%ADD22R,3.500000X3.500000*%
%TD*%
%TA.AperFunction,ComponentPad*%
%ADD23RoundRect,0.750000X0.750000X1.000000X-0.750000X1.000000X-0.750000X-1.000000X0.750000X-1.000000X0*%
%TD*%
%TA.AperFunction,ComponentPad*%
%ADD24RoundRect,0.875000X0.875000X0.875000X-0.875000X0.875000X-0.875000X-0.875000X0.875000X-0.875000X0*%
%TD*%
%TA.AperFunction,ComponentPad*%
%ADD25C,2.000000*%
%TD*%
%TA.AperFunction,ViaPad*%
%ADD26C,2.500000*%
%TD*%
%TA.AperFunction,Conductor*%
%ADD27C,1.000000*%
%TD*%
%TA.AperFunction,Conductor*%
%ADD28C,3.000000*%
%TD*%
G04 APERTURE END LIST*
D10*
%TO.P,J7,1,Pin_1*%
%TO.N,VCC*%
X127025000Y69550000D03*
D11*
%TO.P,J7,2,Pin_2*%
%TO.N,GND*%
X127025000Y67010000D03*
%TO.P,J7,3,Pin_3*%
%TO.N,/TXD*%
X127025000Y64470000D03*
%TO.P,J7,4,Pin_4*%
%TO.N,/RXD*%
X127025000Y61930000D03*
%TD*%
D12*
%TO.P,C3,1*%
%TO.N,Net-(U1-XTAL2{slash}PB7)*%
X63815000Y27140000D03*
D13*
%TO.P,C3,2*%
%TO.N,GND*%
X61315000Y27140000D03*
%TD*%
%TO.P,R13,1*%
%TO.N,Net-(U1-PB0)*%
X51580000Y57250000D03*
D14*
%TO.P,R13,2*%
%TO.N,/B_SELECT*%
X41420000Y57250000D03*
%TD*%
D12*
%TO.P,C1,1*%
%TO.N,GND*%
X106315000Y38140000D03*
D13*
%TO.P,C1,2*%
%TO.N,VCC*%
X106315000Y35640000D03*
%TD*%
%TO.P,220UF1,1*%
%TO.N,VCC*%
X124000000Y81750000D03*
%TO.P,220UF1,2*%
%TO.N,GND*%
X124000000Y84250000D03*
%TD*%
%TO.P,R2,1*%
%TO.N,Net-(U1-PD2)*%
X51080000Y48250000D03*
D14*
%TO.P,R2,2*%
%TO.N,/JS_UP*%
X40920000Y48250000D03*
%TD*%
D13*
%TO.P,R3,1*%
%TO.N,Net-(U1-PD3)*%
X51080000Y43250000D03*
D14*
%TO.P,R3,2*%
%TO.N,/JS_DOWN*%
X40920000Y43250000D03*
%TD*%
D13*
%TO.P,R4,1*%
%TO.N,Net-(U1-PD4)*%
X51580000Y38250000D03*
D14*
%TO.P,R4,2*%
%TO.N,/JS_LEFT*%
X41420000Y38250000D03*
%TD*%
D13*
%TO.P,R5,1*%
%TO.N,Net-(U1-PD5)*%
X51830000Y33250000D03*
D14*
%TO.P,R5,2*%
%TO.N,/JS_RIGHT*%
X41670000Y33250000D03*
%TD*%
D13*
%TO.P,R6,1*%
%TO.N,Net-(U1-PD6)*%
X51580000Y67500000D03*
D14*
%TO.P,R6,2*%
%TO.N,/B_EXIT*%
X41420000Y67500000D03*
%TD*%
D10*
%TO.P,J3,1,Pin_1*%
%TO.N,GND*%
X121750000Y96250000D03*
D11*
%TO.P,J3,2,Pin_2*%
%TO.N,Net-(J3-Pin_2)*%
X119210000Y96250000D03*
%TO.P,J3,3,Pin_3*%
%TO.N,VCC*%
X116670000Y96250000D03*
%TD*%
D15*
%TO.P,J4,1,Pin_1*%
%TO.N,/MOSI*%
X117000000Y8210000D03*
D11*
%TO.P,J4,2,Pin_2*%
%TO.N,VCC*%
X117000000Y5670000D03*
%TO.P,J4,3,Pin_3*%
%TO.N,unconnected-(J4-Pin_3-Pad3)*%
X114460000Y8210000D03*
%TO.P,J4,4,Pin_4*%
%TO.N,unconnected-(J4-Pin_4-Pad4)*%
X114460000Y5670000D03*
%TO.P,J4,5,Pin_5*%
%TO.N,/RESET*%
X111920000Y8210000D03*
%TO.P,J4,6,Pin_6*%
%TO.N,unconnected-(J4-Pin_6-Pad6)*%
X111920000Y5670000D03*
%TO.P,J4,7,Pin_7*%
%TO.N,/SCK*%
X109380000Y8210000D03*
%TO.P,J4,8,Pin_8*%
%TO.N,GND*%
X109380000Y5670000D03*
%TO.P,J4,9,Pin_9*%
%TO.N,/MISO*%
X106840000Y8210000D03*
%TO.P,J4,10,Pin_10*%
%TO.N,GND*%
X106840000Y5670000D03*
%TD*%
D12*
%TO.P,C4,1*%
%TO.N,GND*%
X72794888Y41500000D03*
D13*
%TO.P,C4,2*%
%TO.N,VCC*%
X75294888Y41500000D03*
%TD*%
D16*
%TO.P,J6,4,Pin_4*%
%TO.N,/JS_RIGHT*%
X33000000Y33250000D03*
%TO.P,J6,3,Pin_3*%
%TO.N,/JS_LEFT*%
X33000000Y38250000D03*
%TO.P,J6,2,Pin_2*%
%TO.N,/JS_DOWN*%
X33000000Y43250000D03*
D17*
%TO.P,J6,1,Pin_1*%
%TO.N,/JS_UP*%
X33000000Y48250000D03*
%TD*%
D12*
%TO.P,C2,1*%
%TO.N,Net-(U1-XTAL1{slash}PB6)*%
X63520113Y37640000D03*
D13*
%TO.P,C2,2*%
%TO.N,GND*%
X61020113Y37640000D03*
%TD*%
%TO.P,R7,1*%
%TO.N,Net-(U1-PD7)*%
X51580000Y62750000D03*
D14*
%TO.P,R7,2*%
%TO.N,/B_START*%
X41420000Y62750000D03*
%TD*%
D13*
%TO.P,R14,1*%
%TO.N,/B_SELECT*%
X24080000Y57250000D03*
D14*
%TO.P,R14,2*%
%TO.N,VCC*%
X13920000Y57250000D03*
%TD*%
D13*
%TO.P,R15,1*%
%TO.N,/B_START*%
X24080000Y62250000D03*
D14*
%TO.P,R15,2*%
%TO.N,VCC*%
X13920000Y62250000D03*
%TD*%
D13*
%TO.P,R16,1*%
%TO.N,/B_EXIT*%
X24080000Y67250000D03*
D14*
%TO.P,R16,2*%
%TO.N,VCC*%
X13920000Y67250000D03*
%TD*%
D13*
%TO.P,R17,1*%
%TO.N,/JS_RIGHT*%
X24580000Y33750000D03*
D14*
%TO.P,R17,2*%
%TO.N,VCC*%
X14420000Y33750000D03*
%TD*%
D13*
%TO.P,R18,1*%
%TO.N,/JS_LEFT*%
X24580000Y38250000D03*
D14*
%TO.P,R18,2*%
%TO.N,VCC*%
X14420000Y38250000D03*
%TD*%
D13*
%TO.P,R19,1*%
%TO.N,/JS_DOWN*%
X24580000Y43250000D03*
D14*
%TO.P,R19,2*%
%TO.N,VCC*%
X14420000Y43250000D03*
%TD*%
D13*
%TO.P,R20,1*%
%TO.N,/JS_UP*%
X24580000Y48250000D03*
D14*
%TO.P,R20,2*%
%TO.N,VCC*%
X14420000Y48250000D03*
%TD*%
D13*
%TO.P,R21,1*%
%TO.N,VCC*%
X77875000Y69125000D03*
D14*
%TO.P,R21,2*%
%TO.N,/SDA*%
X77875000Y79285000D03*
%TD*%
D13*
%TO.P,R22,1*%
%TO.N,VCC*%
X83875000Y69045000D03*
D14*
%TO.P,R22,2*%
%TO.N,/SCL*%
X83875000Y79205000D03*
%TD*%
D13*
%TO.P,R24,1*%
%TO.N,/DIN_GRID*%
X98000000Y86580000D03*
D14*
%TO.P,R24,2*%
%TO.N,VCC*%
X98000000Y76420000D03*
%TD*%
D13*
%TO.P,U1,28,PC5*%
%TO.N,/SCL*%
X93815000Y54260000D03*
%TO.P,U1,27,PC4*%
%TO.N,/SDA*%
X93815000Y51720000D03*
%TO.P,U1,26,PC3*%
%TO.N,unconnected-(U1-PC3-Pad26)*%
X93815000Y49180000D03*
%TO.P,U1,25,PC2*%
%TO.N,unconnected-(U1-PC2-Pad25)*%
X93815000Y46640000D03*
%TO.P,U1,24,PC1*%
%TO.N,unconnected-(U1-PC1-Pad24)*%
X93815000Y44100000D03*
%TO.P,U1,23,PC0*%
%TO.N,/DIN_GRID*%
X93815000Y41560000D03*
%TO.P,U1,22,GND*%
%TO.N,GND*%
X93815000Y39020000D03*
%TO.P,U1,21,AREF*%
%TO.N,Net-(U1-AREF)*%
X93815000Y36480000D03*
%TO.P,U1,20,AVCC*%
%TO.N,VCC*%
X93815000Y33940000D03*
%TO.P,U1,19,PB5*%
%TO.N,/SCK*%
X93815000Y31400000D03*
%TO.P,U1,18,PB4*%
%TO.N,/MISO*%
X93815000Y28860000D03*
%TO.P,U1,17,PB3*%
%TO.N,/MOSI*%
X93815000Y26320000D03*
%TO.P,U1,16,PB2*%
%TO.N,unconnected-(U1-PB2-Pad16)*%
X93815000Y23780000D03*
%TO.P,U1,15,PB1*%
%TO.N,unconnected-(U1-PB1-Pad15)*%
X93815000Y21240000D03*
%TO.P,U1,14,PB0*%
%TO.N,Net-(U1-PB0)*%
X86195000Y21240000D03*
%TO.P,U1,13,PD7*%
%TO.N,Net-(U1-PD7)*%
X86195000Y23780000D03*
%TO.P,U1,12,PD6*%
%TO.N,Net-(U1-PD6)*%
X86195000Y26320000D03*
%TO.P,U1,11,PD5*%
%TO.N,Net-(U1-PD5)*%
X86195000Y28860000D03*
%TO.P,U1,10,XTAL2/PB7*%
%TO.N,Net-(U1-XTAL2{slash}PB7)*%
X86195000Y31400000D03*
%TO.P,U1,9,XTAL1/PB6*%
%TO.N,Net-(U1-XTAL1{slash}PB6)*%
X86195000Y33940000D03*
%TO.P,U1,8,GND*%
%TO.N,GND*%
X86195000Y36480000D03*
%TO.P,U1,7,VCC*%
%TO.N,VCC*%
X86195000Y39020000D03*
%TO.P,U1,6,PD4*%
%TO.N,Net-(U1-PD4)*%
X86195000Y41560000D03*
%TO.P,U1,5,PD3*%
%TO.N,Net-(U1-PD3)*%
X86195000Y44100000D03*
%TO.P,U1,4,PD2*%
%TO.N,Net-(U1-PD2)*%
X86195000Y46640000D03*
%TO.P,U1,3,PD1*%
%TO.N,/TXD*%
X86195000Y49180000D03*
%TO.P,U1,2,PD0*%
%TO.N,/RXD*%
X86195000Y51720000D03*
D18*
%TO.P,U1,1,~{RESET}/PC6*%
%TO.N,/RESET*%
X86195000Y54260000D03*
%TD*%
D11*
%TO.P,Y1,1,1*%
%TO.N,Net-(U1-XTAL2{slash}PB7)*%
X73815000Y30140000D03*
%TO.P,Y1,2,2*%
%TO.N,Net-(U1-XTAL1{slash}PB6)*%
X73815000Y35140000D03*
%TD*%
D12*
%TO.P,C5,1*%
%TO.N,GND*%
X105250000Y43500000D03*
D13*
%TO.P,C5,2*%
%TO.N,Net-(U1-AREF)*%
X102750000Y43500000D03*
%TD*%
D17*
%TO.P,J5,1,Pin_1*%
%TO.N,/B_EXIT*%
X33000000Y67250000D03*
D16*
%TO.P,J5,2,Pin_2*%
%TO.N,/B_START*%
X33000000Y62250000D03*
%TO.P,J5,3,Pin_3*%
%TO.N,/B_SELECT*%
X33000000Y57250000D03*
%TD*%
D19*
%TO.P,J1,1,Pin_1*%
%TO.N,VCC*%
X108000000Y92750000D03*
D16*
%TO.P,J1,2,Pin_2*%
%TO.N,GND*%
X103000000Y92750000D03*
%TO.P,J1,3,Pin_3*%
%TO.N,/DIN_GRID*%
X98000000Y92750000D03*
%TD*%
D20*
%TO.P,J8,1,Pin_1*%
%TO.N,GND*%
X67875000Y88125000D03*
D16*
%TO.P,J8,2,Pin_2*%
%TO.N,VCC*%
X72875000Y88125000D03*
%TO.P,J8,3,Pin_3*%
%TO.N,/SDA*%
X77875000Y88125000D03*
%TO.P,J8,4,Pin_4*%
%TO.N,/SCL*%
X82875000Y88125000D03*
%TD*%
D21*
%TO.P,J9,1,Pin_1*%
%TO.N,GND*%
X132000000Y37490000D03*
D16*
%TO.P,J9,2,Pin_2*%
X132000000Y42490000D03*
%TO.P,J9,3,Pin_3*%
X132000000Y47490000D03*
%TO.P,J9,4,Pin_4*%
X132000000Y52490000D03*
%TD*%
D21*
%TO.P,J10,1,Pin_1*%
%TO.N,VCC*%
X132000000Y13490000D03*
D16*
%TO.P,J10,2,Pin_2*%
X132000000Y18490000D03*
%TO.P,J10,3,Pin_3*%
X132000000Y23490000D03*
%TO.P,J10,4,Pin_4*%
X132000000Y28490000D03*
%TD*%
D22*
%TO.P,J11,1*%
%TO.N,VCC*%
X138750000Y82792500D03*
D23*
%TO.P,J11,2*%
%TO.N,unconnected-(J11-Pad2)*%
X144750000Y82792500D03*
D24*
%TO.P,J11,3*%
%TO.N,GND*%
X141750000Y87492500D03*
%TD*%
D25*
%TO.P,SW1,1,1*%
%TO.N,/RESET*%
X129750000Y97750000D03*
X136250000Y97750000D03*
%TO.P,SW1,2,2*%
%TO.N,Net-(J3-Pin_2)*%
X129750000Y93250000D03*
X136250000Y93250000D03*
%TD*%
D26*
%TO.N,Net-(U1-PD6)*%
X77500000Y25000000D03*
X64000000Y65250000D03*
%TO.N,/RESET*%
X100500000Y72500000D03*
%TO.N,/RXD*%
X118000000Y61750000D03*
%TO.N,/TXD*%
X81500000Y55000000D03*
%TO.N,Net-(U1-PB0)*%
X57000000Y55000000D03*
%TO.N,/RESET*%
X107250000Y54000000D03*
%TO.N,Net-(U1-PD7)*%
X75750000Y21500000D03*
%TO.N,/MOSI*%
X115750000Y15750000D03*
%TO.N,/TXD*%
X111250000Y58250000D03*
%TO.N,/RXD*%
X91250000Y61750000D03*
%TO.N,Net-(U1-PD7)*%
X63000000Y60500000D03*
%TO.N,/RESET*%
X89250000Y64750000D03*
%TO.N,Net-(U1-PB0)*%
X74000000Y17250000D03*
%TO.N,/RESET*%
X112000000Y30000000D03*
%TO.N,/MOSI*%
X100250000Y17500000D03*
%TO.N,/RESET*%
X114750000Y100000000D03*
%TD*%
D27*
%TO.N,VCC*%
X77774888Y39020000D02*
X86195000Y39020000D01*
%TO.N,/MISO*%
X106840000Y16966370D02*
X106840000Y8210000D01*
%TO.N,Net-(J3-Pin_2)*%
X126000000Y93250000D02*
X129750000Y93250000D01*
%TO.N,/RESET*%
X86195000Y61695000D02*
X89250000Y64750000D01*
%TO.N,/SCL*%
X82875000Y88125000D02*
X82875000Y80205000D01*
%TO.N,Net-(U1-XTAL2{slash}PB7)*%
X63815000Y27140000D02*
X70815000Y27140000D01*
%TO.N,VCC*%
X88980000Y39020000D02*
X90250000Y37750000D01*
%TO.N,Net-(U1-XTAL1{slash}PB6)*%
X71315000Y37640000D02*
X73815000Y35140000D01*
%TO.N,/SCK*%
X96350000Y31400000D02*
X109380000Y18370000D01*
%TO.N,Net-(U1-XTAL1{slash}PB6)*%
X75015000Y33940000D02*
X86195000Y33940000D01*
%TO.N,VCC*%
X124760000Y28490000D02*
X132000000Y28490000D01*
%TO.N,/SDA*%
X79750000Y93000000D02*
X77875000Y91125000D01*
%TO.N,/JS_DOWN*%
X33000000Y43250000D02*
X40920000Y43250000D01*
%TO.N,/SCK*%
X93815000Y31400000D02*
X96350000Y31400000D01*
%TO.N,Net-(J3-Pin_2)*%
X125250000Y92500000D02*
X126000000Y93250000D01*
%TO.N,VCC*%
X124180000Y5670000D02*
X132000000Y13490000D01*
D28*
X14420000Y33750000D02*
X14420000Y66750000D01*
X14420000Y66750000D02*
X13920000Y67250000D01*
D27*
%TO.N,Net-(U1-PD7)*%
X51580000Y62750000D02*
X60750000Y62750000D01*
%TO.N,Net-(U1-PB0)*%
X54750000Y57250000D02*
X57000000Y55000000D01*
%TO.N,/SDA*%
X88500000Y74750000D02*
X88500000Y90250000D01*
%TO.N,/RXD*%
X118000000Y61750000D02*
X126845000Y61750000D01*
%TO.N,/TXD*%
X86195000Y49180000D02*
X84820000Y49180000D01*
%TO.N,/RXD*%
X126845000Y61750000D02*
X127025000Y61930000D01*
%TO.N,VCC*%
X77875000Y69125000D02*
X76375000Y69125000D01*
X106315000Y35640000D02*
X117610000Y35640000D01*
%TO.N,/JS_UP*%
X33000000Y48250000D02*
X40920000Y48250000D01*
%TO.N,/B_SELECT*%
X41420000Y57250000D02*
X33000000Y57250000D01*
%TO.N,/JS_RIGHT*%
X32500000Y33750000D02*
X33000000Y33250000D01*
%TO.N,Net-(U1-PD3)*%
X51080000Y43250000D02*
X55750000Y43250000D01*
%TO.N,Net-(U1-PD4)*%
X51580000Y38250000D02*
X54250000Y38250000D01*
D28*
%TO.N,VCC*%
X13920000Y78670000D02*
X32500000Y97250000D01*
D27*
%TO.N,Net-(U1-PD5)*%
X51830000Y33250000D02*
X51830000Y31920000D01*
%TO.N,/JS_DOWN*%
X24580000Y43250000D02*
X33000000Y43250000D01*
%TO.N,/MOSI*%
X98000000Y23266370D02*
X98000000Y19750000D01*
%TO.N,/SDA*%
X99000000Y64250000D02*
X88500000Y74750000D01*
%TO.N,Net-(U1-PD2)*%
X82610000Y46640000D02*
X86195000Y46640000D01*
%TO.N,Net-(U1-PD4)*%
X62250000Y46250000D02*
X75750000Y46250000D01*
%TO.N,/JS_UP*%
X24580000Y48250000D02*
X33000000Y48250000D01*
%TO.N,Net-(U1-PD7)*%
X60750000Y62750000D02*
X63000000Y60500000D01*
%TO.N,Net-(U1-PD6)*%
X77500000Y25000000D02*
X78820000Y26320000D01*
%TO.N,Net-(U1-PB0)*%
X79750000Y17250000D02*
X83740000Y21240000D01*
D28*
%TO.N,VCC*%
X138750000Y72250000D02*
X138750000Y82792500D01*
D27*
%TO.N,/SDA*%
X77875000Y88125000D02*
X77875000Y79285000D01*
%TO.N,Net-(U1-AREF)*%
X93815000Y36480000D02*
X97230000Y36480000D01*
%TO.N,/RESET*%
X129750000Y97750000D02*
X136250000Y97750000D01*
X107250000Y65750000D02*
X100500000Y72500000D01*
X111920000Y8210000D02*
X111920000Y29920000D01*
X107250000Y54000000D02*
X107250000Y65750000D01*
%TO.N,/MISO*%
X94946370Y28860000D02*
X106840000Y16966370D01*
D28*
%TO.N,VCC*%
X132000000Y18490000D02*
X132000000Y13490000D01*
X95000000Y99250000D02*
X105500000Y99250000D01*
X73000000Y97250000D02*
X93000000Y97250000D01*
X32500000Y97250000D02*
X73000000Y97250000D01*
X132000000Y23490000D02*
X135990000Y23490000D01*
X105500000Y99250000D02*
X108000000Y96750000D01*
X135990000Y23490000D02*
X143750000Y31250000D01*
X143750000Y67250000D02*
X138750000Y72250000D01*
X13920000Y67250000D02*
X13920000Y78670000D01*
X108000000Y96750000D02*
X108000000Y92750000D01*
X143750000Y31250000D02*
X143750000Y67250000D01*
D27*
%TO.N,Net-(U1-PD3)*%
X55750000Y43250000D02*
X61000000Y48500000D01*
%TO.N,Net-(U1-PD4)*%
X75750000Y46250000D02*
X80440000Y41560000D01*
%TO.N,/TXD*%
X81500000Y52500000D02*
X81500000Y55000000D01*
X119280000Y64470000D02*
X127025000Y64470000D01*
X115000000Y64500000D02*
X119250000Y64500000D01*
%TO.N,Net-(U1-PD2)*%
X59750000Y51000000D02*
X78250000Y51000000D01*
%TO.N,/RESET*%
X86195000Y54260000D02*
X86195000Y61695000D01*
%TO.N,/DIN_GRID*%
X93500000Y74000000D02*
X93500000Y82750000D01*
D28*
%TO.N,VCC*%
X72875000Y95625000D02*
X72875000Y88125000D01*
D27*
X90250000Y35500000D02*
X91810000Y33940000D01*
%TO.N,Net-(J3-Pin_2)*%
X119210000Y95047919D02*
X121757919Y92500000D01*
%TO.N,/B_EXIT*%
X24080000Y67250000D02*
X33000000Y67250000D01*
%TO.N,/DIN_GRID*%
X96810000Y41560000D02*
X98750000Y43500000D01*
X93500000Y82750000D02*
X97330000Y86580000D01*
%TO.N,VCC*%
X117610000Y35640000D02*
X124760000Y28490000D01*
%TO.N,/JS_LEFT*%
X33000000Y38250000D02*
X41420000Y38250000D01*
%TO.N,/B_START*%
X24080000Y62250000D02*
X33000000Y62250000D01*
D28*
%TO.N,VCC*%
X73000000Y97250000D02*
X73000000Y95750000D01*
D27*
%TO.N,/RXD*%
X89500000Y60000000D02*
X91250000Y61750000D01*
X86195000Y51720000D02*
X87970000Y51720000D01*
X87970000Y51720000D02*
X89500000Y53250000D01*
X89500000Y53250000D02*
X89500000Y60000000D01*
%TO.N,/TXD*%
X84820000Y49180000D02*
X81500000Y52500000D01*
X111250000Y58250000D02*
X113250000Y60250000D01*
X113250000Y60250000D02*
X113250000Y62750000D01*
X113250000Y62750000D02*
X115000000Y64500000D01*
X119250000Y64500000D02*
X119280000Y64470000D01*
%TO.N,Net-(U1-PD5)*%
X60750000Y23000000D02*
X71000000Y23000000D01*
%TO.N,Net-(U1-PD3)*%
X77250000Y48500000D02*
X81650000Y44100000D01*
%TO.N,VCC*%
X76375000Y69125000D02*
X72875000Y72625000D01*
%TO.N,/DIN_GRID*%
X98000000Y92750000D02*
X98000000Y86580000D01*
%TO.N,Net-(J3-Pin_2)*%
X121757919Y92500000D02*
X125250000Y92500000D01*
%TO.N,/DIN_GRID*%
X101750000Y52250000D02*
X101750000Y65750000D01*
%TO.N,/MOSI*%
X98000000Y19750000D02*
X100250000Y17500000D01*
%TO.N,Net-(U1-PD7)*%
X81280000Y23780000D02*
X86195000Y23780000D01*
%TO.N,VCC*%
X116670000Y96250000D02*
X116670000Y84080000D01*
%TO.N,Net-(U1-PB0)*%
X83740000Y21240000D02*
X86195000Y21240000D01*
%TO.N,Net-(U1-PD6)*%
X78820000Y26320000D02*
X86195000Y26320000D01*
%TO.N,Net-(U1-PD2)*%
X57000000Y48250000D02*
X59750000Y51000000D01*
%TO.N,Net-(U1-XTAL2{slash}PB7)*%
X75075000Y31400000D02*
X86195000Y31400000D01*
%TO.N,/RESET*%
X115250000Y100500000D02*
X127000000Y100500000D01*
%TO.N,/DIN_GRID*%
X93815000Y41560000D02*
X96810000Y41560000D01*
X97330000Y86580000D02*
X98000000Y86580000D01*
%TO.N,Net-(J3-Pin_2)*%
X119210000Y96250000D02*
X119210000Y95047919D01*
%TO.N,Net-(U1-PD3)*%
X81650000Y44100000D02*
X86195000Y44100000D01*
%TO.N,/SDA*%
X99000000Y55000000D02*
X99000000Y64250000D01*
%TO.N,VCC*%
X104830000Y76420000D02*
X107500000Y73750000D01*
X93815000Y33940000D02*
X104615000Y33940000D01*
%TO.N,Net-(U1-PD6)*%
X61750000Y67500000D02*
X64000000Y65250000D01*
%TO.N,/SDA*%
X93815000Y51720000D02*
X95720000Y51720000D01*
X77875000Y91125000D02*
X77875000Y88125000D01*
%TO.N,Net-(U1-PD4)*%
X80440000Y41560000D02*
X86195000Y41560000D01*
%TO.N,VCC*%
X117000000Y5670000D02*
X124180000Y5670000D01*
X77955000Y69045000D02*
X77875000Y69125000D01*
X86195000Y39020000D02*
X88980000Y39020000D01*
%TO.N,Net-(U1-XTAL1{slash}PB6)*%
X63520113Y37640000D02*
X71315000Y37640000D01*
%TO.N,Net-(U1-XTAL2{slash}PB7)*%
X70815000Y27140000D02*
X73815000Y30140000D01*
%TO.N,Net-(U1-AREF)*%
X102750000Y42000000D02*
X102750000Y43500000D01*
%TO.N,/DIN_GRID*%
X98750000Y43500000D02*
X98750000Y49250000D01*
%TO.N,Net-(U1-PB0)*%
X74000000Y17250000D02*
X79750000Y17250000D01*
%TO.N,/SDA*%
X88500000Y90250000D02*
X85750000Y93000000D01*
%TO.N,VCC*%
X116670000Y84080000D02*
X118750000Y82000000D01*
%TO.N,/JS_RIGHT*%
X33000000Y33250000D02*
X41670000Y33250000D01*
%TO.N,/SCL*%
X96500000Y56945000D02*
X96500000Y62750000D01*
%TO.N,/SDA*%
X85750000Y93000000D02*
X79750000Y93000000D01*
%TO.N,/SCL*%
X96500000Y62750000D02*
X83875000Y75375000D01*
%TO.N,/SDA*%
X95720000Y51720000D02*
X99000000Y55000000D01*
%TO.N,/DIN_GRID*%
X101750000Y65750000D02*
X93500000Y74000000D01*
%TO.N,/B_EXIT*%
X33250000Y67500000D02*
X33000000Y67250000D01*
%TO.N,Net-(U1-XTAL1{slash}PB6)*%
X73815000Y35140000D02*
X75015000Y33940000D01*
%TO.N,Net-(U1-AREF)*%
X97230000Y36480000D02*
X102750000Y42000000D01*
D28*
%TO.N,VCC*%
X93000000Y97250000D02*
X95000000Y99250000D01*
D27*
%TO.N,/RESET*%
X111920000Y29920000D02*
X112000000Y30000000D01*
%TO.N,/JS_LEFT*%
X24580000Y38250000D02*
X33000000Y38250000D01*
%TO.N,/B_START*%
X33500000Y62750000D02*
X33000000Y62250000D01*
%TO.N,Net-(U1-PD5)*%
X71000000Y23000000D02*
X76860000Y28860000D01*
X76860000Y28860000D02*
X86195000Y28860000D01*
%TO.N,Net-(U1-PD2)*%
X51080000Y48250000D02*
X57000000Y48250000D01*
%TO.N,Net-(U1-PD4)*%
X54250000Y38250000D02*
X62250000Y46250000D01*
%TO.N,VCC*%
X72875000Y72625000D02*
X72875000Y88125000D01*
%TO.N,/RESET*%
X114750000Y100000000D02*
X115250000Y100500000D01*
%TO.N,/B_START*%
X41420000Y62750000D02*
X33500000Y62750000D01*
%TO.N,/DIN_GRID*%
X98750000Y49250000D02*
X101750000Y52250000D01*
%TO.N,VCC*%
X90250000Y37750000D02*
X90250000Y35500000D01*
D28*
X132000000Y18490000D02*
X132000000Y28490000D01*
D27*
%TO.N,/SCL*%
X93815000Y54260000D02*
X96500000Y56945000D01*
%TO.N,/SCK*%
X109380000Y18370000D02*
X109380000Y8210000D01*
%TO.N,VCC*%
X91810000Y33940000D02*
X93815000Y33940000D01*
X75294888Y41500000D02*
X77774888Y39020000D01*
%TO.N,Net-(J3-Pin_2)*%
X129750000Y93250000D02*
X136250000Y93250000D01*
%TO.N,Net-(U1-PD2)*%
X78250000Y51000000D02*
X82610000Y46640000D01*
%TO.N,/MOSI*%
X93815000Y26320000D02*
X94946370Y26320000D01*
%TO.N,Net-(U1-PB0)*%
X51580000Y57250000D02*
X54750000Y57250000D01*
%TO.N,Net-(U1-PD7)*%
X75750000Y21500000D02*
X79000000Y21500000D01*
%TO.N,/SCL*%
X83875000Y75375000D02*
X83875000Y79205000D01*
%TO.N,/RESET*%
X127000000Y100500000D02*
X129750000Y97750000D01*
%TO.N,Net-(U1-PD7)*%
X79000000Y21500000D02*
X81280000Y23780000D01*
%TO.N,/MOSI*%
X94946370Y26320000D02*
X98000000Y23266370D01*
%TO.N,VCC*%
X104615000Y33940000D02*
X106315000Y35640000D01*
%TO.N,Net-(U1-PD5)*%
X51830000Y31920000D02*
X60750000Y23000000D01*
%TO.N,/MISO*%
X93815000Y28860000D02*
X94946370Y28860000D01*
%TO.N,/JS_RIGHT*%
X24580000Y33750000D02*
X32500000Y33750000D01*
%TO.N,Net-(U1-PD3)*%
X61000000Y48500000D02*
X77250000Y48500000D01*
%TO.N,/B_EXIT*%
X41420000Y67500000D02*
X33250000Y67500000D01*
%TO.N,VCC*%
X98000000Y76420000D02*
X104830000Y76420000D01*
X83875000Y69045000D02*
X77955000Y69045000D01*
D28*
X73000000Y95750000D02*
X72875000Y95625000D01*
D27*
%TO.N,/MOSI*%
X117000000Y14500000D02*
X117000000Y8210000D01*
X115750000Y15750000D02*
X117000000Y14500000D01*
%TO.N,/SCL*%
X82875000Y80205000D02*
X83875000Y79205000D01*
%TO.N,Net-(U1-PD6)*%
X51580000Y67500000D02*
X61750000Y67500000D01*
%TO.N,/B_SELECT*%
X24080000Y57250000D02*
X33000000Y57250000D01*
%TO.N,Net-(U1-XTAL2{slash}PB7)*%
X73815000Y30140000D02*
X75075000Y31400000D01*
%TD*%
%TA.AperFunction,Conductor*%
%TO.N,VCC*%
G36*
X110765677Y95480315D02*
G01*
X110786319Y95463681D01*
X111963681Y94286319D01*
X111997166Y94224996D01*
X112000000Y94198638D01*
X112000000Y90250000D01*
X114250000Y83249999D01*
X122749986Y83000000D01*
X123618961Y83000000D01*
X123657277Y82993931D01*
X123674572Y82988311D01*
X123695468Y82981522D01*
X123859599Y82955526D01*
X123897648Y82949500D01*
X123897649Y82949500D01*
X124102351Y82949500D01*
X124102352Y82949500D01*
X124163364Y82959163D01*
X124304530Y82981522D01*
X124304531Y82981522D01*
X124307590Y82982516D01*
X124342722Y82993931D01*
X124381039Y83000000D01*
X125750002Y83000000D01*
X130238962Y84246934D01*
X130261408Y84250992D01*
X135994641Y84749534D01*
X136005383Y84750000D01*
X140626000Y84750000D01*
X140693039Y84730315D01*
X140738794Y84677511D01*
X140750000Y84626000D01*
X140750000Y78763988D01*
X140746882Y78736358D01*
X138769067Y70083419D01*
X138734940Y70022451D01*
X138673268Y69989612D01*
X138665248Y69988228D01*
X129772666Y68753148D01*
X129758489Y68751179D01*
X129741431Y68750000D01*
X124764060Y68750000D01*
X124736297Y68753148D01*
X124529639Y68800623D01*
X106343788Y72978454D01*
X106282862Y73012647D01*
X106250091Y73074355D01*
X106247595Y73096195D01*
X105750346Y92986158D01*
X105752715Y93013575D01*
X106230064Y95400318D01*
X106262514Y95462196D01*
X106323266Y95496706D01*
X106351656Y95500000D01*
X110698638Y95500000D01*
X110765677Y95480315D01*
G37*
%TD.AperFunction*%
%TD*%
M02*
