%TF.GenerationSoftware,KiCad,Pcbnew,9.0.1*%
%TF.CreationDate,2025-09-08T04:28:44-04:00*%
%TF.ProjectId,SNAKE_GAME,534e414b-455f-4474-914d-452e6b696361,rev?*%
%TF.SameCoordinates,Original*%
%TF.FileFunction,Legend,Top*%
%TF.FilePolarity,Positive*%
%FSLAX46Y46*%
G04 Gerber Fmt 4.6, Leading zero omitted, Abs format (unit mm)*
G04 Created by KiCad (PCBNEW 9.0.1) date 2025-09-08 04:28:44*
%MOMM*%
%LPD*%
G01*
G04 APERTURE LIST*
%ADD10C,0.150000*%
%ADD11C,0.120000*%
G04 APERTURE END LIST*
D10*
X37333333Y57175180D02*
X37000000Y57651371D01*
X36761905Y57175180D02*
X36761905Y58175180D01*
X36761905Y58175180D02*
X37142857Y58175180D01*
X37142857Y58175180D02*
X37238095Y58127561D01*
X37238095Y58127561D02*
X37285714Y58079942D01*
X37285714Y58079942D02*
X37333333Y57984704D01*
X37333333Y57984704D02*
X37333333Y57841847D01*
X37333333Y57841847D02*
X37285714Y57746609D01*
X37285714Y57746609D02*
X37238095Y57698990D01*
X37238095Y57698990D02*
X37142857Y57651371D01*
X37142857Y57651371D02*
X36761905Y57651371D01*
X38190476Y58175180D02*
X38000000Y58175180D01*
X38000000Y58175180D02*
X37904762Y58127561D01*
X37904762Y58127561D02*
X37857143Y58079942D01*
X37857143Y58079942D02*
X37761905Y57937085D01*
X37761905Y57937085D02*
X37714286Y57746609D01*
X37714286Y57746609D02*
X37714286Y57365657D01*
X37714286Y57365657D02*
X37761905Y57270419D01*
X37761905Y57270419D02*
X37809524Y57222800D01*
X37809524Y57222800D02*
X37904762Y57175180D01*
X37904762Y57175180D02*
X38095238Y57175180D01*
X38095238Y57175180D02*
X38190476Y57222800D01*
X38190476Y57222800D02*
X38238095Y57270419D01*
X38238095Y57270419D02*
X38285714Y57365657D01*
X38285714Y57365657D02*
X38285714Y57603752D01*
X38285714Y57603752D02*
X38238095Y57698990D01*
X38238095Y57698990D02*
X38190476Y57746609D01*
X38190476Y57746609D02*
X38095238Y57794228D01*
X38095238Y57794228D02*
X37904762Y57794228D01*
X37904762Y57794228D02*
X37809524Y57746609D01*
X37809524Y57746609D02*
X37761905Y57698990D01*
X37761905Y57698990D02*
X37714286Y57603752D01*
X115691666Y65365180D02*
X115691666Y64650895D01*
X115691666Y64650895D02*
X115644047Y64508038D01*
X115644047Y64508038D02*
X115548809Y64412800D01*
X115548809Y64412800D02*
X115405952Y64365180D01*
X115405952Y64365180D02*
X115310714Y64365180D01*
X116072619Y65365180D02*
X116739285Y65365180D01*
X116739285Y65365180D02*
X116310714Y64365180D01*
X51398333Y15530419D02*
X51350714Y15482800D01*
X51350714Y15482800D02*
X51207857Y15435180D01*
X51207857Y15435180D02*
X51112619Y15435180D01*
X51112619Y15435180D02*
X50969762Y15482800D01*
X50969762Y15482800D02*
X50874524Y15578038D01*
X50874524Y15578038D02*
X50826905Y15673276D01*
X50826905Y15673276D02*
X50779286Y15863752D01*
X50779286Y15863752D02*
X50779286Y16006609D01*
X50779286Y16006609D02*
X50826905Y16197085D01*
X50826905Y16197085D02*
X50874524Y16292323D01*
X50874524Y16292323D02*
X50969762Y16387561D01*
X50969762Y16387561D02*
X51112619Y16435180D01*
X51112619Y16435180D02*
X51207857Y16435180D01*
X51207857Y16435180D02*
X51350714Y16387561D01*
X51350714Y16387561D02*
X51398333Y16339942D01*
X51731667Y16435180D02*
X52350714Y16435180D01*
X52350714Y16435180D02*
X52017381Y16054228D01*
X52017381Y16054228D02*
X52160238Y16054228D01*
X52160238Y16054228D02*
X52255476Y16006609D01*
X52255476Y16006609D02*
X52303095Y15958990D01*
X52303095Y15958990D02*
X52350714Y15863752D01*
X52350714Y15863752D02*
X52350714Y15625657D01*
X52350714Y15625657D02*
X52303095Y15530419D01*
X52303095Y15530419D02*
X52255476Y15482800D01*
X52255476Y15482800D02*
X52160238Y15435180D01*
X52160238Y15435180D02*
X51874524Y15435180D01*
X51874524Y15435180D02*
X51779286Y15482800D01*
X51779286Y15482800D02*
X51731667Y15530419D01*
X36857142Y46925180D02*
X36523809Y47401371D01*
X36285714Y46925180D02*
X36285714Y47925180D01*
X36285714Y47925180D02*
X36666666Y47925180D01*
X36666666Y47925180D02*
X36761904Y47877561D01*
X36761904Y47877561D02*
X36809523Y47829942D01*
X36809523Y47829942D02*
X36857142Y47734704D01*
X36857142Y47734704D02*
X36857142Y47591847D01*
X36857142Y47591847D02*
X36809523Y47496609D01*
X36809523Y47496609D02*
X36761904Y47448990D01*
X36761904Y47448990D02*
X36666666Y47401371D01*
X36666666Y47401371D02*
X36285714Y47401371D01*
X37809523Y46925180D02*
X37238095Y46925180D01*
X37523809Y46925180D02*
X37523809Y47925180D01*
X37523809Y47925180D02*
X37428571Y47782323D01*
X37428571Y47782323D02*
X37333333Y47687085D01*
X37333333Y47687085D02*
X37238095Y47639466D01*
X38142857Y47925180D02*
X38761904Y47925180D01*
X38761904Y47925180D02*
X38428571Y47544228D01*
X38428571Y47544228D02*
X38571428Y47544228D01*
X38571428Y47544228D02*
X38666666Y47496609D01*
X38666666Y47496609D02*
X38714285Y47448990D01*
X38714285Y47448990D02*
X38761904Y47353752D01*
X38761904Y47353752D02*
X38761904Y47115657D01*
X38761904Y47115657D02*
X38714285Y47020419D01*
X38714285Y47020419D02*
X38666666Y46972800D01*
X38666666Y46972800D02*
X38571428Y46925180D01*
X38571428Y46925180D02*
X38285714Y46925180D01*
X38285714Y46925180D02*
X38190476Y46972800D01*
X38190476Y46972800D02*
X38142857Y47020419D01*
X99424580Y29223333D02*
X99472200Y29175714D01*
X99472200Y29175714D02*
X99519819Y29032857D01*
X99519819Y29032857D02*
X99519819Y28937619D01*
X99519819Y28937619D02*
X99472200Y28794762D01*
X99472200Y28794762D02*
X99376961Y28699524D01*
X99376961Y28699524D02*
X99281723Y28651905D01*
X99281723Y28651905D02*
X99091247Y28604286D01*
X99091247Y28604286D02*
X98948390Y28604286D01*
X98948390Y28604286D02*
X98757914Y28651905D01*
X98757914Y28651905D02*
X98662676Y28699524D01*
X98662676Y28699524D02*
X98567438Y28794762D01*
X98567438Y28794762D02*
X98519819Y28937619D01*
X98519819Y28937619D02*
X98519819Y29032857D01*
X98519819Y29032857D02*
X98567438Y29175714D01*
X98567438Y29175714D02*
X98615057Y29223333D01*
X99519819Y30175714D02*
X99519819Y29604286D01*
X99519819Y29890000D02*
X98519819Y29890000D01*
X98519819Y29890000D02*
X98662676Y29794762D01*
X98662676Y29794762D02*
X98757914Y29699524D01*
X98757914Y29699524D02*
X98805533Y29604286D01*
X110500057Y72833333D02*
X110452438Y72880952D01*
X110452438Y72880952D02*
X110404819Y72976190D01*
X110404819Y72976190D02*
X110404819Y73214285D01*
X110404819Y73214285D02*
X110452438Y73309523D01*
X110452438Y73309523D02*
X110500057Y73357142D01*
X110500057Y73357142D02*
X110595295Y73404761D01*
X110595295Y73404761D02*
X110690533Y73404761D01*
X110690533Y73404761D02*
X110833390Y73357142D01*
X110833390Y73357142D02*
X111404819Y72785714D01*
X111404819Y72785714D02*
X111404819Y73404761D01*
X110500057Y73785714D02*
X110452438Y73833333D01*
X110452438Y73833333D02*
X110404819Y73928571D01*
X110404819Y73928571D02*
X110404819Y74166666D01*
X110404819Y74166666D02*
X110452438Y74261904D01*
X110452438Y74261904D02*
X110500057Y74309523D01*
X110500057Y74309523D02*
X110595295Y74357142D01*
X110595295Y74357142D02*
X110690533Y74357142D01*
X110690533Y74357142D02*
X110833390Y74309523D01*
X110833390Y74309523D02*
X111404819Y73738095D01*
X111404819Y73738095D02*
X111404819Y74357142D01*
X110404819Y74976190D02*
X110404819Y75071428D01*
X110404819Y75071428D02*
X110452438Y75166666D01*
X110452438Y75166666D02*
X110500057Y75214285D01*
X110500057Y75214285D02*
X110595295Y75261904D01*
X110595295Y75261904D02*
X110785771Y75309523D01*
X110785771Y75309523D02*
X111023866Y75309523D01*
X111023866Y75309523D02*
X111214342Y75261904D01*
X111214342Y75261904D02*
X111309580Y75214285D01*
X111309580Y75214285D02*
X111357200Y75166666D01*
X111357200Y75166666D02*
X111404819Y75071428D01*
X111404819Y75071428D02*
X111404819Y74976190D01*
X111404819Y74976190D02*
X111357200Y74880952D01*
X111357200Y74880952D02*
X111309580Y74833333D01*
X111309580Y74833333D02*
X111214342Y74785714D01*
X111214342Y74785714D02*
X111023866Y74738095D01*
X111023866Y74738095D02*
X110785771Y74738095D01*
X110785771Y74738095D02*
X110595295Y74785714D01*
X110595295Y74785714D02*
X110500057Y74833333D01*
X110500057Y74833333D02*
X110452438Y74880952D01*
X110452438Y74880952D02*
X110404819Y74976190D01*
X110404819Y75738095D02*
X111214342Y75738095D01*
X111214342Y75738095D02*
X111309580Y75785714D01*
X111309580Y75785714D02*
X111357200Y75833333D01*
X111357200Y75833333D02*
X111404819Y75928571D01*
X111404819Y75928571D02*
X111404819Y76119047D01*
X111404819Y76119047D02*
X111357200Y76214285D01*
X111357200Y76214285D02*
X111309580Y76261904D01*
X111309580Y76261904D02*
X111214342Y76309523D01*
X111214342Y76309523D02*
X110404819Y76309523D01*
X110881009Y77119047D02*
X110881009Y76785714D01*
X111404819Y76785714D02*
X110404819Y76785714D01*
X110404819Y76785714D02*
X110404819Y77261904D01*
X111404819Y78166666D02*
X111404819Y77595238D01*
X111404819Y77880952D02*
X110404819Y77880952D01*
X110404819Y77880952D02*
X110547676Y77785714D01*
X110547676Y77785714D02*
X110642914Y77690476D01*
X110642914Y77690476D02*
X110690533Y77595238D01*
X36833333Y37925180D02*
X36500000Y38401371D01*
X36261905Y37925180D02*
X36261905Y38925180D01*
X36261905Y38925180D02*
X36642857Y38925180D01*
X36642857Y38925180D02*
X36738095Y38877561D01*
X36738095Y38877561D02*
X36785714Y38829942D01*
X36785714Y38829942D02*
X36833333Y38734704D01*
X36833333Y38734704D02*
X36833333Y38591847D01*
X36833333Y38591847D02*
X36785714Y38496609D01*
X36785714Y38496609D02*
X36738095Y38448990D01*
X36738095Y38448990D02*
X36642857Y38401371D01*
X36642857Y38401371D02*
X36261905Y38401371D01*
X37214286Y38829942D02*
X37261905Y38877561D01*
X37261905Y38877561D02*
X37357143Y38925180D01*
X37357143Y38925180D02*
X37595238Y38925180D01*
X37595238Y38925180D02*
X37690476Y38877561D01*
X37690476Y38877561D02*
X37738095Y38829942D01*
X37738095Y38829942D02*
X37785714Y38734704D01*
X37785714Y38734704D02*
X37785714Y38639466D01*
X37785714Y38639466D02*
X37738095Y38496609D01*
X37738095Y38496609D02*
X37166667Y37925180D01*
X37166667Y37925180D02*
X37785714Y37925180D01*
X36833333Y32925180D02*
X36500000Y33401371D01*
X36261905Y32925180D02*
X36261905Y33925180D01*
X36261905Y33925180D02*
X36642857Y33925180D01*
X36642857Y33925180D02*
X36738095Y33877561D01*
X36738095Y33877561D02*
X36785714Y33829942D01*
X36785714Y33829942D02*
X36833333Y33734704D01*
X36833333Y33734704D02*
X36833333Y33591847D01*
X36833333Y33591847D02*
X36785714Y33496609D01*
X36785714Y33496609D02*
X36738095Y33448990D01*
X36738095Y33448990D02*
X36642857Y33401371D01*
X36642857Y33401371D02*
X36261905Y33401371D01*
X37166667Y33925180D02*
X37785714Y33925180D01*
X37785714Y33925180D02*
X37452381Y33544228D01*
X37452381Y33544228D02*
X37595238Y33544228D01*
X37595238Y33544228D02*
X37690476Y33496609D01*
X37690476Y33496609D02*
X37738095Y33448990D01*
X37738095Y33448990D02*
X37785714Y33353752D01*
X37785714Y33353752D02*
X37785714Y33115657D01*
X37785714Y33115657D02*
X37738095Y33020419D01*
X37738095Y33020419D02*
X37690476Y32972800D01*
X37690476Y32972800D02*
X37595238Y32925180D01*
X37595238Y32925180D02*
X37309524Y32925180D01*
X37309524Y32925180D02*
X37214286Y32972800D01*
X37214286Y32972800D02*
X37166667Y33020419D01*
X37333333Y27925180D02*
X37000000Y28401371D01*
X36761905Y27925180D02*
X36761905Y28925180D01*
X36761905Y28925180D02*
X37142857Y28925180D01*
X37142857Y28925180D02*
X37238095Y28877561D01*
X37238095Y28877561D02*
X37285714Y28829942D01*
X37285714Y28829942D02*
X37333333Y28734704D01*
X37333333Y28734704D02*
X37333333Y28591847D01*
X37333333Y28591847D02*
X37285714Y28496609D01*
X37285714Y28496609D02*
X37238095Y28448990D01*
X37238095Y28448990D02*
X37142857Y28401371D01*
X37142857Y28401371D02*
X36761905Y28401371D01*
X38190476Y28591847D02*
X38190476Y27925180D01*
X37952381Y28972800D02*
X37714286Y28258514D01*
X37714286Y28258514D02*
X38333333Y28258514D01*
X37583333Y22925180D02*
X37250000Y23401371D01*
X37011905Y22925180D02*
X37011905Y23925180D01*
X37011905Y23925180D02*
X37392857Y23925180D01*
X37392857Y23925180D02*
X37488095Y23877561D01*
X37488095Y23877561D02*
X37535714Y23829942D01*
X37535714Y23829942D02*
X37583333Y23734704D01*
X37583333Y23734704D02*
X37583333Y23591847D01*
X37583333Y23591847D02*
X37535714Y23496609D01*
X37535714Y23496609D02*
X37488095Y23448990D01*
X37488095Y23448990D02*
X37392857Y23401371D01*
X37392857Y23401371D02*
X37011905Y23401371D01*
X38488095Y23925180D02*
X38011905Y23925180D01*
X38011905Y23925180D02*
X37964286Y23448990D01*
X37964286Y23448990D02*
X38011905Y23496609D01*
X38011905Y23496609D02*
X38107143Y23544228D01*
X38107143Y23544228D02*
X38345238Y23544228D01*
X38345238Y23544228D02*
X38440476Y23496609D01*
X38440476Y23496609D02*
X38488095Y23448990D01*
X38488095Y23448990D02*
X38535714Y23353752D01*
X38535714Y23353752D02*
X38535714Y23115657D01*
X38535714Y23115657D02*
X38488095Y23020419D01*
X38488095Y23020419D02*
X38440476Y22972800D01*
X38440476Y22972800D02*
X38345238Y22925180D01*
X38345238Y22925180D02*
X38107143Y22925180D01*
X38107143Y22925180D02*
X38011905Y22972800D01*
X38011905Y22972800D02*
X37964286Y23020419D01*
X112974819Y88416666D02*
X113689104Y88416666D01*
X113689104Y88416666D02*
X113831961Y88369047D01*
X113831961Y88369047D02*
X113927200Y88273809D01*
X113927200Y88273809D02*
X113974819Y88130952D01*
X113974819Y88130952D02*
X113974819Y88035714D01*
X112974819Y88797619D02*
X112974819Y89416666D01*
X112974819Y89416666D02*
X113355771Y89083333D01*
X113355771Y89083333D02*
X113355771Y89226190D01*
X113355771Y89226190D02*
X113403390Y89321428D01*
X113403390Y89321428D02*
X113451009Y89369047D01*
X113451009Y89369047D02*
X113546247Y89416666D01*
X113546247Y89416666D02*
X113784342Y89416666D01*
X113784342Y89416666D02*
X113879580Y89369047D01*
X113879580Y89369047D02*
X113927200Y89321428D01*
X113927200Y89321428D02*
X113974819Y89226190D01*
X113974819Y89226190D02*
X113974819Y88940476D01*
X113974819Y88940476D02*
X113927200Y88845238D01*
X113927200Y88845238D02*
X113879580Y88797619D01*
X110804819Y5396666D02*
X111519104Y5396666D01*
X111519104Y5396666D02*
X111661961Y5349047D01*
X111661961Y5349047D02*
X111757200Y5253809D01*
X111757200Y5253809D02*
X111804819Y5110952D01*
X111804819Y5110952D02*
X111804819Y5015714D01*
X111138152Y6301428D02*
X111804819Y6301428D01*
X110757200Y6063333D02*
X111471485Y5825238D01*
X111471485Y5825238D02*
X111471485Y6444285D01*
X62878221Y37390419D02*
X62830602Y37342800D01*
X62830602Y37342800D02*
X62687745Y37295180D01*
X62687745Y37295180D02*
X62592507Y37295180D01*
X62592507Y37295180D02*
X62449650Y37342800D01*
X62449650Y37342800D02*
X62354412Y37438038D01*
X62354412Y37438038D02*
X62306793Y37533276D01*
X62306793Y37533276D02*
X62259174Y37723752D01*
X62259174Y37723752D02*
X62259174Y37866609D01*
X62259174Y37866609D02*
X62306793Y38057085D01*
X62306793Y38057085D02*
X62354412Y38152323D01*
X62354412Y38152323D02*
X62449650Y38247561D01*
X62449650Y38247561D02*
X62592507Y38295180D01*
X62592507Y38295180D02*
X62687745Y38295180D01*
X62687745Y38295180D02*
X62830602Y38247561D01*
X62830602Y38247561D02*
X62878221Y38199942D01*
X63735364Y37961847D02*
X63735364Y37295180D01*
X63497269Y38342800D02*
X63259174Y37628514D01*
X63259174Y37628514D02*
X63878221Y37628514D01*
X28574819Y33166666D02*
X29289104Y33166666D01*
X29289104Y33166666D02*
X29431961Y33119047D01*
X29431961Y33119047D02*
X29527200Y33023809D01*
X29527200Y33023809D02*
X29574819Y32880952D01*
X29574819Y32880952D02*
X29574819Y32785714D01*
X28574819Y34071428D02*
X28574819Y33880952D01*
X28574819Y33880952D02*
X28622438Y33785714D01*
X28622438Y33785714D02*
X28670057Y33738095D01*
X28670057Y33738095D02*
X28812914Y33642857D01*
X28812914Y33642857D02*
X29003390Y33595238D01*
X29003390Y33595238D02*
X29384342Y33595238D01*
X29384342Y33595238D02*
X29479580Y33642857D01*
X29479580Y33642857D02*
X29527200Y33690476D01*
X29527200Y33690476D02*
X29574819Y33785714D01*
X29574819Y33785714D02*
X29574819Y33976190D01*
X29574819Y33976190D02*
X29527200Y34071428D01*
X29527200Y34071428D02*
X29479580Y34119047D01*
X29479580Y34119047D02*
X29384342Y34166666D01*
X29384342Y34166666D02*
X29146247Y34166666D01*
X29146247Y34166666D02*
X29051009Y34119047D01*
X29051009Y34119047D02*
X29003390Y34071428D01*
X29003390Y34071428D02*
X28955771Y33976190D01*
X28955771Y33976190D02*
X28955771Y33785714D01*
X28955771Y33785714D02*
X29003390Y33690476D01*
X29003390Y33690476D02*
X29051009Y33642857D01*
X29051009Y33642857D02*
X29146247Y33595238D01*
X51103446Y26030419D02*
X51055827Y25982800D01*
X51055827Y25982800D02*
X50912970Y25935180D01*
X50912970Y25935180D02*
X50817732Y25935180D01*
X50817732Y25935180D02*
X50674875Y25982800D01*
X50674875Y25982800D02*
X50579637Y26078038D01*
X50579637Y26078038D02*
X50532018Y26173276D01*
X50532018Y26173276D02*
X50484399Y26363752D01*
X50484399Y26363752D02*
X50484399Y26506609D01*
X50484399Y26506609D02*
X50532018Y26697085D01*
X50532018Y26697085D02*
X50579637Y26792323D01*
X50579637Y26792323D02*
X50674875Y26887561D01*
X50674875Y26887561D02*
X50817732Y26935180D01*
X50817732Y26935180D02*
X50912970Y26935180D01*
X50912970Y26935180D02*
X51055827Y26887561D01*
X51055827Y26887561D02*
X51103446Y26839942D01*
X51484399Y26839942D02*
X51532018Y26887561D01*
X51532018Y26887561D02*
X51627256Y26935180D01*
X51627256Y26935180D02*
X51865351Y26935180D01*
X51865351Y26935180D02*
X51960589Y26887561D01*
X51960589Y26887561D02*
X52008208Y26839942D01*
X52008208Y26839942D02*
X52055827Y26744704D01*
X52055827Y26744704D02*
X52055827Y26649466D01*
X52055827Y26649466D02*
X52008208Y26506609D01*
X52008208Y26506609D02*
X51436780Y25935180D01*
X51436780Y25935180D02*
X52055827Y25935180D01*
X37333333Y52425180D02*
X37000000Y52901371D01*
X36761905Y52425180D02*
X36761905Y53425180D01*
X36761905Y53425180D02*
X37142857Y53425180D01*
X37142857Y53425180D02*
X37238095Y53377561D01*
X37238095Y53377561D02*
X37285714Y53329942D01*
X37285714Y53329942D02*
X37333333Y53234704D01*
X37333333Y53234704D02*
X37333333Y53091847D01*
X37333333Y53091847D02*
X37285714Y52996609D01*
X37285714Y52996609D02*
X37238095Y52948990D01*
X37238095Y52948990D02*
X37142857Y52901371D01*
X37142857Y52901371D02*
X36761905Y52901371D01*
X37666667Y53425180D02*
X38333333Y53425180D01*
X38333333Y53425180D02*
X37904762Y52425180D01*
X9357142Y46925180D02*
X9023809Y47401371D01*
X8785714Y46925180D02*
X8785714Y47925180D01*
X8785714Y47925180D02*
X9166666Y47925180D01*
X9166666Y47925180D02*
X9261904Y47877561D01*
X9261904Y47877561D02*
X9309523Y47829942D01*
X9309523Y47829942D02*
X9357142Y47734704D01*
X9357142Y47734704D02*
X9357142Y47591847D01*
X9357142Y47591847D02*
X9309523Y47496609D01*
X9309523Y47496609D02*
X9261904Y47448990D01*
X9261904Y47448990D02*
X9166666Y47401371D01*
X9166666Y47401371D02*
X8785714Y47401371D01*
X10309523Y46925180D02*
X9738095Y46925180D01*
X10023809Y46925180D02*
X10023809Y47925180D01*
X10023809Y47925180D02*
X9928571Y47782323D01*
X9928571Y47782323D02*
X9833333Y47687085D01*
X9833333Y47687085D02*
X9738095Y47639466D01*
X11166666Y47591847D02*
X11166666Y46925180D01*
X10928571Y47972800D02*
X10690476Y47258514D01*
X10690476Y47258514D02*
X11309523Y47258514D01*
X9357142Y51925180D02*
X9023809Y52401371D01*
X8785714Y51925180D02*
X8785714Y52925180D01*
X8785714Y52925180D02*
X9166666Y52925180D01*
X9166666Y52925180D02*
X9261904Y52877561D01*
X9261904Y52877561D02*
X9309523Y52829942D01*
X9309523Y52829942D02*
X9357142Y52734704D01*
X9357142Y52734704D02*
X9357142Y52591847D01*
X9357142Y52591847D02*
X9309523Y52496609D01*
X9309523Y52496609D02*
X9261904Y52448990D01*
X9261904Y52448990D02*
X9166666Y52401371D01*
X9166666Y52401371D02*
X8785714Y52401371D01*
X10309523Y51925180D02*
X9738095Y51925180D01*
X10023809Y51925180D02*
X10023809Y52925180D01*
X10023809Y52925180D02*
X9928571Y52782323D01*
X9928571Y52782323D02*
X9833333Y52687085D01*
X9833333Y52687085D02*
X9738095Y52639466D01*
X11214285Y52925180D02*
X10738095Y52925180D01*
X10738095Y52925180D02*
X10690476Y52448990D01*
X10690476Y52448990D02*
X10738095Y52496609D01*
X10738095Y52496609D02*
X10833333Y52544228D01*
X10833333Y52544228D02*
X11071428Y52544228D01*
X11071428Y52544228D02*
X11166666Y52496609D01*
X11166666Y52496609D02*
X11214285Y52448990D01*
X11214285Y52448990D02*
X11261904Y52353752D01*
X11261904Y52353752D02*
X11261904Y52115657D01*
X11261904Y52115657D02*
X11214285Y52020419D01*
X11214285Y52020419D02*
X11166666Y51972800D01*
X11166666Y51972800D02*
X11071428Y51925180D01*
X11071428Y51925180D02*
X10833333Y51925180D01*
X10833333Y51925180D02*
X10738095Y51972800D01*
X10738095Y51972800D02*
X10690476Y52020419D01*
X9357142Y56925180D02*
X9023809Y57401371D01*
X8785714Y56925180D02*
X8785714Y57925180D01*
X8785714Y57925180D02*
X9166666Y57925180D01*
X9166666Y57925180D02*
X9261904Y57877561D01*
X9261904Y57877561D02*
X9309523Y57829942D01*
X9309523Y57829942D02*
X9357142Y57734704D01*
X9357142Y57734704D02*
X9357142Y57591847D01*
X9357142Y57591847D02*
X9309523Y57496609D01*
X9309523Y57496609D02*
X9261904Y57448990D01*
X9261904Y57448990D02*
X9166666Y57401371D01*
X9166666Y57401371D02*
X8785714Y57401371D01*
X10309523Y56925180D02*
X9738095Y56925180D01*
X10023809Y56925180D02*
X10023809Y57925180D01*
X10023809Y57925180D02*
X9928571Y57782323D01*
X9928571Y57782323D02*
X9833333Y57687085D01*
X9833333Y57687085D02*
X9738095Y57639466D01*
X11166666Y57925180D02*
X10976190Y57925180D01*
X10976190Y57925180D02*
X10880952Y57877561D01*
X10880952Y57877561D02*
X10833333Y57829942D01*
X10833333Y57829942D02*
X10738095Y57687085D01*
X10738095Y57687085D02*
X10690476Y57496609D01*
X10690476Y57496609D02*
X10690476Y57115657D01*
X10690476Y57115657D02*
X10738095Y57020419D01*
X10738095Y57020419D02*
X10785714Y56972800D01*
X10785714Y56972800D02*
X10880952Y56925180D01*
X10880952Y56925180D02*
X11071428Y56925180D01*
X11071428Y56925180D02*
X11166666Y56972800D01*
X11166666Y56972800D02*
X11214285Y57020419D01*
X11214285Y57020419D02*
X11261904Y57115657D01*
X11261904Y57115657D02*
X11261904Y57353752D01*
X11261904Y57353752D02*
X11214285Y57448990D01*
X11214285Y57448990D02*
X11166666Y57496609D01*
X11166666Y57496609D02*
X11071428Y57544228D01*
X11071428Y57544228D02*
X10880952Y57544228D01*
X10880952Y57544228D02*
X10785714Y57496609D01*
X10785714Y57496609D02*
X10738095Y57448990D01*
X10738095Y57448990D02*
X10690476Y57353752D01*
X9857142Y23425180D02*
X9523809Y23901371D01*
X9285714Y23425180D02*
X9285714Y24425180D01*
X9285714Y24425180D02*
X9666666Y24425180D01*
X9666666Y24425180D02*
X9761904Y24377561D01*
X9761904Y24377561D02*
X9809523Y24329942D01*
X9809523Y24329942D02*
X9857142Y24234704D01*
X9857142Y24234704D02*
X9857142Y24091847D01*
X9857142Y24091847D02*
X9809523Y23996609D01*
X9809523Y23996609D02*
X9761904Y23948990D01*
X9761904Y23948990D02*
X9666666Y23901371D01*
X9666666Y23901371D02*
X9285714Y23901371D01*
X10809523Y23425180D02*
X10238095Y23425180D01*
X10523809Y23425180D02*
X10523809Y24425180D01*
X10523809Y24425180D02*
X10428571Y24282323D01*
X10428571Y24282323D02*
X10333333Y24187085D01*
X10333333Y24187085D02*
X10238095Y24139466D01*
X11142857Y24425180D02*
X11809523Y24425180D01*
X11809523Y24425180D02*
X11380952Y23425180D01*
X9857142Y27925180D02*
X9523809Y28401371D01*
X9285714Y27925180D02*
X9285714Y28925180D01*
X9285714Y28925180D02*
X9666666Y28925180D01*
X9666666Y28925180D02*
X9761904Y28877561D01*
X9761904Y28877561D02*
X9809523Y28829942D01*
X9809523Y28829942D02*
X9857142Y28734704D01*
X9857142Y28734704D02*
X9857142Y28591847D01*
X9857142Y28591847D02*
X9809523Y28496609D01*
X9809523Y28496609D02*
X9761904Y28448990D01*
X9761904Y28448990D02*
X9666666Y28401371D01*
X9666666Y28401371D02*
X9285714Y28401371D01*
X10809523Y27925180D02*
X10238095Y27925180D01*
X10523809Y27925180D02*
X10523809Y28925180D01*
X10523809Y28925180D02*
X10428571Y28782323D01*
X10428571Y28782323D02*
X10333333Y28687085D01*
X10333333Y28687085D02*
X10238095Y28639466D01*
X11380952Y28496609D02*
X11285714Y28544228D01*
X11285714Y28544228D02*
X11238095Y28591847D01*
X11238095Y28591847D02*
X11190476Y28687085D01*
X11190476Y28687085D02*
X11190476Y28734704D01*
X11190476Y28734704D02*
X11238095Y28829942D01*
X11238095Y28829942D02*
X11285714Y28877561D01*
X11285714Y28877561D02*
X11380952Y28925180D01*
X11380952Y28925180D02*
X11571428Y28925180D01*
X11571428Y28925180D02*
X11666666Y28877561D01*
X11666666Y28877561D02*
X11714285Y28829942D01*
X11714285Y28829942D02*
X11761904Y28734704D01*
X11761904Y28734704D02*
X11761904Y28687085D01*
X11761904Y28687085D02*
X11714285Y28591847D01*
X11714285Y28591847D02*
X11666666Y28544228D01*
X11666666Y28544228D02*
X11571428Y28496609D01*
X11571428Y28496609D02*
X11380952Y28496609D01*
X11380952Y28496609D02*
X11285714Y28448990D01*
X11285714Y28448990D02*
X11238095Y28401371D01*
X11238095Y28401371D02*
X11190476Y28306133D01*
X11190476Y28306133D02*
X11190476Y28115657D01*
X11190476Y28115657D02*
X11238095Y28020419D01*
X11238095Y28020419D02*
X11285714Y27972800D01*
X11285714Y27972800D02*
X11380952Y27925180D01*
X11380952Y27925180D02*
X11571428Y27925180D01*
X11571428Y27925180D02*
X11666666Y27972800D01*
X11666666Y27972800D02*
X11714285Y28020419D01*
X11714285Y28020419D02*
X11761904Y28115657D01*
X11761904Y28115657D02*
X11761904Y28306133D01*
X11761904Y28306133D02*
X11714285Y28401371D01*
X11714285Y28401371D02*
X11666666Y28448990D01*
X11666666Y28448990D02*
X11571428Y28496609D01*
X9857142Y32925180D02*
X9523809Y33401371D01*
X9285714Y32925180D02*
X9285714Y33925180D01*
X9285714Y33925180D02*
X9666666Y33925180D01*
X9666666Y33925180D02*
X9761904Y33877561D01*
X9761904Y33877561D02*
X9809523Y33829942D01*
X9809523Y33829942D02*
X9857142Y33734704D01*
X9857142Y33734704D02*
X9857142Y33591847D01*
X9857142Y33591847D02*
X9809523Y33496609D01*
X9809523Y33496609D02*
X9761904Y33448990D01*
X9761904Y33448990D02*
X9666666Y33401371D01*
X9666666Y33401371D02*
X9285714Y33401371D01*
X10809523Y32925180D02*
X10238095Y32925180D01*
X10523809Y32925180D02*
X10523809Y33925180D01*
X10523809Y33925180D02*
X10428571Y33782323D01*
X10428571Y33782323D02*
X10333333Y33687085D01*
X10333333Y33687085D02*
X10238095Y33639466D01*
X11285714Y32925180D02*
X11476190Y32925180D01*
X11476190Y32925180D02*
X11571428Y32972800D01*
X11571428Y32972800D02*
X11619047Y33020419D01*
X11619047Y33020419D02*
X11714285Y33163276D01*
X11714285Y33163276D02*
X11761904Y33353752D01*
X11761904Y33353752D02*
X11761904Y33734704D01*
X11761904Y33734704D02*
X11714285Y33829942D01*
X11714285Y33829942D02*
X11666666Y33877561D01*
X11666666Y33877561D02*
X11571428Y33925180D01*
X11571428Y33925180D02*
X11380952Y33925180D01*
X11380952Y33925180D02*
X11285714Y33877561D01*
X11285714Y33877561D02*
X11238095Y33829942D01*
X11238095Y33829942D02*
X11190476Y33734704D01*
X11190476Y33734704D02*
X11190476Y33496609D01*
X11190476Y33496609D02*
X11238095Y33401371D01*
X11238095Y33401371D02*
X11285714Y33353752D01*
X11285714Y33353752D02*
X11380952Y33306133D01*
X11380952Y33306133D02*
X11571428Y33306133D01*
X11571428Y33306133D02*
X11666666Y33353752D01*
X11666666Y33353752D02*
X11714285Y33401371D01*
X11714285Y33401371D02*
X11761904Y33496609D01*
X9857142Y37925180D02*
X9523809Y38401371D01*
X9285714Y37925180D02*
X9285714Y38925180D01*
X9285714Y38925180D02*
X9666666Y38925180D01*
X9666666Y38925180D02*
X9761904Y38877561D01*
X9761904Y38877561D02*
X9809523Y38829942D01*
X9809523Y38829942D02*
X9857142Y38734704D01*
X9857142Y38734704D02*
X9857142Y38591847D01*
X9857142Y38591847D02*
X9809523Y38496609D01*
X9809523Y38496609D02*
X9761904Y38448990D01*
X9761904Y38448990D02*
X9666666Y38401371D01*
X9666666Y38401371D02*
X9285714Y38401371D01*
X10238095Y38829942D02*
X10285714Y38877561D01*
X10285714Y38877561D02*
X10380952Y38925180D01*
X10380952Y38925180D02*
X10619047Y38925180D01*
X10619047Y38925180D02*
X10714285Y38877561D01*
X10714285Y38877561D02*
X10761904Y38829942D01*
X10761904Y38829942D02*
X10809523Y38734704D01*
X10809523Y38734704D02*
X10809523Y38639466D01*
X10809523Y38639466D02*
X10761904Y38496609D01*
X10761904Y38496609D02*
X10190476Y37925180D01*
X10190476Y37925180D02*
X10809523Y37925180D01*
X11428571Y38925180D02*
X11523809Y38925180D01*
X11523809Y38925180D02*
X11619047Y38877561D01*
X11619047Y38877561D02*
X11666666Y38829942D01*
X11666666Y38829942D02*
X11714285Y38734704D01*
X11714285Y38734704D02*
X11761904Y38544228D01*
X11761904Y38544228D02*
X11761904Y38306133D01*
X11761904Y38306133D02*
X11714285Y38115657D01*
X11714285Y38115657D02*
X11666666Y38020419D01*
X11666666Y38020419D02*
X11619047Y37972800D01*
X11619047Y37972800D02*
X11523809Y37925180D01*
X11523809Y37925180D02*
X11428571Y37925180D01*
X11428571Y37925180D02*
X11333333Y37972800D01*
X11333333Y37972800D02*
X11285714Y38020419D01*
X11285714Y38020419D02*
X11238095Y38115657D01*
X11238095Y38115657D02*
X11190476Y38306133D01*
X11190476Y38306133D02*
X11190476Y38544228D01*
X11190476Y38544228D02*
X11238095Y38734704D01*
X11238095Y38734704D02*
X11285714Y38829942D01*
X11285714Y38829942D02*
X11333333Y38877561D01*
X11333333Y38877561D02*
X11428571Y38925180D01*
X64959819Y66062142D02*
X64483628Y65728809D01*
X64959819Y65490714D02*
X63959819Y65490714D01*
X63959819Y65490714D02*
X63959819Y65871666D01*
X63959819Y65871666D02*
X64007438Y65966904D01*
X64007438Y65966904D02*
X64055057Y66014523D01*
X64055057Y66014523D02*
X64150295Y66062142D01*
X64150295Y66062142D02*
X64293152Y66062142D01*
X64293152Y66062142D02*
X64388390Y66014523D01*
X64388390Y66014523D02*
X64436009Y65966904D01*
X64436009Y65966904D02*
X64483628Y65871666D01*
X64483628Y65871666D02*
X64483628Y65490714D01*
X64055057Y66443095D02*
X64007438Y66490714D01*
X64007438Y66490714D02*
X63959819Y66585952D01*
X63959819Y66585952D02*
X63959819Y66824047D01*
X63959819Y66824047D02*
X64007438Y66919285D01*
X64007438Y66919285D02*
X64055057Y66966904D01*
X64055057Y66966904D02*
X64150295Y67014523D01*
X64150295Y67014523D02*
X64245533Y67014523D01*
X64245533Y67014523D02*
X64388390Y66966904D01*
X64388390Y66966904D02*
X64959819Y66395476D01*
X64959819Y66395476D02*
X64959819Y67014523D01*
X64959819Y67966904D02*
X64959819Y67395476D01*
X64959819Y67681190D02*
X63959819Y67681190D01*
X63959819Y67681190D02*
X64102676Y67585952D01*
X64102676Y67585952D02*
X64197914Y67490714D01*
X64197914Y67490714D02*
X64245533Y67395476D01*
X70959819Y65982142D02*
X70483628Y65648809D01*
X70959819Y65410714D02*
X69959819Y65410714D01*
X69959819Y65410714D02*
X69959819Y65791666D01*
X69959819Y65791666D02*
X70007438Y65886904D01*
X70007438Y65886904D02*
X70055057Y65934523D01*
X70055057Y65934523D02*
X70150295Y65982142D01*
X70150295Y65982142D02*
X70293152Y65982142D01*
X70293152Y65982142D02*
X70388390Y65934523D01*
X70388390Y65934523D02*
X70436009Y65886904D01*
X70436009Y65886904D02*
X70483628Y65791666D01*
X70483628Y65791666D02*
X70483628Y65410714D01*
X70055057Y66363095D02*
X70007438Y66410714D01*
X70007438Y66410714D02*
X69959819Y66505952D01*
X69959819Y66505952D02*
X69959819Y66744047D01*
X69959819Y66744047D02*
X70007438Y66839285D01*
X70007438Y66839285D02*
X70055057Y66886904D01*
X70055057Y66886904D02*
X70150295Y66934523D01*
X70150295Y66934523D02*
X70245533Y66934523D01*
X70245533Y66934523D02*
X70388390Y66886904D01*
X70388390Y66886904D02*
X70959819Y66315476D01*
X70959819Y66315476D02*
X70959819Y66934523D01*
X70055057Y67315476D02*
X70007438Y67363095D01*
X70007438Y67363095D02*
X69959819Y67458333D01*
X69959819Y67458333D02*
X69959819Y67696428D01*
X69959819Y67696428D02*
X70007438Y67791666D01*
X70007438Y67791666D02*
X70055057Y67839285D01*
X70055057Y67839285D02*
X70150295Y67886904D01*
X70150295Y67886904D02*
X70245533Y67886904D01*
X70245533Y67886904D02*
X70388390Y67839285D01*
X70388390Y67839285D02*
X70959819Y67267857D01*
X70959819Y67267857D02*
X70959819Y67886904D01*
X89824819Y73357142D02*
X89348628Y73023809D01*
X89824819Y72785714D02*
X88824819Y72785714D01*
X88824819Y72785714D02*
X88824819Y73166666D01*
X88824819Y73166666D02*
X88872438Y73261904D01*
X88872438Y73261904D02*
X88920057Y73309523D01*
X88920057Y73309523D02*
X89015295Y73357142D01*
X89015295Y73357142D02*
X89158152Y73357142D01*
X89158152Y73357142D02*
X89253390Y73309523D01*
X89253390Y73309523D02*
X89301009Y73261904D01*
X89301009Y73261904D02*
X89348628Y73166666D01*
X89348628Y73166666D02*
X89348628Y72785714D01*
X88920057Y73738095D02*
X88872438Y73785714D01*
X88872438Y73785714D02*
X88824819Y73880952D01*
X88824819Y73880952D02*
X88824819Y74119047D01*
X88824819Y74119047D02*
X88872438Y74214285D01*
X88872438Y74214285D02*
X88920057Y74261904D01*
X88920057Y74261904D02*
X89015295Y74309523D01*
X89015295Y74309523D02*
X89110533Y74309523D01*
X89110533Y74309523D02*
X89253390Y74261904D01*
X89253390Y74261904D02*
X89824819Y73690476D01*
X89824819Y73690476D02*
X89824819Y74309523D01*
X89158152Y75166666D02*
X89824819Y75166666D01*
X88777200Y74928571D02*
X89491485Y74690476D01*
X89491485Y74690476D02*
X89491485Y75309523D01*
X78243095Y49635180D02*
X78243095Y48825657D01*
X78243095Y48825657D02*
X78290714Y48730419D01*
X78290714Y48730419D02*
X78338333Y48682800D01*
X78338333Y48682800D02*
X78433571Y48635180D01*
X78433571Y48635180D02*
X78624047Y48635180D01*
X78624047Y48635180D02*
X78719285Y48682800D01*
X78719285Y48682800D02*
X78766904Y48730419D01*
X78766904Y48730419D02*
X78814523Y48825657D01*
X78814523Y48825657D02*
X78814523Y49635180D01*
X79814523Y48635180D02*
X79243095Y48635180D01*
X79528809Y48635180D02*
X79528809Y49635180D01*
X79528809Y49635180D02*
X79433571Y49492323D01*
X79433571Y49492323D02*
X79338333Y49397085D01*
X79338333Y49397085D02*
X79243095Y49349466D01*
X60093628Y24663809D02*
X60569819Y24663809D01*
X59569819Y24330476D02*
X60093628Y24663809D01*
X60093628Y24663809D02*
X59569819Y24997142D01*
X60569819Y25854285D02*
X60569819Y25282857D01*
X60569819Y25568571D02*
X59569819Y25568571D01*
X59569819Y25568571D02*
X59712676Y25473333D01*
X59712676Y25473333D02*
X59807914Y25378095D01*
X59807914Y25378095D02*
X59855533Y25282857D01*
X92833333Y31890419D02*
X92785714Y31842800D01*
X92785714Y31842800D02*
X92642857Y31795180D01*
X92642857Y31795180D02*
X92547619Y31795180D01*
X92547619Y31795180D02*
X92404762Y31842800D01*
X92404762Y31842800D02*
X92309524Y31938038D01*
X92309524Y31938038D02*
X92261905Y32033276D01*
X92261905Y32033276D02*
X92214286Y32223752D01*
X92214286Y32223752D02*
X92214286Y32366609D01*
X92214286Y32366609D02*
X92261905Y32557085D01*
X92261905Y32557085D02*
X92309524Y32652323D01*
X92309524Y32652323D02*
X92404762Y32747561D01*
X92404762Y32747561D02*
X92547619Y32795180D01*
X92547619Y32795180D02*
X92642857Y32795180D01*
X92642857Y32795180D02*
X92785714Y32747561D01*
X92785714Y32747561D02*
X92833333Y32699942D01*
X93738095Y32795180D02*
X93261905Y32795180D01*
X93261905Y32795180D02*
X93214286Y32318990D01*
X93214286Y32318990D02*
X93261905Y32366609D01*
X93261905Y32366609D02*
X93357143Y32414228D01*
X93357143Y32414228D02*
X93595238Y32414228D01*
X93595238Y32414228D02*
X93690476Y32366609D01*
X93690476Y32366609D02*
X93738095Y32318990D01*
X93738095Y32318990D02*
X93785714Y32223752D01*
X93785714Y32223752D02*
X93785714Y31985657D01*
X93785714Y31985657D02*
X93738095Y31890419D01*
X93738095Y31890419D02*
X93690476Y31842800D01*
X93690476Y31842800D02*
X93595238Y31795180D01*
X93595238Y31795180D02*
X93357143Y31795180D01*
X93357143Y31795180D02*
X93261905Y31842800D01*
X93261905Y31842800D02*
X93214286Y31890419D01*
X91916666Y80675180D02*
X91916666Y79960895D01*
X91916666Y79960895D02*
X91869047Y79818038D01*
X91869047Y79818038D02*
X91773809Y79722800D01*
X91773809Y79722800D02*
X91630952Y79675180D01*
X91630952Y79675180D02*
X91535714Y79675180D01*
X92916666Y79675180D02*
X92345238Y79675180D01*
X92630952Y79675180D02*
X92630952Y80675180D01*
X92630952Y80675180D02*
X92535714Y80532323D01*
X92535714Y80532323D02*
X92440476Y80437085D01*
X92440476Y80437085D02*
X92345238Y80389466D01*
X133738095Y6995180D02*
X133738095Y7995180D01*
X133738095Y7518990D02*
X134309523Y7518990D01*
X134309523Y6995180D02*
X134309523Y7995180D01*
X134738095Y7899942D02*
X134785714Y7947561D01*
X134785714Y7947561D02*
X134880952Y7995180D01*
X134880952Y7995180D02*
X135119047Y7995180D01*
X135119047Y7995180D02*
X135214285Y7947561D01*
X135214285Y7947561D02*
X135261904Y7899942D01*
X135261904Y7899942D02*
X135309523Y7804704D01*
X135309523Y7804704D02*
X135309523Y7709466D01*
X135309523Y7709466D02*
X135261904Y7566609D01*
X135261904Y7566609D02*
X134690476Y6995180D01*
X134690476Y6995180D02*
X135309523Y6995180D01*
X3988095Y6995180D02*
X3988095Y7995180D01*
X3988095Y7518990D02*
X4559523Y7518990D01*
X4559523Y6995180D02*
X4559523Y7995180D01*
X4940476Y7995180D02*
X5559523Y7995180D01*
X5559523Y7995180D02*
X5226190Y7614228D01*
X5226190Y7614228D02*
X5369047Y7614228D01*
X5369047Y7614228D02*
X5464285Y7566609D01*
X5464285Y7566609D02*
X5511904Y7518990D01*
X5511904Y7518990D02*
X5559523Y7423752D01*
X5559523Y7423752D02*
X5559523Y7185657D01*
X5559523Y7185657D02*
X5511904Y7090419D01*
X5511904Y7090419D02*
X5464285Y7042800D01*
X5464285Y7042800D02*
X5369047Y6995180D01*
X5369047Y6995180D02*
X5083333Y6995180D01*
X5083333Y6995180D02*
X4988095Y7042800D01*
X4988095Y7042800D02*
X4940476Y7090419D01*
X63541666Y75170180D02*
X63541666Y74455895D01*
X63541666Y74455895D02*
X63494047Y74313038D01*
X63494047Y74313038D02*
X63398809Y74217800D01*
X63398809Y74217800D02*
X63255952Y74170180D01*
X63255952Y74170180D02*
X63160714Y74170180D01*
X64160714Y74741609D02*
X64065476Y74789228D01*
X64065476Y74789228D02*
X64017857Y74836847D01*
X64017857Y74836847D02*
X63970238Y74932085D01*
X63970238Y74932085D02*
X63970238Y74979704D01*
X63970238Y74979704D02*
X64017857Y75074942D01*
X64017857Y75074942D02*
X64065476Y75122561D01*
X64065476Y75122561D02*
X64160714Y75170180D01*
X64160714Y75170180D02*
X64351190Y75170180D01*
X64351190Y75170180D02*
X64446428Y75122561D01*
X64446428Y75122561D02*
X64494047Y75074942D01*
X64494047Y75074942D02*
X64541666Y74979704D01*
X64541666Y74979704D02*
X64541666Y74932085D01*
X64541666Y74932085D02*
X64494047Y74836847D01*
X64494047Y74836847D02*
X64446428Y74789228D01*
X64446428Y74789228D02*
X64351190Y74741609D01*
X64351190Y74741609D02*
X64160714Y74741609D01*
X64160714Y74741609D02*
X64065476Y74693990D01*
X64065476Y74693990D02*
X64017857Y74646371D01*
X64017857Y74646371D02*
X63970238Y74551133D01*
X63970238Y74551133D02*
X63970238Y74360657D01*
X63970238Y74360657D02*
X64017857Y74265419D01*
X64017857Y74265419D02*
X64065476Y74217800D01*
X64065476Y74217800D02*
X64160714Y74170180D01*
X64160714Y74170180D02*
X64351190Y74170180D01*
X64351190Y74170180D02*
X64446428Y74217800D01*
X64446428Y74217800D02*
X64494047Y74265419D01*
X64494047Y74265419D02*
X64541666Y74360657D01*
X64541666Y74360657D02*
X64541666Y74551133D01*
X64541666Y74551133D02*
X64494047Y74646371D01*
X64494047Y74646371D02*
X64446428Y74693990D01*
X64446428Y74693990D02*
X64351190Y74741609D01*
X115334819Y36906666D02*
X116049104Y36906666D01*
X116049104Y36906666D02*
X116191961Y36859047D01*
X116191961Y36859047D02*
X116287200Y36763809D01*
X116287200Y36763809D02*
X116334819Y36620952D01*
X116334819Y36620952D02*
X116334819Y36525714D01*
X116334819Y37430476D02*
X116334819Y37620952D01*
X116334819Y37620952D02*
X116287200Y37716190D01*
X116287200Y37716190D02*
X116239580Y37763809D01*
X116239580Y37763809D02*
X116096723Y37859047D01*
X116096723Y37859047D02*
X115906247Y37906666D01*
X115906247Y37906666D02*
X115525295Y37906666D01*
X115525295Y37906666D02*
X115430057Y37859047D01*
X115430057Y37859047D02*
X115382438Y37811428D01*
X115382438Y37811428D02*
X115334819Y37716190D01*
X115334819Y37716190D02*
X115334819Y37525714D01*
X115334819Y37525714D02*
X115382438Y37430476D01*
X115382438Y37430476D02*
X115430057Y37382857D01*
X115430057Y37382857D02*
X115525295Y37335238D01*
X115525295Y37335238D02*
X115763390Y37335238D01*
X115763390Y37335238D02*
X115858628Y37382857D01*
X115858628Y37382857D02*
X115906247Y37430476D01*
X115906247Y37430476D02*
X115953866Y37525714D01*
X115953866Y37525714D02*
X115953866Y37716190D01*
X115953866Y37716190D02*
X115906247Y37811428D01*
X115906247Y37811428D02*
X115858628Y37859047D01*
X115858628Y37859047D02*
X115763390Y37906666D01*
X115334819Y12430476D02*
X116049104Y12430476D01*
X116049104Y12430476D02*
X116191961Y12382857D01*
X116191961Y12382857D02*
X116287200Y12287619D01*
X116287200Y12287619D02*
X116334819Y12144762D01*
X116334819Y12144762D02*
X116334819Y12049524D01*
X116334819Y13430476D02*
X116334819Y12859048D01*
X116334819Y13144762D02*
X115334819Y13144762D01*
X115334819Y13144762D02*
X115477676Y13049524D01*
X115477676Y13049524D02*
X115572914Y12954286D01*
X115572914Y12954286D02*
X115620533Y12859048D01*
X115334819Y14049524D02*
X115334819Y14144762D01*
X115334819Y14144762D02*
X115382438Y14240000D01*
X115382438Y14240000D02*
X115430057Y14287619D01*
X115430057Y14287619D02*
X115525295Y14335238D01*
X115525295Y14335238D02*
X115715771Y14382857D01*
X115715771Y14382857D02*
X115953866Y14382857D01*
X115953866Y14382857D02*
X116144342Y14335238D01*
X116144342Y14335238D02*
X116239580Y14287619D01*
X116239580Y14287619D02*
X116287200Y14240000D01*
X116287200Y14240000D02*
X116334819Y14144762D01*
X116334819Y14144762D02*
X116334819Y14049524D01*
X116334819Y14049524D02*
X116287200Y13954286D01*
X116287200Y13954286D02*
X116239580Y13906667D01*
X116239580Y13906667D02*
X116144342Y13859048D01*
X116144342Y13859048D02*
X115953866Y13811429D01*
X115953866Y13811429D02*
X115715771Y13811429D01*
X115715771Y13811429D02*
X115525295Y13859048D01*
X115525295Y13859048D02*
X115430057Y13906667D01*
X115430057Y13906667D02*
X115382438Y13954286D01*
X115382438Y13954286D02*
X115334819Y14049524D01*
X135390476Y81587680D02*
X135390476Y80873395D01*
X135390476Y80873395D02*
X135342857Y80730538D01*
X135342857Y80730538D02*
X135247619Y80635300D01*
X135247619Y80635300D02*
X135104762Y80587680D01*
X135104762Y80587680D02*
X135009524Y80587680D01*
X136390476Y80587680D02*
X135819048Y80587680D01*
X136104762Y80587680D02*
X136104762Y81587680D01*
X136104762Y81587680D02*
X136009524Y81444823D01*
X136009524Y81444823D02*
X135914286Y81349585D01*
X135914286Y81349585D02*
X135819048Y81301966D01*
X137342857Y80587680D02*
X136771429Y80587680D01*
X137057143Y80587680D02*
X137057143Y81587680D01*
X137057143Y81587680D02*
X136961905Y81444823D01*
X136961905Y81444823D02*
X136866667Y81349585D01*
X136866667Y81349585D02*
X136771429Y81301966D01*
X133738095Y91295180D02*
X133738095Y92295180D01*
X133738095Y91818990D02*
X134309523Y91818990D01*
X134309523Y91295180D02*
X134309523Y92295180D01*
X135309523Y91295180D02*
X134738095Y91295180D01*
X135023809Y91295180D02*
X135023809Y92295180D01*
X135023809Y92295180D02*
X134928571Y92152323D01*
X134928571Y92152323D02*
X134833333Y92057085D01*
X134833333Y92057085D02*
X134738095Y92009466D01*
X120666667Y91842800D02*
X120809524Y91795180D01*
X120809524Y91795180D02*
X121047619Y91795180D01*
X121047619Y91795180D02*
X121142857Y91842800D01*
X121142857Y91842800D02*
X121190476Y91890419D01*
X121190476Y91890419D02*
X121238095Y91985657D01*
X121238095Y91985657D02*
X121238095Y92080895D01*
X121238095Y92080895D02*
X121190476Y92176133D01*
X121190476Y92176133D02*
X121142857Y92223752D01*
X121142857Y92223752D02*
X121047619Y92271371D01*
X121047619Y92271371D02*
X120857143Y92318990D01*
X120857143Y92318990D02*
X120761905Y92366609D01*
X120761905Y92366609D02*
X120714286Y92414228D01*
X120714286Y92414228D02*
X120666667Y92509466D01*
X120666667Y92509466D02*
X120666667Y92604704D01*
X120666667Y92604704D02*
X120714286Y92699942D01*
X120714286Y92699942D02*
X120761905Y92747561D01*
X120761905Y92747561D02*
X120857143Y92795180D01*
X120857143Y92795180D02*
X121095238Y92795180D01*
X121095238Y92795180D02*
X121238095Y92747561D01*
X121571429Y92795180D02*
X121809524Y91795180D01*
X121809524Y91795180D02*
X122000000Y92509466D01*
X122000000Y92509466D02*
X122190476Y91795180D01*
X122190476Y91795180D02*
X122428572Y92795180D01*
X123333333Y91795180D02*
X122761905Y91795180D01*
X123047619Y91795180D02*
X123047619Y92795180D01*
X123047619Y92795180D02*
X122952381Y92652323D01*
X122952381Y92652323D02*
X122857143Y92557085D01*
X122857143Y92557085D02*
X122761905Y92509466D01*
X3988095Y95495180D02*
X3988095Y96495180D01*
X3988095Y96018990D02*
X4559523Y96018990D01*
X4559523Y95495180D02*
X4559523Y96495180D01*
X5464285Y96161847D02*
X5464285Y95495180D01*
X5226190Y96542800D02*
X4988095Y95828514D01*
X4988095Y95828514D02*
X5607142Y95828514D01*
D11*
%TO.C,R6*%
X33460000Y60000000D02*
X34230000Y60000000D01*
X34230000Y61370000D02*
X34230000Y58630000D01*
X34230000Y58630000D02*
X40770000Y58630000D01*
X40770000Y61370000D02*
X34230000Y61370000D01*
X40770000Y58630000D02*
X40770000Y61370000D01*
X41540000Y60000000D02*
X40770000Y60000000D01*
%TO.C,J7*%
X114695000Y60780000D02*
X114695000Y53100000D01*
X114695000Y60780000D02*
X117355000Y60780000D01*
X114695000Y53100000D02*
X117355000Y53100000D01*
X116025000Y63380000D02*
X117355000Y63380000D01*
X117355000Y63380000D02*
X117355000Y62050000D01*
X117355000Y60780000D02*
X117355000Y53100000D01*
%TO.C,C3*%
X54369775Y18165000D02*
X53869775Y18165000D01*
X54119775Y17915000D02*
X54119775Y18415000D01*
X51565000Y17060000D02*
X51565000Y22220000D01*
X51525000Y17060000D02*
X51525000Y22220000D01*
X51485000Y17061000D02*
X51485000Y22219000D01*
X51445000Y17063000D02*
X51445000Y22217000D01*
X51405000Y17065000D02*
X51405000Y22215000D01*
X51365000Y17068000D02*
X51365000Y22212000D01*
X51325000Y17071000D02*
X51325000Y18600000D01*
X51325000Y20680000D02*
X51325000Y22209000D01*
X51285000Y17075000D02*
X51285000Y18600000D01*
X51285000Y20680000D02*
X51285000Y22205000D01*
X51245000Y17080000D02*
X51245000Y18600000D01*
X51245000Y20680000D02*
X51245000Y22200000D01*
X51205000Y17085000D02*
X51205000Y18600000D01*
X51205000Y20680000D02*
X51205000Y22195000D01*
X51165000Y17091000D02*
X51165000Y18600000D01*
X51165000Y20680000D02*
X51165000Y22189000D01*
X51125000Y17097000D02*
X51125000Y18600000D01*
X51125000Y20680000D02*
X51125000Y22183000D01*
X51085000Y17104000D02*
X51085000Y18600000D01*
X51085000Y20680000D02*
X51085000Y22176000D01*
X51045000Y17112000D02*
X51045000Y18600000D01*
X51045000Y20680000D02*
X51045000Y22168000D01*
X51005000Y17121000D02*
X51005000Y18600000D01*
X51005000Y20680000D02*
X51005000Y22159000D01*
X50965000Y17130000D02*
X50965000Y18600000D01*
X50965000Y20680000D02*
X50965000Y22150000D01*
X50925000Y17139000D02*
X50925000Y18600000D01*
X50925000Y20680000D02*
X50925000Y22141000D01*
X50885000Y17150000D02*
X50885000Y18600000D01*
X50885000Y20680000D02*
X50885000Y22130000D01*
X50845000Y17161000D02*
X50845000Y18600000D01*
X50845000Y20680000D02*
X50845000Y22119000D01*
X50805000Y17173000D02*
X50805000Y18600000D01*
X50805000Y20680000D02*
X50805000Y22107000D01*
X50765000Y17185000D02*
X50765000Y18600000D01*
X50765000Y20680000D02*
X50765000Y22095000D01*
X50725000Y17198000D02*
X50725000Y18600000D01*
X50725000Y20680000D02*
X50725000Y22082000D01*
X50685000Y17212000D02*
X50685000Y18600000D01*
X50685000Y20680000D02*
X50685000Y22068000D01*
X50645000Y17227000D02*
X50645000Y18600000D01*
X50645000Y20680000D02*
X50645000Y22053000D01*
X50605000Y17242000D02*
X50605000Y18600000D01*
X50605000Y20680000D02*
X50605000Y22038000D01*
X50565000Y17258000D02*
X50565000Y18600000D01*
X50565000Y20680000D02*
X50565000Y22022000D01*
X50525000Y17275000D02*
X50525000Y18600000D01*
X50525000Y20680000D02*
X50525000Y22005000D01*
X50485000Y17293000D02*
X50485000Y18600000D01*
X50485000Y20680000D02*
X50485000Y21987000D01*
X50445000Y17311000D02*
X50445000Y18600000D01*
X50445000Y20680000D02*
X50445000Y21969000D01*
X50405000Y17331000D02*
X50405000Y18600000D01*
X50405000Y20680000D02*
X50405000Y21949000D01*
X50365000Y17351000D02*
X50365000Y18600000D01*
X50365000Y20680000D02*
X50365000Y21929000D01*
X50325000Y17372000D02*
X50325000Y18600000D01*
X50325000Y20680000D02*
X50325000Y21908000D01*
X50285000Y17394000D02*
X50285000Y18600000D01*
X50285000Y20680000D02*
X50285000Y21886000D01*
X50245000Y17417000D02*
X50245000Y18600000D01*
X50245000Y20680000D02*
X50245000Y21863000D01*
X50205000Y17441000D02*
X50205000Y18600000D01*
X50205000Y20680000D02*
X50205000Y21839000D01*
X50165000Y17465000D02*
X50165000Y18600000D01*
X50165000Y20680000D02*
X50165000Y21815000D01*
X50125000Y17491000D02*
X50125000Y18600000D01*
X50125000Y20680000D02*
X50125000Y21789000D01*
X50085000Y17518000D02*
X50085000Y18600000D01*
X50085000Y20680000D02*
X50085000Y21762000D01*
X50045000Y17546000D02*
X50045000Y18600000D01*
X50045000Y20680000D02*
X50045000Y21734000D01*
X50005000Y17575000D02*
X50005000Y18600000D01*
X50005000Y20680000D02*
X50005000Y21705000D01*
X49965000Y17605000D02*
X49965000Y18600000D01*
X49965000Y20680000D02*
X49965000Y21675000D01*
X49925000Y17637000D02*
X49925000Y18600000D01*
X49925000Y20680000D02*
X49925000Y21643000D01*
X49885000Y17670000D02*
X49885000Y18600000D01*
X49885000Y20680000D02*
X49885000Y21610000D01*
X49845000Y17704000D02*
X49845000Y18600000D01*
X49845000Y20680000D02*
X49845000Y21576000D01*
X49805000Y17739000D02*
X49805000Y18600000D01*
X49805000Y20680000D02*
X49805000Y21541000D01*
X49765000Y17776000D02*
X49765000Y18600000D01*
X49765000Y20680000D02*
X49765000Y21504000D01*
X49725000Y17815000D02*
X49725000Y18600000D01*
X49725000Y20680000D02*
X49725000Y21465000D01*
X49685000Y17855000D02*
X49685000Y18600000D01*
X49685000Y20680000D02*
X49685000Y21425000D01*
X49645000Y17897000D02*
X49645000Y18600000D01*
X49645000Y20680000D02*
X49645000Y21383000D01*
X49605000Y17941000D02*
X49605000Y18600000D01*
X49605000Y20680000D02*
X49605000Y21339000D01*
X49565000Y17988000D02*
X49565000Y18600000D01*
X49565000Y20680000D02*
X49565000Y21292000D01*
X49525000Y18036000D02*
X49525000Y18600000D01*
X49525000Y20680000D02*
X49525000Y21244000D01*
X49485000Y18087000D02*
X49485000Y18600000D01*
X49485000Y20680000D02*
X49485000Y21193000D01*
X49445000Y18141000D02*
X49445000Y18600000D01*
X49445000Y20680000D02*
X49445000Y21139000D01*
X49405000Y18197000D02*
X49405000Y18600000D01*
X49405000Y20680000D02*
X49405000Y21083000D01*
X49365000Y18257000D02*
X49365000Y18600000D01*
X49365000Y20680000D02*
X49365000Y21023000D01*
X49325000Y18321000D02*
X49325000Y18600000D01*
X49325000Y20680000D02*
X49325000Y20959000D01*
X49285000Y18389000D02*
X49285000Y18600000D01*
X49285000Y20680000D02*
X49285000Y20891000D01*
X49245000Y18463000D02*
X49245000Y20817000D01*
X49205000Y18542000D02*
X49205000Y20738000D01*
X49165000Y18629000D02*
X49165000Y20651000D01*
X49125000Y18726000D02*
X49125000Y20554000D01*
X49085000Y18835000D02*
X49085000Y20445000D01*
X49045000Y18963000D02*
X49045000Y20317000D01*
X49005000Y19123000D02*
X49005000Y20157000D01*
X48965000Y19357000D02*
X48965000Y19923000D01*
X54185000Y19640000D02*
G75*
G02*
X48945000Y19640000I-2620000J0D01*
G01*
X48945000Y19640000D02*
G75*
G02*
X54185000Y19640000I2620000J0D01*
G01*
%TO.C,R13*%
X41540000Y49750000D02*
X40770000Y49750000D01*
X40770000Y48380000D02*
X40770000Y51120000D01*
X40770000Y51120000D02*
X34230000Y51120000D01*
X34230000Y48380000D02*
X40770000Y48380000D01*
X34230000Y51120000D02*
X34230000Y48380000D01*
X33460000Y49750000D02*
X34230000Y49750000D01*
%TO.C,C1*%
X96790000Y32194775D02*
X96790000Y31694775D01*
X97040000Y31944775D02*
X96540000Y31944775D01*
X97895000Y29390000D02*
X92735000Y29390000D01*
X97895000Y29350000D02*
X92735000Y29350000D01*
X97894000Y29310000D02*
X92736000Y29310000D01*
X97892000Y29270000D02*
X92738000Y29270000D01*
X97890000Y29230000D02*
X92740000Y29230000D01*
X97887000Y29190000D02*
X92743000Y29190000D01*
X97884000Y29150000D02*
X96355000Y29150000D01*
X94275000Y29150000D02*
X92746000Y29150000D01*
X97880000Y29110000D02*
X96355000Y29110000D01*
X94275000Y29110000D02*
X92750000Y29110000D01*
X97875000Y29070000D02*
X96355000Y29070000D01*
X94275000Y29070000D02*
X92755000Y29070000D01*
X97870000Y29030000D02*
X96355000Y29030000D01*
X94275000Y29030000D02*
X92760000Y29030000D01*
X97864000Y28990000D02*
X96355000Y28990000D01*
X94275000Y28990000D02*
X92766000Y28990000D01*
X97858000Y28950000D02*
X96355000Y28950000D01*
X94275000Y28950000D02*
X92772000Y28950000D01*
X97851000Y28910000D02*
X96355000Y28910000D01*
X94275000Y28910000D02*
X92779000Y28910000D01*
X97843000Y28870000D02*
X96355000Y28870000D01*
X94275000Y28870000D02*
X92787000Y28870000D01*
X97834000Y28830000D02*
X96355000Y28830000D01*
X94275000Y28830000D02*
X92796000Y28830000D01*
X97825000Y28790000D02*
X96355000Y28790000D01*
X94275000Y28790000D02*
X92805000Y28790000D01*
X97816000Y28750000D02*
X96355000Y28750000D01*
X94275000Y28750000D02*
X92814000Y28750000D01*
X97805000Y28710000D02*
X96355000Y28710000D01*
X94275000Y28710000D02*
X92825000Y28710000D01*
X97794000Y28670000D02*
X96355000Y28670000D01*
X94275000Y28670000D02*
X92836000Y28670000D01*
X97782000Y28630000D02*
X96355000Y28630000D01*
X94275000Y28630000D02*
X92848000Y28630000D01*
X97770000Y28590000D02*
X96355000Y28590000D01*
X94275000Y28590000D02*
X92860000Y28590000D01*
X97757000Y28550000D02*
X96355000Y28550000D01*
X94275000Y28550000D02*
X92873000Y28550000D01*
X97743000Y28510000D02*
X96355000Y28510000D01*
X94275000Y28510000D02*
X92887000Y28510000D01*
X97728000Y28470000D02*
X96355000Y28470000D01*
X94275000Y28470000D02*
X92902000Y28470000D01*
X97713000Y28430000D02*
X96355000Y28430000D01*
X94275000Y28430000D02*
X92917000Y28430000D01*
X97697000Y28390000D02*
X96355000Y28390000D01*
X94275000Y28390000D02*
X92933000Y28390000D01*
X97680000Y28350000D02*
X96355000Y28350000D01*
X94275000Y28350000D02*
X92950000Y28350000D01*
X97662000Y28310000D02*
X96355000Y28310000D01*
X94275000Y28310000D02*
X92968000Y28310000D01*
X97644000Y28270000D02*
X96355000Y28270000D01*
X94275000Y28270000D02*
X92986000Y28270000D01*
X97624000Y28230000D02*
X96355000Y28230000D01*
X94275000Y28230000D02*
X93006000Y28230000D01*
X97604000Y28190000D02*
X96355000Y28190000D01*
X94275000Y28190000D02*
X93026000Y28190000D01*
X97583000Y28150000D02*
X96355000Y28150000D01*
X94275000Y28150000D02*
X93047000Y28150000D01*
X97561000Y28110000D02*
X96355000Y28110000D01*
X94275000Y28110000D02*
X93069000Y28110000D01*
X97538000Y28070000D02*
X96355000Y28070000D01*
X94275000Y28070000D02*
X93092000Y28070000D01*
X97514000Y28030000D02*
X96355000Y28030000D01*
X94275000Y28030000D02*
X93116000Y28030000D01*
X97490000Y27990000D02*
X96355000Y27990000D01*
X94275000Y27990000D02*
X93140000Y27990000D01*
X97464000Y27950000D02*
X96355000Y27950000D01*
X94275000Y27950000D02*
X93166000Y27950000D01*
X97437000Y27910000D02*
X96355000Y27910000D01*
X94275000Y27910000D02*
X93193000Y27910000D01*
X97409000Y27870000D02*
X96355000Y27870000D01*
X94275000Y27870000D02*
X93221000Y27870000D01*
X97380000Y27830000D02*
X96355000Y27830000D01*
X94275000Y27830000D02*
X93250000Y27830000D01*
X97350000Y27790000D02*
X96355000Y27790000D01*
X94275000Y27790000D02*
X93280000Y27790000D01*
X97318000Y27750000D02*
X96355000Y27750000D01*
X94275000Y27750000D02*
X93312000Y27750000D01*
X97285000Y27710000D02*
X96355000Y27710000D01*
X94275000Y27710000D02*
X93345000Y27710000D01*
X97251000Y27670000D02*
X96355000Y27670000D01*
X94275000Y27670000D02*
X93379000Y27670000D01*
X97216000Y27630000D02*
X96355000Y27630000D01*
X94275000Y27630000D02*
X93414000Y27630000D01*
X97179000Y27590000D02*
X96355000Y27590000D01*
X94275000Y27590000D02*
X93451000Y27590000D01*
X97140000Y27550000D02*
X96355000Y27550000D01*
X94275000Y27550000D02*
X93490000Y27550000D01*
X97100000Y27510000D02*
X96355000Y27510000D01*
X94275000Y27510000D02*
X93530000Y27510000D01*
X97058000Y27470000D02*
X96355000Y27470000D01*
X94275000Y27470000D02*
X93572000Y27470000D01*
X97014000Y27430000D02*
X96355000Y27430000D01*
X94275000Y27430000D02*
X93616000Y27430000D01*
X96967000Y27390000D02*
X96355000Y27390000D01*
X94275000Y27390000D02*
X93663000Y27390000D01*
X96919000Y27350000D02*
X96355000Y27350000D01*
X94275000Y27350000D02*
X93711000Y27350000D01*
X96868000Y27310000D02*
X96355000Y27310000D01*
X94275000Y27310000D02*
X93762000Y27310000D01*
X96814000Y27270000D02*
X96355000Y27270000D01*
X94275000Y27270000D02*
X93816000Y27270000D01*
X96758000Y27230000D02*
X96355000Y27230000D01*
X94275000Y27230000D02*
X93872000Y27230000D01*
X96698000Y27190000D02*
X96355000Y27190000D01*
X94275000Y27190000D02*
X93932000Y27190000D01*
X96634000Y27150000D02*
X96355000Y27150000D01*
X94275000Y27150000D02*
X93996000Y27150000D01*
X96566000Y27110000D02*
X96355000Y27110000D01*
X94275000Y27110000D02*
X94064000Y27110000D01*
X96492000Y27070000D02*
X94138000Y27070000D01*
X96413000Y27030000D02*
X94217000Y27030000D01*
X96326000Y26990000D02*
X94304000Y26990000D01*
X96229000Y26950000D02*
X94401000Y26950000D01*
X96120000Y26910000D02*
X94510000Y26910000D01*
X95992000Y26870000D02*
X94638000Y26870000D01*
X95832000Y26830000D02*
X94798000Y26830000D01*
X95598000Y26790000D02*
X95032000Y26790000D01*
X97935000Y29390000D02*
G75*
G02*
X92695000Y29390000I-2620000J0D01*
G01*
X92695000Y29390000D02*
G75*
G02*
X97935000Y29390000I2620000J0D01*
G01*
%TO.C,220UF1*%
X112080000Y74735000D02*
X112080000Y76265000D01*
X113920000Y74735000D02*
X113920000Y76265000D01*
%TO.C,R2*%
X41040000Y40750000D02*
X40270000Y40750000D01*
X40270000Y39380000D02*
X40270000Y42120000D01*
X40270000Y42120000D02*
X33730000Y42120000D01*
X33730000Y39380000D02*
X40270000Y39380000D01*
X33730000Y42120000D02*
X33730000Y39380000D01*
X32960000Y40750000D02*
X33730000Y40750000D01*
%TO.C,R3*%
X41040000Y35750000D02*
X40270000Y35750000D01*
X40270000Y34380000D02*
X40270000Y37120000D01*
X40270000Y37120000D02*
X33730000Y37120000D01*
X33730000Y34380000D02*
X40270000Y34380000D01*
X33730000Y37120000D02*
X33730000Y34380000D01*
X32960000Y35750000D02*
X33730000Y35750000D01*
%TO.C,R4*%
X41540000Y30750000D02*
X40770000Y30750000D01*
X40770000Y29380000D02*
X40770000Y32120000D01*
X40770000Y32120000D02*
X34230000Y32120000D01*
X34230000Y29380000D02*
X40770000Y29380000D01*
X34230000Y32120000D02*
X34230000Y29380000D01*
X33460000Y30750000D02*
X34230000Y30750000D01*
%TO.C,R5*%
X41790000Y25750000D02*
X41020000Y25750000D01*
X41020000Y24380000D02*
X41020000Y27120000D01*
X41020000Y27120000D02*
X34480000Y27120000D01*
X34480000Y24380000D02*
X41020000Y24380000D01*
X34480000Y27120000D02*
X34480000Y24380000D01*
X33710000Y25750000D02*
X34480000Y25750000D01*
%TO.C,J3*%
X109480000Y90080000D02*
X104340000Y90080000D01*
X109480000Y90080000D02*
X109480000Y87420000D01*
X104340000Y90080000D02*
X104340000Y87420000D01*
X112080000Y88750000D02*
X112080000Y87420000D01*
X112080000Y87420000D02*
X110750000Y87420000D01*
X109480000Y87420000D02*
X104340000Y87420000D01*
%TO.C,J4*%
X105750000Y11680000D02*
X104750000Y11680000D01*
X104750000Y11680000D02*
X105250000Y10680000D01*
X105250000Y10680000D02*
X105750000Y11680000D01*
X110460000Y10290000D02*
X110460000Y1170000D01*
X102220000Y10290000D02*
X102220000Y8980000D01*
X89880000Y10290000D02*
X110460000Y10290000D01*
X109160000Y8980000D02*
X109160000Y2480000D01*
X102220000Y8980000D02*
X109160000Y8980000D01*
X98120000Y8980000D02*
X98120000Y10290000D01*
X98120000Y8980000D02*
X98120000Y8980000D01*
X91180000Y8980000D02*
X98120000Y8980000D01*
X109160000Y2480000D02*
X91180000Y2480000D01*
X91180000Y2480000D02*
X91180000Y8980000D01*
X110460000Y1170000D02*
X89880000Y1170000D01*
X89880000Y1170000D02*
X89880000Y10290000D01*
%TO.C,C4*%
X60240113Y35475000D02*
X60740113Y35475000D01*
X60490113Y35725000D02*
X60490113Y35225000D01*
X63044888Y36580000D02*
X63044888Y31420000D01*
X63084888Y36580000D02*
X63084888Y31420000D01*
X63124888Y36579000D02*
X63124888Y31421000D01*
X63164888Y36577000D02*
X63164888Y31423000D01*
X63204888Y36575000D02*
X63204888Y31425000D01*
X63244888Y36572000D02*
X63244888Y31428000D01*
X63284888Y36569000D02*
X63284888Y35040000D01*
X63284888Y32960000D02*
X63284888Y31431000D01*
X63324888Y36565000D02*
X63324888Y35040000D01*
X63324888Y32960000D02*
X63324888Y31435000D01*
X63364888Y36560000D02*
X63364888Y35040000D01*
X63364888Y32960000D02*
X63364888Y31440000D01*
X63404888Y36555000D02*
X63404888Y35040000D01*
X63404888Y32960000D02*
X63404888Y31445000D01*
X63444888Y36549000D02*
X63444888Y35040000D01*
X63444888Y32960000D02*
X63444888Y31451000D01*
X63484888Y36543000D02*
X63484888Y35040000D01*
X63484888Y32960000D02*
X63484888Y31457000D01*
X63524888Y36536000D02*
X63524888Y35040000D01*
X63524888Y32960000D02*
X63524888Y31464000D01*
X63564888Y36528000D02*
X63564888Y35040000D01*
X63564888Y32960000D02*
X63564888Y31472000D01*
X63604888Y36519000D02*
X63604888Y35040000D01*
X63604888Y32960000D02*
X63604888Y31481000D01*
X63644888Y36510000D02*
X63644888Y35040000D01*
X63644888Y32960000D02*
X63644888Y31490000D01*
X63684888Y36501000D02*
X63684888Y35040000D01*
X63684888Y32960000D02*
X63684888Y31499000D01*
X63724888Y36490000D02*
X63724888Y35040000D01*
X63724888Y32960000D02*
X63724888Y31510000D01*
X63764888Y36479000D02*
X63764888Y35040000D01*
X63764888Y32960000D02*
X63764888Y31521000D01*
X63804888Y36467000D02*
X63804888Y35040000D01*
X63804888Y32960000D02*
X63804888Y31533000D01*
X63844888Y36455000D02*
X63844888Y35040000D01*
X63844888Y32960000D02*
X63844888Y31545000D01*
X63884888Y36442000D02*
X63884888Y35040000D01*
X63884888Y32960000D02*
X63884888Y31558000D01*
X63924888Y36428000D02*
X63924888Y35040000D01*
X63924888Y32960000D02*
X63924888Y31572000D01*
X63964888Y36413000D02*
X63964888Y35040000D01*
X63964888Y32960000D02*
X63964888Y31587000D01*
X64004888Y36398000D02*
X64004888Y35040000D01*
X64004888Y32960000D02*
X64004888Y31602000D01*
X64044888Y36382000D02*
X64044888Y35040000D01*
X64044888Y32960000D02*
X64044888Y31618000D01*
X64084888Y36365000D02*
X64084888Y35040000D01*
X64084888Y32960000D02*
X64084888Y31635000D01*
X64124888Y36347000D02*
X64124888Y35040000D01*
X64124888Y32960000D02*
X64124888Y31653000D01*
X64164888Y36329000D02*
X64164888Y35040000D01*
X64164888Y32960000D02*
X64164888Y31671000D01*
X64204888Y36309000D02*
X64204888Y35040000D01*
X64204888Y32960000D02*
X64204888Y31691000D01*
X64244888Y36289000D02*
X64244888Y35040000D01*
X64244888Y32960000D02*
X64244888Y31711000D01*
X64284888Y36268000D02*
X64284888Y35040000D01*
X64284888Y32960000D02*
X64284888Y31732000D01*
X64324888Y36246000D02*
X64324888Y35040000D01*
X64324888Y32960000D02*
X64324888Y31754000D01*
X64364888Y36223000D02*
X64364888Y35040000D01*
X64364888Y32960000D02*
X64364888Y31777000D01*
X64404888Y36199000D02*
X64404888Y35040000D01*
X64404888Y32960000D02*
X64404888Y31801000D01*
X64444888Y36175000D02*
X64444888Y35040000D01*
X64444888Y32960000D02*
X64444888Y31825000D01*
X64484888Y36149000D02*
X64484888Y35040000D01*
X64484888Y32960000D02*
X64484888Y31851000D01*
X64524888Y36122000D02*
X64524888Y35040000D01*
X64524888Y32960000D02*
X64524888Y31878000D01*
X64564888Y36094000D02*
X64564888Y35040000D01*
X64564888Y32960000D02*
X64564888Y31906000D01*
X64604888Y36065000D02*
X64604888Y35040000D01*
X64604888Y32960000D02*
X64604888Y31935000D01*
X64644888Y36035000D02*
X64644888Y35040000D01*
X64644888Y32960000D02*
X64644888Y31965000D01*
X64684888Y36003000D02*
X64684888Y35040000D01*
X64684888Y32960000D02*
X64684888Y31997000D01*
X64724888Y35970000D02*
X64724888Y35040000D01*
X64724888Y32960000D02*
X64724888Y32030000D01*
X64764888Y35936000D02*
X64764888Y35040000D01*
X64764888Y32960000D02*
X64764888Y32064000D01*
X64804888Y35901000D02*
X64804888Y35040000D01*
X64804888Y32960000D02*
X64804888Y32099000D01*
X64844888Y35864000D02*
X64844888Y35040000D01*
X64844888Y32960000D02*
X64844888Y32136000D01*
X64884888Y35825000D02*
X64884888Y35040000D01*
X64884888Y32960000D02*
X64884888Y32175000D01*
X64924888Y35785000D02*
X64924888Y35040000D01*
X64924888Y32960000D02*
X64924888Y32215000D01*
X64964888Y35743000D02*
X64964888Y35040000D01*
X64964888Y32960000D02*
X64964888Y32257000D01*
X65004888Y35699000D02*
X65004888Y35040000D01*
X65004888Y32960000D02*
X65004888Y32301000D01*
X65044888Y35652000D02*
X65044888Y35040000D01*
X65044888Y32960000D02*
X65044888Y32348000D01*
X65084888Y35604000D02*
X65084888Y35040000D01*
X65084888Y32960000D02*
X65084888Y32396000D01*
X65124888Y35553000D02*
X65124888Y35040000D01*
X65124888Y32960000D02*
X65124888Y32447000D01*
X65164888Y35499000D02*
X65164888Y35040000D01*
X65164888Y32960000D02*
X65164888Y32501000D01*
X65204888Y35443000D02*
X65204888Y35040000D01*
X65204888Y32960000D02*
X65204888Y32557000D01*
X65244888Y35383000D02*
X65244888Y35040000D01*
X65244888Y32960000D02*
X65244888Y32617000D01*
X65284888Y35319000D02*
X65284888Y35040000D01*
X65284888Y32960000D02*
X65284888Y32681000D01*
X65324888Y35251000D02*
X65324888Y35040000D01*
X65324888Y32960000D02*
X65324888Y32749000D01*
X65364888Y35177000D02*
X65364888Y32823000D01*
X65404888Y35098000D02*
X65404888Y32902000D01*
X65444888Y35011000D02*
X65444888Y32989000D01*
X65484888Y34914000D02*
X65484888Y33086000D01*
X65524888Y34805000D02*
X65524888Y33195000D01*
X65564888Y34677000D02*
X65564888Y33323000D01*
X65604888Y34517000D02*
X65604888Y33483000D01*
X65644888Y34283000D02*
X65644888Y33717000D01*
X65664888Y34000000D02*
G75*
G02*
X60424888Y34000000I-2620000J0D01*
G01*
X60424888Y34000000D02*
G75*
G02*
X65664888Y34000000I2620000J0D01*
G01*
%TO.C,J6*%
X20080000Y40750000D02*
X19470000Y40310000D01*
X19470000Y41190000D01*
X20080000Y40750000D01*
G36*
X20080000Y40750000D02*
G01*
X19470000Y40310000D01*
X19470000Y41190000D01*
X20080000Y40750000D01*
G37*
X28120000Y23130000D02*
X20080000Y23130000D01*
X23500000Y23938000D02*
X23500000Y23130000D01*
X24500000Y23938000D02*
X24500000Y23130000D01*
X22200000Y25207000D02*
X22200000Y23130000D01*
X23500000Y28938000D02*
X23500000Y27562000D01*
X24500000Y28938000D02*
X24500000Y27562000D01*
X22200000Y30207000D02*
X22200000Y26293000D01*
X23500000Y33938000D02*
X23500000Y32562000D01*
X24500000Y33938000D02*
X24500000Y32562000D01*
X22200000Y35207000D02*
X22200000Y31293000D01*
X22200000Y38870000D02*
X22200000Y36293000D01*
X23500000Y38870000D02*
X23500000Y37562000D01*
X24500000Y38870000D02*
X24500000Y37562000D01*
X20080000Y40450000D02*
X20080000Y23130000D01*
X20080000Y43870000D02*
X20080000Y41050000D01*
X22200000Y43870000D02*
X22200000Y42630000D01*
X23500000Y43870000D02*
X23500000Y42630000D01*
X24500000Y43870000D02*
X24500000Y42630000D01*
X28120000Y43870000D02*
X28120000Y23130000D01*
X28120000Y43870000D02*
X20080000Y43870000D01*
%TO.C,C2*%
X54074888Y28665000D02*
X53574888Y28665000D01*
X53824888Y28415000D02*
X53824888Y28915000D01*
X51270113Y27560000D02*
X51270113Y32720000D01*
X51230113Y27560000D02*
X51230113Y32720000D01*
X51190113Y27561000D02*
X51190113Y32719000D01*
X51150113Y27563000D02*
X51150113Y32717000D01*
X51110113Y27565000D02*
X51110113Y32715000D01*
X51070113Y27568000D02*
X51070113Y32712000D01*
X51030113Y27571000D02*
X51030113Y29100000D01*
X51030113Y31180000D02*
X51030113Y32709000D01*
X50990113Y27575000D02*
X50990113Y29100000D01*
X50990113Y31180000D02*
X50990113Y32705000D01*
X50950113Y27580000D02*
X50950113Y29100000D01*
X50950113Y31180000D02*
X50950113Y32700000D01*
X50910113Y27585000D02*
X50910113Y29100000D01*
X50910113Y31180000D02*
X50910113Y32695000D01*
X50870113Y27591000D02*
X50870113Y29100000D01*
X50870113Y31180000D02*
X50870113Y32689000D01*
X50830113Y27597000D02*
X50830113Y29100000D01*
X50830113Y31180000D02*
X50830113Y32683000D01*
X50790113Y27604000D02*
X50790113Y29100000D01*
X50790113Y31180000D02*
X50790113Y32676000D01*
X50750113Y27612000D02*
X50750113Y29100000D01*
X50750113Y31180000D02*
X50750113Y32668000D01*
X50710113Y27621000D02*
X50710113Y29100000D01*
X50710113Y31180000D02*
X50710113Y32659000D01*
X50670113Y27630000D02*
X50670113Y29100000D01*
X50670113Y31180000D02*
X50670113Y32650000D01*
X50630113Y27639000D02*
X50630113Y29100000D01*
X50630113Y31180000D02*
X50630113Y32641000D01*
X50590113Y27650000D02*
X50590113Y29100000D01*
X50590113Y31180000D02*
X50590113Y32630000D01*
X50550113Y27661000D02*
X50550113Y29100000D01*
X50550113Y31180000D02*
X50550113Y32619000D01*
X50510113Y27673000D02*
X50510113Y29100000D01*
X50510113Y31180000D02*
X50510113Y32607000D01*
X50470113Y27685000D02*
X50470113Y29100000D01*
X50470113Y31180000D02*
X50470113Y32595000D01*
X50430113Y27698000D02*
X50430113Y29100000D01*
X50430113Y31180000D02*
X50430113Y32582000D01*
X50390113Y27712000D02*
X50390113Y29100000D01*
X50390113Y31180000D02*
X50390113Y32568000D01*
X50350113Y27727000D02*
X50350113Y29100000D01*
X50350113Y31180000D02*
X50350113Y32553000D01*
X50310113Y27742000D02*
X50310113Y29100000D01*
X50310113Y31180000D02*
X50310113Y32538000D01*
X50270113Y27758000D02*
X50270113Y29100000D01*
X50270113Y31180000D02*
X50270113Y32522000D01*
X50230113Y27775000D02*
X50230113Y29100000D01*
X50230113Y31180000D02*
X50230113Y32505000D01*
X50190113Y27793000D02*
X50190113Y29100000D01*
X50190113Y31180000D02*
X50190113Y32487000D01*
X50150113Y27811000D02*
X50150113Y29100000D01*
X50150113Y31180000D02*
X50150113Y32469000D01*
X50110113Y27831000D02*
X50110113Y29100000D01*
X50110113Y31180000D02*
X50110113Y32449000D01*
X50070113Y27851000D02*
X50070113Y29100000D01*
X50070113Y31180000D02*
X50070113Y32429000D01*
X50030113Y27872000D02*
X50030113Y29100000D01*
X50030113Y31180000D02*
X50030113Y32408000D01*
X49990113Y27894000D02*
X49990113Y29100000D01*
X49990113Y31180000D02*
X49990113Y32386000D01*
X49950113Y27917000D02*
X49950113Y29100000D01*
X49950113Y31180000D02*
X49950113Y32363000D01*
X49910113Y27941000D02*
X49910113Y29100000D01*
X49910113Y31180000D02*
X49910113Y32339000D01*
X49870113Y27965000D02*
X49870113Y29100000D01*
X49870113Y31180000D02*
X49870113Y32315000D01*
X49830113Y27991000D02*
X49830113Y29100000D01*
X49830113Y31180000D02*
X49830113Y32289000D01*
X49790113Y28018000D02*
X49790113Y29100000D01*
X49790113Y31180000D02*
X49790113Y32262000D01*
X49750113Y28046000D02*
X49750113Y29100000D01*
X49750113Y31180000D02*
X49750113Y32234000D01*
X49710113Y28075000D02*
X49710113Y29100000D01*
X49710113Y31180000D02*
X49710113Y32205000D01*
X49670113Y28105000D02*
X49670113Y29100000D01*
X49670113Y31180000D02*
X49670113Y32175000D01*
X49630113Y28137000D02*
X49630113Y29100000D01*
X49630113Y31180000D02*
X49630113Y32143000D01*
X49590113Y28170000D02*
X49590113Y29100000D01*
X49590113Y31180000D02*
X49590113Y32110000D01*
X49550113Y28204000D02*
X49550113Y29100000D01*
X49550113Y31180000D02*
X49550113Y32076000D01*
X49510113Y28239000D02*
X49510113Y29100000D01*
X49510113Y31180000D02*
X49510113Y32041000D01*
X49470113Y28276000D02*
X49470113Y29100000D01*
X49470113Y31180000D02*
X49470113Y32004000D01*
X49430113Y28315000D02*
X49430113Y29100000D01*
X49430113Y31180000D02*
X49430113Y31965000D01*
X49390113Y28355000D02*
X49390113Y29100000D01*
X49390113Y31180000D02*
X49390113Y31925000D01*
X49350113Y28397000D02*
X49350113Y29100000D01*
X49350113Y31180000D02*
X49350113Y31883000D01*
X49310113Y28441000D02*
X49310113Y29100000D01*
X49310113Y31180000D02*
X49310113Y31839000D01*
X49270113Y28488000D02*
X49270113Y29100000D01*
X49270113Y31180000D02*
X49270113Y31792000D01*
X49230113Y28536000D02*
X49230113Y29100000D01*
X49230113Y31180000D02*
X49230113Y31744000D01*
X49190113Y28587000D02*
X49190113Y29100000D01*
X49190113Y31180000D02*
X49190113Y31693000D01*
X49150113Y28641000D02*
X49150113Y29100000D01*
X49150113Y31180000D02*
X49150113Y31639000D01*
X49110113Y28697000D02*
X49110113Y29100000D01*
X49110113Y31180000D02*
X49110113Y31583000D01*
X49070113Y28757000D02*
X49070113Y29100000D01*
X49070113Y31180000D02*
X49070113Y31523000D01*
X49030113Y28821000D02*
X49030113Y29100000D01*
X49030113Y31180000D02*
X49030113Y31459000D01*
X48990113Y28889000D02*
X48990113Y29100000D01*
X48990113Y31180000D02*
X48990113Y31391000D01*
X48950113Y28963000D02*
X48950113Y31317000D01*
X48910113Y29042000D02*
X48910113Y31238000D01*
X48870113Y29129000D02*
X48870113Y31151000D01*
X48830113Y29226000D02*
X48830113Y31054000D01*
X48790113Y29335000D02*
X48790113Y30945000D01*
X48750113Y29463000D02*
X48750113Y30817000D01*
X48710113Y29623000D02*
X48710113Y30657000D01*
X48670113Y29857000D02*
X48670113Y30423000D01*
X53890113Y30140000D02*
G75*
G02*
X48650113Y30140000I-2620000J0D01*
G01*
X48650113Y30140000D02*
G75*
G02*
X53890113Y30140000I2620000J0D01*
G01*
%TO.C,R7*%
X41540000Y55250000D02*
X40770000Y55250000D01*
X40770000Y53880000D02*
X40770000Y56620000D01*
X40770000Y56620000D02*
X34230000Y56620000D01*
X34230000Y53880000D02*
X40770000Y53880000D01*
X34230000Y56620000D02*
X34230000Y53880000D01*
X33460000Y55250000D02*
X34230000Y55250000D01*
%TO.C,R14*%
X14040000Y49750000D02*
X13270000Y49750000D01*
X13270000Y48380000D02*
X13270000Y51120000D01*
X13270000Y51120000D02*
X6730000Y51120000D01*
X6730000Y48380000D02*
X13270000Y48380000D01*
X6730000Y51120000D02*
X6730000Y48380000D01*
X5960000Y49750000D02*
X6730000Y49750000D01*
%TO.C,R15*%
X14040000Y54750000D02*
X13270000Y54750000D01*
X13270000Y53380000D02*
X13270000Y56120000D01*
X13270000Y56120000D02*
X6730000Y56120000D01*
X6730000Y53380000D02*
X13270000Y53380000D01*
X6730000Y56120000D02*
X6730000Y53380000D01*
X5960000Y54750000D02*
X6730000Y54750000D01*
%TO.C,R16*%
X14040000Y59750000D02*
X13270000Y59750000D01*
X13270000Y58380000D02*
X13270000Y61120000D01*
X13270000Y61120000D02*
X6730000Y61120000D01*
X6730000Y58380000D02*
X13270000Y58380000D01*
X6730000Y61120000D02*
X6730000Y58380000D01*
X5960000Y59750000D02*
X6730000Y59750000D01*
%TO.C,R17*%
X14540000Y26250000D02*
X13770000Y26250000D01*
X13770000Y24880000D02*
X13770000Y27620000D01*
X13770000Y27620000D02*
X7230000Y27620000D01*
X7230000Y24880000D02*
X13770000Y24880000D01*
X7230000Y27620000D02*
X7230000Y24880000D01*
X6460000Y26250000D02*
X7230000Y26250000D01*
%TO.C,R18*%
X14540000Y30750000D02*
X13770000Y30750000D01*
X13770000Y29380000D02*
X13770000Y32120000D01*
X13770000Y32120000D02*
X7230000Y32120000D01*
X7230000Y29380000D02*
X13770000Y29380000D01*
X7230000Y32120000D02*
X7230000Y29380000D01*
X6460000Y30750000D02*
X7230000Y30750000D01*
%TO.C,R19*%
X14540000Y35750000D02*
X13770000Y35750000D01*
X13770000Y34380000D02*
X13770000Y37120000D01*
X13770000Y37120000D02*
X7230000Y37120000D01*
X7230000Y34380000D02*
X13770000Y34380000D01*
X7230000Y37120000D02*
X7230000Y34380000D01*
X6460000Y35750000D02*
X7230000Y35750000D01*
%TO.C,R20*%
X14540000Y40750000D02*
X13770000Y40750000D01*
X13770000Y39380000D02*
X13770000Y42120000D01*
X13770000Y42120000D02*
X7230000Y42120000D01*
X7230000Y39380000D02*
X13770000Y39380000D01*
X7230000Y42120000D02*
X7230000Y39380000D01*
X6460000Y40750000D02*
X7230000Y40750000D01*
%TO.C,R21*%
X66875000Y62665000D02*
X66875000Y63435000D01*
X65505000Y63435000D02*
X68245000Y63435000D01*
X68245000Y63435000D02*
X68245000Y69975000D01*
X65505000Y69975000D02*
X65505000Y63435000D01*
X68245000Y69975000D02*
X65505000Y69975000D01*
X66875000Y70745000D02*
X66875000Y69975000D01*
%TO.C,R22*%
X72875000Y62585000D02*
X72875000Y63355000D01*
X71505000Y63355000D02*
X74245000Y63355000D01*
X74245000Y63355000D02*
X74245000Y69895000D01*
X71505000Y69895000D02*
X71505000Y63355000D01*
X74245000Y69895000D02*
X71505000Y69895000D01*
X72875000Y70665000D02*
X72875000Y69895000D01*
%TO.C,R24*%
X87000000Y78040000D02*
X87000000Y77270000D01*
X88370000Y77270000D02*
X85630000Y77270000D01*
X85630000Y77270000D02*
X85630000Y70730000D01*
X88370000Y70730000D02*
X88370000Y77270000D01*
X85630000Y70730000D02*
X88370000Y70730000D01*
X87000000Y69960000D02*
X87000000Y70730000D01*
%TO.C,U1*%
X80005000Y48090000D02*
G75*
G02*
X78005000Y48090000I-1000000J0D01*
G01*
X81655000Y12410000D02*
X81655000Y48090000D01*
X81655000Y48090000D02*
X80005000Y48090000D01*
X78005000Y48090000D02*
X76355000Y48090000D01*
X76355000Y12410000D02*
X81655000Y12410000D01*
X76355000Y48090000D02*
X76355000Y12410000D01*
%TO.C,Y1*%
X61115000Y23640000D02*
X61115000Y26640000D01*
X64515000Y23640000D02*
X64515000Y26640000D01*
X61766039Y22302210D02*
G75*
G02*
X61115000Y23640000I1048957J1337788D01*
G01*
X64515000Y23640000D02*
G75*
G02*
X63863961Y22302210I-1700000J0D01*
G01*
X61115000Y26640000D02*
G75*
G02*
X61766039Y27977790I1700000J0D01*
G01*
X63863961Y27977790D02*
G75*
G02*
X64515000Y26640000I-1048961J-1337790D01*
G01*
%TO.C,C5*%
X95804775Y34525000D02*
X95304775Y34525000D01*
X95554775Y34275000D02*
X95554775Y34775000D01*
X93000000Y33420000D02*
X93000000Y38580000D01*
X92960000Y33420000D02*
X92960000Y38580000D01*
X92920000Y33421000D02*
X92920000Y38579000D01*
X92880000Y33423000D02*
X92880000Y38577000D01*
X92840000Y33425000D02*
X92840000Y38575000D01*
X92800000Y33428000D02*
X92800000Y38572000D01*
X92760000Y33431000D02*
X92760000Y34960000D01*
X92760000Y37040000D02*
X92760000Y38569000D01*
X92720000Y33435000D02*
X92720000Y34960000D01*
X92720000Y37040000D02*
X92720000Y38565000D01*
X92680000Y33440000D02*
X92680000Y34960000D01*
X92680000Y37040000D02*
X92680000Y38560000D01*
X92640000Y33445000D02*
X92640000Y34960000D01*
X92640000Y37040000D02*
X92640000Y38555000D01*
X92600000Y33451000D02*
X92600000Y34960000D01*
X92600000Y37040000D02*
X92600000Y38549000D01*
X92560000Y33457000D02*
X92560000Y34960000D01*
X92560000Y37040000D02*
X92560000Y38543000D01*
X92520000Y33464000D02*
X92520000Y34960000D01*
X92520000Y37040000D02*
X92520000Y38536000D01*
X92480000Y33472000D02*
X92480000Y34960000D01*
X92480000Y37040000D02*
X92480000Y38528000D01*
X92440000Y33481000D02*
X92440000Y34960000D01*
X92440000Y37040000D02*
X92440000Y38519000D01*
X92400000Y33490000D02*
X92400000Y34960000D01*
X92400000Y37040000D02*
X92400000Y38510000D01*
X92360000Y33499000D02*
X92360000Y34960000D01*
X92360000Y37040000D02*
X92360000Y38501000D01*
X92320000Y33510000D02*
X92320000Y34960000D01*
X92320000Y37040000D02*
X92320000Y38490000D01*
X92280000Y33521000D02*
X92280000Y34960000D01*
X92280000Y37040000D02*
X92280000Y38479000D01*
X92240000Y33533000D02*
X92240000Y34960000D01*
X92240000Y37040000D02*
X92240000Y38467000D01*
X92200000Y33545000D02*
X92200000Y34960000D01*
X92200000Y37040000D02*
X92200000Y38455000D01*
X92160000Y33558000D02*
X92160000Y34960000D01*
X92160000Y37040000D02*
X92160000Y38442000D01*
X92120000Y33572000D02*
X92120000Y34960000D01*
X92120000Y37040000D02*
X92120000Y38428000D01*
X92080000Y33587000D02*
X92080000Y34960000D01*
X92080000Y37040000D02*
X92080000Y38413000D01*
X92040000Y33602000D02*
X92040000Y34960000D01*
X92040000Y37040000D02*
X92040000Y38398000D01*
X92000000Y33618000D02*
X92000000Y34960000D01*
X92000000Y37040000D02*
X92000000Y38382000D01*
X91960000Y33635000D02*
X91960000Y34960000D01*
X91960000Y37040000D02*
X91960000Y38365000D01*
X91920000Y33653000D02*
X91920000Y34960000D01*
X91920000Y37040000D02*
X91920000Y38347000D01*
X91880000Y33671000D02*
X91880000Y34960000D01*
X91880000Y37040000D02*
X91880000Y38329000D01*
X91840000Y33691000D02*
X91840000Y34960000D01*
X91840000Y37040000D02*
X91840000Y38309000D01*
X91800000Y33711000D02*
X91800000Y34960000D01*
X91800000Y37040000D02*
X91800000Y38289000D01*
X91760000Y33732000D02*
X91760000Y34960000D01*
X91760000Y37040000D02*
X91760000Y38268000D01*
X91720000Y33754000D02*
X91720000Y34960000D01*
X91720000Y37040000D02*
X91720000Y38246000D01*
X91680000Y33777000D02*
X91680000Y34960000D01*
X91680000Y37040000D02*
X91680000Y38223000D01*
X91640000Y33801000D02*
X91640000Y34960000D01*
X91640000Y37040000D02*
X91640000Y38199000D01*
X91600000Y33825000D02*
X91600000Y34960000D01*
X91600000Y37040000D02*
X91600000Y38175000D01*
X91560000Y33851000D02*
X91560000Y34960000D01*
X91560000Y37040000D02*
X91560000Y38149000D01*
X91520000Y33878000D02*
X91520000Y34960000D01*
X91520000Y37040000D02*
X91520000Y38122000D01*
X91480000Y33906000D02*
X91480000Y34960000D01*
X91480000Y37040000D02*
X91480000Y38094000D01*
X91440000Y33935000D02*
X91440000Y34960000D01*
X91440000Y37040000D02*
X91440000Y38065000D01*
X91400000Y33965000D02*
X91400000Y34960000D01*
X91400000Y37040000D02*
X91400000Y38035000D01*
X91360000Y33997000D02*
X91360000Y34960000D01*
X91360000Y37040000D02*
X91360000Y38003000D01*
X91320000Y34030000D02*
X91320000Y34960000D01*
X91320000Y37040000D02*
X91320000Y37970000D01*
X91280000Y34064000D02*
X91280000Y34960000D01*
X91280000Y37040000D02*
X91280000Y37936000D01*
X91240000Y34099000D02*
X91240000Y34960000D01*
X91240000Y37040000D02*
X91240000Y37901000D01*
X91200000Y34136000D02*
X91200000Y34960000D01*
X91200000Y37040000D02*
X91200000Y37864000D01*
X91160000Y34175000D02*
X91160000Y34960000D01*
X91160000Y37040000D02*
X91160000Y37825000D01*
X91120000Y34215000D02*
X91120000Y34960000D01*
X91120000Y37040000D02*
X91120000Y37785000D01*
X91080000Y34257000D02*
X91080000Y34960000D01*
X91080000Y37040000D02*
X91080000Y37743000D01*
X91040000Y34301000D02*
X91040000Y34960000D01*
X91040000Y37040000D02*
X91040000Y37699000D01*
X91000000Y34348000D02*
X91000000Y34960000D01*
X91000000Y37040000D02*
X91000000Y37652000D01*
X90960000Y34396000D02*
X90960000Y34960000D01*
X90960000Y37040000D02*
X90960000Y37604000D01*
X90920000Y34447000D02*
X90920000Y34960000D01*
X90920000Y37040000D02*
X90920000Y37553000D01*
X90880000Y34501000D02*
X90880000Y34960000D01*
X90880000Y37040000D02*
X90880000Y37499000D01*
X90840000Y34557000D02*
X90840000Y34960000D01*
X90840000Y37040000D02*
X90840000Y37443000D01*
X90800000Y34617000D02*
X90800000Y34960000D01*
X90800000Y37040000D02*
X90800000Y37383000D01*
X90760000Y34681000D02*
X90760000Y34960000D01*
X90760000Y37040000D02*
X90760000Y37319000D01*
X90720000Y34749000D02*
X90720000Y34960000D01*
X90720000Y37040000D02*
X90720000Y37251000D01*
X90680000Y34823000D02*
X90680000Y37177000D01*
X90640000Y34902000D02*
X90640000Y37098000D01*
X90600000Y34989000D02*
X90600000Y37011000D01*
X90560000Y35086000D02*
X90560000Y36914000D01*
X90520000Y35195000D02*
X90520000Y36805000D01*
X90480000Y35323000D02*
X90480000Y36677000D01*
X90440000Y35483000D02*
X90440000Y36517000D01*
X90400000Y35717000D02*
X90400000Y36283000D01*
X95620000Y36000000D02*
G75*
G02*
X90380000Y36000000I-2620000J0D01*
G01*
X90380000Y36000000D02*
G75*
G02*
X95620000Y36000000I2620000J0D01*
G01*
%TO.C,J5*%
X28120000Y62870000D02*
X20080000Y62870000D01*
X28120000Y62870000D02*
X28120000Y47130000D01*
X24500000Y62870000D02*
X24500000Y61630000D01*
X23500000Y62870000D02*
X23500000Y61630000D01*
X22200000Y62870000D02*
X22200000Y61630000D01*
X20080000Y62870000D02*
X20080000Y60050000D01*
X20080000Y59450000D02*
X20080000Y47130000D01*
X24500000Y57870000D02*
X24500000Y56562000D01*
X23500000Y57870000D02*
X23500000Y56562000D01*
X22200000Y57870000D02*
X22200000Y55293000D01*
X22200000Y54207000D02*
X22200000Y50293000D01*
X24500000Y52938000D02*
X24500000Y51562000D01*
X23500000Y52938000D02*
X23500000Y51562000D01*
X22200000Y49207000D02*
X22200000Y47130000D01*
X24500000Y47938000D02*
X24500000Y47130000D01*
X23500000Y47938000D02*
X23500000Y47130000D01*
X28120000Y47130000D02*
X20080000Y47130000D01*
X20080000Y59750000D02*
X19470000Y59310000D01*
X19470000Y60190000D01*
X20080000Y59750000D01*
G36*
X20080000Y59750000D02*
G01*
X19470000Y59310000D01*
X19470000Y60190000D01*
X20080000Y59750000D01*
G37*
%TO.C,J1*%
X100120000Y81130000D02*
X100120000Y89170000D01*
X100120000Y81130000D02*
X84380000Y81130000D01*
X100120000Y84750000D02*
X98880000Y84750000D01*
X100120000Y85750000D02*
X98880000Y85750000D01*
X100120000Y87050000D02*
X98880000Y87050000D01*
X100120000Y89170000D02*
X97300000Y89170000D01*
X96700000Y89170000D02*
X84380000Y89170000D01*
X95120000Y84750000D02*
X93812000Y84750000D01*
X95120000Y85750000D02*
X93812000Y85750000D01*
X95120000Y87050000D02*
X92543000Y87050000D01*
X91457000Y87050000D02*
X87543000Y87050000D01*
X90188000Y84750000D02*
X88812000Y84750000D01*
X90188000Y85750000D02*
X88812000Y85750000D01*
X86457000Y87050000D02*
X84380000Y87050000D01*
X85188000Y84750000D02*
X84380000Y84750000D01*
X85188000Y85750000D02*
X84380000Y85750000D01*
X84380000Y81130000D02*
X84380000Y89170000D01*
X97000000Y89170000D02*
X96560000Y89780000D01*
X97440000Y89780000D01*
X97000000Y89170000D01*
G36*
X97000000Y89170000D02*
G01*
X96560000Y89780000D01*
X97440000Y89780000D01*
X97000000Y89170000D01*
G37*
%TO.C,J8*%
X53755000Y84745000D02*
X53755000Y76705000D01*
X53755000Y84745000D02*
X74495000Y84745000D01*
X53755000Y81125000D02*
X54995000Y81125000D01*
X53755000Y80125000D02*
X54995000Y80125000D01*
X53755000Y78825000D02*
X54995000Y78825000D01*
X53755000Y76705000D02*
X56575000Y76705000D01*
X57175000Y76705000D02*
X74495000Y76705000D01*
X58755000Y81125000D02*
X60063000Y81125000D01*
X58755000Y80125000D02*
X60063000Y80125000D01*
X58755000Y78825000D02*
X61332000Y78825000D01*
X62418000Y78825000D02*
X66332000Y78825000D01*
X63687000Y81125000D02*
X65063000Y81125000D01*
X63687000Y80125000D02*
X65063000Y80125000D01*
X67418000Y78825000D02*
X71332000Y78825000D01*
X68687000Y81125000D02*
X70063000Y81125000D01*
X68687000Y80125000D02*
X70063000Y80125000D01*
X72418000Y78825000D02*
X74495000Y78825000D01*
X73687000Y81125000D02*
X74495000Y81125000D01*
X73687000Y80125000D02*
X74495000Y80125000D01*
X74495000Y84745000D02*
X74495000Y76705000D01*
X57315000Y76095000D02*
X56435000Y76095000D01*
X56875000Y76705000D01*
X57315000Y76095000D01*
G36*
X57315000Y76095000D02*
G01*
X56435000Y76095000D01*
X56875000Y76705000D01*
X57315000Y76095000D01*
G37*
%TO.C,J9*%
X116880000Y26870000D02*
X124920000Y26870000D01*
X116880000Y26870000D02*
X116880000Y47610000D01*
X120500000Y26870000D02*
X120500000Y28110000D01*
X121500000Y26870000D02*
X121500000Y28110000D01*
X122800000Y26870000D02*
X122800000Y28110000D01*
X124920000Y26870000D02*
X124920000Y29690000D01*
X124920000Y30290000D02*
X124920000Y47610000D01*
X120500000Y31870000D02*
X120500000Y33178000D01*
X121500000Y31870000D02*
X121500000Y33178000D01*
X122800000Y31870000D02*
X122800000Y34447000D01*
X122800000Y35533000D02*
X122800000Y39447000D01*
X120500000Y36802000D02*
X120500000Y38178000D01*
X121500000Y36802000D02*
X121500000Y38178000D01*
X122800000Y40533000D02*
X122800000Y44447000D01*
X120500000Y41802000D02*
X120500000Y43178000D01*
X121500000Y41802000D02*
X121500000Y43178000D01*
X122800000Y45533000D02*
X122800000Y47610000D01*
X120500000Y46802000D02*
X120500000Y47610000D01*
X121500000Y46802000D02*
X121500000Y47610000D01*
X116880000Y47610000D02*
X124920000Y47610000D01*
X125530000Y29550000D02*
X124920000Y29990000D01*
X125530000Y30430000D01*
X125530000Y29550000D01*
G36*
X125530000Y29550000D02*
G01*
X124920000Y29990000D01*
X125530000Y30430000D01*
X125530000Y29550000D01*
G37*
%TO.C,J10*%
X116880000Y2870000D02*
X124920000Y2870000D01*
X116880000Y2870000D02*
X116880000Y23610000D01*
X120500000Y2870000D02*
X120500000Y4110000D01*
X121500000Y2870000D02*
X121500000Y4110000D01*
X122800000Y2870000D02*
X122800000Y4110000D01*
X124920000Y2870000D02*
X124920000Y5690000D01*
X124920000Y6290000D02*
X124920000Y23610000D01*
X120500000Y7870000D02*
X120500000Y9178000D01*
X121500000Y7870000D02*
X121500000Y9178000D01*
X122800000Y7870000D02*
X122800000Y10447000D01*
X122800000Y11533000D02*
X122800000Y15447000D01*
X120500000Y12802000D02*
X120500000Y14178000D01*
X121500000Y12802000D02*
X121500000Y14178000D01*
X122800000Y16533000D02*
X122800000Y20447000D01*
X120500000Y17802000D02*
X120500000Y19178000D01*
X121500000Y17802000D02*
X121500000Y19178000D01*
X122800000Y21533000D02*
X122800000Y23610000D01*
X120500000Y22802000D02*
X120500000Y23610000D01*
X121500000Y22802000D02*
X121500000Y23610000D01*
X116880000Y23610000D02*
X124920000Y23610000D01*
X125530000Y5550000D02*
X124920000Y5990000D01*
X125530000Y6430000D01*
X125530000Y5550000D01*
G36*
X125530000Y5550000D02*
G01*
X124920000Y5990000D01*
X125530000Y6430000D01*
X125530000Y5550000D01*
G37*
%TO.C,J11*%
X141550000Y70692500D02*
X126850000Y70692500D01*
X141550000Y79892500D02*
X141550000Y70692500D01*
X132750000Y79892500D02*
X141550000Y79892500D01*
X127700000Y70492500D02*
X126650000Y70492500D01*
X126850000Y70692500D02*
X126850000Y73292500D01*
X126850000Y77192500D02*
X126850000Y79892500D01*
X126850000Y79892500D02*
X128750000Y79892500D01*
X126650000Y71542500D02*
X126650000Y70492500D01*
%TO.C,SW1*%
X118500000Y88750000D02*
X118500000Y87250000D01*
X119750000Y84750000D02*
X124250000Y84750000D01*
X124250000Y91250000D02*
X119750000Y91250000D01*
X125500000Y87250000D02*
X125500000Y88750000D01*
%TD*%
M02*
