M48
METRIC
T1C0.800
T2C0.900
T3C1.000
T4C1.000
T5C1.100
T6C1.300
%
G90
G05
T1
X38.42Y-62.0
X38.42Y-67.0
X38.42Y-72.0
X38.92Y-81.0
X38.92Y-86.0
X38.92Y-91.0
X38.92Y-95.5
X48.58Y-62.0
X48.58Y-67.0
X48.58Y-72.0
X49.08Y-81.0
X49.08Y-86.0
X49.08Y-91.0
X49.08Y-95.5
X65.42Y-81.0
X65.42Y-86.0
X65.92Y-61.75
X65.92Y-66.5
X65.92Y-72.0
X65.92Y-91.0
X66.17Y-96.0
X75.58Y-81.0
X75.58Y-86.0
X76.08Y-61.75
X76.08Y-66.5
X76.08Y-72.0
X76.08Y-91.0
X76.33Y-96.0
X83.52Y-91.61
X83.815Y-102.11
X86.02Y-91.61
X86.315Y-102.11
X95.295Y-87.75
X97.795Y-87.75
X100.375Y-49.965
X100.375Y-60.125
X106.375Y-50.045
X106.375Y-60.205
X108.695Y-74.99
X108.695Y-77.53
X108.695Y-80.07
X108.695Y-82.61
X108.695Y-85.15
X108.695Y-87.69
X108.695Y-90.23
X108.695Y-92.77
X108.695Y-95.31
X108.695Y-97.85
X108.695Y-100.39
X108.695Y-102.93
X108.695Y-105.47
X108.695Y-108.01
X116.315Y-74.99
X116.315Y-77.53
X116.315Y-80.07
X116.315Y-82.61
X116.315Y-85.15
X116.315Y-87.69
X116.315Y-90.23
X116.315Y-92.77
X116.315Y-95.31
X116.315Y-97.85
X116.315Y-100.39
X116.315Y-102.93
X116.315Y-105.47
X116.315Y-108.01
X120.5Y-42.67
X120.5Y-52.83
X125.25Y-85.75
X127.75Y-85.75
X128.815Y-91.11
X128.815Y-93.61
X131.84Y-61.75
X138.5Y-33.17
X138.5Y-43.33
X142.0Y-61.75
X146.5Y-45.0
X146.5Y-47.5
T2
X151.73Y-41.75
X154.27Y-41.75
T3
X80.0Y-74.75
X84.0Y-43.25
X85.0Y-86.25
X85.5Y-68.75
X86.5Y-64.0
X96.5Y-112.0
X98.25Y-107.75
X100.0Y-104.25
X104.0Y-74.25
X111.75Y-64.5
X113.75Y-67.5
X119.5Y-115.75
X123.0Y-56.75
X125.25Y-105.0
X126.0Y-44.75
X129.75Y-75.25
X131.0Y-83.25
X133.75Y-71.0
X134.5Y-99.25
X137.25Y-29.25
X137.75Y-106.5
X140.5Y-67.5
X145.0Y-36.75
X145.5Y-40.25
X157.5Y-68.75
X162.5Y-34.75
X168.0Y-37.25
T4
X96.315Y-94.11
X96.315Y-99.11
X128.59Y-114.75
X128.59Y-117.29
X131.13Y-114.75
X131.13Y-117.29
X133.67Y-114.75
X133.67Y-117.29
X136.21Y-114.75
X136.21Y-117.29
X138.75Y-114.75
X138.75Y-117.29
X149.525Y-59.7
X149.525Y-62.24
X149.525Y-64.78
X149.525Y-67.32
T5
X152.25Y-31.5
X152.25Y-36.0
X158.75Y-31.5
X158.75Y-36.0
T6
X57.5Y-62.0
X57.5Y-67.0
X57.5Y-72.0
X57.5Y-81.0
X57.5Y-86.0
X57.5Y-91.0
X57.5Y-96.0
X90.375Y-41.125
X95.375Y-41.125
X100.375Y-41.125
X105.375Y-41.125
X120.5Y-36.5
X125.5Y-36.5
X130.5Y-36.5
X154.5Y-76.76
X154.5Y-81.76
X154.5Y-86.76
X154.5Y-91.76
X154.5Y-100.76
X154.5Y-105.76
X154.5Y-110.76
X154.5Y-115.76
T4
X161.25Y-47.457G85X161.25Y-45.457
G05
X165.25Y-41.758G85X163.25Y-41.758
G05
X167.25Y-47.457G85X167.25Y-45.457
G05
M30
