M48
METRIC
T1C0.800
T2C0.900
T3C1.000
T4C1.000
T5C1.100
T6C1.300
T7C1.500
%
G90
G05
T1
X33.11Y-45.83
X33.11Y-55.99
X38.61Y-37.75
X38.61Y-47.91
X40.48Y-95.36
X40.48Y-97.9
X40.48Y-100.44
X40.48Y-102.98
X40.48Y-105.52
X40.48Y-108.06
X40.48Y-110.6
X41.63Y-77.81
X41.83Y-88.51
X43.53Y-71.01
X47.31Y-117.41
X47.31Y-119.41
X47.31Y-121.41
X48.1Y-95.36
X48.1Y-97.9
X48.1Y-100.44
X48.1Y-102.98
X48.1Y-105.52
X48.1Y-108.06
X48.1Y-110.6
X49.09Y-42.21
X49.09Y-52.37
X51.79Y-77.81
X51.99Y-88.51
X53.69Y-71.01
X53.99Y-42.01
X53.99Y-52.17
X56.95Y-79.41
X56.95Y-87.03
X57.31Y-109.25
X57.31Y-119.41
X59.19Y-42.13
X59.19Y-52.29
X59.49Y-79.41
X59.49Y-87.03
X62.03Y-65.43
X62.03Y-67.93
X62.03Y-79.41
X62.03Y-87.03
X63.99Y-42.21
X63.99Y-52.37
X64.11Y-101.53
X64.11Y-111.69
X64.57Y-79.41
X64.57Y-87.03
X67.11Y-79.41
X67.11Y-87.03
X69.53Y-63.33
X69.53Y-65.83
X69.65Y-79.41
X69.65Y-87.03
X72.19Y-79.41
X72.19Y-87.03
X73.94Y-42.337
X73.94Y-52.497
X74.73Y-79.41
X74.73Y-87.03
X77.27Y-79.41
X77.27Y-87.03
X78.21Y-93.53
X78.21Y-103.69
X79.04Y-42.417
X79.04Y-52.578
X79.81Y-79.41
X79.81Y-87.03
X80.33Y-121.11
X82.21Y-93.53
X82.21Y-103.69
X82.35Y-79.41
X82.35Y-87.03
X82.49Y-60.53
X82.49Y-70.69
X84.64Y-42.218
X84.64Y-52.377
X84.89Y-79.41
X84.89Y-87.03
X87.43Y-79.41
X87.43Y-87.03
X87.49Y-60.53
X87.49Y-70.69
X87.51Y-95.13
X87.51Y-105.29
X89.97Y-79.41
X89.97Y-87.03
X90.49Y-121.11
X92.19Y-60.43
X92.19Y-70.59
X95.87Y-113.21
X95.87Y-120.83
X96.65Y-76.83
X98.41Y-113.21
X98.41Y-120.83
X100.95Y-113.21
X100.95Y-120.83
X103.49Y-113.21
X103.49Y-120.83
X106.03Y-113.21
X106.03Y-120.83
X106.81Y-76.83
X108.57Y-113.21
X108.57Y-120.83
X108.92Y-70.6
X111.11Y-113.21
X111.11Y-120.83
X112.47Y-89.71
X112.47Y-97.33
X113.41Y-53.91
X113.41Y-64.07
X115.01Y-89.71
X115.01Y-97.33
X117.55Y-89.71
X117.55Y-97.33
X119.08Y-70.6
X119.31Y-53.73
X119.31Y-63.89
X120.09Y-89.71
X120.09Y-97.33
X120.6Y-102.88
X120.6Y-110.5
X123.14Y-102.88
X123.14Y-110.5
X124.51Y-53.71
X124.51Y-63.87
X125.68Y-102.88
X125.68Y-110.5
X126.08Y-74.58
X126.08Y-82.2
X128.22Y-102.88
X128.22Y-110.5
X128.62Y-74.58
X128.62Y-82.2
X130.4Y-56.3
X130.4Y-58.8
X130.76Y-102.88
X130.76Y-110.5
X131.16Y-74.58
X131.16Y-82.2
X133.3Y-102.88
X133.3Y-110.5
X133.7Y-74.58
X133.7Y-82.2
X135.84Y-102.88
X135.84Y-110.5
X136.24Y-74.58
X136.24Y-82.2
X137.688Y-28.91
X137.688Y-31.41
X138.195Y-56.7
X138.78Y-74.58
X138.78Y-82.2
X140.695Y-56.7
X141.32Y-74.58
X141.32Y-82.2
X143.86Y-74.58
X143.86Y-82.2
X144.287Y-33.93
X144.287Y-44.09
X146.4Y-74.58
X146.4Y-82.2
X148.94Y-74.58
X148.94Y-82.2
X150.71Y-55.21
X150.71Y-65.37
X151.48Y-74.58
X151.48Y-82.2
X152.0Y-103.42
X152.0Y-113.58
X152.61Y-90.43
X152.61Y-100.59
X154.02Y-74.58
X154.02Y-82.2
X155.91Y-54.93
X155.91Y-65.09
X156.56Y-74.58
X156.56Y-82.2
X159.1Y-74.58
X159.1Y-82.2
X160.91Y-54.53
X160.91Y-64.69
X162.31Y-93.43
X162.31Y-103.59
X166.24Y-71.0
X166.31Y-115.06
X166.31Y-117.56
X169.01Y-98.93
X169.01Y-109.09
X170.57Y-53.81
X170.57Y-63.97
X176.4Y-71.0
X182.91Y-100.03
X182.91Y-110.19
T2
X144.188Y-26.84
X144.188Y-29.38
X173.37Y-106.11
X175.91Y-106.11
T3
X24.4Y-91.5
X31.0Y-89.2
X34.4Y-92.0
X35.0Y-109.4
X35.6Y-85.8
X36.7Y-113.1
X37.6Y-97.9
X37.7Y-106.1
X38.1Y-115.8
X39.21Y-83.31
X39.5Y-91.4
X39.8Y-114.7
X42.91Y-36.21
X43.0Y-117.8
X45.41Y-47.01
X47.7Y-92.6
X49.5Y-85.4
X49.81Y-67.21
X49.81Y-74.41
X52.3Y-114.9
X57.3Y-98.3
X57.4Y-102.8
X60.71Y-102.41
X61.5Y-118.1
X64.71Y-59.91
X65.5Y-98.3
X66.0Y-92.8
X66.2Y-114.8
X66.7Y-102.5
X69.51Y-107.51
X72.1Y-122.3
X72.9Y-108.9
X76.51Y-47.31
X77.91Y-106.41
X79.01Y-39.81
X82.51Y-90.41
X88.31Y-42.31
X91.0Y-109.81
X91.1Y-111.6
X92.31Y-51.71
X92.5Y-105.5
X92.9Y-95.5
X93.2Y-123.7
X93.3Y-99.2
X94.91Y-82.71
X96.51Y-69.71
X96.51Y-90.11
X96.61Y-87.81
X97.71Y-55.21
X99.01Y-68.01
X99.61Y-59.71
X102.21Y-57.91
X103.4Y-106.0
X103.6Y-123.7
X107.01Y-93.41
X107.8Y-123.6
X108.31Y-90.21
X110.61Y-59.51
X112.71Y-87.11
X114.61Y-123.81
X115.1Y-111.6
X115.9Y-115.9
X116.6Y-107.2
X117.8Y-103.7
X117.9Y-112.7
X121.1Y-122.1
X121.6Y-115.2
X122.5Y-119.2
X122.71Y-85.81
X125.0Y-98.0
X125.11Y-42.11
X125.5Y-91.9
X126.4Y-115.8
X128.41Y-28.41
X128.81Y-95.41
X130.0Y-100.2
X132.81Y-41.91
X135.3Y-98.3
X136.51Y-96.11
X138.8Y-108.3
X144.2Y-116.1
X144.31Y-49.61
X147.4Y-104.5
X148.71Y-51.21
X148.81Y-95.01
X149.81Y-47.81
X154.31Y-43.01
X156.3Y-106.6
X156.3Y-111.3
X156.81Y-44.61
X158.31Y-89.31
X160.71Y-87.01
X163.61Y-73.51
X165.2Y-112.7
X170.3Y-112.4
X172.31Y-114.41
X176.4Y-110.1
T4
X27.06Y-98.9
X27.06Y-101.44
X27.06Y-103.98
X27.06Y-106.52
X27.06Y-109.06
X29.6Y-98.9
X29.6Y-101.44
X29.6Y-103.98
X29.6Y-106.52
X29.6Y-109.06
X41.51Y-55.01
X41.51Y-62.61
X53.5Y-93.1
X53.5Y-98.1
X61.4Y-93.1
X61.4Y-98.1
X64.48Y-73.03
X69.43Y-95.03
X69.43Y-103.03
X69.48Y-73.03
X72.73Y-70.73
X74.43Y-95.03
X74.43Y-103.03
X77.73Y-70.73
X83.01Y-114.01
X88.01Y-114.01
X104.31Y-97.61
X104.31Y-102.61
X109.2Y-107.2
X111.087Y-37.41
X111.087Y-42.41
X112.89Y-78.73
X112.89Y-83.73
X114.2Y-107.2
X114.688Y-30.41
X119.688Y-30.41
X120.087Y-37.31
X120.087Y-42.31
X132.8Y-115.9
X133.95Y-66.7
X136.887Y-35.01
X136.887Y-40.01
X137.8Y-115.9
X138.95Y-66.7
X139.8Y-100.8
X140.1Y-92.0
X142.8Y-106.8
X142.8Y-111.8
X144.5Y-61.1
X144.5Y-66.1
X144.8Y-100.8
X145.1Y-92.0
X154.38Y-38.41
X156.92Y-38.41
X159.46Y-38.41
X162.0Y-38.41
T5
X129.832Y-32.31
X129.832Y-34.01
X129.832Y-35.71
X129.832Y-37.41
X129.832Y-39.11
X152.66Y-116.86
X152.66Y-123.36
X157.16Y-116.86
X157.16Y-123.36
T6
X33.578Y-68.86
X33.578Y-73.86
X49.09Y-34.19
X54.09Y-34.19
X59.09Y-34.19
X64.09Y-34.19
X74.14Y-34.297
X79.14Y-34.297
X84.14Y-34.297
X93.91Y-23.11
X98.91Y-23.11
X103.91Y-23.11
X108.91Y-23.11
X160.16Y-22.142
X165.16Y-22.142
X170.16Y-22.142
X172.11Y-36.91
X172.11Y-41.91
X172.11Y-46.91
X175.16Y-22.142
X176.11Y-79.91
X176.11Y-84.91
X176.11Y-89.91
X176.11Y-94.91
T7
X47.31Y-115.31
X47.31Y-123.51
T4
X175.91Y-120.11G85X175.91Y-118.11
G05
X179.91Y-114.41G85X177.91Y-114.41
G05
X181.91Y-120.11G85X181.91Y-118.11
G05
M30
