M48
; DRILL file {KiCad 9.0.4} date 2025-11-01T23:12:14-0400
; FORMAT={-:-/ absolute / metric / decimal}
; #@! TF.CreationDate,2025-11-01T23:12:14-04:00
; #@! TF.GenerationSoftware,Kicad,Pcbnew,9.0.4
; #@! TF.FileFunction,NonPlated,1,4,NPTH
FMAT,2
METRIC
; #@! TA.AperFunction,NonPlated,NPTH,ComponentDrill
T1C2.100
%
G90
G05
T1
X123.025Y-89.875
X123.025Y-343.875
X147.5Y-100.0
X147.5Y-135.0
X147.5Y-160.0
X147.5Y-185.0
X147.5Y-232.5
X147.5Y-280.0
X147.5Y-305.0
X147.5Y-330.0
X177.5Y-90.0
X177.5Y-345.0
X225.0Y-90.0
X225.0Y-345.0
X267.5Y-90.0
X267.5Y-345.0
X307.5Y-90.0
X307.5Y-345.0
X350.0Y-90.0
X350.0Y-345.0
X402.5Y-90.0
X402.5Y-345.0
X445.0Y-100.0
X445.0Y-130.0
X445.0Y-162.5
X445.0Y-205.0
X445.0Y-255.0
X445.0Y-302.5
X452.025Y-89.875
X452.025Y-343.875
M30
