%TF.GenerationSoftware,KiCad,Pcbnew,9.0.4*%
%TF.CreationDate,2025-11-01T17:58:19-04:00*%
%TF.ProjectId,GRID,47524944-2e6b-4696-9361-645f70636258,rev?*%
%TF.SameCoordinates,Original*%
%TF.FileFunction,Drillmap*%
%TF.FilePolarity,Positive*%
%FSLAX45Y45*%
G04 Gerber Fmt 4.5, Leading zero omitted, Abs format (unit mm)*
G04 Created by KiCad (PCBNEW 9.0.4) date 2025-11-01 17:58:19*
%MOMM*%
%LPD*%
G01*
G04 APERTURE LIST*
%ADD10C,0.050000*%
%ADD11C,0.200000*%
%ADD12C,0.210000*%
G04 APERTURE END LIST*
D10*
X45750000Y-35000000D02*
X11750000Y-35000000D01*
X11750000Y-8500000D02*
X45750000Y-8500000D01*
X45750000Y-8500000D02*
X45750000Y-35000000D01*
X11750000Y-35000000D02*
X11750000Y-8500000D01*
D11*
D12*
X12197500Y-8882500D02*
X12407500Y-9092500D01*
X12407500Y-8882500D02*
X12197500Y-9092500D01*
X12197500Y-34282500D02*
X12407500Y-34492500D01*
X12407500Y-34282500D02*
X12197500Y-34492500D01*
X14645000Y-9895000D02*
X14855000Y-10105000D01*
X14855000Y-9895000D02*
X14645000Y-10105000D01*
X14645000Y-13395000D02*
X14855000Y-13605000D01*
X14855000Y-13395000D02*
X14645000Y-13605000D01*
X14645000Y-15895000D02*
X14855000Y-16105000D01*
X14855000Y-15895000D02*
X14645000Y-16105000D01*
X14645000Y-18395000D02*
X14855000Y-18605000D01*
X14855000Y-18395000D02*
X14645000Y-18605000D01*
X14645000Y-23145000D02*
X14855000Y-23355000D01*
X14855000Y-23145000D02*
X14645000Y-23355000D01*
X14645000Y-27895000D02*
X14855000Y-28105000D01*
X14855000Y-27895000D02*
X14645000Y-28105000D01*
X14645000Y-30395000D02*
X14855000Y-30605000D01*
X14855000Y-30395000D02*
X14645000Y-30605000D01*
X14645000Y-32895000D02*
X14855000Y-33105000D01*
X14855000Y-32895000D02*
X14645000Y-33105000D01*
X17645000Y-8895000D02*
X17855000Y-9105000D01*
X17855000Y-8895000D02*
X17645000Y-9105000D01*
X17645000Y-34395000D02*
X17855000Y-34605000D01*
X17855000Y-34395000D02*
X17645000Y-34605000D01*
X22395000Y-8895000D02*
X22605000Y-9105000D01*
X22605000Y-8895000D02*
X22395000Y-9105000D01*
X22395000Y-34395000D02*
X22605000Y-34605000D01*
X22605000Y-34395000D02*
X22395000Y-34605000D01*
X26645000Y-8895000D02*
X26855000Y-9105000D01*
X26855000Y-8895000D02*
X26645000Y-9105000D01*
X26645000Y-34395000D02*
X26855000Y-34605000D01*
X26855000Y-34395000D02*
X26645000Y-34605000D01*
X30645000Y-8895000D02*
X30855000Y-9105000D01*
X30855000Y-8895000D02*
X30645000Y-9105000D01*
X30645000Y-34395000D02*
X30855000Y-34605000D01*
X30855000Y-34395000D02*
X30645000Y-34605000D01*
X34895000Y-8895000D02*
X35105000Y-9105000D01*
X35105000Y-8895000D02*
X34895000Y-9105000D01*
X34895000Y-34395000D02*
X35105000Y-34605000D01*
X35105000Y-34395000D02*
X34895000Y-34605000D01*
X40145000Y-8895000D02*
X40355000Y-9105000D01*
X40355000Y-8895000D02*
X40145000Y-9105000D01*
X40145000Y-34395000D02*
X40355000Y-34605000D01*
X40355000Y-34395000D02*
X40145000Y-34605000D01*
X44395000Y-9895000D02*
X44605000Y-10105000D01*
X44605000Y-9895000D02*
X44395000Y-10105000D01*
X44395000Y-12895000D02*
X44605000Y-13105000D01*
X44605000Y-12895000D02*
X44395000Y-13105000D01*
X44395000Y-16145000D02*
X44605000Y-16355000D01*
X44605000Y-16145000D02*
X44395000Y-16355000D01*
X44395000Y-20395000D02*
X44605000Y-20605000D01*
X44605000Y-20395000D02*
X44395000Y-20605000D01*
X44395000Y-25395000D02*
X44605000Y-25605000D01*
X44605000Y-25395000D02*
X44395000Y-25605000D01*
X44395000Y-30145000D02*
X44605000Y-30355000D01*
X44605000Y-30145000D02*
X44395000Y-30355000D01*
X45097500Y-8882500D02*
X45307500Y-9092500D01*
X45307500Y-8882500D02*
X45097500Y-9092500D01*
X45097500Y-34282500D02*
X45307500Y-34492500D01*
X45307500Y-34282500D02*
X45097500Y-34492500D01*
D11*
X12008277Y-35313984D02*
X12008277Y-35113984D01*
X12008277Y-35113984D02*
X12055896Y-35113984D01*
X12055896Y-35113984D02*
X12084467Y-35123508D01*
X12084467Y-35123508D02*
X12103515Y-35142555D01*
X12103515Y-35142555D02*
X12113039Y-35161603D01*
X12113039Y-35161603D02*
X12122562Y-35199698D01*
X12122562Y-35199698D02*
X12122562Y-35228270D01*
X12122562Y-35228270D02*
X12113039Y-35266365D01*
X12113039Y-35266365D02*
X12103515Y-35285412D01*
X12103515Y-35285412D02*
X12084467Y-35304460D01*
X12084467Y-35304460D02*
X12055896Y-35313984D01*
X12055896Y-35313984D02*
X12008277Y-35313984D01*
X12208277Y-35313984D02*
X12208277Y-35180650D01*
X12208277Y-35218746D02*
X12217801Y-35199698D01*
X12217801Y-35199698D02*
X12227324Y-35190174D01*
X12227324Y-35190174D02*
X12246372Y-35180650D01*
X12246372Y-35180650D02*
X12265420Y-35180650D01*
X12332086Y-35313984D02*
X12332086Y-35180650D01*
X12332086Y-35113984D02*
X12322562Y-35123508D01*
X12322562Y-35123508D02*
X12332086Y-35133031D01*
X12332086Y-35133031D02*
X12341610Y-35123508D01*
X12341610Y-35123508D02*
X12332086Y-35113984D01*
X12332086Y-35113984D02*
X12332086Y-35133031D01*
X12455896Y-35313984D02*
X12436848Y-35304460D01*
X12436848Y-35304460D02*
X12427324Y-35285412D01*
X12427324Y-35285412D02*
X12427324Y-35113984D01*
X12560658Y-35313984D02*
X12541610Y-35304460D01*
X12541610Y-35304460D02*
X12532086Y-35285412D01*
X12532086Y-35285412D02*
X12532086Y-35113984D01*
X12789229Y-35313984D02*
X12789229Y-35113984D01*
X12789229Y-35113984D02*
X12855896Y-35256841D01*
X12855896Y-35256841D02*
X12922562Y-35113984D01*
X12922562Y-35113984D02*
X12922562Y-35313984D01*
X13103515Y-35313984D02*
X13103515Y-35209222D01*
X13103515Y-35209222D02*
X13093991Y-35190174D01*
X13093991Y-35190174D02*
X13074943Y-35180650D01*
X13074943Y-35180650D02*
X13036848Y-35180650D01*
X13036848Y-35180650D02*
X13017801Y-35190174D01*
X13103515Y-35304460D02*
X13084467Y-35313984D01*
X13084467Y-35313984D02*
X13036848Y-35313984D01*
X13036848Y-35313984D02*
X13017801Y-35304460D01*
X13017801Y-35304460D02*
X13008277Y-35285412D01*
X13008277Y-35285412D02*
X13008277Y-35266365D01*
X13008277Y-35266365D02*
X13017801Y-35247317D01*
X13017801Y-35247317D02*
X13036848Y-35237793D01*
X13036848Y-35237793D02*
X13084467Y-35237793D01*
X13084467Y-35237793D02*
X13103515Y-35228270D01*
X13198753Y-35180650D02*
X13198753Y-35380650D01*
X13198753Y-35190174D02*
X13217801Y-35180650D01*
X13217801Y-35180650D02*
X13255896Y-35180650D01*
X13255896Y-35180650D02*
X13274943Y-35190174D01*
X13274943Y-35190174D02*
X13284467Y-35199698D01*
X13284467Y-35199698D02*
X13293991Y-35218746D01*
X13293991Y-35218746D02*
X13293991Y-35275889D01*
X13293991Y-35275889D02*
X13284467Y-35294936D01*
X13284467Y-35294936D02*
X13274943Y-35304460D01*
X13274943Y-35304460D02*
X13255896Y-35313984D01*
X13255896Y-35313984D02*
X13217801Y-35313984D01*
X13217801Y-35313984D02*
X13198753Y-35304460D01*
X13379705Y-35294936D02*
X13389229Y-35304460D01*
X13389229Y-35304460D02*
X13379705Y-35313984D01*
X13379705Y-35313984D02*
X13370182Y-35304460D01*
X13370182Y-35304460D02*
X13379705Y-35294936D01*
X13379705Y-35294936D02*
X13379705Y-35313984D01*
X13379705Y-35190174D02*
X13389229Y-35199698D01*
X13389229Y-35199698D02*
X13379705Y-35209222D01*
X13379705Y-35209222D02*
X13370182Y-35199698D01*
X13370182Y-35199698D02*
X13379705Y-35190174D01*
X13379705Y-35190174D02*
X13379705Y-35209222D01*
X11547500Y-35542500D02*
X11747500Y-35742500D01*
X11747500Y-35542500D02*
X11547500Y-35742500D01*
X11998753Y-35553031D02*
X12008277Y-35543508D01*
X12008277Y-35543508D02*
X12027324Y-35533984D01*
X12027324Y-35533984D02*
X12074943Y-35533984D01*
X12074943Y-35533984D02*
X12093991Y-35543508D01*
X12093991Y-35543508D02*
X12103515Y-35553031D01*
X12103515Y-35553031D02*
X12113039Y-35572079D01*
X12113039Y-35572079D02*
X12113039Y-35591127D01*
X12113039Y-35591127D02*
X12103515Y-35619698D01*
X12103515Y-35619698D02*
X11989229Y-35733984D01*
X11989229Y-35733984D02*
X12113039Y-35733984D01*
X12198753Y-35714936D02*
X12208277Y-35724460D01*
X12208277Y-35724460D02*
X12198753Y-35733984D01*
X12198753Y-35733984D02*
X12189229Y-35724460D01*
X12189229Y-35724460D02*
X12198753Y-35714936D01*
X12198753Y-35714936D02*
X12198753Y-35733984D01*
X12398753Y-35733984D02*
X12284467Y-35733984D01*
X12341610Y-35733984D02*
X12341610Y-35533984D01*
X12341610Y-35533984D02*
X12322562Y-35562555D01*
X12322562Y-35562555D02*
X12303515Y-35581603D01*
X12303515Y-35581603D02*
X12284467Y-35591127D01*
X12522562Y-35533984D02*
X12541610Y-35533984D01*
X12541610Y-35533984D02*
X12560658Y-35543508D01*
X12560658Y-35543508D02*
X12570182Y-35553031D01*
X12570182Y-35553031D02*
X12579705Y-35572079D01*
X12579705Y-35572079D02*
X12589229Y-35610174D01*
X12589229Y-35610174D02*
X12589229Y-35657793D01*
X12589229Y-35657793D02*
X12579705Y-35695889D01*
X12579705Y-35695889D02*
X12570182Y-35714936D01*
X12570182Y-35714936D02*
X12560658Y-35724460D01*
X12560658Y-35724460D02*
X12541610Y-35733984D01*
X12541610Y-35733984D02*
X12522562Y-35733984D01*
X12522562Y-35733984D02*
X12503515Y-35724460D01*
X12503515Y-35724460D02*
X12493991Y-35714936D01*
X12493991Y-35714936D02*
X12484467Y-35695889D01*
X12484467Y-35695889D02*
X12474943Y-35657793D01*
X12474943Y-35657793D02*
X12474943Y-35610174D01*
X12474943Y-35610174D02*
X12484467Y-35572079D01*
X12484467Y-35572079D02*
X12493991Y-35553031D01*
X12493991Y-35553031D02*
X12503515Y-35543508D01*
X12503515Y-35543508D02*
X12522562Y-35533984D01*
X12713039Y-35533984D02*
X12732086Y-35533984D01*
X12732086Y-35533984D02*
X12751134Y-35543508D01*
X12751134Y-35543508D02*
X12760658Y-35553031D01*
X12760658Y-35553031D02*
X12770182Y-35572079D01*
X12770182Y-35572079D02*
X12779705Y-35610174D01*
X12779705Y-35610174D02*
X12779705Y-35657793D01*
X12779705Y-35657793D02*
X12770182Y-35695889D01*
X12770182Y-35695889D02*
X12760658Y-35714936D01*
X12760658Y-35714936D02*
X12751134Y-35724460D01*
X12751134Y-35724460D02*
X12732086Y-35733984D01*
X12732086Y-35733984D02*
X12713039Y-35733984D01*
X12713039Y-35733984D02*
X12693991Y-35724460D01*
X12693991Y-35724460D02*
X12684467Y-35714936D01*
X12684467Y-35714936D02*
X12674943Y-35695889D01*
X12674943Y-35695889D02*
X12665420Y-35657793D01*
X12665420Y-35657793D02*
X12665420Y-35610174D01*
X12665420Y-35610174D02*
X12674943Y-35572079D01*
X12674943Y-35572079D02*
X12684467Y-35553031D01*
X12684467Y-35553031D02*
X12693991Y-35543508D01*
X12693991Y-35543508D02*
X12713039Y-35533984D01*
X12865420Y-35733984D02*
X12865420Y-35600650D01*
X12865420Y-35619698D02*
X12874943Y-35610174D01*
X12874943Y-35610174D02*
X12893991Y-35600650D01*
X12893991Y-35600650D02*
X12922563Y-35600650D01*
X12922563Y-35600650D02*
X12941610Y-35610174D01*
X12941610Y-35610174D02*
X12951134Y-35629222D01*
X12951134Y-35629222D02*
X12951134Y-35733984D01*
X12951134Y-35629222D02*
X12960658Y-35610174D01*
X12960658Y-35610174D02*
X12979705Y-35600650D01*
X12979705Y-35600650D02*
X13008277Y-35600650D01*
X13008277Y-35600650D02*
X13027324Y-35610174D01*
X13027324Y-35610174D02*
X13036848Y-35629222D01*
X13036848Y-35629222D02*
X13036848Y-35733984D01*
X13132086Y-35733984D02*
X13132086Y-35600650D01*
X13132086Y-35619698D02*
X13141610Y-35610174D01*
X13141610Y-35610174D02*
X13160658Y-35600650D01*
X13160658Y-35600650D02*
X13189229Y-35600650D01*
X13189229Y-35600650D02*
X13208277Y-35610174D01*
X13208277Y-35610174D02*
X13217801Y-35629222D01*
X13217801Y-35629222D02*
X13217801Y-35733984D01*
X13217801Y-35629222D02*
X13227324Y-35610174D01*
X13227324Y-35610174D02*
X13246372Y-35600650D01*
X13246372Y-35600650D02*
X13274943Y-35600650D01*
X13274943Y-35600650D02*
X13293991Y-35610174D01*
X13293991Y-35610174D02*
X13303515Y-35629222D01*
X13303515Y-35629222D02*
X13303515Y-35733984D01*
X13693991Y-35524460D02*
X13522563Y-35781603D01*
X13951134Y-35533984D02*
X13970182Y-35533984D01*
X13970182Y-35533984D02*
X13989229Y-35543508D01*
X13989229Y-35543508D02*
X13998753Y-35553031D01*
X13998753Y-35553031D02*
X14008277Y-35572079D01*
X14008277Y-35572079D02*
X14017801Y-35610174D01*
X14017801Y-35610174D02*
X14017801Y-35657793D01*
X14017801Y-35657793D02*
X14008277Y-35695889D01*
X14008277Y-35695889D02*
X13998753Y-35714936D01*
X13998753Y-35714936D02*
X13989229Y-35724460D01*
X13989229Y-35724460D02*
X13970182Y-35733984D01*
X13970182Y-35733984D02*
X13951134Y-35733984D01*
X13951134Y-35733984D02*
X13932086Y-35724460D01*
X13932086Y-35724460D02*
X13922563Y-35714936D01*
X13922563Y-35714936D02*
X13913039Y-35695889D01*
X13913039Y-35695889D02*
X13903515Y-35657793D01*
X13903515Y-35657793D02*
X13903515Y-35610174D01*
X13903515Y-35610174D02*
X13913039Y-35572079D01*
X13913039Y-35572079D02*
X13922563Y-35553031D01*
X13922563Y-35553031D02*
X13932086Y-35543508D01*
X13932086Y-35543508D02*
X13951134Y-35533984D01*
X14103515Y-35714936D02*
X14113039Y-35724460D01*
X14113039Y-35724460D02*
X14103515Y-35733984D01*
X14103515Y-35733984D02*
X14093991Y-35724460D01*
X14093991Y-35724460D02*
X14103515Y-35714936D01*
X14103515Y-35714936D02*
X14103515Y-35733984D01*
X14236848Y-35533984D02*
X14255896Y-35533984D01*
X14255896Y-35533984D02*
X14274944Y-35543508D01*
X14274944Y-35543508D02*
X14284467Y-35553031D01*
X14284467Y-35553031D02*
X14293991Y-35572079D01*
X14293991Y-35572079D02*
X14303515Y-35610174D01*
X14303515Y-35610174D02*
X14303515Y-35657793D01*
X14303515Y-35657793D02*
X14293991Y-35695889D01*
X14293991Y-35695889D02*
X14284467Y-35714936D01*
X14284467Y-35714936D02*
X14274944Y-35724460D01*
X14274944Y-35724460D02*
X14255896Y-35733984D01*
X14255896Y-35733984D02*
X14236848Y-35733984D01*
X14236848Y-35733984D02*
X14217801Y-35724460D01*
X14217801Y-35724460D02*
X14208277Y-35714936D01*
X14208277Y-35714936D02*
X14198753Y-35695889D01*
X14198753Y-35695889D02*
X14189229Y-35657793D01*
X14189229Y-35657793D02*
X14189229Y-35610174D01*
X14189229Y-35610174D02*
X14198753Y-35572079D01*
X14198753Y-35572079D02*
X14208277Y-35553031D01*
X14208277Y-35553031D02*
X14217801Y-35543508D01*
X14217801Y-35543508D02*
X14236848Y-35533984D01*
X14417801Y-35619698D02*
X14398753Y-35610174D01*
X14398753Y-35610174D02*
X14389229Y-35600650D01*
X14389229Y-35600650D02*
X14379706Y-35581603D01*
X14379706Y-35581603D02*
X14379706Y-35572079D01*
X14379706Y-35572079D02*
X14389229Y-35553031D01*
X14389229Y-35553031D02*
X14398753Y-35543508D01*
X14398753Y-35543508D02*
X14417801Y-35533984D01*
X14417801Y-35533984D02*
X14455896Y-35533984D01*
X14455896Y-35533984D02*
X14474944Y-35543508D01*
X14474944Y-35543508D02*
X14484467Y-35553031D01*
X14484467Y-35553031D02*
X14493991Y-35572079D01*
X14493991Y-35572079D02*
X14493991Y-35581603D01*
X14493991Y-35581603D02*
X14484467Y-35600650D01*
X14484467Y-35600650D02*
X14474944Y-35610174D01*
X14474944Y-35610174D02*
X14455896Y-35619698D01*
X14455896Y-35619698D02*
X14417801Y-35619698D01*
X14417801Y-35619698D02*
X14398753Y-35629222D01*
X14398753Y-35629222D02*
X14389229Y-35638746D01*
X14389229Y-35638746D02*
X14379706Y-35657793D01*
X14379706Y-35657793D02*
X14379706Y-35695889D01*
X14379706Y-35695889D02*
X14389229Y-35714936D01*
X14389229Y-35714936D02*
X14398753Y-35724460D01*
X14398753Y-35724460D02*
X14417801Y-35733984D01*
X14417801Y-35733984D02*
X14455896Y-35733984D01*
X14455896Y-35733984D02*
X14474944Y-35724460D01*
X14474944Y-35724460D02*
X14484467Y-35714936D01*
X14484467Y-35714936D02*
X14493991Y-35695889D01*
X14493991Y-35695889D02*
X14493991Y-35657793D01*
X14493991Y-35657793D02*
X14484467Y-35638746D01*
X14484467Y-35638746D02*
X14474944Y-35629222D01*
X14474944Y-35629222D02*
X14455896Y-35619698D01*
X14570182Y-35553031D02*
X14579706Y-35543508D01*
X14579706Y-35543508D02*
X14598753Y-35533984D01*
X14598753Y-35533984D02*
X14646372Y-35533984D01*
X14646372Y-35533984D02*
X14665420Y-35543508D01*
X14665420Y-35543508D02*
X14674944Y-35553031D01*
X14674944Y-35553031D02*
X14684467Y-35572079D01*
X14684467Y-35572079D02*
X14684467Y-35591127D01*
X14684467Y-35591127D02*
X14674944Y-35619698D01*
X14674944Y-35619698D02*
X14560658Y-35733984D01*
X14560658Y-35733984D02*
X14684467Y-35733984D01*
X14751134Y-35533984D02*
X14884467Y-35533984D01*
X14884467Y-35533984D02*
X14798753Y-35733984D01*
X14951134Y-35533984D02*
X14951134Y-35572079D01*
X15027325Y-35533984D02*
X15027325Y-35572079D01*
X15322563Y-35810174D02*
X15313039Y-35800650D01*
X15313039Y-35800650D02*
X15293991Y-35772079D01*
X15293991Y-35772079D02*
X15284468Y-35753031D01*
X15284468Y-35753031D02*
X15274944Y-35724460D01*
X15274944Y-35724460D02*
X15265420Y-35676841D01*
X15265420Y-35676841D02*
X15265420Y-35638746D01*
X15265420Y-35638746D02*
X15274944Y-35591127D01*
X15274944Y-35591127D02*
X15284468Y-35562555D01*
X15284468Y-35562555D02*
X15293991Y-35543508D01*
X15293991Y-35543508D02*
X15313039Y-35514936D01*
X15313039Y-35514936D02*
X15322563Y-35505412D01*
X15379706Y-35533984D02*
X15503515Y-35533984D01*
X15503515Y-35533984D02*
X15436848Y-35610174D01*
X15436848Y-35610174D02*
X15465420Y-35610174D01*
X15465420Y-35610174D02*
X15484468Y-35619698D01*
X15484468Y-35619698D02*
X15493991Y-35629222D01*
X15493991Y-35629222D02*
X15503515Y-35648270D01*
X15503515Y-35648270D02*
X15503515Y-35695889D01*
X15503515Y-35695889D02*
X15493991Y-35714936D01*
X15493991Y-35714936D02*
X15484468Y-35724460D01*
X15484468Y-35724460D02*
X15465420Y-35733984D01*
X15465420Y-35733984D02*
X15408277Y-35733984D01*
X15408277Y-35733984D02*
X15389229Y-35724460D01*
X15389229Y-35724460D02*
X15379706Y-35714936D01*
X15627325Y-35533984D02*
X15646372Y-35533984D01*
X15646372Y-35533984D02*
X15665420Y-35543508D01*
X15665420Y-35543508D02*
X15674944Y-35553031D01*
X15674944Y-35553031D02*
X15684468Y-35572079D01*
X15684468Y-35572079D02*
X15693991Y-35610174D01*
X15693991Y-35610174D02*
X15693991Y-35657793D01*
X15693991Y-35657793D02*
X15684468Y-35695889D01*
X15684468Y-35695889D02*
X15674944Y-35714936D01*
X15674944Y-35714936D02*
X15665420Y-35724460D01*
X15665420Y-35724460D02*
X15646372Y-35733984D01*
X15646372Y-35733984D02*
X15627325Y-35733984D01*
X15627325Y-35733984D02*
X15608277Y-35724460D01*
X15608277Y-35724460D02*
X15598753Y-35714936D01*
X15598753Y-35714936D02*
X15589229Y-35695889D01*
X15589229Y-35695889D02*
X15579706Y-35657793D01*
X15579706Y-35657793D02*
X15579706Y-35610174D01*
X15579706Y-35610174D02*
X15589229Y-35572079D01*
X15589229Y-35572079D02*
X15598753Y-35553031D01*
X15598753Y-35553031D02*
X15608277Y-35543508D01*
X15608277Y-35543508D02*
X15627325Y-35533984D01*
X15932087Y-35733984D02*
X15932087Y-35533984D01*
X16017801Y-35733984D02*
X16017801Y-35629222D01*
X16017801Y-35629222D02*
X16008277Y-35610174D01*
X16008277Y-35610174D02*
X15989230Y-35600650D01*
X15989230Y-35600650D02*
X15960658Y-35600650D01*
X15960658Y-35600650D02*
X15941610Y-35610174D01*
X15941610Y-35610174D02*
X15932087Y-35619698D01*
X16141610Y-35733984D02*
X16122563Y-35724460D01*
X16122563Y-35724460D02*
X16113039Y-35714936D01*
X16113039Y-35714936D02*
X16103515Y-35695889D01*
X16103515Y-35695889D02*
X16103515Y-35638746D01*
X16103515Y-35638746D02*
X16113039Y-35619698D01*
X16113039Y-35619698D02*
X16122563Y-35610174D01*
X16122563Y-35610174D02*
X16141610Y-35600650D01*
X16141610Y-35600650D02*
X16170182Y-35600650D01*
X16170182Y-35600650D02*
X16189230Y-35610174D01*
X16189230Y-35610174D02*
X16198753Y-35619698D01*
X16198753Y-35619698D02*
X16208277Y-35638746D01*
X16208277Y-35638746D02*
X16208277Y-35695889D01*
X16208277Y-35695889D02*
X16198753Y-35714936D01*
X16198753Y-35714936D02*
X16189230Y-35724460D01*
X16189230Y-35724460D02*
X16170182Y-35733984D01*
X16170182Y-35733984D02*
X16141610Y-35733984D01*
X16322563Y-35733984D02*
X16303515Y-35724460D01*
X16303515Y-35724460D02*
X16293991Y-35705412D01*
X16293991Y-35705412D02*
X16293991Y-35533984D01*
X16474944Y-35724460D02*
X16455896Y-35733984D01*
X16455896Y-35733984D02*
X16417801Y-35733984D01*
X16417801Y-35733984D02*
X16398753Y-35724460D01*
X16398753Y-35724460D02*
X16389230Y-35705412D01*
X16389230Y-35705412D02*
X16389230Y-35629222D01*
X16389230Y-35629222D02*
X16398753Y-35610174D01*
X16398753Y-35610174D02*
X16417801Y-35600650D01*
X16417801Y-35600650D02*
X16455896Y-35600650D01*
X16455896Y-35600650D02*
X16474944Y-35610174D01*
X16474944Y-35610174D02*
X16484468Y-35629222D01*
X16484468Y-35629222D02*
X16484468Y-35648270D01*
X16484468Y-35648270D02*
X16389230Y-35667317D01*
X16560658Y-35724460D02*
X16579706Y-35733984D01*
X16579706Y-35733984D02*
X16617801Y-35733984D01*
X16617801Y-35733984D02*
X16636849Y-35724460D01*
X16636849Y-35724460D02*
X16646372Y-35705412D01*
X16646372Y-35705412D02*
X16646372Y-35695889D01*
X16646372Y-35695889D02*
X16636849Y-35676841D01*
X16636849Y-35676841D02*
X16617801Y-35667317D01*
X16617801Y-35667317D02*
X16589230Y-35667317D01*
X16589230Y-35667317D02*
X16570182Y-35657793D01*
X16570182Y-35657793D02*
X16560658Y-35638746D01*
X16560658Y-35638746D02*
X16560658Y-35629222D01*
X16560658Y-35629222D02*
X16570182Y-35610174D01*
X16570182Y-35610174D02*
X16589230Y-35600650D01*
X16589230Y-35600650D02*
X16617801Y-35600650D01*
X16617801Y-35600650D02*
X16636849Y-35610174D01*
X16713039Y-35810174D02*
X16722563Y-35800650D01*
X16722563Y-35800650D02*
X16741611Y-35772079D01*
X16741611Y-35772079D02*
X16751134Y-35753031D01*
X16751134Y-35753031D02*
X16760658Y-35724460D01*
X16760658Y-35724460D02*
X16770182Y-35676841D01*
X16770182Y-35676841D02*
X16770182Y-35638746D01*
X16770182Y-35638746D02*
X16760658Y-35591127D01*
X16760658Y-35591127D02*
X16751134Y-35562555D01*
X16751134Y-35562555D02*
X16741611Y-35543508D01*
X16741611Y-35543508D02*
X16722563Y-35514936D01*
X16722563Y-35514936D02*
X16713039Y-35505412D01*
X17074944Y-35810174D02*
X17065420Y-35800650D01*
X17065420Y-35800650D02*
X17046373Y-35772079D01*
X17046373Y-35772079D02*
X17036849Y-35753031D01*
X17036849Y-35753031D02*
X17027325Y-35724460D01*
X17027325Y-35724460D02*
X17017801Y-35676841D01*
X17017801Y-35676841D02*
X17017801Y-35638746D01*
X17017801Y-35638746D02*
X17027325Y-35591127D01*
X17027325Y-35591127D02*
X17036849Y-35562555D01*
X17036849Y-35562555D02*
X17046373Y-35543508D01*
X17046373Y-35543508D02*
X17065420Y-35514936D01*
X17065420Y-35514936D02*
X17074944Y-35505412D01*
X17151134Y-35600650D02*
X17151134Y-35733984D01*
X17151134Y-35619698D02*
X17160658Y-35610174D01*
X17160658Y-35610174D02*
X17179706Y-35600650D01*
X17179706Y-35600650D02*
X17208277Y-35600650D01*
X17208277Y-35600650D02*
X17227325Y-35610174D01*
X17227325Y-35610174D02*
X17236849Y-35629222D01*
X17236849Y-35629222D02*
X17236849Y-35733984D01*
X17360658Y-35733984D02*
X17341611Y-35724460D01*
X17341611Y-35724460D02*
X17332087Y-35714936D01*
X17332087Y-35714936D02*
X17322563Y-35695889D01*
X17322563Y-35695889D02*
X17322563Y-35638746D01*
X17322563Y-35638746D02*
X17332087Y-35619698D01*
X17332087Y-35619698D02*
X17341611Y-35610174D01*
X17341611Y-35610174D02*
X17360658Y-35600650D01*
X17360658Y-35600650D02*
X17389230Y-35600650D01*
X17389230Y-35600650D02*
X17408277Y-35610174D01*
X17408277Y-35610174D02*
X17417801Y-35619698D01*
X17417801Y-35619698D02*
X17427325Y-35638746D01*
X17427325Y-35638746D02*
X17427325Y-35695889D01*
X17427325Y-35695889D02*
X17417801Y-35714936D01*
X17417801Y-35714936D02*
X17408277Y-35724460D01*
X17408277Y-35724460D02*
X17389230Y-35733984D01*
X17389230Y-35733984D02*
X17360658Y-35733984D01*
X17484468Y-35600650D02*
X17560658Y-35600650D01*
X17513039Y-35533984D02*
X17513039Y-35705412D01*
X17513039Y-35705412D02*
X17522563Y-35724460D01*
X17522563Y-35724460D02*
X17541611Y-35733984D01*
X17541611Y-35733984D02*
X17560658Y-35733984D01*
X17779706Y-35600650D02*
X17779706Y-35800650D01*
X17779706Y-35610174D02*
X17798754Y-35600650D01*
X17798754Y-35600650D02*
X17836849Y-35600650D01*
X17836849Y-35600650D02*
X17855896Y-35610174D01*
X17855896Y-35610174D02*
X17865420Y-35619698D01*
X17865420Y-35619698D02*
X17874944Y-35638746D01*
X17874944Y-35638746D02*
X17874944Y-35695889D01*
X17874944Y-35695889D02*
X17865420Y-35714936D01*
X17865420Y-35714936D02*
X17855896Y-35724460D01*
X17855896Y-35724460D02*
X17836849Y-35733984D01*
X17836849Y-35733984D02*
X17798754Y-35733984D01*
X17798754Y-35733984D02*
X17779706Y-35724460D01*
X17989230Y-35733984D02*
X17970182Y-35724460D01*
X17970182Y-35724460D02*
X17960658Y-35705412D01*
X17960658Y-35705412D02*
X17960658Y-35533984D01*
X18151135Y-35733984D02*
X18151135Y-35629222D01*
X18151135Y-35629222D02*
X18141611Y-35610174D01*
X18141611Y-35610174D02*
X18122563Y-35600650D01*
X18122563Y-35600650D02*
X18084468Y-35600650D01*
X18084468Y-35600650D02*
X18065420Y-35610174D01*
X18151135Y-35724460D02*
X18132087Y-35733984D01*
X18132087Y-35733984D02*
X18084468Y-35733984D01*
X18084468Y-35733984D02*
X18065420Y-35724460D01*
X18065420Y-35724460D02*
X18055896Y-35705412D01*
X18055896Y-35705412D02*
X18055896Y-35686365D01*
X18055896Y-35686365D02*
X18065420Y-35667317D01*
X18065420Y-35667317D02*
X18084468Y-35657793D01*
X18084468Y-35657793D02*
X18132087Y-35657793D01*
X18132087Y-35657793D02*
X18151135Y-35648270D01*
X18217801Y-35600650D02*
X18293992Y-35600650D01*
X18246373Y-35533984D02*
X18246373Y-35705412D01*
X18246373Y-35705412D02*
X18255896Y-35724460D01*
X18255896Y-35724460D02*
X18274944Y-35733984D01*
X18274944Y-35733984D02*
X18293992Y-35733984D01*
X18436849Y-35724460D02*
X18417801Y-35733984D01*
X18417801Y-35733984D02*
X18379706Y-35733984D01*
X18379706Y-35733984D02*
X18360658Y-35724460D01*
X18360658Y-35724460D02*
X18351135Y-35705412D01*
X18351135Y-35705412D02*
X18351135Y-35629222D01*
X18351135Y-35629222D02*
X18360658Y-35610174D01*
X18360658Y-35610174D02*
X18379706Y-35600650D01*
X18379706Y-35600650D02*
X18417801Y-35600650D01*
X18417801Y-35600650D02*
X18436849Y-35610174D01*
X18436849Y-35610174D02*
X18446373Y-35629222D01*
X18446373Y-35629222D02*
X18446373Y-35648270D01*
X18446373Y-35648270D02*
X18351135Y-35667317D01*
X18617801Y-35733984D02*
X18617801Y-35533984D01*
X18617801Y-35724460D02*
X18598754Y-35733984D01*
X18598754Y-35733984D02*
X18560658Y-35733984D01*
X18560658Y-35733984D02*
X18541611Y-35724460D01*
X18541611Y-35724460D02*
X18532087Y-35714936D01*
X18532087Y-35714936D02*
X18522563Y-35695889D01*
X18522563Y-35695889D02*
X18522563Y-35638746D01*
X18522563Y-35638746D02*
X18532087Y-35619698D01*
X18532087Y-35619698D02*
X18541611Y-35610174D01*
X18541611Y-35610174D02*
X18560658Y-35600650D01*
X18560658Y-35600650D02*
X18598754Y-35600650D01*
X18598754Y-35600650D02*
X18617801Y-35610174D01*
X18693992Y-35810174D02*
X18703516Y-35800650D01*
X18703516Y-35800650D02*
X18722563Y-35772079D01*
X18722563Y-35772079D02*
X18732087Y-35753031D01*
X18732087Y-35753031D02*
X18741611Y-35724460D01*
X18741611Y-35724460D02*
X18751135Y-35676841D01*
X18751135Y-35676841D02*
X18751135Y-35638746D01*
X18751135Y-35638746D02*
X18741611Y-35591127D01*
X18741611Y-35591127D02*
X18732087Y-35562555D01*
X18732087Y-35562555D02*
X18722563Y-35543508D01*
X18722563Y-35543508D02*
X18703516Y-35514936D01*
X18703516Y-35514936D02*
X18693992Y-35505412D01*
M02*
