M48
; DRILL file {KiCad 9.0.4} date 2025-11-01T23:12:14-0400
; FORMAT={-:-/ absolute / metric / decimal}
; #@! TF.CreationDate,2025-11-01T23:12:14-04:00
; #@! TF.GenerationSoftware,Kicad,Pcbnew,9.0.4
; #@! TF.FileFunction,Plated,1,4,PTH
FMAT,2
METRIC
; #@! TA.AperFunction,Plated,PTH,ViaDrill
T1C0.300
; #@! TA.AperFunction,Plated,PTH,ComponentDrill
T2C0.800
; #@! TA.AperFunction,Plated,PTH,ComponentDrill
T3C1.000
%
G90
G05
T1
X153.25Y-101.525
X154.025Y-124.375
X154.025Y-132.375
X154.025Y-140.375
X154.025Y-164.375
X154.025Y-172.375
X154.025Y-176.375
X154.025Y-184.375
X154.025Y-220.375
X154.025Y-268.375
X154.025Y-284.375
X154.025Y-320.375
X154.025Y-324.425
X154.075Y-104.425
X154.075Y-108.375
X154.075Y-112.375
X154.075Y-116.375
X154.075Y-128.375
X154.075Y-136.375
X154.075Y-148.375
X154.075Y-152.375
X154.075Y-156.375
X154.075Y-160.375
X154.075Y-180.375
X154.075Y-188.375
X154.075Y-196.375
X154.075Y-200.375
X154.075Y-204.375
X154.075Y-208.375
X154.075Y-212.375
X154.075Y-224.375
X154.075Y-228.375
X154.075Y-232.375
X154.075Y-236.375
X154.075Y-248.375
X154.075Y-252.375
X154.075Y-256.375
X154.075Y-260.375
X154.075Y-272.375
X154.075Y-276.375
X154.075Y-280.375
X154.075Y-292.375
X154.075Y-296.375
X154.075Y-300.375
X154.075Y-304.375
X154.075Y-308.375
X154.075Y-316.425
X154.075Y-328.375
X154.075Y-332.425
X154.225Y-221.925
X154.275Y-101.775
X154.275Y-226.025
X154.275Y-278.025
X154.275Y-294.025
X154.275Y-334.025
X154.325Y-126.025
X154.325Y-134.175
X154.325Y-229.925
X154.325Y-233.925
X154.325Y-237.975
X154.325Y-253.975
X154.325Y-257.975
X154.325Y-270.025
X154.325Y-274.025
X154.325Y-282.025
X154.325Y-285.975
X154.325Y-302.075
X154.325Y-318.025
X154.325Y-322.075
X154.325Y-326.025
X154.325Y-330.025
X154.375Y-130.025
X154.375Y-142.075
X154.375Y-150.125
X154.375Y-154.075
X154.375Y-158.075
X154.375Y-166.175
X154.375Y-178.075
X154.375Y-182.025
X154.375Y-186.075
X154.375Y-197.925
X154.375Y-245.925
X154.375Y-249.925
X154.375Y-262.025
X154.375Y-297.975
X154.375Y-306.025
X154.375Y-310.025
X154.425Y-117.975
X154.425Y-138.175
X154.425Y-162.075
X154.425Y-174.075
X154.425Y-201.925
X154.425Y-205.925
X154.425Y-209.975
X154.425Y-213.925
X154.475Y-114.025
X154.499Y-244.399
X154.525Y-190.025
X154.55Y-106.075
X154.575Y-110.125
X155.675Y-337.625
X156.525Y-101.2
X156.525Y-105.2
X156.525Y-109.2
X156.525Y-113.2
X156.525Y-117.2
X156.525Y-121.2
X156.525Y-125.2
X156.525Y-129.2
X156.525Y-133.2
X156.525Y-137.2
X156.525Y-141.2
X156.525Y-145.2
X156.525Y-149.2
X156.525Y-153.2
X156.525Y-157.2
X156.525Y-161.2
X156.525Y-165.2
X156.525Y-169.2
X156.525Y-173.2
X156.525Y-177.2
X156.525Y-181.2
X156.525Y-185.2
X156.525Y-189.2
X156.525Y-193.2
X156.525Y-197.2
X156.525Y-201.2
X156.525Y-205.2
X156.525Y-209.2
X156.525Y-213.2
X156.525Y-217.2
X156.525Y-221.2
X156.525Y-225.225
X156.525Y-229.225
X156.525Y-233.225
X156.525Y-237.225
X156.525Y-241.225
X156.525Y-245.225
X156.525Y-249.225
X156.525Y-253.225
X156.525Y-257.225
X156.525Y-261.225
X156.525Y-265.225
X156.525Y-269.225
X156.525Y-273.225
X156.525Y-277.225
X156.525Y-281.225
X156.525Y-285.225
X156.525Y-289.225
X156.525Y-293.225
X156.525Y-297.225
X156.525Y-301.225
X156.525Y-305.225
X156.525Y-309.225
X156.525Y-313.225
X156.525Y-317.225
X156.525Y-321.225
X156.525Y-325.225
X156.525Y-329.225
X156.525Y-333.225
X158.4Y-96.675
X158.775Y-125.3
X158.775Y-129.3
X158.775Y-133.3
X158.775Y-137.3
X158.775Y-141.3
X158.775Y-145.3
X158.775Y-149.3
X158.775Y-153.3
X158.775Y-157.3
X158.775Y-161.3
X158.775Y-165.3
X158.775Y-169.3
X158.775Y-173.3
X158.775Y-177.3
X158.775Y-181.3
X158.775Y-185.3
X158.775Y-189.3
X158.775Y-193.3
X158.775Y-197.3
X158.775Y-201.3
X158.775Y-205.3
X158.775Y-209.3
X158.775Y-213.3
X158.775Y-217.3
X158.775Y-221.3
X158.775Y-225.3
X158.775Y-229.3
X158.775Y-233.3
X158.775Y-237.3
X158.775Y-241.3
X158.775Y-245.3
X158.775Y-249.3
X158.775Y-253.3
X158.775Y-257.3
X158.775Y-261.3
X158.775Y-265.3
X158.775Y-269.3
X158.775Y-273.3
X158.775Y-277.3
X158.775Y-281.3
X158.775Y-285.3
X158.775Y-289.3
X158.775Y-293.3
X158.775Y-297.3
X158.775Y-301.3
X158.775Y-305.3
X158.775Y-309.3
X158.775Y-313.3
X158.775Y-317.3
X158.775Y-321.3
X158.775Y-325.3
X158.775Y-329.3
X158.775Y-333.3
X158.775Y-337.3
X158.85Y-109.25
X158.95Y-101.3
X158.975Y-105.25
X158.975Y-113.25
X159.0Y-117.175
X159.075Y-121.172
X159.65Y-337.625
X160.525Y-101.2
X160.525Y-105.2
X160.525Y-109.2
X160.525Y-113.2
X160.525Y-117.2
X160.525Y-121.2
X160.525Y-125.2
X160.525Y-129.2
X160.525Y-133.2
X160.525Y-137.2
X160.525Y-141.2
X160.525Y-145.2
X160.525Y-149.2
X160.525Y-153.2
X160.525Y-157.2
X160.525Y-161.2
X160.525Y-165.2
X160.525Y-169.2
X160.525Y-173.2
X160.525Y-177.2
X160.525Y-181.2
X160.525Y-185.2
X160.525Y-189.2
X160.525Y-193.2
X160.525Y-197.2
X160.525Y-201.2
X160.525Y-205.2
X160.525Y-209.2
X160.525Y-213.2
X160.525Y-217.2
X160.525Y-221.2
X160.525Y-225.225
X160.525Y-229.225
X160.525Y-233.225
X160.525Y-237.225
X160.525Y-241.225
X160.525Y-245.225
X160.525Y-249.225
X160.525Y-253.225
X160.525Y-257.225
X160.525Y-261.225
X160.525Y-265.225
X160.525Y-269.225
X160.525Y-273.225
X160.525Y-277.225
X160.525Y-281.225
X160.525Y-285.225
X160.525Y-289.225
X160.525Y-293.225
X160.525Y-297.225
X160.525Y-301.225
X160.525Y-305.225
X160.525Y-309.225
X160.525Y-313.225
X160.525Y-317.225
X160.525Y-321.225
X160.525Y-325.225
X160.525Y-329.225
X160.525Y-333.225
X162.425Y-96.765
X162.775Y-125.3
X162.775Y-129.3
X162.775Y-133.3
X162.775Y-137.3
X162.775Y-141.3
X162.775Y-145.3
X162.775Y-149.3
X162.775Y-153.3
X162.775Y-157.3
X162.775Y-161.3
X162.775Y-165.3
X162.775Y-169.3
X162.775Y-173.3
X162.775Y-177.3
X162.775Y-181.3
X162.775Y-185.3
X162.775Y-189.3
X162.775Y-193.3
X162.775Y-197.3
X162.775Y-201.3
X162.775Y-205.3
X162.775Y-209.3
X162.775Y-213.3
X162.775Y-217.3
X162.775Y-221.3
X162.775Y-225.3
X162.775Y-229.3
X162.775Y-233.3
X162.775Y-237.3
X162.775Y-241.3
X162.775Y-245.3
X162.775Y-249.3
X162.775Y-253.3
X162.775Y-257.3
X162.775Y-261.3
X162.775Y-265.3
X162.775Y-269.3
X162.775Y-273.3
X162.775Y-277.3
X162.775Y-281.3
X162.775Y-285.3
X162.775Y-289.3
X162.775Y-293.3
X162.775Y-297.3
X162.775Y-301.3
X162.775Y-305.3
X162.775Y-309.3
X162.775Y-313.3
X162.775Y-317.3
X162.775Y-321.3
X162.775Y-325.3
X162.775Y-329.3
X162.775Y-333.3
X162.775Y-337.3
X162.925Y-109.175
X162.95Y-101.35
X162.95Y-113.15
X163.0Y-105.175
X163.1Y-117.175
X163.15Y-121.2
X163.65Y-337.625
X164.525Y-101.2
X164.525Y-105.2
X164.525Y-109.2
X164.525Y-113.2
X164.525Y-117.2
X164.525Y-121.2
X164.525Y-125.2
X164.525Y-129.2
X164.525Y-133.2
X164.525Y-137.2
X164.525Y-141.2
X164.525Y-145.2
X164.525Y-149.2
X164.525Y-153.2
X164.525Y-157.2
X164.525Y-161.2
X164.525Y-165.2
X164.525Y-169.2
X164.525Y-173.2
X164.525Y-177.2
X164.525Y-181.2
X164.525Y-185.2
X164.525Y-189.2
X164.525Y-193.2
X164.525Y-197.2
X164.525Y-201.2
X164.525Y-205.2
X164.525Y-209.2
X164.525Y-213.2
X164.525Y-217.2
X164.525Y-221.2
X164.525Y-225.225
X164.525Y-229.225
X164.525Y-233.225
X164.525Y-237.225
X164.525Y-241.225
X164.525Y-245.225
X164.525Y-249.225
X164.525Y-253.225
X164.525Y-257.225
X164.525Y-261.225
X164.525Y-265.225
X164.525Y-269.225
X164.525Y-273.225
X164.525Y-277.225
X164.525Y-281.225
X164.525Y-285.225
X164.525Y-289.225
X164.525Y-293.225
X164.525Y-297.225
X164.525Y-301.225
X164.525Y-305.225
X164.525Y-309.225
X164.525Y-313.225
X164.525Y-317.225
X164.525Y-321.225
X164.525Y-325.225
X164.525Y-329.225
X164.525Y-333.225
X166.425Y-96.765
X166.775Y-125.3
X166.775Y-129.3
X166.775Y-133.3
X166.775Y-137.3
X166.775Y-141.3
X166.775Y-145.3
X166.775Y-149.3
X166.775Y-153.3
X166.775Y-157.3
X166.775Y-161.3
X166.775Y-165.3
X166.775Y-169.3
X166.775Y-173.3
X166.775Y-177.3
X166.775Y-181.3
X166.775Y-185.3
X166.775Y-189.3
X166.775Y-193.3
X166.775Y-197.3
X166.775Y-201.3
X166.775Y-205.3
X166.775Y-209.3
X166.775Y-213.3
X166.775Y-217.3
X166.775Y-221.3
X166.775Y-225.3
X166.775Y-229.3
X166.775Y-233.3
X166.775Y-237.3
X166.775Y-241.3
X166.775Y-245.3
X166.775Y-249.3
X166.775Y-253.3
X166.775Y-257.3
X166.775Y-261.3
X166.775Y-265.3
X166.775Y-269.3
X166.775Y-273.3
X166.775Y-277.3
X166.775Y-281.3
X166.775Y-285.3
X166.775Y-289.3
X166.775Y-293.3
X166.775Y-297.3
X166.775Y-301.3
X166.775Y-305.3
X166.775Y-309.3
X166.775Y-313.3
X166.775Y-317.3
X166.775Y-321.3
X166.775Y-325.3
X166.775Y-329.3
X166.775Y-333.3
X166.775Y-337.3
X166.9Y-101.275
X166.95Y-113.175
X167.0Y-121.175
X167.025Y-105.175
X167.025Y-117.2
X167.1Y-109.225
X167.65Y-337.625
X168.525Y-101.2
X168.525Y-105.2
X168.525Y-109.2
X168.525Y-113.2
X168.525Y-117.2
X168.525Y-121.2
X168.525Y-125.2
X168.525Y-129.2
X168.525Y-133.2
X168.525Y-137.2
X168.525Y-141.2
X168.525Y-145.2
X168.525Y-149.2
X168.525Y-153.2
X168.525Y-157.2
X168.525Y-161.2
X168.525Y-165.2
X168.525Y-169.2
X168.525Y-173.2
X168.525Y-177.2
X168.525Y-181.2
X168.525Y-185.2
X168.525Y-189.2
X168.525Y-193.2
X168.525Y-197.2
X168.525Y-201.2
X168.525Y-205.2
X168.525Y-209.2
X168.525Y-213.2
X168.525Y-217.2
X168.525Y-221.2
X168.525Y-225.225
X168.525Y-229.225
X168.525Y-233.225
X168.525Y-237.225
X168.525Y-241.225
X168.525Y-245.225
X168.525Y-249.225
X168.525Y-253.225
X168.525Y-257.225
X168.525Y-261.225
X168.525Y-265.225
X168.525Y-269.225
X168.525Y-273.225
X168.525Y-277.225
X168.525Y-281.225
X168.525Y-285.225
X168.525Y-289.225
X168.525Y-293.225
X168.525Y-297.225
X168.525Y-301.225
X168.525Y-305.225
X168.525Y-309.225
X168.525Y-313.225
X168.525Y-317.225
X168.525Y-321.225
X168.525Y-325.225
X168.525Y-329.225
X168.525Y-333.225
X170.425Y-96.765
X170.775Y-125.3
X170.775Y-129.3
X170.775Y-133.3
X170.775Y-137.3
X170.775Y-141.3
X170.775Y-145.3
X170.775Y-149.3
X170.775Y-153.3
X170.775Y-157.3
X170.775Y-161.3
X170.775Y-165.3
X170.775Y-169.3
X170.775Y-173.3
X170.775Y-177.3
X170.775Y-181.3
X170.775Y-185.3
X170.775Y-189.3
X170.775Y-193.3
X170.775Y-197.3
X170.775Y-201.3
X170.775Y-205.3
X170.775Y-209.3
X170.775Y-213.3
X170.775Y-217.3
X170.775Y-221.3
X170.775Y-225.3
X170.775Y-229.3
X170.775Y-233.3
X170.775Y-237.3
X170.775Y-241.3
X170.775Y-245.3
X170.775Y-249.3
X170.775Y-253.3
X170.775Y-257.3
X170.775Y-261.3
X170.775Y-265.3
X170.775Y-269.3
X170.775Y-273.3
X170.775Y-277.3
X170.775Y-281.3
X170.775Y-285.3
X170.775Y-289.3
X170.775Y-293.3
X170.775Y-297.3
X170.775Y-301.3
X170.775Y-305.3
X170.775Y-309.3
X170.775Y-313.3
X170.775Y-317.3
X170.775Y-321.3
X170.775Y-325.3
X170.775Y-329.3
X170.775Y-333.3
X170.775Y-337.3
X170.875Y-101.225
X170.925Y-109.175
X170.95Y-113.275
X171.0Y-105.225
X171.025Y-117.175
X171.025Y-121.175
X171.65Y-337.625
X172.525Y-101.2
X172.525Y-105.2
X172.525Y-109.2
X172.525Y-113.2
X172.525Y-117.2
X172.525Y-121.2
X172.525Y-125.2
X172.525Y-129.2
X172.525Y-133.2
X172.525Y-137.2
X172.525Y-141.2
X172.525Y-145.2
X172.525Y-149.2
X172.525Y-153.2
X172.525Y-157.2
X172.525Y-161.2
X172.525Y-165.2
X172.525Y-169.2
X172.525Y-173.2
X172.525Y-177.2
X172.525Y-181.2
X172.525Y-185.2
X172.525Y-189.2
X172.525Y-193.2
X172.525Y-197.2
X172.525Y-201.2
X172.525Y-205.2
X172.525Y-209.2
X172.525Y-213.2
X172.525Y-217.2
X172.525Y-221.2
X172.525Y-225.225
X172.525Y-229.225
X172.525Y-233.225
X172.525Y-237.225
X172.525Y-241.225
X172.525Y-245.225
X172.525Y-249.225
X172.525Y-253.225
X172.525Y-257.225
X172.525Y-261.225
X172.525Y-265.225
X172.525Y-269.225
X172.525Y-273.225
X172.525Y-277.225
X172.525Y-281.225
X172.525Y-285.225
X172.525Y-289.225
X172.525Y-293.225
X172.525Y-297.225
X172.525Y-301.225
X172.525Y-305.225
X172.525Y-309.225
X172.525Y-313.225
X172.525Y-317.225
X172.525Y-321.225
X172.525Y-325.225
X172.525Y-329.225
X172.525Y-333.225
X174.425Y-96.765
X174.775Y-125.3
X174.775Y-129.3
X174.775Y-133.3
X174.775Y-137.3
X174.775Y-141.3
X174.775Y-145.3
X174.775Y-149.3
X174.775Y-153.3
X174.775Y-157.3
X174.775Y-161.3
X174.775Y-165.3
X174.775Y-169.3
X174.775Y-173.3
X174.775Y-177.3
X174.775Y-181.3
X174.775Y-185.3
X174.775Y-189.3
X174.775Y-193.3
X174.775Y-197.3
X174.775Y-201.3
X174.775Y-205.3
X174.775Y-209.3
X174.775Y-213.3
X174.775Y-217.3
X174.775Y-221.3
X174.775Y-225.3
X174.775Y-229.3
X174.775Y-233.3
X174.775Y-237.3
X174.775Y-241.3
X174.775Y-245.3
X174.775Y-249.3
X174.775Y-253.3
X174.775Y-257.3
X174.775Y-261.3
X174.775Y-265.3
X174.775Y-269.3
X174.775Y-273.3
X174.775Y-277.3
X174.775Y-281.3
X174.775Y-285.3
X174.775Y-289.3
X174.775Y-293.3
X174.775Y-297.3
X174.775Y-301.3
X174.775Y-305.3
X174.775Y-309.3
X174.775Y-313.3
X174.775Y-317.3
X174.775Y-321.3
X174.775Y-325.3
X174.775Y-329.3
X174.775Y-333.3
X174.775Y-337.3
X174.925Y-105.175
X174.975Y-101.325
X175.0Y-113.275
X175.0Y-117.245
X175.0Y-121.2
X175.025Y-109.175
X175.65Y-337.625
X176.525Y-101.2
X176.525Y-105.2
X176.525Y-109.2
X176.525Y-113.2
X176.525Y-117.2
X176.525Y-121.2
X176.525Y-125.2
X176.525Y-129.2
X176.525Y-133.2
X176.525Y-137.2
X176.525Y-141.2
X176.525Y-145.2
X176.525Y-149.2
X176.525Y-153.2
X176.525Y-157.2
X176.525Y-161.2
X176.525Y-165.2
X176.525Y-169.2
X176.525Y-173.2
X176.525Y-177.2
X176.525Y-181.2
X176.525Y-185.2
X176.525Y-189.2
X176.525Y-193.2
X176.525Y-197.2
X176.525Y-201.2
X176.525Y-205.2
X176.525Y-209.2
X176.525Y-213.2
X176.525Y-217.2
X176.525Y-221.2
X176.525Y-225.225
X176.525Y-229.225
X176.525Y-233.225
X176.525Y-237.225
X176.525Y-241.225
X176.525Y-245.225
X176.525Y-249.225
X176.525Y-253.225
X176.525Y-257.225
X176.525Y-261.225
X176.525Y-265.225
X176.525Y-269.225
X176.525Y-273.225
X176.525Y-277.225
X176.525Y-281.225
X176.525Y-285.225
X176.525Y-289.225
X176.525Y-293.225
X176.525Y-297.225
X176.525Y-301.225
X176.525Y-305.225
X176.525Y-309.225
X176.525Y-313.225
X176.525Y-317.225
X176.525Y-321.225
X176.525Y-325.225
X176.525Y-329.225
X176.525Y-333.225
X178.425Y-96.765
X178.775Y-125.3
X178.775Y-129.3
X178.775Y-133.3
X178.775Y-137.3
X178.775Y-141.3
X178.775Y-145.3
X178.775Y-149.3
X178.775Y-153.3
X178.775Y-157.3
X178.775Y-161.3
X178.775Y-165.3
X178.775Y-169.3
X178.775Y-173.3
X178.775Y-177.3
X178.775Y-181.3
X178.775Y-185.3
X178.775Y-189.3
X178.775Y-193.3
X178.775Y-197.3
X178.775Y-201.3
X178.775Y-205.3
X178.775Y-209.3
X178.775Y-213.3
X178.775Y-217.3
X178.775Y-221.3
X178.775Y-225.3
X178.775Y-229.3
X178.775Y-233.3
X178.775Y-237.3
X178.775Y-241.3
X178.775Y-245.3
X178.775Y-249.3
X178.775Y-253.3
X178.775Y-257.3
X178.775Y-261.3
X178.775Y-265.3
X178.775Y-269.3
X178.775Y-273.3
X178.775Y-277.3
X178.775Y-281.3
X178.775Y-285.3
X178.775Y-289.3
X178.775Y-293.3
X178.775Y-297.3
X178.775Y-301.3
X178.775Y-305.3
X178.775Y-309.3
X178.775Y-313.3
X178.775Y-317.3
X178.775Y-321.3
X178.775Y-325.3
X178.775Y-329.3
X178.775Y-333.3
X178.775Y-337.3
X178.95Y-105.25
X178.95Y-117.175
X179.0Y-109.225
X179.025Y-121.2
X179.075Y-101.225
X179.075Y-113.275
X179.65Y-337.625
X180.525Y-101.2
X180.525Y-105.2
X180.525Y-109.2
X180.525Y-113.2
X180.525Y-117.2
X180.525Y-121.2
X180.525Y-125.2
X180.525Y-129.2
X180.525Y-133.2
X180.525Y-137.2
X180.525Y-141.2
X180.525Y-145.2
X180.525Y-149.2
X180.525Y-153.2
X180.525Y-157.2
X180.525Y-161.2
X180.525Y-165.2
X180.525Y-169.2
X180.525Y-173.2
X180.525Y-177.2
X180.525Y-181.2
X180.525Y-185.2
X180.525Y-189.2
X180.525Y-193.2
X180.525Y-197.2
X180.525Y-201.2
X180.525Y-205.2
X180.525Y-209.2
X180.525Y-213.2
X180.525Y-217.2
X180.525Y-221.2
X180.525Y-225.225
X180.525Y-229.225
X180.525Y-233.225
X180.525Y-237.225
X180.525Y-241.225
X180.525Y-245.225
X180.525Y-249.225
X180.525Y-253.225
X180.525Y-257.225
X180.525Y-261.225
X180.525Y-265.225
X180.525Y-269.225
X180.525Y-273.225
X180.525Y-277.225
X180.525Y-281.225
X180.525Y-285.225
X180.525Y-289.225
X180.525Y-293.225
X180.525Y-297.225
X180.525Y-301.225
X180.525Y-305.225
X180.525Y-309.225
X180.525Y-313.225
X180.525Y-317.225
X180.525Y-321.225
X180.525Y-325.225
X180.525Y-329.225
X180.525Y-333.225
X182.425Y-96.765
X182.775Y-125.3
X182.775Y-129.3
X182.775Y-133.3
X182.775Y-137.3
X182.775Y-141.3
X182.775Y-145.3
X182.775Y-149.3
X182.775Y-153.3
X182.775Y-157.3
X182.775Y-161.3
X182.775Y-165.3
X182.775Y-169.3
X182.775Y-173.3
X182.775Y-177.3
X182.775Y-181.3
X182.775Y-185.3
X182.775Y-189.3
X182.775Y-193.3
X182.775Y-197.3
X182.775Y-201.3
X182.775Y-205.3
X182.775Y-209.3
X182.775Y-213.3
X182.775Y-217.3
X182.775Y-221.3
X182.775Y-225.3
X182.775Y-229.3
X182.775Y-233.3
X182.775Y-237.3
X182.775Y-241.3
X182.775Y-245.3
X182.775Y-249.3
X182.775Y-253.3
X182.775Y-257.3
X182.775Y-261.3
X182.775Y-265.3
X182.775Y-269.3
X182.775Y-273.3
X182.775Y-277.3
X182.775Y-281.3
X182.775Y-285.3
X182.775Y-289.3
X182.775Y-293.3
X182.775Y-297.3
X182.775Y-301.3
X182.775Y-305.3
X182.775Y-309.3
X182.775Y-313.3
X182.775Y-317.3
X182.775Y-321.3
X182.775Y-325.3
X182.775Y-329.3
X182.775Y-333.3
X182.775Y-337.3
X182.85Y-117.25
X182.925Y-109.245
X182.925Y-121.225
X182.95Y-113.225
X182.975Y-101.325
X183.15Y-105.245
X183.65Y-337.625
X184.525Y-101.2
X184.525Y-105.2
X184.525Y-109.2
X184.525Y-113.2
X184.525Y-117.2
X184.525Y-121.2
X184.525Y-125.2
X184.525Y-129.2
X184.525Y-133.2
X184.525Y-137.2
X184.525Y-141.2
X184.525Y-145.2
X184.525Y-149.2
X184.525Y-153.2
X184.525Y-157.2
X184.525Y-161.2
X184.525Y-165.2
X184.525Y-169.2
X184.525Y-173.2
X184.525Y-177.2
X184.525Y-181.2
X184.525Y-185.2
X184.525Y-189.2
X184.525Y-193.2
X184.525Y-197.2
X184.525Y-201.2
X184.525Y-205.2
X184.525Y-209.2
X184.525Y-213.2
X184.525Y-217.2
X184.525Y-221.2
X184.525Y-225.225
X184.525Y-229.225
X184.525Y-233.225
X184.525Y-237.225
X184.525Y-241.225
X184.525Y-245.225
X184.525Y-249.225
X184.525Y-253.225
X184.525Y-257.225
X184.525Y-261.225
X184.525Y-265.225
X184.525Y-269.225
X184.525Y-273.225
X184.525Y-277.225
X184.525Y-281.225
X184.525Y-285.225
X184.525Y-289.225
X184.525Y-293.225
X184.525Y-297.225
X184.525Y-301.225
X184.525Y-305.225
X184.525Y-309.225
X184.525Y-313.225
X184.525Y-317.225
X184.525Y-321.225
X184.525Y-325.225
X184.525Y-329.225
X184.525Y-333.225
X186.425Y-96.765
X186.775Y-125.3
X186.775Y-129.3
X186.775Y-133.3
X186.775Y-137.3
X186.775Y-141.3
X186.775Y-145.3
X186.775Y-149.3
X186.775Y-153.3
X186.775Y-157.3
X186.775Y-161.3
X186.775Y-165.3
X186.775Y-169.3
X186.775Y-173.3
X186.775Y-177.3
X186.775Y-181.3
X186.775Y-185.3
X186.775Y-189.3
X186.775Y-193.3
X186.775Y-197.3
X186.775Y-201.3
X186.775Y-205.3
X186.775Y-209.3
X186.775Y-213.3
X186.775Y-217.3
X186.775Y-221.3
X186.775Y-225.3
X186.775Y-229.3
X186.775Y-233.3
X186.775Y-237.3
X186.775Y-241.3
X186.775Y-245.3
X186.775Y-249.3
X186.775Y-253.3
X186.775Y-257.3
X186.775Y-261.3
X186.775Y-265.3
X186.775Y-269.3
X186.775Y-273.3
X186.775Y-277.3
X186.775Y-281.3
X186.775Y-285.3
X186.775Y-289.3
X186.775Y-293.3
X186.775Y-297.3
X186.775Y-301.3
X186.775Y-305.3
X186.775Y-309.3
X186.775Y-313.3
X186.775Y-317.3
X186.775Y-321.3
X186.775Y-325.3
X186.775Y-329.3
X186.775Y-333.3
X186.775Y-337.3
X186.875Y-117.25
X186.9Y-109.245
X186.9Y-113.2
X186.9Y-121.225
X187.025Y-101.275
X187.125Y-105.246
X187.65Y-337.625
X188.525Y-101.2
X188.525Y-105.2
X188.525Y-109.2
X188.525Y-113.2
X188.525Y-117.2
X188.525Y-121.2
X188.525Y-125.2
X188.525Y-129.2
X188.525Y-133.2
X188.525Y-137.2
X188.525Y-141.2
X188.525Y-145.2
X188.525Y-149.2
X188.525Y-153.2
X188.525Y-157.2
X188.525Y-161.2
X188.525Y-165.2
X188.525Y-169.2
X188.525Y-173.2
X188.525Y-177.2
X188.525Y-181.2
X188.525Y-185.2
X188.525Y-189.2
X188.525Y-193.2
X188.525Y-197.2
X188.525Y-201.2
X188.525Y-205.2
X188.525Y-209.2
X188.525Y-213.2
X188.525Y-217.2
X188.525Y-221.2
X188.525Y-225.225
X188.525Y-229.225
X188.525Y-233.225
X188.525Y-237.225
X188.525Y-241.225
X188.525Y-245.225
X188.525Y-249.225
X188.525Y-253.225
X188.525Y-257.225
X188.525Y-261.225
X188.525Y-265.225
X188.525Y-269.225
X188.525Y-273.225
X188.525Y-277.225
X188.525Y-281.225
X188.525Y-285.225
X188.525Y-289.225
X188.525Y-293.225
X188.525Y-297.225
X188.525Y-301.225
X188.525Y-305.225
X188.525Y-309.225
X188.525Y-313.225
X188.525Y-317.225
X188.525Y-321.225
X188.525Y-325.225
X188.525Y-329.225
X188.525Y-333.225
X190.425Y-96.765
X190.775Y-125.3
X190.775Y-129.3
X190.775Y-133.3
X190.775Y-137.3
X190.775Y-141.3
X190.775Y-145.3
X190.775Y-149.3
X190.775Y-153.3
X190.775Y-157.3
X190.775Y-161.3
X190.775Y-165.3
X190.775Y-169.3
X190.775Y-173.3
X190.775Y-177.3
X190.775Y-181.3
X190.775Y-185.3
X190.775Y-189.3
X190.775Y-193.3
X190.775Y-197.3
X190.775Y-201.3
X190.775Y-205.3
X190.775Y-209.3
X190.775Y-213.3
X190.775Y-217.3
X190.775Y-221.3
X190.775Y-225.3
X190.775Y-229.3
X190.775Y-233.3
X190.775Y-237.3
X190.775Y-241.3
X190.775Y-245.3
X190.775Y-249.3
X190.775Y-253.3
X190.775Y-257.3
X190.775Y-261.3
X190.775Y-265.3
X190.775Y-269.3
X190.775Y-273.3
X190.775Y-277.3
X190.775Y-281.3
X190.775Y-285.3
X190.775Y-289.3
X190.775Y-293.3
X190.775Y-297.3
X190.775Y-301.3
X190.775Y-305.3
X190.775Y-309.3
X190.775Y-313.3
X190.775Y-317.3
X190.775Y-321.3
X190.775Y-325.3
X190.775Y-329.3
X190.775Y-333.3
X190.775Y-337.3
X190.875Y-109.245
X190.875Y-121.225
X190.925Y-117.225
X190.975Y-113.2
X191.125Y-105.182
X191.2Y-101.275
X191.65Y-337.625
X192.525Y-101.2
X192.525Y-105.2
X192.525Y-109.2
X192.525Y-113.2
X192.525Y-117.2
X192.525Y-121.2
X192.525Y-125.2
X192.525Y-129.2
X192.525Y-133.2
X192.525Y-137.2
X192.525Y-141.2
X192.525Y-145.2
X192.525Y-149.2
X192.525Y-153.2
X192.525Y-157.2
X192.525Y-161.2
X192.525Y-165.2
X192.525Y-169.2
X192.525Y-173.2
X192.525Y-177.2
X192.525Y-181.2
X192.525Y-185.2
X192.525Y-189.2
X192.525Y-193.2
X192.525Y-197.2
X192.525Y-201.2
X192.525Y-205.2
X192.525Y-209.2
X192.525Y-213.2
X192.525Y-217.2
X192.525Y-221.2
X192.525Y-225.225
X192.525Y-229.225
X192.525Y-233.225
X192.525Y-237.225
X192.525Y-241.225
X192.525Y-245.225
X192.525Y-249.225
X192.525Y-253.225
X192.525Y-257.225
X192.525Y-261.225
X192.525Y-265.225
X192.525Y-269.225
X192.525Y-273.225
X192.525Y-277.225
X192.525Y-281.225
X192.525Y-285.225
X192.525Y-289.225
X192.525Y-293.225
X192.525Y-297.225
X192.525Y-301.225
X192.525Y-305.225
X192.525Y-309.225
X192.525Y-313.225
X192.525Y-317.225
X192.525Y-321.225
X192.525Y-325.225
X192.525Y-329.225
X192.525Y-333.225
X194.425Y-96.765
X194.775Y-125.3
X194.775Y-129.3
X194.775Y-133.3
X194.775Y-137.3
X194.775Y-141.3
X194.775Y-145.3
X194.775Y-149.3
X194.775Y-153.3
X194.775Y-157.3
X194.775Y-161.3
X194.775Y-165.3
X194.775Y-169.3
X194.775Y-173.3
X194.775Y-177.3
X194.775Y-181.3
X194.775Y-185.3
X194.775Y-189.3
X194.775Y-193.3
X194.775Y-197.3
X194.775Y-201.3
X194.775Y-205.3
X194.775Y-209.3
X194.775Y-213.3
X194.775Y-217.3
X194.775Y-221.3
X194.775Y-225.3
X194.775Y-229.3
X194.775Y-233.3
X194.775Y-237.3
X194.775Y-241.3
X194.775Y-245.3
X194.775Y-249.3
X194.775Y-253.3
X194.775Y-257.3
X194.775Y-261.3
X194.775Y-265.3
X194.775Y-269.3
X194.775Y-273.3
X194.775Y-277.3
X194.775Y-281.3
X194.775Y-285.3
X194.775Y-289.3
X194.775Y-293.3
X194.775Y-297.3
X194.775Y-301.3
X194.775Y-305.3
X194.775Y-309.3
X194.775Y-313.3
X194.775Y-317.3
X194.775Y-321.3
X194.775Y-325.3
X194.775Y-329.3
X194.775Y-333.3
X194.775Y-337.3
X194.875Y-109.2
X194.925Y-117.225
X194.925Y-121.25
X194.938Y-105.112
X194.95Y-113.275
X195.0Y-101.3
X195.65Y-337.625
X196.525Y-101.2
X196.525Y-105.2
X196.525Y-109.2
X196.525Y-113.2
X196.525Y-117.2
X196.525Y-121.2
X196.525Y-125.2
X196.525Y-129.2
X196.525Y-133.2
X196.525Y-137.2
X196.525Y-141.2
X196.525Y-145.2
X196.525Y-149.2
X196.525Y-153.2
X196.525Y-157.2
X196.525Y-161.2
X196.525Y-165.2
X196.525Y-169.2
X196.525Y-173.2
X196.525Y-177.2
X196.525Y-181.2
X196.525Y-185.2
X196.525Y-189.2
X196.525Y-193.2
X196.525Y-197.2
X196.525Y-201.2
X196.525Y-205.2
X196.525Y-209.2
X196.525Y-213.2
X196.525Y-217.2
X196.525Y-221.2
X196.525Y-225.225
X196.525Y-229.225
X196.525Y-233.225
X196.525Y-237.225
X196.525Y-241.225
X196.525Y-245.225
X196.525Y-249.225
X196.525Y-253.225
X196.525Y-257.225
X196.525Y-261.225
X196.525Y-265.225
X196.525Y-269.225
X196.525Y-273.225
X196.525Y-277.225
X196.525Y-281.225
X196.525Y-285.225
X196.525Y-289.225
X196.525Y-293.225
X196.525Y-297.225
X196.525Y-301.225
X196.525Y-305.225
X196.525Y-309.225
X196.525Y-313.225
X196.525Y-317.225
X196.525Y-321.225
X196.525Y-325.225
X196.525Y-329.225
X196.525Y-333.225
X198.425Y-96.765
X198.775Y-125.3
X198.775Y-129.3
X198.775Y-133.3
X198.775Y-137.3
X198.775Y-141.3
X198.775Y-145.3
X198.775Y-149.3
X198.775Y-153.3
X198.775Y-157.3
X198.775Y-161.3
X198.775Y-165.3
X198.775Y-169.3
X198.775Y-173.3
X198.775Y-177.3
X198.775Y-181.3
X198.775Y-185.3
X198.775Y-189.3
X198.775Y-193.3
X198.775Y-197.3
X198.775Y-201.3
X198.775Y-205.3
X198.775Y-209.3
X198.775Y-213.3
X198.775Y-217.3
X198.775Y-221.3
X198.775Y-225.3
X198.775Y-229.3
X198.775Y-233.3
X198.775Y-237.3
X198.775Y-241.3
X198.775Y-245.3
X198.775Y-249.3
X198.775Y-253.3
X198.775Y-257.3
X198.775Y-261.3
X198.775Y-265.3
X198.775Y-269.3
X198.775Y-273.3
X198.775Y-277.3
X198.775Y-281.3
X198.775Y-285.3
X198.775Y-289.3
X198.775Y-293.3
X198.775Y-297.3
X198.775Y-301.3
X198.775Y-305.3
X198.775Y-309.3
X198.775Y-313.3
X198.775Y-317.3
X198.775Y-321.3
X198.775Y-325.3
X198.775Y-329.3
X198.775Y-333.3
X198.775Y-337.3
X198.9Y-121.225
X198.925Y-117.25
X198.95Y-101.275
X198.95Y-113.125
X199.025Y-105.175
X199.025Y-109.2
X199.65Y-337.625
X200.525Y-101.2
X200.525Y-105.2
X200.525Y-109.2
X200.525Y-113.2
X200.525Y-117.2
X200.525Y-121.2
X200.525Y-125.2
X200.525Y-129.2
X200.525Y-133.2
X200.525Y-137.2
X200.525Y-141.2
X200.525Y-145.2
X200.525Y-149.2
X200.525Y-153.2
X200.525Y-157.2
X200.525Y-161.2
X200.525Y-165.2
X200.525Y-169.2
X200.525Y-173.2
X200.525Y-177.2
X200.525Y-181.2
X200.525Y-185.2
X200.525Y-189.2
X200.525Y-193.2
X200.525Y-197.2
X200.525Y-201.2
X200.525Y-205.2
X200.525Y-209.2
X200.525Y-213.2
X200.525Y-217.2
X200.525Y-221.2
X200.525Y-225.225
X200.525Y-229.225
X200.525Y-233.225
X200.525Y-237.225
X200.525Y-241.225
X200.525Y-245.225
X200.525Y-249.225
X200.525Y-253.225
X200.525Y-257.225
X200.525Y-261.225
X200.525Y-265.225
X200.525Y-269.225
X200.525Y-273.225
X200.525Y-277.225
X200.525Y-281.225
X200.525Y-285.225
X200.525Y-289.225
X200.525Y-293.225
X200.525Y-297.225
X200.525Y-301.225
X200.525Y-305.225
X200.525Y-309.225
X200.525Y-313.225
X200.525Y-317.225
X200.525Y-321.225
X200.525Y-325.225
X200.525Y-329.225
X200.525Y-333.225
X202.425Y-96.765
X202.775Y-125.3
X202.775Y-129.3
X202.775Y-133.3
X202.775Y-137.3
X202.775Y-141.3
X202.775Y-145.3
X202.775Y-149.3
X202.775Y-153.3
X202.775Y-157.3
X202.775Y-161.3
X202.775Y-165.3
X202.775Y-169.3
X202.775Y-173.3
X202.775Y-177.3
X202.775Y-181.3
X202.775Y-185.3
X202.775Y-189.3
X202.775Y-193.3
X202.775Y-197.3
X202.775Y-201.3
X202.775Y-205.3
X202.775Y-209.3
X202.775Y-213.3
X202.775Y-217.3
X202.775Y-221.3
X202.775Y-225.3
X202.775Y-229.3
X202.775Y-233.3
X202.775Y-237.3
X202.775Y-241.3
X202.775Y-245.3
X202.775Y-249.3
X202.775Y-253.3
X202.775Y-257.3
X202.775Y-261.3
X202.775Y-265.3
X202.775Y-269.3
X202.775Y-273.3
X202.775Y-277.3
X202.775Y-281.3
X202.775Y-285.3
X202.775Y-289.3
X202.775Y-293.3
X202.775Y-297.3
X202.775Y-301.3
X202.775Y-305.3
X202.775Y-309.3
X202.775Y-313.3
X202.775Y-317.3
X202.775Y-321.3
X202.775Y-325.3
X202.775Y-329.3
X202.775Y-333.3
X202.775Y-337.3
X202.875Y-105.225
X202.875Y-109.245
X202.925Y-117.2
X202.95Y-113.275
X202.95Y-121.225
X203.05Y-101.35
X203.65Y-337.625
X204.525Y-101.2
X204.525Y-105.2
X204.525Y-109.2
X204.525Y-113.2
X204.525Y-117.2
X204.525Y-121.2
X204.525Y-125.2
X204.525Y-129.2
X204.525Y-133.2
X204.525Y-137.2
X204.525Y-141.2
X204.525Y-145.2
X204.525Y-149.2
X204.525Y-153.2
X204.525Y-157.2
X204.525Y-161.2
X204.525Y-165.2
X204.525Y-169.2
X204.525Y-173.2
X204.525Y-177.2
X204.525Y-181.2
X204.525Y-185.2
X204.525Y-189.2
X204.525Y-193.2
X204.525Y-197.2
X204.525Y-201.2
X204.525Y-205.2
X204.525Y-209.2
X204.525Y-213.2
X204.525Y-217.2
X204.525Y-221.2
X204.525Y-225.225
X204.525Y-229.225
X204.525Y-233.225
X204.525Y-237.225
X204.525Y-241.225
X204.525Y-245.225
X204.525Y-249.225
X204.525Y-253.225
X204.525Y-257.225
X204.525Y-261.225
X204.525Y-265.225
X204.525Y-269.225
X204.525Y-273.225
X204.525Y-277.225
X204.525Y-281.225
X204.525Y-285.225
X204.525Y-289.225
X204.525Y-293.225
X204.525Y-297.225
X204.525Y-301.225
X204.525Y-305.225
X204.525Y-309.225
X204.525Y-313.225
X204.525Y-317.225
X204.525Y-321.225
X204.525Y-325.225
X204.525Y-329.225
X204.525Y-333.225
X206.425Y-96.765
X206.775Y-125.3
X206.775Y-129.3
X206.775Y-133.3
X206.775Y-137.3
X206.775Y-141.3
X206.775Y-145.3
X206.775Y-149.3
X206.775Y-153.3
X206.775Y-157.3
X206.775Y-161.3
X206.775Y-165.3
X206.775Y-169.3
X206.775Y-173.3
X206.775Y-177.3
X206.775Y-181.3
X206.775Y-185.3
X206.775Y-189.3
X206.775Y-193.3
X206.775Y-197.3
X206.775Y-201.3
X206.775Y-205.3
X206.775Y-209.3
X206.775Y-213.3
X206.775Y-217.3
X206.775Y-221.3
X206.775Y-225.3
X206.775Y-229.3
X206.775Y-233.3
X206.775Y-237.3
X206.775Y-241.3
X206.775Y-245.3
X206.775Y-249.3
X206.775Y-253.3
X206.775Y-257.3
X206.775Y-261.3
X206.775Y-265.3
X206.775Y-269.3
X206.775Y-273.3
X206.775Y-277.3
X206.775Y-281.3
X206.775Y-285.3
X206.775Y-289.3
X206.775Y-293.3
X206.775Y-297.3
X206.775Y-301.3
X206.775Y-305.3
X206.775Y-309.3
X206.775Y-313.3
X206.775Y-317.3
X206.775Y-321.3
X206.775Y-325.3
X206.775Y-329.3
X206.775Y-333.3
X206.775Y-337.3
X206.875Y-117.25
X206.9Y-105.245
X206.95Y-109.15
X207.0Y-121.15
X207.075Y-101.245
X207.075Y-113.275
X207.65Y-337.625
X208.525Y-101.2
X208.525Y-105.2
X208.525Y-109.2
X208.525Y-113.2
X208.525Y-117.2
X208.525Y-121.2
X208.525Y-125.2
X208.525Y-129.2
X208.525Y-133.2
X208.525Y-137.2
X208.525Y-141.2
X208.525Y-145.2
X208.525Y-149.2
X208.525Y-153.2
X208.525Y-157.2
X208.525Y-161.2
X208.525Y-165.2
X208.525Y-169.2
X208.525Y-173.2
X208.525Y-177.2
X208.525Y-181.2
X208.525Y-185.2
X208.525Y-189.2
X208.525Y-193.2
X208.525Y-197.2
X208.525Y-201.2
X208.525Y-205.2
X208.525Y-209.2
X208.525Y-213.2
X208.525Y-217.2
X208.525Y-221.2
X208.525Y-225.225
X208.525Y-229.225
X208.525Y-233.225
X208.525Y-237.225
X208.525Y-241.225
X208.525Y-245.225
X208.525Y-249.225
X208.525Y-253.225
X208.525Y-257.225
X208.525Y-261.225
X208.525Y-265.225
X208.525Y-269.225
X208.525Y-273.225
X208.525Y-277.225
X208.525Y-281.225
X208.525Y-285.225
X208.525Y-289.225
X208.525Y-293.225
X208.525Y-297.225
X208.525Y-301.225
X208.525Y-305.225
X208.525Y-309.225
X208.525Y-313.225
X208.525Y-317.225
X208.525Y-321.225
X208.525Y-325.225
X208.525Y-329.225
X208.525Y-333.225
X210.425Y-96.765
X210.775Y-125.3
X210.775Y-129.3
X210.775Y-133.3
X210.775Y-137.3
X210.775Y-141.3
X210.775Y-145.3
X210.775Y-149.3
X210.775Y-153.3
X210.775Y-157.3
X210.775Y-161.3
X210.775Y-165.3
X210.775Y-169.3
X210.775Y-173.3
X210.775Y-177.3
X210.775Y-181.3
X210.775Y-185.3
X210.775Y-189.3
X210.775Y-193.3
X210.775Y-197.3
X210.775Y-201.3
X210.775Y-205.3
X210.775Y-209.3
X210.775Y-213.3
X210.775Y-217.3
X210.775Y-221.3
X210.775Y-225.3
X210.775Y-229.3
X210.775Y-233.3
X210.775Y-237.3
X210.775Y-241.3
X210.775Y-245.3
X210.775Y-249.3
X210.775Y-253.3
X210.775Y-257.3
X210.775Y-261.3
X210.775Y-265.3
X210.775Y-269.3
X210.775Y-273.3
X210.775Y-277.3
X210.775Y-281.3
X210.775Y-285.3
X210.775Y-289.3
X210.775Y-293.3
X210.775Y-297.3
X210.775Y-301.3
X210.775Y-305.3
X210.775Y-309.3
X210.775Y-313.3
X210.775Y-317.3
X210.775Y-321.3
X210.775Y-325.3
X210.775Y-329.3
X210.775Y-333.3
X210.775Y-337.3
X210.925Y-105.225
X210.925Y-117.225
X210.975Y-121.15
X211.025Y-109.175
X211.1Y-101.246
X211.1Y-113.225
X211.65Y-337.625
X212.525Y-101.2
X212.525Y-105.2
X212.525Y-109.2
X212.525Y-113.2
X212.525Y-117.2
X212.525Y-121.2
X212.525Y-125.2
X212.525Y-129.2
X212.525Y-133.2
X212.525Y-137.2
X212.525Y-141.2
X212.525Y-145.2
X212.525Y-149.2
X212.525Y-153.2
X212.525Y-157.2
X212.525Y-161.2
X212.525Y-165.2
X212.525Y-169.2
X212.525Y-173.2
X212.525Y-177.2
X212.525Y-181.2
X212.525Y-185.2
X212.525Y-189.2
X212.525Y-193.2
X212.525Y-197.2
X212.525Y-201.2
X212.525Y-205.2
X212.525Y-209.2
X212.525Y-213.2
X212.525Y-217.2
X212.525Y-221.2
X212.525Y-225.225
X212.525Y-229.225
X212.525Y-233.225
X212.525Y-237.225
X212.525Y-241.225
X212.525Y-245.225
X212.525Y-249.225
X212.525Y-253.225
X212.525Y-257.225
X212.525Y-261.225
X212.525Y-265.225
X212.525Y-269.225
X212.525Y-273.225
X212.525Y-277.225
X212.525Y-281.225
X212.525Y-285.225
X212.525Y-289.225
X212.525Y-293.225
X212.525Y-297.225
X212.525Y-301.225
X212.525Y-305.225
X212.525Y-309.225
X212.525Y-313.225
X212.525Y-317.225
X212.525Y-321.225
X212.525Y-325.225
X212.525Y-329.225
X212.525Y-333.225
X214.425Y-96.765
X214.775Y-125.3
X214.775Y-129.3
X214.775Y-133.3
X214.775Y-137.3
X214.775Y-141.3
X214.775Y-145.3
X214.775Y-149.3
X214.775Y-153.3
X214.775Y-157.3
X214.775Y-161.3
X214.775Y-165.3
X214.775Y-169.3
X214.775Y-173.3
X214.775Y-177.3
X214.775Y-181.3
X214.775Y-185.3
X214.775Y-189.3
X214.775Y-193.3
X214.775Y-197.3
X214.775Y-201.3
X214.775Y-205.3
X214.775Y-209.3
X214.775Y-213.3
X214.775Y-217.3
X214.775Y-221.3
X214.775Y-225.3
X214.775Y-229.3
X214.775Y-233.3
X214.775Y-237.3
X214.775Y-241.3
X214.775Y-245.3
X214.775Y-249.3
X214.775Y-253.3
X214.775Y-257.3
X214.775Y-261.3
X214.775Y-265.3
X214.775Y-269.3
X214.775Y-273.3
X214.775Y-277.3
X214.775Y-281.3
X214.775Y-285.3
X214.775Y-289.3
X214.775Y-293.3
X214.775Y-297.3
X214.775Y-301.3
X214.775Y-305.3
X214.775Y-309.3
X214.775Y-313.3
X214.775Y-317.3
X214.775Y-321.3
X214.775Y-325.3
X214.775Y-329.3
X214.775Y-333.3
X214.775Y-337.3
X214.925Y-101.275
X214.95Y-117.225
X215.0Y-105.175
X215.0Y-113.175
X215.025Y-109.1
X215.025Y-121.15
X215.65Y-337.625
X216.525Y-101.2
X216.525Y-105.2
X216.525Y-109.2
X216.525Y-113.2
X216.525Y-117.2
X216.525Y-121.2
X216.525Y-125.2
X216.525Y-129.2
X216.525Y-133.2
X216.525Y-137.2
X216.525Y-141.2
X216.525Y-145.2
X216.525Y-149.2
X216.525Y-153.2
X216.525Y-157.2
X216.525Y-161.2
X216.525Y-165.2
X216.525Y-169.2
X216.525Y-173.2
X216.525Y-177.2
X216.525Y-181.2
X216.525Y-185.2
X216.525Y-189.2
X216.525Y-193.2
X216.525Y-197.2
X216.525Y-201.2
X216.525Y-205.2
X216.525Y-209.2
X216.525Y-213.2
X216.525Y-217.2
X216.525Y-221.2
X216.525Y-225.225
X216.525Y-229.225
X216.525Y-233.225
X216.525Y-237.225
X216.525Y-241.225
X216.525Y-245.225
X216.525Y-249.225
X216.525Y-253.225
X216.525Y-257.225
X216.525Y-261.225
X216.525Y-265.225
X216.525Y-269.225
X216.525Y-273.225
X216.525Y-277.225
X216.525Y-281.225
X216.525Y-285.225
X216.525Y-289.225
X216.525Y-293.225
X216.525Y-297.225
X216.525Y-301.225
X216.525Y-305.225
X216.525Y-309.225
X216.525Y-313.225
X216.525Y-317.225
X216.525Y-321.225
X216.525Y-325.225
X216.525Y-329.225
X216.525Y-333.225
X218.425Y-96.765
X218.775Y-125.3
X218.775Y-129.3
X218.775Y-133.3
X218.775Y-137.3
X218.775Y-141.3
X218.775Y-145.3
X218.775Y-149.3
X218.775Y-153.3
X218.775Y-157.3
X218.775Y-161.3
X218.775Y-165.3
X218.775Y-169.3
X218.775Y-173.3
X218.775Y-177.3
X218.775Y-181.3
X218.775Y-185.3
X218.775Y-189.3
X218.775Y-193.3
X218.775Y-197.3
X218.775Y-201.3
X218.775Y-205.3
X218.775Y-209.3
X218.775Y-213.3
X218.775Y-217.3
X218.775Y-221.3
X218.775Y-225.3
X218.775Y-229.3
X218.775Y-233.3
X218.775Y-237.3
X218.775Y-241.3
X218.775Y-245.3
X218.775Y-249.3
X218.775Y-253.3
X218.775Y-257.3
X218.775Y-261.3
X218.775Y-265.3
X218.775Y-269.3
X218.775Y-273.3
X218.775Y-277.3
X218.775Y-281.3
X218.775Y-285.3
X218.775Y-289.3
X218.775Y-293.3
X218.775Y-297.3
X218.775Y-301.3
X218.775Y-305.3
X218.775Y-309.3
X218.775Y-313.3
X218.775Y-317.3
X218.775Y-321.3
X218.775Y-325.3
X218.775Y-329.3
X218.775Y-333.3
X218.775Y-337.3
X218.975Y-109.15
X218.975Y-113.225
X219.0Y-101.3
X219.025Y-105.225
X219.025Y-121.225
X219.075Y-117.25
X219.65Y-337.625
X220.525Y-101.2
X220.525Y-105.2
X220.525Y-109.2
X220.525Y-113.2
X220.525Y-117.2
X220.525Y-121.2
X220.525Y-125.2
X220.525Y-129.2
X220.525Y-133.2
X220.525Y-137.2
X220.525Y-141.2
X220.525Y-145.2
X220.525Y-149.2
X220.525Y-153.2
X220.525Y-157.2
X220.525Y-161.2
X220.525Y-165.2
X220.525Y-169.2
X220.525Y-173.2
X220.525Y-177.2
X220.525Y-181.2
X220.525Y-185.2
X220.525Y-189.2
X220.525Y-193.2
X220.525Y-197.2
X220.525Y-201.2
X220.525Y-205.2
X220.525Y-209.2
X220.525Y-213.2
X220.525Y-217.2
X220.525Y-221.2
X220.525Y-225.225
X220.525Y-229.225
X220.525Y-233.225
X220.525Y-237.225
X220.525Y-241.225
X220.525Y-245.225
X220.525Y-249.225
X220.525Y-253.225
X220.525Y-257.225
X220.525Y-261.225
X220.525Y-265.225
X220.525Y-269.225
X220.525Y-273.225
X220.525Y-277.225
X220.525Y-281.225
X220.525Y-285.225
X220.525Y-289.225
X220.525Y-293.225
X220.525Y-297.225
X220.525Y-301.225
X220.525Y-305.225
X220.525Y-309.225
X220.525Y-313.225
X220.525Y-317.225
X220.525Y-321.225
X220.525Y-325.225
X220.525Y-329.225
X220.525Y-333.225
X222.425Y-96.765
X222.775Y-125.3
X222.775Y-129.3
X222.775Y-133.3
X222.775Y-137.3
X222.775Y-141.3
X222.775Y-145.3
X222.775Y-149.3
X222.775Y-153.3
X222.775Y-157.3
X222.775Y-161.3
X222.775Y-165.3
X222.775Y-169.3
X222.775Y-173.3
X222.775Y-177.3
X222.775Y-181.3
X222.775Y-185.3
X222.775Y-189.3
X222.775Y-193.3
X222.775Y-197.3
X222.775Y-201.3
X222.775Y-205.3
X222.775Y-209.3
X222.775Y-213.3
X222.775Y-217.3
X222.775Y-221.3
X222.775Y-225.3
X222.775Y-229.3
X222.775Y-233.3
X222.775Y-237.3
X222.775Y-241.3
X222.775Y-245.3
X222.775Y-249.3
X222.775Y-253.3
X222.775Y-257.3
X222.775Y-261.3
X222.775Y-265.3
X222.775Y-269.3
X222.775Y-273.3
X222.775Y-277.3
X222.775Y-281.3
X222.775Y-285.3
X222.775Y-289.3
X222.775Y-293.3
X222.775Y-297.3
X222.775Y-301.3
X222.775Y-305.3
X222.775Y-309.3
X222.775Y-313.3
X222.775Y-317.3
X222.775Y-321.3
X222.775Y-325.3
X222.775Y-329.3
X222.775Y-333.3
X222.775Y-337.3
X222.925Y-105.175
X222.95Y-121.25
X222.975Y-113.275
X222.975Y-117.3
X223.0Y-109.245
X223.15Y-101.3
X223.65Y-337.625
X224.525Y-101.2
X224.525Y-105.2
X224.525Y-109.2
X224.525Y-113.2
X224.525Y-117.2
X224.525Y-121.2
X224.525Y-125.2
X224.525Y-129.2
X224.525Y-133.2
X224.525Y-137.2
X224.525Y-141.2
X224.525Y-145.2
X224.525Y-149.2
X224.525Y-153.2
X224.525Y-157.2
X224.525Y-161.2
X224.525Y-165.2
X224.525Y-169.2
X224.525Y-173.2
X224.525Y-177.2
X224.525Y-181.2
X224.525Y-185.2
X224.525Y-189.2
X224.525Y-193.2
X224.525Y-197.2
X224.525Y-201.2
X224.525Y-205.2
X224.525Y-209.2
X224.525Y-213.2
X224.525Y-217.2
X224.525Y-221.2
X224.525Y-225.225
X224.525Y-229.225
X224.525Y-233.225
X224.525Y-237.225
X224.525Y-241.225
X224.525Y-245.225
X224.525Y-249.225
X224.525Y-253.225
X224.525Y-257.225
X224.525Y-261.225
X224.525Y-265.225
X224.525Y-269.225
X224.525Y-273.225
X224.525Y-277.225
X224.525Y-281.225
X224.525Y-285.225
X224.525Y-289.225
X224.525Y-293.225
X224.525Y-297.225
X224.525Y-301.225
X224.525Y-305.225
X224.525Y-309.225
X224.525Y-313.225
X224.525Y-317.225
X224.525Y-321.225
X224.525Y-325.225
X224.525Y-329.225
X224.525Y-333.225
X226.425Y-96.765
X226.775Y-125.3
X226.775Y-129.3
X226.775Y-133.3
X226.775Y-137.3
X226.775Y-141.3
X226.775Y-145.3
X226.775Y-149.3
X226.775Y-153.3
X226.775Y-157.3
X226.775Y-161.3
X226.775Y-165.3
X226.775Y-169.3
X226.775Y-173.3
X226.775Y-177.3
X226.775Y-181.3
X226.775Y-185.3
X226.775Y-189.3
X226.775Y-193.3
X226.775Y-197.3
X226.775Y-201.3
X226.775Y-205.3
X226.775Y-209.3
X226.775Y-213.3
X226.775Y-217.3
X226.775Y-221.3
X226.775Y-225.3
X226.775Y-229.3
X226.775Y-233.3
X226.775Y-237.3
X226.775Y-241.3
X226.775Y-245.3
X226.775Y-249.3
X226.775Y-253.3
X226.775Y-257.3
X226.775Y-261.3
X226.775Y-265.3
X226.775Y-269.3
X226.775Y-273.3
X226.775Y-277.3
X226.775Y-281.3
X226.775Y-285.3
X226.775Y-289.3
X226.775Y-293.3
X226.775Y-297.3
X226.775Y-301.3
X226.775Y-305.3
X226.775Y-309.3
X226.775Y-313.3
X226.775Y-317.3
X226.775Y-321.3
X226.775Y-325.3
X226.775Y-329.3
X226.775Y-333.3
X226.775Y-337.3
X226.9Y-105.225
X226.95Y-109.245
X226.95Y-121.225
X227.0Y-113.325
X227.07Y-101.25
X227.075Y-117.2
X227.65Y-337.625
X228.525Y-101.2
X228.525Y-105.2
X228.525Y-109.2
X228.525Y-113.2
X228.525Y-117.2
X228.525Y-121.2
X228.525Y-125.2
X228.525Y-129.2
X228.525Y-133.2
X228.525Y-137.2
X228.525Y-141.2
X228.525Y-145.2
X228.525Y-149.2
X228.525Y-153.2
X228.525Y-157.2
X228.525Y-161.2
X228.525Y-165.2
X228.525Y-169.2
X228.525Y-173.2
X228.525Y-177.2
X228.525Y-181.2
X228.525Y-185.2
X228.525Y-189.2
X228.525Y-193.2
X228.525Y-197.2
X228.525Y-201.2
X228.525Y-205.2
X228.525Y-209.2
X228.525Y-213.2
X228.525Y-217.2
X228.525Y-221.2
X228.525Y-225.225
X228.525Y-229.225
X228.525Y-233.225
X228.525Y-237.225
X228.525Y-241.225
X228.525Y-245.225
X228.525Y-249.225
X228.525Y-253.225
X228.525Y-257.225
X228.525Y-261.225
X228.525Y-265.225
X228.525Y-269.225
X228.525Y-273.225
X228.525Y-277.225
X228.525Y-281.225
X228.525Y-285.225
X228.525Y-289.225
X228.525Y-293.225
X228.525Y-297.225
X228.525Y-301.225
X228.525Y-305.225
X228.525Y-309.225
X228.525Y-313.225
X228.525Y-317.225
X228.525Y-321.225
X228.525Y-325.225
X228.525Y-329.225
X228.525Y-333.225
X230.425Y-96.765
X230.775Y-125.3
X230.775Y-129.3
X230.775Y-133.3
X230.775Y-137.3
X230.775Y-141.3
X230.775Y-145.3
X230.775Y-149.3
X230.775Y-153.3
X230.775Y-157.3
X230.775Y-161.3
X230.775Y-165.3
X230.775Y-169.3
X230.775Y-173.3
X230.775Y-177.3
X230.775Y-181.3
X230.775Y-185.3
X230.775Y-189.3
X230.775Y-193.3
X230.775Y-197.3
X230.775Y-201.3
X230.775Y-205.3
X230.775Y-209.3
X230.775Y-213.3
X230.775Y-217.3
X230.775Y-221.3
X230.775Y-225.3
X230.775Y-229.3
X230.775Y-233.3
X230.775Y-237.3
X230.775Y-241.3
X230.775Y-245.3
X230.775Y-249.3
X230.775Y-253.3
X230.775Y-257.3
X230.775Y-261.3
X230.775Y-265.3
X230.775Y-269.3
X230.775Y-273.3
X230.775Y-277.3
X230.775Y-281.3
X230.775Y-285.3
X230.775Y-289.3
X230.775Y-293.3
X230.775Y-297.3
X230.775Y-301.3
X230.775Y-305.3
X230.775Y-309.3
X230.775Y-313.3
X230.775Y-317.3
X230.775Y-321.3
X230.775Y-325.3
X230.775Y-329.3
X230.775Y-333.3
X230.775Y-337.3
X230.875Y-117.225
X230.925Y-105.175
X230.925Y-109.325
X230.975Y-121.225
X231.025Y-101.3
X231.05Y-113.175
X231.65Y-337.625
X232.525Y-101.2
X232.525Y-105.2
X232.525Y-109.2
X232.525Y-113.2
X232.525Y-117.2
X232.525Y-121.2
X232.525Y-125.2
X232.525Y-129.2
X232.525Y-133.2
X232.525Y-137.2
X232.525Y-141.2
X232.525Y-145.2
X232.525Y-149.2
X232.525Y-153.2
X232.525Y-157.2
X232.525Y-161.2
X232.525Y-165.2
X232.525Y-169.2
X232.525Y-173.2
X232.525Y-177.2
X232.525Y-181.2
X232.525Y-185.2
X232.525Y-189.2
X232.525Y-193.2
X232.525Y-197.2
X232.525Y-201.2
X232.525Y-205.2
X232.525Y-209.2
X232.525Y-213.2
X232.525Y-217.2
X232.525Y-221.2
X232.525Y-225.225
X232.525Y-229.225
X232.525Y-233.225
X232.525Y-237.225
X232.525Y-241.225
X232.525Y-245.225
X232.525Y-249.225
X232.525Y-253.225
X232.525Y-257.225
X232.525Y-261.225
X232.525Y-265.225
X232.525Y-269.225
X232.525Y-273.225
X232.525Y-277.225
X232.525Y-281.225
X232.525Y-285.225
X232.525Y-289.225
X232.525Y-293.225
X232.525Y-297.225
X232.525Y-301.225
X232.525Y-305.225
X232.525Y-309.225
X232.525Y-313.225
X232.525Y-317.225
X232.525Y-321.225
X232.525Y-325.225
X232.525Y-329.225
X232.525Y-333.225
X234.425Y-96.765
X234.775Y-125.3
X234.775Y-129.3
X234.775Y-133.3
X234.775Y-137.3
X234.775Y-141.3
X234.775Y-145.3
X234.775Y-149.3
X234.775Y-153.3
X234.775Y-157.3
X234.775Y-161.3
X234.775Y-165.3
X234.775Y-169.3
X234.775Y-173.3
X234.775Y-177.3
X234.775Y-181.3
X234.775Y-185.3
X234.775Y-189.3
X234.775Y-193.3
X234.775Y-197.3
X234.775Y-201.3
X234.775Y-205.3
X234.775Y-209.3
X234.775Y-213.3
X234.775Y-217.3
X234.775Y-221.3
X234.775Y-225.3
X234.775Y-229.3
X234.775Y-233.3
X234.775Y-237.3
X234.775Y-241.3
X234.775Y-245.3
X234.775Y-249.3
X234.775Y-253.3
X234.775Y-257.3
X234.775Y-261.3
X234.775Y-265.3
X234.775Y-269.3
X234.775Y-273.3
X234.775Y-277.3
X234.775Y-281.3
X234.775Y-285.3
X234.775Y-289.3
X234.775Y-293.3
X234.775Y-297.3
X234.775Y-301.3
X234.775Y-305.3
X234.775Y-309.3
X234.775Y-313.3
X234.775Y-317.3
X234.775Y-321.3
X234.775Y-325.3
X234.775Y-329.3
X234.775Y-333.3
X234.775Y-337.3
X234.9Y-109.2
X234.925Y-101.3
X234.925Y-113.2
X234.925Y-121.225
X234.95Y-117.2
X235.0Y-105.245
X235.65Y-337.625
X236.525Y-101.2
X236.525Y-105.2
X236.525Y-109.2
X236.525Y-113.2
X236.525Y-117.2
X236.525Y-121.2
X236.525Y-125.2
X236.525Y-129.2
X236.525Y-133.2
X236.525Y-137.2
X236.525Y-141.2
X236.525Y-145.2
X236.525Y-149.2
X236.525Y-153.2
X236.525Y-157.2
X236.525Y-161.2
X236.525Y-165.2
X236.525Y-169.2
X236.525Y-173.2
X236.525Y-177.2
X236.525Y-181.2
X236.525Y-185.2
X236.525Y-189.2
X236.525Y-193.2
X236.525Y-197.2
X236.525Y-201.2
X236.525Y-205.2
X236.525Y-209.2
X236.525Y-213.2
X236.525Y-217.2
X236.525Y-221.2
X236.525Y-225.225
X236.525Y-229.225
X236.525Y-233.225
X236.525Y-237.225
X236.525Y-241.225
X236.525Y-245.225
X236.525Y-249.225
X236.525Y-253.225
X236.525Y-257.225
X236.525Y-261.225
X236.525Y-265.225
X236.525Y-269.225
X236.525Y-273.225
X236.525Y-277.225
X236.525Y-281.225
X236.525Y-285.225
X236.525Y-289.225
X236.525Y-293.225
X236.525Y-297.225
X236.525Y-301.225
X236.525Y-305.225
X236.525Y-309.225
X236.525Y-313.225
X236.525Y-317.225
X236.525Y-321.225
X236.525Y-325.225
X236.525Y-329.225
X236.525Y-333.225
X238.425Y-96.765
X238.775Y-125.3
X238.775Y-129.3
X238.775Y-133.3
X238.775Y-137.3
X238.775Y-141.3
X238.775Y-145.3
X238.775Y-149.3
X238.775Y-153.3
X238.775Y-157.3
X238.775Y-161.3
X238.775Y-165.3
X238.775Y-169.3
X238.775Y-173.3
X238.775Y-177.3
X238.775Y-181.3
X238.775Y-185.3
X238.775Y-189.3
X238.775Y-193.3
X238.775Y-197.3
X238.775Y-201.3
X238.775Y-205.3
X238.775Y-213.3
X238.775Y-217.3
X238.775Y-221.3
X238.775Y-225.3
X238.775Y-229.3
X238.775Y-233.3
X238.775Y-237.3
X238.775Y-241.3
X238.775Y-245.3
X238.775Y-249.3
X238.775Y-253.3
X238.775Y-257.3
X238.775Y-261.3
X238.775Y-265.3
X238.775Y-269.3
X238.775Y-273.3
X238.775Y-277.3
X238.775Y-281.3
X238.775Y-285.3
X238.775Y-289.3
X238.775Y-293.3
X238.775Y-297.3
X238.775Y-301.3
X238.775Y-305.3
X238.775Y-309.3
X238.775Y-313.3
X238.775Y-317.3
X238.775Y-321.3
X238.775Y-325.3
X238.775Y-329.3
X238.775Y-333.3
X238.775Y-337.3
X238.85Y-113.2
X238.875Y-105.275
X238.95Y-109.245
X238.95Y-117.225
X238.975Y-101.225
X238.975Y-121.225
X239.025Y-209.225
X239.65Y-337.625
X240.525Y-101.2
X240.525Y-105.2
X240.525Y-109.2
X240.525Y-113.2
X240.525Y-117.2
X240.525Y-121.2
X240.525Y-125.2
X240.525Y-129.2
X240.525Y-133.2
X240.525Y-137.2
X240.525Y-141.2
X240.525Y-145.2
X240.525Y-149.2
X240.525Y-153.2
X240.525Y-157.2
X240.525Y-161.2
X240.525Y-165.2
X240.525Y-169.2
X240.525Y-173.2
X240.525Y-177.2
X240.525Y-181.2
X240.525Y-185.2
X240.525Y-189.2
X240.525Y-193.2
X240.525Y-197.2
X240.525Y-201.2
X240.525Y-205.2
X240.525Y-209.2
X240.525Y-213.2
X240.525Y-217.2
X240.525Y-221.2
X240.525Y-225.225
X240.525Y-229.225
X240.525Y-233.225
X240.525Y-237.225
X240.525Y-241.225
X240.525Y-245.225
X240.525Y-249.225
X240.525Y-253.225
X240.525Y-257.225
X240.525Y-261.225
X240.525Y-265.225
X240.525Y-269.225
X240.525Y-273.225
X240.525Y-277.225
X240.525Y-281.225
X240.525Y-285.225
X240.525Y-289.225
X240.525Y-293.225
X240.525Y-297.225
X240.525Y-301.225
X240.525Y-305.225
X240.525Y-309.225
X240.525Y-313.225
X240.525Y-317.225
X240.525Y-321.225
X240.525Y-325.225
X240.525Y-329.225
X240.525Y-333.225
X242.425Y-96.765
X242.775Y-125.3
X242.775Y-129.3
X242.775Y-133.3
X242.775Y-137.3
X242.775Y-141.3
X242.775Y-145.3
X242.775Y-149.3
X242.775Y-153.3
X242.775Y-157.3
X242.775Y-161.3
X242.775Y-165.3
X242.775Y-169.3
X242.775Y-173.3
X242.775Y-177.3
X242.775Y-181.3
X242.775Y-185.3
X242.775Y-189.3
X242.775Y-193.3
X242.775Y-197.3
X242.775Y-201.3
X242.775Y-205.3
X242.775Y-213.3
X242.775Y-217.3
X242.775Y-221.3
X242.775Y-225.3
X242.775Y-229.3
X242.775Y-233.3
X242.775Y-237.3
X242.775Y-241.3
X242.775Y-245.3
X242.775Y-249.3
X242.775Y-253.3
X242.775Y-257.3
X242.775Y-261.3
X242.775Y-265.3
X242.775Y-269.3
X242.775Y-273.3
X242.775Y-277.3
X242.775Y-281.3
X242.775Y-285.3
X242.775Y-289.3
X242.775Y-293.3
X242.775Y-297.3
X242.775Y-301.3
X242.775Y-305.3
X242.775Y-309.3
X242.775Y-313.3
X242.775Y-317.3
X242.775Y-321.3
X242.775Y-325.3
X242.775Y-329.3
X242.775Y-333.3
X242.775Y-337.3
X242.875Y-109.175
X242.875Y-113.275
X242.9Y-105.245
X242.95Y-117.25
X242.975Y-101.245
X242.975Y-121.225
X243.075Y-209.175
X243.65Y-337.625
X244.525Y-101.2
X244.525Y-105.2
X244.525Y-109.2
X244.525Y-113.2
X244.525Y-117.2
X244.525Y-121.2
X244.525Y-125.2
X244.525Y-129.2
X244.525Y-133.2
X244.525Y-137.2
X244.525Y-141.2
X244.525Y-145.2
X244.525Y-149.2
X244.525Y-153.2
X244.525Y-157.2
X244.525Y-161.2
X244.525Y-165.2
X244.525Y-169.2
X244.525Y-173.2
X244.525Y-177.2
X244.525Y-181.2
X244.525Y-185.2
X244.525Y-189.2
X244.525Y-193.2
X244.525Y-197.2
X244.525Y-201.2
X244.525Y-205.2
X244.525Y-209.2
X244.525Y-213.2
X244.525Y-217.2
X244.525Y-221.2
X244.525Y-225.225
X244.525Y-229.225
X244.525Y-233.225
X244.525Y-237.225
X244.525Y-241.225
X244.525Y-245.225
X244.525Y-249.225
X244.525Y-253.225
X244.525Y-257.225
X244.525Y-261.225
X244.525Y-265.225
X244.525Y-269.225
X244.525Y-273.225
X244.525Y-277.225
X244.525Y-281.225
X244.525Y-285.225
X244.525Y-289.225
X244.525Y-293.225
X244.525Y-297.225
X244.525Y-301.225
X244.525Y-305.225
X244.525Y-309.225
X244.525Y-313.225
X244.525Y-317.225
X244.525Y-321.225
X244.525Y-325.225
X244.525Y-329.225
X244.525Y-333.225
X246.425Y-96.765
X246.775Y-125.3
X246.775Y-129.3
X246.775Y-133.3
X246.775Y-137.3
X246.775Y-141.3
X246.775Y-145.3
X246.775Y-149.3
X246.775Y-153.3
X246.775Y-157.3
X246.775Y-161.3
X246.775Y-165.3
X246.775Y-169.3
X246.775Y-173.3
X246.775Y-177.3
X246.775Y-181.3
X246.775Y-185.3
X246.775Y-189.3
X246.775Y-193.3
X246.775Y-197.3
X246.775Y-201.3
X246.775Y-205.3
X246.775Y-213.3
X246.775Y-217.3
X246.775Y-221.3
X246.775Y-225.3
X246.775Y-229.3
X246.775Y-233.3
X246.775Y-237.3
X246.775Y-241.3
X246.775Y-245.3
X246.775Y-249.3
X246.775Y-253.3
X246.775Y-257.3
X246.775Y-261.3
X246.775Y-265.3
X246.775Y-269.3
X246.775Y-273.3
X246.775Y-277.3
X246.775Y-281.3
X246.775Y-285.3
X246.775Y-289.3
X246.775Y-293.3
X246.775Y-297.3
X246.775Y-301.3
X246.775Y-305.3
X246.775Y-309.3
X246.775Y-313.3
X246.775Y-317.3
X246.775Y-321.3
X246.775Y-325.3
X246.775Y-329.3
X246.775Y-333.3
X246.775Y-337.3
X246.875Y-109.175
X246.875Y-117.225
X246.975Y-105.245
X247.0Y-101.35
X247.025Y-113.175
X247.025Y-121.125
X247.025Y-209.225
X247.65Y-337.625
X248.525Y-101.2
X248.525Y-105.2
X248.525Y-109.2
X248.525Y-113.2
X248.525Y-117.2
X248.525Y-121.2
X248.525Y-125.2
X248.525Y-129.2
X248.525Y-133.2
X248.525Y-137.2
X248.525Y-141.2
X248.525Y-145.2
X248.525Y-149.2
X248.525Y-153.2
X248.525Y-157.2
X248.525Y-161.2
X248.525Y-165.2
X248.525Y-169.2
X248.525Y-173.2
X248.525Y-177.2
X248.525Y-181.2
X248.525Y-185.2
X248.525Y-189.2
X248.525Y-193.2
X248.525Y-197.2
X248.525Y-201.2
X248.525Y-205.2
X248.525Y-209.2
X248.525Y-213.2
X248.525Y-217.2
X248.525Y-221.2
X248.525Y-225.225
X248.525Y-229.225
X248.525Y-233.225
X248.525Y-237.225
X248.525Y-241.225
X248.525Y-245.225
X248.525Y-249.225
X248.525Y-253.225
X248.525Y-257.225
X248.525Y-261.225
X248.525Y-265.225
X248.525Y-269.225
X248.525Y-273.225
X248.525Y-277.225
X248.525Y-281.225
X248.525Y-285.225
X248.525Y-289.225
X248.525Y-293.225
X248.525Y-297.225
X248.525Y-301.225
X248.525Y-305.225
X248.525Y-309.225
X248.525Y-313.225
X248.525Y-317.225
X248.525Y-321.225
X248.525Y-325.225
X248.525Y-329.225
X248.525Y-333.225
X250.425Y-96.765
X250.775Y-125.3
X250.775Y-129.3
X250.775Y-133.3
X250.775Y-137.3
X250.775Y-141.3
X250.775Y-145.3
X250.775Y-149.3
X250.775Y-153.3
X250.775Y-157.3
X250.775Y-161.3
X250.775Y-165.3
X250.775Y-169.3
X250.775Y-173.3
X250.775Y-177.3
X250.775Y-181.3
X250.775Y-185.3
X250.775Y-189.3
X250.775Y-193.3
X250.775Y-197.3
X250.775Y-201.3
X250.775Y-205.3
X250.775Y-213.3
X250.775Y-217.3
X250.775Y-221.3
X250.775Y-225.3
X250.775Y-229.3
X250.775Y-233.3
X250.775Y-237.3
X250.775Y-241.3
X250.775Y-245.3
X250.775Y-249.3
X250.775Y-253.3
X250.775Y-257.3
X250.775Y-261.3
X250.775Y-265.3
X250.775Y-269.3
X250.775Y-273.3
X250.775Y-277.3
X250.775Y-281.3
X250.775Y-285.3
X250.775Y-289.3
X250.775Y-293.3
X250.775Y-297.3
X250.775Y-301.3
X250.775Y-305.3
X250.775Y-309.3
X250.775Y-313.3
X250.775Y-317.3
X250.775Y-321.3
X250.775Y-325.3
X250.775Y-329.3
X250.775Y-333.3
X250.775Y-337.3
X250.925Y-101.275
X250.925Y-109.2
X250.925Y-121.225
X251.0Y-117.25
X251.025Y-113.3
X251.075Y-209.225
X251.1Y-105.225
X251.65Y-337.625
X252.525Y-101.2
X252.525Y-105.2
X252.525Y-109.2
X252.525Y-113.2
X252.525Y-117.2
X252.525Y-121.2
X252.525Y-125.2
X252.525Y-129.2
X252.525Y-133.2
X252.525Y-137.2
X252.525Y-141.2
X252.525Y-145.2
X252.525Y-149.2
X252.525Y-153.2
X252.525Y-157.2
X252.525Y-161.2
X252.525Y-165.2
X252.525Y-169.2
X252.525Y-173.2
X252.525Y-177.2
X252.525Y-181.2
X252.525Y-185.2
X252.525Y-189.2
X252.525Y-193.2
X252.525Y-197.2
X252.525Y-201.2
X252.525Y-205.2
X252.525Y-209.2
X252.525Y-213.2
X252.525Y-217.2
X252.525Y-221.2
X252.525Y-225.225
X252.525Y-229.225
X252.525Y-233.225
X252.525Y-237.225
X252.525Y-241.225
X252.525Y-245.225
X252.525Y-249.225
X252.525Y-253.225
X252.525Y-257.225
X252.525Y-261.225
X252.525Y-265.225
X252.525Y-269.225
X252.525Y-273.225
X252.525Y-277.225
X252.525Y-281.225
X252.525Y-285.225
X252.525Y-289.225
X252.525Y-293.225
X252.525Y-297.225
X252.525Y-301.225
X252.525Y-305.225
X252.525Y-309.225
X252.525Y-313.225
X252.525Y-317.225
X252.525Y-321.225
X252.525Y-325.225
X252.525Y-329.225
X252.525Y-333.225
X254.425Y-96.765
X254.775Y-125.3
X254.775Y-129.3
X254.775Y-133.3
X254.775Y-137.3
X254.775Y-141.3
X254.775Y-145.3
X254.775Y-149.3
X254.775Y-153.3
X254.775Y-157.3
X254.775Y-161.3
X254.775Y-165.3
X254.775Y-169.3
X254.775Y-173.3
X254.775Y-177.3
X254.775Y-181.3
X254.775Y-185.3
X254.775Y-189.3
X254.775Y-193.3
X254.775Y-197.3
X254.775Y-201.3
X254.775Y-205.3
X254.775Y-209.3
X254.775Y-213.3
X254.775Y-217.3
X254.775Y-221.3
X254.775Y-225.3
X254.775Y-229.3
X254.775Y-233.3
X254.775Y-237.3
X254.775Y-241.3
X254.775Y-245.3
X254.775Y-249.3
X254.775Y-253.3
X254.775Y-257.3
X254.775Y-261.3
X254.775Y-265.3
X254.775Y-269.3
X254.775Y-273.3
X254.775Y-277.3
X254.775Y-281.3
X254.775Y-285.3
X254.775Y-289.3
X254.775Y-293.3
X254.775Y-297.3
X254.775Y-301.3
X254.775Y-305.3
X254.775Y-309.3
X254.775Y-313.3
X254.775Y-317.3
X254.775Y-321.3
X254.775Y-325.3
X254.775Y-329.3
X254.775Y-333.3
X254.775Y-337.3
X254.925Y-113.275
X254.95Y-121.175
X255.0Y-101.1
X255.0Y-117.25
X255.05Y-105.275
X255.075Y-109.175
X255.65Y-337.625
X256.525Y-101.2
X256.525Y-105.2
X256.525Y-109.2
X256.525Y-113.2
X256.525Y-117.2
X256.525Y-121.2
X256.525Y-125.2
X256.525Y-129.2
X256.525Y-133.2
X256.525Y-137.2
X256.525Y-141.2
X256.525Y-145.2
X256.525Y-149.2
X256.525Y-153.2
X256.525Y-157.2
X256.525Y-161.2
X256.525Y-165.2
X256.525Y-169.2
X256.525Y-173.2
X256.525Y-177.2
X256.525Y-181.2
X256.525Y-185.2
X256.525Y-189.2
X256.525Y-193.2
X256.525Y-197.2
X256.525Y-201.2
X256.525Y-205.2
X256.525Y-209.2
X256.525Y-213.2
X256.525Y-217.2
X256.525Y-221.2
X256.525Y-225.225
X256.525Y-229.225
X256.525Y-233.225
X256.525Y-237.225
X256.525Y-241.225
X256.525Y-245.225
X256.525Y-249.225
X256.525Y-253.225
X256.525Y-257.225
X256.525Y-261.225
X256.525Y-265.225
X256.525Y-269.225
X256.525Y-273.225
X256.525Y-277.225
X256.525Y-281.225
X256.525Y-285.225
X256.525Y-289.225
X256.525Y-293.225
X256.525Y-297.225
X256.525Y-301.225
X256.525Y-305.225
X256.525Y-309.225
X256.525Y-313.225
X256.525Y-317.225
X256.525Y-321.225
X256.525Y-325.225
X256.525Y-329.225
X256.525Y-333.225
X258.425Y-96.765
X258.775Y-125.3
X258.775Y-129.3
X258.775Y-133.3
X258.775Y-137.3
X258.775Y-141.3
X258.775Y-145.3
X258.775Y-149.3
X258.775Y-153.3
X258.775Y-157.3
X258.775Y-161.3
X258.775Y-165.3
X258.775Y-169.3
X258.775Y-173.3
X258.775Y-177.3
X258.775Y-181.3
X258.775Y-185.3
X258.775Y-189.3
X258.775Y-193.3
X258.775Y-197.3
X258.775Y-201.3
X258.775Y-205.3
X258.775Y-209.3
X258.775Y-213.3
X258.775Y-217.3
X258.775Y-221.3
X258.775Y-225.3
X258.775Y-229.3
X258.775Y-233.3
X258.775Y-237.3
X258.775Y-241.3
X258.775Y-245.3
X258.775Y-249.3
X258.775Y-253.3
X258.775Y-257.3
X258.775Y-261.3
X258.775Y-265.3
X258.775Y-269.3
X258.775Y-273.3
X258.775Y-277.3
X258.775Y-281.3
X258.775Y-285.3
X258.775Y-289.3
X258.775Y-293.3
X258.775Y-297.3
X258.775Y-301.3
X258.775Y-305.3
X258.775Y-309.3
X258.775Y-313.3
X258.775Y-317.3
X258.775Y-321.3
X258.775Y-325.3
X258.775Y-329.3
X258.775Y-333.3
X258.775Y-337.3
X258.85Y-117.225
X258.95Y-101.15
X258.975Y-105.3
X259.025Y-113.2
X259.05Y-121.15
X259.075Y-109.245
X259.65Y-337.625
X260.525Y-101.2
X260.525Y-105.2
X260.525Y-109.2
X260.525Y-113.2
X260.525Y-117.2
X260.525Y-121.2
X260.525Y-125.2
X260.525Y-129.2
X260.525Y-133.2
X260.525Y-137.2
X260.525Y-141.2
X260.525Y-145.2
X260.525Y-149.2
X260.525Y-153.2
X260.525Y-157.2
X260.525Y-161.2
X260.525Y-165.2
X260.525Y-169.2
X260.525Y-173.2
X260.525Y-177.2
X260.525Y-181.2
X260.525Y-185.2
X260.525Y-189.2
X260.525Y-193.2
X260.525Y-197.2
X260.525Y-201.2
X260.525Y-205.2
X260.525Y-209.2
X260.525Y-213.2
X260.525Y-217.2
X260.525Y-221.2
X260.525Y-225.225
X260.525Y-229.225
X260.525Y-233.225
X260.525Y-237.225
X260.525Y-241.225
X260.525Y-245.225
X260.525Y-249.225
X260.525Y-253.225
X260.525Y-257.225
X260.525Y-261.225
X260.525Y-265.225
X260.525Y-269.225
X260.525Y-273.225
X260.525Y-277.225
X260.525Y-281.225
X260.525Y-285.225
X260.525Y-289.225
X260.525Y-293.225
X260.525Y-297.225
X260.525Y-301.225
X260.525Y-305.225
X260.525Y-309.225
X260.525Y-313.225
X260.525Y-317.225
X260.525Y-321.225
X260.525Y-325.225
X260.525Y-329.225
X260.525Y-333.225
X262.425Y-96.765
X262.775Y-125.3
X262.775Y-129.3
X262.775Y-133.3
X262.775Y-137.3
X262.775Y-141.3
X262.775Y-145.3
X262.775Y-149.3
X262.775Y-153.3
X262.775Y-157.3
X262.775Y-161.3
X262.775Y-165.3
X262.775Y-169.3
X262.775Y-173.3
X262.775Y-177.3
X262.775Y-181.3
X262.775Y-185.3
X262.775Y-189.3
X262.775Y-193.3
X262.775Y-197.3
X262.775Y-201.3
X262.775Y-205.3
X262.775Y-209.3
X262.775Y-213.3
X262.775Y-217.3
X262.775Y-221.3
X262.775Y-225.3
X262.775Y-229.3
X262.775Y-233.3
X262.775Y-237.3
X262.775Y-241.3
X262.775Y-245.3
X262.775Y-249.3
X262.775Y-253.3
X262.775Y-257.3
X262.775Y-261.3
X262.775Y-265.3
X262.775Y-269.3
X262.775Y-273.3
X262.775Y-277.3
X262.775Y-281.3
X262.775Y-285.3
X262.775Y-289.3
X262.775Y-293.3
X262.775Y-297.3
X262.775Y-301.3
X262.775Y-305.3
X262.775Y-309.3
X262.775Y-313.3
X262.775Y-317.3
X262.775Y-321.3
X262.775Y-325.3
X262.775Y-329.3
X262.775Y-333.3
X262.775Y-337.3
X262.975Y-117.2
X263.0Y-101.225
X263.0Y-105.275
X263.0Y-113.225
X263.075Y-121.125
X263.1Y-109.175
X263.65Y-337.625
X264.525Y-101.2
X264.525Y-105.2
X264.525Y-109.2
X264.525Y-113.2
X264.525Y-117.2
X264.525Y-121.2
X264.525Y-125.2
X264.525Y-129.2
X264.525Y-133.2
X264.525Y-137.2
X264.525Y-141.2
X264.525Y-145.2
X264.525Y-149.2
X264.525Y-153.2
X264.525Y-157.2
X264.525Y-161.2
X264.525Y-165.2
X264.525Y-169.2
X264.525Y-173.2
X264.525Y-177.2
X264.525Y-181.2
X264.525Y-185.2
X264.525Y-189.2
X264.525Y-193.2
X264.525Y-197.2
X264.525Y-201.2
X264.525Y-205.2
X264.525Y-209.2
X264.525Y-213.2
X264.525Y-217.2
X264.525Y-221.2
X264.525Y-225.225
X264.525Y-229.225
X264.525Y-233.225
X264.525Y-237.225
X264.525Y-241.225
X264.525Y-245.225
X264.525Y-249.225
X264.525Y-253.225
X264.525Y-257.225
X264.525Y-261.225
X264.525Y-265.225
X264.525Y-269.225
X264.525Y-273.225
X264.525Y-277.225
X264.525Y-281.225
X264.525Y-285.225
X264.525Y-289.225
X264.525Y-293.225
X264.525Y-297.225
X264.525Y-301.225
X264.525Y-305.225
X264.525Y-309.225
X264.525Y-313.225
X264.525Y-317.225
X264.525Y-321.225
X264.525Y-325.225
X264.525Y-329.225
X264.525Y-333.225
X266.425Y-96.765
X266.775Y-125.3
X266.775Y-129.3
X266.775Y-133.3
X266.775Y-137.3
X266.775Y-141.3
X266.775Y-145.3
X266.775Y-149.3
X266.775Y-153.3
X266.775Y-157.3
X266.775Y-161.3
X266.775Y-165.3
X266.775Y-169.3
X266.775Y-173.3
X266.775Y-177.3
X266.775Y-181.3
X266.775Y-185.3
X266.775Y-189.3
X266.775Y-193.3
X266.775Y-197.3
X266.775Y-201.3
X266.775Y-205.3
X266.775Y-209.3
X266.775Y-213.3
X266.775Y-217.3
X266.775Y-221.3
X266.775Y-225.3
X266.775Y-229.3
X266.775Y-233.3
X266.775Y-237.3
X266.775Y-241.3
X266.775Y-245.3
X266.775Y-249.3
X266.775Y-253.3
X266.775Y-257.3
X266.775Y-261.3
X266.775Y-265.3
X266.775Y-269.3
X266.775Y-273.3
X266.775Y-277.3
X266.775Y-281.3
X266.775Y-285.3
X266.775Y-289.3
X266.775Y-293.3
X266.775Y-297.3
X266.775Y-301.3
X266.775Y-305.3
X266.775Y-309.3
X266.775Y-313.3
X266.775Y-317.3
X266.775Y-321.3
X266.775Y-325.3
X266.775Y-329.3
X266.775Y-333.3
X266.775Y-337.3
X266.975Y-113.275
X267.0Y-117.2
X267.0Y-121.15
X267.025Y-105.175
X267.075Y-109.25
X267.125Y-101.225
X267.65Y-337.625
X268.525Y-101.2
X268.525Y-105.2
X268.525Y-109.2
X268.525Y-113.2
X268.525Y-117.2
X268.525Y-121.2
X268.525Y-125.2
X268.525Y-129.2
X268.525Y-133.2
X268.525Y-137.2
X268.525Y-141.2
X268.525Y-145.2
X268.525Y-149.2
X268.525Y-153.2
X268.525Y-157.2
X268.525Y-161.2
X268.525Y-165.2
X268.525Y-169.2
X268.525Y-173.2
X268.525Y-177.2
X268.525Y-181.2
X268.525Y-185.2
X268.525Y-189.2
X268.525Y-193.2
X268.525Y-197.2
X268.525Y-201.2
X268.525Y-205.2
X268.525Y-209.2
X268.525Y-213.2
X268.525Y-217.2
X268.525Y-221.2
X268.525Y-225.225
X268.525Y-229.225
X268.525Y-233.225
X268.525Y-237.225
X268.525Y-241.225
X268.525Y-245.225
X268.525Y-249.225
X268.525Y-253.225
X268.525Y-257.225
X268.525Y-261.225
X268.525Y-265.225
X268.525Y-269.225
X268.525Y-273.225
X268.525Y-277.225
X268.525Y-281.225
X268.525Y-285.225
X268.525Y-289.225
X268.525Y-293.225
X268.525Y-297.225
X268.525Y-301.225
X268.525Y-305.225
X268.525Y-309.225
X268.525Y-313.225
X268.525Y-317.225
X268.525Y-321.225
X268.525Y-325.225
X268.525Y-329.225
X268.525Y-333.225
X270.425Y-96.765
X270.775Y-125.3
X270.775Y-129.3
X270.775Y-133.3
X270.775Y-137.3
X270.775Y-141.3
X270.775Y-145.3
X270.775Y-149.3
X270.775Y-153.3
X270.775Y-157.3
X270.775Y-161.3
X270.775Y-165.3
X270.775Y-169.3
X270.775Y-173.3
X270.775Y-177.3
X270.775Y-181.3
X270.775Y-185.3
X270.775Y-189.3
X270.775Y-193.3
X270.775Y-197.3
X270.775Y-201.3
X270.775Y-205.3
X270.775Y-209.3
X270.775Y-213.3
X270.775Y-217.3
X270.775Y-221.3
X270.775Y-225.3
X270.775Y-229.3
X270.775Y-233.3
X270.775Y-237.3
X270.775Y-241.3
X270.775Y-245.3
X270.775Y-249.3
X270.775Y-253.3
X270.775Y-257.3
X270.775Y-261.3
X270.775Y-265.3
X270.775Y-269.3
X270.775Y-273.3
X270.775Y-277.3
X270.775Y-281.3
X270.775Y-285.3
X270.775Y-289.3
X270.775Y-293.3
X270.775Y-297.3
X270.775Y-301.3
X270.775Y-305.3
X270.775Y-309.3
X270.775Y-313.3
X270.775Y-317.3
X270.775Y-321.3
X270.775Y-325.3
X270.775Y-329.3
X270.775Y-333.3
X270.775Y-337.3
X270.925Y-113.275
X271.0Y-105.245
X271.0Y-117.25
X271.05Y-121.15
X271.125Y-109.2
X271.15Y-101.183
X271.65Y-337.625
X272.525Y-101.2
X272.525Y-105.2
X272.525Y-109.2
X272.525Y-113.2
X272.525Y-117.2
X272.525Y-121.2
X272.525Y-125.2
X272.525Y-129.2
X272.525Y-133.2
X272.525Y-137.2
X272.525Y-141.2
X272.525Y-145.2
X272.525Y-149.2
X272.525Y-153.2
X272.525Y-157.2
X272.525Y-161.2
X272.525Y-165.2
X272.525Y-169.2
X272.525Y-173.2
X272.525Y-177.2
X272.525Y-181.2
X272.525Y-185.2
X272.525Y-189.2
X272.525Y-193.2
X272.525Y-197.2
X272.525Y-201.2
X272.525Y-205.2
X272.525Y-209.2
X272.525Y-213.2
X272.525Y-217.2
X272.525Y-221.2
X272.525Y-225.225
X272.525Y-229.225
X272.525Y-233.225
X272.525Y-237.225
X272.525Y-241.225
X272.525Y-245.225
X272.525Y-249.225
X272.525Y-253.225
X272.525Y-257.225
X272.525Y-261.225
X272.525Y-265.225
X272.525Y-269.225
X272.525Y-273.225
X272.525Y-277.225
X272.525Y-281.225
X272.525Y-285.225
X272.525Y-289.225
X272.525Y-293.225
X272.525Y-297.225
X272.525Y-301.225
X272.525Y-305.225
X272.525Y-309.225
X272.525Y-313.225
X272.525Y-317.225
X272.525Y-321.225
X272.525Y-325.225
X272.525Y-329.225
X272.525Y-333.225
X274.425Y-96.765
X274.775Y-125.3
X274.775Y-129.3
X274.775Y-133.3
X274.775Y-137.3
X274.775Y-141.3
X274.775Y-145.3
X274.775Y-149.3
X274.775Y-153.3
X274.775Y-157.3
X274.775Y-161.3
X274.775Y-165.3
X274.775Y-169.3
X274.775Y-173.3
X274.775Y-177.3
X274.775Y-181.3
X274.775Y-185.3
X274.775Y-189.3
X274.775Y-193.3
X274.775Y-197.3
X274.775Y-201.3
X274.775Y-205.3
X274.775Y-209.3
X274.775Y-213.3
X274.775Y-217.3
X274.775Y-221.3
X274.775Y-225.3
X274.775Y-229.3
X274.775Y-233.3
X274.775Y-237.3
X274.775Y-241.3
X274.775Y-245.3
X274.775Y-249.3
X274.775Y-253.3
X274.775Y-257.3
X274.775Y-261.3
X274.775Y-265.3
X274.775Y-269.3
X274.775Y-273.3
X274.775Y-277.3
X274.775Y-281.3
X274.775Y-285.3
X274.775Y-289.3
X274.775Y-293.3
X274.775Y-297.3
X274.775Y-301.3
X274.775Y-305.3
X274.775Y-309.3
X274.775Y-313.3
X274.775Y-317.3
X274.775Y-321.3
X274.775Y-325.3
X274.775Y-329.3
X274.775Y-333.3
X274.775Y-337.3
X274.9Y-113.275
X274.9Y-121.125
X274.925Y-109.3
X274.925Y-117.3
X274.95Y-105.3
X275.05Y-101.15
X275.65Y-337.625
X276.525Y-101.2
X276.525Y-105.2
X276.525Y-109.2
X276.525Y-113.2
X276.525Y-117.2
X276.525Y-121.2
X276.525Y-125.2
X276.525Y-129.2
X276.525Y-133.2
X276.525Y-137.2
X276.525Y-141.2
X276.525Y-145.2
X276.525Y-149.2
X276.525Y-153.2
X276.525Y-157.2
X276.525Y-161.2
X276.525Y-165.2
X276.525Y-169.2
X276.525Y-173.2
X276.525Y-177.2
X276.525Y-181.2
X276.525Y-185.2
X276.525Y-189.2
X276.525Y-193.2
X276.525Y-197.2
X276.525Y-201.2
X276.525Y-205.2
X276.525Y-209.2
X276.525Y-213.2
X276.525Y-217.2
X276.525Y-221.2
X276.525Y-225.225
X276.525Y-229.225
X276.525Y-233.225
X276.525Y-237.225
X276.525Y-241.225
X276.525Y-245.225
X276.525Y-249.225
X276.525Y-253.225
X276.525Y-257.225
X276.525Y-261.225
X276.525Y-265.225
X276.525Y-269.225
X276.525Y-273.225
X276.525Y-277.225
X276.525Y-281.225
X276.525Y-285.225
X276.525Y-289.225
X276.525Y-293.225
X276.525Y-297.225
X276.525Y-301.225
X276.525Y-305.225
X276.525Y-309.225
X276.525Y-313.225
X276.525Y-317.225
X276.525Y-321.225
X276.525Y-325.225
X276.525Y-329.225
X276.525Y-333.225
X278.425Y-96.765
X278.775Y-125.3
X278.775Y-129.3
X278.775Y-133.3
X278.775Y-137.3
X278.775Y-141.3
X278.775Y-145.3
X278.775Y-149.3
X278.775Y-153.3
X278.775Y-157.3
X278.775Y-161.3
X278.775Y-165.3
X278.775Y-169.3
X278.775Y-173.3
X278.775Y-177.3
X278.775Y-181.3
X278.775Y-185.3
X278.775Y-189.3
X278.775Y-193.3
X278.775Y-197.3
X278.775Y-201.3
X278.775Y-205.3
X278.775Y-209.3
X278.775Y-213.3
X278.775Y-217.3
X278.775Y-221.3
X278.775Y-225.3
X278.775Y-229.3
X278.775Y-233.3
X278.775Y-237.3
X278.775Y-241.3
X278.775Y-245.3
X278.775Y-249.3
X278.775Y-253.3
X278.775Y-257.3
X278.775Y-261.3
X278.775Y-265.3
X278.775Y-269.3
X278.775Y-273.3
X278.775Y-277.3
X278.775Y-281.3
X278.775Y-285.3
X278.775Y-289.3
X278.775Y-293.3
X278.775Y-297.3
X278.775Y-301.3
X278.775Y-305.3
X278.775Y-309.3
X278.775Y-313.3
X278.775Y-317.3
X278.775Y-321.3
X278.775Y-325.3
X278.775Y-329.3
X278.775Y-333.3
X278.775Y-337.3
X278.9Y-109.245
X278.925Y-105.225
X278.925Y-113.225
X278.95Y-121.175
X278.975Y-117.225
X279.0Y-101.175
X279.65Y-337.625
X280.525Y-101.2
X280.525Y-105.2
X280.525Y-109.2
X280.525Y-113.2
X280.525Y-117.2
X280.525Y-121.2
X280.525Y-125.2
X280.525Y-129.2
X280.525Y-133.2
X280.525Y-137.2
X280.525Y-141.2
X280.525Y-145.2
X280.525Y-149.2
X280.525Y-153.2
X280.525Y-157.2
X280.525Y-161.2
X280.525Y-165.2
X280.525Y-169.2
X280.525Y-173.2
X280.525Y-177.2
X280.525Y-181.2
X280.525Y-185.2
X280.525Y-189.2
X280.525Y-193.2
X280.525Y-197.2
X280.525Y-201.2
X280.525Y-205.2
X280.525Y-209.2
X280.525Y-213.2
X280.525Y-217.2
X280.525Y-221.2
X280.525Y-225.225
X280.525Y-229.225
X280.525Y-233.225
X280.525Y-237.225
X280.525Y-241.225
X280.525Y-245.225
X280.525Y-249.225
X280.525Y-253.225
X280.525Y-257.225
X280.525Y-261.225
X280.525Y-265.225
X280.525Y-269.225
X280.525Y-273.225
X280.525Y-277.225
X280.525Y-281.225
X280.525Y-285.225
X280.525Y-289.225
X280.525Y-293.225
X280.525Y-297.225
X280.525Y-301.225
X280.525Y-305.225
X280.525Y-309.225
X280.525Y-313.225
X280.525Y-317.225
X280.525Y-321.225
X280.525Y-325.225
X280.525Y-329.225
X280.525Y-333.225
X282.425Y-96.765
X282.775Y-125.3
X282.775Y-129.3
X282.775Y-133.3
X282.775Y-137.3
X282.775Y-141.3
X282.775Y-145.3
X282.775Y-149.3
X282.775Y-153.3
X282.775Y-157.3
X282.775Y-161.3
X282.775Y-165.3
X282.775Y-169.3
X282.775Y-173.3
X282.775Y-177.3
X282.775Y-181.3
X282.775Y-185.3
X282.775Y-189.3
X282.775Y-193.3
X282.775Y-197.3
X282.775Y-201.3
X282.775Y-205.3
X282.775Y-209.3
X282.775Y-213.3
X282.775Y-217.3
X282.775Y-221.3
X282.775Y-225.3
X282.775Y-229.3
X282.775Y-233.3
X282.775Y-237.3
X282.775Y-241.3
X282.775Y-245.3
X282.775Y-249.3
X282.775Y-253.3
X282.775Y-257.3
X282.775Y-261.3
X282.775Y-265.3
X282.775Y-269.3
X282.775Y-273.3
X282.775Y-277.3
X282.775Y-281.3
X282.775Y-285.3
X282.775Y-289.3
X282.775Y-293.3
X282.775Y-297.3
X282.775Y-301.3
X282.775Y-305.3
X282.775Y-309.3
X282.775Y-313.3
X282.775Y-317.3
X282.775Y-321.3
X282.775Y-325.3
X282.775Y-329.3
X282.775Y-333.3
X282.775Y-337.3
X282.825Y-113.2
X282.875Y-121.15
X282.9Y-109.225
X282.925Y-105.25
X282.975Y-101.225
X282.975Y-117.225
X283.65Y-337.625
X284.525Y-101.2
X284.525Y-105.2
X284.525Y-109.2
X284.525Y-113.2
X284.525Y-117.2
X284.525Y-121.2
X284.525Y-125.2
X284.525Y-129.2
X284.525Y-133.2
X284.525Y-137.2
X284.525Y-141.2
X284.525Y-145.2
X284.525Y-149.2
X284.525Y-153.2
X284.525Y-157.2
X284.525Y-161.2
X284.525Y-165.2
X284.525Y-169.2
X284.525Y-173.2
X284.525Y-177.2
X284.525Y-181.2
X284.525Y-185.2
X284.525Y-189.2
X284.525Y-193.2
X284.525Y-197.2
X284.525Y-201.2
X284.525Y-205.2
X284.525Y-209.2
X284.525Y-213.2
X284.525Y-217.2
X284.525Y-221.2
X284.525Y-225.225
X284.525Y-229.225
X284.525Y-233.225
X284.525Y-237.225
X284.525Y-241.225
X284.525Y-245.225
X284.525Y-249.225
X284.525Y-253.225
X284.525Y-257.225
X284.525Y-261.225
X284.525Y-265.225
X284.525Y-269.225
X284.525Y-273.225
X284.525Y-277.225
X284.525Y-281.225
X284.525Y-285.225
X284.525Y-289.225
X284.525Y-293.225
X284.525Y-297.225
X284.525Y-301.225
X284.525Y-305.225
X284.525Y-309.225
X284.525Y-313.225
X284.525Y-317.225
X284.525Y-321.225
X284.525Y-325.225
X284.525Y-329.225
X284.525Y-333.225
X286.425Y-96.765
X286.775Y-125.3
X286.775Y-129.3
X286.775Y-133.3
X286.775Y-137.3
X286.775Y-141.3
X286.775Y-145.3
X286.775Y-149.3
X286.775Y-153.3
X286.775Y-157.3
X286.775Y-161.3
X286.775Y-165.3
X286.775Y-169.3
X286.775Y-173.3
X286.775Y-177.3
X286.775Y-181.3
X286.775Y-185.3
X286.775Y-189.3
X286.775Y-193.3
X286.775Y-197.3
X286.775Y-201.3
X286.775Y-205.3
X286.775Y-209.3
X286.775Y-213.3
X286.775Y-217.3
X286.775Y-221.3
X286.775Y-225.3
X286.775Y-229.3
X286.775Y-233.3
X286.775Y-237.3
X286.775Y-241.3
X286.775Y-245.3
X286.775Y-249.3
X286.775Y-253.3
X286.775Y-257.3
X286.775Y-261.3
X286.775Y-265.3
X286.775Y-269.3
X286.775Y-273.3
X286.775Y-277.3
X286.775Y-281.3
X286.775Y-285.3
X286.775Y-289.3
X286.775Y-293.3
X286.775Y-297.3
X286.775Y-301.3
X286.775Y-305.3
X286.775Y-309.3
X286.775Y-313.3
X286.775Y-317.3
X286.775Y-321.3
X286.775Y-325.3
X286.775Y-329.3
X286.775Y-333.3
X286.775Y-337.3
X286.875Y-101.225
X286.9Y-113.275
X286.9Y-117.2
X286.95Y-105.225
X286.95Y-109.245
X287.0Y-121.225
X287.65Y-337.625
X288.525Y-101.2
X288.525Y-105.2
X288.525Y-109.2
X288.525Y-113.2
X288.525Y-117.2
X288.525Y-121.2
X288.525Y-125.2
X288.525Y-129.2
X288.525Y-133.2
X288.525Y-137.2
X288.525Y-141.2
X288.525Y-145.2
X288.525Y-149.2
X288.525Y-153.2
X288.525Y-157.2
X288.525Y-161.2
X288.525Y-165.2
X288.525Y-169.2
X288.525Y-173.2
X288.525Y-177.2
X288.525Y-181.2
X288.525Y-185.2
X288.525Y-189.2
X288.525Y-193.2
X288.525Y-197.2
X288.525Y-201.2
X288.525Y-205.2
X288.525Y-209.2
X288.525Y-213.2
X288.525Y-217.2
X288.525Y-221.2
X288.525Y-225.225
X288.525Y-229.225
X288.525Y-233.225
X288.525Y-237.225
X288.525Y-241.225
X288.525Y-245.225
X288.525Y-249.225
X288.525Y-253.225
X288.525Y-257.225
X288.525Y-261.225
X288.525Y-265.225
X288.525Y-269.225
X288.525Y-273.225
X288.525Y-277.225
X288.525Y-281.225
X288.525Y-285.225
X288.525Y-289.225
X288.525Y-293.225
X288.525Y-297.225
X288.525Y-301.225
X288.525Y-305.225
X288.525Y-309.225
X288.525Y-313.225
X288.525Y-317.225
X288.525Y-321.225
X288.525Y-325.225
X288.525Y-329.225
X288.525Y-333.225
X290.425Y-96.765
X290.775Y-125.3
X290.775Y-129.3
X290.775Y-133.3
X290.775Y-137.3
X290.775Y-141.3
X290.775Y-145.3
X290.775Y-149.3
X290.775Y-153.3
X290.775Y-157.3
X290.775Y-161.3
X290.775Y-165.3
X290.775Y-169.3
X290.775Y-173.3
X290.775Y-177.3
X290.775Y-181.3
X290.775Y-185.3
X290.775Y-189.3
X290.775Y-193.3
X290.775Y-197.3
X290.775Y-201.3
X290.775Y-205.3
X290.775Y-209.3
X290.775Y-213.3
X290.775Y-217.3
X290.775Y-221.3
X290.775Y-225.3
X290.775Y-229.3
X290.775Y-233.3
X290.775Y-237.3
X290.775Y-241.3
X290.775Y-245.3
X290.775Y-249.3
X290.775Y-253.3
X290.775Y-257.3
X290.775Y-261.3
X290.775Y-265.3
X290.775Y-269.3
X290.775Y-273.3
X290.775Y-277.3
X290.775Y-281.3
X290.775Y-285.3
X290.775Y-289.3
X290.775Y-293.3
X290.775Y-297.3
X290.775Y-301.3
X290.775Y-305.3
X290.775Y-309.3
X290.775Y-313.3
X290.775Y-317.3
X290.775Y-321.3
X290.775Y-325.3
X290.775Y-329.3
X290.775Y-333.3
X290.775Y-337.3
X290.9Y-109.245
X290.925Y-113.2
X290.95Y-117.25
X290.95Y-121.225
X291.0Y-101.245
X291.025Y-105.225
X291.65Y-337.625
X292.525Y-101.2
X292.525Y-105.2
X292.525Y-109.2
X292.525Y-113.2
X292.525Y-117.2
X292.525Y-121.2
X292.525Y-125.2
X292.525Y-129.2
X292.525Y-133.2
X292.525Y-137.2
X292.525Y-141.2
X292.525Y-145.2
X292.525Y-149.2
X292.525Y-153.2
X292.525Y-157.2
X292.525Y-161.2
X292.525Y-165.2
X292.525Y-169.2
X292.525Y-173.2
X292.525Y-177.2
X292.525Y-181.2
X292.525Y-185.2
X292.525Y-189.2
X292.525Y-193.2
X292.525Y-197.2
X292.525Y-201.2
X292.525Y-205.2
X292.525Y-209.2
X292.525Y-213.2
X292.525Y-217.2
X292.525Y-221.2
X292.525Y-225.225
X292.525Y-229.225
X292.525Y-233.225
X292.525Y-237.225
X292.525Y-241.225
X292.525Y-245.225
X292.525Y-249.225
X292.525Y-253.225
X292.525Y-257.225
X292.525Y-261.225
X292.525Y-265.225
X292.525Y-269.225
X292.525Y-273.225
X292.525Y-277.225
X292.525Y-281.225
X292.525Y-285.225
X292.525Y-289.225
X292.525Y-293.225
X292.525Y-297.225
X292.525Y-301.225
X292.525Y-305.225
X292.525Y-309.225
X292.525Y-313.225
X292.525Y-317.225
X292.525Y-321.225
X292.525Y-325.225
X292.525Y-329.225
X292.525Y-333.225
X294.425Y-96.765
X294.775Y-125.3
X294.775Y-129.3
X294.775Y-133.3
X294.775Y-137.3
X294.775Y-141.3
X294.775Y-145.3
X294.775Y-149.3
X294.775Y-153.3
X294.775Y-157.3
X294.775Y-161.3
X294.775Y-165.3
X294.775Y-169.3
X294.775Y-173.3
X294.775Y-177.3
X294.775Y-181.3
X294.775Y-185.3
X294.775Y-189.3
X294.775Y-193.3
X294.775Y-197.3
X294.775Y-201.3
X294.775Y-205.3
X294.775Y-209.3
X294.775Y-213.3
X294.775Y-217.3
X294.775Y-221.3
X294.775Y-225.3
X294.775Y-229.3
X294.775Y-233.3
X294.775Y-237.3
X294.775Y-241.3
X294.775Y-245.3
X294.775Y-249.3
X294.775Y-253.3
X294.775Y-257.3
X294.775Y-261.3
X294.775Y-265.3
X294.775Y-269.3
X294.775Y-273.3
X294.775Y-277.3
X294.775Y-281.3
X294.775Y-285.3
X294.775Y-289.3
X294.775Y-293.3
X294.775Y-297.3
X294.775Y-301.3
X294.775Y-305.3
X294.775Y-309.3
X294.775Y-313.3
X294.775Y-317.3
X294.775Y-321.3
X294.775Y-325.3
X294.775Y-329.3
X294.775Y-333.3
X294.775Y-337.3
X294.9Y-109.245
X294.975Y-117.25
X295.0Y-105.2
X295.025Y-113.275
X295.025Y-121.225
X295.05Y-101.225
X295.65Y-337.625
X296.525Y-101.2
X296.525Y-105.2
X296.525Y-109.2
X296.525Y-113.2
X296.525Y-117.2
X296.525Y-121.2
X296.525Y-125.2
X296.525Y-129.2
X296.525Y-133.2
X296.525Y-137.2
X296.525Y-141.2
X296.525Y-145.2
X296.525Y-149.2
X296.525Y-153.2
X296.525Y-157.2
X296.525Y-161.2
X296.525Y-165.2
X296.525Y-169.2
X296.525Y-173.2
X296.525Y-177.2
X296.525Y-181.2
X296.525Y-185.2
X296.525Y-189.2
X296.525Y-193.2
X296.525Y-197.2
X296.525Y-201.2
X296.525Y-205.2
X296.525Y-209.2
X296.525Y-213.2
X296.525Y-217.2
X296.525Y-221.2
X296.525Y-225.225
X296.525Y-229.225
X296.525Y-233.225
X296.525Y-237.225
X296.525Y-241.225
X296.525Y-245.225
X296.525Y-249.225
X296.525Y-253.225
X296.525Y-257.225
X296.525Y-261.225
X296.525Y-265.225
X296.525Y-269.225
X296.525Y-273.225
X296.525Y-277.225
X296.525Y-281.225
X296.525Y-285.225
X296.525Y-289.225
X296.525Y-293.225
X296.525Y-297.225
X296.525Y-301.225
X296.525Y-305.225
X296.525Y-309.225
X296.525Y-313.225
X296.525Y-317.225
X296.525Y-321.225
X296.525Y-325.225
X296.525Y-329.225
X296.525Y-333.225
X298.425Y-96.765
X298.775Y-125.3
X298.775Y-129.3
X298.775Y-133.3
X298.775Y-137.3
X298.775Y-141.3
X298.775Y-145.3
X298.775Y-149.3
X298.775Y-153.3
X298.775Y-157.3
X298.775Y-161.3
X298.775Y-165.3
X298.775Y-169.3
X298.775Y-173.3
X298.775Y-177.3
X298.775Y-181.3
X298.775Y-185.3
X298.775Y-189.3
X298.775Y-193.3
X298.775Y-197.3
X298.775Y-201.3
X298.775Y-205.3
X298.775Y-209.3
X298.775Y-213.3
X298.775Y-217.3
X298.775Y-221.3
X298.775Y-225.3
X298.775Y-229.3
X298.775Y-233.3
X298.775Y-237.3
X298.775Y-241.3
X298.775Y-245.3
X298.775Y-249.3
X298.775Y-253.3
X298.775Y-257.3
X298.775Y-261.3
X298.775Y-265.3
X298.775Y-269.3
X298.775Y-273.3
X298.775Y-277.3
X298.775Y-281.3
X298.775Y-285.3
X298.775Y-289.3
X298.775Y-293.3
X298.775Y-297.3
X298.775Y-301.3
X298.775Y-305.3
X298.775Y-309.3
X298.775Y-313.3
X298.775Y-317.3
X298.775Y-321.3
X298.775Y-325.3
X298.775Y-329.3
X298.775Y-333.3
X298.775Y-337.3
X298.925Y-109.245
X298.95Y-105.175
X298.975Y-113.3
X298.975Y-121.15
X299.0Y-117.25
X299.025Y-101.245
X299.65Y-337.625
X300.525Y-101.2
X300.525Y-105.2
X300.525Y-109.2
X300.525Y-113.2
X300.525Y-117.2
X300.525Y-121.2
X300.525Y-125.2
X300.525Y-129.2
X300.525Y-133.2
X300.525Y-137.2
X300.525Y-141.2
X300.525Y-145.2
X300.525Y-149.2
X300.525Y-153.2
X300.525Y-157.2
X300.525Y-161.2
X300.525Y-165.2
X300.525Y-169.2
X300.525Y-173.2
X300.525Y-177.2
X300.525Y-181.2
X300.525Y-185.2
X300.525Y-189.2
X300.525Y-193.2
X300.525Y-197.2
X300.525Y-201.2
X300.525Y-205.2
X300.525Y-209.2
X300.525Y-213.2
X300.525Y-217.2
X300.525Y-221.2
X300.525Y-225.225
X300.525Y-229.225
X300.525Y-233.225
X300.525Y-237.225
X300.525Y-241.225
X300.525Y-245.225
X300.525Y-249.225
X300.525Y-253.225
X300.525Y-257.225
X300.525Y-261.225
X300.525Y-265.225
X300.525Y-269.225
X300.525Y-273.225
X300.525Y-277.225
X300.525Y-281.225
X300.525Y-285.225
X300.525Y-289.225
X300.525Y-293.225
X300.525Y-297.225
X300.525Y-301.225
X300.525Y-305.225
X300.525Y-309.225
X300.525Y-313.225
X300.525Y-317.225
X300.525Y-321.225
X300.525Y-325.225
X300.525Y-329.225
X300.525Y-333.225
X302.425Y-96.765
X302.775Y-125.3
X302.775Y-129.3
X302.775Y-133.3
X302.775Y-137.3
X302.775Y-141.3
X302.775Y-145.3
X302.775Y-149.3
X302.775Y-153.3
X302.775Y-157.3
X302.775Y-161.3
X302.775Y-165.3
X302.775Y-169.3
X302.775Y-173.3
X302.775Y-177.3
X302.775Y-181.3
X302.775Y-185.3
X302.775Y-189.3
X302.775Y-193.3
X302.775Y-197.3
X302.775Y-201.3
X302.775Y-205.3
X302.775Y-209.3
X302.775Y-213.3
X302.775Y-217.3
X302.775Y-221.3
X302.775Y-225.3
X302.775Y-229.3
X302.775Y-233.3
X302.775Y-237.3
X302.775Y-241.3
X302.775Y-245.3
X302.775Y-249.3
X302.775Y-253.3
X302.775Y-257.3
X302.775Y-261.3
X302.775Y-265.3
X302.775Y-269.3
X302.775Y-273.3
X302.775Y-277.3
X302.775Y-281.3
X302.775Y-285.3
X302.775Y-289.3
X302.775Y-293.3
X302.775Y-297.3
X302.775Y-301.3
X302.775Y-305.3
X302.775Y-309.3
X302.775Y-313.3
X302.775Y-317.3
X302.775Y-321.3
X302.775Y-325.3
X302.775Y-329.3
X302.775Y-333.3
X302.775Y-337.3
X302.875Y-109.225
X303.0Y-105.125
X303.0Y-121.175
X303.075Y-113.2
X303.075Y-117.225
X303.1Y-101.175
X303.65Y-337.625
X304.525Y-101.2
X304.525Y-105.2
X304.525Y-109.2
X304.525Y-113.2
X304.525Y-117.2
X304.525Y-121.2
X304.525Y-125.2
X304.525Y-129.2
X304.525Y-133.2
X304.525Y-137.2
X304.525Y-141.2
X304.525Y-145.2
X304.525Y-149.2
X304.525Y-153.2
X304.525Y-157.2
X304.525Y-161.2
X304.525Y-165.2
X304.525Y-169.2
X304.525Y-173.2
X304.525Y-177.2
X304.525Y-181.2
X304.525Y-185.2
X304.525Y-189.2
X304.525Y-193.2
X304.525Y-197.2
X304.525Y-201.2
X304.525Y-205.2
X304.525Y-209.2
X304.525Y-213.2
X304.525Y-217.2
X304.525Y-221.2
X304.525Y-225.225
X304.525Y-229.225
X304.525Y-233.225
X304.525Y-237.225
X304.525Y-241.225
X304.525Y-245.225
X304.525Y-249.225
X304.525Y-253.225
X304.525Y-257.225
X304.525Y-261.225
X304.525Y-265.225
X304.525Y-269.225
X304.525Y-273.225
X304.525Y-277.225
X304.525Y-281.225
X304.525Y-285.225
X304.525Y-289.225
X304.525Y-293.225
X304.525Y-297.225
X304.525Y-301.225
X304.525Y-305.225
X304.525Y-309.225
X304.525Y-313.225
X304.525Y-317.225
X304.525Y-321.225
X304.525Y-325.225
X304.525Y-329.225
X304.525Y-333.225
X306.425Y-96.765
X306.775Y-125.3
X306.775Y-129.3
X306.775Y-133.3
X306.775Y-137.3
X306.775Y-141.3
X306.775Y-145.3
X306.775Y-149.3
X306.775Y-153.3
X306.775Y-157.3
X306.775Y-161.3
X306.775Y-165.3
X306.775Y-169.3
X306.775Y-173.3
X306.775Y-177.3
X306.775Y-181.3
X306.775Y-185.3
X306.775Y-189.3
X306.775Y-193.3
X306.775Y-197.3
X306.775Y-201.3
X306.775Y-205.3
X306.775Y-209.3
X306.775Y-213.3
X306.775Y-217.3
X306.775Y-221.3
X306.775Y-225.3
X306.775Y-229.3
X306.775Y-233.3
X306.775Y-237.3
X306.775Y-241.3
X306.775Y-245.3
X306.775Y-249.3
X306.775Y-253.3
X306.775Y-257.3
X306.775Y-261.3
X306.775Y-265.3
X306.775Y-269.3
X306.775Y-273.3
X306.775Y-277.3
X306.775Y-281.3
X306.775Y-285.3
X306.775Y-289.3
X306.775Y-293.3
X306.775Y-297.3
X306.775Y-301.3
X306.775Y-305.3
X306.775Y-309.3
X306.775Y-313.3
X306.775Y-317.3
X306.775Y-321.3
X306.775Y-325.3
X306.775Y-329.3
X306.775Y-333.3
X306.775Y-337.3
X306.9Y-109.245
X306.925Y-113.2
X306.975Y-117.225
X307.0Y-105.2
X307.1Y-121.175
X307.225Y-101.25
X307.65Y-337.625
X308.525Y-101.2
X308.525Y-105.2
X308.525Y-109.2
X308.525Y-113.2
X308.525Y-117.2
X308.525Y-121.2
X308.525Y-125.2
X308.525Y-129.2
X308.525Y-133.2
X308.525Y-137.2
X308.525Y-141.2
X308.525Y-145.2
X308.525Y-149.2
X308.525Y-153.2
X308.525Y-157.2
X308.525Y-161.2
X308.525Y-165.2
X308.525Y-169.2
X308.525Y-173.2
X308.525Y-177.2
X308.525Y-181.2
X308.525Y-185.2
X308.525Y-189.2
X308.525Y-193.2
X308.525Y-197.2
X308.525Y-201.2
X308.525Y-205.2
X308.525Y-209.2
X308.525Y-213.2
X308.525Y-217.2
X308.525Y-221.2
X308.525Y-225.225
X308.525Y-229.225
X308.525Y-233.225
X308.525Y-237.225
X308.525Y-241.225
X308.525Y-245.225
X308.525Y-249.225
X308.525Y-253.225
X308.525Y-257.225
X308.525Y-261.225
X308.525Y-265.225
X308.525Y-269.225
X308.525Y-273.225
X308.525Y-277.225
X308.525Y-281.225
X308.525Y-285.225
X308.525Y-289.225
X308.525Y-293.225
X308.525Y-297.225
X308.525Y-301.225
X308.525Y-305.225
X308.525Y-309.225
X308.525Y-313.225
X308.525Y-317.225
X308.525Y-321.225
X308.525Y-325.225
X308.525Y-329.225
X308.525Y-333.225
X310.425Y-96.765
X310.775Y-125.3
X310.775Y-129.3
X310.775Y-133.3
X310.775Y-137.3
X310.775Y-141.3
X310.775Y-145.3
X310.775Y-149.3
X310.775Y-153.3
X310.775Y-157.3
X310.775Y-161.3
X310.775Y-165.3
X310.775Y-169.3
X310.775Y-173.3
X310.775Y-177.3
X310.775Y-181.3
X310.775Y-185.3
X310.775Y-189.3
X310.775Y-193.3
X310.775Y-197.3
X310.775Y-201.3
X310.775Y-205.3
X310.775Y-209.3
X310.775Y-213.3
X310.775Y-217.3
X310.775Y-221.3
X310.775Y-225.3
X310.775Y-229.3
X310.775Y-233.3
X310.775Y-237.3
X310.775Y-241.3
X310.775Y-245.3
X310.775Y-249.3
X310.775Y-253.3
X310.775Y-257.3
X310.775Y-261.3
X310.775Y-265.3
X310.775Y-269.3
X310.775Y-273.3
X310.775Y-277.3
X310.775Y-281.3
X310.775Y-285.3
X310.775Y-289.3
X310.775Y-293.3
X310.775Y-297.3
X310.775Y-301.3
X310.775Y-305.3
X310.775Y-309.3
X310.775Y-313.3
X310.775Y-317.3
X310.775Y-321.3
X310.775Y-325.3
X310.775Y-329.3
X310.775Y-333.3
X310.775Y-337.3
X310.925Y-109.3
X310.925Y-113.325
X311.0Y-117.25
X311.025Y-101.245
X311.1Y-105.225
X311.125Y-121.187
X311.65Y-337.625
X312.525Y-101.2
X312.525Y-105.2
X312.525Y-109.2
X312.525Y-113.2
X312.525Y-117.2
X312.525Y-121.2
X312.525Y-125.2
X312.525Y-129.2
X312.525Y-133.2
X312.525Y-137.2
X312.525Y-141.2
X312.525Y-145.2
X312.525Y-149.2
X312.525Y-153.2
X312.525Y-157.2
X312.525Y-161.2
X312.525Y-165.2
X312.525Y-169.2
X312.525Y-173.2
X312.525Y-177.2
X312.525Y-181.2
X312.525Y-185.2
X312.525Y-189.2
X312.525Y-193.2
X312.525Y-197.2
X312.525Y-201.2
X312.525Y-205.2
X312.525Y-209.2
X312.525Y-213.2
X312.525Y-217.2
X312.525Y-221.2
X312.525Y-225.225
X312.525Y-229.225
X312.525Y-233.225
X312.525Y-237.225
X312.525Y-241.225
X312.525Y-245.225
X312.525Y-249.225
X312.525Y-253.225
X312.525Y-257.225
X312.525Y-261.225
X312.525Y-265.225
X312.525Y-269.225
X312.525Y-273.225
X312.525Y-277.225
X312.525Y-281.225
X312.525Y-285.225
X312.525Y-289.225
X312.525Y-293.225
X312.525Y-297.225
X312.525Y-301.225
X312.525Y-305.225
X312.525Y-309.225
X312.525Y-313.225
X312.525Y-317.225
X312.525Y-321.225
X312.525Y-325.225
X312.525Y-329.225
X312.525Y-333.225
X314.425Y-96.765
X314.775Y-125.3
X314.775Y-129.3
X314.775Y-133.3
X314.775Y-137.3
X314.775Y-141.3
X314.775Y-145.3
X314.775Y-149.3
X314.775Y-153.3
X314.775Y-157.3
X314.775Y-161.3
X314.775Y-165.3
X314.775Y-169.3
X314.775Y-173.3
X314.775Y-177.3
X314.775Y-181.3
X314.775Y-185.3
X314.775Y-189.3
X314.775Y-193.3
X314.775Y-197.3
X314.775Y-201.3
X314.775Y-205.3
X314.775Y-209.3
X314.775Y-213.3
X314.775Y-217.3
X314.775Y-221.3
X314.775Y-225.3
X314.775Y-229.3
X314.775Y-233.3
X314.775Y-237.3
X314.775Y-241.3
X314.775Y-245.3
X314.775Y-249.3
X314.775Y-253.3
X314.775Y-257.3
X314.775Y-261.3
X314.775Y-265.3
X314.775Y-269.3
X314.775Y-273.3
X314.775Y-277.3
X314.775Y-281.3
X314.775Y-285.3
X314.775Y-289.3
X314.775Y-293.3
X314.775Y-297.3
X314.775Y-301.3
X314.775Y-305.3
X314.775Y-309.3
X314.775Y-313.3
X314.775Y-317.3
X314.775Y-321.3
X314.775Y-325.3
X314.775Y-329.3
X314.775Y-333.3
X314.775Y-337.3
X314.875Y-109.245
X314.95Y-121.15
X314.975Y-117.225
X315.05Y-101.245
X315.05Y-113.265
X315.15Y-105.25
X315.65Y-337.625
X316.525Y-101.2
X316.525Y-105.2
X316.525Y-109.2
X316.525Y-113.2
X316.525Y-117.2
X316.525Y-121.2
X316.525Y-125.2
X316.525Y-129.2
X316.525Y-133.2
X316.525Y-137.2
X316.525Y-141.2
X316.525Y-145.2
X316.525Y-149.2
X316.525Y-153.2
X316.525Y-157.2
X316.525Y-161.2
X316.525Y-165.2
X316.525Y-169.2
X316.525Y-173.2
X316.525Y-177.2
X316.525Y-181.2
X316.525Y-185.2
X316.525Y-189.2
X316.525Y-193.2
X316.525Y-197.2
X316.525Y-201.2
X316.525Y-205.2
X316.525Y-209.2
X316.525Y-213.2
X316.525Y-217.2
X316.525Y-221.2
X316.525Y-225.225
X316.525Y-229.225
X316.525Y-233.225
X316.525Y-237.225
X316.525Y-241.225
X316.525Y-245.225
X316.525Y-249.225
X316.525Y-253.225
X316.525Y-257.225
X316.525Y-261.225
X316.525Y-265.225
X316.525Y-269.225
X316.525Y-273.225
X316.525Y-277.225
X316.525Y-281.225
X316.525Y-285.225
X316.525Y-289.225
X316.525Y-293.225
X316.525Y-297.225
X316.525Y-301.225
X316.525Y-305.225
X316.525Y-309.225
X316.525Y-313.225
X316.525Y-317.225
X316.525Y-321.225
X316.525Y-325.225
X316.525Y-329.225
X316.525Y-333.225
X318.425Y-96.765
X318.775Y-125.3
X318.775Y-129.3
X318.775Y-133.3
X318.775Y-137.3
X318.775Y-141.3
X318.775Y-145.3
X318.775Y-149.3
X318.775Y-153.3
X318.775Y-157.3
X318.775Y-161.3
X318.775Y-165.3
X318.775Y-169.3
X318.775Y-173.3
X318.775Y-177.3
X318.775Y-181.3
X318.775Y-185.3
X318.775Y-189.3
X318.775Y-193.3
X318.775Y-197.3
X318.775Y-201.3
X318.775Y-205.3
X318.775Y-209.3
X318.775Y-213.3
X318.775Y-217.3
X318.775Y-221.3
X318.775Y-225.3
X318.775Y-229.3
X318.775Y-233.3
X318.775Y-237.3
X318.775Y-241.3
X318.775Y-245.3
X318.775Y-249.3
X318.775Y-253.3
X318.775Y-257.3
X318.775Y-261.3
X318.775Y-265.3
X318.775Y-269.3
X318.775Y-273.3
X318.775Y-277.3
X318.775Y-281.3
X318.775Y-285.3
X318.775Y-289.3
X318.775Y-293.3
X318.775Y-297.3
X318.775Y-301.3
X318.775Y-305.3
X318.775Y-309.3
X318.775Y-313.3
X318.775Y-317.3
X318.775Y-321.3
X318.775Y-325.3
X318.775Y-329.3
X318.775Y-333.3
X318.775Y-337.3
X318.925Y-109.275
X319.0Y-117.225
X319.075Y-113.275
X319.075Y-121.252
X319.1Y-105.26
X319.125Y-101.225
X319.65Y-337.625
X320.525Y-101.2
X320.525Y-105.2
X320.525Y-109.2
X320.525Y-113.2
X320.525Y-117.2
X320.525Y-121.2
X320.525Y-125.2
X320.525Y-129.2
X320.525Y-133.2
X320.525Y-137.2
X320.525Y-141.2
X320.525Y-145.2
X320.525Y-149.2
X320.525Y-153.2
X320.525Y-157.2
X320.525Y-161.2
X320.525Y-165.2
X320.525Y-169.2
X320.525Y-173.2
X320.525Y-177.2
X320.525Y-181.2
X320.525Y-185.2
X320.525Y-189.2
X320.525Y-193.2
X320.525Y-197.2
X320.525Y-201.2
X320.525Y-205.2
X320.525Y-209.2
X320.525Y-213.2
X320.525Y-217.2
X320.525Y-221.2
X320.525Y-225.225
X320.525Y-229.225
X320.525Y-233.225
X320.525Y-237.225
X320.525Y-241.225
X320.525Y-245.225
X320.525Y-249.225
X320.525Y-253.225
X320.525Y-257.225
X320.525Y-261.225
X320.525Y-265.225
X320.525Y-269.225
X320.525Y-273.225
X320.525Y-277.225
X320.525Y-281.225
X320.525Y-285.225
X320.525Y-289.225
X320.525Y-293.225
X320.525Y-297.225
X320.525Y-301.225
X320.525Y-305.225
X320.525Y-309.225
X320.525Y-313.225
X320.525Y-317.225
X320.525Y-321.225
X320.525Y-325.225
X320.525Y-329.225
X320.525Y-333.225
X322.425Y-96.765
X322.775Y-125.3
X322.775Y-129.3
X322.775Y-133.3
X322.775Y-137.3
X322.775Y-141.3
X322.775Y-145.3
X322.775Y-149.3
X322.775Y-153.3
X322.775Y-157.3
X322.775Y-161.3
X322.775Y-165.3
X322.775Y-169.3
X322.775Y-173.3
X322.775Y-177.3
X322.775Y-181.3
X322.775Y-185.3
X322.775Y-189.3
X322.775Y-193.3
X322.775Y-197.3
X322.775Y-201.3
X322.775Y-205.3
X322.775Y-209.3
X322.775Y-213.3
X322.775Y-217.3
X322.775Y-221.3
X322.775Y-225.3
X322.775Y-229.3
X322.775Y-233.3
X322.775Y-237.3
X322.775Y-241.3
X322.775Y-245.3
X322.775Y-249.3
X322.775Y-253.3
X322.775Y-257.3
X322.775Y-261.3
X322.775Y-265.3
X322.775Y-269.3
X322.775Y-273.3
X322.775Y-277.3
X322.775Y-281.3
X322.775Y-285.3
X322.775Y-289.3
X322.775Y-293.3
X322.775Y-297.3
X322.775Y-301.3
X322.775Y-305.3
X322.775Y-309.3
X322.775Y-313.3
X322.775Y-317.3
X322.775Y-321.3
X322.775Y-325.3
X322.775Y-329.3
X322.775Y-333.3
X322.775Y-337.3
X322.9Y-117.275
X322.9Y-121.2
X323.025Y-105.3
X323.025Y-109.175
X323.1Y-113.2
X323.125Y-101.245
X323.65Y-337.625
X324.525Y-101.2
X324.525Y-105.2
X324.525Y-109.2
X324.525Y-113.2
X324.525Y-117.2
X324.525Y-121.2
X324.525Y-125.2
X324.525Y-129.2
X324.525Y-133.2
X324.525Y-137.2
X324.525Y-141.2
X324.525Y-145.2
X324.525Y-149.2
X324.525Y-153.2
X324.525Y-157.2
X324.525Y-161.2
X324.525Y-165.2
X324.525Y-169.2
X324.525Y-173.2
X324.525Y-177.2
X324.525Y-181.2
X324.525Y-185.2
X324.525Y-189.2
X324.525Y-193.2
X324.525Y-197.2
X324.525Y-201.2
X324.525Y-205.2
X324.525Y-209.2
X324.525Y-213.2
X324.525Y-217.2
X324.525Y-221.2
X324.525Y-225.225
X324.525Y-229.225
X324.525Y-233.225
X324.525Y-237.225
X324.525Y-241.225
X324.525Y-245.225
X324.525Y-249.225
X324.525Y-253.225
X324.525Y-257.225
X324.525Y-261.225
X324.525Y-265.225
X324.525Y-269.225
X324.525Y-273.225
X324.525Y-277.225
X324.525Y-281.225
X324.525Y-285.225
X324.525Y-289.225
X324.525Y-293.225
X324.525Y-297.225
X324.525Y-301.225
X324.525Y-305.225
X324.525Y-309.225
X324.525Y-313.225
X324.525Y-317.225
X324.525Y-321.225
X324.525Y-325.225
X324.525Y-329.225
X324.525Y-333.225
X326.425Y-96.765
X326.775Y-125.3
X326.775Y-129.3
X326.775Y-133.3
X326.775Y-137.3
X326.775Y-141.3
X326.775Y-145.3
X326.775Y-149.3
X326.775Y-153.3
X326.775Y-157.3
X326.775Y-161.3
X326.775Y-165.3
X326.775Y-169.3
X326.775Y-173.3
X326.775Y-177.3
X326.775Y-181.3
X326.775Y-185.3
X326.775Y-189.3
X326.775Y-193.3
X326.775Y-197.3
X326.775Y-201.3
X326.775Y-205.3
X326.775Y-209.3
X326.775Y-213.3
X326.775Y-217.3
X326.775Y-221.3
X326.775Y-225.3
X326.775Y-229.3
X326.775Y-233.3
X326.775Y-237.3
X326.775Y-241.3
X326.775Y-245.3
X326.775Y-249.3
X326.775Y-253.3
X326.775Y-257.3
X326.775Y-261.3
X326.775Y-265.3
X326.775Y-269.3
X326.775Y-273.3
X326.775Y-277.3
X326.775Y-281.3
X326.775Y-285.3
X326.775Y-289.3
X326.775Y-293.3
X326.775Y-297.3
X326.775Y-301.3
X326.775Y-305.3
X326.775Y-309.3
X326.775Y-313.3
X326.775Y-317.3
X326.775Y-321.3
X326.775Y-325.3
X326.775Y-329.3
X326.775Y-333.3
X326.775Y-337.3
X326.925Y-117.25
X326.95Y-105.225
X326.95Y-121.175
X327.025Y-109.175
X327.125Y-113.2
X327.175Y-101.275
X327.65Y-337.625
X328.525Y-101.2
X328.525Y-105.2
X328.525Y-109.2
X328.525Y-113.2
X328.525Y-117.2
X328.525Y-121.2
X328.525Y-125.2
X328.525Y-129.2
X328.525Y-133.2
X328.525Y-137.2
X328.525Y-141.2
X328.525Y-145.2
X328.525Y-149.2
X328.525Y-153.2
X328.525Y-157.2
X328.525Y-161.2
X328.525Y-165.2
X328.525Y-169.2
X328.525Y-173.2
X328.525Y-177.2
X328.525Y-181.2
X328.525Y-185.2
X328.525Y-189.2
X328.525Y-193.2
X328.525Y-197.2
X328.525Y-201.2
X328.525Y-205.2
X328.525Y-209.2
X328.525Y-213.2
X328.525Y-217.2
X328.525Y-221.2
X328.525Y-225.225
X328.525Y-229.225
X328.525Y-233.225
X328.525Y-237.225
X328.525Y-241.225
X328.525Y-245.225
X328.525Y-249.225
X328.525Y-253.225
X328.525Y-257.225
X328.525Y-261.225
X328.525Y-265.225
X328.525Y-269.225
X328.525Y-273.225
X328.525Y-277.225
X328.525Y-281.225
X328.525Y-285.225
X328.525Y-289.225
X328.525Y-293.225
X328.525Y-297.225
X328.525Y-301.225
X328.525Y-305.225
X328.525Y-309.225
X328.525Y-313.225
X328.525Y-317.225
X328.525Y-321.225
X328.525Y-325.225
X328.525Y-329.225
X328.525Y-333.225
X330.425Y-96.765
X330.775Y-125.3
X330.775Y-129.3
X330.775Y-133.3
X330.775Y-137.3
X330.775Y-141.3
X330.775Y-145.3
X330.775Y-149.3
X330.775Y-153.3
X330.775Y-157.3
X330.775Y-161.3
X330.775Y-165.3
X330.775Y-169.3
X330.775Y-173.3
X330.775Y-177.3
X330.775Y-181.3
X330.775Y-185.3
X330.775Y-189.3
X330.775Y-193.3
X330.775Y-197.3
X330.775Y-201.3
X330.775Y-205.3
X330.775Y-209.3
X330.775Y-213.3
X330.775Y-217.3
X330.775Y-221.3
X330.775Y-225.3
X330.775Y-229.3
X330.775Y-233.3
X330.775Y-237.3
X330.775Y-241.3
X330.775Y-245.3
X330.775Y-249.3
X330.775Y-253.3
X330.775Y-257.3
X330.775Y-261.3
X330.775Y-265.3
X330.775Y-269.3
X330.775Y-273.3
X330.775Y-277.3
X330.775Y-281.3
X330.775Y-285.3
X330.775Y-289.3
X330.775Y-293.3
X330.775Y-297.3
X330.775Y-301.3
X330.775Y-305.3
X330.775Y-309.3
X330.775Y-313.3
X330.775Y-317.3
X330.775Y-321.3
X330.775Y-325.3
X330.775Y-329.3
X330.775Y-333.3
X330.775Y-337.3
X330.95Y-109.225
X330.95Y-117.225
X330.975Y-105.225
X331.0Y-101.3
X331.075Y-113.231
X331.1Y-121.2
X331.65Y-337.625
X332.525Y-101.2
X332.525Y-105.2
X332.525Y-109.2
X332.525Y-113.2
X332.525Y-117.2
X332.525Y-121.2
X332.525Y-125.2
X332.525Y-129.2
X332.525Y-133.2
X332.525Y-137.2
X332.525Y-141.2
X332.525Y-145.2
X332.525Y-149.2
X332.525Y-153.2
X332.525Y-157.2
X332.525Y-161.2
X332.525Y-165.2
X332.525Y-169.2
X332.525Y-173.2
X332.525Y-177.2
X332.525Y-181.2
X332.525Y-185.2
X332.525Y-189.2
X332.525Y-193.2
X332.525Y-197.2
X332.525Y-201.2
X332.525Y-205.2
X332.525Y-209.2
X332.525Y-213.2
X332.525Y-217.2
X332.525Y-221.2
X332.525Y-225.225
X332.525Y-229.225
X332.525Y-233.225
X332.525Y-237.225
X332.525Y-241.225
X332.525Y-245.225
X332.525Y-249.225
X332.525Y-253.225
X332.525Y-257.225
X332.525Y-261.225
X332.525Y-265.225
X332.525Y-269.225
X332.525Y-273.225
X332.525Y-277.225
X332.525Y-281.225
X332.525Y-285.225
X332.525Y-289.225
X332.525Y-293.225
X332.525Y-297.225
X332.525Y-301.225
X332.525Y-305.225
X332.525Y-309.225
X332.525Y-313.225
X332.525Y-317.225
X332.525Y-321.225
X332.525Y-325.225
X332.525Y-329.225
X332.525Y-333.225
X334.425Y-96.765
X334.775Y-125.3
X334.775Y-129.3
X334.775Y-133.3
X334.775Y-137.3
X334.775Y-141.3
X334.775Y-145.3
X334.775Y-149.3
X334.775Y-153.3
X334.775Y-157.3
X334.775Y-161.3
X334.775Y-165.3
X334.775Y-169.3
X334.775Y-173.3
X334.775Y-177.3
X334.775Y-181.3
X334.775Y-185.3
X334.775Y-189.3
X334.775Y-193.3
X334.775Y-197.3
X334.775Y-201.3
X334.775Y-205.3
X334.775Y-209.3
X334.775Y-213.3
X334.775Y-217.3
X334.775Y-221.3
X334.775Y-225.3
X334.775Y-229.3
X334.775Y-233.3
X334.775Y-237.3
X334.775Y-241.3
X334.775Y-245.3
X334.775Y-249.3
X334.775Y-253.3
X334.775Y-257.3
X334.775Y-261.3
X334.775Y-265.3
X334.775Y-269.3
X334.775Y-273.3
X334.775Y-277.3
X334.775Y-281.3
X334.775Y-285.3
X334.775Y-289.3
X334.775Y-293.3
X334.775Y-297.3
X334.775Y-301.3
X334.775Y-305.3
X334.775Y-309.3
X334.775Y-313.3
X334.775Y-317.3
X334.775Y-321.3
X334.775Y-325.3
X334.775Y-329.3
X334.775Y-333.3
X334.775Y-337.3
X334.925Y-101.175
X334.95Y-117.25
X335.025Y-109.225
X335.025Y-113.2
X335.025Y-121.175
X335.075Y-105.225
X335.65Y-337.625
X336.525Y-101.2
X336.525Y-105.2
X336.525Y-109.2
X336.525Y-113.2
X336.525Y-117.2
X336.525Y-121.2
X336.525Y-125.2
X336.525Y-129.2
X336.525Y-133.2
X336.525Y-137.2
X336.525Y-141.2
X336.525Y-145.2
X336.525Y-149.2
X336.525Y-153.2
X336.525Y-157.2
X336.525Y-161.2
X336.525Y-165.2
X336.525Y-169.2
X336.525Y-173.2
X336.525Y-177.2
X336.525Y-181.2
X336.525Y-185.2
X336.525Y-189.2
X336.525Y-193.2
X336.525Y-197.2
X336.525Y-201.2
X336.525Y-205.2
X336.525Y-209.2
X336.525Y-213.2
X336.525Y-217.2
X336.525Y-221.2
X336.525Y-225.225
X336.525Y-229.225
X336.525Y-233.225
X336.525Y-237.225
X336.525Y-241.225
X336.525Y-245.225
X336.525Y-249.225
X336.525Y-253.225
X336.525Y-257.225
X336.525Y-261.225
X336.525Y-265.225
X336.525Y-269.225
X336.525Y-273.225
X336.525Y-277.225
X336.525Y-281.225
X336.525Y-285.225
X336.525Y-289.225
X336.525Y-293.225
X336.525Y-297.225
X336.525Y-301.225
X336.525Y-305.225
X336.525Y-309.225
X336.525Y-313.225
X336.525Y-317.225
X336.525Y-321.225
X336.525Y-325.225
X336.525Y-329.225
X336.525Y-333.225
X338.425Y-96.765
X338.775Y-125.3
X338.775Y-129.3
X338.775Y-133.3
X338.775Y-137.3
X338.775Y-141.3
X338.775Y-145.3
X338.775Y-149.3
X338.775Y-153.3
X338.775Y-157.3
X338.775Y-161.3
X338.775Y-165.3
X338.775Y-169.3
X338.775Y-173.3
X338.775Y-177.3
X338.775Y-181.3
X338.775Y-185.3
X338.775Y-189.3
X338.775Y-193.3
X338.775Y-197.3
X338.775Y-201.3
X338.775Y-205.3
X338.775Y-209.3
X338.775Y-213.3
X338.775Y-217.3
X338.775Y-221.3
X338.775Y-225.3
X338.775Y-229.3
X338.775Y-233.3
X338.775Y-237.3
X338.775Y-241.3
X338.775Y-245.3
X338.775Y-249.3
X338.775Y-253.3
X338.775Y-257.3
X338.775Y-261.3
X338.775Y-265.3
X338.775Y-269.3
X338.775Y-273.3
X338.775Y-277.3
X338.775Y-281.3
X338.775Y-285.3
X338.775Y-289.3
X338.775Y-293.3
X338.775Y-297.3
X338.775Y-301.3
X338.775Y-305.3
X338.775Y-309.3
X338.775Y-313.3
X338.775Y-317.3
X338.775Y-321.3
X338.775Y-325.3
X338.775Y-329.3
X338.775Y-333.3
X338.775Y-337.3
X338.875Y-117.275
X338.95Y-121.175
X339.0Y-109.225
X339.0Y-113.225
X339.1Y-105.196
X339.175Y-101.225
X339.65Y-337.625
X340.525Y-101.2
X340.525Y-105.2
X340.525Y-109.2
X340.525Y-113.2
X340.525Y-117.2
X340.525Y-121.2
X340.525Y-125.2
X340.525Y-129.2
X340.525Y-133.2
X340.525Y-137.2
X340.525Y-141.2
X340.525Y-145.2
X340.525Y-149.2
X340.525Y-153.2
X340.525Y-157.2
X340.525Y-161.2
X340.525Y-165.2
X340.525Y-169.2
X340.525Y-173.2
X340.525Y-177.2
X340.525Y-181.2
X340.525Y-185.2
X340.525Y-189.2
X340.525Y-193.2
X340.525Y-197.2
X340.525Y-201.2
X340.525Y-205.2
X340.525Y-209.2
X340.525Y-213.2
X340.525Y-217.2
X340.525Y-221.2
X340.525Y-225.225
X340.525Y-229.225
X340.525Y-233.225
X340.525Y-237.225
X340.525Y-241.225
X340.525Y-245.225
X340.525Y-249.225
X340.525Y-253.225
X340.525Y-257.225
X340.525Y-261.225
X340.525Y-265.225
X340.525Y-269.225
X340.525Y-273.225
X340.525Y-277.225
X340.525Y-281.225
X340.525Y-285.225
X340.525Y-289.225
X340.525Y-293.225
X340.525Y-297.225
X340.525Y-301.225
X340.525Y-305.225
X340.525Y-309.225
X340.525Y-313.225
X340.525Y-317.225
X340.525Y-321.225
X340.525Y-325.225
X340.525Y-329.225
X340.525Y-333.225
X342.425Y-96.765
X342.775Y-125.3
X342.775Y-129.3
X342.775Y-133.3
X342.775Y-137.3
X342.775Y-141.3
X342.775Y-145.3
X342.775Y-149.3
X342.775Y-153.3
X342.775Y-157.3
X342.775Y-161.3
X342.775Y-165.3
X342.775Y-169.3
X342.775Y-173.3
X342.775Y-177.3
X342.775Y-181.3
X342.775Y-185.3
X342.775Y-189.3
X342.775Y-193.3
X342.775Y-197.3
X342.775Y-201.3
X342.775Y-205.3
X342.775Y-209.3
X342.775Y-213.3
X342.775Y-217.3
X342.775Y-221.3
X342.775Y-225.3
X342.775Y-229.3
X342.775Y-233.3
X342.775Y-237.3
X342.775Y-241.3
X342.775Y-245.3
X342.775Y-249.3
X342.775Y-253.3
X342.775Y-257.3
X342.775Y-261.3
X342.775Y-265.3
X342.775Y-269.3
X342.775Y-273.3
X342.775Y-277.3
X342.775Y-281.3
X342.775Y-285.3
X342.775Y-289.3
X342.775Y-293.3
X342.775Y-297.3
X342.775Y-301.3
X342.775Y-305.3
X342.775Y-309.3
X342.775Y-313.3
X342.775Y-317.3
X342.775Y-321.3
X342.775Y-325.3
X342.775Y-329.3
X342.775Y-333.3
X342.775Y-337.3
X342.9Y-109.3
X342.95Y-117.25
X342.95Y-121.2
X343.05Y-105.225
X343.1Y-113.3
X343.125Y-101.275
X343.65Y-337.625
X344.525Y-101.2
X344.525Y-105.2
X344.525Y-109.2
X344.525Y-113.2
X344.525Y-117.2
X344.525Y-121.2
X344.525Y-125.2
X344.525Y-129.2
X344.525Y-133.2
X344.525Y-137.2
X344.525Y-141.2
X344.525Y-145.2
X344.525Y-149.2
X344.525Y-153.2
X344.525Y-157.2
X344.525Y-161.2
X344.525Y-165.2
X344.525Y-169.2
X344.525Y-173.2
X344.525Y-177.2
X344.525Y-181.2
X344.525Y-185.2
X344.525Y-189.2
X344.525Y-193.2
X344.525Y-197.2
X344.525Y-201.2
X344.525Y-205.2
X344.525Y-209.2
X344.525Y-213.2
X344.525Y-217.2
X344.525Y-221.2
X344.525Y-225.225
X344.525Y-229.225
X344.525Y-233.225
X344.525Y-237.225
X344.525Y-241.225
X344.525Y-245.225
X344.525Y-249.225
X344.525Y-253.225
X344.525Y-257.225
X344.525Y-261.225
X344.525Y-265.225
X344.525Y-269.225
X344.525Y-273.225
X344.525Y-277.225
X344.525Y-281.225
X344.525Y-285.225
X344.525Y-289.225
X344.525Y-293.225
X344.525Y-297.225
X344.525Y-301.225
X344.525Y-305.225
X344.525Y-309.225
X344.525Y-313.225
X344.525Y-317.225
X344.525Y-321.225
X344.525Y-325.225
X344.525Y-329.225
X344.525Y-333.225
X346.425Y-96.765
X346.775Y-125.3
X346.775Y-129.3
X346.775Y-133.3
X346.775Y-137.3
X346.775Y-141.3
X346.775Y-145.3
X346.775Y-149.3
X346.775Y-153.3
X346.775Y-157.3
X346.775Y-161.3
X346.775Y-165.3
X346.775Y-169.3
X346.775Y-173.3
X346.775Y-177.3
X346.775Y-181.3
X346.775Y-185.3
X346.775Y-189.3
X346.775Y-193.3
X346.775Y-197.3
X346.775Y-201.3
X346.775Y-205.3
X346.775Y-209.3
X346.775Y-213.3
X346.775Y-217.3
X346.775Y-221.3
X346.775Y-225.3
X346.775Y-229.3
X346.775Y-233.3
X346.775Y-237.3
X346.775Y-241.3
X346.775Y-245.3
X346.775Y-249.3
X346.775Y-253.3
X346.775Y-257.3
X346.775Y-261.3
X346.775Y-265.3
X346.775Y-269.3
X346.775Y-273.3
X346.775Y-277.3
X346.775Y-281.3
X346.775Y-285.3
X346.775Y-289.3
X346.775Y-293.3
X346.775Y-297.3
X346.775Y-301.3
X346.775Y-305.3
X346.775Y-309.3
X346.775Y-313.3
X346.775Y-317.3
X346.775Y-321.3
X346.775Y-325.3
X346.775Y-329.3
X346.775Y-333.3
X346.775Y-337.3
X346.875Y-121.175
X347.0Y-109.175
X347.0Y-117.25
X347.075Y-101.175
X347.075Y-113.225
X347.15Y-105.3
X347.65Y-337.625
X348.525Y-101.2
X348.525Y-105.2
X348.525Y-109.2
X348.525Y-113.2
X348.525Y-117.2
X348.525Y-121.2
X348.525Y-125.2
X348.525Y-129.2
X348.525Y-133.2
X348.525Y-137.2
X348.525Y-141.2
X348.525Y-145.2
X348.525Y-149.2
X348.525Y-153.2
X348.525Y-157.2
X348.525Y-161.2
X348.525Y-165.2
X348.525Y-169.2
X348.525Y-173.2
X348.525Y-177.2
X348.525Y-181.2
X348.525Y-185.2
X348.525Y-189.2
X348.525Y-193.2
X348.525Y-197.2
X348.525Y-201.2
X348.525Y-205.2
X348.525Y-209.2
X348.525Y-213.2
X348.525Y-217.2
X348.525Y-221.2
X348.525Y-225.225
X348.525Y-229.225
X348.525Y-233.225
X348.525Y-237.225
X348.525Y-241.225
X348.525Y-245.225
X348.525Y-249.225
X348.525Y-253.225
X348.525Y-257.225
X348.525Y-261.225
X348.525Y-265.225
X348.525Y-269.225
X348.525Y-273.225
X348.525Y-277.225
X348.525Y-281.225
X348.525Y-285.225
X348.525Y-289.225
X348.525Y-293.225
X348.525Y-297.225
X348.525Y-301.225
X348.525Y-305.225
X348.525Y-309.225
X348.525Y-313.225
X348.525Y-317.225
X348.525Y-321.225
X348.525Y-325.225
X348.525Y-329.225
X348.525Y-333.225
X350.425Y-96.765
X350.775Y-125.3
X350.775Y-129.3
X350.775Y-133.3
X350.775Y-137.3
X350.775Y-141.3
X350.775Y-145.3
X350.775Y-149.3
X350.775Y-153.3
X350.775Y-157.3
X350.775Y-161.3
X350.775Y-165.3
X350.775Y-169.3
X350.775Y-173.3
X350.775Y-177.3
X350.775Y-181.3
X350.775Y-185.3
X350.775Y-189.3
X350.775Y-193.3
X350.775Y-197.3
X350.775Y-201.3
X350.775Y-205.3
X350.775Y-209.3
X350.775Y-213.3
X350.775Y-217.3
X350.775Y-221.3
X350.775Y-225.3
X350.775Y-229.3
X350.775Y-233.3
X350.775Y-237.3
X350.775Y-241.3
X350.775Y-245.3
X350.775Y-249.3
X350.775Y-253.3
X350.775Y-257.3
X350.775Y-261.3
X350.775Y-265.3
X350.775Y-269.3
X350.775Y-273.3
X350.775Y-277.3
X350.775Y-281.3
X350.775Y-285.3
X350.775Y-289.3
X350.775Y-293.3
X350.775Y-297.3
X350.775Y-301.3
X350.775Y-305.3
X350.775Y-309.3
X350.775Y-313.3
X350.775Y-317.3
X350.775Y-321.3
X350.775Y-325.3
X350.775Y-329.3
X350.775Y-333.3
X350.775Y-337.3
X350.9Y-121.3
X350.975Y-109.225
X350.975Y-117.275
X351.0Y-113.275
X351.05Y-105.225
X351.2Y-101.225
X351.65Y-337.625
X352.525Y-101.2
X352.525Y-105.2
X352.525Y-109.2
X352.525Y-113.2
X352.525Y-117.2
X352.525Y-121.2
X352.525Y-125.2
X352.525Y-129.2
X352.525Y-133.2
X352.525Y-137.2
X352.525Y-141.2
X352.525Y-145.2
X352.525Y-149.2
X352.525Y-153.2
X352.525Y-157.2
X352.525Y-161.2
X352.525Y-165.2
X352.525Y-169.2
X352.525Y-173.2
X352.525Y-177.2
X352.525Y-181.2
X352.525Y-185.2
X352.525Y-189.2
X352.525Y-193.2
X352.525Y-197.2
X352.525Y-201.2
X352.525Y-205.2
X352.525Y-209.2
X352.525Y-213.2
X352.525Y-217.2
X352.525Y-221.2
X352.525Y-225.225
X352.525Y-229.225
X352.525Y-233.225
X352.525Y-237.225
X352.525Y-241.225
X352.525Y-245.225
X352.525Y-249.225
X352.525Y-253.225
X352.525Y-257.225
X352.525Y-261.225
X352.525Y-265.225
X352.525Y-269.225
X352.525Y-273.225
X352.525Y-277.225
X352.525Y-281.225
X352.525Y-285.225
X352.525Y-289.225
X352.525Y-293.225
X352.525Y-297.225
X352.525Y-301.225
X352.525Y-305.225
X352.525Y-309.225
X352.525Y-313.225
X352.525Y-317.225
X352.525Y-321.225
X352.525Y-325.225
X352.525Y-329.225
X352.525Y-333.225
X354.425Y-96.765
X354.775Y-125.3
X354.775Y-129.3
X354.775Y-133.3
X354.775Y-137.3
X354.775Y-141.3
X354.775Y-145.3
X354.775Y-149.3
X354.775Y-153.3
X354.775Y-157.3
X354.775Y-161.3
X354.775Y-165.3
X354.775Y-169.3
X354.775Y-173.3
X354.775Y-177.3
X354.775Y-181.3
X354.775Y-185.3
X354.775Y-189.3
X354.775Y-193.3
X354.775Y-197.3
X354.775Y-201.3
X354.775Y-205.3
X354.775Y-209.3
X354.775Y-213.3
X354.775Y-217.3
X354.775Y-221.3
X354.775Y-225.3
X354.775Y-229.3
X354.775Y-233.3
X354.775Y-237.3
X354.775Y-241.3
X354.775Y-245.3
X354.775Y-249.3
X354.775Y-253.3
X354.775Y-257.3
X354.775Y-261.3
X354.775Y-265.3
X354.775Y-269.3
X354.775Y-273.3
X354.775Y-277.3
X354.775Y-281.3
X354.775Y-285.3
X354.775Y-289.3
X354.775Y-293.3
X354.775Y-297.3
X354.775Y-301.3
X354.775Y-305.3
X354.775Y-309.3
X354.775Y-313.3
X354.775Y-317.3
X354.775Y-321.3
X354.775Y-325.3
X354.775Y-329.3
X354.775Y-333.3
X354.775Y-337.3
X354.875Y-121.225
X354.925Y-117.275
X355.025Y-105.25
X355.05Y-101.245
X355.05Y-109.225
X355.05Y-113.225
X355.65Y-337.625
X356.525Y-101.2
X356.525Y-105.2
X356.525Y-109.2
X356.525Y-113.2
X356.525Y-117.2
X356.525Y-121.2
X356.525Y-125.2
X356.525Y-129.2
X356.525Y-133.2
X356.525Y-137.2
X356.525Y-141.2
X356.525Y-145.2
X356.525Y-149.2
X356.525Y-153.2
X356.525Y-157.2
X356.525Y-161.2
X356.525Y-165.2
X356.525Y-169.2
X356.525Y-173.2
X356.525Y-177.2
X356.525Y-181.2
X356.525Y-185.2
X356.525Y-189.2
X356.525Y-193.2
X356.525Y-197.2
X356.525Y-201.2
X356.525Y-205.2
X356.525Y-209.2
X356.525Y-213.2
X356.525Y-217.2
X356.525Y-221.2
X356.525Y-225.225
X356.525Y-229.225
X356.525Y-233.225
X356.525Y-237.225
X356.525Y-241.225
X356.525Y-245.225
X356.525Y-249.225
X356.525Y-253.225
X356.525Y-257.225
X356.525Y-261.225
X356.525Y-265.225
X356.525Y-269.225
X356.525Y-273.225
X356.525Y-277.225
X356.525Y-281.225
X356.525Y-285.225
X356.525Y-289.225
X356.525Y-293.225
X356.525Y-297.225
X356.525Y-301.225
X356.525Y-305.225
X356.525Y-309.225
X356.525Y-313.225
X356.525Y-317.225
X356.525Y-321.225
X356.525Y-325.225
X356.525Y-329.225
X356.525Y-333.225
X358.425Y-96.765
X358.775Y-125.3
X358.775Y-129.3
X358.775Y-133.3
X358.775Y-137.3
X358.775Y-141.3
X358.775Y-145.3
X358.775Y-149.3
X358.775Y-153.3
X358.775Y-157.3
X358.775Y-161.3
X358.775Y-165.3
X358.775Y-169.3
X358.775Y-173.3
X358.775Y-177.3
X358.775Y-181.3
X358.775Y-185.3
X358.775Y-189.3
X358.775Y-193.3
X358.775Y-197.3
X358.775Y-201.3
X358.775Y-205.3
X358.775Y-209.3
X358.775Y-213.3
X358.775Y-217.3
X358.775Y-221.3
X358.775Y-225.3
X358.775Y-229.3
X358.775Y-233.3
X358.775Y-237.3
X358.775Y-241.3
X358.775Y-245.3
X358.775Y-249.3
X358.775Y-253.3
X358.775Y-257.3
X358.775Y-261.3
X358.775Y-265.3
X358.775Y-269.3
X358.775Y-273.3
X358.775Y-277.3
X358.775Y-281.3
X358.775Y-285.3
X358.775Y-289.3
X358.775Y-293.3
X358.775Y-297.3
X358.775Y-301.3
X358.775Y-305.3
X358.775Y-309.3
X358.775Y-313.3
X358.775Y-317.3
X358.775Y-321.3
X358.775Y-325.3
X358.775Y-329.3
X358.775Y-333.3
X358.775Y-337.3
X358.975Y-121.225
X359.025Y-117.175
X359.075Y-109.175
X359.125Y-113.2
X359.15Y-105.196
X359.2Y-101.225
X359.65Y-337.625
X360.525Y-101.2
X360.525Y-105.2
X360.525Y-109.2
X360.525Y-113.2
X360.525Y-117.2
X360.525Y-121.2
X360.525Y-125.2
X360.525Y-129.2
X360.525Y-133.2
X360.525Y-137.2
X360.525Y-141.2
X360.525Y-145.2
X360.525Y-149.2
X360.525Y-153.2
X360.525Y-157.2
X360.525Y-161.2
X360.525Y-165.2
X360.525Y-169.2
X360.525Y-173.2
X360.525Y-177.2
X360.525Y-181.2
X360.525Y-185.2
X360.525Y-189.2
X360.525Y-193.2
X360.525Y-197.2
X360.525Y-201.2
X360.525Y-205.2
X360.525Y-209.2
X360.525Y-213.2
X360.525Y-217.2
X360.525Y-221.2
X360.525Y-225.225
X360.525Y-229.225
X360.525Y-233.225
X360.525Y-237.225
X360.525Y-241.225
X360.525Y-245.225
X360.525Y-249.225
X360.525Y-253.225
X360.525Y-257.225
X360.525Y-261.225
X360.525Y-265.225
X360.525Y-269.225
X360.525Y-273.225
X360.525Y-277.225
X360.525Y-281.225
X360.525Y-285.225
X360.525Y-289.225
X360.525Y-293.225
X360.525Y-297.225
X360.525Y-301.225
X360.525Y-305.225
X360.525Y-309.225
X360.525Y-313.225
X360.525Y-317.225
X360.525Y-321.225
X360.525Y-325.225
X360.525Y-329.225
X360.525Y-333.225
X362.425Y-96.765
X362.775Y-125.3
X362.775Y-129.3
X362.775Y-133.3
X362.775Y-137.3
X362.775Y-141.3
X362.775Y-145.3
X362.775Y-149.3
X362.775Y-153.3
X362.775Y-157.3
X362.775Y-161.3
X362.775Y-165.3
X362.775Y-169.3
X362.775Y-173.3
X362.775Y-177.3
X362.775Y-181.3
X362.775Y-185.3
X362.775Y-189.3
X362.775Y-193.3
X362.775Y-197.3
X362.775Y-201.3
X362.775Y-205.3
X362.775Y-209.3
X362.775Y-213.3
X362.775Y-217.3
X362.775Y-221.3
X362.775Y-225.3
X362.775Y-229.3
X362.775Y-233.3
X362.775Y-237.3
X362.775Y-241.3
X362.775Y-245.3
X362.775Y-249.3
X362.775Y-253.3
X362.775Y-257.3
X362.775Y-261.3
X362.775Y-265.3
X362.775Y-269.3
X362.775Y-273.3
X362.775Y-277.3
X362.775Y-281.3
X362.775Y-285.3
X362.775Y-289.3
X362.775Y-293.3
X362.775Y-297.3
X362.775Y-301.3
X362.775Y-305.3
X362.775Y-309.3
X362.775Y-313.3
X362.775Y-317.3
X362.775Y-321.3
X362.775Y-325.3
X362.775Y-329.3
X362.775Y-333.3
X362.775Y-337.3
X362.9Y-121.2
X363.018Y-105.164
X363.025Y-117.225
X363.05Y-113.225
X363.125Y-101.3
X363.125Y-109.245
X363.65Y-337.625
X364.525Y-101.2
X364.525Y-105.2
X364.525Y-109.2
X364.525Y-113.2
X364.525Y-117.2
X364.525Y-121.2
X364.525Y-125.2
X364.525Y-129.2
X364.525Y-133.2
X364.525Y-137.2
X364.525Y-141.2
X364.525Y-145.2
X364.525Y-149.2
X364.525Y-153.2
X364.525Y-157.2
X364.525Y-161.2
X364.525Y-165.2
X364.525Y-169.2
X364.525Y-173.2
X364.525Y-177.2
X364.525Y-181.2
X364.525Y-185.2
X364.525Y-189.2
X364.525Y-193.2
X364.525Y-197.2
X364.525Y-201.2
X364.525Y-205.2
X364.525Y-209.2
X364.525Y-213.2
X364.525Y-217.2
X364.525Y-221.2
X364.525Y-225.225
X364.525Y-229.225
X364.525Y-233.225
X364.525Y-237.225
X364.525Y-241.225
X364.525Y-245.225
X364.525Y-249.225
X364.525Y-253.225
X364.525Y-257.225
X364.525Y-261.225
X364.525Y-265.225
X364.525Y-269.225
X364.525Y-273.225
X364.525Y-277.225
X364.525Y-281.225
X364.525Y-285.225
X364.525Y-289.225
X364.525Y-293.225
X364.525Y-297.225
X364.525Y-301.225
X364.525Y-305.225
X364.525Y-309.225
X364.525Y-313.225
X364.525Y-317.225
X364.525Y-321.225
X364.525Y-325.225
X364.525Y-329.225
X364.525Y-333.225
X366.425Y-96.765
X366.775Y-125.3
X366.775Y-129.3
X366.775Y-133.3
X366.775Y-137.3
X366.775Y-141.3
X366.775Y-145.3
X366.775Y-149.3
X366.775Y-153.3
X366.775Y-157.3
X366.775Y-161.3
X366.775Y-165.3
X366.775Y-169.3
X366.775Y-173.3
X366.775Y-177.3
X366.775Y-181.3
X366.775Y-185.3
X366.775Y-189.3
X366.775Y-193.3
X366.775Y-197.3
X366.775Y-201.3
X366.775Y-205.3
X366.775Y-209.3
X366.775Y-213.3
X366.775Y-217.3
X366.775Y-221.3
X366.775Y-225.3
X366.775Y-229.3
X366.775Y-233.3
X366.775Y-237.3
X366.775Y-241.3
X366.775Y-245.3
X366.775Y-249.3
X366.775Y-253.3
X366.775Y-257.3
X366.775Y-261.3
X366.775Y-265.3
X366.775Y-269.3
X366.775Y-273.3
X366.775Y-277.3
X366.775Y-281.3
X366.775Y-285.3
X366.775Y-289.3
X366.775Y-293.3
X366.775Y-297.3
X366.775Y-301.3
X366.775Y-305.3
X366.775Y-309.3
X366.775Y-313.3
X366.775Y-317.3
X366.775Y-321.3
X366.775Y-325.3
X366.775Y-329.3
X366.775Y-333.3
X366.775Y-337.3
X366.975Y-117.25
X366.975Y-121.275
X367.0Y-113.275
X367.025Y-109.175
X367.075Y-101.3
X367.1Y-105.2
X367.65Y-337.625
X368.525Y-101.2
X368.525Y-105.2
X368.525Y-109.2
X368.525Y-113.2
X368.525Y-117.2
X368.525Y-121.2
X368.525Y-125.2
X368.525Y-129.2
X368.525Y-133.2
X368.525Y-137.2
X368.525Y-141.2
X368.525Y-145.2
X368.525Y-149.2
X368.525Y-153.2
X368.525Y-157.2
X368.525Y-161.2
X368.525Y-165.2
X368.525Y-169.2
X368.525Y-173.2
X368.525Y-177.2
X368.525Y-181.2
X368.525Y-185.2
X368.525Y-189.2
X368.525Y-193.2
X368.525Y-197.2
X368.525Y-201.2
X368.525Y-205.2
X368.525Y-209.2
X368.525Y-213.2
X368.525Y-217.2
X368.525Y-221.2
X368.525Y-225.225
X368.525Y-229.225
X368.525Y-233.225
X368.525Y-237.225
X368.525Y-241.225
X368.525Y-245.225
X368.525Y-249.225
X368.525Y-253.225
X368.525Y-257.225
X368.525Y-261.225
X368.525Y-265.225
X368.525Y-269.225
X368.525Y-273.225
X368.525Y-277.225
X368.525Y-281.225
X368.525Y-285.225
X368.525Y-289.225
X368.525Y-293.225
X368.525Y-297.225
X368.525Y-301.225
X368.525Y-305.225
X368.525Y-309.225
X368.525Y-313.225
X368.525Y-317.225
X368.525Y-321.225
X368.525Y-325.225
X368.525Y-329.225
X368.525Y-333.225
X370.425Y-96.765
X370.775Y-125.3
X370.775Y-129.3
X370.775Y-133.3
X370.775Y-137.3
X370.775Y-141.3
X370.775Y-145.3
X370.775Y-149.3
X370.775Y-153.3
X370.775Y-157.3
X370.775Y-161.3
X370.775Y-165.3
X370.775Y-169.3
X370.775Y-173.3
X370.775Y-177.3
X370.775Y-181.3
X370.775Y-185.3
X370.775Y-189.3
X370.775Y-193.3
X370.775Y-197.3
X370.775Y-201.3
X370.775Y-205.3
X370.775Y-209.3
X370.775Y-213.3
X370.775Y-217.3
X370.775Y-221.3
X370.775Y-225.3
X370.775Y-229.3
X370.775Y-233.3
X370.775Y-237.3
X370.775Y-241.3
X370.775Y-245.3
X370.775Y-249.3
X370.775Y-253.3
X370.775Y-257.3
X370.775Y-261.3
X370.775Y-265.3
X370.775Y-269.3
X370.775Y-273.3
X370.775Y-277.3
X370.775Y-281.3
X370.775Y-285.3
X370.775Y-289.3
X370.775Y-293.3
X370.775Y-297.3
X370.775Y-301.3
X370.775Y-305.3
X370.775Y-309.3
X370.775Y-313.3
X370.775Y-317.3
X370.775Y-321.3
X370.775Y-325.3
X370.775Y-329.3
X370.775Y-333.3
X370.775Y-337.3
X370.925Y-117.275
X371.0Y-121.15
X371.025Y-105.175
X371.125Y-101.225
X371.125Y-109.175
X371.15Y-113.225
X371.65Y-337.625
X372.525Y-101.2
X372.525Y-105.2
X372.525Y-109.2
X372.525Y-113.2
X372.525Y-117.2
X372.525Y-121.2
X372.525Y-125.2
X372.525Y-129.2
X372.525Y-133.2
X372.525Y-137.2
X372.525Y-141.2
X372.525Y-145.2
X372.525Y-149.2
X372.525Y-153.2
X372.525Y-157.2
X372.525Y-161.2
X372.525Y-165.2
X372.525Y-169.2
X372.525Y-173.2
X372.525Y-177.2
X372.525Y-181.2
X372.525Y-185.2
X372.525Y-189.2
X372.525Y-193.2
X372.525Y-197.2
X372.525Y-201.2
X372.525Y-205.2
X372.525Y-209.2
X372.525Y-213.2
X372.525Y-217.2
X372.525Y-221.2
X372.525Y-225.225
X372.525Y-229.225
X372.525Y-233.225
X372.525Y-237.225
X372.525Y-241.225
X372.525Y-245.225
X372.525Y-249.225
X372.525Y-253.225
X372.525Y-257.225
X372.525Y-261.225
X372.525Y-265.225
X372.525Y-269.225
X372.525Y-273.225
X372.525Y-277.225
X372.525Y-281.225
X372.525Y-285.225
X372.525Y-289.225
X372.525Y-293.225
X372.525Y-297.225
X372.525Y-301.225
X372.525Y-305.225
X372.525Y-309.225
X372.525Y-313.225
X372.525Y-317.225
X372.525Y-321.225
X372.525Y-325.225
X372.525Y-329.225
X372.525Y-333.225
X374.425Y-96.765
X374.775Y-125.3
X374.775Y-129.3
X374.775Y-133.3
X374.775Y-137.3
X374.775Y-141.3
X374.775Y-145.3
X374.775Y-149.3
X374.775Y-153.3
X374.775Y-157.3
X374.775Y-161.3
X374.775Y-165.3
X374.775Y-169.3
X374.775Y-173.3
X374.775Y-177.3
X374.775Y-181.3
X374.775Y-185.3
X374.775Y-189.3
X374.775Y-193.3
X374.775Y-197.3
X374.775Y-201.3
X374.775Y-205.3
X374.775Y-209.3
X374.775Y-213.3
X374.775Y-217.3
X374.775Y-221.3
X374.775Y-225.3
X374.775Y-229.3
X374.775Y-233.3
X374.775Y-237.3
X374.775Y-241.3
X374.775Y-245.3
X374.775Y-249.3
X374.775Y-253.3
X374.775Y-257.3
X374.775Y-261.3
X374.775Y-265.3
X374.775Y-269.3
X374.775Y-273.3
X374.775Y-277.3
X374.775Y-281.3
X374.775Y-285.3
X374.775Y-289.3
X374.775Y-293.3
X374.775Y-297.3
X374.775Y-301.3
X374.775Y-305.3
X374.775Y-309.3
X374.775Y-313.3
X374.775Y-317.3
X374.775Y-321.3
X374.775Y-325.3
X374.775Y-329.3
X374.775Y-333.3
X374.775Y-337.3
X374.85Y-117.275
X374.9Y-121.15
X374.95Y-101.3
X374.95Y-105.175
X375.15Y-113.25
X375.2Y-109.175
X375.65Y-337.625
X376.525Y-101.2
X376.525Y-105.2
X376.525Y-109.2
X376.525Y-113.2
X376.525Y-117.2
X376.525Y-121.2
X376.525Y-125.2
X376.525Y-129.2
X376.525Y-133.2
X376.525Y-137.2
X376.525Y-141.2
X376.525Y-145.2
X376.525Y-149.2
X376.525Y-153.2
X376.525Y-157.2
X376.525Y-161.2
X376.525Y-165.2
X376.525Y-169.2
X376.525Y-173.2
X376.525Y-177.2
X376.525Y-181.2
X376.525Y-185.2
X376.525Y-189.2
X376.525Y-193.2
X376.525Y-197.2
X376.525Y-201.2
X376.525Y-205.2
X376.525Y-209.2
X376.525Y-213.2
X376.525Y-217.2
X376.525Y-221.2
X376.525Y-225.225
X376.525Y-229.225
X376.525Y-233.225
X376.525Y-237.225
X376.525Y-241.225
X376.525Y-245.225
X376.525Y-249.225
X376.525Y-253.225
X376.525Y-257.225
X376.525Y-261.225
X376.525Y-265.225
X376.525Y-269.225
X376.525Y-273.225
X376.525Y-277.225
X376.525Y-281.225
X376.525Y-285.225
X376.525Y-289.225
X376.525Y-293.225
X376.525Y-297.225
X376.525Y-301.225
X376.525Y-305.225
X376.525Y-309.225
X376.525Y-313.225
X376.525Y-317.225
X376.525Y-321.225
X376.525Y-325.225
X376.525Y-329.225
X376.525Y-333.225
X378.425Y-96.765
X378.775Y-125.3
X378.775Y-129.3
X378.775Y-133.3
X378.775Y-137.3
X378.775Y-141.3
X378.775Y-145.3
X378.775Y-149.3
X378.775Y-153.3
X378.775Y-157.3
X378.775Y-161.3
X378.775Y-165.3
X378.775Y-169.3
X378.775Y-173.3
X378.775Y-177.3
X378.775Y-181.3
X378.775Y-185.3
X378.775Y-189.3
X378.775Y-193.3
X378.775Y-197.3
X378.775Y-201.3
X378.775Y-205.3
X378.775Y-209.3
X378.775Y-213.3
X378.775Y-217.3
X378.775Y-221.3
X378.775Y-225.3
X378.775Y-229.3
X378.775Y-233.3
X378.775Y-237.3
X378.775Y-241.3
X378.775Y-245.3
X378.775Y-249.3
X378.775Y-253.3
X378.775Y-257.3
X378.775Y-261.3
X378.775Y-265.3
X378.775Y-269.3
X378.775Y-273.3
X378.775Y-277.3
X378.775Y-281.3
X378.775Y-285.3
X378.775Y-289.3
X378.775Y-293.3
X378.775Y-297.3
X378.775Y-301.3
X378.775Y-305.3
X378.775Y-309.3
X378.775Y-313.3
X378.775Y-317.3
X378.775Y-321.3
X378.775Y-325.3
X378.775Y-329.3
X378.775Y-333.3
X378.775Y-337.3
X378.875Y-121.125
X378.9Y-109.175
X378.975Y-117.2
X379.075Y-105.25
X379.075Y-113.15
X379.1Y-101.25
X379.65Y-337.625
X380.525Y-101.2
X380.525Y-105.2
X380.525Y-109.2
X380.525Y-113.2
X380.525Y-117.2
X380.525Y-121.2
X380.525Y-125.2
X380.525Y-129.2
X380.525Y-133.2
X380.525Y-137.2
X380.525Y-141.2
X380.525Y-145.2
X380.525Y-149.2
X380.525Y-153.2
X380.525Y-157.2
X380.525Y-161.2
X380.525Y-165.2
X380.525Y-169.2
X380.525Y-173.2
X380.525Y-177.2
X380.525Y-181.2
X380.525Y-185.2
X380.525Y-189.2
X380.525Y-193.2
X380.525Y-197.2
X380.525Y-201.2
X380.525Y-205.2
X380.525Y-209.2
X380.525Y-213.2
X380.525Y-217.2
X380.525Y-221.2
X380.525Y-225.225
X380.525Y-229.225
X380.525Y-233.225
X380.525Y-237.225
X380.525Y-241.225
X380.525Y-245.225
X380.525Y-249.225
X380.525Y-253.225
X380.525Y-257.225
X380.525Y-261.225
X380.525Y-265.225
X380.525Y-269.225
X380.525Y-273.225
X380.525Y-277.225
X380.525Y-281.225
X380.525Y-285.225
X380.525Y-289.225
X380.525Y-293.225
X380.525Y-297.225
X380.525Y-301.225
X380.525Y-305.225
X380.525Y-309.225
X380.525Y-313.225
X380.525Y-317.225
X380.525Y-321.225
X380.525Y-325.225
X380.525Y-329.225
X380.525Y-333.225
X382.425Y-96.765
X382.775Y-125.3
X382.775Y-129.3
X382.775Y-133.3
X382.775Y-137.3
X382.775Y-141.3
X382.775Y-145.3
X382.775Y-149.3
X382.775Y-153.3
X382.775Y-157.3
X382.775Y-161.3
X382.775Y-165.3
X382.775Y-169.3
X382.775Y-173.3
X382.775Y-177.3
X382.775Y-181.3
X382.775Y-185.3
X382.775Y-189.3
X382.775Y-193.3
X382.775Y-197.3
X382.775Y-201.3
X382.775Y-205.3
X382.775Y-209.3
X382.775Y-213.3
X382.775Y-217.3
X382.775Y-221.3
X382.775Y-225.3
X382.775Y-229.3
X382.775Y-233.3
X382.775Y-237.3
X382.775Y-241.3
X382.775Y-245.3
X382.775Y-249.3
X382.775Y-253.3
X382.775Y-257.3
X382.775Y-261.3
X382.775Y-265.3
X382.775Y-269.3
X382.775Y-273.3
X382.775Y-277.3
X382.775Y-281.3
X382.775Y-285.3
X382.775Y-289.3
X382.775Y-293.3
X382.775Y-297.3
X382.775Y-301.3
X382.775Y-305.3
X382.775Y-309.3
X382.775Y-313.3
X382.775Y-317.3
X382.775Y-321.3
X382.775Y-325.3
X382.775Y-329.3
X382.775Y-333.3
X382.775Y-337.3
X382.925Y-117.245
X383.0Y-121.2
X383.025Y-105.25
X383.025Y-109.225
X383.05Y-113.2
X383.125Y-101.275
X383.65Y-337.625
X384.525Y-101.2
X384.525Y-105.2
X384.525Y-109.2
X384.525Y-113.2
X384.525Y-117.2
X384.525Y-121.2
X384.525Y-125.2
X384.525Y-129.2
X384.525Y-133.2
X384.525Y-137.2
X384.525Y-141.2
X384.525Y-145.2
X384.525Y-149.2
X384.525Y-153.2
X384.525Y-157.2
X384.525Y-161.2
X384.525Y-165.2
X384.525Y-169.2
X384.525Y-173.2
X384.525Y-177.2
X384.525Y-181.2
X384.525Y-185.2
X384.525Y-189.2
X384.525Y-193.2
X384.525Y-197.2
X384.525Y-201.2
X384.525Y-205.2
X384.525Y-209.2
X384.525Y-213.2
X384.525Y-217.2
X384.525Y-221.2
X384.525Y-225.225
X384.525Y-229.225
X384.525Y-233.225
X384.525Y-237.225
X384.525Y-241.225
X384.525Y-245.225
X384.525Y-249.225
X384.525Y-253.225
X384.525Y-257.225
X384.525Y-261.225
X384.525Y-265.225
X384.525Y-269.225
X384.525Y-273.225
X384.525Y-277.225
X384.525Y-281.225
X384.525Y-285.225
X384.525Y-289.225
X384.525Y-293.225
X384.525Y-297.225
X384.525Y-301.225
X384.525Y-305.225
X384.525Y-309.225
X384.525Y-313.225
X384.525Y-317.225
X384.525Y-321.225
X384.525Y-325.225
X384.525Y-329.225
X384.525Y-333.225
X386.425Y-96.765
X386.775Y-125.3
X386.775Y-129.3
X386.775Y-133.3
X386.775Y-137.3
X386.775Y-141.3
X386.775Y-145.3
X386.775Y-149.3
X386.775Y-153.3
X386.775Y-157.3
X386.775Y-161.3
X386.775Y-165.3
X386.775Y-169.3
X386.775Y-173.3
X386.775Y-177.3
X386.775Y-181.3
X386.775Y-185.3
X386.775Y-189.3
X386.775Y-193.3
X386.775Y-197.3
X386.775Y-201.3
X386.775Y-205.3
X386.775Y-209.3
X386.775Y-213.3
X386.775Y-217.3
X386.775Y-221.3
X386.775Y-225.3
X386.775Y-229.3
X386.775Y-233.3
X386.775Y-237.3
X386.775Y-241.3
X386.775Y-245.3
X386.775Y-249.3
X386.775Y-253.3
X386.775Y-257.3
X386.775Y-261.3
X386.775Y-265.3
X386.775Y-269.3
X386.775Y-273.3
X386.775Y-277.3
X386.775Y-281.3
X386.775Y-285.3
X386.775Y-289.3
X386.775Y-293.3
X386.775Y-297.3
X386.775Y-301.3
X386.775Y-305.3
X386.775Y-309.3
X386.775Y-313.3
X386.775Y-317.3
X386.775Y-321.3
X386.775Y-325.3
X386.775Y-329.3
X386.775Y-333.3
X386.775Y-337.3
X386.9Y-117.245
X386.9Y-121.2
X387.075Y-105.225
X387.075Y-109.2
X387.15Y-101.277
X387.225Y-113.25
X387.65Y-337.625
X388.525Y-101.2
X388.525Y-105.2
X388.525Y-109.2
X388.525Y-113.2
X388.525Y-117.2
X388.525Y-121.2
X388.525Y-125.2
X388.525Y-129.2
X388.525Y-133.2
X388.525Y-137.2
X388.525Y-141.2
X388.525Y-145.2
X388.525Y-149.2
X388.525Y-153.2
X388.525Y-157.2
X388.525Y-161.2
X388.525Y-165.2
X388.525Y-169.2
X388.525Y-173.2
X388.525Y-177.2
X388.525Y-181.2
X388.525Y-185.2
X388.525Y-189.2
X388.525Y-193.2
X388.525Y-197.2
X388.525Y-201.2
X388.525Y-205.2
X388.525Y-209.2
X388.525Y-213.2
X388.525Y-217.2
X388.525Y-221.2
X388.525Y-225.225
X388.525Y-229.225
X388.525Y-233.225
X388.525Y-237.225
X388.525Y-241.225
X388.525Y-245.225
X388.525Y-249.225
X388.525Y-253.225
X388.525Y-257.225
X388.525Y-261.225
X388.525Y-265.225
X388.525Y-269.225
X388.525Y-273.225
X388.525Y-277.225
X388.525Y-281.225
X388.525Y-285.225
X388.525Y-289.225
X388.525Y-293.225
X388.525Y-297.225
X388.525Y-301.225
X388.525Y-305.225
X388.525Y-309.225
X388.525Y-313.225
X388.525Y-317.225
X388.525Y-321.225
X388.525Y-325.225
X388.525Y-329.225
X388.525Y-333.225
X390.425Y-96.765
X390.775Y-125.3
X390.775Y-129.3
X390.775Y-133.3
X390.775Y-137.3
X390.775Y-141.3
X390.775Y-145.3
X390.775Y-149.3
X390.775Y-153.3
X390.775Y-157.3
X390.775Y-161.3
X390.775Y-165.3
X390.775Y-169.3
X390.775Y-173.3
X390.775Y-177.3
X390.775Y-181.3
X390.775Y-185.3
X390.775Y-189.3
X390.775Y-193.3
X390.775Y-197.3
X390.775Y-201.3
X390.775Y-205.3
X390.775Y-209.3
X390.775Y-213.3
X390.775Y-217.3
X390.775Y-221.3
X390.775Y-225.3
X390.775Y-229.3
X390.775Y-233.3
X390.775Y-237.3
X390.775Y-241.3
X390.775Y-245.3
X390.775Y-249.3
X390.775Y-253.3
X390.775Y-257.3
X390.775Y-261.3
X390.775Y-265.3
X390.775Y-269.3
X390.775Y-273.3
X390.775Y-277.3
X390.775Y-281.3
X390.775Y-285.3
X390.775Y-289.3
X390.775Y-293.3
X390.775Y-297.3
X390.775Y-301.3
X390.775Y-305.3
X390.775Y-309.3
X390.775Y-313.3
X390.775Y-317.3
X390.775Y-321.3
X390.775Y-325.3
X390.775Y-329.3
X390.775Y-333.3
X390.775Y-337.3
X390.9Y-121.2
X391.0Y-117.2
X391.025Y-109.225
X391.1Y-105.175
X391.15Y-101.225
X391.225Y-113.2
X391.65Y-337.625
X392.525Y-101.2
X392.525Y-105.2
X392.525Y-109.2
X392.525Y-113.2
X392.525Y-117.2
X392.525Y-121.2
X392.525Y-125.2
X392.525Y-129.2
X392.525Y-133.2
X392.525Y-137.2
X392.525Y-141.2
X392.525Y-145.2
X392.525Y-149.2
X392.525Y-153.2
X392.525Y-157.2
X392.525Y-161.2
X392.525Y-165.2
X392.525Y-169.2
X392.525Y-173.2
X392.525Y-177.2
X392.525Y-181.2
X392.525Y-185.2
X392.525Y-189.2
X392.525Y-193.2
X392.525Y-197.2
X392.525Y-201.2
X392.525Y-205.2
X392.525Y-209.2
X392.525Y-213.2
X392.525Y-217.2
X392.525Y-221.2
X392.525Y-225.225
X392.525Y-229.225
X392.525Y-233.225
X392.525Y-237.225
X392.525Y-241.225
X392.525Y-245.225
X392.525Y-249.225
X392.525Y-253.225
X392.525Y-257.225
X392.525Y-261.225
X392.525Y-265.225
X392.525Y-269.225
X392.525Y-273.225
X392.525Y-277.225
X392.525Y-281.225
X392.525Y-285.225
X392.525Y-289.225
X392.525Y-293.225
X392.525Y-297.225
X392.525Y-301.225
X392.525Y-305.225
X392.525Y-309.225
X392.525Y-313.225
X392.525Y-317.225
X392.525Y-321.225
X392.525Y-325.225
X392.525Y-329.225
X392.525Y-333.225
X394.425Y-96.765
X394.775Y-125.3
X394.775Y-129.3
X394.775Y-133.3
X394.775Y-137.3
X394.775Y-141.3
X394.775Y-145.3
X394.775Y-149.3
X394.775Y-153.3
X394.775Y-157.3
X394.775Y-161.3
X394.775Y-165.3
X394.775Y-169.3
X394.775Y-173.3
X394.775Y-177.3
X394.775Y-181.3
X394.775Y-185.3
X394.775Y-189.3
X394.775Y-193.3
X394.775Y-197.3
X394.775Y-201.3
X394.775Y-205.3
X394.775Y-209.3
X394.775Y-213.3
X394.775Y-217.3
X394.775Y-221.3
X394.775Y-225.3
X394.775Y-229.3
X394.775Y-233.3
X394.775Y-237.3
X394.775Y-241.3
X394.775Y-245.3
X394.775Y-249.3
X394.775Y-253.3
X394.775Y-257.3
X394.775Y-261.3
X394.775Y-265.3
X394.775Y-269.3
X394.775Y-273.3
X394.775Y-277.3
X394.775Y-281.3
X394.775Y-285.3
X394.775Y-289.3
X394.775Y-293.3
X394.775Y-297.3
X394.775Y-301.3
X394.775Y-305.3
X394.775Y-309.3
X394.775Y-313.3
X394.775Y-317.3
X394.775Y-321.3
X394.775Y-325.3
X394.775Y-329.3
X394.775Y-333.3
X394.775Y-337.3
X394.925Y-109.225
X394.95Y-121.25
X394.975Y-105.15
X394.975Y-117.1
X395.15Y-113.2
X395.2Y-101.214
X395.65Y-337.625
X396.525Y-101.2
X396.525Y-105.2
X396.525Y-109.2
X396.525Y-113.2
X396.525Y-117.2
X396.525Y-121.2
X396.525Y-125.2
X396.525Y-129.2
X396.525Y-133.2
X396.525Y-137.2
X396.525Y-141.2
X396.525Y-145.2
X396.525Y-149.2
X396.525Y-153.2
X396.525Y-157.2
X396.525Y-161.2
X396.525Y-165.2
X396.525Y-169.2
X396.525Y-173.2
X396.525Y-177.2
X396.525Y-181.2
X396.525Y-185.2
X396.525Y-189.2
X396.525Y-193.2
X396.525Y-197.2
X396.525Y-201.2
X396.525Y-205.2
X396.525Y-209.2
X396.525Y-213.2
X396.525Y-217.2
X396.525Y-221.2
X396.525Y-225.225
X396.525Y-229.225
X396.525Y-233.225
X396.525Y-237.225
X396.525Y-241.225
X396.525Y-245.225
X396.525Y-249.225
X396.525Y-253.225
X396.525Y-257.225
X396.525Y-261.225
X396.525Y-265.225
X396.525Y-269.225
X396.525Y-273.225
X396.525Y-277.225
X396.525Y-281.225
X396.525Y-285.225
X396.525Y-289.225
X396.525Y-293.225
X396.525Y-297.225
X396.525Y-301.225
X396.525Y-305.225
X396.525Y-309.225
X396.525Y-313.225
X396.525Y-317.225
X396.525Y-321.225
X396.525Y-325.225
X396.525Y-329.225
X396.525Y-333.225
X398.425Y-96.765
X398.775Y-125.3
X398.775Y-129.3
X398.775Y-133.3
X398.775Y-137.3
X398.775Y-141.3
X398.775Y-145.3
X398.775Y-149.3
X398.775Y-153.3
X398.775Y-157.3
X398.775Y-161.3
X398.775Y-165.3
X398.775Y-169.3
X398.775Y-173.3
X398.775Y-177.3
X398.775Y-181.3
X398.775Y-185.3
X398.775Y-189.3
X398.775Y-193.3
X398.775Y-197.3
X398.775Y-201.3
X398.775Y-205.3
X398.775Y-209.3
X398.775Y-213.3
X398.775Y-217.3
X398.775Y-221.3
X398.775Y-225.3
X398.775Y-229.3
X398.775Y-233.3
X398.775Y-237.3
X398.775Y-241.3
X398.775Y-245.3
X398.775Y-249.3
X398.775Y-253.3
X398.775Y-257.3
X398.775Y-261.3
X398.775Y-265.3
X398.775Y-269.3
X398.775Y-273.3
X398.775Y-277.3
X398.775Y-281.3
X398.775Y-285.3
X398.775Y-289.3
X398.775Y-293.3
X398.775Y-297.3
X398.775Y-301.3
X398.775Y-305.3
X398.775Y-309.3
X398.775Y-313.3
X398.775Y-317.3
X398.775Y-321.3
X398.775Y-325.3
X398.775Y-329.3
X398.775Y-333.3
X398.775Y-337.3
X398.925Y-121.2
X399.0Y-109.15
X399.025Y-117.2
X399.1Y-105.225
X399.1Y-113.225
X399.125Y-101.183
X399.65Y-337.625
X400.525Y-101.2
X400.525Y-105.2
X400.525Y-109.2
X400.525Y-113.2
X400.525Y-117.2
X400.525Y-121.2
X400.525Y-125.2
X400.525Y-129.2
X400.525Y-133.2
X400.525Y-137.2
X400.525Y-141.2
X400.525Y-145.2
X400.525Y-149.2
X400.525Y-153.2
X400.525Y-157.2
X400.525Y-161.2
X400.525Y-165.2
X400.525Y-169.2
X400.525Y-173.2
X400.525Y-177.2
X400.525Y-181.2
X400.525Y-185.2
X400.525Y-189.2
X400.525Y-193.2
X400.525Y-197.2
X400.525Y-201.2
X400.525Y-205.2
X400.525Y-209.2
X400.525Y-213.2
X400.525Y-217.2
X400.525Y-221.2
X400.525Y-225.225
X400.525Y-229.225
X400.525Y-233.225
X400.525Y-237.225
X400.525Y-241.225
X400.525Y-245.225
X400.525Y-249.225
X400.525Y-253.225
X400.525Y-257.225
X400.525Y-261.225
X400.525Y-265.225
X400.525Y-269.225
X400.525Y-273.225
X400.525Y-277.225
X400.525Y-281.225
X400.525Y-285.225
X400.525Y-289.225
X400.525Y-293.225
X400.525Y-297.225
X400.525Y-301.225
X400.525Y-305.225
X400.525Y-309.225
X400.525Y-313.225
X400.525Y-317.225
X400.525Y-321.225
X400.525Y-325.225
X400.525Y-329.225
X400.525Y-333.225
X402.425Y-96.765
X402.775Y-125.3
X402.775Y-129.3
X402.775Y-133.3
X402.775Y-137.3
X402.775Y-141.3
X402.775Y-145.3
X402.775Y-149.3
X402.775Y-153.3
X402.775Y-157.3
X402.775Y-161.3
X402.775Y-165.3
X402.775Y-169.3
X402.775Y-173.3
X402.775Y-177.3
X402.775Y-181.3
X402.775Y-185.3
X402.775Y-189.3
X402.775Y-193.3
X402.775Y-197.3
X402.775Y-201.3
X402.775Y-205.3
X402.775Y-209.3
X402.775Y-213.3
X402.775Y-217.3
X402.775Y-221.3
X402.775Y-225.3
X402.775Y-229.3
X402.775Y-233.3
X402.775Y-237.3
X402.775Y-241.3
X402.775Y-245.3
X402.775Y-249.3
X402.775Y-253.3
X402.775Y-257.3
X402.775Y-261.3
X402.775Y-265.3
X402.775Y-269.3
X402.775Y-273.3
X402.775Y-277.3
X402.775Y-281.3
X402.775Y-285.3
X402.775Y-289.3
X402.775Y-293.3
X402.775Y-297.3
X402.775Y-301.3
X402.775Y-305.3
X402.775Y-309.3
X402.775Y-313.3
X402.775Y-317.3
X402.775Y-321.3
X402.775Y-325.3
X402.775Y-329.3
X402.775Y-333.3
X402.775Y-337.3
X402.875Y-121.225
X402.95Y-117.15
X402.975Y-101.245
X402.975Y-109.2
X403.025Y-105.175
X403.175Y-113.2
X403.65Y-337.625
X404.525Y-101.2
X404.525Y-105.2
X404.525Y-109.2
X404.525Y-113.2
X404.525Y-117.2
X404.525Y-121.2
X404.525Y-125.2
X404.525Y-129.2
X404.525Y-133.2
X404.525Y-137.2
X404.525Y-141.2
X404.525Y-145.2
X404.525Y-149.2
X404.525Y-153.2
X404.525Y-157.2
X404.525Y-161.2
X404.525Y-165.2
X404.525Y-169.2
X404.525Y-173.2
X404.525Y-177.2
X404.525Y-181.2
X404.525Y-185.2
X404.525Y-189.2
X404.525Y-193.2
X404.525Y-197.2
X404.525Y-201.2
X404.525Y-205.2
X404.525Y-209.2
X404.525Y-213.2
X404.525Y-217.2
X404.525Y-221.2
X404.525Y-225.225
X404.525Y-229.225
X404.525Y-233.225
X404.525Y-237.225
X404.525Y-241.225
X404.525Y-245.225
X404.525Y-249.225
X404.525Y-253.225
X404.525Y-257.225
X404.525Y-261.225
X404.525Y-265.225
X404.525Y-269.225
X404.525Y-273.225
X404.525Y-277.225
X404.525Y-281.225
X404.525Y-285.225
X404.525Y-289.225
X404.525Y-293.225
X404.525Y-297.225
X404.525Y-301.225
X404.525Y-305.225
X404.525Y-309.225
X404.525Y-313.225
X404.525Y-317.225
X404.525Y-321.225
X404.525Y-325.225
X404.525Y-329.225
X404.525Y-333.225
X406.425Y-96.765
X406.775Y-125.3
X406.775Y-129.3
X406.775Y-133.3
X406.775Y-137.3
X406.775Y-141.3
X406.775Y-145.3
X406.775Y-149.3
X406.775Y-153.3
X406.775Y-157.3
X406.775Y-161.3
X406.775Y-165.3
X406.775Y-169.3
X406.775Y-173.3
X406.775Y-177.3
X406.775Y-181.3
X406.775Y-185.3
X406.775Y-189.3
X406.775Y-193.3
X406.775Y-197.3
X406.775Y-201.3
X406.775Y-205.3
X406.775Y-209.3
X406.775Y-213.3
X406.775Y-217.3
X406.775Y-221.3
X406.775Y-225.3
X406.775Y-229.3
X406.775Y-233.3
X406.775Y-237.3
X406.775Y-241.3
X406.775Y-245.3
X406.775Y-249.3
X406.775Y-253.3
X406.775Y-257.3
X406.775Y-261.3
X406.775Y-265.3
X406.775Y-269.3
X406.775Y-273.3
X406.775Y-277.3
X406.775Y-281.3
X406.775Y-285.3
X406.775Y-289.3
X406.775Y-293.3
X406.775Y-297.3
X406.775Y-301.3
X406.775Y-305.3
X406.775Y-309.3
X406.775Y-313.3
X406.775Y-317.3
X406.775Y-321.3
X406.775Y-325.3
X406.775Y-329.3
X406.775Y-333.3
X406.775Y-337.3
X406.875Y-121.225
X407.0Y-117.245
X407.025Y-113.2
X407.1Y-109.3
X407.175Y-101.3
X407.2Y-105.28
X407.65Y-337.625
X408.525Y-101.2
X408.525Y-105.2
X408.525Y-109.2
X408.525Y-113.2
X408.525Y-117.2
X408.525Y-121.2
X408.525Y-125.2
X408.525Y-129.2
X408.525Y-133.2
X408.525Y-137.2
X408.525Y-141.2
X408.525Y-145.2
X408.525Y-149.2
X408.525Y-153.2
X408.525Y-157.2
X408.525Y-161.2
X408.525Y-165.2
X408.525Y-169.2
X408.525Y-173.2
X408.525Y-177.2
X408.525Y-181.2
X408.525Y-185.2
X408.525Y-189.2
X408.525Y-193.2
X408.525Y-197.2
X408.525Y-201.2
X408.525Y-205.2
X408.525Y-209.2
X408.525Y-213.2
X408.525Y-217.2
X408.525Y-221.2
X408.525Y-225.225
X408.525Y-229.225
X408.525Y-233.225
X408.525Y-237.225
X408.525Y-241.225
X408.525Y-245.225
X408.525Y-249.225
X408.525Y-253.225
X408.525Y-257.225
X408.525Y-261.225
X408.525Y-265.225
X408.525Y-269.225
X408.525Y-273.225
X408.525Y-277.225
X408.525Y-281.225
X408.525Y-285.225
X408.525Y-289.225
X408.525Y-293.225
X408.525Y-297.225
X408.525Y-301.225
X408.525Y-305.225
X408.525Y-309.225
X408.525Y-313.225
X408.525Y-317.225
X408.525Y-321.225
X408.525Y-325.225
X408.525Y-329.225
X408.525Y-333.225
X410.425Y-96.765
X410.775Y-125.3
X410.775Y-129.3
X410.775Y-133.3
X410.775Y-137.3
X410.775Y-141.3
X410.775Y-145.3
X410.775Y-149.3
X410.775Y-153.3
X410.775Y-157.3
X410.775Y-161.3
X410.775Y-165.3
X410.775Y-169.3
X410.775Y-173.3
X410.775Y-177.3
X410.775Y-181.3
X410.775Y-185.3
X410.775Y-189.3
X410.775Y-193.3
X410.775Y-197.3
X410.775Y-201.3
X410.775Y-205.3
X410.775Y-209.3
X410.775Y-213.3
X410.775Y-217.3
X410.775Y-221.3
X410.775Y-225.3
X410.775Y-229.3
X410.775Y-233.3
X410.775Y-237.3
X410.775Y-241.3
X410.775Y-245.3
X410.775Y-249.3
X410.775Y-253.3
X410.775Y-257.3
X410.775Y-261.3
X410.775Y-265.3
X410.775Y-269.3
X410.775Y-273.3
X410.775Y-277.3
X410.775Y-281.3
X410.775Y-285.3
X410.775Y-289.3
X410.775Y-293.3
X410.775Y-297.3
X410.775Y-301.3
X410.775Y-305.3
X410.775Y-309.3
X410.775Y-313.3
X410.775Y-317.3
X410.775Y-321.3
X410.775Y-325.3
X410.775Y-329.3
X410.775Y-333.3
X410.775Y-337.3
X410.925Y-121.2
X410.975Y-105.275
X410.975Y-113.2
X411.075Y-109.325
X411.081Y-117.15
X411.125Y-101.225
X411.65Y-337.625
X412.525Y-101.2
X412.525Y-105.2
X412.525Y-109.2
X412.525Y-113.2
X412.525Y-117.2
X412.525Y-121.2
X412.525Y-125.2
X412.525Y-129.2
X412.525Y-133.2
X412.525Y-137.2
X412.525Y-141.2
X412.525Y-145.2
X412.525Y-149.2
X412.525Y-153.2
X412.525Y-157.2
X412.525Y-161.2
X412.525Y-165.2
X412.525Y-169.2
X412.525Y-173.2
X412.525Y-177.2
X412.525Y-181.2
X412.525Y-185.2
X412.525Y-189.2
X412.525Y-193.2
X412.525Y-197.2
X412.525Y-201.2
X412.525Y-205.2
X412.525Y-209.2
X412.525Y-213.2
X412.525Y-217.2
X412.525Y-221.2
X412.525Y-225.225
X412.525Y-229.225
X412.525Y-233.225
X412.525Y-237.225
X412.525Y-241.225
X412.525Y-245.225
X412.525Y-249.225
X412.525Y-253.225
X412.525Y-257.225
X412.525Y-261.225
X412.525Y-265.225
X412.525Y-269.225
X412.525Y-273.225
X412.525Y-277.225
X412.525Y-281.225
X412.525Y-285.225
X412.525Y-289.225
X412.525Y-293.225
X412.525Y-297.225
X412.525Y-301.225
X412.525Y-305.225
X412.525Y-309.225
X412.525Y-313.225
X412.525Y-317.225
X412.525Y-321.225
X412.525Y-325.225
X412.525Y-329.225
X412.525Y-333.225
X414.425Y-96.765
X414.775Y-125.3
X414.775Y-129.3
X414.775Y-133.3
X414.775Y-137.3
X414.775Y-141.3
X414.775Y-145.3
X414.775Y-149.3
X414.775Y-153.3
X414.775Y-157.3
X414.775Y-161.3
X414.775Y-165.3
X414.775Y-169.3
X414.775Y-173.3
X414.775Y-177.3
X414.775Y-181.3
X414.775Y-185.3
X414.775Y-189.3
X414.775Y-193.3
X414.775Y-197.3
X414.775Y-201.3
X414.775Y-205.3
X414.775Y-209.3
X414.775Y-213.3
X414.775Y-217.3
X414.775Y-221.3
X414.775Y-225.3
X414.775Y-229.3
X414.775Y-233.3
X414.775Y-237.3
X414.775Y-241.3
X414.775Y-245.3
X414.775Y-249.3
X414.775Y-253.3
X414.775Y-257.3
X414.775Y-261.3
X414.775Y-265.3
X414.775Y-269.3
X414.775Y-273.3
X414.775Y-277.3
X414.775Y-281.3
X414.775Y-285.3
X414.775Y-289.3
X414.775Y-293.3
X414.775Y-297.3
X414.775Y-301.3
X414.775Y-305.3
X414.775Y-309.3
X414.775Y-313.3
X414.775Y-317.3
X414.775Y-321.3
X414.775Y-325.3
X414.775Y-329.3
X414.775Y-333.3
X414.775Y-337.3
X414.95Y-117.275
X414.975Y-105.275
X414.975Y-121.1
X415.1Y-113.2
X415.125Y-109.266
X415.225Y-101.245
X415.65Y-337.625
X416.525Y-101.2
X416.525Y-105.2
X416.525Y-109.2
X416.525Y-113.2
X416.525Y-117.2
X416.525Y-121.2
X416.525Y-125.2
X416.525Y-129.2
X416.525Y-133.2
X416.525Y-137.2
X416.525Y-141.2
X416.525Y-145.2
X416.525Y-149.2
X416.525Y-153.2
X416.525Y-157.2
X416.525Y-161.2
X416.525Y-165.2
X416.525Y-169.2
X416.525Y-173.2
X416.525Y-177.2
X416.525Y-181.2
X416.525Y-185.2
X416.525Y-189.2
X416.525Y-193.2
X416.525Y-197.2
X416.525Y-201.2
X416.525Y-205.2
X416.525Y-209.2
X416.525Y-213.2
X416.525Y-217.2
X416.525Y-221.2
X416.525Y-225.225
X416.525Y-229.225
X416.525Y-233.225
X416.525Y-237.225
X416.525Y-241.225
X416.525Y-245.225
X416.525Y-249.225
X416.525Y-253.225
X416.525Y-257.225
X416.525Y-261.225
X416.525Y-265.225
X416.525Y-269.225
X416.525Y-273.225
X416.525Y-277.225
X416.525Y-281.225
X416.525Y-285.225
X416.525Y-289.225
X416.525Y-293.225
X416.525Y-297.225
X416.525Y-301.225
X416.525Y-305.225
X416.525Y-309.225
X416.525Y-313.225
X416.525Y-317.225
X416.525Y-321.225
X416.525Y-325.225
X416.525Y-329.225
X416.525Y-333.225
X418.425Y-96.765
X418.775Y-125.3
X418.775Y-129.3
X418.775Y-133.3
X418.775Y-137.3
X418.775Y-141.3
X418.775Y-145.3
X418.775Y-149.3
X418.775Y-153.3
X418.775Y-157.3
X418.775Y-161.3
X418.775Y-165.3
X418.775Y-169.3
X418.775Y-173.3
X418.775Y-177.3
X418.775Y-181.3
X418.775Y-185.3
X418.775Y-189.3
X418.775Y-193.3
X418.775Y-197.3
X418.775Y-201.3
X418.775Y-205.3
X418.775Y-209.3
X418.775Y-213.3
X418.775Y-217.3
X418.775Y-221.3
X418.775Y-225.3
X418.775Y-229.3
X418.775Y-233.3
X418.775Y-237.3
X418.775Y-241.3
X418.775Y-245.3
X418.775Y-249.3
X418.775Y-253.3
X418.775Y-257.3
X418.775Y-261.3
X418.775Y-265.3
X418.775Y-269.3
X418.775Y-273.3
X418.775Y-277.3
X418.775Y-281.3
X418.775Y-285.3
X418.775Y-289.3
X418.775Y-293.3
X418.775Y-297.3
X418.775Y-301.3
X418.775Y-305.3
X418.775Y-309.3
X418.775Y-313.3
X418.775Y-317.3
X418.775Y-321.3
X418.775Y-325.3
X418.775Y-329.3
X418.775Y-333.3
X418.775Y-337.3
X418.95Y-109.275
X418.95Y-117.245
X419.0Y-101.225
X419.025Y-105.175
X419.025Y-121.0
X419.075Y-113.2
X419.65Y-337.625
X420.525Y-101.2
X420.525Y-105.2
X420.525Y-109.2
X420.525Y-113.2
X420.525Y-117.2
X420.525Y-121.2
X420.525Y-125.2
X420.525Y-129.2
X420.525Y-133.2
X420.525Y-137.2
X420.525Y-141.2
X420.525Y-145.2
X420.525Y-149.2
X420.525Y-153.2
X420.525Y-157.2
X420.525Y-161.2
X420.525Y-165.2
X420.525Y-169.2
X420.525Y-173.2
X420.525Y-177.2
X420.525Y-181.2
X420.525Y-185.2
X420.525Y-189.2
X420.525Y-193.2
X420.525Y-197.2
X420.525Y-201.2
X420.525Y-205.2
X420.525Y-209.2
X420.525Y-213.2
X420.525Y-217.2
X420.525Y-221.2
X420.525Y-225.225
X420.525Y-229.225
X420.525Y-233.225
X420.525Y-237.225
X420.525Y-241.225
X420.525Y-245.225
X420.525Y-249.225
X420.525Y-253.225
X420.525Y-257.225
X420.525Y-261.225
X420.525Y-265.225
X420.525Y-269.225
X420.525Y-273.225
X420.525Y-277.225
X420.525Y-281.225
X420.525Y-285.225
X420.525Y-289.225
X420.525Y-293.225
X420.525Y-297.225
X420.525Y-301.225
X420.525Y-305.225
X420.525Y-309.225
X420.525Y-313.225
X420.525Y-317.225
X420.525Y-321.225
X420.525Y-325.225
X420.525Y-329.225
X420.525Y-333.225
X422.425Y-96.765
X422.775Y-125.3
X422.775Y-129.3
X422.775Y-133.3
X422.775Y-137.3
X422.775Y-141.3
X422.775Y-145.3
X422.775Y-149.3
X422.775Y-153.3
X422.775Y-157.3
X422.775Y-161.3
X422.775Y-165.3
X422.775Y-169.3
X422.775Y-173.3
X422.775Y-177.3
X422.775Y-181.3
X422.775Y-185.3
X422.775Y-189.3
X422.775Y-193.3
X422.775Y-197.3
X422.775Y-201.3
X422.775Y-205.3
X422.775Y-209.3
X422.775Y-213.3
X422.775Y-217.3
X422.775Y-221.3
X422.775Y-225.3
X422.775Y-229.3
X422.775Y-233.3
X422.775Y-237.3
X422.775Y-241.3
X422.775Y-245.3
X422.775Y-249.3
X422.775Y-253.3
X422.775Y-257.3
X422.775Y-261.3
X422.775Y-265.3
X422.775Y-269.3
X422.775Y-273.3
X422.775Y-277.3
X422.775Y-281.3
X422.775Y-285.3
X422.775Y-289.3
X422.775Y-293.3
X422.775Y-297.3
X422.775Y-301.3
X422.775Y-305.3
X422.775Y-309.3
X422.775Y-313.3
X422.775Y-317.3
X422.775Y-321.3
X422.775Y-325.3
X422.775Y-329.3
X422.775Y-333.3
X422.775Y-337.3
X422.925Y-101.225
X422.95Y-109.3
X422.95Y-113.25
X422.95Y-117.245
X422.975Y-105.225
X423.0Y-121.025
X423.65Y-337.625
X424.525Y-101.2
X424.525Y-105.2
X424.525Y-109.2
X424.525Y-113.2
X424.525Y-117.2
X424.525Y-121.2
X424.525Y-125.2
X424.525Y-129.2
X424.525Y-133.2
X424.525Y-137.2
X424.525Y-141.2
X424.525Y-145.2
X424.525Y-149.2
X424.525Y-153.2
X424.525Y-157.2
X424.525Y-161.2
X424.525Y-165.2
X424.525Y-169.2
X424.525Y-173.2
X424.525Y-177.2
X424.525Y-181.2
X424.525Y-185.2
X424.525Y-189.2
X424.525Y-193.2
X424.525Y-197.2
X424.525Y-201.2
X424.525Y-205.2
X424.525Y-209.2
X424.525Y-213.2
X424.525Y-217.2
X424.525Y-221.2
X424.525Y-225.225
X424.525Y-229.225
X424.525Y-233.225
X424.525Y-237.225
X424.525Y-241.225
X424.525Y-245.225
X424.525Y-249.225
X424.525Y-253.225
X424.525Y-257.225
X424.525Y-261.225
X424.525Y-265.225
X424.525Y-269.225
X424.525Y-273.225
X424.525Y-277.225
X424.525Y-281.225
X424.525Y-285.225
X424.525Y-289.225
X424.525Y-293.225
X424.525Y-297.225
X424.525Y-301.225
X424.525Y-305.225
X424.525Y-309.225
X424.525Y-313.225
X424.525Y-317.225
X424.525Y-321.225
X424.525Y-325.225
X424.525Y-329.225
X424.525Y-333.225
X426.425Y-96.765
X426.775Y-125.3
X426.775Y-129.3
X426.775Y-133.3
X426.775Y-137.3
X426.775Y-141.3
X426.775Y-145.3
X426.775Y-149.3
X426.775Y-153.3
X426.775Y-157.3
X426.775Y-161.3
X426.775Y-165.3
X426.775Y-169.3
X426.775Y-173.3
X426.775Y-177.3
X426.775Y-181.3
X426.775Y-185.3
X426.775Y-189.3
X426.775Y-193.3
X426.775Y-197.3
X426.775Y-201.3
X426.775Y-205.3
X426.775Y-209.3
X426.775Y-213.3
X426.775Y-217.3
X426.775Y-221.3
X426.775Y-225.3
X426.775Y-229.3
X426.775Y-233.3
X426.775Y-237.3
X426.775Y-241.3
X426.775Y-245.3
X426.775Y-249.3
X426.775Y-253.3
X426.775Y-257.3
X426.775Y-261.3
X426.775Y-265.3
X426.775Y-269.3
X426.775Y-273.3
X426.775Y-277.3
X426.775Y-281.3
X426.775Y-285.3
X426.775Y-289.3
X426.775Y-293.3
X426.775Y-297.3
X426.775Y-301.3
X426.775Y-305.3
X426.775Y-309.3
X426.775Y-313.3
X426.775Y-317.3
X426.775Y-321.3
X426.775Y-325.3
X426.775Y-329.3
X426.775Y-333.3
X426.775Y-337.3
X426.95Y-121.0
X427.075Y-101.245
X427.1Y-113.25
X427.1Y-117.175
X427.15Y-105.225
X427.15Y-109.225
X427.65Y-337.625
X428.525Y-101.2
X428.525Y-105.2
X428.525Y-109.2
X428.525Y-113.2
X428.525Y-117.2
X428.525Y-121.2
X428.525Y-125.2
X428.525Y-129.2
X428.525Y-133.2
X428.525Y-137.2
X428.525Y-141.2
X428.525Y-145.2
X428.525Y-149.2
X428.525Y-153.2
X428.525Y-157.2
X428.525Y-161.2
X428.525Y-165.2
X428.525Y-169.2
X428.525Y-173.2
X428.525Y-177.2
X428.525Y-181.2
X428.525Y-185.2
X428.525Y-189.2
X428.525Y-193.2
X428.525Y-197.2
X428.525Y-201.2
X428.525Y-205.2
X428.525Y-209.2
X428.525Y-213.2
X428.525Y-217.2
X428.525Y-221.2
X428.525Y-225.225
X428.525Y-229.225
X428.525Y-233.225
X428.525Y-237.225
X428.525Y-241.225
X428.525Y-245.225
X428.525Y-249.225
X428.525Y-253.225
X428.525Y-257.225
X428.525Y-261.225
X428.525Y-265.225
X428.525Y-269.225
X428.525Y-273.225
X428.525Y-277.225
X428.525Y-281.225
X428.525Y-285.225
X428.525Y-289.225
X428.525Y-293.225
X428.525Y-297.225
X428.525Y-301.225
X428.525Y-305.225
X428.525Y-309.225
X428.525Y-313.225
X428.525Y-317.225
X428.525Y-321.225
X428.525Y-325.225
X428.525Y-329.225
X428.525Y-333.225
X430.425Y-96.765
X430.775Y-125.3
X430.775Y-129.3
X430.775Y-133.3
X430.775Y-137.3
X430.775Y-141.3
X430.775Y-145.3
X430.775Y-149.3
X430.775Y-153.3
X430.775Y-157.3
X430.775Y-161.3
X430.775Y-165.3
X430.775Y-169.3
X430.775Y-173.3
X430.775Y-177.3
X430.775Y-181.3
X430.775Y-185.3
X430.775Y-189.3
X430.775Y-193.3
X430.775Y-197.3
X430.775Y-201.3
X430.775Y-205.3
X430.775Y-209.3
X430.775Y-213.3
X430.775Y-217.3
X430.775Y-221.3
X430.775Y-225.3
X430.775Y-229.3
X430.775Y-233.3
X430.775Y-237.3
X430.775Y-241.3
X430.775Y-245.3
X430.775Y-249.3
X430.775Y-253.3
X430.775Y-257.3
X430.775Y-261.3
X430.775Y-265.3
X430.775Y-269.3
X430.775Y-273.3
X430.775Y-277.3
X430.775Y-281.3
X430.775Y-285.3
X430.775Y-289.3
X430.775Y-293.3
X430.775Y-297.3
X430.775Y-301.3
X430.775Y-305.3
X430.775Y-309.3
X430.775Y-313.3
X430.775Y-317.3
X430.775Y-321.3
X430.775Y-325.3
X430.775Y-329.3
X430.775Y-333.3
X430.775Y-337.3
X431.0Y-109.15
X431.075Y-101.275
X431.075Y-113.225
X431.075Y-121.275
X431.1Y-117.275
X431.175Y-105.25
X431.65Y-337.625
X432.525Y-101.2
X432.525Y-105.2
X432.525Y-109.2
X432.525Y-113.2
X432.525Y-117.2
X432.525Y-121.2
X432.525Y-125.2
X432.525Y-129.2
X432.525Y-133.2
X432.525Y-137.2
X432.525Y-141.2
X432.525Y-145.2
X432.525Y-149.2
X432.525Y-153.2
X432.525Y-157.2
X432.525Y-161.2
X432.525Y-165.2
X432.525Y-169.2
X432.525Y-173.2
X432.525Y-177.2
X432.525Y-181.2
X432.525Y-185.2
X432.525Y-189.2
X432.525Y-193.2
X432.525Y-197.2
X432.525Y-201.2
X432.525Y-205.2
X432.525Y-209.2
X432.525Y-213.2
X432.525Y-217.2
X432.525Y-221.2
X432.525Y-225.225
X432.525Y-229.225
X432.525Y-233.225
X432.525Y-237.225
X432.525Y-241.225
X432.525Y-245.225
X432.525Y-249.225
X432.525Y-253.225
X432.525Y-257.225
X432.525Y-261.225
X432.525Y-265.225
X432.525Y-269.225
X432.525Y-273.225
X432.525Y-277.225
X432.525Y-281.225
X432.525Y-285.225
X432.525Y-289.225
X432.525Y-293.225
X432.525Y-297.225
X432.525Y-301.225
X432.525Y-305.225
X432.525Y-309.225
X432.525Y-313.225
X432.525Y-317.225
X432.525Y-321.225
X432.525Y-325.225
X432.525Y-329.225
X432.525Y-333.225
X434.425Y-96.765
X434.775Y-125.3
X434.775Y-129.3
X434.775Y-133.3
X434.775Y-137.3
X434.775Y-141.3
X434.775Y-145.3
X434.775Y-149.3
X434.775Y-153.3
X434.775Y-157.3
X434.775Y-161.3
X434.775Y-165.3
X434.775Y-169.3
X434.775Y-173.3
X434.775Y-177.3
X434.775Y-181.3
X434.775Y-185.3
X434.775Y-189.3
X434.775Y-193.3
X434.775Y-197.3
X434.775Y-201.3
X434.775Y-205.3
X434.775Y-209.3
X434.775Y-213.3
X434.775Y-217.3
X434.775Y-221.3
X434.775Y-225.3
X434.775Y-229.3
X434.775Y-233.3
X434.775Y-237.3
X434.775Y-241.3
X434.775Y-245.3
X434.775Y-249.3
X434.775Y-253.3
X434.775Y-257.3
X434.775Y-261.3
X434.775Y-265.3
X434.775Y-269.3
X434.775Y-273.3
X434.775Y-277.3
X434.775Y-281.3
X434.775Y-285.3
X434.775Y-289.3
X434.775Y-293.3
X434.775Y-297.3
X434.775Y-301.3
X434.775Y-305.3
X434.775Y-309.3
X434.775Y-313.3
X434.775Y-317.3
X434.775Y-321.3
X434.775Y-325.3
X434.775Y-329.3
X434.775Y-333.3
X434.775Y-337.3
X434.975Y-121.15
X435.0Y-117.175
X435.025Y-105.225
X435.05Y-109.3
X435.1Y-113.225
X435.15Y-101.245
X435.675Y-111.2
X435.725Y-107.2
X436.625Y-180.375
X436.625Y-184.375
X436.665Y-120.385
X436.675Y-104.4
X436.675Y-116.345
X436.675Y-124.375
X436.675Y-128.375
X436.675Y-132.375
X436.675Y-136.375
X436.675Y-140.375
X436.675Y-144.375
X436.675Y-148.375
X436.675Y-152.375
X436.675Y-156.375
X436.675Y-160.425
X436.675Y-164.425
X436.675Y-168.375
X436.675Y-172.425
X436.675Y-176.375
X436.675Y-188.375
X436.675Y-192.375
X436.675Y-196.425
X436.675Y-200.425
X436.675Y-204.375
X436.675Y-208.425
X436.675Y-212.375
X436.675Y-216.425
X436.675Y-220.375
X436.675Y-224.375
X436.675Y-228.425
X436.675Y-232.425
X436.675Y-236.375
X436.675Y-240.425
X436.675Y-244.425
X436.675Y-248.425
X436.675Y-252.425
X436.675Y-256.375
X436.675Y-260.375
X436.675Y-264.375
X436.675Y-268.425
X436.675Y-272.425
X436.675Y-276.375
X436.675Y-280.425
X436.675Y-284.375
X436.675Y-288.375
X436.675Y-292.375
X436.675Y-296.375
X436.675Y-300.375
X436.675Y-304.375
X436.675Y-308.375
X436.675Y-312.425
X436.675Y-316.375
X436.675Y-320.375
X436.675Y-324.375
X436.675Y-328.425
X436.675Y-332.375
X437.15Y-106.925
X437.35Y-111.025
X437.6Y-99.7
X437.625Y-126.025
X437.625Y-221.925
X437.665Y-117.835
X437.675Y-294.025
X437.675Y-334.025
X437.725Y-121.825
X437.725Y-134.175
X437.725Y-193.875
X437.725Y-197.875
X437.725Y-201.875
X437.725Y-205.875
X437.725Y-209.875
X437.725Y-226.025
X437.725Y-229.925
X437.725Y-233.925
X437.725Y-245.925
X437.725Y-249.925
X437.725Y-257.875
X437.725Y-270.025
X437.725Y-278.075
X437.725Y-282.075
X437.725Y-301.975
X437.725Y-322.025
X437.725Y-326.025
X437.725Y-330.025
X437.775Y-104.65
X437.775Y-130.025
X437.775Y-142.075
X437.775Y-146.025
X437.775Y-150.075
X437.775Y-154.075
X437.775Y-158.025
X437.775Y-166.175
X437.775Y-178.025
X437.775Y-182.025
X437.775Y-186.075
X437.775Y-189.825
X437.775Y-213.875
X437.775Y-217.875
X437.775Y-237.925
X437.775Y-241.925
X437.775Y-253.975
X437.775Y-262.025
X437.775Y-274.025
X437.775Y-285.975
X437.775Y-289.975
X437.775Y-297.975
X437.775Y-305.975
X437.775Y-309.975
X437.775Y-314.025
X437.775Y-318.025
X437.825Y-138.175
X437.825Y-162.025
X437.825Y-174.075
X437.875Y-170.125
X437.975Y-266.125
X439.25Y-100.6
T2
X143.25Y-177.25
X143.25Y-179.75
X143.9Y-104.55
X143.9Y-107.05
X143.925Y-273.53
X143.925Y-276.03
X144.15Y-202.05
X144.15Y-204.55
X144.2Y-152.73
X144.2Y-155.23
X144.25Y-224.675
X144.25Y-227.175
X144.3Y-250.075
X144.3Y-252.575
X144.3Y-296.9
X144.3Y-299.4
X144.55Y-335.55
X144.55Y-338.05
X144.775Y-127.85
X144.775Y-130.35
X150.025Y-177.18
X150.025Y-179.68
X150.375Y-273.475
X150.375Y-275.975
X150.45Y-104.555
X150.45Y-107.055
X150.475Y-249.98
X150.475Y-252.48
X150.475Y-296.83
X150.475Y-299.33
X150.675Y-152.73
X150.675Y-155.23
X150.675Y-224.675
X150.675Y-227.175
X150.725Y-202.03
X150.725Y-204.53
X150.975Y-127.925
X150.975Y-130.425
X151.825Y-335.7
X151.825Y-338.2
T3
X137.85Y-89.875
X137.85Y-92.415
X137.85Y-94.955
X137.85Y-97.495
X137.9Y-316.925
X137.9Y-319.465
X137.9Y-322.005
X137.9Y-324.545
X138.025Y-217.875
X138.025Y-220.415
X138.025Y-222.955
X138.025Y-225.495
X138.025Y-266.795
X138.025Y-269.335
X138.025Y-271.875
X138.025Y-274.415
X138.16Y-292.015
X138.16Y-294.555
X138.16Y-297.095
X138.16Y-299.635
X138.41Y-243.065
X138.41Y-245.605
X138.41Y-248.145
X138.41Y-250.685
X138.435Y-167.015
X138.435Y-169.555
X138.435Y-172.095
X138.435Y-174.635
X138.56Y-141.74
X138.56Y-144.28
X138.56Y-146.82
X138.56Y-149.36
X138.65Y-191.9
X138.65Y-194.44
X138.65Y-196.98
X138.65Y-199.52
X138.925Y-116.125
X138.925Y-118.665
X138.925Y-121.205
X138.925Y-123.745
X144.025Y-313.875
X144.445Y-141.3
X144.485Y-320.875
X144.57Y-146.75
X144.735Y-117.4
X144.77Y-122.425
X145.235Y-165.975
X145.385Y-171.25
X145.395Y-190.425
X145.51Y-195.5
X145.72Y-261.85
X145.76Y-239.6
X145.76Y-266.4
X145.81Y-286.55
X145.81Y-291.225
X145.835Y-244.3
X146.085Y-213.5
X146.16Y-218.125
X146.565Y-313.875
X146.985Y-141.3
X147.025Y-320.875
X147.11Y-146.75
X147.275Y-117.4
X147.31Y-122.425
X147.775Y-165.975
X147.925Y-171.25
X147.935Y-190.425
X148.05Y-195.5
X148.26Y-261.85
X148.3Y-239.6
X148.3Y-266.4
X148.35Y-286.55
X148.35Y-291.225
X148.375Y-244.3
X148.625Y-213.5
X148.7Y-218.125
X149.105Y-313.875
X149.525Y-141.3
X149.565Y-320.875
X149.65Y-146.75
X149.815Y-117.4
X149.85Y-122.425
X150.315Y-165.975
X150.465Y-171.25
X150.475Y-190.425
X150.59Y-195.5
X150.8Y-261.85
X150.84Y-239.6
X150.84Y-266.4
X150.89Y-286.55
X150.89Y-291.225
X150.915Y-244.3
X151.165Y-213.5
X151.24Y-218.125
X440.64Y-326.065
X440.64Y-328.605
X440.64Y-331.145
X440.64Y-333.685
M30
