%TF.GenerationSoftware,KiCad,Pcbnew,9.0.4*%
%TF.CreationDate,2025-10-10T02:09:37-04:00*%
%TF.ProjectId,snake_pcb,736e616b-655f-4706-9362-2e6b69636164,rev?*%
%TF.SameCoordinates,Original*%
%TF.FileFunction,Copper,L1,Top*%
%TF.FilePolarity,Positive*%
%FSLAX46Y46*%
G04 Gerber Fmt 4.6, Leading zero omitted, Abs format (unit mm)*
G04 Created by KiCad (PCBNEW 9.0.4) date 2025-10-10 02:09:37*
%MOMM*%
%LPD*%
G01*
G04 APERTURE LIST*
G04 Aperture macros list*
%AMRoundRect*
0 Rectangle with rounded corners*
0 $1 Rounding radius*
0 $2 $3 $4 $5 $6 $7 $8 $9 X,Y pos of 4 corners*
0 Add a 4 corners polygon primitive as box body*
4,1,4,$2,$3,$4,$5,$6,$7,$8,$9,$2,$3,0*
0 Add four circle primitives for the rounded corners*
1,1,$1+$1,$2,$3*
1,1,$1+$1,$4,$5*
1,1,$1+$1,$6,$7*
1,1,$1+$1,$8,$9*
0 Add four rect primitives between the rounded corners*
20,1,$1+$1,$2,$3,$4,$5,0*
20,1,$1+$1,$4,$5,$6,$7,0*
20,1,$1+$1,$6,$7,$8,$9,0*
20,1,$1+$1,$8,$9,$2,$3,0*%
G04 Aperture macros list end*
%TA.AperFunction,ComponentPad*%
%ADD10R,1.700000X1.700000*%
%TD*%
%TA.AperFunction,ComponentPad*%
%ADD11C,1.700000*%
%TD*%
%TA.AperFunction,SMDPad,CuDef*%
%ADD12RoundRect,0.250000X0.475000X-0.250000X0.475000X0.250000X-0.475000X0.250000X-0.475000X-0.250000X0*%
%TD*%
%TA.AperFunction,SMDPad,CuDef*%
%ADD13RoundRect,0.250000X-0.475000X0.250000X-0.475000X-0.250000X0.475000X-0.250000X0.475000X0.250000X0*%
%TD*%
%TA.AperFunction,SMDPad,CuDef*%
%ADD14RoundRect,0.250000X0.250000X0.475000X-0.250000X0.475000X-0.250000X-0.475000X0.250000X-0.475000X0*%
%TD*%
%TA.AperFunction,SMDPad,CuDef*%
%ADD15RoundRect,0.250000X-0.250000X-0.475000X0.250000X-0.475000X0.250000X0.475000X-0.250000X0.475000X0*%
%TD*%
%TA.AperFunction,ComponentPad*%
%ADD16C,1.600000*%
%TD*%
%TA.AperFunction,ComponentPad*%
%ADD17O,1.600000X1.600000*%
%TD*%
%TA.AperFunction,ComponentPad*%
%ADD18RoundRect,0.250000X-0.550000X-0.550000X0.550000X-0.550000X0.550000X0.550000X-0.550000X0.550000X0*%
%TD*%
%TA.AperFunction,ComponentPad*%
%ADD19R,1.800000X1.800000*%
%TD*%
%TA.AperFunction,ComponentPad*%
%ADD20C,1.800000*%
%TD*%
%TA.AperFunction,SMDPad,CuDef*%
%ADD21RoundRect,0.140000X0.140000X0.170000X-0.140000X0.170000X-0.140000X-0.170000X0.140000X-0.170000X0*%
%TD*%
%TA.AperFunction,ComponentPad*%
%ADD22O,2.200000X3.500000*%
%TD*%
%TA.AperFunction,ComponentPad*%
%ADD23R,1.500000X2.500000*%
%TD*%
%TA.AperFunction,ComponentPad*%
%ADD24O,1.500000X2.500000*%
%TD*%
%TA.AperFunction,SMDPad,CuDef*%
%ADD25RoundRect,0.140000X-0.170000X0.140000X-0.170000X-0.140000X0.170000X-0.140000X0.170000X0.140000X0*%
%TD*%
%TA.AperFunction,ComponentPad*%
%ADD26RoundRect,0.250000X0.550000X-0.550000X0.550000X0.550000X-0.550000X0.550000X-0.550000X-0.550000X0*%
%TD*%
%TA.AperFunction,SMDPad,CuDef*%
%ADD27RoundRect,0.140000X-0.140000X-0.170000X0.140000X-0.170000X0.140000X0.170000X-0.140000X0.170000X0*%
%TD*%
%TA.AperFunction,ComponentPad*%
%ADD28R,2.000000X2.000000*%
%TD*%
%TA.AperFunction,ComponentPad*%
%ADD29C,2.000000*%
%TD*%
%TA.AperFunction,SMDPad,CuDef*%
%ADD30RoundRect,0.375000X-0.625000X-0.375000X0.625000X-0.375000X0.625000X0.375000X-0.625000X0.375000X0*%
%TD*%
%TA.AperFunction,SMDPad,CuDef*%
%ADD31RoundRect,0.500000X-0.500000X-1.400000X0.500000X-1.400000X0.500000X1.400000X-0.500000X1.400000X0*%
%TD*%
%TA.AperFunction,ComponentPad*%
%ADD32R,3.500000X3.500000*%
%TD*%
%TA.AperFunction,ComponentPad*%
%ADD33RoundRect,0.750000X0.750000X1.000000X-0.750000X1.000000X-0.750000X-1.000000X0.750000X-1.000000X0*%
%TD*%
%TA.AperFunction,ComponentPad*%
%ADD34RoundRect,0.875000X0.875000X0.875000X-0.875000X0.875000X-0.875000X-0.875000X0.875000X-0.875000X0*%
%TD*%
%TA.AperFunction,SMDPad,CuDef*%
%ADD35RoundRect,0.140000X0.170000X-0.140000X0.170000X0.140000X-0.170000X0.140000X-0.170000X-0.140000X0*%
%TD*%
%TA.AperFunction,ComponentPad*%
%ADD36R,2.250000X2.250000*%
%TD*%
%TA.AperFunction,ComponentPad*%
%ADD37C,2.250000*%
%TD*%
%TA.AperFunction,ComponentPad*%
%ADD38RoundRect,0.250000X-0.950000X-0.550000X0.950000X-0.550000X0.950000X0.550000X-0.950000X0.550000X0*%
%TD*%
%TA.AperFunction,ComponentPad*%
%ADD39O,2.400000X1.600000*%
%TD*%
%TA.AperFunction,ComponentPad*%
%ADD40R,1.275000X1.800000*%
%TD*%
%TA.AperFunction,ComponentPad*%
%ADD41O,1.275000X1.800000*%
%TD*%
%TA.AperFunction,ComponentPad*%
%ADD42RoundRect,0.250000X0.550000X0.550000X-0.550000X0.550000X-0.550000X-0.550000X0.550000X-0.550000X0*%
%TD*%
%TA.AperFunction,ComponentPad*%
%ADD43R,1.600000X1.600000*%
%TD*%
%TA.AperFunction,ComponentPad*%
%ADD44C,4.000000*%
%TD*%
%TA.AperFunction,ComponentPad*%
%ADD45RoundRect,0.250000X-0.600000X0.600000X-0.600000X-0.600000X0.600000X-0.600000X0.600000X0.600000X0*%
%TD*%
%TA.AperFunction,ViaPad*%
%ADD46C,1.000000*%
%TD*%
%TA.AperFunction,ViaPad*%
%ADD47C,1.500000*%
%TD*%
%TA.AperFunction,Conductor*%
%ADD48C,0.500000*%
%TD*%
%TA.AperFunction,Conductor*%
%ADD49C,3.000000*%
%TD*%
%TA.AperFunction,Conductor*%
%ADD50C,1.000000*%
%TD*%
G04 APERTURE END LIST*
D10*
%TO.P,J29,1,Pin_1*%
%TO.N,GND*%
X288000000Y-150620000D03*
D11*
%TO.P,J29,2,Pin_2*%
%TO.N,Net-(J12-Pin_1)*%
X288000000Y-148080000D03*
%TO.P,J29,3,Pin_3*%
%TO.N,/grid/USART_CLK*%
X288000000Y-145540000D03*
%TO.P,J29,4,Pin_4*%
%TO.N,VCC_LED_GRID*%
X288000000Y-143000000D03*
%TD*%
%TO.P,J23,6,Pin_6*%
%TO.N,/programmer/PC5*%
X219915000Y-197170000D03*
%TO.P,J23,5,Pin_5*%
%TO.N,/converter/RTS_CONV*%
X219915000Y-199710000D03*
%TO.P,J23,4,Pin_4*%
%TO.N,/converter/CTS_CONV*%
X219915000Y-202250000D03*
%TO.P,J23,3,Pin_3*%
%TO.N,/programmer/EXT_SIGNAL*%
X219915000Y-204790000D03*
%TO.P,J23,2,Pin_2*%
%TO.N,/programmer/GAME_SIGNAL*%
X219915000Y-207330000D03*
D10*
%TO.P,J23,1,Pin_1*%
%TO.N,/programmer/GRID_SIGNAL*%
X219915000Y-209870000D03*
%TD*%
D12*
%TO.P,C45,1*%
%TO.N,VCC*%
X218870000Y-141410000D03*
%TO.P,C45,2*%
%TO.N,GND*%
X218870000Y-139510000D03*
%TD*%
D13*
%TO.P,C77,1*%
%TO.N,REG_EN_LOW*%
X204000000Y-93550000D03*
%TO.P,C77,2*%
%TO.N,GND*%
X204000000Y-95450000D03*
%TD*%
D14*
%TO.P,C48,1*%
%TO.N,3.3V*%
X230510000Y-133750000D03*
%TO.P,C48,2*%
%TO.N,GND*%
X228610000Y-133750000D03*
%TD*%
D13*
%TO.P,C46,1*%
%TO.N,REG_EN_LOW*%
X236100000Y-99100000D03*
%TO.P,C46,2*%
%TO.N,GND*%
X236100000Y-101000000D03*
%TD*%
%TO.P,C44,1*%
%TO.N,REG_EN_LOW*%
X267500000Y-95550000D03*
%TO.P,C44,2*%
%TO.N,GND*%
X267500000Y-97450000D03*
%TD*%
%TO.P,C31,1*%
%TO.N,GND*%
X295000000Y-120050000D03*
%TO.P,C31,2*%
%TO.N,VCC*%
X295000000Y-121950000D03*
%TD*%
D12*
%TO.P,C29,1*%
%TO.N,VCC*%
X224000000Y-117900000D03*
%TO.P,C29,2*%
%TO.N,GND*%
X224000000Y-116000000D03*
%TD*%
D15*
%TO.P,C23,1*%
%TO.N,VCC*%
X260050000Y-143500000D03*
%TO.P,C23,2*%
%TO.N,GND*%
X261950000Y-143500000D03*
%TD*%
%TO.P,C19,1*%
%TO.N,VCC*%
X165920000Y-143420000D03*
%TO.P,C19,2*%
%TO.N,GND*%
X167820000Y-143420000D03*
%TD*%
D14*
%TO.P,C15,1*%
%TO.N,VCC*%
X269450000Y-101500000D03*
%TO.P,C15,2*%
%TO.N,GND*%
X267550000Y-101500000D03*
%TD*%
%TO.P,C10,1*%
%TO.N,VCC*%
X242950000Y-186000000D03*
%TO.P,C10,2*%
%TO.N,GND*%
X241050000Y-186000000D03*
%TD*%
D15*
%TO.P,C9,1*%
%TO.N,VCC*%
X180550000Y-217000000D03*
%TO.P,C9,2*%
%TO.N,GND*%
X182450000Y-217000000D03*
%TD*%
%TO.P,C7,1*%
%TO.N,VCC*%
X179600000Y-163600000D03*
%TO.P,C7,2*%
%TO.N,GND*%
X181500000Y-163600000D03*
%TD*%
D13*
%TO.P,C6,1*%
%TO.N,VCC*%
X204000000Y-215050000D03*
%TO.P,C6,2*%
%TO.N,GND*%
X204000000Y-216950000D03*
%TD*%
D16*
%TO.P,R21,1*%
%TO.N,VCC*%
X235295000Y-118320000D03*
D17*
%TO.P,R21,2*%
%TO.N,/grid/PB2*%
X235295000Y-128480000D03*
%TD*%
D10*
%TO.P,J10,1,Pin_1*%
%TO.N,/game/SCL_GAME*%
X126770000Y-174540000D03*
D11*
%TO.P,J10,2,Pin_2*%
%TO.N,/game/SDA_GAME*%
X126770000Y-172000000D03*
%TO.P,J10,3,Pin_3*%
%TO.N,VCC*%
X126770000Y-169460000D03*
%TO.P,J10,4,Pin_4*%
%TO.N,GND*%
X126770000Y-166920000D03*
%TD*%
D18*
%TO.P,23A1024/23LC1,1,CS*%
%TO.N,/grid/SRAM_CS*%
X280905000Y-123490000D03*
D16*
%TO.P,23A1024/23LC1,2,SO/SIO1*%
%TO.N,/grid/MISO_GRID*%
X280905000Y-126030000D03*
%TO.P,23A1024/23LC1,3,SIO2*%
%TO.N,Net-(23A1024/23LC1-SIO2)*%
X280905000Y-128570000D03*
%TO.P,23A1024/23LC1,4,GND*%
%TO.N,GND*%
X280905000Y-131110000D03*
%TO.P,23A1024/23LC1,5,SI/SIO0*%
%TO.N,/grid/MOSI_GRID*%
X288525000Y-131110000D03*
%TO.P,23A1024/23LC1,6,SCK*%
%TO.N,/grid/SCK_GRID*%
X288525000Y-128570000D03*
%TO.P,23A1024/23LC1,7,HOLD/SIO3*%
%TO.N,/grid/SRAM_HOLD*%
X288525000Y-126030000D03*
%TO.P,23A1024/23LC1,8,VCC*%
%TO.N,VCC*%
X288525000Y-123490000D03*
%TD*%
D19*
%TO.P,D5,1,K*%
%TO.N,Net-(D5-K)*%
X278000000Y-85000000D03*
D20*
%TO.P,D5,2,A*%
%TO.N,Net-(D5-A)*%
X278000000Y-87540000D03*
%TD*%
D16*
%TO.P,47uF3,1*%
%TO.N,Net-(D5-A)*%
X283500000Y-87500000D03*
%TO.P,47uF3,2*%
%TO.N,GND*%
X283500000Y-85000000D03*
%TD*%
D10*
%TO.P,J17,1,Pin_1*%
%TO.N,/game/RESET_GAME*%
X155755000Y-155470000D03*
D11*
%TO.P,J17,2,Pin_2*%
%TO.N,/game/RXD_GAME*%
X155755000Y-152930000D03*
%TO.P,J17,3,Pin_3*%
%TO.N,/game/TXD_GAME*%
X155755000Y-150390000D03*
%TO.P,J17,4,Pin_4*%
%TO.N,/game/J_UP*%
X155755000Y-147850000D03*
%TO.P,J17,5,Pin_5*%
%TO.N,/game/J_DOWN*%
X155755000Y-145310000D03*
%TO.P,J17,6,Pin_6*%
%TO.N,/game/J_LEFT*%
X155755000Y-142770000D03*
%TD*%
D18*
%TO.P,U4,1*%
%TO.N,/programmer/MOSI*%
X169490000Y-213860000D03*
D16*
%TO.P,U4,2*%
%TO.N,/grid/MOSI_GRID*%
X169490000Y-216400000D03*
%TO.P,U4,3*%
%TO.N,/game/MOSI_GAME*%
X169490000Y-218940000D03*
%TO.P,U4,4*%
%TO.N,/programmer/MOSI*%
X169490000Y-221480000D03*
%TO.P,U4,5*%
%TO.N,/programmer/GAME_SIGNAL*%
X169490000Y-224020000D03*
%TO.P,U4,6*%
%TO.N,/programmer/EXT_SIGNAL*%
X169490000Y-226560000D03*
%TO.P,U4,7,V_{SS}*%
%TO.N,GND*%
X169490000Y-229100000D03*
%TO.P,U4,8*%
%TO.N,/programmer/MOSI*%
X177110000Y-229100000D03*
%TO.P,U4,9*%
%TO.N,/programmer/MOSI_EXT*%
X177110000Y-226560000D03*
%TO.P,U4,10*%
%TO.N,unconnected-(U4-Pad10)*%
X177110000Y-224020000D03*
%TO.P,U4,11*%
%TO.N,unconnected-(U4-Pad11)*%
X177110000Y-221480000D03*
%TO.P,U4,12*%
%TO.N,unconnected-(U4-Pad12)*%
X177110000Y-218940000D03*
%TO.P,U4,13*%
%TO.N,/programmer/GRID_SIGNAL*%
X177110000Y-216400000D03*
%TO.P,U4,14,V_{DD}*%
%TO.N,VCC*%
X177110000Y-213860000D03*
%TD*%
D21*
%TO.P,C20,1*%
%TO.N,VCC*%
X137410000Y-135100000D03*
%TO.P,C20,2*%
%TO.N,GND*%
X136450000Y-135100000D03*
%TD*%
D16*
%TO.P,R19,1*%
%TO.N,/grid/SRAM_HOLD*%
X260635000Y-124980000D03*
D17*
%TO.P,R19,2*%
%TO.N,VCC*%
X270795000Y-124980000D03*
%TD*%
D16*
%TO.P,R1,1*%
%TO.N,VCC*%
X121715000Y-124980000D03*
D17*
%TO.P,R1,2*%
%TO.N,/game/PB2*%
X131875000Y-124980000D03*
%TD*%
D10*
%TO.P,J1,1,Pin_1*%
%TO.N,/programmer/RXD*%
X238295000Y-176980000D03*
D11*
%TO.P,J1,2,Pin_2*%
%TO.N,/converter/TXD_CONV*%
X240835000Y-176980000D03*
%TD*%
D22*
%TO.P,SW1,*%
%TO.N,*%
X270395000Y-230480000D03*
X262195000Y-230480000D03*
D23*
%TO.P,SW1,1,C*%
%TO.N,GND*%
X268295000Y-230480000D03*
D24*
%TO.P,SW1,2,B*%
%TO.N,/programmer/EXT_SIGNAL*%
X266295000Y-230480000D03*
%TO.P,SW1,3,A*%
%TO.N,VCC*%
X264295000Y-230480000D03*
%TD*%
D18*
%TO.P,U3,1,PC6/~{RESET}*%
%TO.N,/programmer/RESET_PROG*%
X207295000Y-196860000D03*
D16*
%TO.P,U3,2,PD0*%
%TO.N,/programmer/RXD*%
X207295000Y-199400000D03*
%TO.P,U3,3,PD1*%
%TO.N,/programmer/TXD*%
X207295000Y-201940000D03*
%TO.P,U3,4,PD2*%
%TO.N,/grid/RESET_GRID*%
X207295000Y-204480000D03*
%TO.P,U3,5,PD3*%
%TO.N,/game/RESET_GAME*%
X207295000Y-207020000D03*
%TO.P,U3,6,PD4*%
%TO.N,/converter/CLOCK*%
X207295000Y-209560000D03*
%TO.P,U3,7,VCC*%
%TO.N,VCC*%
X207295000Y-212100000D03*
%TO.P,U3,8,GND*%
%TO.N,GND*%
X207295000Y-214640000D03*
%TO.P,U3,9,PB6/XTAL1*%
%TO.N,Net-(U3-PB6{slash}XTAL1)*%
X207295000Y-217180000D03*
%TO.P,U3,10,PB7/XTAL2*%
%TO.N,Net-(U3-PB7{slash}XTAL2)*%
X207295000Y-219720000D03*
%TO.P,U3,11,PD5*%
%TO.N,/grid/SRAM_CS*%
X207295000Y-222260000D03*
%TO.P,U3,12,PD6*%
%TO.N,/converter/WAKE_UP*%
X207295000Y-224800000D03*
%TO.P,U3,13,PD7*%
%TO.N,/game/FLASH_CS*%
X207295000Y-227340000D03*
%TO.P,U3,14,PB0*%
%TO.N,/programmer/PB0*%
X207295000Y-229880000D03*
%TO.P,U3,15,PB1*%
%TO.N,/programmer/PB1*%
X214915000Y-229880000D03*
%TO.P,U3,16,PB2*%
%TO.N,/programmer/PB2*%
X214915000Y-227340000D03*
%TO.P,U3,17,PB3*%
%TO.N,/programmer/MOSI*%
X214915000Y-224800000D03*
%TO.P,U3,18,PB4*%
%TO.N,/programmer/MISO*%
X214915000Y-222260000D03*
%TO.P,U3,19,PB5*%
%TO.N,/programmer/SCK*%
X214915000Y-219720000D03*
%TO.P,U3,20,AVCC*%
%TO.N,VCC*%
X214915000Y-217180000D03*
%TO.P,U3,21,AREF*%
X214915000Y-214640000D03*
%TO.P,U3,22,AGND*%
%TO.N,GND*%
X214915000Y-212100000D03*
%TO.P,U3,23,PC0*%
%TO.N,/programmer/GRID_SIGNAL*%
X214915000Y-209560000D03*
%TO.P,U3,24,PC1*%
%TO.N,/programmer/GAME_SIGNAL*%
X214915000Y-207020000D03*
%TO.P,U3,25,PC2*%
%TO.N,/programmer/EXT_SIGNAL*%
X214915000Y-204480000D03*
%TO.P,U3,26,PC3*%
%TO.N,/converter/CTS_CONV*%
X214915000Y-201940000D03*
%TO.P,U3,27,PC4*%
%TO.N,/converter/RTS_CONV*%
X214915000Y-199400000D03*
%TO.P,U3,28,PC5*%
%TO.N,/programmer/PC5*%
X214915000Y-196860000D03*
%TD*%
D21*
%TO.P,C11,1*%
%TO.N,VCC*%
X242480000Y-184000000D03*
%TO.P,C11,2*%
%TO.N,GND*%
X241520000Y-184000000D03*
%TD*%
D10*
%TO.P,J25,1,Pin_1*%
%TO.N,/programmer/TXD*%
X241295000Y-192980000D03*
D11*
%TO.P,J25,2,Pin_2*%
%TO.N,/converter/RXD_CONV*%
X241295000Y-190440000D03*
%TD*%
D16*
%TO.P,R6,1*%
%TO.N,/programmer/EXT_SIGNAL*%
X161455000Y-179480000D03*
D17*
%TO.P,R6,2*%
%TO.N,GND*%
X151295000Y-179480000D03*
%TD*%
D10*
%TO.P,J19,1,Pin_1*%
%TO.N,/game/SCL_GAME*%
X136255000Y-155470000D03*
D11*
%TO.P,J19,2,Pin_2*%
%TO.N,/game/SDA_GAME*%
X136255000Y-152930000D03*
%TO.P,J19,3,Pin_3*%
%TO.N,/game/VIBRATOR*%
X136255000Y-150390000D03*
%TO.P,J19,4,Pin_4*%
%TO.N,/game/J_RIGHT*%
X136255000Y-147850000D03*
%TO.P,J19,5,Pin_5*%
%TO.N,/game/FLASH_WP*%
X136255000Y-145310000D03*
%TO.P,J19,6,Pin_6*%
%TO.N,/game/B_SELECT*%
X136255000Y-142770000D03*
%TD*%
D18*
%TO.P,U10,1,A0*%
%TO.N,GND*%
X148010000Y-85710000D03*
D16*
%TO.P,U10,2,A1*%
%TO.N,Net-(U10-A1)*%
X148010000Y-88250000D03*
%TO.P,U10,3,A2*%
%TO.N,Net-(U10-A2)*%
X148010000Y-90790000D03*
%TO.P,U10,4,P0*%
%TO.N,/game/DIR_MCU_T_FLASH*%
X148010000Y-93330000D03*
%TO.P,U10,5,P1*%
%TO.N,/game/DIR_FLASH_T_MCU*%
X148010000Y-95870000D03*
%TO.P,U10,6,P2*%
%TO.N,unconnected-(U10-P2-Pad6)*%
X148010000Y-98410000D03*
%TO.P,U10,7,P3*%
%TO.N,unconnected-(U10-P3-Pad7)*%
X148010000Y-100950000D03*
%TO.P,U10,8,GND*%
%TO.N,GND*%
X148010000Y-103490000D03*
%TO.P,U10,9,P4*%
%TO.N,unconnected-(U10-P4-Pad9)*%
X155630000Y-103490000D03*
%TO.P,U10,10,P5*%
%TO.N,unconnected-(U10-P5-Pad10)*%
X155630000Y-100950000D03*
%TO.P,U10,11,P6*%
%TO.N,unconnected-(U10-P6-Pad11)*%
X155630000Y-98410000D03*
%TO.P,U10,12,P7*%
%TO.N,unconnected-(U10-P7-Pad12)*%
X155630000Y-95870000D03*
%TO.P,U10,13,~{INT}*%
%TO.N,Net-(U10-~{INT})*%
X155630000Y-93330000D03*
%TO.P,U10,14,SCL*%
%TO.N,/game/SCL_GAME*%
X155630000Y-90790000D03*
%TO.P,U10,15,SDA*%
%TO.N,/game/SDA_GAME*%
X155630000Y-88250000D03*
%TO.P,U10,16,VDD*%
%TO.N,VCC*%
X155630000Y-85710000D03*
%TD*%
D25*
%TO.P,C40,1*%
%TO.N,GND*%
X292000000Y-121020000D03*
%TO.P,C40,2*%
%TO.N,VCC*%
X292000000Y-121980000D03*
%TD*%
D19*
%TO.P,D2,1,K*%
%TO.N,Net-(D2-K)*%
X241835000Y-207980000D03*
D20*
%TO.P,D2,2,A*%
%TO.N,Net-(D2-A)*%
X239295000Y-207980000D03*
%TD*%
D10*
%TO.P,J28,1,Pin_1*%
%TO.N,/game/B_SELECT*%
X126795000Y-208500000D03*
D11*
%TO.P,J28,2,Pin_2*%
%TO.N,GND*%
X126795000Y-211040000D03*
%TD*%
D26*
%TO.P,D8,1,K*%
%TO.N,VCC_LED_GRID*%
X255100000Y-102860000D03*
D16*
%TO.P,D8,2,A*%
%TO.N,Net-(D4-A)*%
X255100000Y-95240000D03*
%TD*%
D27*
%TO.P,C14,1*%
%TO.N,VCC*%
X179815000Y-166480000D03*
%TO.P,C14,2*%
%TO.N,GND*%
X180775000Y-166480000D03*
%TD*%
D11*
%TO.P,Y3,1,1*%
%TO.N,Net-(U1-XTAL1{slash}PB6)*%
X265770000Y-143300000D03*
%TO.P,Y3,2,2*%
%TO.N,Net-(U1-XTAL2{slash}PB7)*%
X265770000Y-138300000D03*
%TD*%
D18*
%TO.P,U7,1*%
%TO.N,/programmer/SCK*%
X168490000Y-165860000D03*
D16*
%TO.P,U7,2*%
%TO.N,/grid/SCK_GRID*%
X168490000Y-168400000D03*
%TO.P,U7,3*%
%TO.N,/game/SCK_GAME*%
X168490000Y-170940000D03*
%TO.P,U7,4*%
%TO.N,/programmer/SCK*%
X168490000Y-173480000D03*
%TO.P,U7,5*%
%TO.N,/programmer/GAME_SIGNAL*%
X168490000Y-176020000D03*
%TO.P,U7,6*%
%TO.N,/programmer/EXT_SIGNAL*%
X168490000Y-178560000D03*
%TO.P,U7,7,V_{SS}*%
%TO.N,GND*%
X168490000Y-181100000D03*
%TO.P,U7,8*%
%TO.N,/programmer/SCK*%
X176110000Y-181100000D03*
%TO.P,U7,9*%
%TO.N,/programmer/SCK_EXT*%
X176110000Y-178560000D03*
%TO.P,U7,10*%
%TO.N,unconnected-(U7-Pad10)*%
X176110000Y-176020000D03*
%TO.P,U7,11*%
%TO.N,unconnected-(U7-Pad11)*%
X176110000Y-173480000D03*
%TO.P,U7,12*%
%TO.N,unconnected-(U7-Pad12)*%
X176110000Y-170940000D03*
%TO.P,U7,13*%
%TO.N,/programmer/GRID_SIGNAL*%
X176110000Y-168400000D03*
%TO.P,U7,14,V_{DD}*%
%TO.N,VCC*%
X176110000Y-165860000D03*
%TD*%
D28*
%TO.P,BZ1,1,+*%
%TO.N,/game/BUZZER_PWM*%
X127600000Y-101500000D03*
D29*
%TO.P,BZ1,2,-*%
%TO.N,Net-(BZ1--)*%
X120000000Y-101500000D03*
%TD*%
D27*
%TO.P,C22,1*%
%TO.N,VCC*%
X165895000Y-145890000D03*
%TO.P,C22,2*%
%TO.N,GND*%
X166855000Y-145890000D03*
%TD*%
D16*
%TO.P,R13,1*%
%TO.N,/game/B_START*%
X130840000Y-183040000D03*
D17*
%TO.P,R13,2*%
%TO.N,VCC*%
X141000000Y-183040000D03*
%TD*%
D27*
%TO.P,C12,1*%
%TO.N,VCC*%
X268015000Y-197880000D03*
%TO.P,C12,2*%
%TO.N,GND*%
X268975000Y-197880000D03*
%TD*%
D16*
%TO.P,R22,1*%
%TO.N,VCC*%
X233995000Y-227520000D03*
D17*
%TO.P,R22,2*%
%TO.N,/programmer/PB2*%
X223835000Y-227520000D03*
%TD*%
D10*
%TO.P,J27,1,Pin_1*%
%TO.N,/game/B_STOP*%
X126795000Y-195940000D03*
D11*
%TO.P,J27,2,Pin_2*%
%TO.N,GND*%
X126795000Y-198480000D03*
%TD*%
D18*
%TO.P,U8,1,~{CS}*%
%TO.N,/game/CS*%
X210295000Y-120480000D03*
D16*
%TO.P,U8,2,SO/SIO1*%
%TO.N,/game/MISO*%
X210295000Y-123020000D03*
%TO.P,U8,3,~{WP}/SIO2*%
%TO.N,/game/WP*%
X210295000Y-125560000D03*
%TO.P,U8,4,GND*%
%TO.N,GND*%
X210295000Y-128100000D03*
%TO.P,U8,5,SI/SIO0*%
%TO.N,/game/MOSI*%
X217915000Y-128100000D03*
%TO.P,U8,6,SCLK*%
%TO.N,/game/SCK*%
X217915000Y-125560000D03*
%TO.P,U8,7,~{HOLD}/SIO3*%
%TO.N,/game/HOLD*%
X217915000Y-123020000D03*
%TO.P,U8,8,VCC*%
%TO.N,VCC*%
X217915000Y-120480000D03*
%TD*%
%TO.P,R33,1*%
%TO.N,VCC*%
X183135000Y-224980000D03*
D17*
%TO.P,R33,2*%
%TO.N,/converter/WAKE_UP*%
X193295000Y-224980000D03*
%TD*%
D16*
%TO.P,R39,1*%
%TO.N,Net-(D5-K)*%
X273580000Y-83500000D03*
%TO.P,R39,2*%
%TO.N,GND*%
X263420000Y-83500000D03*
%TD*%
D30*
%TO.P,U9,1,GND*%
%TO.N,GND*%
X222795000Y-137480000D03*
%TO.P,U9,2,VO*%
%TO.N,3.3V*%
X222795000Y-139780000D03*
D31*
X229095000Y-139780000D03*
D30*
%TO.P,U9,3,VI*%
%TO.N,VCC*%
X222795000Y-142080000D03*
%TD*%
D16*
%TO.P,R37,1*%
%TO.N,VCC*%
X273580000Y-87500000D03*
%TO.P,R37,2*%
%TO.N,REG_EN_LOW*%
X263420000Y-87500000D03*
%TD*%
D19*
%TO.P,D3,1,K*%
%TO.N,Net-(D3-K)*%
X284255000Y-181980000D03*
D20*
%TO.P,D3,2,A*%
%TO.N,VCC*%
X286795000Y-181980000D03*
%TD*%
D32*
%TO.P,J4,1*%
%TO.N,VCC*%
X290295000Y-191437500D03*
D33*
%TO.P,J4,2*%
%TO.N,GND*%
X296295000Y-191437500D03*
D34*
%TO.P,J4,3*%
X293295000Y-186737500D03*
%TD*%
D18*
%TO.P,MISO_SHIFTER1,1,VCCA*%
%TO.N,Net-(MISO_SHIFTER1-VCCA)*%
X210490000Y-154670000D03*
D16*
%TO.P,MISO_SHIFTER1,2,A1*%
%TO.N,/game/MISO_GAME*%
X210490000Y-157210000D03*
%TO.P,MISO_SHIFTER1,3,A3*%
%TO.N,unconnected-(MISO_SHIFTER1-A3-Pad3)*%
X210490000Y-159750000D03*
%TO.P,MISO_SHIFTER1,4,GND*%
%TO.N,GND*%
X210490000Y-162290000D03*
%TO.P,MISO_SHIFTER1,5,DIR*%
%TO.N,/game/DIR_FLASH_T_MCU*%
X218110000Y-162290000D03*
%TO.P,MISO_SHIFTER1,6,B2*%
%TO.N,unconnected-(MISO_SHIFTER1-B2-Pad6)*%
X218110000Y-159750000D03*
%TO.P,MISO_SHIFTER1,7,B1*%
%TO.N,/game/MISO*%
X218110000Y-157210000D03*
%TO.P,MISO_SHIFTER1,8,VCCB*%
%TO.N,3.3V*%
X218110000Y-154670000D03*
%TD*%
D26*
%TO.P,D6,1,K*%
%TO.N,VCC_LED_GRID*%
X222000000Y-99310000D03*
D16*
%TO.P,D6,2,A*%
%TO.N,Net-(D6-A)*%
X222000000Y-91690000D03*
%TD*%
D27*
%TO.P,C16,1*%
%TO.N,VCC*%
X181020000Y-189500000D03*
%TO.P,C16,2*%
%TO.N,GND*%
X181980000Y-189500000D03*
%TD*%
D35*
%TO.P,C33,1*%
%TO.N,3.3V*%
X198795000Y-141960000D03*
%TO.P,C33,2*%
%TO.N,GND*%
X198795000Y-141000000D03*
%TD*%
D36*
%TO.P,SW5,1,1*%
%TO.N,Net-(U5-~{RESET})*%
X279545000Y-201480000D03*
D37*
%TO.P,SW5,2,2*%
%TO.N,GND*%
X286045000Y-201480000D03*
%TD*%
D38*
%TO.P,U5,1,TXD*%
%TO.N,/converter/TXD_CONV*%
X246680000Y-177470000D03*
D39*
%TO.P,U5,2,DTR*%
%TO.N,unconnected-(U5-DTR-Pad2)*%
X246680000Y-180010000D03*
%TO.P,U5,3,RTS*%
%TO.N,/converter/RTS_CONV*%
X246680000Y-182550000D03*
%TO.P,U5,4,VCCIO*%
%TO.N,VCC*%
X246680000Y-185090000D03*
%TO.P,U5,5,RXD*%
%TO.N,/converter/RXD_CONV*%
X246680000Y-187630000D03*
%TO.P,U5,6,RI*%
%TO.N,unconnected-(U5-RI-Pad6)*%
X246680000Y-190170000D03*
%TO.P,U5,7,GND*%
%TO.N,GND*%
X246680000Y-192710000D03*
%TO.P,U5,8*%
%TO.N,N/C*%
X246680000Y-195250000D03*
%TO.P,U5,9,DCR*%
%TO.N,unconnected-(U5-DCR-Pad9)*%
X246680000Y-197790000D03*
%TO.P,U5,10,DCD*%
%TO.N,unconnected-(U5-DCD-Pad10)*%
X246680000Y-200330000D03*
%TO.P,U5,11,CTS*%
%TO.N,/converter/CTS_CONV*%
X246680000Y-202870000D03*
%TO.P,U5,12,CBUS4*%
%TO.N,unconnected-(U5-CBUS4-Pad12)*%
X246680000Y-205410000D03*
%TO.P,U5,13,CBUS2*%
%TO.N,Net-(D2-K)*%
X246680000Y-207950000D03*
%TO.P,U5,14,CBUS3*%
%TO.N,/converter/WAKE_UP*%
X246680000Y-210490000D03*
%TO.P,U5,15,USBD+*%
%TO.N,/converter/D+*%
X261920000Y-210490000D03*
%TO.P,U5,16,USBD-*%
%TO.N,/converter/D-*%
X261920000Y-207950000D03*
%TO.P,U5,17,3V3OUT*%
%TO.N,Net-(U5-3V3OUT)*%
X261920000Y-205410000D03*
%TO.P,U5,18,GND*%
%TO.N,GND*%
X261920000Y-202870000D03*
%TO.P,U5,19,~{RESET}*%
%TO.N,Net-(U5-~{RESET})*%
X261920000Y-200330000D03*
%TO.P,U5,20,VCC*%
%TO.N,VCC*%
X261920000Y-197790000D03*
%TO.P,U5,21,GND*%
%TO.N,GND*%
X261920000Y-195250000D03*
%TO.P,U5,22,CBUS1*%
%TO.N,Net-(D1-K)*%
X261920000Y-192710000D03*
%TO.P,U5,23,CBUS0*%
%TO.N,/converter/CLOCK*%
X261920000Y-190170000D03*
%TO.P,U5,24*%
%TO.N,N/C*%
X261920000Y-187630000D03*
%TO.P,U5,25,AGND*%
%TO.N,GND*%
X261920000Y-185090000D03*
%TO.P,U5,26,TEST*%
X261920000Y-182550000D03*
%TO.P,U5,27,OSCI*%
%TO.N,unconnected-(U5-OSCI-Pad27)*%
X261920000Y-180010000D03*
%TO.P,U5,28,OSCO*%
%TO.N,unconnected-(U5-OSCO-Pad28)*%
X261920000Y-177470000D03*
%TD*%
D21*
%TO.P,C25,1*%
%TO.N,VCC*%
X242500000Y-142500000D03*
%TO.P,C25,2*%
%TO.N,GND*%
X241540000Y-142500000D03*
%TD*%
D10*
%TO.P,J8,1,Pin_1*%
%TO.N,Net-(J8-Pin_1)*%
X117000000Y-133500000D03*
D11*
%TO.P,J8,2,Pin_2*%
%TO.N,/game/VIBRATOR*%
X117000000Y-136040000D03*
%TD*%
D16*
%TO.P,4.7uF1,1*%
%TO.N,VCC*%
X289545000Y-170980000D03*
%TO.P,4.7uF1,2*%
%TO.N,GND*%
X292045000Y-170980000D03*
%TD*%
D29*
%TO.P,C43,1*%
%TO.N,/converter/D+*%
X263295000Y-214480000D03*
%TO.P,C43,2*%
%TO.N,GND*%
X263295000Y-219480000D03*
%TD*%
D16*
%TO.P,47uF1,1*%
%TO.N,Net-(D6-A)*%
X220500000Y-87750000D03*
%TO.P,47uF1,2*%
%TO.N,GND*%
X220500000Y-85250000D03*
%TD*%
D40*
%TO.P,TPS75533KCG3,1,EN*%
%TO.N,REG_EN_LOW*%
X273900000Y-95500000D03*
D41*
%TO.P,TPS75533KCG3,2,IN_VCC*%
%TO.N,VCC*%
X275600000Y-95500000D03*
%TO.P,TPS75533KCG3,3,GND*%
%TO.N,GND*%
X277300000Y-95500000D03*
%TO.P,TPS75533KCG3,4,OUTPUT*%
%TO.N,Net-(D5-A)*%
X279000000Y-95500000D03*
%TO.P,TPS75533KCG3,5,FB/PG*%
%TO.N,PG*%
X280700000Y-95500000D03*
%TD*%
D16*
%TO.P,R41,1*%
%TO.N,Net-(J8-Pin_1)*%
X117000000Y-128580000D03*
%TO.P,R41,2*%
%TO.N,GND*%
X117000000Y-118420000D03*
%TD*%
D18*
%TO.P,WP_SHIFTER1,1,VCCA*%
%TO.N,Net-(WP_SHIFTER1-VCCA)*%
X185820000Y-142170000D03*
D16*
%TO.P,WP_SHIFTER1,2,A1*%
%TO.N,/game/FLASH_WP*%
X185820000Y-144710000D03*
%TO.P,WP_SHIFTER1,3,A3*%
%TO.N,unconnected-(WP_SHIFTER1-A3-Pad3)*%
X185820000Y-147250000D03*
%TO.P,WP_SHIFTER1,4,GND*%
%TO.N,GND*%
X185820000Y-149790000D03*
%TO.P,WP_SHIFTER1,5,DIR*%
%TO.N,/game/DIR_MCU_T_FLASH*%
X193440000Y-149790000D03*
%TO.P,WP_SHIFTER1,6,B2*%
%TO.N,unconnected-(WP_SHIFTER1-B2-Pad6)*%
X193440000Y-147250000D03*
%TO.P,WP_SHIFTER1,7,B1*%
%TO.N,/game/WP*%
X193440000Y-144710000D03*
%TO.P,WP_SHIFTER1,8,VCCB*%
%TO.N,3.3V*%
X193440000Y-142170000D03*
%TD*%
%TO.P,R42,1*%
%TO.N,/game/DIR_MCU_T_FLASH*%
X144500000Y-93500000D03*
%TO.P,R42,2*%
%TO.N,VCC*%
X134340000Y-93500000D03*
%TD*%
D40*
%TO.P,TPS75533KCG1,1,EN*%
%TO.N,REG_EN_LOW*%
X210100000Y-95950000D03*
D41*
%TO.P,TPS75533KCG1,2,IN_VCC*%
%TO.N,VCC*%
X211800000Y-95950000D03*
%TO.P,TPS75533KCG1,3,GND*%
%TO.N,GND*%
X213500000Y-95950000D03*
%TO.P,TPS75533KCG1,4,OUTPUT*%
%TO.N,Net-(D6-A)*%
X215200000Y-95950000D03*
%TO.P,TPS75533KCG1,5,FB/PG*%
%TO.N,PG*%
X216900000Y-95950000D03*
%TD*%
D27*
%TO.P,C13,1*%
%TO.N,Net-(U5-3V3OUT)*%
X267915000Y-205180000D03*
%TO.P,C13,2*%
%TO.N,GND*%
X268875000Y-205180000D03*
%TD*%
D18*
%TO.P,MOSI_CLK_SHIFTER1,1,VCCA*%
%TO.N,Net-(MOSI_CLK_SHIFTER1-VCCA)*%
X186090000Y-109190000D03*
D16*
%TO.P,MOSI_CLK_SHIFTER1,2,A1*%
%TO.N,/game/MOSI_GAME*%
X186090000Y-111730000D03*
%TO.P,MOSI_CLK_SHIFTER1,3,A3*%
%TO.N,/game/SCK_GAME*%
X186090000Y-114270000D03*
%TO.P,MOSI_CLK_SHIFTER1,4,GND*%
%TO.N,GND*%
X186090000Y-116810000D03*
%TO.P,MOSI_CLK_SHIFTER1,5,DIR*%
%TO.N,/game/DIR_MCU_T_FLASH*%
X193710000Y-116810000D03*
%TO.P,MOSI_CLK_SHIFTER1,6,B2*%
%TO.N,/game/SCK*%
X193710000Y-114270000D03*
%TO.P,MOSI_CLK_SHIFTER1,7,B1*%
%TO.N,/game/MOSI*%
X193710000Y-111730000D03*
%TO.P,MOSI_CLK_SHIFTER1,8,VCCB*%
%TO.N,3.3V*%
X193710000Y-109190000D03*
%TD*%
D27*
%TO.P,C8,1*%
%TO.N,VCC*%
X180540000Y-214000000D03*
%TO.P,C8,2*%
%TO.N,GND*%
X181500000Y-214000000D03*
%TD*%
D19*
%TO.P,D7,1,K*%
%TO.N,Net-(D7-K)*%
X214500000Y-85230000D03*
D20*
%TO.P,D7,2,A*%
%TO.N,Net-(D6-A)*%
X214500000Y-87770000D03*
%TD*%
D10*
%TO.P,J18,1,Pin_1*%
%TO.N,/grid/SRAM_CS*%
X241270000Y-129220000D03*
D11*
%TO.P,J18,2,Pin_2*%
%TO.N,/grid/PB2*%
X241270000Y-131760000D03*
%TO.P,J18,3,Pin_3*%
%TO.N,/grid/MOSI_GRID*%
X241270000Y-134300000D03*
%TO.P,J18,4,Pin_4*%
%TO.N,/grid/MISO_GRID*%
X241270000Y-136840000D03*
%TO.P,J18,5,Pin_5*%
%TO.N,/grid/SCK_GRID*%
X241270000Y-139380000D03*
%TD*%
D16*
%TO.P,R23,1*%
%TO.N,/grid/RESET_GRID*%
X255635000Y-166480000D03*
D17*
%TO.P,R23,2*%
%TO.N,VCC*%
X265795000Y-166480000D03*
%TD*%
D27*
%TO.P,C34,1*%
%TO.N,3.3V*%
X196520000Y-125000000D03*
%TO.P,C34,2*%
%TO.N,GND*%
X197480000Y-125000000D03*
%TD*%
D19*
%TO.P,D4,1,K*%
%TO.N,Net-(D4-K)*%
X249100000Y-88280000D03*
D20*
%TO.P,D4,2,A*%
%TO.N,Net-(D4-A)*%
X249100000Y-90820000D03*
%TD*%
D10*
%TO.P,J16,1,Pin_1*%
%TO.N,/grid/RESET_GRID*%
X261270000Y-162460000D03*
D11*
%TO.P,J16,2,Pin_2*%
%TO.N,/grid/RXD_GRID*%
X261270000Y-159920000D03*
%TO.P,J16,3,Pin_3*%
%TO.N,/grid/TXD_GRID*%
X261270000Y-157380000D03*
%TO.P,J16,4,Pin_4*%
%TO.N,/grid/PD2*%
X261270000Y-154840000D03*
%TO.P,J16,5,Pin_5*%
%TO.N,/grid/PD3*%
X261270000Y-152300000D03*
%TO.P,J16,6,Pin_6*%
%TO.N,/grid/USART_CLK*%
X261270000Y-149760000D03*
%TD*%
D16*
%TO.P,R17,1*%
%TO.N,/game/FLASH_HOLD*%
X159715000Y-121980000D03*
D17*
%TO.P,R17,2*%
%TO.N,VCC*%
X169875000Y-121980000D03*
%TD*%
D21*
%TO.P,C21,1*%
%TO.N,VCC*%
X137350000Y-137140000D03*
%TO.P,C21,2*%
%TO.N,GND*%
X136390000Y-137140000D03*
%TD*%
D16*
%TO.P,R10,1*%
%TO.N,/game/J_UP*%
X130715000Y-234040000D03*
D17*
%TO.P,R10,2*%
%TO.N,VCC*%
X140875000Y-234040000D03*
%TD*%
D16*
%TO.P,R57,1*%
%TO.N,VCC*%
X244680000Y-90550000D03*
%TO.P,R57,2*%
%TO.N,REG_EN_LOW*%
X234520000Y-90550000D03*
%TD*%
D10*
%TO.P,J24,1,Pin_1*%
%TO.N,/programmer/PB1*%
X219915000Y-230060000D03*
D11*
%TO.P,J24,2,Pin_2*%
%TO.N,/programmer/PB2*%
X219915000Y-227520000D03*
%TO.P,J24,3,Pin_3*%
%TO.N,/programmer/MOSI*%
X219915000Y-224980000D03*
%TO.P,J24,4,Pin_4*%
%TO.N,/programmer/MISO*%
X219915000Y-222440000D03*
%TO.P,J24,5,Pin_5*%
%TO.N,/programmer/SCK*%
X219915000Y-219900000D03*
%TD*%
D18*
%TO.P,CS_HOLD_SHIFTER1,1,VCCA*%
%TO.N,Net-(CS_HOLD_SHIFTER1-VCCA)*%
X185695000Y-125190000D03*
D16*
%TO.P,CS_HOLD_SHIFTER1,2,A1*%
%TO.N,/game/FLASH_CS*%
X185695000Y-127730000D03*
%TO.P,CS_HOLD_SHIFTER1,3,A3*%
%TO.N,/game/FLASH_HOLD*%
X185695000Y-130270000D03*
%TO.P,CS_HOLD_SHIFTER1,4,GND*%
%TO.N,GND*%
X185695000Y-132810000D03*
%TO.P,CS_HOLD_SHIFTER1,5,DIR*%
%TO.N,/game/DIR_MCU_T_FLASH*%
X193315000Y-132810000D03*
%TO.P,CS_HOLD_SHIFTER1,6,B2*%
%TO.N,/game/HOLD*%
X193315000Y-130270000D03*
%TO.P,CS_HOLD_SHIFTER1,7,B1*%
%TO.N,/game/CS*%
X193315000Y-127730000D03*
%TO.P,CS_HOLD_SHIFTER1,8,VCCB*%
%TO.N,3.3V*%
X193315000Y-125190000D03*
%TD*%
D42*
%TO.P,U2,1,~{RESET}/PC6*%
%TO.N,/game/RESET_GAME*%
X149875000Y-155550000D03*
D16*
%TO.P,U2,2,PD0*%
%TO.N,/game/RXD_GAME*%
X149875000Y-153010000D03*
%TO.P,U2,3,PD1*%
%TO.N,/game/TXD_GAME*%
X149875000Y-150470000D03*
%TO.P,U2,4,PD2*%
%TO.N,/game/J_UP*%
X149875000Y-147930000D03*
%TO.P,U2,5,PD3*%
%TO.N,/game/J_DOWN*%
X149875000Y-145390000D03*
%TO.P,U2,6,PD4*%
%TO.N,/game/J_LEFT*%
X149875000Y-142850000D03*
%TO.P,U2,7,VCC*%
%TO.N,VCC*%
X149875000Y-140310000D03*
%TO.P,U2,8,GND*%
%TO.N,GND*%
X149875000Y-137770000D03*
%TO.P,U2,9,XTAL1/PB6*%
%TO.N,Net-(U2-XTAL1{slash}PB6)*%
X149875000Y-135230000D03*
%TO.P,U2,10,XTAL2/PB7*%
%TO.N,Net-(U2-XTAL2{slash}PB7)*%
X149875000Y-132690000D03*
%TO.P,U2,11,PD5*%
%TO.N,/game/BUZZER_PWM*%
X149875000Y-130150000D03*
%TO.P,U2,12,PD6*%
%TO.N,/game/B_START*%
X149875000Y-127610000D03*
%TO.P,U2,13,PD7*%
%TO.N,/game/B_STOP*%
X149875000Y-125070000D03*
%TO.P,U2,14,PB0*%
%TO.N,/game/FLASH_HOLD*%
X149875000Y-122530000D03*
%TO.P,U2,15,PB1*%
%TO.N,/game/FLASH_CS*%
X142255000Y-122530000D03*
%TO.P,U2,16,PB2*%
%TO.N,/game/PB2*%
X142255000Y-125070000D03*
%TO.P,U2,17,PB3*%
%TO.N,/game/MOSI_GAME*%
X142255000Y-127610000D03*
%TO.P,U2,18,PB4*%
%TO.N,/game/MISO_GAME*%
X142255000Y-130150000D03*
%TO.P,U2,19,PB5*%
%TO.N,/game/SCK_GAME*%
X142255000Y-132690000D03*
%TO.P,U2,20,AVCC*%
%TO.N,VCC*%
X142255000Y-135230000D03*
%TO.P,U2,21,AREF*%
X142255000Y-137770000D03*
%TO.P,U2,22,GND*%
%TO.N,GND*%
X142255000Y-140310000D03*
%TO.P,U2,23,PC0*%
%TO.N,/game/B_SELECT*%
X142255000Y-142850000D03*
%TO.P,U2,24,PC1*%
%TO.N,/game/FLASH_WP*%
X142255000Y-145390000D03*
%TO.P,U2,25,PC2*%
%TO.N,/game/J_RIGHT*%
X142255000Y-147930000D03*
%TO.P,U2,26,PC3*%
%TO.N,/game/VIBRATOR*%
X142255000Y-150470000D03*
%TO.P,U2,27,PC4*%
%TO.N,/game/SDA_GAME*%
X142255000Y-153010000D03*
%TO.P,U2,28,PC5*%
%TO.N,/game/SCL_GAME*%
X142255000Y-155550000D03*
%TD*%
D10*
%TO.P,J20,1,Pin_1*%
%TO.N,/game/SCL_GAME*%
X241270000Y-162500000D03*
D11*
%TO.P,J20,2,Pin_2*%
%TO.N,/game/SDA_GAME*%
X241270000Y-159960000D03*
%TO.P,J20,3,Pin_3*%
%TO.N,/grid/PC3*%
X241270000Y-157420000D03*
%TO.P,J20,4,Pin_4*%
%TO.N,/grid/PC2*%
X241270000Y-154880000D03*
%TO.P,J20,5,Pin_5*%
%TO.N,/grid/PC1*%
X241270000Y-152340000D03*
%TO.P,J20,6,Pin_6*%
%TO.N,/grid/B_SELECT*%
X241270000Y-149800000D03*
%TD*%
D16*
%TO.P,R32,1*%
%TO.N,Net-(D2-A)*%
X235295000Y-206640000D03*
D17*
%TO.P,R32,2*%
%TO.N,VCC*%
X235295000Y-196480000D03*
%TD*%
D43*
%TO.P,J3,1,VBUS*%
%TO.N,Net-(J3-VBUS)*%
X290507500Y-221230000D03*
D16*
%TO.P,J3,2,D-*%
%TO.N,/converter/D-*%
X290507500Y-223730000D03*
%TO.P,J3,3,D+*%
%TO.N,/converter/D+*%
X292507500Y-223730000D03*
%TO.P,J3,4,GND*%
%TO.N,GND*%
X292507500Y-221230000D03*
D44*
%TO.P,J3,5,Shield*%
%TO.N,unconnected-(J3-Shield-Pad5)_1*%
X295367500Y-216480000D03*
%TO.N,unconnected-(J3-Shield-Pad5)*%
X295367500Y-228480000D03*
%TD*%
D10*
%TO.P,J21,1,Pin_1*%
%TO.N,/grid/SRAM_CS*%
X201915000Y-221980000D03*
D11*
%TO.P,J21,2,Pin_2*%
%TO.N,/converter/WAKE_UP*%
X201915000Y-224520000D03*
%TO.P,J21,3,Pin_3*%
%TO.N,/game/FLASH_CS*%
X201915000Y-227060000D03*
%TO.P,J21,4,Pin_4*%
%TO.N,/programmer/PB0*%
X201915000Y-229600000D03*
%TD*%
D43*
%TO.P,C17,1*%
%TO.N,Net-(U2-XTAL2{slash}PB7)*%
X161755000Y-132390000D03*
D16*
%TO.P,C17,2*%
%TO.N,GND*%
X164255000Y-132390000D03*
%TD*%
%TO.P,R54,1*%
%TO.N,Net-(D7-K)*%
X210580000Y-83500000D03*
%TO.P,R54,2*%
%TO.N,GND*%
X200420000Y-83500000D03*
%TD*%
%TO.P,R4,1*%
%TO.N,Net-(U5-~{RESET})*%
X278795000Y-197980000D03*
D17*
%TO.P,R4,2*%
%TO.N,GND*%
X278795000Y-187820000D03*
%TD*%
D16*
%TO.P,R16,1*%
%TO.N,/game/J_RIGHT*%
X130715000Y-222540000D03*
D17*
%TO.P,R16,2*%
%TO.N,VCC*%
X140875000Y-222540000D03*
%TD*%
D16*
%TO.P,R56,1*%
%TO.N,VCC*%
X217000000Y-109580000D03*
%TO.P,R56,2*%
%TO.N,PG*%
X217000000Y-99420000D03*
%TD*%
%TO.P,R2,1*%
%TO.N,/programmer/GRID_SIGNAL*%
X188135000Y-169480000D03*
D17*
%TO.P,R2,2*%
%TO.N,GND*%
X198295000Y-169480000D03*
%TD*%
D11*
%TO.P,Y2,1,1*%
%TO.N,Net-(U2-XTAL1{slash}PB6)*%
X157755000Y-138390000D03*
%TO.P,Y2,2,2*%
%TO.N,Net-(U2-XTAL2{slash}PB7)*%
X157755000Y-133390000D03*
%TD*%
D10*
%TO.P,J14,1,Pin_1*%
%TO.N,/game/FLASH_CS*%
X136255000Y-122230000D03*
D11*
%TO.P,J14,2,Pin_2*%
%TO.N,/game/PB2*%
X136255000Y-124770000D03*
%TO.P,J14,3,Pin_3*%
%TO.N,/game/MOSI_GAME*%
X136255000Y-127310000D03*
%TO.P,J14,4,Pin_4*%
%TO.N,/game/MISO_GAME*%
X136255000Y-129850000D03*
%TO.P,J14,5,Pin_5*%
%TO.N,/game/SCK_GAME*%
X136255000Y-132390000D03*
%TD*%
D43*
%TO.P,C27,1*%
%TO.N,Net-(U1-XTAL1{slash}PB6)*%
X270270000Y-143800000D03*
D16*
%TO.P,C27,2*%
%TO.N,GND*%
X272770000Y-143800000D03*
%TD*%
%TO.P,R40,1*%
%TO.N,Net-(BZ1--)*%
X116000000Y-105420000D03*
%TO.P,R40,2*%
%TO.N,GND*%
X116000000Y-115580000D03*
%TD*%
D35*
%TO.P,C37,1*%
%TO.N,Net-(CS_HOLD_SHIFTER1-VCCA)*%
X181500000Y-124960000D03*
%TO.P,C37,2*%
%TO.N,GND*%
X181500000Y-124000000D03*
%TD*%
D10*
%TO.P,J13,1,Pin_1*%
%TO.N,/grid/PD5*%
X261270000Y-137110000D03*
D11*
%TO.P,J13,2,Pin_2*%
%TO.N,/grid/PD6*%
X261270000Y-134570000D03*
%TO.P,J13,3,Pin_3*%
%TO.N,/grid/PD7*%
X261270000Y-132030000D03*
%TO.P,J13,4,Pin_4*%
%TO.N,/grid/SRAM_HOLD*%
X261270000Y-129490000D03*
%TD*%
D21*
%TO.P,C26,1*%
%TO.N,VCC*%
X242500000Y-145500000D03*
%TO.P,C26,2*%
%TO.N,GND*%
X241540000Y-145500000D03*
%TD*%
D27*
%TO.P,C24,1*%
%TO.N,VCC*%
X260020000Y-146000000D03*
%TO.P,C24,2*%
%TO.N,GND*%
X260980000Y-146000000D03*
%TD*%
D10*
%TO.P,J5,1,Pin_1*%
%TO.N,GND*%
X227770000Y-179005000D03*
D11*
%TO.P,J5,2,Pin_2*%
%TO.N,/converter/RXD_CONV*%
X227770000Y-176465000D03*
%TO.P,J5,3,Pin_3*%
%TO.N,/converter/TXD_CONV*%
X227770000Y-173925000D03*
%TD*%
D16*
%TO.P,R20,1*%
%TO.N,VCC*%
X257955000Y-123480000D03*
D17*
%TO.P,R20,2*%
%TO.N,/grid/SRAM_CS*%
X247795000Y-123480000D03*
%TD*%
D43*
%TO.P,C3,1*%
%TO.N,Net-(U3-PB7{slash}XTAL2)*%
X192415000Y-220020000D03*
D16*
%TO.P,C3,2*%
%TO.N,GND*%
X189915000Y-220020000D03*
%TD*%
%TO.P,R44,1*%
%TO.N,VCC*%
X134420000Y-90000000D03*
%TO.P,R44,2*%
%TO.N,Net-(U10-A2)*%
X144580000Y-90000000D03*
%TD*%
D10*
%TO.P,J12,1,Pin_1*%
%TO.N,Net-(J12-Pin_1)*%
X273335000Y-157480000D03*
D11*
%TO.P,J12,2,Pin_2*%
%TO.N,/grid/TXD_GRID*%
X270795000Y-157480000D03*
%TD*%
D16*
%TO.P,R35,1*%
%TO.N,VCC*%
X202295000Y-182320000D03*
D17*
%TO.P,R35,2*%
%TO.N,/programmer/RESET_PROG*%
X202295000Y-192480000D03*
%TD*%
D18*
%TO.P,U6,1*%
%TO.N,/programmer/MISO*%
X169305000Y-189400000D03*
D16*
%TO.P,U6,2*%
%TO.N,/grid/MISO_GRID*%
X169305000Y-191940000D03*
%TO.P,U6,3*%
%TO.N,/game/MISO_GAME*%
X169305000Y-194480000D03*
%TO.P,U6,4*%
%TO.N,/programmer/MISO*%
X169305000Y-197020000D03*
%TO.P,U6,5*%
%TO.N,/programmer/GAME_SIGNAL*%
X169305000Y-199560000D03*
%TO.P,U6,6*%
%TO.N,/programmer/EXT_SIGNAL*%
X169305000Y-202100000D03*
%TO.P,U6,7,V_{SS}*%
%TO.N,GND*%
X169305000Y-204640000D03*
%TO.P,U6,8*%
%TO.N,/programmer/MISO*%
X176925000Y-204640000D03*
%TO.P,U6,9*%
%TO.N,/programmer/MISO_EXT*%
X176925000Y-202100000D03*
%TO.P,U6,10*%
%TO.N,unconnected-(U6-Pad10)*%
X176925000Y-199560000D03*
%TO.P,U6,11*%
%TO.N,unconnected-(U6-Pad11)*%
X176925000Y-197020000D03*
%TO.P,U6,12*%
%TO.N,unconnected-(U6-Pad12)*%
X176925000Y-194480000D03*
%TO.P,U6,13*%
%TO.N,/programmer/GRID_SIGNAL*%
X176925000Y-191940000D03*
%TO.P,U6,14,V_{DD}*%
%TO.N,VCC*%
X176925000Y-189400000D03*
%TD*%
%TO.P,R34,1*%
%TO.N,Net-(D3-K)*%
X283295000Y-177060000D03*
D17*
%TO.P,R34,2*%
%TO.N,GND*%
X283295000Y-166900000D03*
%TD*%
D10*
%TO.P,J26,1,Pin_1*%
%TO.N,/game/B_START*%
X127000000Y-184000000D03*
D11*
%TO.P,J26,2,Pin_2*%
%TO.N,GND*%
X127000000Y-186540000D03*
%TD*%
D16*
%TO.P,R36,1*%
%TO.N,Net-(D4-K)*%
X244680000Y-86050000D03*
%TO.P,R36,2*%
%TO.N,GND*%
X234520000Y-86050000D03*
%TD*%
%TO.P,R25,1*%
%TO.N,/game/CS*%
X206715000Y-115480000D03*
D17*
%TO.P,R25,2*%
%TO.N,VCC*%
X216875000Y-115480000D03*
%TD*%
D10*
%TO.P,J7,1,Pin_1*%
%TO.N,GND*%
X288000000Y-157460000D03*
D11*
%TO.P,J7,2,Pin_2*%
%TO.N,/grid/TXD_GRID*%
X288000000Y-160000000D03*
%TO.P,J7,3,Pin_3*%
%TO.N,/grid/RXD_GRID*%
X288000000Y-162540000D03*
%TD*%
D43*
%TO.P,C1,1*%
%TO.N,Net-(U3-PB6{slash}XTAL1)*%
X192415000Y-213020000D03*
D16*
%TO.P,C1,2*%
%TO.N,GND*%
X189915000Y-213020000D03*
%TD*%
D10*
%TO.P,J9,1,Pin_1*%
%TO.N,/game/J_UP*%
X126795000Y-230120000D03*
D11*
%TO.P,J9,2,Pin_2*%
%TO.N,/game/J_DOWN*%
X126795000Y-227580000D03*
%TO.P,J9,3,Pin_3*%
%TO.N,/game/J_LEFT*%
X126795000Y-225040000D03*
%TO.P,J9,4,Pin_4*%
%TO.N,/game/J_RIGHT*%
X126795000Y-222500000D03*
%TO.P,J9,5,Pin_5*%
%TO.N,GND*%
X126795000Y-219960000D03*
%TD*%
D16*
%TO.P,R46,1*%
%TO.N,Net-(U10-~{INT})*%
X158920000Y-93500000D03*
%TO.P,R46,2*%
%TO.N,VCC*%
X169080000Y-93500000D03*
%TD*%
D25*
%TO.P,C41,1*%
%TO.N,Net-(23A1024/23LC1-SIO2)*%
X277500000Y-129500000D03*
%TO.P,C41,2*%
%TO.N,GND*%
X277500000Y-130460000D03*
%TD*%
D43*
%TO.P,C18,1*%
%TO.N,Net-(U2-XTAL1{slash}PB6)*%
X162255000Y-139890000D03*
D16*
%TO.P,C18,2*%
%TO.N,GND*%
X164755000Y-139890000D03*
%TD*%
D29*
%TO.P,C42,1*%
%TO.N,/converter/D-*%
X256795000Y-214480000D03*
%TO.P,C42,2*%
%TO.N,GND*%
X256795000Y-219480000D03*
%TD*%
D35*
%TO.P,C30,1*%
%TO.N,VCC*%
X222000000Y-119960000D03*
%TO.P,C30,2*%
%TO.N,GND*%
X222000000Y-119000000D03*
%TD*%
%TO.P,C32,1*%
%TO.N,Net-(MISO_SHIFTER1-VCCA)*%
X207860000Y-152420000D03*
%TO.P,C32,2*%
%TO.N,GND*%
X207860000Y-151460000D03*
%TD*%
D16*
%TO.P,R31,1*%
%TO.N,Net-(D1-A)*%
X275295000Y-187640000D03*
D17*
%TO.P,R31,2*%
%TO.N,VCC*%
X275295000Y-177480000D03*
%TD*%
D10*
%TO.P,J15,1,Pin_1*%
%TO.N,/game/BUZZER_PWM*%
X155755000Y-129430000D03*
D11*
%TO.P,J15,2,Pin_2*%
%TO.N,/game/B_START*%
X155755000Y-126890000D03*
%TO.P,J15,3,Pin_3*%
%TO.N,/game/B_STOP*%
X155755000Y-124350000D03*
%TO.P,J15,4,Pin_4*%
%TO.N,/game/FLASH_HOLD*%
X155755000Y-121810000D03*
%TD*%
D16*
%TO.P,R26,1*%
%TO.N,/game/WP*%
X197135000Y-144980000D03*
D17*
%TO.P,R26,2*%
%TO.N,GND*%
X207295000Y-144980000D03*
%TD*%
D16*
%TO.P,R11,1*%
%TO.N,/game/B_SELECT*%
X130715000Y-207540000D03*
D17*
%TO.P,R11,2*%
%TO.N,VCC*%
X140875000Y-207540000D03*
%TD*%
D45*
%TO.P,J11,1,Pin_1*%
%TO.N,/programmer/MOSI_EXT*%
X253295000Y-226440000D03*
D11*
%TO.P,J11,2,Pin_2*%
%TO.N,VCC*%
X253295000Y-228980000D03*
%TO.P,J11,3,Pin_3*%
%TO.N,GND*%
X250755000Y-226440000D03*
%TO.P,J11,4,Pin_4*%
X250755000Y-228980000D03*
%TO.P,J11,5,Pin_5*%
%TO.N,/programmer/RESET_PROG*%
X248215000Y-226440000D03*
%TO.P,J11,6,Pin_6*%
%TO.N,GND*%
X248215000Y-228980000D03*
%TO.P,J11,7,Pin_7*%
%TO.N,/programmer/SCK_EXT*%
X245675000Y-226440000D03*
%TO.P,J11,8,Pin_8*%
%TO.N,GND*%
X245675000Y-228980000D03*
%TO.P,J11,9,Pin_9*%
%TO.N,/programmer/MISO_EXT*%
X243135000Y-226440000D03*
%TO.P,J11,10,Pin_10*%
%TO.N,GND*%
X243135000Y-228980000D03*
%TD*%
D27*
%TO.P,C5,1*%
%TO.N,VCC*%
X218540000Y-215500000D03*
%TO.P,C5,2*%
%TO.N,GND*%
X219500000Y-215500000D03*
%TD*%
D16*
%TO.P,220uF1,1*%
%TO.N,VCC*%
X297795000Y-171730000D03*
%TO.P,220uF1,2*%
%TO.N,GND*%
X297795000Y-169230000D03*
%TD*%
%TO.P,R9,1*%
%TO.N,/game/SCL_GAME*%
X131215000Y-175240000D03*
D17*
%TO.P,R9,2*%
%TO.N,VCC*%
X141375000Y-175240000D03*
%TD*%
D36*
%TO.P,SW2,1,1*%
%TO.N,/grid/RESET_GRID*%
X191250000Y-200000000D03*
D37*
%TO.P,SW2,2,2*%
%TO.N,GND*%
X184750000Y-200000000D03*
%TD*%
D16*
%TO.P,R12,1*%
%TO.N,/game/B_STOP*%
X130635000Y-193980000D03*
D17*
%TO.P,R12,2*%
%TO.N,VCC*%
X140795000Y-193980000D03*
%TD*%
D16*
%TO.P,R3,1*%
%TO.N,/programmer/GAME_SIGNAL*%
X161295000Y-175980000D03*
D17*
%TO.P,R3,2*%
%TO.N,GND*%
X151135000Y-175980000D03*
%TD*%
D16*
%TO.P,R14,1*%
%TO.N,/game/J_DOWN*%
X130635000Y-230040000D03*
D17*
%TO.P,R14,2*%
%TO.N,VCC*%
X140795000Y-230040000D03*
%TD*%
D35*
%TO.P,C38,1*%
%TO.N,Net-(WP_SHIFTER1-VCCA)*%
X180295000Y-142460000D03*
%TO.P,C38,2*%
%TO.N,GND*%
X180295000Y-141500000D03*
%TD*%
D43*
%TO.P,C28,1*%
%TO.N,Net-(U1-XTAL2{slash}PB7)*%
X270270000Y-136800000D03*
D16*
%TO.P,C28,2*%
%TO.N,GND*%
X272770000Y-136800000D03*
%TD*%
%TO.P,R15,1*%
%TO.N,/game/J_LEFT*%
X130715000Y-226040000D03*
D17*
%TO.P,R15,2*%
%TO.N,VCC*%
X140875000Y-226040000D03*
%TD*%
D35*
%TO.P,C4,1*%
%TO.N,VCC*%
X219000000Y-213480000D03*
%TO.P,C4,2*%
%TO.N,GND*%
X219000000Y-212520000D03*
%TD*%
D16*
%TO.P,R43,1*%
%TO.N,/game/DIR_FLASH_T_MCU*%
X144580000Y-97000000D03*
%TO.P,R43,2*%
%TO.N,VCC*%
X134420000Y-97000000D03*
%TD*%
%TO.P,R38,1*%
%TO.N,VCC*%
X249600000Y-112630000D03*
%TO.P,R38,2*%
%TO.N,PG*%
X249600000Y-102470000D03*
%TD*%
D21*
%TO.P,C2,1*%
%TO.N,GND*%
X296275000Y-180980000D03*
%TO.P,C2,2*%
%TO.N,VCC*%
X295315000Y-180980000D03*
%TD*%
D11*
%TO.P,Y1,1,1*%
%TO.N,Net-(U3-PB7{slash}XTAL2)*%
X196915000Y-218470000D03*
%TO.P,Y1,2,2*%
%TO.N,Net-(U3-PB6{slash}XTAL1)*%
X196915000Y-213470000D03*
%TD*%
D10*
%TO.P,J22,1,Pin_1*%
%TO.N,/programmer/RESET_PROG*%
X201915000Y-196940000D03*
D11*
%TO.P,J22,2,Pin_2*%
%TO.N,/programmer/RXD*%
X201915000Y-199480000D03*
%TO.P,J22,3,Pin_3*%
%TO.N,/programmer/TXD*%
X201915000Y-202020000D03*
%TO.P,J22,4,Pin_4*%
%TO.N,/grid/RESET_GRID*%
X201915000Y-204560000D03*
%TO.P,J22,5,Pin_5*%
%TO.N,/game/RESET_GAME*%
X201915000Y-207100000D03*
%TO.P,J22,6,Pin_6*%
%TO.N,/game/FLASH_CS*%
X201915000Y-209640000D03*
%TD*%
D42*
%TO.P,U1,1,~{RESET}/PC6*%
%TO.N,/grid/RESET_GRID*%
X255390000Y-162380000D03*
D16*
%TO.P,U1,2,PD0*%
%TO.N,/grid/RXD_GRID*%
X255390000Y-159840000D03*
%TO.P,U1,3,PD1*%
%TO.N,/grid/TXD_GRID*%
X255390000Y-157300000D03*
%TO.P,U1,4,PD2*%
%TO.N,/grid/PD2*%
X255390000Y-154760000D03*
%TO.P,U1,5,PD3*%
%TO.N,/grid/PD3*%
X255390000Y-152220000D03*
%TO.P,U1,6,PD4*%
%TO.N,/grid/USART_CLK*%
X255390000Y-149680000D03*
%TO.P,U1,7,VCC*%
%TO.N,VCC*%
X255390000Y-147140000D03*
%TO.P,U1,8,GND*%
%TO.N,GND*%
X255390000Y-144600000D03*
%TO.P,U1,9,XTAL1/PB6*%
%TO.N,Net-(U1-XTAL1{slash}PB6)*%
X255390000Y-142060000D03*
%TO.P,U1,10,XTAL2/PB7*%
%TO.N,Net-(U1-XTAL2{slash}PB7)*%
X255390000Y-139520000D03*
%TO.P,U1,11,PD5*%
%TO.N,/grid/PD5*%
X255390000Y-136980000D03*
%TO.P,U1,12,PD6*%
%TO.N,/grid/PD6*%
X255390000Y-134440000D03*
%TO.P,U1,13,PD7*%
%TO.N,/grid/PD7*%
X255390000Y-131900000D03*
%TO.P,U1,14,PB0*%
%TO.N,/grid/SRAM_HOLD*%
X255390000Y-129360000D03*
%TO.P,U1,15,PB1*%
%TO.N,/grid/SRAM_CS*%
X247770000Y-129360000D03*
%TO.P,U1,16,PB2*%
%TO.N,/grid/PB2*%
X247770000Y-131900000D03*
%TO.P,U1,17,PB3*%
%TO.N,/grid/MOSI_GRID*%
X247770000Y-134440000D03*
%TO.P,U1,18,PB4*%
%TO.N,/grid/MISO_GRID*%
X247770000Y-136980000D03*
%TO.P,U1,19,PB5*%
%TO.N,/grid/SCK_GRID*%
X247770000Y-139520000D03*
%TO.P,U1,20,AVCC*%
%TO.N,VCC*%
X247770000Y-142060000D03*
%TO.P,U1,21,AREF*%
X247770000Y-144600000D03*
%TO.P,U1,22,GND*%
%TO.N,GND*%
X247770000Y-147140000D03*
%TO.P,U1,23,PC0*%
%TO.N,/grid/B_SELECT*%
X247770000Y-149680000D03*
%TO.P,U1,24,PC1*%
%TO.N,/grid/PC1*%
X247770000Y-152220000D03*
%TO.P,U1,25,PC2*%
%TO.N,/grid/PC2*%
X247770000Y-154760000D03*
%TO.P,U1,26,PC3*%
%TO.N,/grid/PC3*%
X247770000Y-157300000D03*
%TO.P,U1,27,PC4*%
%TO.N,/game/SDA_GAME*%
X247770000Y-159840000D03*
%TO.P,U1,28,PC5*%
%TO.N,/game/SCL_GAME*%
X247770000Y-162380000D03*
%TD*%
D27*
%TO.P,C35,1*%
%TO.N,3.3V*%
X220400000Y-153510000D03*
%TO.P,C35,2*%
%TO.N,GND*%
X221360000Y-153510000D03*
%TD*%
D19*
%TO.P,D1,1,K*%
%TO.N,Net-(D1-K)*%
X269755000Y-190980000D03*
D20*
%TO.P,D1,2,A*%
%TO.N,Net-(D1-A)*%
X272295000Y-190980000D03*
%TD*%
D16*
%TO.P,R45,1*%
%TO.N,VCC*%
X134420000Y-86500000D03*
%TO.P,R45,2*%
%TO.N,Net-(U10-A1)*%
X144580000Y-86500000D03*
%TD*%
D36*
%TO.P,SW3,1,1*%
%TO.N,/game/RESET_GAME*%
X163545000Y-156980000D03*
D37*
%TO.P,SW3,2,2*%
%TO.N,GND*%
X170045000Y-156980000D03*
%TD*%
D16*
%TO.P,R7,1*%
%TO.N,/game/SDA_GAME*%
X131215000Y-171740000D03*
D17*
%TO.P,R7,2*%
%TO.N,VCC*%
X141375000Y-171740000D03*
%TD*%
D40*
%TO.P,TPS75533KCG2,1,EN*%
%TO.N,REG_EN_LOW*%
X242700000Y-98500000D03*
D41*
%TO.P,TPS75533KCG2,2,IN_VCC*%
%TO.N,VCC*%
X244400000Y-98500000D03*
%TO.P,TPS75533KCG2,3,GND*%
%TO.N,GND*%
X246100000Y-98500000D03*
%TO.P,TPS75533KCG2,4,OUTPUT*%
%TO.N,Net-(D4-A)*%
X247800000Y-98500000D03*
%TO.P,TPS75533KCG2,5,FB/PG*%
%TO.N,PG*%
X249500000Y-98500000D03*
%TD*%
D16*
%TO.P,47uF2,1*%
%TO.N,Net-(D4-A)*%
X255000000Y-90250000D03*
%TO.P,47uF2,2*%
%TO.N,GND*%
X255000000Y-87750000D03*
%TD*%
D36*
%TO.P,SW4,1,1*%
%TO.N,/programmer/RESET_PROG*%
X198545000Y-192480000D03*
D37*
%TO.P,SW4,2,2*%
%TO.N,GND*%
X192045000Y-192480000D03*
%TD*%
D16*
%TO.P,R28,1*%
%TO.N,VCC*%
X210580000Y-87500000D03*
%TO.P,R28,2*%
%TO.N,REG_EN_LOW*%
X200420000Y-87500000D03*
%TD*%
D26*
%TO.P,D9,1,K*%
%TO.N,VCC_LED_GRID*%
X287000000Y-100810000D03*
D16*
%TO.P,D9,2,A*%
%TO.N,Net-(D5-A)*%
X287000000Y-93190000D03*
%TD*%
%TO.P,R24,1*%
%TO.N,/game/HOLD*%
X222255000Y-123830000D03*
D17*
%TO.P,R24,2*%
%TO.N,GND*%
X232415000Y-123830000D03*
%TD*%
D10*
%TO.P,J6,1,Pin_1*%
%TO.N,GND*%
X119000000Y-156460000D03*
D11*
%TO.P,J6,2,Pin_2*%
%TO.N,/game/TXD_GAME*%
X119000000Y-159000000D03*
%TO.P,J6,3,Pin_3*%
%TO.N,/game/RXD_GAME*%
X119000000Y-161540000D03*
%TD*%
D16*
%TO.P,R5,1*%
%TO.N,Net-(J3-VBUS)*%
X287375000Y-206480000D03*
D17*
%TO.P,R5,2*%
%TO.N,Net-(U5-~{RESET})*%
X277215000Y-206480000D03*
%TD*%
D21*
%TO.P,C36,1*%
%TO.N,Net-(MOSI_CLK_SHIFTER1-VCCA)*%
X183860000Y-106820000D03*
%TO.P,C36,2*%
%TO.N,GND*%
X182900000Y-106820000D03*
%TD*%
D16*
%TO.P,R8,1*%
%TO.N,/game/RESET_GAME*%
X150135000Y-159980000D03*
D17*
%TO.P,R8,2*%
%TO.N,VCC*%
X160295000Y-159980000D03*
%TD*%
D16*
%TO.P,R18,1*%
%TO.N,VCC*%
X121635000Y-120980000D03*
D17*
%TO.P,R18,2*%
%TO.N,/game/FLASH_CS*%
X131795000Y-120980000D03*
%TD*%
D16*
%TO.P,R30,1*%
%TO.N,VCC*%
X281500000Y-110000000D03*
%TO.P,R30,2*%
%TO.N,PG*%
X281500000Y-99840000D03*
%TD*%
D35*
%TO.P,C39,1*%
%TO.N,3.3V*%
X196660000Y-107760000D03*
%TO.P,C39,2*%
%TO.N,GND*%
X196660000Y-106800000D03*
%TD*%
D46*
%TO.N,GND*%
X184500000Y-214500000D03*
X293500000Y-210500000D03*
%TO.N,Net-(J3-VBUS)*%
X286500000Y-219500000D03*
%TO.N,GND*%
X296500000Y-201500000D03*
%TO.N,VCC*%
X284500000Y-189000000D03*
%TO.N,GND*%
X265000000Y-101000000D03*
X234500000Y-102000000D03*
X220000000Y-135000000D03*
%TO.N,VCC*%
X218000000Y-143500000D03*
%TO.N,GND*%
X221000000Y-115000000D03*
X295000000Y-118000000D03*
X263500000Y-146000000D03*
%TO.N,/game/MISO_GAME*%
X196500000Y-162000000D03*
X188000000Y-162000000D03*
%TO.N,/programmer/GAME_SIGNAL*%
X172500000Y-210500000D03*
%TO.N,GND*%
X239500000Y-144500000D03*
%TO.N,/grid/MISO_GRID*%
X234000000Y-153000000D03*
X230500000Y-158000000D03*
X208500000Y-180000000D03*
%TO.N,/grid/SCK_GRID*%
X201500000Y-159000000D03*
X195000000Y-159000000D03*
%TO.N,/game/SDA_GAME*%
X191500000Y-152500000D03*
X187000000Y-152500000D03*
X183000000Y-156000000D03*
%TO.N,/game/SCL_GAME*%
X186500000Y-160500000D03*
%TO.N,GND*%
X180500000Y-140000000D03*
X200000000Y-140000000D03*
X181000000Y-122000000D03*
X197500000Y-122500000D03*
%TO.N,/grid/MOSI_GRID*%
X166500000Y-212000000D03*
%TO.N,/game/FLASH_CS*%
X189000000Y-157500000D03*
X188000000Y-185500000D03*
%TO.N,/programmer/SCK_EXT*%
X239000000Y-221000000D03*
X235500000Y-219000000D03*
X229000000Y-192500000D03*
X224500000Y-192000000D03*
X214500000Y-181500000D03*
%TO.N,/programmer/MISO_EXT*%
X234000000Y-217000000D03*
%TO.N,GND*%
X239000000Y-184500000D03*
%TO.N,/programmer/GAME_SIGNAL*%
X163500000Y-224500000D03*
%TO.N,/grid/SRAM_CS*%
X224000000Y-189550000D03*
X216500000Y-194000000D03*
%TO.N,/programmer/SCK*%
X163000000Y-196500000D03*
%TO.N,GND*%
X183500000Y-189000000D03*
%TO.N,/game/RESET_GAME*%
X194500000Y-198000000D03*
X194500000Y-188500000D03*
%TO.N,GND*%
X202500000Y-97500000D03*
X197000000Y-105000000D03*
X181390000Y-106820000D03*
X183350000Y-164150000D03*
X222850000Y-153540000D03*
X205950000Y-152270000D03*
X168480000Y-145870000D03*
%TO.N,VCC*%
X138950000Y-137090000D03*
%TO.N,GND*%
X134190000Y-136170000D03*
%TO.N,VCC*%
X178980000Y-189500000D03*
D47*
%TO.N,/game/CS*%
X200000000Y-119500000D03*
X206000000Y-119500000D03*
%TO.N,/game/FLASH_CS*%
X197500000Y-226020000D03*
X200500000Y-213000000D03*
%TO.N,/game/RXD_GAME*%
X140295000Y-160480000D03*
X124500000Y-160480000D03*
%TO.N,/game/TXD_GAME*%
X125500000Y-157980000D03*
X140295000Y-157980000D03*
%TO.N,/game/J_RIGHT*%
X116500000Y-198000000D03*
X118500000Y-222000000D03*
%TO.N,/game/SCL_GAME*%
X122000000Y-174500000D03*
X178000000Y-84000000D03*
X111000000Y-174500000D03*
X173000000Y-88500000D03*
%TO.N,/game/SDA_GAME*%
X166000000Y-84000000D03*
X128000000Y-82000000D03*
X110500000Y-169500000D03*
X122000000Y-172000000D03*
%TO.N,/programmer/RESET_PROG*%
X226500000Y-189500000D03*
X230000000Y-209500000D03*
X216500000Y-188500000D03*
%TO.N,/programmer/MISO*%
X177500000Y-210000000D03*
X205500000Y-232000000D03*
%TO.N,/programmer/MOSI*%
X207500000Y-237500000D03*
X212000000Y-232000000D03*
%TO.N,/game/SCK_GAME*%
X173500000Y-119500000D03*
X124000000Y-140500000D03*
X153560000Y-170940000D03*
X177000000Y-117000000D03*
%TO.N,/game/MOSI_GAME*%
X171500000Y-118000000D03*
X109000000Y-128500000D03*
X176500000Y-114500000D03*
X164560000Y-218940000D03*
%TO.N,/game/MISO_GAME*%
X122500000Y-135000000D03*
X165500000Y-194500000D03*
%TO.N,/game/B_STOP*%
X117500000Y-166500000D03*
X161000000Y-125500000D03*
%TO.N,/game/B_START*%
X163000000Y-126500000D03*
X119000000Y-169500000D03*
%TO.N,/grid/RESET_GRID*%
X220500000Y-186000000D03*
X223000000Y-170500000D03*
%TO.N,/game/VIBRATOR*%
X117000000Y-142000000D03*
X122500000Y-150000000D03*
%TO.N,/game/FLASH_WP*%
X164500000Y-115000000D03*
X130500000Y-145000000D03*
X176000000Y-133500000D03*
X154500000Y-115000000D03*
%TO.N,/converter/RTS_CONV*%
X231500000Y-183000000D03*
X231500000Y-186500000D03*
%TO.N,/programmer/GRID_SIGNAL*%
X174500000Y-207500000D03*
X174500000Y-185500000D03*
%TO.N,/programmer/EXT_SIGNAL*%
X164500000Y-202000000D03*
%TO.N,/converter/WAKE_UP*%
X228000000Y-222000000D03*
X242000000Y-213000000D03*
%TO.N,/converter/CLOCK*%
X203000000Y-213000000D03*
X227000000Y-203500000D03*
%TO.N,/game/BUZZER_PWM*%
X139000000Y-117500000D03*
%TD*%
D48*
%TO.N,/game/BUZZER_PWM*%
X139000000Y-117500000D02*
X149000000Y-117500000D01*
X149000000Y-117500000D02*
X152500000Y-121000000D01*
X152500000Y-121000000D02*
X152500000Y-129000000D01*
X152500000Y-129000000D02*
X151350000Y-130150000D01*
X151350000Y-130150000D02*
X149875000Y-130150000D01*
%TO.N,Net-(U5-~{RESET})*%
X278795000Y-197980000D02*
X278795000Y-200730000D01*
X278795000Y-200730000D02*
X279545000Y-201480000D01*
%TO.N,GND*%
X184000000Y-215000000D02*
X184500000Y-214500000D01*
X182500000Y-215000000D02*
X184000000Y-215000000D01*
X181500000Y-214000000D02*
X182500000Y-215000000D01*
X182500000Y-215000000D02*
X182450000Y-215050000D01*
X182450000Y-215050000D02*
X182450000Y-217000000D01*
%TO.N,VCC*%
X180550000Y-217000000D02*
X180550000Y-214010000D01*
X180550000Y-214010000D02*
X180540000Y-214000000D01*
X177110000Y-213860000D02*
X180400000Y-213860000D01*
X180400000Y-213860000D02*
X180540000Y-214000000D01*
%TO.N,GND*%
X292507500Y-219507500D02*
X292000000Y-219000000D01*
X292507500Y-221230000D02*
X292507500Y-219507500D01*
X292000000Y-212000000D02*
X293500000Y-210500000D01*
X292000000Y-219000000D02*
X292000000Y-212000000D01*
%TO.N,Net-(J3-VBUS)*%
X288230000Y-221230000D02*
X286500000Y-219500000D01*
X290507500Y-221230000D02*
X288230000Y-221230000D01*
D49*
%TO.N,GND*%
X296295000Y-201295000D02*
X296500000Y-201500000D01*
X296295000Y-191437500D02*
X296295000Y-201295000D01*
%TO.N,VCC*%
X286937500Y-191437500D02*
X284500000Y-189000000D01*
X290295000Y-191437500D02*
X286937500Y-191437500D01*
D48*
%TO.N,GND*%
X296275000Y-180980000D02*
X296480000Y-180980000D01*
X296480000Y-180980000D02*
X297500000Y-182000000D01*
X297500000Y-182000000D02*
X297500000Y-183000000D01*
X297500000Y-183000000D02*
X293762500Y-186737500D01*
X293762500Y-186737500D02*
X293295000Y-186737500D01*
%TO.N,REG_EN_LOW*%
X210000000Y-81000000D02*
X223500000Y-81000000D01*
X234520000Y-90550000D02*
X234050000Y-90550000D01*
X234050000Y-90550000D02*
X224500000Y-81000000D01*
X224500000Y-81000000D02*
X223500000Y-81000000D01*
X200420000Y-87500000D02*
X203500000Y-87500000D01*
X203500000Y-87500000D02*
X210000000Y-81000000D01*
X223500000Y-81000000D02*
X256920000Y-81000000D01*
X256920000Y-81000000D02*
X263420000Y-87500000D01*
%TO.N,Net-(D4-K)*%
X244680000Y-86050000D02*
X246870000Y-86050000D01*
X246870000Y-86050000D02*
X249100000Y-88280000D01*
%TO.N,Net-(D7-K)*%
X210580000Y-83500000D02*
X212770000Y-83500000D01*
X212770000Y-83500000D02*
X214500000Y-85230000D01*
%TO.N,PG*%
X249030000Y-102470000D02*
X245500000Y-106000000D01*
X249600000Y-102470000D02*
X249030000Y-102470000D01*
X245500000Y-106000000D02*
X223580000Y-106000000D01*
X223580000Y-106000000D02*
X217000000Y-99420000D01*
X281500000Y-99840000D02*
X276660000Y-99840000D01*
X276660000Y-99840000D02*
X270000000Y-106500000D01*
X270000000Y-106500000D02*
X253630000Y-106500000D01*
X253630000Y-106500000D02*
X249600000Y-102470000D01*
X280700000Y-95500000D02*
X280700000Y-99040000D01*
X280700000Y-99040000D02*
X281500000Y-99840000D01*
%TO.N,REG_EN_LOW*%
X263420000Y-87500000D02*
X263420000Y-91470000D01*
X263420000Y-91470000D02*
X267500000Y-95550000D01*
D50*
%TO.N,Net-(D5-K)*%
X273580000Y-83500000D02*
X276500000Y-83500000D01*
X276500000Y-83500000D02*
X278000000Y-85000000D01*
%TO.N,Net-(D5-A)*%
X283500000Y-87500000D02*
X283500000Y-89690000D01*
X283500000Y-89690000D02*
X287000000Y-93190000D01*
X278000000Y-87540000D02*
X283460000Y-87540000D01*
X283460000Y-87540000D02*
X283500000Y-87500000D01*
X279000000Y-95500000D02*
X279000000Y-88540000D01*
X279000000Y-88540000D02*
X278000000Y-87540000D01*
%TO.N,Net-(D4-A)*%
X255000000Y-90250000D02*
X255000000Y-95140000D01*
X255000000Y-95140000D02*
X255100000Y-95240000D01*
X249100000Y-90820000D02*
X254430000Y-90820000D01*
X254430000Y-90820000D02*
X255000000Y-90250000D01*
X247800000Y-98500000D02*
X247800000Y-92120000D01*
X247800000Y-92120000D02*
X249100000Y-90820000D01*
%TO.N,Net-(D6-A)*%
X220500000Y-87750000D02*
X220500000Y-90190000D01*
X220500000Y-90190000D02*
X222000000Y-91690000D01*
X214500000Y-87770000D02*
X220480000Y-87770000D01*
X220480000Y-87770000D02*
X220500000Y-87750000D01*
X215200000Y-95950000D02*
X215200000Y-88470000D01*
X215200000Y-88470000D02*
X214500000Y-87770000D01*
D48*
%TO.N,PG*%
X216900000Y-95950000D02*
X216900000Y-99320000D01*
X216900000Y-99320000D02*
X217000000Y-99420000D01*
%TO.N,VCC*%
X275600000Y-95500000D02*
X275600000Y-96900000D01*
X275600000Y-96900000D02*
X271000000Y-101500000D01*
X271000000Y-101500000D02*
X269450000Y-101500000D01*
%TO.N,GND*%
X266000000Y-100000000D02*
X265000000Y-101000000D01*
X267500000Y-100000000D02*
X266000000Y-100000000D01*
X267500000Y-97450000D02*
X267500000Y-100000000D01*
X267500000Y-100000000D02*
X267500000Y-101450000D01*
X267500000Y-101450000D02*
X267550000Y-101500000D01*
%TO.N,REG_EN_LOW*%
X267500000Y-95550000D02*
X273850000Y-95550000D01*
X273850000Y-95550000D02*
X273900000Y-95500000D01*
%TO.N,PG*%
X249600000Y-102470000D02*
X249600000Y-98600000D01*
X249600000Y-98600000D02*
X249500000Y-98500000D01*
%TO.N,GND*%
X235100000Y-102000000D02*
X234500000Y-102000000D01*
X236100000Y-101000000D02*
X235100000Y-102000000D01*
%TO.N,REG_EN_LOW*%
X236100000Y-99100000D02*
X242100000Y-99100000D01*
X242100000Y-99100000D02*
X242700000Y-98500000D01*
X234520000Y-90550000D02*
X234520000Y-97520000D01*
X234520000Y-97520000D02*
X236100000Y-99100000D01*
%TO.N,3.3V*%
X193315000Y-125190000D02*
X193315000Y-125185000D01*
X193315000Y-125185000D02*
X196000000Y-122500000D01*
X196000000Y-122500000D02*
X196000000Y-120500000D01*
X196000000Y-120500000D02*
X198000000Y-118500000D01*
X198000000Y-118500000D02*
X198000000Y-111000000D01*
X198000000Y-111000000D02*
X196190000Y-109190000D01*
X196190000Y-109190000D02*
X193710000Y-109190000D01*
X193440000Y-142170000D02*
X197500000Y-138110000D01*
X197500000Y-138110000D02*
X197500000Y-129375000D01*
X197500000Y-129375000D02*
X193315000Y-125190000D01*
X198795000Y-141960000D02*
X209180000Y-141960000D01*
X209180000Y-141960000D02*
X218110000Y-150890000D01*
X218110000Y-154670000D02*
X218110000Y-150890000D01*
X218110000Y-150890000D02*
X222000000Y-147000000D01*
X226500000Y-147000000D02*
X229095000Y-144405000D01*
X222000000Y-147000000D02*
X226500000Y-147000000D01*
X229095000Y-144405000D02*
X229095000Y-139780000D01*
D50*
%TO.N,GND*%
X222795000Y-135205000D02*
X223000000Y-135000000D01*
X223000000Y-135000000D02*
X220000000Y-135000000D01*
%TO.N,VCC*%
X218000000Y-142280000D02*
X218000000Y-143500000D01*
X218870000Y-141410000D02*
X218000000Y-142280000D01*
%TO.N,3.3V*%
X230510000Y-133750000D02*
X230510000Y-138365000D01*
X230510000Y-138365000D02*
X229095000Y-139780000D01*
X222795000Y-139780000D02*
X229095000Y-139780000D01*
%TO.N,VCC*%
X218870000Y-141410000D02*
X219960000Y-142500000D01*
X219960000Y-142500000D02*
X222375000Y-142500000D01*
X222375000Y-142500000D02*
X222795000Y-142080000D01*
%TO.N,GND*%
X222795000Y-137480000D02*
X222795000Y-135205000D01*
X223000000Y-135000000D02*
X224000000Y-134000000D01*
X224000000Y-134000000D02*
X226500000Y-134000000D01*
X226750000Y-133750000D02*
X228610000Y-133750000D01*
X226500000Y-134000000D02*
X226750000Y-133750000D01*
X218870000Y-139510000D02*
X218870000Y-138130000D01*
X219520000Y-137480000D02*
X222795000Y-137480000D01*
X218870000Y-138130000D02*
X219520000Y-137480000D01*
D48*
X222000000Y-116000000D02*
X221000000Y-115000000D01*
X222500000Y-116000000D02*
X222000000Y-116000000D01*
X222000000Y-119000000D02*
X222000000Y-116500000D01*
X222000000Y-116500000D02*
X222500000Y-116000000D01*
X222500000Y-116000000D02*
X224000000Y-116000000D01*
%TO.N,VCC*%
X223040000Y-119960000D02*
X223500000Y-119500000D01*
X222000000Y-119960000D02*
X223040000Y-119960000D01*
X223500000Y-118400000D02*
X224000000Y-117900000D01*
X223500000Y-119500000D02*
X223500000Y-118400000D01*
X217915000Y-120480000D02*
X221480000Y-120480000D01*
X221480000Y-120480000D02*
X222000000Y-119960000D01*
%TO.N,/grid/SRAM_HOLD*%
X288525000Y-126030000D02*
X285530000Y-126030000D01*
X281000000Y-120000000D02*
X265615000Y-120000000D01*
X285530000Y-126030000D02*
X284000000Y-124500000D01*
X284000000Y-124500000D02*
X284000000Y-123000000D01*
X284000000Y-123000000D02*
X281000000Y-120000000D01*
X265615000Y-120000000D02*
X260635000Y-124980000D01*
%TO.N,GND*%
X295000000Y-120050000D02*
X295000000Y-118000000D01*
X292000000Y-120500000D02*
X292500000Y-120000000D01*
X292000000Y-121020000D02*
X292000000Y-120500000D01*
X292500000Y-120000000D02*
X292550000Y-120050000D01*
X292550000Y-120050000D02*
X295000000Y-120050000D01*
%TO.N,VCC*%
X292000000Y-121980000D02*
X294970000Y-121980000D01*
X294970000Y-121980000D02*
X295000000Y-121950000D01*
X288525000Y-123490000D02*
X290490000Y-123490000D01*
X290490000Y-123490000D02*
X292000000Y-121980000D01*
%TO.N,GND*%
X280905000Y-131110000D02*
X278150000Y-131110000D01*
X278150000Y-131110000D02*
X277500000Y-130460000D01*
%TO.N,Net-(23A1024/23LC1-SIO2)*%
X280905000Y-128570000D02*
X278430000Y-128570000D01*
X278430000Y-128570000D02*
X277500000Y-129500000D01*
%TO.N,/grid/MOSI_GRID*%
X247770000Y-134440000D02*
X250560000Y-134440000D01*
X250560000Y-134440000D02*
X251500000Y-133500000D01*
X251500000Y-133500000D02*
X251500000Y-129000000D01*
X251500000Y-129000000D02*
X253500000Y-127000000D01*
X269500000Y-132000000D02*
X275000000Y-132000000D01*
X253500000Y-127000000D02*
X264500000Y-127000000D01*
X264500000Y-127000000D02*
X269500000Y-132000000D01*
X275000000Y-132000000D02*
X278500000Y-135500000D01*
X278500000Y-135500000D02*
X286500000Y-135500000D01*
X286500000Y-135500000D02*
X288525000Y-133475000D01*
X288525000Y-133475000D02*
X288525000Y-131110000D01*
%TO.N,GND*%
X260980000Y-146000000D02*
X263500000Y-146000000D01*
X261950000Y-143500000D02*
X261950000Y-145030000D01*
X261950000Y-145030000D02*
X260980000Y-146000000D01*
%TO.N,VCC*%
X260050000Y-143500000D02*
X260050000Y-145970000D01*
X260050000Y-145970000D02*
X260020000Y-146000000D01*
X255390000Y-147140000D02*
X258880000Y-147140000D01*
X258880000Y-147140000D02*
X260020000Y-146000000D01*
%TO.N,Net-(D3-K)*%
X284255000Y-181980000D02*
X284255000Y-178020000D01*
X284255000Y-178020000D02*
X283295000Y-177060000D01*
%TO.N,VCC*%
X286795000Y-181980000D02*
X290520000Y-181980000D01*
X290520000Y-181980000D02*
X291520000Y-180980000D01*
X291520000Y-180980000D02*
X295315000Y-180980000D01*
%TO.N,GND*%
X261920000Y-202870000D02*
X268120000Y-202870000D01*
X268875000Y-203625000D02*
X268875000Y-205180000D01*
X268120000Y-202870000D02*
X268875000Y-203625000D01*
X261920000Y-195250000D02*
X268250000Y-195250000D01*
X268250000Y-195250000D02*
X268975000Y-195975000D01*
X268975000Y-195975000D02*
X268975000Y-197880000D01*
%TO.N,Net-(U5-3V3OUT)*%
X261920000Y-205410000D02*
X267685000Y-205410000D01*
X267685000Y-205410000D02*
X267915000Y-205180000D01*
%TO.N,VCC*%
X261920000Y-197790000D02*
X267925000Y-197790000D01*
X267925000Y-197790000D02*
X268015000Y-197880000D01*
%TO.N,/game/DIR_FLASH_T_MCU*%
X148010000Y-95870000D02*
X149870000Y-95870000D01*
X214000000Y-152500000D02*
X214000000Y-161500000D01*
X149870000Y-95870000D02*
X152000000Y-98000000D01*
X152000000Y-98000000D02*
X152000000Y-105000000D01*
X191000000Y-140000000D02*
X191000000Y-150000000D01*
X152000000Y-105000000D02*
X156500000Y-109500000D01*
X156500000Y-109500000D02*
X176000000Y-109500000D01*
X189500000Y-138500000D02*
X191000000Y-140000000D01*
X176000000Y-109500000D02*
X179000000Y-112500000D01*
X179000000Y-112500000D02*
X179000000Y-132500000D01*
X204000000Y-149500000D02*
X211000000Y-149500000D01*
X179000000Y-132500000D02*
X182000000Y-135500000D01*
X182000000Y-135500000D02*
X184000000Y-135500000D01*
X184000000Y-135500000D02*
X187000000Y-138500000D01*
X187000000Y-138500000D02*
X189500000Y-138500000D01*
X191000000Y-150000000D02*
X194000000Y-153000000D01*
X194000000Y-153000000D02*
X200500000Y-153000000D01*
X200500000Y-153000000D02*
X204000000Y-149500000D01*
X211000000Y-149500000D02*
X214000000Y-152500000D01*
X214000000Y-161500000D02*
X214790000Y-162290000D01*
X214790000Y-162290000D02*
X218110000Y-162290000D01*
%TO.N,/game/MISO_GAME*%
X196500000Y-162000000D02*
X202000000Y-162000000D01*
X206790000Y-157210000D02*
X210490000Y-157210000D01*
X202000000Y-162000000D02*
X206790000Y-157210000D01*
X169305000Y-194480000D02*
X171020000Y-194480000D01*
X171020000Y-194480000D02*
X172500000Y-193000000D01*
X172500000Y-193000000D02*
X172500000Y-164000000D01*
X172500000Y-164000000D02*
X174500000Y-162000000D01*
X174500000Y-162000000D02*
X188000000Y-162000000D01*
%TO.N,/programmer/GAME_SIGNAL*%
X169305000Y-199560000D02*
X168060000Y-199560000D01*
X168060000Y-199560000D02*
X167000000Y-198500000D01*
X167000000Y-198500000D02*
X167000000Y-183500000D01*
X167000000Y-183500000D02*
X166000000Y-182500000D01*
X166000000Y-182500000D02*
X166000000Y-177000000D01*
X166000000Y-177000000D02*
X166980000Y-176020000D01*
X166980000Y-176020000D02*
X168490000Y-176020000D01*
X169490000Y-224020000D02*
X170980000Y-224020000D01*
X170980000Y-224020000D02*
X172500000Y-222500000D01*
X172500000Y-222500000D02*
X172500000Y-210500000D01*
%TO.N,GND*%
X241540000Y-144000000D02*
X240000000Y-144000000D01*
X241540000Y-142500000D02*
X241540000Y-144000000D01*
X240000000Y-144000000D02*
X239500000Y-144500000D01*
X241540000Y-144000000D02*
X241540000Y-145500000D01*
%TO.N,VCC*%
X242500000Y-145500000D02*
X246870000Y-145500000D01*
X246870000Y-145500000D02*
X247770000Y-144600000D01*
X247770000Y-142060000D02*
X242940000Y-142060000D01*
X242940000Y-142060000D02*
X242500000Y-142500000D01*
%TO.N,/grid/MISO_GRID*%
X234000000Y-153000000D02*
X234000000Y-141500000D01*
X234000000Y-141500000D02*
X238660000Y-136840000D01*
X238660000Y-136840000D02*
X241270000Y-136840000D01*
X230500000Y-160500000D02*
X230500000Y-158000000D01*
X216000000Y-177500000D02*
X218500000Y-175000000D01*
X227000000Y-167500000D02*
X229500000Y-165000000D01*
X223500000Y-167500000D02*
X225000000Y-167500000D01*
X225000000Y-167500000D02*
X227000000Y-167500000D01*
X219000000Y-173000000D02*
X219000000Y-172000000D01*
X211000000Y-177500000D02*
X214000000Y-177500000D01*
X219000000Y-174500000D02*
X219000000Y-173000000D01*
X219000000Y-172000000D02*
X221500000Y-169500000D01*
X208500000Y-180000000D02*
X211000000Y-177500000D01*
X230500000Y-164000000D02*
X230500000Y-160500000D01*
X221500000Y-169500000D02*
X223500000Y-167500000D01*
X214000000Y-177500000D02*
X216000000Y-177500000D01*
X218500000Y-175000000D02*
X219000000Y-174500000D01*
X229500000Y-165000000D02*
X230500000Y-164000000D01*
%TO.N,/game/FLASH_CS*%
X188000000Y-182000000D02*
X190500000Y-179500000D01*
X188000000Y-185500000D02*
X188000000Y-182000000D01*
X190500000Y-179500000D02*
X190500000Y-160000000D01*
X190500000Y-160000000D02*
X189000000Y-158500000D01*
X189000000Y-158500000D02*
X189000000Y-157500000D01*
%TO.N,/grid/SCK_GRID*%
X195000000Y-159000000D02*
X201500000Y-159000000D01*
%TO.N,/game/SDA_GAME*%
X187000000Y-152500000D02*
X191500000Y-152500000D01*
X142255000Y-153010000D02*
X143510000Y-153010000D01*
X162500000Y-162000000D02*
X165500000Y-159000000D01*
X143510000Y-153010000D02*
X144500000Y-154000000D01*
X144500000Y-154000000D02*
X144500000Y-160500000D01*
X144500000Y-160500000D02*
X146000000Y-162000000D01*
X146000000Y-162000000D02*
X162500000Y-162000000D01*
X165500000Y-159000000D02*
X180000000Y-159000000D01*
X180000000Y-159000000D02*
X183000000Y-156000000D01*
%TO.N,/game/SCL_GAME*%
X142255000Y-161755000D02*
X144000000Y-163500000D01*
X163500000Y-163500000D02*
X166500000Y-160500000D01*
X142255000Y-155550000D02*
X142255000Y-161755000D01*
X144000000Y-163500000D02*
X163500000Y-163500000D01*
X166500000Y-160500000D02*
X186500000Y-160500000D01*
%TO.N,GND*%
X180295000Y-140205000D02*
X180500000Y-140000000D01*
X180295000Y-141500000D02*
X180295000Y-140205000D01*
%TO.N,Net-(WP_SHIFTER1-VCCA)*%
X185820000Y-142170000D02*
X185530000Y-142460000D01*
X185530000Y-142460000D02*
X180295000Y-142460000D01*
%TO.N,GND*%
X199000000Y-141000000D02*
X200000000Y-140000000D01*
X198795000Y-141000000D02*
X199000000Y-141000000D01*
%TO.N,3.3V*%
X193440000Y-142170000D02*
X198585000Y-142170000D01*
X198585000Y-142170000D02*
X198795000Y-141960000D01*
%TO.N,GND*%
X181500000Y-122500000D02*
X181000000Y-122000000D01*
X181500000Y-124000000D02*
X181500000Y-122500000D01*
%TO.N,Net-(CS_HOLD_SHIFTER1-VCCA)*%
X185695000Y-125190000D02*
X181730000Y-125190000D01*
X181730000Y-125190000D02*
X181500000Y-124960000D01*
%TO.N,GND*%
X197480000Y-122520000D02*
X197500000Y-122500000D01*
X197480000Y-125000000D02*
X197480000Y-122520000D01*
%TO.N,3.3V*%
X193315000Y-125190000D02*
X196330000Y-125190000D01*
X196330000Y-125190000D02*
X196520000Y-125000000D01*
%TO.N,/programmer/SCK_EXT*%
X239000000Y-221000000D02*
X243500000Y-221000000D01*
X245500000Y-223000000D02*
X245500000Y-225000000D01*
X243500000Y-221000000D02*
X245500000Y-223000000D01*
X245500000Y-225000000D02*
X245675000Y-225175000D01*
X245675000Y-225175000D02*
X245675000Y-226440000D01*
X229000000Y-192500000D02*
X229000000Y-194500000D01*
X229000000Y-194500000D02*
X231500000Y-197000000D01*
X231500000Y-208500000D02*
X235500000Y-212500000D01*
X235500000Y-212500000D02*
X235500000Y-219000000D01*
X231500000Y-197000000D02*
X231500000Y-208500000D01*
%TO.N,/converter/WAKE_UP*%
X228000000Y-222000000D02*
X229000000Y-221000000D01*
X229000000Y-221000000D02*
X237000000Y-221000000D01*
X237000000Y-221000000D02*
X242000000Y-216000000D01*
X242000000Y-216000000D02*
X242000000Y-213000000D01*
%TO.N,/converter/RTS_CONV*%
X231500000Y-186500000D02*
X231500000Y-183000000D01*
%TO.N,/programmer/SCK_EXT*%
X214500000Y-181500000D02*
X218500000Y-185500000D01*
X218500000Y-186500000D02*
X219500000Y-187500000D01*
X218500000Y-185500000D02*
X218500000Y-186500000D01*
X219500000Y-187500000D02*
X220000000Y-187500000D01*
X220000000Y-187500000D02*
X224500000Y-192000000D01*
%TO.N,/grid/SRAM_CS*%
X224500000Y-189000000D02*
X224500000Y-172000000D01*
X224500000Y-172000000D02*
X232500000Y-164000000D01*
X232500000Y-134000000D02*
X237280000Y-129220000D01*
X224000000Y-189500000D02*
X224500000Y-189000000D01*
X232500000Y-164000000D02*
X232500000Y-134000000D01*
X237280000Y-129220000D02*
X241270000Y-129220000D01*
X224000000Y-189550000D02*
X224000000Y-189500000D01*
%TO.N,/programmer/MISO_EXT*%
X216500000Y-187000000D02*
X217500000Y-187000000D01*
X213500000Y-189000000D02*
X214500000Y-188000000D01*
X217500000Y-187000000D02*
X221500000Y-191000000D01*
X196500000Y-192500000D02*
X196500000Y-191500000D01*
X215500000Y-187000000D02*
X216500000Y-187000000D01*
X196500000Y-191500000D02*
X196500000Y-191173000D01*
X195500000Y-193500000D02*
X196500000Y-192500000D01*
X204000000Y-189000000D02*
X213500000Y-189000000D01*
X228500000Y-211500000D02*
X234000000Y-217000000D01*
X181000000Y-199000000D02*
X185000000Y-195000000D01*
X223500000Y-193000000D02*
X228500000Y-198000000D01*
X179500000Y-201000000D02*
X181000000Y-199500000D01*
X178400000Y-202100000D02*
X179500000Y-201000000D01*
X176925000Y-202100000D02*
X178400000Y-202100000D01*
X190500000Y-195000000D02*
X194000000Y-195000000D01*
X194000000Y-195000000D02*
X195500000Y-193500000D01*
X228500000Y-198000000D02*
X228500000Y-211500000D01*
X214500000Y-188000000D02*
X215500000Y-187000000D01*
X198673000Y-189000000D02*
X204000000Y-189000000D01*
X181000000Y-199500000D02*
X181000000Y-199000000D01*
X196500000Y-191173000D02*
X198673000Y-189000000D01*
X221500000Y-191000000D02*
X223500000Y-193000000D01*
X185000000Y-195000000D02*
X190500000Y-195000000D01*
%TO.N,/programmer/EXT_SIGNAL*%
X206000000Y-192500000D02*
X204000000Y-194500000D01*
X199000000Y-194500000D02*
X197000000Y-196500000D01*
X197000000Y-196500000D02*
X185000000Y-196500000D01*
X177500000Y-208000000D02*
X176500000Y-208000000D01*
X182000000Y-203500000D02*
X177500000Y-208000000D01*
X185000000Y-196500000D02*
X182000000Y-199500000D01*
X182000000Y-199500000D02*
X182000000Y-203500000D01*
X204000000Y-194500000D02*
X199000000Y-194500000D01*
X176500000Y-208000000D02*
X175500000Y-209000000D01*
X175500000Y-209000000D02*
X167500000Y-209000000D01*
X167500000Y-209000000D02*
X164500000Y-206000000D01*
X164500000Y-206000000D02*
X164500000Y-202000000D01*
%TO.N,GND*%
X239000000Y-184500000D02*
X239550000Y-184500000D01*
X239550000Y-184500000D02*
X241050000Y-186000000D01*
X239500000Y-184000000D02*
X239000000Y-184500000D01*
X241520000Y-184000000D02*
X239500000Y-184000000D01*
%TO.N,VCC*%
X246680000Y-185090000D02*
X244000000Y-185090000D01*
X242480000Y-184000000D02*
X242910000Y-184000000D01*
X242910000Y-184000000D02*
X244000000Y-185090000D01*
X244000000Y-185090000D02*
X243860000Y-185090000D01*
X243860000Y-185090000D02*
X242950000Y-186000000D01*
%TO.N,/converter/RXD_CONV*%
X246680000Y-187630000D02*
X244105000Y-187630000D01*
X244105000Y-187630000D02*
X241295000Y-190440000D01*
X227770000Y-176465000D02*
X231965000Y-176465000D01*
X231965000Y-176465000D02*
X236000000Y-180500000D01*
X236000000Y-180500000D02*
X236000000Y-187000000D01*
X236000000Y-187000000D02*
X239440000Y-190440000D01*
X239440000Y-190440000D02*
X241295000Y-190440000D01*
%TO.N,GND*%
X204000000Y-216950000D02*
X204985000Y-216950000D01*
X204985000Y-216950000D02*
X207295000Y-214640000D01*
%TO.N,VCC*%
X207295000Y-212100000D02*
X206950000Y-212100000D01*
X206950000Y-212100000D02*
X204000000Y-215050000D01*
%TO.N,GND*%
X219500000Y-215500000D02*
X220000000Y-215500000D01*
X220000000Y-215500000D02*
X221500000Y-214000000D01*
X221500000Y-214000000D02*
X221500000Y-213500000D01*
X221500000Y-213500000D02*
X220520000Y-212520000D01*
X220520000Y-212520000D02*
X219000000Y-212520000D01*
%TO.N,VCC*%
X219000000Y-213480000D02*
X218540000Y-213940000D01*
X218540000Y-213940000D02*
X218540000Y-215500000D01*
X214915000Y-214640000D02*
X217680000Y-214640000D01*
X217680000Y-214640000D02*
X218540000Y-215500000D01*
%TO.N,GND*%
X214915000Y-212100000D02*
X218580000Y-212100000D01*
X218580000Y-212100000D02*
X219000000Y-212520000D01*
%TO.N,/programmer/GAME_SIGNAL*%
X219915000Y-207330000D02*
X222830000Y-207330000D01*
X222830000Y-207330000D02*
X223500000Y-208000000D01*
X223500000Y-208000000D02*
X223500000Y-221500000D01*
X223500000Y-221500000D02*
X226000000Y-224000000D01*
X226000000Y-224000000D02*
X226000000Y-231000000D01*
X171000000Y-239000000D02*
X163500000Y-231500000D01*
X226000000Y-231000000D02*
X218000000Y-239000000D01*
X218000000Y-239000000D02*
X171000000Y-239000000D01*
X163500000Y-231500000D02*
X163500000Y-224500000D01*
%TO.N,/programmer/EXT_SIGNAL*%
X214915000Y-204480000D02*
X213000000Y-206395000D01*
X213000000Y-206395000D02*
X213000000Y-220000000D01*
X213000000Y-220000000D02*
X209500000Y-223500000D01*
X209500000Y-223500000D02*
X209500000Y-231000000D01*
X206500000Y-234000000D02*
X175500000Y-234000000D01*
X209500000Y-231000000D02*
X206500000Y-234000000D01*
X175500000Y-234000000D02*
X174000000Y-232500000D01*
X174000000Y-232500000D02*
X174000000Y-229500000D01*
X174000000Y-229500000D02*
X171060000Y-226560000D01*
X171060000Y-226560000D02*
X169490000Y-226560000D01*
%TO.N,/grid/SRAM_CS*%
X207295000Y-222260000D02*
X208740000Y-222260000D01*
X208740000Y-222260000D02*
X212000000Y-219000000D01*
X212000000Y-219000000D02*
X212000000Y-197000000D01*
X212000000Y-197000000D02*
X215000000Y-194000000D01*
X215000000Y-194000000D02*
X216500000Y-194000000D01*
%TO.N,/converter/CLOCK*%
X227000000Y-203500000D02*
X225000000Y-203500000D01*
X224000000Y-202500000D02*
X224000000Y-195250000D01*
X216132786Y-190000000D02*
X214331785Y-191801000D01*
X205000000Y-195000000D02*
X205000000Y-211000000D01*
X225000000Y-203500000D02*
X224000000Y-202500000D01*
X224000000Y-195250000D02*
X218750000Y-190000000D01*
X205000000Y-211000000D02*
X203000000Y-213000000D01*
X218750000Y-190000000D02*
X216132786Y-190000000D01*
X214331785Y-191801000D02*
X208199000Y-191801000D01*
X208199000Y-191801000D02*
X205000000Y-195000000D01*
%TO.N,/programmer/RESET_PROG*%
X214000000Y-191000000D02*
X203775000Y-191000000D01*
X203775000Y-191000000D02*
X202295000Y-192480000D01*
X216500000Y-188500000D02*
X214000000Y-191000000D01*
X226500000Y-189500000D02*
X226500000Y-194000000D01*
X226500000Y-194000000D02*
X230000000Y-197500000D01*
X230000000Y-197500000D02*
X230000000Y-209500000D01*
X226500000Y-189500000D02*
X226500000Y-191500000D01*
%TO.N,/grid/RESET_GRID*%
X220500000Y-186000000D02*
X220500000Y-173000000D01*
X220500000Y-173000000D02*
X223000000Y-170500000D01*
%TO.N,/programmer/SCK*%
X162500000Y-203000000D02*
X162500000Y-197000000D01*
X166000000Y-230500000D02*
X166000000Y-216000000D01*
X166000000Y-216000000D02*
X162500000Y-212500000D01*
X167000000Y-231500000D02*
X166000000Y-230500000D01*
X207500000Y-236000000D02*
X206000000Y-236000000D01*
X211500000Y-230500000D02*
X210500000Y-231500000D01*
X212500000Y-223500000D02*
X212500000Y-229500000D01*
X208500000Y-235000000D02*
X207500000Y-236000000D01*
X171500000Y-236000000D02*
X167000000Y-231500000D01*
X214915000Y-219720000D02*
X212500000Y-222135000D01*
X212500000Y-229500000D02*
X211500000Y-230500000D01*
X206000000Y-236000000D02*
X171500000Y-236000000D01*
X209500000Y-234000000D02*
X208500000Y-235000000D01*
X212500000Y-222135000D02*
X212500000Y-223500000D01*
X210500000Y-232000000D02*
X209500000Y-233000000D01*
X209500000Y-233000000D02*
X209500000Y-233500000D01*
X210500000Y-231500000D02*
X210500000Y-232000000D01*
X209500000Y-233500000D02*
X209500000Y-234000000D01*
X162500000Y-197000000D02*
X163000000Y-196500000D01*
X162500000Y-212500000D02*
X162500000Y-203000000D01*
%TO.N,GND*%
X183000000Y-189500000D02*
X183500000Y-189000000D01*
X181980000Y-189500000D02*
X183000000Y-189500000D01*
%TO.N,/game/RESET_GAME*%
X194500000Y-198000000D02*
X194500000Y-201500000D01*
X200600000Y-207100000D02*
X201915000Y-207100000D01*
X194500000Y-201500000D02*
X199500000Y-206500000D01*
X199500000Y-206500000D02*
X200000000Y-206500000D01*
X200000000Y-206500000D02*
X200600000Y-207100000D01*
X163545000Y-156980000D02*
X165020000Y-156980000D01*
X165020000Y-156980000D02*
X168000000Y-154000000D01*
X168000000Y-154000000D02*
X187000000Y-154000000D01*
X187000000Y-154000000D02*
X194500000Y-161500000D01*
X194500000Y-161500000D02*
X194500000Y-188500000D01*
%TO.N,REG_EN_LOW*%
X204000000Y-93550000D02*
X207700000Y-93550000D01*
X207700000Y-93550000D02*
X210100000Y-95950000D01*
%TO.N,GND*%
X202500000Y-96950000D02*
X202500000Y-97500000D01*
X204000000Y-95450000D02*
X202500000Y-96950000D01*
%TO.N,REG_EN_LOW*%
X200420000Y-87500000D02*
X200420000Y-89970000D01*
X200420000Y-89970000D02*
X204000000Y-93550000D01*
%TO.N,GND*%
X196660000Y-105340000D02*
X197000000Y-105000000D01*
X196660000Y-106800000D02*
X196660000Y-105340000D01*
%TO.N,3.3V*%
X193710000Y-109190000D02*
X195230000Y-109190000D01*
X195230000Y-109190000D02*
X196660000Y-107760000D01*
%TO.N,GND*%
X182900000Y-106820000D02*
X181390000Y-106820000D01*
%TO.N,Net-(MOSI_CLK_SHIFTER1-VCCA)*%
X186090000Y-109190000D02*
X186090000Y-109050000D01*
X186090000Y-109050000D02*
X183860000Y-106820000D01*
%TO.N,GND*%
X180775000Y-166480000D02*
X181020000Y-166480000D01*
X181020000Y-166480000D02*
X183350000Y-164150000D01*
X182050000Y-164150000D02*
X183350000Y-164150000D01*
X181500000Y-163600000D02*
X182050000Y-164150000D01*
%TO.N,VCC*%
X176110000Y-165860000D02*
X178650000Y-165860000D01*
X179600000Y-163600000D02*
X179600000Y-164910000D01*
X179600000Y-164910000D02*
X178650000Y-165860000D01*
X178650000Y-165860000D02*
X179195000Y-165860000D01*
X179195000Y-165860000D02*
X179815000Y-166480000D01*
%TO.N,GND*%
X222430000Y-153540000D02*
X222850000Y-153540000D01*
X221360000Y-153510000D02*
X222400000Y-153510000D01*
X222400000Y-153510000D02*
X222430000Y-153540000D01*
%TO.N,3.3V*%
X218110000Y-154670000D02*
X219240000Y-154670000D01*
X219240000Y-154670000D02*
X220400000Y-153510000D01*
%TO.N,GND*%
X205950000Y-152230000D02*
X205950000Y-152270000D01*
X206070000Y-152110000D02*
X205950000Y-152230000D01*
X206720000Y-151460000D02*
X206070000Y-152110000D01*
X207860000Y-151460000D02*
X206720000Y-151460000D01*
%TO.N,Net-(MISO_SHIFTER1-VCCA)*%
X210490000Y-154670000D02*
X208870000Y-154670000D01*
X208870000Y-154670000D02*
X207860000Y-153660000D01*
X207860000Y-153660000D02*
X207860000Y-152420000D01*
%TO.N,GND*%
X167820000Y-143420000D02*
X167820000Y-145210000D01*
X167820000Y-145210000D02*
X168480000Y-145870000D01*
%TO.N,VCC*%
X165920000Y-143420000D02*
X165920000Y-145865000D01*
X165920000Y-145865000D02*
X165895000Y-145890000D01*
%TO.N,GND*%
X168200000Y-145870000D02*
X168480000Y-145870000D01*
X168170000Y-145900000D02*
X168200000Y-145870000D01*
X168160000Y-145890000D02*
X168170000Y-145900000D01*
X166855000Y-145890000D02*
X168160000Y-145890000D01*
%TO.N,VCC*%
X149875000Y-140310000D02*
X157580000Y-140310000D01*
X157580000Y-140310000D02*
X163160000Y-145890000D01*
X163160000Y-145890000D02*
X165895000Y-145890000D01*
X138950000Y-137090000D02*
X139000000Y-137090000D01*
X139680000Y-137770000D02*
X142255000Y-137770000D01*
X139000000Y-137090000D02*
X139680000Y-137770000D01*
X138540000Y-136680000D02*
X138950000Y-137090000D01*
X138540000Y-135100000D02*
X142125000Y-135100000D01*
X138540000Y-135100000D02*
X138540000Y-136680000D01*
%TO.N,GND*%
X135260000Y-135100000D02*
X134190000Y-136170000D01*
X136450000Y-135100000D02*
X135260000Y-135100000D01*
%TO.N,VCC*%
X137410000Y-135100000D02*
X138540000Y-135100000D01*
X142125000Y-135100000D02*
X142255000Y-135230000D01*
X137410000Y-135100000D02*
X137410000Y-137080000D01*
X137410000Y-137080000D02*
X137350000Y-137140000D01*
%TO.N,GND*%
X136450000Y-135100000D02*
X136450000Y-137080000D01*
X136450000Y-137080000D02*
X136390000Y-137140000D01*
X142255000Y-140310000D02*
X138610000Y-140310000D01*
X138610000Y-140310000D02*
X138080000Y-139780000D01*
X138080000Y-139780000D02*
X136660000Y-139780000D01*
X136660000Y-139780000D02*
X136390000Y-139510000D01*
X136390000Y-139510000D02*
X136390000Y-137140000D01*
%TO.N,VCC*%
X178980000Y-189500000D02*
X181020000Y-189500000D01*
D50*
X222795000Y-142515000D02*
X222795000Y-142080000D01*
D48*
%TO.N,/game/CS*%
X201000000Y-118500000D02*
X205000000Y-118500000D01*
X200000000Y-119500000D02*
X201000000Y-118500000D01*
X205000000Y-118500000D02*
X206000000Y-119500000D01*
%TO.N,/game/FLASH_CS*%
X200500000Y-218000000D02*
X197500000Y-221000000D01*
X200500000Y-213000000D02*
X200500000Y-218000000D01*
X197500000Y-221000000D02*
X197500000Y-226020000D01*
%TO.N,/game/RXD_GAME*%
X124505000Y-160485000D02*
X129985000Y-160485000D01*
X124500000Y-160480000D02*
X140295000Y-160480000D01*
X129985000Y-160485000D02*
X130000000Y-160500000D01*
X124500000Y-160480000D02*
X124505000Y-160485000D01*
%TO.N,/game/TXD_GAME*%
X140295000Y-157980000D02*
X125500000Y-157980000D01*
X129980000Y-157980000D02*
X130000000Y-158000000D01*
X125500000Y-157980000D02*
X129980000Y-157980000D01*
%TO.N,/game/J_RIGHT*%
X116500000Y-198000000D02*
X116500000Y-220000000D01*
X116500000Y-220000000D02*
X118500000Y-222000000D01*
%TO.N,/game/SCL_GAME*%
X173500000Y-88500000D02*
X173000000Y-88500000D01*
X178000000Y-84000000D02*
X173500000Y-88500000D01*
X122000000Y-174500000D02*
X111000000Y-174500000D01*
%TO.N,/game/SDA_GAME*%
X128000000Y-82000000D02*
X129000000Y-81000000D01*
X164500000Y-81000000D02*
X166000000Y-82500000D01*
X166000000Y-82500000D02*
X166000000Y-84000000D01*
X113000000Y-172000000D02*
X110500000Y-169500000D01*
X129000000Y-81000000D02*
X164500000Y-81000000D01*
X122000000Y-172000000D02*
X113000000Y-172000000D01*
%TO.N,/programmer/MISO*%
X187000000Y-211500000D02*
X179000000Y-211500000D01*
X179000000Y-211500000D02*
X177500000Y-210000000D01*
X187500000Y-225000000D02*
X187500000Y-212000000D01*
X187500000Y-212000000D02*
X187000000Y-211500000D01*
X205500000Y-232000000D02*
X194500000Y-232000000D01*
X194500000Y-232000000D02*
X187500000Y-225000000D01*
%TO.N,/programmer/MOSI*%
X212000000Y-232500000D02*
X211000000Y-233500000D01*
X211000000Y-234000000D02*
X207500000Y-237500000D01*
X211000000Y-233500000D02*
X211000000Y-234000000D01*
X212000000Y-232000000D02*
X212000000Y-232500000D01*
%TO.N,/game/SCK_GAME*%
X135500000Y-167500000D02*
X134500000Y-166500000D01*
X123500000Y-163500000D02*
X123000000Y-163000000D01*
X134500000Y-166500000D02*
X131500000Y-163500000D01*
X123000000Y-163000000D02*
X122500000Y-162500000D01*
X124000000Y-140000000D02*
X124000000Y-140500000D01*
X124000000Y-146500000D02*
X124000000Y-140500000D01*
X125500000Y-148000000D02*
X124000000Y-146500000D01*
X143000000Y-167500000D02*
X135500000Y-167500000D01*
X173500000Y-119500000D02*
X176000000Y-117000000D01*
X146440000Y-170940000D02*
X143000000Y-167500000D01*
X125500000Y-151000000D02*
X125500000Y-148000000D01*
X122500000Y-160500000D02*
X122500000Y-154000000D01*
X131500000Y-163500000D02*
X124500000Y-163500000D01*
X122500000Y-154000000D02*
X125500000Y-151000000D01*
X176000000Y-117000000D02*
X177000000Y-117000000D01*
X122500000Y-162500000D02*
X122500000Y-160500000D01*
X124500000Y-163500000D02*
X123500000Y-163500000D01*
X153560000Y-170940000D02*
X146440000Y-170940000D01*
%TO.N,/game/MOSI_GAME*%
X121500000Y-212500000D02*
X121500000Y-198000000D01*
X155440000Y-218940000D02*
X152500000Y-216000000D01*
X171500000Y-118000000D02*
X175000000Y-114500000D01*
X175000000Y-114500000D02*
X176500000Y-114500000D01*
X108000000Y-184500000D02*
X108000000Y-129500000D01*
X121500000Y-198000000D02*
X108000000Y-184500000D01*
X164560000Y-218940000D02*
X155440000Y-218940000D01*
X152500000Y-216000000D02*
X125000000Y-216000000D01*
X108000000Y-129500000D02*
X109000000Y-128500000D01*
X125000000Y-216000000D02*
X121500000Y-212500000D01*
%TO.N,/game/MISO_GAME*%
X124000000Y-189500000D02*
X124000000Y-170000000D01*
X122500000Y-137500000D02*
X122500000Y-135000000D01*
X114000000Y-141000000D02*
X115500000Y-139500000D01*
X165500000Y-194500000D02*
X148000000Y-194500000D01*
X115500000Y-139500000D02*
X120500000Y-139500000D01*
X148000000Y-194500000D02*
X143000000Y-189500000D01*
X120500000Y-139500000D02*
X122500000Y-137500000D01*
X114000000Y-160000000D02*
X114000000Y-141000000D01*
X124000000Y-170000000D02*
X114000000Y-160000000D01*
X143000000Y-189500000D02*
X124000000Y-189500000D01*
%TO.N,/game/B_STOP*%
X134500000Y-113000000D02*
X134000000Y-113500000D01*
X134000000Y-113500000D02*
X128500000Y-119000000D01*
X117500000Y-166500000D02*
X112500000Y-161500000D01*
X156000000Y-113000000D02*
X134500000Y-113000000D01*
X111500000Y-160500000D02*
X117500000Y-166500000D01*
X115000000Y-131000000D02*
X114000000Y-132000000D01*
X111500000Y-160000000D02*
X111500000Y-160500000D01*
X162000000Y-122500000D02*
X162000000Y-119000000D01*
X162000000Y-124500000D02*
X162000000Y-122500000D01*
X111500000Y-134500000D02*
X111500000Y-148500000D01*
X123000000Y-131000000D02*
X117000000Y-131000000D01*
X114000000Y-132000000D02*
X111500000Y-134500000D01*
X111500000Y-148500000D02*
X111500000Y-160000000D01*
X128500000Y-119000000D02*
X128500000Y-125500000D01*
X128500000Y-125500000D02*
X123000000Y-131000000D01*
X117000000Y-131000000D02*
X115000000Y-131000000D01*
X162000000Y-119000000D02*
X156000000Y-113000000D01*
X161000000Y-125500000D02*
X162000000Y-124500000D01*
%TO.N,/game/B_START*%
X133500000Y-111500000D02*
X127000000Y-118000000D01*
X163500000Y-118000000D02*
X157000000Y-111500000D01*
X117000000Y-169500000D02*
X119000000Y-169500000D01*
X163500000Y-126000000D02*
X163500000Y-118000000D01*
X120000000Y-127000000D02*
X119000000Y-126000000D01*
X163000000Y-126500000D02*
X163500000Y-126000000D01*
X110000000Y-162500000D02*
X117000000Y-169500000D01*
X127000000Y-125000000D02*
X125000000Y-127000000D01*
X119000000Y-126000000D02*
X116000000Y-126000000D01*
X110000000Y-132000000D02*
X110000000Y-162500000D01*
X116000000Y-126000000D02*
X110000000Y-132000000D01*
X127000000Y-118000000D02*
X127000000Y-125000000D01*
X125000000Y-127000000D02*
X120000000Y-127000000D01*
X157000000Y-111500000D02*
X133500000Y-111500000D01*
%TO.N,/game/VIBRATOR*%
X117000000Y-144500000D02*
X117000000Y-142000000D01*
X122500000Y-150000000D02*
X117000000Y-144500000D01*
%TO.N,/game/FLASH_WP*%
X130000000Y-125500000D02*
X130000000Y-120000000D01*
X135000000Y-115000000D02*
X154500000Y-115000000D01*
X129500000Y-142000000D02*
X129500000Y-126000000D01*
X168500000Y-119000000D02*
X170000000Y-119000000D01*
X170000000Y-119000000D02*
X176000000Y-125000000D01*
X130500000Y-143000000D02*
X129500000Y-142000000D01*
X130000000Y-120000000D02*
X135000000Y-115000000D01*
X176000000Y-125000000D02*
X176000000Y-133500000D01*
X129500000Y-126000000D02*
X130000000Y-125500000D01*
X130500000Y-145000000D02*
X130500000Y-143000000D01*
X164500000Y-115000000D02*
X168500000Y-119000000D01*
%TO.N,/programmer/GRID_SIGNAL*%
X179500000Y-173000000D02*
X183020000Y-169480000D01*
X179500000Y-182000000D02*
X179500000Y-173000000D01*
X177500000Y-184000000D02*
X179500000Y-182000000D01*
X174500000Y-207500000D02*
X174500000Y-185500000D01*
X174500000Y-185500000D02*
X176000000Y-184000000D01*
X176000000Y-184000000D02*
X177500000Y-184000000D01*
X183020000Y-169480000D02*
X188135000Y-169480000D01*
%TD*%
M02*
