%TF.GenerationSoftware,KiCad,Pcbnew,9.0.1*%
%TF.CreationDate,2025-10-11T14:42:30-04:00*%
%TF.ProjectId,snake_pcb,736e616b-655f-4706-9362-2e6b69636164,rev?*%
%TF.SameCoordinates,Original*%
%TF.FileFunction,Drillmap*%
%TF.FilePolarity,Positive*%
%FSLAX45Y45*%
G04 Gerber Fmt 4.5, Leading zero omitted, Abs format (unit mm)*
G04 Created by KiCad (PCBNEW 9.0.1) date 2025-10-11 14:42:30*
%MOMM*%
%LPD*%
G01*
G04 APERTURE LIST*
%ADD10C,0.050000*%
%ADD11C,0.200000*%
%ADD12C,0.100000*%
%ADD13C,0.110000*%
%ADD14C,0.130000*%
%ADD15C,0.150000*%
%ADD16C,0.230000*%
G04 APERTURE END LIST*
D10*
X24350000Y500000D02*
X24350000Y20000000D01*
X24350000Y20000000D02*
X350000Y20000000D01*
X350000Y500000D02*
X24350000Y500000D01*
X350000Y20000000D02*
X350000Y500000D01*
D11*
D12*
X1710000Y12518000D02*
X1790000Y12438000D01*
X1790000Y12518000D02*
X1710000Y12438000D01*
X1710000Y11502000D02*
X1790000Y11422000D01*
X1790000Y11502000D02*
X1710000Y11422000D01*
X1715000Y18288000D02*
X1795000Y18208000D01*
X1795000Y18288000D02*
X1715000Y18208000D01*
X1715000Y17272000D02*
X1795000Y17192000D01*
X1795000Y17272000D02*
X1715000Y17192000D01*
X1765000Y15348000D02*
X1845000Y15268000D01*
X1845000Y15348000D02*
X1765000Y15268000D01*
X1765000Y14332000D02*
X1845000Y14252000D01*
X1845000Y14332000D02*
X1765000Y14252000D01*
X1860000Y13510000D02*
X1940000Y13430000D01*
X1940000Y13510000D02*
X1860000Y13430000D01*
X1885000Y19320000D02*
X1965000Y19240000D01*
X1965000Y19320000D02*
X1885000Y19240000D01*
X1940000Y16340000D02*
X2020000Y16260000D01*
X2020000Y16340000D02*
X1940000Y16260000D01*
X2071000Y10171000D02*
X2151000Y10091000D01*
X2151000Y10171000D02*
X2071000Y10091000D01*
X2110000Y13510000D02*
X2190000Y13430000D01*
X2190000Y13510000D02*
X2110000Y13430000D01*
X2110000Y12540000D02*
X2190000Y12460000D01*
X2190000Y12540000D02*
X2110000Y12460000D01*
X2110000Y11524000D02*
X2190000Y11444000D01*
X2190000Y11524000D02*
X2110000Y11444000D01*
X2135000Y19320000D02*
X2215000Y19240000D01*
X2215000Y19320000D02*
X2135000Y19240000D01*
X2165000Y18288000D02*
X2245000Y18208000D01*
X2245000Y18288000D02*
X2165000Y18208000D01*
X2165000Y17272000D02*
X2245000Y17192000D01*
X2245000Y17272000D02*
X2165000Y17192000D01*
X2165000Y15348000D02*
X2245000Y15268000D01*
X2245000Y15348000D02*
X2165000Y15268000D01*
X2165000Y14332000D02*
X2245000Y14252000D01*
X2245000Y14332000D02*
X2165000Y14252000D01*
X2190000Y16340000D02*
X2270000Y16260000D01*
X2270000Y16340000D02*
X2190000Y16260000D01*
X2429000Y9671000D02*
X2509000Y9591000D01*
X2509000Y9671000D02*
X2429000Y9591000D01*
X2429000Y9417000D02*
X2509000Y9337000D01*
X2509000Y9417000D02*
X2429000Y9337000D01*
X2429000Y9163000D02*
X2509000Y9083000D01*
X2509000Y9163000D02*
X2429000Y9083000D01*
X2429000Y8909000D02*
X2509000Y8829000D01*
X2509000Y8909000D02*
X2429000Y8829000D01*
X2579000Y6421500D02*
X2659000Y6341500D01*
X2659000Y6421500D02*
X2579000Y6341500D01*
X2579000Y5659500D02*
X2659000Y5579500D01*
X2659000Y5659500D02*
X2579000Y5579500D01*
X2584000Y16490000D02*
X2664000Y16410000D01*
X2664000Y16490000D02*
X2584000Y16410000D01*
X2634000Y19330000D02*
X2714000Y19250000D01*
X2714000Y19330000D02*
X2634000Y19250000D01*
X2679000Y13860000D02*
X2759000Y13780000D01*
X2759000Y13860000D02*
X2679000Y13780000D01*
X2833000Y6421500D02*
X2913000Y6341500D01*
X2913000Y6421500D02*
X2833000Y6341500D01*
X2833000Y5659500D02*
X2913000Y5579500D01*
X2913000Y5659500D02*
X2833000Y5579500D01*
X3087000Y10171000D02*
X3167000Y10091000D01*
X3167000Y10171000D02*
X3087000Y10091000D01*
X3087000Y6421500D02*
X3167000Y6341500D01*
X3167000Y6421500D02*
X3087000Y6341500D01*
X3087000Y5659500D02*
X3167000Y5579500D01*
X3167000Y5659500D02*
X3087000Y5579500D01*
X3191000Y9671000D02*
X3271000Y9591000D01*
X3271000Y9671000D02*
X3191000Y9591000D01*
X3191000Y9417000D02*
X3271000Y9337000D01*
X3271000Y9417000D02*
X3191000Y9337000D01*
X3191000Y9163000D02*
X3271000Y9083000D01*
X3271000Y9163000D02*
X3191000Y9083000D01*
X3191000Y8909000D02*
X3271000Y8829000D01*
X3271000Y8909000D02*
X3191000Y8829000D01*
X3212500Y4309000D02*
X3292500Y4229000D01*
X3292500Y4309000D02*
X3212500Y4229000D01*
X3341000Y6421500D02*
X3421000Y6341500D01*
X3421000Y6421500D02*
X3341000Y6341500D01*
X3341000Y5659500D02*
X3421000Y5579500D01*
X3421000Y5659500D02*
X3341000Y5579500D01*
X3344000Y13310000D02*
X3424000Y13230000D01*
X3424000Y13310000D02*
X3344000Y13230000D01*
X3346000Y16490000D02*
X3426000Y16410000D01*
X3426000Y16490000D02*
X3346000Y16410000D01*
X3357000Y18780000D02*
X3437000Y18700000D01*
X3437000Y18780000D02*
X3357000Y18700000D01*
X3357000Y15990000D02*
X3437000Y15910000D01*
X3437000Y15990000D02*
X3357000Y15910000D01*
X3396000Y19330000D02*
X3476000Y19250000D01*
X3476000Y19330000D02*
X3396000Y19250000D01*
X3441000Y13860000D02*
X3521000Y13780000D01*
X3521000Y13860000D02*
X3441000Y13780000D01*
X3625000Y9440000D02*
X3705000Y9360000D01*
X3705000Y9440000D02*
X3625000Y9360000D01*
X4228500Y4309000D02*
X4308500Y4229000D01*
X4308500Y4309000D02*
X4228500Y4229000D01*
X4360000Y13310000D02*
X4440000Y13230000D01*
X4440000Y13310000D02*
X4360000Y13230000D01*
X4373000Y18780000D02*
X4453000Y18700000D01*
X4453000Y18780000D02*
X4373000Y18700000D01*
X4373000Y15990000D02*
X4453000Y15910000D01*
X4453000Y15990000D02*
X4373000Y15910000D01*
X4598000Y4790000D02*
X4678000Y4710000D01*
X4678000Y4790000D02*
X4598000Y4710000D01*
X4598000Y4536000D02*
X4678000Y4456000D01*
X4678000Y4536000D02*
X4598000Y4456000D01*
X4598000Y4282000D02*
X4678000Y4202000D01*
X4678000Y4282000D02*
X4598000Y4202000D01*
X4598000Y4028000D02*
X4678000Y3948000D01*
X4678000Y4028000D02*
X4598000Y3948000D01*
X4641000Y9440000D02*
X4721000Y9360000D01*
X4721000Y9440000D02*
X4641000Y9360000D01*
X5278500Y7071000D02*
X5358500Y6991000D01*
X5358500Y7071000D02*
X5278500Y6991000D01*
X5278500Y6817000D02*
X5358500Y6737000D01*
X5358500Y6817000D02*
X5278500Y6737000D01*
X5278500Y6563000D02*
X5358500Y6483000D01*
X5358500Y6563000D02*
X5278500Y6483000D01*
X5278500Y6309000D02*
X5358500Y6229000D01*
X5358500Y6309000D02*
X5278500Y6229000D01*
X5360000Y4790000D02*
X5440000Y4710000D01*
X5440000Y4790000D02*
X5360000Y4710000D01*
X5360000Y4536000D02*
X5440000Y4456000D01*
X5440000Y4536000D02*
X5360000Y4456000D01*
X5360000Y4282000D02*
X5440000Y4202000D01*
X5440000Y4282000D02*
X5360000Y4202000D01*
X5360000Y4028000D02*
X5440000Y3948000D01*
X5440000Y4028000D02*
X5360000Y3948000D01*
X5810000Y9444000D02*
X5890000Y9364000D01*
X5890000Y9444000D02*
X5810000Y9364000D01*
X5810000Y9190000D02*
X5890000Y9110000D01*
X5890000Y9190000D02*
X5810000Y9110000D01*
X5810000Y8936000D02*
X5890000Y8856000D01*
X5890000Y8936000D02*
X5810000Y8856000D01*
X5810000Y8682000D02*
X5890000Y8602000D01*
X5890000Y8682000D02*
X5810000Y8602000D01*
X6040500Y7071000D02*
X6120500Y6991000D01*
X6120500Y7071000D02*
X6040500Y6991000D01*
X6040500Y6817000D02*
X6120500Y6737000D01*
X6120500Y6817000D02*
X6040500Y6737000D01*
X6040500Y6563000D02*
X6120500Y6483000D01*
X6120500Y6563000D02*
X6040500Y6483000D01*
X6040500Y6309000D02*
X6120500Y6229000D01*
X6120500Y6309000D02*
X6040500Y6229000D01*
X6572000Y9444000D02*
X6652000Y9364000D01*
X6652000Y9444000D02*
X6572000Y9364000D01*
X6572000Y9190000D02*
X6652000Y9110000D01*
X6652000Y9190000D02*
X6572000Y9110000D01*
X6572000Y8936000D02*
X6652000Y8856000D01*
X6652000Y8936000D02*
X6572000Y8856000D01*
X6572000Y8682000D02*
X6652000Y8602000D01*
X6652000Y8682000D02*
X6572000Y8602000D01*
X6922000Y15733000D02*
X7002000Y15653000D01*
X7002000Y15733000D02*
X6922000Y15653000D01*
X6922000Y15033000D02*
X7002000Y14953000D01*
X7002000Y15033000D02*
X6922000Y14953000D01*
X6960000Y3240000D02*
X7040000Y3160000D01*
X7040000Y3240000D02*
X6960000Y3160000D01*
X6960000Y2224000D02*
X7040000Y2144000D01*
X7040000Y2224000D02*
X6960000Y2144000D01*
X7119500Y13851000D02*
X7199500Y13771000D01*
X7199500Y13851000D02*
X7119500Y13771000D01*
X7172000Y15733000D02*
X7252000Y15653000D01*
X7252000Y15733000D02*
X7172000Y15653000D01*
X7172000Y15033000D02*
X7252000Y14953000D01*
X7252000Y15033000D02*
X7172000Y14953000D01*
X7412500Y5900000D02*
X7492500Y5820000D01*
X7492500Y5900000D02*
X7412500Y5820000D01*
X7420500Y6600000D02*
X7500500Y6520000D01*
X7500500Y6600000D02*
X7420500Y6520000D01*
X7420500Y6250000D02*
X7500500Y6170000D01*
X7500500Y6250000D02*
X7420500Y6170000D01*
X7420500Y5550000D02*
X7500500Y5470000D01*
X7500500Y5550000D02*
X7420500Y5470000D01*
X7619500Y18001000D02*
X7699500Y17921000D01*
X7699500Y18001000D02*
X7619500Y17921000D01*
X8135500Y13851000D02*
X8215500Y13771000D01*
X8215500Y13851000D02*
X8135500Y13771000D01*
X8210000Y3240000D02*
X8290000Y3160000D01*
X8290000Y3240000D02*
X8210000Y3160000D01*
X8210000Y2224000D02*
X8290000Y2144000D01*
X8290000Y2224000D02*
X8210000Y2144000D01*
X8403500Y13701000D02*
X8483500Y13621000D01*
X8483500Y13701000D02*
X8403500Y13621000D01*
X8428500Y5900000D02*
X8508500Y5820000D01*
X8508500Y5900000D02*
X8428500Y5820000D01*
X8436500Y6600000D02*
X8516500Y6520000D01*
X8516500Y6600000D02*
X8436500Y6520000D01*
X8436500Y6250000D02*
X8516500Y6170000D01*
X8516500Y6250000D02*
X8436500Y6170000D01*
X8436500Y5550000D02*
X8516500Y5470000D01*
X8516500Y5550000D02*
X8436500Y5470000D01*
X8635500Y18001000D02*
X8715500Y17921000D01*
X8715500Y18001000D02*
X8635500Y17921000D01*
X8660000Y17591000D02*
X8740000Y17511000D01*
X8740000Y17591000D02*
X8660000Y17511000D01*
X8660000Y17337000D02*
X8740000Y17257000D01*
X8740000Y17337000D02*
X8660000Y17257000D01*
X8660000Y17083000D02*
X8740000Y17003000D01*
X8740000Y17083000D02*
X8660000Y17003000D01*
X8660000Y16829000D02*
X8740000Y16749000D01*
X8740000Y16829000D02*
X8660000Y16749000D01*
X8660000Y16575000D02*
X8740000Y16495000D01*
X8740000Y16575000D02*
X8660000Y16495000D01*
X8660000Y16321000D02*
X8740000Y16241000D01*
X8740000Y16321000D02*
X8660000Y16241000D01*
X8660000Y16067000D02*
X8740000Y15987000D01*
X8740000Y16067000D02*
X8660000Y15987000D01*
X8660000Y15813000D02*
X8740000Y15733000D01*
X8740000Y15813000D02*
X8660000Y15733000D01*
X8660000Y15559000D02*
X8740000Y15479000D01*
X8740000Y15559000D02*
X8660000Y15479000D01*
X8660000Y15305000D02*
X8740000Y15225000D01*
X8740000Y15305000D02*
X8660000Y15225000D01*
X8660000Y15051000D02*
X8740000Y14971000D01*
X8740000Y15051000D02*
X8660000Y14971000D01*
X8660000Y14797000D02*
X8740000Y14717000D01*
X8740000Y14797000D02*
X8660000Y14717000D01*
X8660000Y14543000D02*
X8740000Y14463000D01*
X8740000Y14543000D02*
X8660000Y14463000D01*
X8660000Y14289000D02*
X8740000Y14209000D01*
X8740000Y14289000D02*
X8660000Y14209000D01*
X8779500Y6679000D02*
X8859500Y6599000D01*
X8859500Y6679000D02*
X8779500Y6599000D01*
X8779500Y6425000D02*
X8859500Y6345000D01*
X8859500Y6425000D02*
X8779500Y6345000D01*
X8779500Y6171000D02*
X8859500Y6091000D01*
X8859500Y6171000D02*
X8779500Y6091000D01*
X8779500Y5917000D02*
X8859500Y5837000D01*
X8859500Y5917000D02*
X8779500Y5837000D01*
X8779500Y5663000D02*
X8859500Y5583000D01*
X8859500Y5663000D02*
X8779500Y5583000D01*
X8779500Y5409000D02*
X8859500Y5329000D01*
X8859500Y5409000D02*
X8779500Y5329000D01*
X8779500Y5155000D02*
X8859500Y5075000D01*
X8859500Y5155000D02*
X8779500Y5075000D01*
X8779500Y4901000D02*
X8859500Y4821000D01*
X8859500Y4901000D02*
X8779500Y4821000D01*
X9419500Y13701000D02*
X9499500Y13621000D01*
X9499500Y13701000D02*
X9419500Y13621000D01*
X9422000Y17591000D02*
X9502000Y17511000D01*
X9502000Y17591000D02*
X9422000Y17511000D01*
X9422000Y17337000D02*
X9502000Y17257000D01*
X9502000Y17337000D02*
X9422000Y17257000D01*
X9422000Y17083000D02*
X9502000Y17003000D01*
X9502000Y17083000D02*
X9422000Y17003000D01*
X9422000Y16829000D02*
X9502000Y16749000D01*
X9502000Y16829000D02*
X9422000Y16749000D01*
X9422000Y16575000D02*
X9502000Y16495000D01*
X9502000Y16575000D02*
X9422000Y16495000D01*
X9422000Y16321000D02*
X9502000Y16241000D01*
X9502000Y16321000D02*
X9422000Y16241000D01*
X9422000Y16067000D02*
X9502000Y15987000D01*
X9502000Y16067000D02*
X9422000Y15987000D01*
X9422000Y15813000D02*
X9502000Y15733000D01*
X9502000Y15813000D02*
X9422000Y15733000D01*
X9422000Y15559000D02*
X9502000Y15479000D01*
X9502000Y15559000D02*
X9422000Y15479000D01*
X9422000Y15305000D02*
X9502000Y15225000D01*
X9502000Y15305000D02*
X9422000Y15225000D01*
X9422000Y15051000D02*
X9502000Y14971000D01*
X9502000Y15051000D02*
X9422000Y14971000D01*
X9422000Y14797000D02*
X9502000Y14717000D01*
X9502000Y14797000D02*
X9422000Y14717000D01*
X9422000Y14543000D02*
X9502000Y14463000D01*
X9502000Y14543000D02*
X9422000Y14463000D01*
X9422000Y14289000D02*
X9502000Y14209000D01*
X9502000Y14289000D02*
X9422000Y14209000D01*
X9436500Y3248000D02*
X9516500Y3168000D01*
X9516500Y3248000D02*
X9436500Y3168000D01*
X9436500Y2232000D02*
X9516500Y2152000D01*
X9516500Y2232000D02*
X9436500Y2152000D01*
X9541500Y6679000D02*
X9621500Y6599000D01*
X9621500Y6679000D02*
X9541500Y6599000D01*
X9541500Y6425000D02*
X9621500Y6345000D01*
X9621500Y6425000D02*
X9541500Y6345000D01*
X9541500Y6171000D02*
X9621500Y6091000D01*
X9621500Y6171000D02*
X9541500Y6091000D01*
X9541500Y5917000D02*
X9621500Y5837000D01*
X9621500Y5917000D02*
X9541500Y5837000D01*
X9541500Y5663000D02*
X9621500Y5583000D01*
X9621500Y5663000D02*
X9541500Y5583000D01*
X9541500Y5409000D02*
X9621500Y5329000D01*
X9621500Y5409000D02*
X9541500Y5329000D01*
X9541500Y5155000D02*
X9621500Y5075000D01*
X9621500Y5155000D02*
X9541500Y5075000D01*
X9541500Y4901000D02*
X9621500Y4821000D01*
X9621500Y4901000D02*
X9541500Y4821000D01*
X9760000Y3890000D02*
X9840000Y3810000D01*
X9840000Y3890000D02*
X9760000Y3810000D01*
X9870500Y5900000D02*
X9950500Y5820000D01*
X9950500Y5900000D02*
X9870500Y5820000D01*
X10017000Y10059500D02*
X10097000Y9979500D01*
X10097000Y10059500D02*
X10017000Y9979500D01*
X10017000Y9297500D02*
X10097000Y9217500D01*
X10097000Y9297500D02*
X10017000Y9217500D01*
X10271000Y10059500D02*
X10351000Y9979500D01*
X10351000Y10059500D02*
X10271000Y9979500D01*
X10271000Y9297500D02*
X10351000Y9217500D01*
X10351000Y9297500D02*
X10271000Y9217500D01*
X10525000Y10059500D02*
X10605000Y9979500D01*
X10605000Y10059500D02*
X10525000Y9979500D01*
X10525000Y9297500D02*
X10605000Y9217500D01*
X10605000Y9297500D02*
X10525000Y9217500D01*
X10669500Y14201000D02*
X10749500Y14121000D01*
X10749500Y14201000D02*
X10669500Y14121000D01*
X10669500Y13185000D02*
X10749500Y13105000D01*
X10749500Y13185000D02*
X10669500Y13105000D01*
X10776000Y3890000D02*
X10856000Y3810000D01*
X10856000Y3890000D02*
X10776000Y3810000D01*
X10779000Y10059500D02*
X10859000Y9979500D01*
X10859000Y10059500D02*
X10779000Y9979500D01*
X10779000Y9297500D02*
X10859000Y9217500D01*
X10859000Y9297500D02*
X10779000Y9217500D01*
X10886500Y5900000D02*
X10966500Y5820000D01*
X10966500Y5900000D02*
X10886500Y5820000D01*
X10936000Y7735000D02*
X11016000Y7655000D01*
X11016000Y7735000D02*
X10936000Y7655000D01*
X10944000Y7335000D02*
X11024000Y7255000D01*
X11024000Y7335000D02*
X10944000Y7255000D01*
X11033000Y10059500D02*
X11113000Y9979500D01*
X11113000Y10059500D02*
X11033000Y9979500D01*
X11033000Y9297500D02*
X11113000Y9217500D01*
X11113000Y9297500D02*
X11033000Y9217500D01*
X11129000Y11678000D02*
X11209000Y11598000D01*
X11209000Y11678000D02*
X11129000Y11598000D01*
X11129000Y10662000D02*
X11209000Y10582000D01*
X11209000Y10662000D02*
X11129000Y10582000D01*
X11160000Y3298000D02*
X11240000Y3218000D01*
X11240000Y3298000D02*
X11160000Y3218000D01*
X11160000Y2282000D02*
X11240000Y2202000D01*
X11240000Y2282000D02*
X11160000Y2202000D01*
X11287000Y10059500D02*
X11367000Y9979500D01*
X11367000Y10059500D02*
X11287000Y9979500D01*
X11287000Y9297500D02*
X11367000Y9217500D01*
X11367000Y9297500D02*
X11287000Y9217500D01*
X11510000Y3298000D02*
X11590000Y3218000D01*
X11590000Y3298000D02*
X11510000Y3218000D01*
X11510000Y2282000D02*
X11590000Y2202000D01*
X11590000Y2282000D02*
X11510000Y2202000D01*
X11541000Y10059500D02*
X11621000Y9979500D01*
X11621000Y10059500D02*
X11541000Y9979500D01*
X11541000Y9297500D02*
X11621000Y9217500D01*
X11621000Y9297500D02*
X11541000Y9217500D01*
X11952000Y7735000D02*
X12032000Y7655000D01*
X12032000Y7735000D02*
X11952000Y7655000D01*
X11960000Y7335000D02*
X12040000Y7255000D01*
X12040000Y7335000D02*
X11960000Y7255000D01*
X12410000Y3248000D02*
X12490000Y3168000D01*
X12490000Y3248000D02*
X12410000Y3168000D01*
X12410000Y2232000D02*
X12490000Y2152000D01*
X12490000Y2232000D02*
X12410000Y2152000D01*
X12810000Y3256000D02*
X12890000Y3176000D01*
X12890000Y3256000D02*
X12810000Y3176000D01*
X12810000Y2240000D02*
X12890000Y2160000D01*
X12890000Y2240000D02*
X12810000Y2160000D01*
X12975000Y10059500D02*
X13055000Y9979500D01*
X13055000Y10059500D02*
X12975000Y9979500D01*
X12975000Y9297500D02*
X13055000Y9217500D01*
X13055000Y9297500D02*
X12975000Y9217500D01*
X12998000Y7580000D02*
X13078000Y7500000D01*
X13078000Y7580000D02*
X12998000Y7500000D01*
X12998000Y7326000D02*
X13078000Y7246000D01*
X13078000Y7326000D02*
X12998000Y7246000D01*
X12998000Y7072000D02*
X13078000Y6992000D01*
X13078000Y7072000D02*
X12998000Y6992000D01*
X12998000Y6818000D02*
X13078000Y6738000D01*
X13078000Y6818000D02*
X12998000Y6738000D01*
X12998000Y6564000D02*
X13078000Y6484000D01*
X13078000Y6564000D02*
X12998000Y6484000D01*
X12998000Y6310000D02*
X13078000Y6230000D01*
X13078000Y6310000D02*
X12998000Y6230000D01*
X12998000Y6056000D02*
X13078000Y5976000D01*
X13078000Y6056000D02*
X12998000Y5976000D01*
X12998000Y5802000D02*
X13078000Y5722000D01*
X13078000Y5802000D02*
X12998000Y5722000D01*
X12998000Y5548000D02*
X13078000Y5468000D01*
X13078000Y5548000D02*
X12998000Y5468000D01*
X12998000Y5294000D02*
X13078000Y5214000D01*
X13078000Y5294000D02*
X12998000Y5214000D01*
X12998000Y5040000D02*
X13078000Y4960000D01*
X13078000Y5040000D02*
X12998000Y4960000D01*
X12998000Y4786000D02*
X13078000Y4706000D01*
X13078000Y4786000D02*
X12998000Y4706000D01*
X12998000Y4532000D02*
X13078000Y4452000D01*
X13078000Y4532000D02*
X12998000Y4452000D01*
X12998000Y4278000D02*
X13078000Y4198000D01*
X13078000Y4278000D02*
X12998000Y4198000D01*
X13210000Y3248000D02*
X13290000Y3168000D01*
X13290000Y3248000D02*
X13210000Y3168000D01*
X13210000Y2232000D02*
X13290000Y2152000D01*
X13290000Y2232000D02*
X13210000Y2152000D01*
X13229000Y10059500D02*
X13309000Y9979500D01*
X13309000Y10059500D02*
X13229000Y9979500D01*
X13229000Y9297500D02*
X13309000Y9217500D01*
X13309000Y9297500D02*
X13229000Y9217500D01*
X13402000Y18440000D02*
X13482000Y18360000D01*
X13482000Y18440000D02*
X13402000Y18360000D01*
X13402000Y17678000D02*
X13482000Y17598000D01*
X13482000Y17678000D02*
X13402000Y17598000D01*
X13436000Y14540000D02*
X13516000Y14460000D01*
X13516000Y14540000D02*
X13436000Y14460000D01*
X13436000Y13778000D02*
X13516000Y13698000D01*
X13516000Y13778000D02*
X13436000Y13698000D01*
X13483000Y10059500D02*
X13563000Y9979500D01*
X13563000Y10059500D02*
X13483000Y9979500D01*
X13483000Y9297500D02*
X13563000Y9217500D01*
X13563000Y9297500D02*
X13483000Y9217500D01*
X13610000Y11548000D02*
X13690000Y11468000D01*
X13690000Y11548000D02*
X13610000Y11468000D01*
X13610000Y10532000D02*
X13690000Y10452000D01*
X13690000Y10532000D02*
X13610000Y10452000D01*
X13610000Y3256000D02*
X13690000Y3176000D01*
X13690000Y3256000D02*
X13610000Y3176000D01*
X13610000Y2240000D02*
X13690000Y2160000D01*
X13690000Y2240000D02*
X13610000Y2160000D01*
X13656000Y18440000D02*
X13736000Y18360000D01*
X13736000Y18440000D02*
X13656000Y18360000D01*
X13656000Y17678000D02*
X13736000Y17598000D01*
X13736000Y17678000D02*
X13656000Y17598000D01*
X13672000Y12886000D02*
X13752000Y12806000D01*
X13752000Y12886000D02*
X13672000Y12806000D01*
X13672000Y11870000D02*
X13752000Y11790000D01*
X13752000Y11870000D02*
X13672000Y11790000D01*
X13690000Y14540000D02*
X13770000Y14460000D01*
X13770000Y14540000D02*
X13690000Y14460000D01*
X13690000Y13778000D02*
X13770000Y13698000D01*
X13770000Y13778000D02*
X13690000Y13698000D01*
X13737000Y10059500D02*
X13817000Y9979500D01*
X13817000Y10059500D02*
X13737000Y9979500D01*
X13737000Y9297500D02*
X13817000Y9217500D01*
X13817000Y9297500D02*
X13737000Y9217500D01*
X13760000Y7580000D02*
X13840000Y7500000D01*
X13840000Y7580000D02*
X13760000Y7500000D01*
X13760000Y7326000D02*
X13840000Y7246000D01*
X13840000Y7326000D02*
X13760000Y7246000D01*
X13760000Y7072000D02*
X13840000Y6992000D01*
X13840000Y7072000D02*
X13760000Y6992000D01*
X13760000Y6818000D02*
X13840000Y6738000D01*
X13840000Y6818000D02*
X13760000Y6738000D01*
X13760000Y6564000D02*
X13840000Y6484000D01*
X13840000Y6564000D02*
X13760000Y6484000D01*
X13760000Y6310000D02*
X13840000Y6230000D01*
X13840000Y6310000D02*
X13760000Y6230000D01*
X13760000Y6056000D02*
X13840000Y5976000D01*
X13840000Y6056000D02*
X13760000Y5976000D01*
X13760000Y5802000D02*
X13840000Y5722000D01*
X13840000Y5802000D02*
X13760000Y5722000D01*
X13760000Y5548000D02*
X13840000Y5468000D01*
X13840000Y5548000D02*
X13760000Y5468000D01*
X13760000Y5294000D02*
X13840000Y5214000D01*
X13840000Y5294000D02*
X13760000Y5214000D01*
X13760000Y5040000D02*
X13840000Y4960000D01*
X13840000Y5040000D02*
X13760000Y4960000D01*
X13760000Y4786000D02*
X13840000Y4706000D01*
X13840000Y4786000D02*
X13760000Y4706000D01*
X13760000Y4532000D02*
X13840000Y4452000D01*
X13840000Y4532000D02*
X13760000Y4452000D01*
X13760000Y4278000D02*
X13840000Y4198000D01*
X13840000Y4278000D02*
X13760000Y4198000D01*
X13786000Y3835000D02*
X13866000Y3755000D01*
X13866000Y3835000D02*
X13786000Y3755000D01*
X13910000Y18440000D02*
X13990000Y18360000D01*
X13990000Y18440000D02*
X13910000Y18360000D01*
X13910000Y17678000D02*
X13990000Y17598000D01*
X13990000Y17678000D02*
X13910000Y17598000D01*
X13944000Y14540000D02*
X14024000Y14460000D01*
X14024000Y14540000D02*
X13944000Y14460000D01*
X13944000Y13778000D02*
X14024000Y13698000D01*
X14024000Y13778000D02*
X13944000Y13698000D01*
X13991000Y10059500D02*
X14071000Y9979500D01*
X14071000Y10059500D02*
X13991000Y9979500D01*
X13991000Y9297500D02*
X14071000Y9217500D01*
X14071000Y9297500D02*
X13991000Y9217500D01*
X14164000Y18440000D02*
X14244000Y18360000D01*
X14244000Y18440000D02*
X14164000Y18360000D01*
X14164000Y17678000D02*
X14244000Y17598000D01*
X14244000Y17678000D02*
X14164000Y17598000D01*
X14198000Y14540000D02*
X14278000Y14460000D01*
X14278000Y14540000D02*
X14198000Y14460000D01*
X14198000Y13778000D02*
X14278000Y13698000D01*
X14278000Y13778000D02*
X14198000Y13698000D01*
X14210000Y16290000D02*
X14290000Y16210000D01*
X14290000Y16290000D02*
X14210000Y16210000D01*
X14210000Y16040000D02*
X14290000Y15960000D01*
X14290000Y16040000D02*
X14210000Y15960000D01*
X14245000Y10059500D02*
X14325000Y9979500D01*
X14325000Y10059500D02*
X14245000Y9979500D01*
X14245000Y9297500D02*
X14325000Y9217500D01*
X14325000Y9297500D02*
X14245000Y9217500D01*
X14452000Y14540000D02*
X14532000Y14460000D01*
X14532000Y14540000D02*
X14452000Y14460000D01*
X14452000Y13778000D02*
X14532000Y13698000D01*
X14532000Y13778000D02*
X14452000Y13698000D01*
X14499000Y10059500D02*
X14579000Y9979500D01*
X14579000Y10059500D02*
X14499000Y9979500D01*
X14499000Y9297500D02*
X14579000Y9217500D01*
X14579000Y9297500D02*
X14499000Y9217500D01*
X14706000Y14540000D02*
X14786000Y14460000D01*
X14786000Y14540000D02*
X14706000Y14460000D01*
X14706000Y13778000D02*
X14786000Y13698000D01*
X14786000Y13778000D02*
X14706000Y13698000D01*
X14744000Y7635000D02*
X14824000Y7555000D01*
X14824000Y7635000D02*
X14744000Y7555000D01*
X14802000Y3835000D02*
X14882000Y3755000D01*
X14882000Y3835000D02*
X14802000Y3755000D01*
X14910000Y16290000D02*
X14990000Y16210000D01*
X14990000Y16290000D02*
X14910000Y16210000D01*
X14910000Y16040000D02*
X14990000Y15960000D01*
X14990000Y16040000D02*
X14910000Y15960000D01*
X14948000Y6594000D02*
X15028000Y6514000D01*
X15028000Y6594000D02*
X14948000Y6514000D01*
X14960000Y14540000D02*
X15040000Y14460000D01*
X15040000Y14540000D02*
X14960000Y14460000D01*
X14960000Y13778000D02*
X15040000Y13698000D01*
X15040000Y13778000D02*
X14960000Y13698000D01*
X14998000Y5844000D02*
X15078000Y5764000D01*
X15078000Y5844000D02*
X14998000Y5764000D01*
X15198000Y6594000D02*
X15278000Y6514000D01*
X15278000Y6594000D02*
X15198000Y6514000D01*
X15214000Y14540000D02*
X15294000Y14460000D01*
X15294000Y14540000D02*
X15214000Y14460000D01*
X15214000Y13778000D02*
X15294000Y13698000D01*
X15294000Y13778000D02*
X15214000Y13698000D01*
X15248000Y5844000D02*
X15328000Y5764000D01*
X15328000Y5844000D02*
X15248000Y5764000D01*
X15468000Y14540000D02*
X15548000Y14460000D01*
X15548000Y14540000D02*
X15468000Y14460000D01*
X15468000Y13778000D02*
X15548000Y13698000D01*
X15548000Y13778000D02*
X15468000Y13698000D01*
X15722000Y14540000D02*
X15802000Y14460000D01*
X15802000Y14540000D02*
X15722000Y14460000D01*
X15722000Y13778000D02*
X15802000Y13698000D01*
X15802000Y13778000D02*
X15722000Y13698000D01*
X15760000Y7635000D02*
X15840000Y7555000D01*
X15840000Y7635000D02*
X15760000Y7555000D01*
X15825000Y10091000D02*
X15905000Y10011000D01*
X15905000Y10091000D02*
X15825000Y10011000D01*
X15825000Y9329000D02*
X15905000Y9249000D01*
X15905000Y9329000D02*
X15825000Y9249000D01*
X15976000Y14540000D02*
X16056000Y14460000D01*
X16056000Y14540000D02*
X15976000Y14460000D01*
X15976000Y13778000D02*
X16056000Y13698000D01*
X16056000Y13778000D02*
X15976000Y13698000D01*
X16079000Y10091000D02*
X16159000Y10011000D01*
X16159000Y10091000D02*
X16079000Y10011000D01*
X16079000Y9329000D02*
X16159000Y9249000D01*
X16159000Y9329000D02*
X16079000Y9249000D01*
X16230000Y14540000D02*
X16310000Y14460000D01*
X16310000Y14540000D02*
X16230000Y14460000D01*
X16230000Y13778000D02*
X16310000Y13698000D01*
X16310000Y13778000D02*
X16230000Y13698000D01*
X16333000Y10091000D02*
X16413000Y10011000D01*
X16413000Y10091000D02*
X16333000Y10011000D01*
X16333000Y9329000D02*
X16413000Y9249000D01*
X16413000Y9329000D02*
X16333000Y9249000D01*
X16484000Y14540000D02*
X16564000Y14460000D01*
X16564000Y14540000D02*
X16484000Y14460000D01*
X16484000Y13778000D02*
X16564000Y13698000D01*
X16564000Y13778000D02*
X16484000Y13698000D01*
X16587000Y10091000D02*
X16667000Y10011000D01*
X16667000Y10091000D02*
X16587000Y10011000D01*
X16587000Y9329000D02*
X16667000Y9249000D01*
X16667000Y9329000D02*
X16587000Y9249000D01*
X16738000Y14540000D02*
X16818000Y14460000D01*
X16818000Y14540000D02*
X16738000Y14460000D01*
X16738000Y13778000D02*
X16818000Y13698000D01*
X16818000Y13778000D02*
X16738000Y13698000D01*
X16841000Y10091000D02*
X16921000Y10011000D01*
X16921000Y10091000D02*
X16841000Y10011000D01*
X16841000Y9329000D02*
X16921000Y9249000D01*
X16921000Y9329000D02*
X16841000Y9249000D01*
X16841000Y8949000D02*
X16921000Y8869000D01*
X16921000Y8949000D02*
X16841000Y8869000D01*
X16841000Y7933000D02*
X16921000Y7853000D01*
X16921000Y7933000D02*
X16841000Y7853000D01*
X17095000Y10091000D02*
X17175000Y10011000D01*
X17175000Y10091000D02*
X17095000Y10011000D01*
X17095000Y9329000D02*
X17175000Y9249000D01*
X17175000Y9329000D02*
X17095000Y9249000D01*
X17176000Y15040000D02*
X17256000Y14960000D01*
X17256000Y15040000D02*
X17176000Y14960000D01*
X17191000Y8965000D02*
X17271000Y8885000D01*
X17271000Y8965000D02*
X17191000Y8885000D01*
X17191000Y7949000D02*
X17271000Y7869000D01*
X17271000Y7949000D02*
X17191000Y7869000D01*
X17349000Y10091000D02*
X17429000Y10011000D01*
X17429000Y10091000D02*
X17349000Y10011000D01*
X17349000Y9329000D02*
X17429000Y9249000D01*
X17429000Y9329000D02*
X17349000Y9249000D01*
X17378934Y5211250D02*
X17458934Y5131250D01*
X17458934Y5211250D02*
X17378934Y5131250D01*
X17378934Y4195250D02*
X17458934Y4115250D01*
X17458934Y4195250D02*
X17378934Y4115250D01*
X17610000Y2190000D02*
X17690000Y2110000D01*
X17690000Y2190000D02*
X17610000Y2110000D01*
X17610000Y1174000D02*
X17690000Y1094000D01*
X17690000Y1174000D02*
X17610000Y1094000D01*
X18192000Y15040000D02*
X18272000Y14960000D01*
X18272000Y15040000D02*
X18192000Y14960000D01*
X18517434Y7112250D02*
X18597434Y7032250D01*
X18597434Y7112250D02*
X18517434Y7032250D01*
X18517434Y6858250D02*
X18597434Y6778250D01*
X18597434Y6858250D02*
X18517434Y6778250D01*
X18517434Y6604250D02*
X18597434Y6524250D01*
X18597434Y6604250D02*
X18517434Y6524250D01*
X18517434Y6350250D02*
X18597434Y6270250D01*
X18597434Y6350250D02*
X18517434Y6270250D01*
X18517434Y6096250D02*
X18597434Y6016250D01*
X18597434Y6096250D02*
X18517434Y6016250D01*
X18517434Y5842250D02*
X18597434Y5762250D01*
X18597434Y5842250D02*
X18517434Y5762250D01*
X18517434Y5588250D02*
X18597434Y5508250D01*
X18597434Y5588250D02*
X18517434Y5508250D01*
X18517434Y5334250D02*
X18597434Y5254250D01*
X18597434Y5334250D02*
X18517434Y5254250D01*
X18517434Y5080250D02*
X18597434Y5000250D01*
X18597434Y5080250D02*
X18517434Y5000250D01*
X18517434Y4826250D02*
X18597434Y4746250D01*
X18597434Y4826250D02*
X18517434Y4746250D01*
X18517434Y4572250D02*
X18597434Y4492250D01*
X18597434Y4572250D02*
X18517434Y4492250D01*
X18517434Y4318250D02*
X18597434Y4238250D01*
X18597434Y4318250D02*
X18517434Y4238250D01*
X18517434Y4064250D02*
X18597434Y3984250D01*
X18597434Y4064250D02*
X18517434Y3984250D01*
X18517434Y3810250D02*
X18597434Y3730250D01*
X18597434Y3810250D02*
X18517434Y3730250D01*
X18810000Y9590000D02*
X18890000Y9510000D01*
X18890000Y9590000D02*
X18810000Y9510000D01*
X18810000Y9390000D02*
X18890000Y9310000D01*
X18890000Y9390000D02*
X18810000Y9310000D01*
X18810000Y9190000D02*
X18890000Y9110000D01*
X18890000Y9190000D02*
X18810000Y9110000D01*
X20041434Y7112250D02*
X20121434Y7032250D01*
X20121434Y7112250D02*
X20041434Y7032250D01*
X20041434Y6858250D02*
X20121434Y6778250D01*
X20121434Y6858250D02*
X20041434Y6778250D01*
X20041434Y6604250D02*
X20121434Y6524250D01*
X20121434Y6604250D02*
X20041434Y6524250D01*
X20041434Y6350250D02*
X20121434Y6270250D01*
X20121434Y6350250D02*
X20041434Y6270250D01*
X20041434Y6096250D02*
X20121434Y6016250D01*
X20121434Y6096250D02*
X20041434Y6016250D01*
X20041434Y5842250D02*
X20121434Y5762250D01*
X20121434Y5842250D02*
X20041434Y5762250D01*
X20041434Y5588250D02*
X20121434Y5508250D01*
X20121434Y5588250D02*
X20041434Y5508250D01*
X20041434Y5334250D02*
X20121434Y5254250D01*
X20121434Y5334250D02*
X20041434Y5254250D01*
X20041434Y5080250D02*
X20121434Y5000250D01*
X20121434Y5080250D02*
X20041434Y5000250D01*
X20041434Y4826250D02*
X20121434Y4746250D01*
X20121434Y4826250D02*
X20041434Y4746250D01*
X20041434Y4572250D02*
X20121434Y4492250D01*
X20121434Y4572250D02*
X20041434Y4492250D01*
X20041434Y4318250D02*
X20121434Y4238250D01*
X20121434Y4318250D02*
X20041434Y4238250D01*
X20041434Y4064250D02*
X20121434Y3984250D01*
X20121434Y4064250D02*
X20041434Y3984250D01*
X20041434Y3810250D02*
X20121434Y3730250D01*
X20121434Y3810250D02*
X20041434Y3730250D01*
X21378934Y7111250D02*
X21458934Y7031250D01*
X21458934Y7111250D02*
X21378934Y7031250D01*
X21378934Y6095250D02*
X21458934Y6015250D01*
X21458934Y6095250D02*
X21378934Y6015250D01*
X21460000Y13743750D02*
X21540000Y13663750D01*
X21540000Y13743750D02*
X21460000Y13663750D01*
X21460000Y12727750D02*
X21540000Y12647750D01*
X21540000Y12727750D02*
X21460000Y12647750D01*
X22085000Y13335750D02*
X22165000Y13255750D01*
X22165000Y13335750D02*
X22085000Y13255750D01*
X22335000Y13335750D02*
X22415000Y13255750D01*
X22415000Y13335750D02*
X22335000Y13255750D01*
X22610000Y6198000D02*
X22690000Y6118000D01*
X22690000Y6198000D02*
X22610000Y6118000D01*
X22610000Y5182000D02*
X22690000Y5102000D01*
X22690000Y5182000D02*
X22610000Y5102000D01*
X22610000Y4398000D02*
X22690000Y4318000D01*
X22690000Y4398000D02*
X22610000Y4318000D01*
X22610000Y3382000D02*
X22690000Y3302000D01*
X22690000Y3382000D02*
X22610000Y3302000D01*
X22910000Y13510750D02*
X22990000Y13430750D01*
X22990000Y13510750D02*
X22910000Y13430750D01*
X22910000Y13260750D02*
X22990000Y13180750D01*
X22990000Y13260750D02*
X22910000Y13180750D01*
X1945000Y12920000D02*
G75*
G02*
X1855000Y12920000I-45000J0D01*
G01*
X1855000Y12920000D02*
G75*
G02*
X1945000Y12920000I45000J0D01*
G01*
X2023000Y18690000D02*
G75*
G02*
X1933000Y18690000I-45000J0D01*
G01*
X1933000Y18690000D02*
G75*
G02*
X2023000Y18690000I45000J0D01*
G01*
X2023000Y15700000D02*
G75*
G02*
X1933000Y15700000I-45000J0D01*
G01*
X1933000Y15700000D02*
G75*
G02*
X2023000Y15700000I45000J0D01*
G01*
X2199000Y12920000D02*
G75*
G02*
X2109000Y12920000I-45000J0D01*
G01*
X2109000Y12920000D02*
G75*
G02*
X2199000Y12920000I45000J0D01*
G01*
X2277000Y18690000D02*
G75*
G02*
X2187000Y18690000I-45000J0D01*
G01*
X2187000Y18690000D02*
G75*
G02*
X2277000Y18690000I45000J0D01*
G01*
X2277000Y15700000D02*
G75*
G02*
X2187000Y15700000I-45000J0D01*
G01*
X2187000Y15700000D02*
G75*
G02*
X2277000Y15700000I45000J0D01*
G01*
X17863934Y4021250D02*
G75*
G02*
X17773934Y4021250I-45000J0D01*
G01*
X17773934Y4021250D02*
G75*
G02*
X17863934Y4021250I45000J0D01*
G01*
X18117934Y4021250D02*
G75*
G02*
X18027934Y4021250I-45000J0D01*
G01*
X18027934Y4021250D02*
G75*
G02*
X18117934Y4021250I45000J0D01*
G01*
X20909934Y5721250D02*
G75*
G02*
X20819934Y5721250I-45000J0D01*
G01*
X20819934Y5721250D02*
G75*
G02*
X20909934Y5721250I45000J0D01*
G01*
X21163934Y5721250D02*
G75*
G02*
X21073934Y5721250I-45000J0D01*
G01*
X21073934Y5721250D02*
G75*
G02*
X21163934Y5721250I45000J0D01*
G01*
X21641000Y12195750D02*
G75*
G02*
X21551000Y12195750I-45000J0D01*
G01*
X21551000Y12195750D02*
G75*
G02*
X21641000Y12195750I45000J0D01*
G01*
X21895000Y12195750D02*
G75*
G02*
X21805000Y12195750I-45000J0D01*
G01*
X21805000Y12195750D02*
G75*
G02*
X21895000Y12195750I45000J0D01*
G01*
X21793934Y1447500D02*
X21793934Y1352500D01*
X21746434Y1400000D02*
X21841434Y1400000D01*
X21793934Y1247500D02*
X21793934Y1152500D01*
X21746434Y1200000D02*
X21841434Y1200000D01*
X22043934Y1447500D02*
X22043934Y1352500D01*
X21996434Y1400000D02*
X22091434Y1400000D01*
X22043934Y1247500D02*
X22043934Y1152500D01*
X21996434Y1200000D02*
X22091434Y1200000D01*
X1735356Y4914644D02*
X1735356Y4985356D01*
X1664644Y4985356D01*
X1664644Y4914644D01*
X1735356Y4914644D01*
X1985356Y8564644D02*
X1985356Y8635356D01*
X1914644Y8635356D01*
X1914644Y8564644D01*
X1985356Y8564644D01*
X3685356Y7764644D02*
X3685356Y7835356D01*
X3614644Y7835356D01*
X3614644Y7764644D01*
X3685356Y7764644D01*
X3885356Y5864644D02*
X3885356Y5935356D01*
X3814644Y5935356D01*
X3814644Y5864644D01*
X3885356Y5864644D01*
X4185356Y8064644D02*
X4185356Y8135356D01*
X4114644Y8135356D01*
X4114644Y8064644D01*
X4185356Y8064644D01*
X4285356Y16914644D02*
X4285356Y16985356D01*
X4214644Y16985356D01*
X4214644Y16914644D01*
X4285356Y16914644D01*
X5335356Y9314644D02*
X5335356Y9385356D01*
X5264644Y9385356D01*
X5264644Y9314644D01*
X5335356Y9314644D01*
X5635356Y17564644D02*
X5635356Y17635356D01*
X5564644Y17635356D01*
X5564644Y17564644D01*
X5635356Y17564644D01*
X6135356Y4814644D02*
X6135356Y4885356D01*
X6064644Y4885356D01*
X6064644Y4814644D01*
X6135356Y4814644D01*
X6185356Y16764644D02*
X6185356Y16835356D01*
X6114644Y16835356D01*
X6114644Y16764644D01*
X6185356Y16764644D01*
X6485356Y4314644D02*
X6485356Y4385356D01*
X6414644Y4385356D01*
X6414644Y4314644D01*
X6485356Y4314644D01*
X6485356Y3964644D02*
X6485356Y4035356D01*
X6414644Y4035356D01*
X6414644Y3964644D01*
X6485356Y3964644D01*
X7985356Y5014644D02*
X7985356Y5085356D01*
X7914644Y5085356D01*
X7914644Y5014644D01*
X7985356Y5014644D01*
X8285356Y10164644D02*
X8285356Y10235356D01*
X8214644Y10235356D01*
X8214644Y10164644D01*
X8285356Y10164644D01*
X8485356Y7814644D02*
X8485356Y7885356D01*
X8414644Y7885356D01*
X8414644Y7814644D01*
X8485356Y7814644D01*
X9135356Y19014644D02*
X9135356Y19085356D01*
X9064644Y19085356D01*
X9064644Y19014644D01*
X9135356Y19014644D01*
X9335356Y17964644D02*
X9335356Y18035356D01*
X9264644Y18035356D01*
X9264644Y17964644D01*
X9335356Y17964644D01*
X9385356Y7814644D02*
X9385356Y7885356D01*
X9314644Y7885356D01*
X9314644Y7814644D01*
X9385356Y7814644D01*
X10635356Y4514644D02*
X10635356Y4585356D01*
X10564644Y4585356D01*
X10564644Y4514644D01*
X10635356Y4514644D01*
X11335356Y4614644D02*
X11335356Y4685356D01*
X11264644Y4685356D01*
X11264644Y4614644D01*
X11335356Y4614644D01*
X11535356Y17664644D02*
X11535356Y17735356D01*
X11464644Y17735356D01*
X11464644Y17664644D01*
X11535356Y17664644D01*
X11585356Y12164644D02*
X11585356Y12235356D01*
X11514644Y12235356D01*
X11514644Y12164644D01*
X11585356Y12164644D01*
X11935356Y10464644D02*
X11935356Y10535356D01*
X11864644Y10535356D01*
X11864644Y10464644D01*
X11935356Y10464644D01*
X11935356Y1764644D02*
X11935356Y1835356D01*
X11864644Y1835356D01*
X11864644Y1764644D01*
X11935356Y1764644D01*
X11985356Y9664644D02*
X11985356Y9735356D01*
X11914644Y9735356D01*
X11914644Y9664644D01*
X11985356Y9664644D01*
X12085356Y8564644D02*
X12085356Y8635356D01*
X12014644Y8635356D01*
X12014644Y8564644D01*
X12085356Y8564644D01*
X12110356Y4539644D02*
X12110356Y4610356D01*
X12039644Y4610356D01*
X12039644Y4539644D01*
X12110356Y4539644D01*
X12135356Y8964644D02*
X12135356Y9035356D01*
X12064644Y9035356D01*
X12064644Y8964644D01*
X12135356Y8964644D01*
X12485356Y13564644D02*
X12485356Y13635356D01*
X12414644Y13635356D01*
X12414644Y13564644D01*
X12485356Y13564644D01*
X12735356Y13114644D02*
X12735356Y13185356D01*
X12664644Y13185356D01*
X12664644Y13114644D01*
X12735356Y13114644D01*
X12785356Y8964644D02*
X12785356Y9035356D01*
X12714644Y9035356D01*
X12714644Y8964644D01*
X12785356Y8964644D01*
X12985356Y12064644D02*
X12985356Y12135356D01*
X12914644Y12135356D01*
X12914644Y12064644D01*
X12985356Y12064644D01*
X13485356Y16864644D02*
X13485356Y16935356D01*
X13414644Y16935356D01*
X13414644Y16864644D01*
X13485356Y16864644D01*
X13485356Y15414644D02*
X13485356Y15485356D01*
X13414644Y15485356D01*
X13414644Y15414644D01*
X13485356Y15414644D01*
X13635356Y16114644D02*
X13635356Y16185356D01*
X13564644Y16185356D01*
X13564644Y16114644D01*
X13635356Y16114644D01*
X13785356Y814644D02*
X13785356Y885356D01*
X13714644Y885356D01*
X13714644Y814644D01*
X13785356Y814644D01*
X13885356Y8214644D02*
X13885356Y8285356D01*
X13814644Y8285356D01*
X13814644Y8214644D01*
X13885356Y8214644D01*
X13935356Y8714644D02*
X13935356Y8785356D01*
X13864644Y8785356D01*
X13864644Y8714644D01*
X13935356Y8714644D01*
X14085356Y1914644D02*
X14085356Y1985356D01*
X14014644Y1985356D01*
X14014644Y1914644D01*
X14085356Y1914644D01*
X14185356Y18964644D02*
X14185356Y19035356D01*
X14114644Y19035356D01*
X14114644Y18964644D01*
X14185356Y18964644D01*
X14685356Y17914644D02*
X14685356Y17985356D01*
X14614644Y17985356D01*
X14614644Y17914644D01*
X14685356Y17914644D01*
X14985356Y19164644D02*
X14985356Y19235356D01*
X14914644Y19235356D01*
X14914644Y19164644D01*
X14985356Y19164644D01*
X14985356Y7264644D02*
X14985356Y7335356D01*
X14914644Y7335356D01*
X14914644Y7264644D01*
X14985356Y7264644D01*
X15170356Y9479644D02*
X15170356Y9550356D01*
X15099644Y9550356D01*
X15099644Y9479644D01*
X15170356Y9479644D01*
X15185356Y3364644D02*
X15185356Y3435356D01*
X15114644Y3435356D01*
X15114644Y3364644D01*
X15185356Y3364644D01*
X15335356Y18664644D02*
X15335356Y18735356D01*
X15264644Y18735356D01*
X15264644Y18664644D01*
X15335356Y18664644D01*
X15785356Y15914644D02*
X15785356Y15985356D01*
X15714644Y15985356D01*
X15714644Y15914644D01*
X15785356Y15914644D01*
X15985356Y8714644D02*
X15985356Y8785356D01*
X15914644Y8785356D01*
X15914644Y8714644D01*
X15985356Y8714644D01*
X16035356Y12414644D02*
X16035356Y12485356D01*
X15964644Y12485356D01*
X15964644Y12414644D01*
X16035356Y12414644D01*
X16035356Y3114644D02*
X16035356Y3185356D01*
X15964644Y3185356D01*
X15964644Y3114644D01*
X16035356Y3114644D01*
X16135356Y1464644D02*
X16135356Y1535356D01*
X16064644Y1535356D01*
X16064644Y1464644D01*
X16135356Y1464644D01*
X16185356Y8564644D02*
X16185356Y8635356D01*
X16114644Y8635356D01*
X16114644Y8564644D01*
X16185356Y8564644D01*
X16235356Y8214644D02*
X16235356Y8285356D01*
X16164644Y8285356D01*
X16164644Y8214644D01*
X16235356Y8214644D01*
X16485356Y15314644D02*
X16485356Y15385356D01*
X16414644Y15385356D01*
X16414644Y15314644D01*
X16485356Y15314644D01*
X16535356Y15914644D02*
X16535356Y15985356D01*
X16464644Y15985356D01*
X16464644Y15914644D01*
X16535356Y15914644D01*
X17235356Y15314644D02*
X17235356Y15385356D01*
X17164644Y15385356D01*
X17164644Y15314644D01*
X17235356Y15314644D01*
X17235356Y14364644D02*
X17235356Y14435356D01*
X17164644Y14435356D01*
X17164644Y14364644D01*
X17235356Y14364644D01*
X17635356Y12964644D02*
X17635356Y13035356D01*
X17564644Y13035356D01*
X17564644Y12964644D01*
X17635356Y12964644D01*
X17877993Y7864644D02*
X17877993Y7935356D01*
X17807282Y7935356D01*
X17807282Y7864644D01*
X17877993Y7864644D01*
X17885356Y8064644D02*
X17885356Y8135356D01*
X17814644Y8135356D01*
X17814644Y8064644D01*
X17885356Y8064644D01*
X18135356Y10314644D02*
X18135356Y10385356D01*
X18064644Y10385356D01*
X18064644Y10314644D01*
X18135356Y10314644D01*
X18335356Y9514644D02*
X18335356Y9585356D01*
X18264644Y9585356D01*
X18264644Y9514644D01*
X18335356Y9514644D01*
X18485356Y12914644D02*
X18485356Y12985356D01*
X18414644Y12985356D01*
X18414644Y12914644D01*
X18485356Y12914644D01*
X18935356Y12664644D02*
X18935356Y12735356D01*
X18864644Y12735356D01*
X18864644Y12664644D01*
X18935356Y12664644D01*
X18985356Y13664644D02*
X18985356Y13735356D01*
X18914644Y13735356D01*
X18914644Y13664644D01*
X18985356Y13664644D01*
X19235356Y10714644D02*
X19235356Y10785356D01*
X19164644Y10785356D01*
X19164644Y10714644D01*
X19235356Y10714644D01*
X20035356Y16564644D02*
X20035356Y16635356D01*
X19964644Y16635356D01*
X19964644Y16564644D01*
X20035356Y16564644D01*
X20085356Y10714644D02*
X20085356Y10785356D01*
X20014644Y10785356D01*
X20014644Y10714644D01*
X20085356Y10714644D01*
X20435356Y16014644D02*
X20435356Y16085356D01*
X20364644Y16085356D01*
X20364644Y16014644D01*
X20435356Y16014644D01*
X20510356Y10039644D02*
X20510356Y10110356D01*
X20439644Y10110356D01*
X20439644Y10039644D01*
X20510356Y10039644D01*
X20785356Y10064644D02*
X20785356Y10135356D01*
X20714644Y10135356D01*
X20714644Y10064644D01*
X20785356Y10064644D01*
X1992500Y2982000D02*
X2042500Y3032000D01*
X1992500Y3082000D01*
X1942500Y3032000D01*
X1992500Y2982000D01*
X1992500Y2482000D02*
X2042500Y2532000D01*
X1992500Y2582000D01*
X1942500Y2532000D01*
X1992500Y2482000D01*
X2048000Y5150000D02*
X2098000Y5200000D01*
X2048000Y5250000D01*
X1998000Y5200000D01*
X2048000Y5150000D01*
X2548000Y5150000D02*
X2598000Y5200000D01*
X2548000Y5250000D01*
X2498000Y5200000D01*
X2548000Y5150000D01*
X2561500Y3153000D02*
X2611500Y3203000D01*
X2561500Y3253000D01*
X2511500Y3203000D01*
X2561500Y3153000D01*
X2600000Y7200000D02*
X2650000Y7250000D01*
X2600000Y7300000D01*
X2550000Y7250000D01*
X2600000Y7200000D01*
X2600000Y6700000D02*
X2650000Y6750000D01*
X2600000Y6800000D01*
X2550000Y6750000D01*
X2600000Y6700000D01*
X2850000Y11650000D02*
X2900000Y11700000D01*
X2850000Y11750000D01*
X2800000Y11700000D01*
X2850000Y11650000D01*
X2905000Y14600000D02*
X2955000Y14650000D01*
X2905000Y14700000D01*
X2855000Y14650000D01*
X2905000Y14600000D01*
X3061500Y3153000D02*
X3111500Y3203000D01*
X3061500Y3253000D01*
X3011500Y3203000D01*
X3061500Y3153000D01*
X3155000Y17340000D02*
X3205000Y17390000D01*
X3155000Y17440000D01*
X3105000Y17390000D01*
X3155000Y17340000D01*
X3350000Y11650000D02*
X3400000Y11700000D01*
X3350000Y11750000D01*
X3300000Y11700000D01*
X3350000Y11650000D01*
X3405000Y14600000D02*
X3455000Y14650000D01*
X3405000Y14700000D01*
X3355000Y14650000D01*
X3405000Y14600000D01*
X3655000Y17340000D02*
X3705000Y17390000D01*
X3655000Y17440000D01*
X3605000Y17390000D01*
X3655000Y17340000D01*
X3700000Y10181000D02*
X3750000Y10231000D01*
X3700000Y10281000D01*
X3650000Y10231000D01*
X3700000Y10181000D01*
X3700000Y9681000D02*
X3750000Y9731000D01*
X3700000Y9781000D01*
X3650000Y9731000D01*
X3700000Y9681000D01*
X4102500Y3869000D02*
X4152500Y3919000D01*
X4102500Y3969000D01*
X4052500Y3919000D01*
X4102500Y3869000D01*
X4102500Y3369000D02*
X4152500Y3419000D01*
X4102500Y3469000D01*
X4052500Y3419000D01*
X4102500Y3369000D01*
X4400000Y10200000D02*
X4450000Y10250000D01*
X4400000Y10300000D01*
X4350000Y10250000D01*
X4400000Y10200000D01*
X4400000Y9700000D02*
X4450000Y9750000D01*
X4400000Y9800000D01*
X4350000Y9750000D01*
X4400000Y9700000D01*
X4541500Y6103000D02*
X4591500Y6153000D01*
X4541500Y6203000D01*
X4491500Y6153000D01*
X4541500Y6103000D01*
X5000000Y16919000D02*
X5050000Y16969000D01*
X5000000Y17019000D01*
X4950000Y16969000D01*
X5000000Y16919000D01*
X5000000Y16665000D02*
X5050000Y16715000D01*
X5000000Y16765000D01*
X4950000Y16715000D01*
X5000000Y16665000D01*
X5000000Y16411000D02*
X5050000Y16461000D01*
X5000000Y16511000D01*
X4950000Y16461000D01*
X5000000Y16411000D01*
X5000000Y16157000D02*
X5050000Y16207000D01*
X5000000Y16257000D01*
X4950000Y16207000D01*
X5000000Y16157000D01*
X5041500Y6103000D02*
X5091500Y6153000D01*
X5041500Y6203000D01*
X4991500Y6153000D01*
X5041500Y6103000D01*
X5400000Y8400000D02*
X5450000Y8450000D01*
X5400000Y8500000D01*
X5350000Y8450000D01*
X5400000Y8400000D01*
X5400000Y7900000D02*
X5450000Y7950000D01*
X5400000Y8000000D01*
X5350000Y7950000D01*
X5400000Y7900000D01*
X5650000Y17050000D02*
X5700000Y17100000D01*
X5650000Y17150000D01*
X5600000Y17100000D01*
X5650000Y17050000D01*
X5650000Y16796000D02*
X5700000Y16846000D01*
X5650000Y16896000D01*
X5600000Y16846000D01*
X5650000Y16796000D01*
X5952500Y3919000D02*
X6002500Y3969000D01*
X5952500Y4019000D01*
X5902500Y3969000D01*
X5952500Y3919000D01*
X5952500Y3419000D02*
X6002500Y3469000D01*
X5952500Y3519000D01*
X5902500Y3469000D01*
X5952500Y3419000D01*
X6343500Y5946000D02*
X6393500Y5996000D01*
X6343500Y6046000D01*
X6293500Y5996000D01*
X6343500Y5946000D01*
X6343500Y5446000D02*
X6393500Y5496000D01*
X6343500Y5546000D01*
X6293500Y5496000D01*
X6343500Y5446000D01*
X6650000Y16550000D02*
X6700000Y16600000D01*
X6650000Y16650000D01*
X6600000Y16600000D01*
X6650000Y16550000D01*
X6650000Y16050000D02*
X6700000Y16100000D01*
X6650000Y16150000D01*
X6600000Y16100000D01*
X6650000Y16050000D01*
X6883000Y8355000D02*
X6933000Y8405000D01*
X6883000Y8455000D01*
X6833000Y8405000D01*
X6883000Y8355000D01*
X7096000Y1750000D02*
X7146000Y1800000D01*
X7096000Y1850000D01*
X7046000Y1800000D01*
X7096000Y1750000D01*
X7100000Y16250000D02*
X7150000Y16300000D01*
X7100000Y16350000D01*
X7050000Y16300000D01*
X7100000Y16250000D01*
X7250000Y17800000D02*
X7300000Y17850000D01*
X7250000Y17900000D01*
X7200000Y17850000D01*
X7250000Y17800000D01*
X7250000Y17546000D02*
X7300000Y17596000D01*
X7250000Y17646000D01*
X7200000Y17596000D01*
X7250000Y17546000D01*
X7250000Y17292000D02*
X7300000Y17342000D01*
X7250000Y17392000D01*
X7200000Y17342000D01*
X7250000Y17292000D01*
X7350000Y1750000D02*
X7400000Y1800000D01*
X7350000Y1850000D01*
X7300000Y1800000D01*
X7350000Y1750000D01*
X7383000Y8355000D02*
X7433000Y8405000D01*
X7383000Y8455000D01*
X7333000Y8405000D01*
X7383000Y8355000D01*
X7600000Y16250000D02*
X7650000Y16300000D01*
X7600000Y16350000D01*
X7550000Y16300000D01*
X7600000Y16250000D01*
X7662000Y15593000D02*
X7712000Y15643000D01*
X7662000Y15693000D01*
X7612000Y15643000D01*
X7662000Y15593000D01*
X7662000Y15093000D02*
X7712000Y15143000D01*
X7662000Y15193000D01*
X7612000Y15143000D01*
X7662000Y15093000D01*
X8112000Y17509000D02*
X8162000Y17559000D01*
X8112000Y17609000D01*
X8062000Y17559000D01*
X8112000Y17509000D01*
X8112000Y17255000D02*
X8162000Y17305000D01*
X8112000Y17355000D01*
X8062000Y17305000D01*
X8112000Y17255000D01*
X8112000Y17001000D02*
X8162000Y17051000D01*
X8112000Y17101000D01*
X8062000Y17051000D01*
X8112000Y17001000D01*
X8112000Y16747000D02*
X8162000Y16797000D01*
X8112000Y16847000D01*
X8062000Y16797000D01*
X8112000Y16747000D01*
X8112000Y16493000D02*
X8162000Y16543000D01*
X8112000Y16593000D01*
X8062000Y16543000D01*
X8112000Y16493000D01*
X8112000Y16239000D02*
X8162000Y16289000D01*
X8112000Y16339000D01*
X8062000Y16289000D01*
X8112000Y16239000D01*
X8112000Y14974000D02*
X8162000Y15024000D01*
X8112000Y15074000D01*
X8062000Y15024000D01*
X8112000Y14974000D01*
X8112000Y14720000D02*
X8162000Y14770000D01*
X8112000Y14820000D01*
X8062000Y14770000D01*
X8112000Y14720000D01*
X8112000Y14466000D02*
X8162000Y14516000D01*
X8112000Y14566000D01*
X8062000Y14516000D01*
X8112000Y14466000D01*
X8112000Y14212000D02*
X8162000Y14262000D01*
X8112000Y14312000D01*
X8062000Y14262000D01*
X8112000Y14212000D01*
X8446000Y1750000D02*
X8496000Y1800000D01*
X8446000Y1850000D01*
X8396000Y1800000D01*
X8446000Y1750000D01*
X8700000Y1750000D02*
X8750000Y1800000D01*
X8700000Y1850000D01*
X8650000Y1800000D01*
X8700000Y1750000D01*
X9250000Y10850000D02*
X9300000Y10900000D01*
X9250000Y10950000D01*
X9200000Y10900000D01*
X9250000Y10850000D01*
X9250000Y10350000D02*
X9300000Y10400000D01*
X9250000Y10450000D01*
X9200000Y10400000D01*
X9250000Y10350000D01*
X9572500Y1750000D02*
X9622500Y1800000D01*
X9572500Y1850000D01*
X9522500Y1800000D01*
X9572500Y1750000D01*
X9826500Y1750000D02*
X9876500Y1800000D01*
X9826500Y1850000D01*
X9776500Y1800000D01*
X9826500Y1750000D01*
X9950000Y10860500D02*
X10000000Y10910500D01*
X9950000Y10960500D01*
X9900000Y10910500D01*
X9950000Y10860500D01*
X9950000Y10360500D02*
X10000000Y10410500D01*
X9950000Y10460500D01*
X9900000Y10410500D01*
X9950000Y10360500D01*
X10112000Y17513000D02*
X10162000Y17563000D01*
X10112000Y17613000D01*
X10062000Y17563000D01*
X10112000Y17513000D01*
X10112000Y17259000D02*
X10162000Y17309000D01*
X10112000Y17359000D01*
X10062000Y17309000D01*
X10112000Y17259000D01*
X10112000Y17005000D02*
X10162000Y17055000D01*
X10112000Y17105000D01*
X10062000Y17055000D01*
X10112000Y17005000D01*
X10112000Y16751000D02*
X10162000Y16801000D01*
X10112000Y16851000D01*
X10062000Y16801000D01*
X10112000Y16751000D01*
X10112000Y16497000D02*
X10162000Y16547000D01*
X10112000Y16597000D01*
X10062000Y16547000D01*
X10112000Y16497000D01*
X10112000Y16243000D02*
X10162000Y16293000D01*
X10112000Y16343000D01*
X10062000Y16293000D01*
X10112000Y16243000D01*
X10112000Y15201000D02*
X10162000Y15251000D01*
X10112000Y15301000D01*
X10062000Y15251000D01*
X10112000Y15201000D01*
X10112000Y14947000D02*
X10162000Y14997000D01*
X10112000Y15047000D01*
X10062000Y14997000D01*
X10112000Y14947000D01*
X10112000Y14693000D02*
X10162000Y14743000D01*
X10112000Y14793000D01*
X10062000Y14743000D01*
X10112000Y14693000D01*
X10112000Y14439000D02*
X10162000Y14489000D01*
X10112000Y14539000D01*
X10062000Y14489000D01*
X10112000Y14439000D01*
X10112000Y14185000D02*
X10162000Y14235000D01*
X10112000Y14285000D01*
X10062000Y14235000D01*
X10112000Y14185000D01*
X10500000Y16000000D02*
X10550000Y16050000D01*
X10500000Y16100000D01*
X10450000Y16050000D01*
X10500000Y16000000D01*
X10500000Y15450000D02*
X10550000Y15500000D01*
X10500000Y15550000D01*
X10450000Y15500000D01*
X10500000Y15450000D01*
X10718000Y1747500D02*
X10768000Y1797500D01*
X10718000Y1847500D01*
X10668000Y1797500D01*
X10718000Y1747500D01*
X10972000Y1747500D02*
X11022000Y1797500D01*
X10972000Y1847500D01*
X10922000Y1797500D01*
X10972000Y1747500D01*
X11000000Y16000000D02*
X11050000Y16050000D01*
X11000000Y16100000D01*
X10950000Y16050000D01*
X11000000Y16000000D01*
X11000000Y15450000D02*
X11050000Y15500000D01*
X11000000Y15550000D01*
X10950000Y15500000D01*
X11000000Y15450000D01*
X11200000Y4100000D02*
X11250000Y4150000D01*
X11200000Y4200000D01*
X11150000Y4150000D01*
X11200000Y4100000D01*
X11200000Y3846000D02*
X11250000Y3896000D01*
X11200000Y3946000D01*
X11150000Y3896000D01*
X11200000Y3846000D01*
X11226000Y1747500D02*
X11276000Y1797500D01*
X11226000Y1847500D01*
X11176000Y1797500D01*
X11226000Y1747500D01*
X11480000Y1747500D02*
X11530000Y1797500D01*
X11480000Y1847500D01*
X11430000Y1797500D01*
X11480000Y1747500D01*
X11600000Y6250000D02*
X11650000Y6300000D01*
X11600000Y6350000D01*
X11550000Y6300000D01*
X11600000Y6250000D01*
X11600000Y5700000D02*
X11650000Y5750000D01*
X11600000Y5800000D01*
X11550000Y5750000D01*
X11600000Y5700000D01*
X12100000Y6250000D02*
X12150000Y6300000D01*
X12100000Y6350000D01*
X12050000Y6300000D01*
X12100000Y6250000D01*
X12100000Y5700000D02*
X12150000Y5750000D01*
X12100000Y5800000D01*
X12050000Y5750000D01*
X12100000Y5700000D01*
X12150000Y18800000D02*
X12200000Y18850000D01*
X12150000Y18900000D01*
X12100000Y18850000D01*
X12150000Y18800000D01*
X12150000Y18300000D02*
X12200000Y18350000D01*
X12150000Y18400000D01*
X12100000Y18350000D01*
X12150000Y18300000D01*
X12242000Y1758000D02*
X12292000Y1808000D01*
X12242000Y1858000D01*
X12192000Y1808000D01*
X12242000Y1758000D01*
X12438000Y7520000D02*
X12488000Y7570000D01*
X12438000Y7620000D01*
X12388000Y7570000D01*
X12438000Y7520000D01*
X12438000Y7266000D02*
X12488000Y7316000D01*
X12438000Y7366000D01*
X12388000Y7316000D01*
X12438000Y7266000D01*
X12438000Y7012000D02*
X12488000Y7062000D01*
X12438000Y7112000D01*
X12388000Y7062000D01*
X12438000Y7012000D01*
X12438000Y6758000D02*
X12488000Y6808000D01*
X12438000Y6858000D01*
X12388000Y6808000D01*
X12438000Y6758000D01*
X12438000Y6504000D02*
X12488000Y6554000D01*
X12438000Y6604000D01*
X12388000Y6554000D01*
X12438000Y6504000D01*
X12438000Y5466000D02*
X12488000Y5516000D01*
X12438000Y5566000D01*
X12388000Y5516000D01*
X12438000Y5466000D01*
X12438000Y5212000D02*
X12488000Y5262000D01*
X12438000Y5312000D01*
X12388000Y5262000D01*
X12438000Y5212000D01*
X12438000Y4958000D02*
X12488000Y5008000D01*
X12438000Y5058000D01*
X12388000Y5008000D01*
X12438000Y4958000D01*
X12438000Y4704000D02*
X12488000Y4754000D01*
X12438000Y4804000D01*
X12388000Y4754000D01*
X12438000Y4704000D01*
X12438000Y4450000D02*
X12488000Y4500000D01*
X12438000Y4550000D01*
X12388000Y4500000D01*
X12438000Y4450000D01*
X12438000Y4196000D02*
X12488000Y4246000D01*
X12438000Y4296000D01*
X12388000Y4246000D01*
X12438000Y4196000D01*
X12450000Y10950000D02*
X12500000Y11000000D01*
X12450000Y11050000D01*
X12400000Y11000000D01*
X12450000Y10950000D01*
X12450000Y10450000D02*
X12500000Y10500000D01*
X12450000Y10550000D01*
X12400000Y10500000D01*
X12450000Y10450000D01*
X12496000Y1758000D02*
X12546000Y1808000D01*
X12496000Y1858000D01*
X12446000Y1808000D01*
X12496000Y1758000D01*
X12750000Y18800000D02*
X12800000Y18850000D01*
X12750000Y18900000D01*
X12700000Y18850000D01*
X12750000Y18800000D01*
X12750000Y18300000D02*
X12800000Y18350000D01*
X12750000Y18400000D01*
X12700000Y18350000D01*
X12750000Y18300000D01*
X12750000Y1758000D02*
X12800000Y1808000D01*
X12750000Y1858000D01*
X12700000Y1808000D01*
X12750000Y1758000D01*
X13004000Y1758000D02*
X13054000Y1808000D01*
X13004000Y1858000D01*
X12954000Y1808000D01*
X13004000Y1758000D01*
X13025000Y10927000D02*
X13075000Y10977000D01*
X13025000Y11027000D01*
X12975000Y10977000D01*
X13025000Y10927000D01*
X13025000Y10427000D02*
X13075000Y10477000D01*
X13025000Y10527000D01*
X12975000Y10477000D01*
X13025000Y10427000D01*
X13258000Y1758000D02*
X13308000Y1808000D01*
X13258000Y1858000D01*
X13208000Y1808000D01*
X13258000Y1758000D01*
X13458000Y13188000D02*
X13508000Y13238000D01*
X13458000Y13288000D01*
X13408000Y13238000D01*
X13458000Y13188000D01*
X13504000Y14988000D02*
X13554000Y15038000D01*
X13504000Y15088000D01*
X13454000Y15038000D01*
X13504000Y14988000D01*
X13712000Y13188000D02*
X13762000Y13238000D01*
X13712000Y13288000D01*
X13662000Y13238000D01*
X13712000Y13188000D01*
X13758000Y14988000D02*
X13808000Y15038000D01*
X13758000Y15088000D01*
X13708000Y15038000D01*
X13758000Y14988000D01*
X13966000Y13188000D02*
X14016000Y13238000D01*
X13966000Y13288000D01*
X13916000Y13238000D01*
X13966000Y13188000D01*
X14012000Y14988000D02*
X14062000Y15038000D01*
X14012000Y15088000D01*
X13962000Y15038000D01*
X14012000Y14988000D01*
X14100000Y17050000D02*
X14150000Y17100000D01*
X14100000Y17150000D01*
X14050000Y17100000D01*
X14100000Y17050000D01*
X14220000Y13188000D02*
X14270000Y13238000D01*
X14220000Y13288000D01*
X14170000Y13238000D01*
X14220000Y13188000D01*
X14266000Y14988000D02*
X14316000Y15038000D01*
X14266000Y15088000D01*
X14216000Y15038000D01*
X14266000Y14988000D01*
X14388000Y7562000D02*
X14438000Y7612000D01*
X14388000Y7662000D01*
X14338000Y7612000D01*
X14388000Y7562000D01*
X14388000Y7308000D02*
X14438000Y7358000D01*
X14388000Y7408000D01*
X14338000Y7358000D01*
X14388000Y7308000D01*
X14388000Y7054000D02*
X14438000Y7104000D01*
X14388000Y7154000D01*
X14338000Y7104000D01*
X14388000Y7054000D01*
X14388000Y6800000D02*
X14438000Y6850000D01*
X14388000Y6900000D01*
X14338000Y6850000D01*
X14388000Y6800000D01*
X14388000Y5466000D02*
X14438000Y5516000D01*
X14388000Y5566000D01*
X14338000Y5516000D01*
X14388000Y5466000D01*
X14388000Y5212000D02*
X14438000Y5262000D01*
X14388000Y5312000D01*
X14338000Y5262000D01*
X14388000Y5212000D01*
X14388000Y4958000D02*
X14438000Y5008000D01*
X14388000Y5058000D01*
X14338000Y5008000D01*
X14388000Y4958000D01*
X14388000Y4704000D02*
X14438000Y4754000D01*
X14388000Y4804000D01*
X14338000Y4754000D01*
X14388000Y4704000D01*
X14388000Y4450000D02*
X14438000Y4500000D01*
X14388000Y4550000D01*
X14338000Y4500000D01*
X14388000Y4450000D01*
X14388000Y4196000D02*
X14438000Y4246000D01*
X14388000Y4296000D01*
X14338000Y4246000D01*
X14388000Y4196000D01*
X14405000Y15500000D02*
X14455000Y15550000D01*
X14405000Y15600000D01*
X14355000Y15550000D01*
X14405000Y15500000D01*
X14474000Y13188000D02*
X14524000Y13238000D01*
X14474000Y13288000D01*
X14424000Y13238000D01*
X14474000Y13188000D01*
X14588000Y6404000D02*
X14638000Y6454000D01*
X14588000Y6504000D01*
X14538000Y6454000D01*
X14588000Y6404000D01*
X14588000Y5904000D02*
X14638000Y5954000D01*
X14588000Y6004000D01*
X14538000Y5954000D01*
X14588000Y5904000D01*
X14596000Y2200000D02*
X14646000Y2250000D01*
X14596000Y2300000D01*
X14546000Y2250000D01*
X14596000Y2200000D01*
X14600000Y17050000D02*
X14650000Y17100000D01*
X14600000Y17150000D01*
X14550000Y17100000D01*
X14600000Y17050000D01*
X14800000Y12750000D02*
X14850000Y12800000D01*
X14800000Y12850000D01*
X14750000Y12800000D01*
X14800000Y12750000D01*
X14800000Y12250000D02*
X14850000Y12300000D01*
X14800000Y12350000D01*
X14750000Y12300000D01*
X14800000Y12250000D01*
X14850000Y2200000D02*
X14900000Y2250000D01*
X14850000Y2300000D01*
X14800000Y2250000D01*
X14850000Y2200000D01*
X14905000Y15500000D02*
X14955000Y15550000D01*
X14905000Y15600000D01*
X14855000Y15550000D01*
X14905000Y15500000D01*
X15104000Y2200000D02*
X15154000Y2250000D01*
X15104000Y2300000D01*
X15054000Y2250000D01*
X15104000Y2200000D01*
X15200000Y15500000D02*
X15250000Y15550000D01*
X15200000Y15600000D01*
X15150000Y15550000D01*
X15200000Y15500000D01*
X15350000Y12750000D02*
X15400000Y12800000D01*
X15350000Y12850000D01*
X15300000Y12800000D01*
X15350000Y12750000D01*
X15350000Y12250000D02*
X15400000Y12300000D01*
X15350000Y12350000D01*
X15300000Y12300000D01*
X15350000Y12250000D01*
X15477000Y13188000D02*
X15527000Y13238000D01*
X15477000Y13288000D01*
X15427000Y13238000D01*
X15477000Y13188000D01*
X15500000Y14988000D02*
X15550000Y15038000D01*
X15500000Y15088000D01*
X15450000Y15038000D01*
X15500000Y14988000D01*
X15650000Y5700000D02*
X15700000Y5750000D01*
X15650000Y5800000D01*
X15600000Y5750000D01*
X15650000Y5700000D01*
X15650000Y5150000D02*
X15700000Y5200000D01*
X15650000Y5250000D01*
X15600000Y5200000D01*
X15650000Y5150000D01*
X15700000Y15500000D02*
X15750000Y15550000D01*
X15700000Y15600000D01*
X15650000Y15550000D01*
X15700000Y15500000D01*
X15731000Y13188000D02*
X15781000Y13238000D01*
X15731000Y13288000D01*
X15681000Y13238000D01*
X15731000Y13188000D01*
X15754000Y14988000D02*
X15804000Y15038000D01*
X15754000Y15088000D01*
X15704000Y15038000D01*
X15754000Y14988000D01*
X15850000Y10900000D02*
X15900000Y10950000D01*
X15850000Y11000000D01*
X15800000Y10950000D01*
X15850000Y10900000D01*
X15850000Y10400000D02*
X15900000Y10450000D01*
X15850000Y10500000D01*
X15800000Y10450000D01*
X15850000Y10400000D01*
X15985000Y13188000D02*
X16035000Y13238000D01*
X15985000Y13288000D01*
X15935000Y13238000D01*
X15985000Y13188000D01*
X16008000Y14988000D02*
X16058000Y15038000D01*
X16008000Y15088000D01*
X15958000Y15038000D01*
X16008000Y14988000D01*
X16150000Y5700000D02*
X16200000Y5750000D01*
X16150000Y5800000D01*
X16100000Y5750000D01*
X16150000Y5700000D01*
X16150000Y5150000D02*
X16200000Y5200000D01*
X16150000Y5250000D01*
X16100000Y5200000D01*
X16150000Y5150000D01*
X16239000Y13188000D02*
X16289000Y13238000D01*
X16239000Y13288000D01*
X16189000Y13238000D01*
X16239000Y13188000D01*
X16262000Y14988000D02*
X16312000Y15038000D01*
X16262000Y15088000D01*
X16212000Y15038000D01*
X16262000Y14988000D01*
X16370000Y2100000D02*
X16420000Y2150000D01*
X16370000Y2200000D01*
X16320000Y2150000D01*
X16370000Y2100000D01*
X16450000Y10900000D02*
X16500000Y10950000D01*
X16450000Y11000000D01*
X16400000Y10950000D01*
X16450000Y10900000D01*
X16450000Y10400000D02*
X16500000Y10450000D01*
X16450000Y10500000D01*
X16400000Y10450000D01*
X16450000Y10400000D01*
X16493000Y13188000D02*
X16543000Y13238000D01*
X16493000Y13288000D01*
X16443000Y13238000D01*
X16493000Y13188000D01*
X16516000Y14988000D02*
X16566000Y15038000D01*
X16516000Y15088000D01*
X16466000Y15038000D01*
X16516000Y14988000D01*
X16747000Y13188000D02*
X16797000Y13238000D01*
X16747000Y13288000D01*
X16697000Y13238000D01*
X16747000Y13188000D01*
X16770000Y14988000D02*
X16820000Y15038000D01*
X16770000Y15088000D01*
X16720000Y15038000D01*
X16770000Y14988000D01*
X16900000Y7258000D02*
X16950000Y7308000D01*
X16900000Y7358000D01*
X16850000Y7308000D01*
X16900000Y7258000D01*
X16900000Y7004000D02*
X16950000Y7054000D01*
X16900000Y7104000D01*
X16850000Y7054000D01*
X16900000Y7004000D01*
X16900000Y6750000D02*
X16950000Y6800000D01*
X16900000Y6850000D01*
X16850000Y6800000D01*
X16900000Y6750000D01*
X17130000Y2100000D02*
X17180000Y2150000D01*
X17130000Y2200000D01*
X17080000Y2150000D01*
X17130000Y2100000D01*
X17296000Y5900000D02*
X17346000Y5950000D01*
X17296000Y6000000D01*
X17246000Y5950000D01*
X17296000Y5900000D01*
X17550000Y6950000D02*
X17600000Y7000000D01*
X17550000Y7050000D01*
X17500000Y7000000D01*
X17550000Y6950000D01*
X17550000Y6400000D02*
X17600000Y6450000D01*
X17550000Y6500000D01*
X17500000Y6450000D01*
X17550000Y6400000D01*
X17550000Y5900000D02*
X17600000Y5950000D01*
X17550000Y6000000D01*
X17500000Y5950000D01*
X17550000Y5900000D01*
X17675000Y7452500D02*
X17725000Y7502500D01*
X17675000Y7552500D01*
X17625000Y7502500D01*
X17675000Y7452500D01*
X17929000Y7452500D02*
X17979000Y7502500D01*
X17929000Y7552500D01*
X17879000Y7502500D01*
X17929000Y7452500D01*
X18050000Y6950000D02*
X18100000Y7000000D01*
X18050000Y7050000D01*
X18000000Y7000000D01*
X18050000Y6950000D01*
X18050000Y6400000D02*
X18100000Y6450000D01*
X18050000Y6500000D01*
X18000000Y6450000D01*
X18050000Y6400000D01*
X19600000Y13658000D02*
X19650000Y13708000D01*
X19600000Y13758000D01*
X19550000Y13708000D01*
X19600000Y13658000D01*
X19600000Y13404000D02*
X19650000Y13454000D01*
X19600000Y13504000D01*
X19550000Y13454000D01*
X19600000Y13404000D01*
X19600000Y13150000D02*
X19650000Y13200000D01*
X19600000Y13250000D01*
X19550000Y13200000D01*
X19600000Y13150000D01*
X19600000Y12896000D02*
X19650000Y12946000D01*
X19600000Y12996000D01*
X19550000Y12946000D01*
X19600000Y12896000D01*
X19600000Y12642000D02*
X19650000Y12692000D01*
X19600000Y12742000D01*
X19550000Y12692000D01*
X19600000Y12642000D01*
X19854000Y13658000D02*
X19904000Y13708000D01*
X19854000Y13758000D01*
X19804000Y13708000D01*
X19854000Y13658000D01*
X19854000Y13404000D02*
X19904000Y13454000D01*
X19854000Y13504000D01*
X19804000Y13454000D01*
X19854000Y13404000D01*
X19854000Y13150000D02*
X19904000Y13200000D01*
X19854000Y13250000D01*
X19804000Y13200000D01*
X19854000Y13150000D01*
X19854000Y12896000D02*
X19904000Y12946000D01*
X19854000Y12996000D01*
X19804000Y12946000D01*
X19854000Y12896000D01*
X19854000Y12642000D02*
X19904000Y12692000D01*
X19854000Y12742000D01*
X19804000Y12692000D01*
X19854000Y12642000D01*
X20468934Y1871250D02*
X20518934Y1921250D01*
X20468934Y1971250D01*
X20418934Y1921250D01*
X20468934Y1871250D01*
X20728934Y4371250D02*
X20778934Y4421250D01*
X20728934Y4471250D01*
X20678934Y4421250D01*
X20728934Y4371250D01*
X20738934Y4981250D02*
X20788934Y5031250D01*
X20738934Y5081250D01*
X20688934Y5031250D01*
X20738934Y4981250D01*
X20968934Y1871250D02*
X21018934Y1921250D01*
X20968934Y1971250D01*
X20918934Y1921250D01*
X20968934Y1871250D01*
X21228934Y4371250D02*
X21278934Y4421250D01*
X21228934Y4471250D01*
X21178934Y4421250D01*
X21228934Y4371250D01*
X21238934Y4981250D02*
X21288934Y5031250D01*
X21238934Y5081250D01*
X21188934Y5031250D01*
X21238934Y4981250D01*
X21468934Y1871250D02*
X21518934Y1921250D01*
X21468934Y1971250D01*
X21418934Y1921250D01*
X21468934Y1871250D01*
X21968934Y1871250D02*
X22018934Y1921250D01*
X21968934Y1971250D01*
X21918934Y1921250D01*
X21968934Y1871250D01*
X22200000Y11200000D02*
X22250000Y11250000D01*
X22200000Y11300000D01*
X22150000Y11250000D01*
X22200000Y11200000D01*
X22250000Y11150000D02*
X22250000Y11350000D01*
X22150000Y11350000D02*
G75*
G02*
X22250000Y11350000I50000J0D01*
G01*
X22150000Y11350000D02*
X22150000Y11150000D01*
X22150000Y11150000D02*
G75*
G03*
X22250000Y11150000I50000J0D01*
G01*
X22250000Y12245750D02*
X22300000Y12295750D01*
X22250000Y12345750D01*
X22200000Y12295750D01*
X22250000Y12245750D01*
X22500000Y11670000D02*
X22550000Y11720000D01*
X22500000Y11770000D01*
X22450000Y11720000D01*
X22500000Y11670000D01*
X22600000Y11770000D02*
X22400000Y11770000D01*
X22400000Y11670000D02*
G75*
G02*
X22400000Y11770000I0J50000D01*
G01*
X22400000Y11670000D02*
X22600000Y11670000D01*
X22600000Y11670000D02*
G75*
G03*
X22600000Y11770000I0J50000D01*
G01*
X22750000Y12245750D02*
X22800000Y12295750D01*
X22750000Y12345750D01*
X22700000Y12295750D01*
X22750000Y12245750D01*
X22800000Y11200000D02*
X22850000Y11250000D01*
X22800000Y11300000D01*
X22750000Y11250000D01*
X22800000Y11200000D01*
X22850000Y11150000D02*
X22850000Y11350000D01*
X22750000Y11350000D02*
G75*
G02*
X22850000Y11350000I50000J0D01*
G01*
X22750000Y11350000D02*
X22750000Y11150000D01*
X22750000Y11150000D02*
G75*
G03*
X22850000Y11150000I50000J0D01*
G01*
D13*
X2895000Y13245000D02*
X3005000Y13135000D01*
X3005000Y13245000D02*
X2895000Y13135000D01*
X3005000Y13190000D02*
G75*
G02*
X2895000Y13190000I-55000J0D01*
G01*
X2895000Y13190000D02*
G75*
G02*
X3005000Y13190000I55000J0D01*
G01*
X2895000Y13075000D02*
X3005000Y12965000D01*
X3005000Y13075000D02*
X2895000Y12965000D01*
X3005000Y13020000D02*
G75*
G02*
X2895000Y13020000I-55000J0D01*
G01*
X2895000Y13020000D02*
G75*
G02*
X3005000Y13020000I55000J0D01*
G01*
X2895000Y12905000D02*
X3005000Y12795000D01*
X3005000Y12905000D02*
X2895000Y12795000D01*
X3005000Y12850000D02*
G75*
G02*
X2895000Y12850000I-55000J0D01*
G01*
X2895000Y12850000D02*
G75*
G02*
X3005000Y12850000I55000J0D01*
G01*
X2895000Y12735000D02*
X3005000Y12625000D01*
X3005000Y12735000D02*
X2895000Y12625000D01*
X3005000Y12680000D02*
G75*
G02*
X2895000Y12680000I-55000J0D01*
G01*
X2895000Y12680000D02*
G75*
G02*
X3005000Y12680000I55000J0D01*
G01*
X2895000Y12565000D02*
X3005000Y12455000D01*
X3005000Y12565000D02*
X2895000Y12455000D01*
X3005000Y12510000D02*
G75*
G02*
X2895000Y12510000I-55000J0D01*
G01*
X2895000Y12510000D02*
G75*
G02*
X3005000Y12510000I55000J0D01*
G01*
X2945000Y18785000D02*
X3055000Y18675000D01*
X3055000Y18785000D02*
X2945000Y18675000D01*
X3055000Y18730000D02*
G75*
G02*
X2945000Y18730000I-55000J0D01*
G01*
X2945000Y18730000D02*
G75*
G02*
X3055000Y18730000I55000J0D01*
G01*
X2945000Y18615000D02*
X3055000Y18505000D01*
X3055000Y18615000D02*
X2945000Y18505000D01*
X3055000Y18560000D02*
G75*
G02*
X2945000Y18560000I-55000J0D01*
G01*
X2945000Y18560000D02*
G75*
G02*
X3055000Y18560000I55000J0D01*
G01*
X2945000Y18445000D02*
X3055000Y18335000D01*
X3055000Y18445000D02*
X2945000Y18335000D01*
X3055000Y18390000D02*
G75*
G02*
X2945000Y18390000I-55000J0D01*
G01*
X2945000Y18390000D02*
G75*
G02*
X3055000Y18390000I55000J0D01*
G01*
X2945000Y18275000D02*
X3055000Y18165000D01*
X3055000Y18275000D02*
X2945000Y18165000D01*
X3055000Y18220000D02*
G75*
G02*
X2945000Y18220000I-55000J0D01*
G01*
X2945000Y18220000D02*
G75*
G02*
X3055000Y18220000I55000J0D01*
G01*
X2945000Y18105000D02*
X3055000Y17995000D01*
X3055000Y18105000D02*
X2945000Y17995000D01*
X3055000Y18050000D02*
G75*
G02*
X2945000Y18050000I-55000J0D01*
G01*
X2945000Y18050000D02*
G75*
G02*
X3055000Y18050000I55000J0D01*
G01*
X2995000Y15995000D02*
X3105000Y15885000D01*
X3105000Y15995000D02*
X2995000Y15885000D01*
X3105000Y15940000D02*
G75*
G02*
X2995000Y15940000I-55000J0D01*
G01*
X2995000Y15940000D02*
G75*
G02*
X3105000Y15940000I55000J0D01*
G01*
X2995000Y15825000D02*
X3105000Y15715000D01*
X3105000Y15825000D02*
X2995000Y15715000D01*
X3105000Y15770000D02*
G75*
G02*
X2995000Y15770000I-55000J0D01*
G01*
X2995000Y15770000D02*
G75*
G02*
X3105000Y15770000I55000J0D01*
G01*
X2995000Y15655000D02*
X3105000Y15545000D01*
X3105000Y15655000D02*
X2995000Y15545000D01*
X3105000Y15600000D02*
G75*
G02*
X2995000Y15600000I-55000J0D01*
G01*
X2995000Y15600000D02*
G75*
G02*
X3105000Y15600000I55000J0D01*
G01*
X2995000Y15485000D02*
X3105000Y15375000D01*
X3105000Y15485000D02*
X2995000Y15375000D01*
X3105000Y15430000D02*
G75*
G02*
X2995000Y15430000I-55000J0D01*
G01*
X2995000Y15430000D02*
G75*
G02*
X3105000Y15430000I55000J0D01*
G01*
X2995000Y15315000D02*
X3105000Y15205000D01*
X3105000Y15315000D02*
X2995000Y15205000D01*
X3105000Y15260000D02*
G75*
G02*
X2995000Y15260000I-55000J0D01*
G01*
X2995000Y15260000D02*
G75*
G02*
X3105000Y15260000I55000J0D01*
G01*
D14*
X7760000Y19015000D02*
X7890000Y18885000D01*
X7890000Y19015000D02*
X7760000Y18885000D01*
X7825000Y19015000D02*
X7825000Y18885000D01*
X7760000Y18950000D02*
X7890000Y18950000D01*
X8410000Y19015000D02*
X8540000Y18885000D01*
X8540000Y19015000D02*
X8410000Y18885000D01*
X8475000Y19015000D02*
X8475000Y18885000D01*
X8410000Y18950000D02*
X8540000Y18950000D01*
X15102000Y4160000D02*
X15232000Y4030000D01*
X15232000Y4160000D02*
X15102000Y4030000D01*
X15167000Y4160000D02*
X15167000Y4030000D01*
X15102000Y4095000D02*
X15232000Y4095000D01*
X15752000Y4160000D02*
X15882000Y4030000D01*
X15882000Y4160000D02*
X15752000Y4030000D01*
X15817000Y4160000D02*
X15817000Y4030000D01*
X15752000Y4095000D02*
X15882000Y4095000D01*
X18185000Y14490000D02*
X18315000Y14360000D01*
X18315000Y14490000D02*
X18185000Y14360000D01*
X18250000Y14490000D02*
X18250000Y14360000D01*
X18185000Y14425000D02*
X18315000Y14425000D01*
X18185000Y13840000D02*
X18315000Y13710000D01*
X18315000Y13840000D02*
X18185000Y13710000D01*
X18250000Y13840000D02*
X18250000Y13710000D01*
X18185000Y13775000D02*
X18315000Y13775000D01*
X21935000Y4790000D02*
X22065000Y4660000D01*
X22065000Y4790000D02*
X21935000Y4660000D01*
X22000000Y4790000D02*
X22000000Y4660000D01*
X21935000Y4725000D02*
X22065000Y4725000D01*
X21935000Y4140000D02*
X22065000Y4010000D01*
X22065000Y4140000D02*
X21935000Y4010000D01*
X22000000Y4140000D02*
X22000000Y4010000D01*
X21935000Y4075000D02*
X22065000Y4075000D01*
D15*
X18775000Y9835000D02*
X18925000Y9685000D01*
X18925000Y9835000D02*
X18775000Y9685000D01*
X18903034Y9706967D02*
X18903034Y9813034D01*
X18796967Y9813034D01*
X18796967Y9706967D01*
X18903034Y9706967D01*
X18775000Y9015000D02*
X18925000Y8865000D01*
X18925000Y9015000D02*
X18775000Y8865000D01*
X18903034Y8886967D02*
X18903034Y8993034D01*
X18796967Y8993034D01*
X18796967Y8886967D01*
X18903034Y8886967D01*
D16*
X21203934Y1029000D02*
X21433934Y799000D01*
X21433934Y1029000D02*
X21203934Y799000D01*
X21318934Y799000D02*
X21433934Y914000D01*
X21318934Y1029000D01*
X21203934Y914000D01*
X21318934Y799000D01*
X22403934Y1029000D02*
X22633934Y799000D01*
X22633934Y1029000D02*
X22403934Y799000D01*
X22518934Y799000D02*
X22633934Y914000D01*
X22518934Y1029000D01*
X22403934Y914000D01*
X22518934Y799000D01*
D11*
X608277Y186016D02*
X608277Y386016D01*
X608277Y386016D02*
X655896Y386016D01*
X655896Y386016D02*
X684467Y376492D01*
X684467Y376492D02*
X703515Y357445D01*
X703515Y357445D02*
X713039Y338397D01*
X713039Y338397D02*
X722562Y300302D01*
X722562Y300302D02*
X722562Y271730D01*
X722562Y271730D02*
X713039Y233635D01*
X713039Y233635D02*
X703515Y214588D01*
X703515Y214588D02*
X684467Y195540D01*
X684467Y195540D02*
X655896Y186016D01*
X655896Y186016D02*
X608277Y186016D01*
X808277Y186016D02*
X808277Y319350D01*
X808277Y281254D02*
X817801Y300302D01*
X817801Y300302D02*
X827324Y309826D01*
X827324Y309826D02*
X846372Y319350D01*
X846372Y319350D02*
X865420Y319350D01*
X932086Y186016D02*
X932086Y319350D01*
X932086Y386016D02*
X922562Y376492D01*
X922562Y376492D02*
X932086Y366968D01*
X932086Y366968D02*
X941610Y376492D01*
X941610Y376492D02*
X932086Y386016D01*
X932086Y386016D02*
X932086Y366968D01*
X1055896Y186016D02*
X1036848Y195540D01*
X1036848Y195540D02*
X1027324Y214588D01*
X1027324Y214588D02*
X1027324Y386016D01*
X1160658Y186016D02*
X1141610Y195540D01*
X1141610Y195540D02*
X1132086Y214588D01*
X1132086Y214588D02*
X1132086Y386016D01*
X1389229Y186016D02*
X1389229Y386016D01*
X1389229Y386016D02*
X1455896Y243159D01*
X1455896Y243159D02*
X1522562Y386016D01*
X1522562Y386016D02*
X1522562Y186016D01*
X1703515Y186016D02*
X1703515Y290778D01*
X1703515Y290778D02*
X1693991Y309826D01*
X1693991Y309826D02*
X1674943Y319350D01*
X1674943Y319350D02*
X1636848Y319350D01*
X1636848Y319350D02*
X1617801Y309826D01*
X1703515Y195540D02*
X1684467Y186016D01*
X1684467Y186016D02*
X1636848Y186016D01*
X1636848Y186016D02*
X1617801Y195540D01*
X1617801Y195540D02*
X1608277Y214588D01*
X1608277Y214588D02*
X1608277Y233635D01*
X1608277Y233635D02*
X1617801Y252683D01*
X1617801Y252683D02*
X1636848Y262207D01*
X1636848Y262207D02*
X1684467Y262207D01*
X1684467Y262207D02*
X1703515Y271730D01*
X1798753Y319350D02*
X1798753Y119349D01*
X1798753Y309826D02*
X1817801Y319350D01*
X1817801Y319350D02*
X1855896Y319350D01*
X1855896Y319350D02*
X1874943Y309826D01*
X1874943Y309826D02*
X1884467Y300302D01*
X1884467Y300302D02*
X1893991Y281254D01*
X1893991Y281254D02*
X1893991Y224111D01*
X1893991Y224111D02*
X1884467Y205064D01*
X1884467Y205064D02*
X1874943Y195540D01*
X1874943Y195540D02*
X1855896Y186016D01*
X1855896Y186016D02*
X1817801Y186016D01*
X1817801Y186016D02*
X1798753Y195540D01*
X1979705Y205064D02*
X1989229Y195540D01*
X1989229Y195540D02*
X1979705Y186016D01*
X1979705Y186016D02*
X1970182Y195540D01*
X1970182Y195540D02*
X1979705Y205064D01*
X1979705Y205064D02*
X1979705Y186016D01*
X1979705Y309826D02*
X1989229Y300302D01*
X1989229Y300302D02*
X1979705Y290778D01*
X1979705Y290778D02*
X1970182Y300302D01*
X1970182Y300302D02*
X1979705Y309826D01*
X1979705Y309826D02*
X1979705Y290778D01*
D12*
X267500Y-102500D02*
X347500Y-182500D01*
X347500Y-102500D02*
X267500Y-182500D01*
D11*
X646372Y-33984D02*
X665420Y-33984D01*
X665420Y-33984D02*
X684467Y-43508D01*
X684467Y-43508D02*
X693991Y-53031D01*
X693991Y-53031D02*
X703515Y-72079D01*
X703515Y-72079D02*
X713039Y-110174D01*
X713039Y-110174D02*
X713039Y-157793D01*
X713039Y-157793D02*
X703515Y-195888D01*
X703515Y-195888D02*
X693991Y-214936D01*
X693991Y-214936D02*
X684467Y-224460D01*
X684467Y-224460D02*
X665420Y-233984D01*
X665420Y-233984D02*
X646372Y-233984D01*
X646372Y-233984D02*
X627324Y-224460D01*
X627324Y-224460D02*
X617801Y-214936D01*
X617801Y-214936D02*
X608277Y-195888D01*
X608277Y-195888D02*
X598753Y-157793D01*
X598753Y-157793D02*
X598753Y-110174D01*
X598753Y-110174D02*
X608277Y-72079D01*
X608277Y-72079D02*
X617801Y-53031D01*
X617801Y-53031D02*
X627324Y-43508D01*
X627324Y-43508D02*
X646372Y-33984D01*
X798753Y-214936D02*
X808277Y-224460D01*
X808277Y-224460D02*
X798753Y-233984D01*
X798753Y-233984D02*
X789229Y-224460D01*
X789229Y-224460D02*
X798753Y-214936D01*
X798753Y-214936D02*
X798753Y-233984D01*
X922562Y-119698D02*
X903515Y-110174D01*
X903515Y-110174D02*
X893991Y-100650D01*
X893991Y-100650D02*
X884467Y-81603D01*
X884467Y-81603D02*
X884467Y-72079D01*
X884467Y-72079D02*
X893991Y-53031D01*
X893991Y-53031D02*
X903515Y-43508D01*
X903515Y-43508D02*
X922562Y-33984D01*
X922562Y-33984D02*
X960658Y-33984D01*
X960658Y-33984D02*
X979705Y-43508D01*
X979705Y-43508D02*
X989229Y-53031D01*
X989229Y-53031D02*
X998753Y-72079D01*
X998753Y-72079D02*
X998753Y-81603D01*
X998753Y-81603D02*
X989229Y-100650D01*
X989229Y-100650D02*
X979705Y-110174D01*
X979705Y-110174D02*
X960658Y-119698D01*
X960658Y-119698D02*
X922562Y-119698D01*
X922562Y-119698D02*
X903515Y-129222D01*
X903515Y-129222D02*
X893991Y-138746D01*
X893991Y-138746D02*
X884467Y-157793D01*
X884467Y-157793D02*
X884467Y-195888D01*
X884467Y-195888D02*
X893991Y-214936D01*
X893991Y-214936D02*
X903515Y-224460D01*
X903515Y-224460D02*
X922562Y-233984D01*
X922562Y-233984D02*
X960658Y-233984D01*
X960658Y-233984D02*
X979705Y-224460D01*
X979705Y-224460D02*
X989229Y-214936D01*
X989229Y-214936D02*
X998753Y-195888D01*
X998753Y-195888D02*
X998753Y-157793D01*
X998753Y-157793D02*
X989229Y-138746D01*
X989229Y-138746D02*
X979705Y-129222D01*
X979705Y-129222D02*
X960658Y-119698D01*
X1122563Y-33984D02*
X1141610Y-33984D01*
X1141610Y-33984D02*
X1160658Y-43508D01*
X1160658Y-43508D02*
X1170182Y-53031D01*
X1170182Y-53031D02*
X1179705Y-72079D01*
X1179705Y-72079D02*
X1189229Y-110174D01*
X1189229Y-110174D02*
X1189229Y-157793D01*
X1189229Y-157793D02*
X1179705Y-195888D01*
X1179705Y-195888D02*
X1170182Y-214936D01*
X1170182Y-214936D02*
X1160658Y-224460D01*
X1160658Y-224460D02*
X1141610Y-233984D01*
X1141610Y-233984D02*
X1122563Y-233984D01*
X1122563Y-233984D02*
X1103515Y-224460D01*
X1103515Y-224460D02*
X1093991Y-214936D01*
X1093991Y-214936D02*
X1084467Y-195888D01*
X1084467Y-195888D02*
X1074944Y-157793D01*
X1074944Y-157793D02*
X1074944Y-110174D01*
X1074944Y-110174D02*
X1084467Y-72079D01*
X1084467Y-72079D02*
X1093991Y-53031D01*
X1093991Y-53031D02*
X1103515Y-43508D01*
X1103515Y-43508D02*
X1122563Y-33984D01*
X1313039Y-33984D02*
X1332086Y-33984D01*
X1332086Y-33984D02*
X1351134Y-43508D01*
X1351134Y-43508D02*
X1360658Y-53031D01*
X1360658Y-53031D02*
X1370182Y-72079D01*
X1370182Y-72079D02*
X1379705Y-110174D01*
X1379705Y-110174D02*
X1379705Y-157793D01*
X1379705Y-157793D02*
X1370182Y-195888D01*
X1370182Y-195888D02*
X1360658Y-214936D01*
X1360658Y-214936D02*
X1351134Y-224460D01*
X1351134Y-224460D02*
X1332086Y-233984D01*
X1332086Y-233984D02*
X1313039Y-233984D01*
X1313039Y-233984D02*
X1293991Y-224460D01*
X1293991Y-224460D02*
X1284467Y-214936D01*
X1284467Y-214936D02*
X1274944Y-195888D01*
X1274944Y-195888D02*
X1265420Y-157793D01*
X1265420Y-157793D02*
X1265420Y-110174D01*
X1265420Y-110174D02*
X1274944Y-72079D01*
X1274944Y-72079D02*
X1284467Y-53031D01*
X1284467Y-53031D02*
X1293991Y-43508D01*
X1293991Y-43508D02*
X1313039Y-33984D01*
X1465420Y-233984D02*
X1465420Y-100650D01*
X1465420Y-119698D02*
X1474943Y-110174D01*
X1474943Y-110174D02*
X1493991Y-100650D01*
X1493991Y-100650D02*
X1522563Y-100650D01*
X1522563Y-100650D02*
X1541610Y-110174D01*
X1541610Y-110174D02*
X1551134Y-129222D01*
X1551134Y-129222D02*
X1551134Y-233984D01*
X1551134Y-129222D02*
X1560658Y-110174D01*
X1560658Y-110174D02*
X1579705Y-100650D01*
X1579705Y-100650D02*
X1608277Y-100650D01*
X1608277Y-100650D02*
X1627324Y-110174D01*
X1627324Y-110174D02*
X1636848Y-129222D01*
X1636848Y-129222D02*
X1636848Y-233984D01*
X1732086Y-233984D02*
X1732086Y-100650D01*
X1732086Y-119698D02*
X1741610Y-110174D01*
X1741610Y-110174D02*
X1760658Y-100650D01*
X1760658Y-100650D02*
X1789229Y-100650D01*
X1789229Y-100650D02*
X1808277Y-110174D01*
X1808277Y-110174D02*
X1817801Y-129222D01*
X1817801Y-129222D02*
X1817801Y-233984D01*
X1817801Y-129222D02*
X1827324Y-110174D01*
X1827324Y-110174D02*
X1846372Y-100650D01*
X1846372Y-100650D02*
X1874943Y-100650D01*
X1874943Y-100650D02*
X1893991Y-110174D01*
X1893991Y-110174D02*
X1903515Y-129222D01*
X1903515Y-129222D02*
X1903515Y-233984D01*
X2293991Y-24460D02*
X2122563Y-281603D01*
X2551134Y-33984D02*
X2570182Y-33984D01*
X2570182Y-33984D02*
X2589229Y-43508D01*
X2589229Y-43508D02*
X2598753Y-53031D01*
X2598753Y-53031D02*
X2608277Y-72079D01*
X2608277Y-72079D02*
X2617801Y-110174D01*
X2617801Y-110174D02*
X2617801Y-157793D01*
X2617801Y-157793D02*
X2608277Y-195888D01*
X2608277Y-195888D02*
X2598753Y-214936D01*
X2598753Y-214936D02*
X2589229Y-224460D01*
X2589229Y-224460D02*
X2570182Y-233984D01*
X2570182Y-233984D02*
X2551134Y-233984D01*
X2551134Y-233984D02*
X2532087Y-224460D01*
X2532087Y-224460D02*
X2522563Y-214936D01*
X2522563Y-214936D02*
X2513039Y-195888D01*
X2513039Y-195888D02*
X2503515Y-157793D01*
X2503515Y-157793D02*
X2503515Y-110174D01*
X2503515Y-110174D02*
X2513039Y-72079D01*
X2513039Y-72079D02*
X2522563Y-53031D01*
X2522563Y-53031D02*
X2532087Y-43508D01*
X2532087Y-43508D02*
X2551134Y-33984D01*
X2703515Y-214936D02*
X2713039Y-224460D01*
X2713039Y-224460D02*
X2703515Y-233984D01*
X2703515Y-233984D02*
X2693991Y-224460D01*
X2693991Y-224460D02*
X2703515Y-214936D01*
X2703515Y-214936D02*
X2703515Y-233984D01*
X2836848Y-33984D02*
X2855896Y-33984D01*
X2855896Y-33984D02*
X2874944Y-43508D01*
X2874944Y-43508D02*
X2884467Y-53031D01*
X2884467Y-53031D02*
X2893991Y-72079D01*
X2893991Y-72079D02*
X2903515Y-110174D01*
X2903515Y-110174D02*
X2903515Y-157793D01*
X2903515Y-157793D02*
X2893991Y-195888D01*
X2893991Y-195888D02*
X2884467Y-214936D01*
X2884467Y-214936D02*
X2874944Y-224460D01*
X2874944Y-224460D02*
X2855896Y-233984D01*
X2855896Y-233984D02*
X2836848Y-233984D01*
X2836848Y-233984D02*
X2817801Y-224460D01*
X2817801Y-224460D02*
X2808277Y-214936D01*
X2808277Y-214936D02*
X2798753Y-195888D01*
X2798753Y-195888D02*
X2789229Y-157793D01*
X2789229Y-157793D02*
X2789229Y-110174D01*
X2789229Y-110174D02*
X2798753Y-72079D01*
X2798753Y-72079D02*
X2808277Y-53031D01*
X2808277Y-53031D02*
X2817801Y-43508D01*
X2817801Y-43508D02*
X2836848Y-33984D01*
X2970182Y-33984D02*
X3093991Y-33984D01*
X3093991Y-33984D02*
X3027325Y-110174D01*
X3027325Y-110174D02*
X3055896Y-110174D01*
X3055896Y-110174D02*
X3074944Y-119698D01*
X3074944Y-119698D02*
X3084467Y-129222D01*
X3084467Y-129222D02*
X3093991Y-148270D01*
X3093991Y-148270D02*
X3093991Y-195888D01*
X3093991Y-195888D02*
X3084467Y-214936D01*
X3084467Y-214936D02*
X3074944Y-224460D01*
X3074944Y-224460D02*
X3055896Y-233984D01*
X3055896Y-233984D02*
X2998753Y-233984D01*
X2998753Y-233984D02*
X2979706Y-224460D01*
X2979706Y-224460D02*
X2970182Y-214936D01*
X3284467Y-233984D02*
X3170182Y-233984D01*
X3227325Y-233984D02*
X3227325Y-33984D01*
X3227325Y-33984D02*
X3208277Y-62555D01*
X3208277Y-62555D02*
X3189229Y-81603D01*
X3189229Y-81603D02*
X3170182Y-91127D01*
X3465420Y-33984D02*
X3370182Y-33984D01*
X3370182Y-33984D02*
X3360658Y-129222D01*
X3360658Y-129222D02*
X3370182Y-119698D01*
X3370182Y-119698D02*
X3389229Y-110174D01*
X3389229Y-110174D02*
X3436848Y-110174D01*
X3436848Y-110174D02*
X3455896Y-119698D01*
X3455896Y-119698D02*
X3465420Y-129222D01*
X3465420Y-129222D02*
X3474944Y-148270D01*
X3474944Y-148270D02*
X3474944Y-195888D01*
X3474944Y-195888D02*
X3465420Y-214936D01*
X3465420Y-214936D02*
X3455896Y-224460D01*
X3455896Y-224460D02*
X3436848Y-233984D01*
X3436848Y-233984D02*
X3389229Y-233984D01*
X3389229Y-233984D02*
X3370182Y-224460D01*
X3370182Y-224460D02*
X3360658Y-214936D01*
X3551134Y-33984D02*
X3551134Y-72079D01*
X3627325Y-33984D02*
X3627325Y-72079D01*
X3922563Y-310174D02*
X3913039Y-300650D01*
X3913039Y-300650D02*
X3893991Y-272079D01*
X3893991Y-272079D02*
X3884468Y-253031D01*
X3884468Y-253031D02*
X3874944Y-224460D01*
X3874944Y-224460D02*
X3865420Y-176841D01*
X3865420Y-176841D02*
X3865420Y-138746D01*
X3865420Y-138746D02*
X3874944Y-91127D01*
X3874944Y-91127D02*
X3884468Y-62555D01*
X3884468Y-62555D02*
X3893991Y-43508D01*
X3893991Y-43508D02*
X3913039Y-14936D01*
X3913039Y-14936D02*
X3922563Y-5412D01*
X3979706Y-33984D02*
X4103515Y-33984D01*
X4103515Y-33984D02*
X4036848Y-110174D01*
X4036848Y-110174D02*
X4065420Y-110174D01*
X4065420Y-110174D02*
X4084468Y-119698D01*
X4084468Y-119698D02*
X4093991Y-129222D01*
X4093991Y-129222D02*
X4103515Y-148270D01*
X4103515Y-148270D02*
X4103515Y-195888D01*
X4103515Y-195888D02*
X4093991Y-214936D01*
X4093991Y-214936D02*
X4084468Y-224460D01*
X4084468Y-224460D02*
X4065420Y-233984D01*
X4065420Y-233984D02*
X4008277Y-233984D01*
X4008277Y-233984D02*
X3989229Y-224460D01*
X3989229Y-224460D02*
X3979706Y-214936D01*
X4274944Y-100650D02*
X4274944Y-233984D01*
X4227325Y-24460D02*
X4179706Y-167317D01*
X4179706Y-167317D02*
X4303515Y-167317D01*
X4360658Y-33984D02*
X4484468Y-33984D01*
X4484468Y-33984D02*
X4417801Y-110174D01*
X4417801Y-110174D02*
X4446372Y-110174D01*
X4446372Y-110174D02*
X4465420Y-119698D01*
X4465420Y-119698D02*
X4474944Y-129222D01*
X4474944Y-129222D02*
X4484468Y-148270D01*
X4484468Y-148270D02*
X4484468Y-195888D01*
X4484468Y-195888D02*
X4474944Y-214936D01*
X4474944Y-214936D02*
X4465420Y-224460D01*
X4465420Y-224460D02*
X4446372Y-233984D01*
X4446372Y-233984D02*
X4389230Y-233984D01*
X4389230Y-233984D02*
X4370182Y-224460D01*
X4370182Y-224460D02*
X4360658Y-214936D01*
X4722563Y-233984D02*
X4722563Y-33984D01*
X4808277Y-233984D02*
X4808277Y-129222D01*
X4808277Y-129222D02*
X4798753Y-110174D01*
X4798753Y-110174D02*
X4779706Y-100650D01*
X4779706Y-100650D02*
X4751134Y-100650D01*
X4751134Y-100650D02*
X4732087Y-110174D01*
X4732087Y-110174D02*
X4722563Y-119698D01*
X4932087Y-233984D02*
X4913039Y-224460D01*
X4913039Y-224460D02*
X4903515Y-214936D01*
X4903515Y-214936D02*
X4893992Y-195888D01*
X4893992Y-195888D02*
X4893992Y-138746D01*
X4893992Y-138746D02*
X4903515Y-119698D01*
X4903515Y-119698D02*
X4913039Y-110174D01*
X4913039Y-110174D02*
X4932087Y-100650D01*
X4932087Y-100650D02*
X4960658Y-100650D01*
X4960658Y-100650D02*
X4979706Y-110174D01*
X4979706Y-110174D02*
X4989230Y-119698D01*
X4989230Y-119698D02*
X4998753Y-138746D01*
X4998753Y-138746D02*
X4998753Y-195888D01*
X4998753Y-195888D02*
X4989230Y-214936D01*
X4989230Y-214936D02*
X4979706Y-224460D01*
X4979706Y-224460D02*
X4960658Y-233984D01*
X4960658Y-233984D02*
X4932087Y-233984D01*
X5113039Y-233984D02*
X5093992Y-224460D01*
X5093992Y-224460D02*
X5084468Y-205412D01*
X5084468Y-205412D02*
X5084468Y-33984D01*
X5265420Y-224460D02*
X5246373Y-233984D01*
X5246373Y-233984D02*
X5208277Y-233984D01*
X5208277Y-233984D02*
X5189230Y-224460D01*
X5189230Y-224460D02*
X5179706Y-205412D01*
X5179706Y-205412D02*
X5179706Y-129222D01*
X5179706Y-129222D02*
X5189230Y-110174D01*
X5189230Y-110174D02*
X5208277Y-100650D01*
X5208277Y-100650D02*
X5246373Y-100650D01*
X5246373Y-100650D02*
X5265420Y-110174D01*
X5265420Y-110174D02*
X5274944Y-129222D01*
X5274944Y-129222D02*
X5274944Y-148270D01*
X5274944Y-148270D02*
X5179706Y-167317D01*
X5351134Y-224460D02*
X5370182Y-233984D01*
X5370182Y-233984D02*
X5408277Y-233984D01*
X5408277Y-233984D02*
X5427325Y-224460D01*
X5427325Y-224460D02*
X5436849Y-205412D01*
X5436849Y-205412D02*
X5436849Y-195888D01*
X5436849Y-195888D02*
X5427325Y-176841D01*
X5427325Y-176841D02*
X5408277Y-167317D01*
X5408277Y-167317D02*
X5379706Y-167317D01*
X5379706Y-167317D02*
X5360658Y-157793D01*
X5360658Y-157793D02*
X5351134Y-138746D01*
X5351134Y-138746D02*
X5351134Y-129222D01*
X5351134Y-129222D02*
X5360658Y-110174D01*
X5360658Y-110174D02*
X5379706Y-100650D01*
X5379706Y-100650D02*
X5408277Y-100650D01*
X5408277Y-100650D02*
X5427325Y-110174D01*
X5503515Y-310174D02*
X5513039Y-300650D01*
X5513039Y-300650D02*
X5532087Y-272079D01*
X5532087Y-272079D02*
X5541611Y-253031D01*
X5541611Y-253031D02*
X5551134Y-224460D01*
X5551134Y-224460D02*
X5560658Y-176841D01*
X5560658Y-176841D02*
X5560658Y-138746D01*
X5560658Y-138746D02*
X5551134Y-91127D01*
X5551134Y-91127D02*
X5541611Y-62555D01*
X5541611Y-62555D02*
X5532087Y-43508D01*
X5532087Y-43508D02*
X5513039Y-14936D01*
X5513039Y-14936D02*
X5503515Y-5412D01*
D12*
X347500Y-406500D02*
G75*
G02*
X257500Y-406500I-45000J0D01*
G01*
X257500Y-406500D02*
G75*
G02*
X347500Y-406500I45000J0D01*
G01*
D11*
X646372Y-297984D02*
X665420Y-297984D01*
X665420Y-297984D02*
X684467Y-307508D01*
X684467Y-307508D02*
X693991Y-317031D01*
X693991Y-317031D02*
X703515Y-336079D01*
X703515Y-336079D02*
X713039Y-374174D01*
X713039Y-374174D02*
X713039Y-421793D01*
X713039Y-421793D02*
X703515Y-459888D01*
X703515Y-459888D02*
X693991Y-478936D01*
X693991Y-478936D02*
X684467Y-488460D01*
X684467Y-488460D02*
X665420Y-497984D01*
X665420Y-497984D02*
X646372Y-497984D01*
X646372Y-497984D02*
X627324Y-488460D01*
X627324Y-488460D02*
X617801Y-478936D01*
X617801Y-478936D02*
X608277Y-459888D01*
X608277Y-459888D02*
X598753Y-421793D01*
X598753Y-421793D02*
X598753Y-374174D01*
X598753Y-374174D02*
X608277Y-336079D01*
X608277Y-336079D02*
X617801Y-317031D01*
X617801Y-317031D02*
X627324Y-307508D01*
X627324Y-307508D02*
X646372Y-297984D01*
X798753Y-478936D02*
X808277Y-488460D01*
X808277Y-488460D02*
X798753Y-497984D01*
X798753Y-497984D02*
X789229Y-488460D01*
X789229Y-488460D02*
X798753Y-478936D01*
X798753Y-478936D02*
X798753Y-497984D01*
X903515Y-497984D02*
X941610Y-497984D01*
X941610Y-497984D02*
X960658Y-488460D01*
X960658Y-488460D02*
X970182Y-478936D01*
X970182Y-478936D02*
X989229Y-450365D01*
X989229Y-450365D02*
X998753Y-412269D01*
X998753Y-412269D02*
X998753Y-336079D01*
X998753Y-336079D02*
X989229Y-317031D01*
X989229Y-317031D02*
X979705Y-307508D01*
X979705Y-307508D02*
X960658Y-297984D01*
X960658Y-297984D02*
X922562Y-297984D01*
X922562Y-297984D02*
X903515Y-307508D01*
X903515Y-307508D02*
X893991Y-317031D01*
X893991Y-317031D02*
X884467Y-336079D01*
X884467Y-336079D02*
X884467Y-383698D01*
X884467Y-383698D02*
X893991Y-402746D01*
X893991Y-402746D02*
X903515Y-412269D01*
X903515Y-412269D02*
X922562Y-421793D01*
X922562Y-421793D02*
X960658Y-421793D01*
X960658Y-421793D02*
X979705Y-412269D01*
X979705Y-412269D02*
X989229Y-402746D01*
X989229Y-402746D02*
X998753Y-383698D01*
X1122563Y-297984D02*
X1141610Y-297984D01*
X1141610Y-297984D02*
X1160658Y-307508D01*
X1160658Y-307508D02*
X1170182Y-317031D01*
X1170182Y-317031D02*
X1179705Y-336079D01*
X1179705Y-336079D02*
X1189229Y-374174D01*
X1189229Y-374174D02*
X1189229Y-421793D01*
X1189229Y-421793D02*
X1179705Y-459888D01*
X1179705Y-459888D02*
X1170182Y-478936D01*
X1170182Y-478936D02*
X1160658Y-488460D01*
X1160658Y-488460D02*
X1141610Y-497984D01*
X1141610Y-497984D02*
X1122563Y-497984D01*
X1122563Y-497984D02*
X1103515Y-488460D01*
X1103515Y-488460D02*
X1093991Y-478936D01*
X1093991Y-478936D02*
X1084467Y-459888D01*
X1084467Y-459888D02*
X1074944Y-421793D01*
X1074944Y-421793D02*
X1074944Y-374174D01*
X1074944Y-374174D02*
X1084467Y-336079D01*
X1084467Y-336079D02*
X1093991Y-317031D01*
X1093991Y-317031D02*
X1103515Y-307508D01*
X1103515Y-307508D02*
X1122563Y-297984D01*
X1313039Y-297984D02*
X1332086Y-297984D01*
X1332086Y-297984D02*
X1351134Y-307508D01*
X1351134Y-307508D02*
X1360658Y-317031D01*
X1360658Y-317031D02*
X1370182Y-336079D01*
X1370182Y-336079D02*
X1379705Y-374174D01*
X1379705Y-374174D02*
X1379705Y-421793D01*
X1379705Y-421793D02*
X1370182Y-459888D01*
X1370182Y-459888D02*
X1360658Y-478936D01*
X1360658Y-478936D02*
X1351134Y-488460D01*
X1351134Y-488460D02*
X1332086Y-497984D01*
X1332086Y-497984D02*
X1313039Y-497984D01*
X1313039Y-497984D02*
X1293991Y-488460D01*
X1293991Y-488460D02*
X1284467Y-478936D01*
X1284467Y-478936D02*
X1274944Y-459888D01*
X1274944Y-459888D02*
X1265420Y-421793D01*
X1265420Y-421793D02*
X1265420Y-374174D01*
X1265420Y-374174D02*
X1274944Y-336079D01*
X1274944Y-336079D02*
X1284467Y-317031D01*
X1284467Y-317031D02*
X1293991Y-307508D01*
X1293991Y-307508D02*
X1313039Y-297984D01*
X1465420Y-497984D02*
X1465420Y-364650D01*
X1465420Y-383698D02*
X1474943Y-374174D01*
X1474943Y-374174D02*
X1493991Y-364650D01*
X1493991Y-364650D02*
X1522563Y-364650D01*
X1522563Y-364650D02*
X1541610Y-374174D01*
X1541610Y-374174D02*
X1551134Y-393222D01*
X1551134Y-393222D02*
X1551134Y-497984D01*
X1551134Y-393222D02*
X1560658Y-374174D01*
X1560658Y-374174D02*
X1579705Y-364650D01*
X1579705Y-364650D02*
X1608277Y-364650D01*
X1608277Y-364650D02*
X1627324Y-374174D01*
X1627324Y-374174D02*
X1636848Y-393222D01*
X1636848Y-393222D02*
X1636848Y-497984D01*
X1732086Y-497984D02*
X1732086Y-364650D01*
X1732086Y-383698D02*
X1741610Y-374174D01*
X1741610Y-374174D02*
X1760658Y-364650D01*
X1760658Y-364650D02*
X1789229Y-364650D01*
X1789229Y-364650D02*
X1808277Y-374174D01*
X1808277Y-374174D02*
X1817801Y-393222D01*
X1817801Y-393222D02*
X1817801Y-497984D01*
X1817801Y-393222D02*
X1827324Y-374174D01*
X1827324Y-374174D02*
X1846372Y-364650D01*
X1846372Y-364650D02*
X1874943Y-364650D01*
X1874943Y-364650D02*
X1893991Y-374174D01*
X1893991Y-374174D02*
X1903515Y-393222D01*
X1903515Y-393222D02*
X1903515Y-497984D01*
X2293991Y-288460D02*
X2122563Y-545603D01*
X2551134Y-297984D02*
X2570182Y-297984D01*
X2570182Y-297984D02*
X2589229Y-307508D01*
X2589229Y-307508D02*
X2598753Y-317031D01*
X2598753Y-317031D02*
X2608277Y-336079D01*
X2608277Y-336079D02*
X2617801Y-374174D01*
X2617801Y-374174D02*
X2617801Y-421793D01*
X2617801Y-421793D02*
X2608277Y-459888D01*
X2608277Y-459888D02*
X2598753Y-478936D01*
X2598753Y-478936D02*
X2589229Y-488460D01*
X2589229Y-488460D02*
X2570182Y-497984D01*
X2570182Y-497984D02*
X2551134Y-497984D01*
X2551134Y-497984D02*
X2532087Y-488460D01*
X2532087Y-488460D02*
X2522563Y-478936D01*
X2522563Y-478936D02*
X2513039Y-459888D01*
X2513039Y-459888D02*
X2503515Y-421793D01*
X2503515Y-421793D02*
X2503515Y-374174D01*
X2503515Y-374174D02*
X2513039Y-336079D01*
X2513039Y-336079D02*
X2522563Y-317031D01*
X2522563Y-317031D02*
X2532087Y-307508D01*
X2532087Y-307508D02*
X2551134Y-297984D01*
X2703515Y-478936D02*
X2713039Y-488460D01*
X2713039Y-488460D02*
X2703515Y-497984D01*
X2703515Y-497984D02*
X2693991Y-488460D01*
X2693991Y-488460D02*
X2703515Y-478936D01*
X2703515Y-478936D02*
X2703515Y-497984D01*
X2836848Y-297984D02*
X2855896Y-297984D01*
X2855896Y-297984D02*
X2874944Y-307508D01*
X2874944Y-307508D02*
X2884467Y-317031D01*
X2884467Y-317031D02*
X2893991Y-336079D01*
X2893991Y-336079D02*
X2903515Y-374174D01*
X2903515Y-374174D02*
X2903515Y-421793D01*
X2903515Y-421793D02*
X2893991Y-459888D01*
X2893991Y-459888D02*
X2884467Y-478936D01*
X2884467Y-478936D02*
X2874944Y-488460D01*
X2874944Y-488460D02*
X2855896Y-497984D01*
X2855896Y-497984D02*
X2836848Y-497984D01*
X2836848Y-497984D02*
X2817801Y-488460D01*
X2817801Y-488460D02*
X2808277Y-478936D01*
X2808277Y-478936D02*
X2798753Y-459888D01*
X2798753Y-459888D02*
X2789229Y-421793D01*
X2789229Y-421793D02*
X2789229Y-374174D01*
X2789229Y-374174D02*
X2798753Y-336079D01*
X2798753Y-336079D02*
X2808277Y-317031D01*
X2808277Y-317031D02*
X2817801Y-307508D01*
X2817801Y-307508D02*
X2836848Y-297984D01*
X2970182Y-297984D02*
X3093991Y-297984D01*
X3093991Y-297984D02*
X3027325Y-374174D01*
X3027325Y-374174D02*
X3055896Y-374174D01*
X3055896Y-374174D02*
X3074944Y-383698D01*
X3074944Y-383698D02*
X3084467Y-393222D01*
X3084467Y-393222D02*
X3093991Y-412269D01*
X3093991Y-412269D02*
X3093991Y-459888D01*
X3093991Y-459888D02*
X3084467Y-478936D01*
X3084467Y-478936D02*
X3074944Y-488460D01*
X3074944Y-488460D02*
X3055896Y-497984D01*
X3055896Y-497984D02*
X2998753Y-497984D01*
X2998753Y-497984D02*
X2979706Y-488460D01*
X2979706Y-488460D02*
X2970182Y-478936D01*
X3274944Y-297984D02*
X3179706Y-297984D01*
X3179706Y-297984D02*
X3170182Y-393222D01*
X3170182Y-393222D02*
X3179706Y-383698D01*
X3179706Y-383698D02*
X3198753Y-374174D01*
X3198753Y-374174D02*
X3246372Y-374174D01*
X3246372Y-374174D02*
X3265420Y-383698D01*
X3265420Y-383698D02*
X3274944Y-393222D01*
X3274944Y-393222D02*
X3284467Y-412269D01*
X3284467Y-412269D02*
X3284467Y-459888D01*
X3284467Y-459888D02*
X3274944Y-478936D01*
X3274944Y-478936D02*
X3265420Y-488460D01*
X3265420Y-488460D02*
X3246372Y-497984D01*
X3246372Y-497984D02*
X3198753Y-497984D01*
X3198753Y-497984D02*
X3179706Y-488460D01*
X3179706Y-488460D02*
X3170182Y-478936D01*
X3455896Y-364650D02*
X3455896Y-497984D01*
X3408277Y-288460D02*
X3360658Y-431317D01*
X3360658Y-431317D02*
X3484467Y-431317D01*
X3551134Y-297984D02*
X3551134Y-336079D01*
X3627325Y-297984D02*
X3627325Y-336079D01*
X3922563Y-574174D02*
X3913039Y-564650D01*
X3913039Y-564650D02*
X3893991Y-536079D01*
X3893991Y-536079D02*
X3884468Y-517031D01*
X3884468Y-517031D02*
X3874944Y-488460D01*
X3874944Y-488460D02*
X3865420Y-440841D01*
X3865420Y-440841D02*
X3865420Y-402746D01*
X3865420Y-402746D02*
X3874944Y-355127D01*
X3874944Y-355127D02*
X3884468Y-326555D01*
X3884468Y-326555D02*
X3893991Y-307508D01*
X3893991Y-307508D02*
X3913039Y-278936D01*
X3913039Y-278936D02*
X3922563Y-269412D01*
X4103515Y-497984D02*
X3989229Y-497984D01*
X4046372Y-497984D02*
X4046372Y-297984D01*
X4046372Y-297984D02*
X4027325Y-326555D01*
X4027325Y-326555D02*
X4008277Y-345603D01*
X4008277Y-345603D02*
X3989229Y-355127D01*
X4179706Y-317031D02*
X4189229Y-307508D01*
X4189229Y-307508D02*
X4208277Y-297984D01*
X4208277Y-297984D02*
X4255896Y-297984D01*
X4255896Y-297984D02*
X4274944Y-307508D01*
X4274944Y-307508D02*
X4284468Y-317031D01*
X4284468Y-317031D02*
X4293991Y-336079D01*
X4293991Y-336079D02*
X4293991Y-355127D01*
X4293991Y-355127D02*
X4284468Y-383698D01*
X4284468Y-383698D02*
X4170182Y-497984D01*
X4170182Y-497984D02*
X4293991Y-497984D01*
X4532087Y-497984D02*
X4532087Y-297984D01*
X4617801Y-497984D02*
X4617801Y-393222D01*
X4617801Y-393222D02*
X4608277Y-374174D01*
X4608277Y-374174D02*
X4589230Y-364650D01*
X4589230Y-364650D02*
X4560658Y-364650D01*
X4560658Y-364650D02*
X4541611Y-374174D01*
X4541611Y-374174D02*
X4532087Y-383698D01*
X4741611Y-497984D02*
X4722563Y-488460D01*
X4722563Y-488460D02*
X4713039Y-478936D01*
X4713039Y-478936D02*
X4703515Y-459888D01*
X4703515Y-459888D02*
X4703515Y-402746D01*
X4703515Y-402746D02*
X4713039Y-383698D01*
X4713039Y-383698D02*
X4722563Y-374174D01*
X4722563Y-374174D02*
X4741611Y-364650D01*
X4741611Y-364650D02*
X4770182Y-364650D01*
X4770182Y-364650D02*
X4789230Y-374174D01*
X4789230Y-374174D02*
X4798753Y-383698D01*
X4798753Y-383698D02*
X4808277Y-402746D01*
X4808277Y-402746D02*
X4808277Y-459888D01*
X4808277Y-459888D02*
X4798753Y-478936D01*
X4798753Y-478936D02*
X4789230Y-488460D01*
X4789230Y-488460D02*
X4770182Y-497984D01*
X4770182Y-497984D02*
X4741611Y-497984D01*
X4922563Y-497984D02*
X4903515Y-488460D01*
X4903515Y-488460D02*
X4893992Y-469412D01*
X4893992Y-469412D02*
X4893992Y-297984D01*
X5074944Y-488460D02*
X5055896Y-497984D01*
X5055896Y-497984D02*
X5017801Y-497984D01*
X5017801Y-497984D02*
X4998753Y-488460D01*
X4998753Y-488460D02*
X4989230Y-469412D01*
X4989230Y-469412D02*
X4989230Y-393222D01*
X4989230Y-393222D02*
X4998753Y-374174D01*
X4998753Y-374174D02*
X5017801Y-364650D01*
X5017801Y-364650D02*
X5055896Y-364650D01*
X5055896Y-364650D02*
X5074944Y-374174D01*
X5074944Y-374174D02*
X5084468Y-393222D01*
X5084468Y-393222D02*
X5084468Y-412269D01*
X5084468Y-412269D02*
X4989230Y-431317D01*
X5160658Y-488460D02*
X5179706Y-497984D01*
X5179706Y-497984D02*
X5217801Y-497984D01*
X5217801Y-497984D02*
X5236849Y-488460D01*
X5236849Y-488460D02*
X5246373Y-469412D01*
X5246373Y-469412D02*
X5246373Y-459888D01*
X5246373Y-459888D02*
X5236849Y-440841D01*
X5236849Y-440841D02*
X5217801Y-431317D01*
X5217801Y-431317D02*
X5189230Y-431317D01*
X5189230Y-431317D02*
X5170182Y-421793D01*
X5170182Y-421793D02*
X5160658Y-402746D01*
X5160658Y-402746D02*
X5160658Y-393222D01*
X5160658Y-393222D02*
X5170182Y-374174D01*
X5170182Y-374174D02*
X5189230Y-364650D01*
X5189230Y-364650D02*
X5217801Y-364650D01*
X5217801Y-364650D02*
X5236849Y-374174D01*
X5313039Y-574174D02*
X5322563Y-564650D01*
X5322563Y-564650D02*
X5341611Y-536079D01*
X5341611Y-536079D02*
X5351134Y-517031D01*
X5351134Y-517031D02*
X5360658Y-488460D01*
X5360658Y-488460D02*
X5370182Y-440841D01*
X5370182Y-440841D02*
X5370182Y-402746D01*
X5370182Y-402746D02*
X5360658Y-355127D01*
X5360658Y-355127D02*
X5351134Y-326555D01*
X5351134Y-326555D02*
X5341611Y-307508D01*
X5341611Y-307508D02*
X5322563Y-278936D01*
X5322563Y-278936D02*
X5313039Y-269412D01*
D12*
X300000Y-623000D02*
X300000Y-718000D01*
X252500Y-670500D02*
X347500Y-670500D01*
D11*
X646372Y-561984D02*
X665420Y-561984D01*
X665420Y-561984D02*
X684467Y-571508D01*
X684467Y-571508D02*
X693991Y-581031D01*
X693991Y-581031D02*
X703515Y-600079D01*
X703515Y-600079D02*
X713039Y-638174D01*
X713039Y-638174D02*
X713039Y-685793D01*
X713039Y-685793D02*
X703515Y-723888D01*
X703515Y-723888D02*
X693991Y-742936D01*
X693991Y-742936D02*
X684467Y-752460D01*
X684467Y-752460D02*
X665420Y-761984D01*
X665420Y-761984D02*
X646372Y-761984D01*
X646372Y-761984D02*
X627324Y-752460D01*
X627324Y-752460D02*
X617801Y-742936D01*
X617801Y-742936D02*
X608277Y-723888D01*
X608277Y-723888D02*
X598753Y-685793D01*
X598753Y-685793D02*
X598753Y-638174D01*
X598753Y-638174D02*
X608277Y-600079D01*
X608277Y-600079D02*
X617801Y-581031D01*
X617801Y-581031D02*
X627324Y-571508D01*
X627324Y-571508D02*
X646372Y-561984D01*
X798753Y-742936D02*
X808277Y-752460D01*
X808277Y-752460D02*
X798753Y-761984D01*
X798753Y-761984D02*
X789229Y-752460D01*
X789229Y-752460D02*
X798753Y-742936D01*
X798753Y-742936D02*
X798753Y-761984D01*
X903515Y-761984D02*
X941610Y-761984D01*
X941610Y-761984D02*
X960658Y-752460D01*
X960658Y-752460D02*
X970182Y-742936D01*
X970182Y-742936D02*
X989229Y-714365D01*
X989229Y-714365D02*
X998753Y-676270D01*
X998753Y-676270D02*
X998753Y-600079D01*
X998753Y-600079D02*
X989229Y-581031D01*
X989229Y-581031D02*
X979705Y-571508D01*
X979705Y-571508D02*
X960658Y-561984D01*
X960658Y-561984D02*
X922562Y-561984D01*
X922562Y-561984D02*
X903515Y-571508D01*
X903515Y-571508D02*
X893991Y-581031D01*
X893991Y-581031D02*
X884467Y-600079D01*
X884467Y-600079D02*
X884467Y-647698D01*
X884467Y-647698D02*
X893991Y-666746D01*
X893991Y-666746D02*
X903515Y-676270D01*
X903515Y-676270D02*
X922562Y-685793D01*
X922562Y-685793D02*
X960658Y-685793D01*
X960658Y-685793D02*
X979705Y-676270D01*
X979705Y-676270D02*
X989229Y-666746D01*
X989229Y-666746D02*
X998753Y-647698D01*
X1179705Y-561984D02*
X1084467Y-561984D01*
X1084467Y-561984D02*
X1074944Y-657222D01*
X1074944Y-657222D02*
X1084467Y-647698D01*
X1084467Y-647698D02*
X1103515Y-638174D01*
X1103515Y-638174D02*
X1151134Y-638174D01*
X1151134Y-638174D02*
X1170182Y-647698D01*
X1170182Y-647698D02*
X1179705Y-657222D01*
X1179705Y-657222D02*
X1189229Y-676270D01*
X1189229Y-676270D02*
X1189229Y-723888D01*
X1189229Y-723888D02*
X1179705Y-742936D01*
X1179705Y-742936D02*
X1170182Y-752460D01*
X1170182Y-752460D02*
X1151134Y-761984D01*
X1151134Y-761984D02*
X1103515Y-761984D01*
X1103515Y-761984D02*
X1084467Y-752460D01*
X1084467Y-752460D02*
X1074944Y-742936D01*
X1313039Y-561984D02*
X1332086Y-561984D01*
X1332086Y-561984D02*
X1351134Y-571508D01*
X1351134Y-571508D02*
X1360658Y-581031D01*
X1360658Y-581031D02*
X1370182Y-600079D01*
X1370182Y-600079D02*
X1379705Y-638174D01*
X1379705Y-638174D02*
X1379705Y-685793D01*
X1379705Y-685793D02*
X1370182Y-723888D01*
X1370182Y-723888D02*
X1360658Y-742936D01*
X1360658Y-742936D02*
X1351134Y-752460D01*
X1351134Y-752460D02*
X1332086Y-761984D01*
X1332086Y-761984D02*
X1313039Y-761984D01*
X1313039Y-761984D02*
X1293991Y-752460D01*
X1293991Y-752460D02*
X1284467Y-742936D01*
X1284467Y-742936D02*
X1274944Y-723888D01*
X1274944Y-723888D02*
X1265420Y-685793D01*
X1265420Y-685793D02*
X1265420Y-638174D01*
X1265420Y-638174D02*
X1274944Y-600079D01*
X1274944Y-600079D02*
X1284467Y-581031D01*
X1284467Y-581031D02*
X1293991Y-571508D01*
X1293991Y-571508D02*
X1313039Y-561984D01*
X1465420Y-761984D02*
X1465420Y-628650D01*
X1465420Y-647698D02*
X1474943Y-638174D01*
X1474943Y-638174D02*
X1493991Y-628650D01*
X1493991Y-628650D02*
X1522563Y-628650D01*
X1522563Y-628650D02*
X1541610Y-638174D01*
X1541610Y-638174D02*
X1551134Y-657222D01*
X1551134Y-657222D02*
X1551134Y-761984D01*
X1551134Y-657222D02*
X1560658Y-638174D01*
X1560658Y-638174D02*
X1579705Y-628650D01*
X1579705Y-628650D02*
X1608277Y-628650D01*
X1608277Y-628650D02*
X1627324Y-638174D01*
X1627324Y-638174D02*
X1636848Y-657222D01*
X1636848Y-657222D02*
X1636848Y-761984D01*
X1732086Y-761984D02*
X1732086Y-628650D01*
X1732086Y-647698D02*
X1741610Y-638174D01*
X1741610Y-638174D02*
X1760658Y-628650D01*
X1760658Y-628650D02*
X1789229Y-628650D01*
X1789229Y-628650D02*
X1808277Y-638174D01*
X1808277Y-638174D02*
X1817801Y-657222D01*
X1817801Y-657222D02*
X1817801Y-761984D01*
X1817801Y-657222D02*
X1827324Y-638174D01*
X1827324Y-638174D02*
X1846372Y-628650D01*
X1846372Y-628650D02*
X1874943Y-628650D01*
X1874943Y-628650D02*
X1893991Y-638174D01*
X1893991Y-638174D02*
X1903515Y-657222D01*
X1903515Y-657222D02*
X1903515Y-761984D01*
X2293991Y-552460D02*
X2122563Y-809603D01*
X2551134Y-561984D02*
X2570182Y-561984D01*
X2570182Y-561984D02*
X2589229Y-571508D01*
X2589229Y-571508D02*
X2598753Y-581031D01*
X2598753Y-581031D02*
X2608277Y-600079D01*
X2608277Y-600079D02*
X2617801Y-638174D01*
X2617801Y-638174D02*
X2617801Y-685793D01*
X2617801Y-685793D02*
X2608277Y-723888D01*
X2608277Y-723888D02*
X2598753Y-742936D01*
X2598753Y-742936D02*
X2589229Y-752460D01*
X2589229Y-752460D02*
X2570182Y-761984D01*
X2570182Y-761984D02*
X2551134Y-761984D01*
X2551134Y-761984D02*
X2532087Y-752460D01*
X2532087Y-752460D02*
X2522563Y-742936D01*
X2522563Y-742936D02*
X2513039Y-723888D01*
X2513039Y-723888D02*
X2503515Y-685793D01*
X2503515Y-685793D02*
X2503515Y-638174D01*
X2503515Y-638174D02*
X2513039Y-600079D01*
X2513039Y-600079D02*
X2522563Y-581031D01*
X2522563Y-581031D02*
X2532087Y-571508D01*
X2532087Y-571508D02*
X2551134Y-561984D01*
X2703515Y-742936D02*
X2713039Y-752460D01*
X2713039Y-752460D02*
X2703515Y-761984D01*
X2703515Y-761984D02*
X2693991Y-752460D01*
X2693991Y-752460D02*
X2703515Y-742936D01*
X2703515Y-742936D02*
X2703515Y-761984D01*
X2836848Y-561984D02*
X2855896Y-561984D01*
X2855896Y-561984D02*
X2874944Y-571508D01*
X2874944Y-571508D02*
X2884467Y-581031D01*
X2884467Y-581031D02*
X2893991Y-600079D01*
X2893991Y-600079D02*
X2903515Y-638174D01*
X2903515Y-638174D02*
X2903515Y-685793D01*
X2903515Y-685793D02*
X2893991Y-723888D01*
X2893991Y-723888D02*
X2884467Y-742936D01*
X2884467Y-742936D02*
X2874944Y-752460D01*
X2874944Y-752460D02*
X2855896Y-761984D01*
X2855896Y-761984D02*
X2836848Y-761984D01*
X2836848Y-761984D02*
X2817801Y-752460D01*
X2817801Y-752460D02*
X2808277Y-742936D01*
X2808277Y-742936D02*
X2798753Y-723888D01*
X2798753Y-723888D02*
X2789229Y-685793D01*
X2789229Y-685793D02*
X2789229Y-638174D01*
X2789229Y-638174D02*
X2798753Y-600079D01*
X2798753Y-600079D02*
X2808277Y-581031D01*
X2808277Y-581031D02*
X2817801Y-571508D01*
X2817801Y-571508D02*
X2836848Y-561984D01*
X2970182Y-561984D02*
X3093991Y-561984D01*
X3093991Y-561984D02*
X3027325Y-638174D01*
X3027325Y-638174D02*
X3055896Y-638174D01*
X3055896Y-638174D02*
X3074944Y-647698D01*
X3074944Y-647698D02*
X3084467Y-657222D01*
X3084467Y-657222D02*
X3093991Y-676270D01*
X3093991Y-676270D02*
X3093991Y-723888D01*
X3093991Y-723888D02*
X3084467Y-742936D01*
X3084467Y-742936D02*
X3074944Y-752460D01*
X3074944Y-752460D02*
X3055896Y-761984D01*
X3055896Y-761984D02*
X2998753Y-761984D01*
X2998753Y-761984D02*
X2979706Y-752460D01*
X2979706Y-752460D02*
X2970182Y-742936D01*
X3160658Y-561984D02*
X3293991Y-561984D01*
X3293991Y-561984D02*
X3208277Y-761984D01*
X3455896Y-628650D02*
X3455896Y-761984D01*
X3408277Y-552460D02*
X3360658Y-695317D01*
X3360658Y-695317D02*
X3484467Y-695317D01*
X3551134Y-561984D02*
X3551134Y-600079D01*
X3627325Y-561984D02*
X3627325Y-600079D01*
X3922563Y-838174D02*
X3913039Y-828650D01*
X3913039Y-828650D02*
X3893991Y-800079D01*
X3893991Y-800079D02*
X3884468Y-781031D01*
X3884468Y-781031D02*
X3874944Y-752460D01*
X3874944Y-752460D02*
X3865420Y-704841D01*
X3865420Y-704841D02*
X3865420Y-666746D01*
X3865420Y-666746D02*
X3874944Y-619127D01*
X3874944Y-619127D02*
X3884468Y-590555D01*
X3884468Y-590555D02*
X3893991Y-571508D01*
X3893991Y-571508D02*
X3913039Y-542936D01*
X3913039Y-542936D02*
X3922563Y-533412D01*
X4084468Y-628650D02*
X4084468Y-761984D01*
X4036848Y-552460D02*
X3989229Y-695317D01*
X3989229Y-695317D02*
X4113039Y-695317D01*
X4341611Y-761984D02*
X4341611Y-561984D01*
X4427325Y-761984D02*
X4427325Y-657222D01*
X4427325Y-657222D02*
X4417801Y-638174D01*
X4417801Y-638174D02*
X4398753Y-628650D01*
X4398753Y-628650D02*
X4370182Y-628650D01*
X4370182Y-628650D02*
X4351134Y-638174D01*
X4351134Y-638174D02*
X4341611Y-647698D01*
X4551134Y-761984D02*
X4532087Y-752460D01*
X4532087Y-752460D02*
X4522563Y-742936D01*
X4522563Y-742936D02*
X4513039Y-723888D01*
X4513039Y-723888D02*
X4513039Y-666746D01*
X4513039Y-666746D02*
X4522563Y-647698D01*
X4522563Y-647698D02*
X4532087Y-638174D01*
X4532087Y-638174D02*
X4551134Y-628650D01*
X4551134Y-628650D02*
X4579706Y-628650D01*
X4579706Y-628650D02*
X4598753Y-638174D01*
X4598753Y-638174D02*
X4608277Y-647698D01*
X4608277Y-647698D02*
X4617801Y-666746D01*
X4617801Y-666746D02*
X4617801Y-723888D01*
X4617801Y-723888D02*
X4608277Y-742936D01*
X4608277Y-742936D02*
X4598753Y-752460D01*
X4598753Y-752460D02*
X4579706Y-761984D01*
X4579706Y-761984D02*
X4551134Y-761984D01*
X4732087Y-761984D02*
X4713039Y-752460D01*
X4713039Y-752460D02*
X4703515Y-733412D01*
X4703515Y-733412D02*
X4703515Y-561984D01*
X4884468Y-752460D02*
X4865420Y-761984D01*
X4865420Y-761984D02*
X4827325Y-761984D01*
X4827325Y-761984D02*
X4808277Y-752460D01*
X4808277Y-752460D02*
X4798753Y-733412D01*
X4798753Y-733412D02*
X4798753Y-657222D01*
X4798753Y-657222D02*
X4808277Y-638174D01*
X4808277Y-638174D02*
X4827325Y-628650D01*
X4827325Y-628650D02*
X4865420Y-628650D01*
X4865420Y-628650D02*
X4884468Y-638174D01*
X4884468Y-638174D02*
X4893992Y-657222D01*
X4893992Y-657222D02*
X4893992Y-676270D01*
X4893992Y-676270D02*
X4798753Y-695317D01*
X4970182Y-752460D02*
X4989230Y-761984D01*
X4989230Y-761984D02*
X5027325Y-761984D01*
X5027325Y-761984D02*
X5046373Y-752460D01*
X5046373Y-752460D02*
X5055896Y-733412D01*
X5055896Y-733412D02*
X5055896Y-723888D01*
X5055896Y-723888D02*
X5046373Y-704841D01*
X5046373Y-704841D02*
X5027325Y-695317D01*
X5027325Y-695317D02*
X4998753Y-695317D01*
X4998753Y-695317D02*
X4979706Y-685793D01*
X4979706Y-685793D02*
X4970182Y-666746D01*
X4970182Y-666746D02*
X4970182Y-657222D01*
X4970182Y-657222D02*
X4979706Y-638174D01*
X4979706Y-638174D02*
X4998753Y-628650D01*
X4998753Y-628650D02*
X5027325Y-628650D01*
X5027325Y-628650D02*
X5046373Y-638174D01*
X5122563Y-838174D02*
X5132087Y-828650D01*
X5132087Y-828650D02*
X5151134Y-800079D01*
X5151134Y-800079D02*
X5160658Y-781031D01*
X5160658Y-781031D02*
X5170182Y-752460D01*
X5170182Y-752460D02*
X5179706Y-704841D01*
X5179706Y-704841D02*
X5179706Y-666746D01*
X5179706Y-666746D02*
X5170182Y-619127D01*
X5170182Y-619127D02*
X5160658Y-590555D01*
X5160658Y-590555D02*
X5151134Y-571508D01*
X5151134Y-571508D02*
X5132087Y-542936D01*
X5132087Y-542936D02*
X5122563Y-533412D01*
D12*
X332856Y-969856D02*
X332856Y-899144D01*
X262144Y-899144D01*
X262144Y-969856D01*
X332856Y-969856D01*
D11*
X713039Y-1025984D02*
X598753Y-1025984D01*
X655896Y-1025984D02*
X655896Y-825984D01*
X655896Y-825984D02*
X636848Y-854555D01*
X636848Y-854555D02*
X617801Y-873603D01*
X617801Y-873603D02*
X598753Y-883127D01*
X798753Y-1006936D02*
X808277Y-1016460D01*
X808277Y-1016460D02*
X798753Y-1025984D01*
X798753Y-1025984D02*
X789229Y-1016460D01*
X789229Y-1016460D02*
X798753Y-1006936D01*
X798753Y-1006936D02*
X798753Y-1025984D01*
X932086Y-825984D02*
X951134Y-825984D01*
X951134Y-825984D02*
X970182Y-835508D01*
X970182Y-835508D02*
X979705Y-845031D01*
X979705Y-845031D02*
X989229Y-864079D01*
X989229Y-864079D02*
X998753Y-902174D01*
X998753Y-902174D02*
X998753Y-949793D01*
X998753Y-949793D02*
X989229Y-987888D01*
X989229Y-987888D02*
X979705Y-1006936D01*
X979705Y-1006936D02*
X970182Y-1016460D01*
X970182Y-1016460D02*
X951134Y-1025984D01*
X951134Y-1025984D02*
X932086Y-1025984D01*
X932086Y-1025984D02*
X913039Y-1016460D01*
X913039Y-1016460D02*
X903515Y-1006936D01*
X903515Y-1006936D02*
X893991Y-987888D01*
X893991Y-987888D02*
X884467Y-949793D01*
X884467Y-949793D02*
X884467Y-902174D01*
X884467Y-902174D02*
X893991Y-864079D01*
X893991Y-864079D02*
X903515Y-845031D01*
X903515Y-845031D02*
X913039Y-835508D01*
X913039Y-835508D02*
X932086Y-825984D01*
X1122563Y-825984D02*
X1141610Y-825984D01*
X1141610Y-825984D02*
X1160658Y-835508D01*
X1160658Y-835508D02*
X1170182Y-845031D01*
X1170182Y-845031D02*
X1179705Y-864079D01*
X1179705Y-864079D02*
X1189229Y-902174D01*
X1189229Y-902174D02*
X1189229Y-949793D01*
X1189229Y-949793D02*
X1179705Y-987888D01*
X1179705Y-987888D02*
X1170182Y-1006936D01*
X1170182Y-1006936D02*
X1160658Y-1016460D01*
X1160658Y-1016460D02*
X1141610Y-1025984D01*
X1141610Y-1025984D02*
X1122563Y-1025984D01*
X1122563Y-1025984D02*
X1103515Y-1016460D01*
X1103515Y-1016460D02*
X1093991Y-1006936D01*
X1093991Y-1006936D02*
X1084467Y-987888D01*
X1084467Y-987888D02*
X1074944Y-949793D01*
X1074944Y-949793D02*
X1074944Y-902174D01*
X1074944Y-902174D02*
X1084467Y-864079D01*
X1084467Y-864079D02*
X1093991Y-845031D01*
X1093991Y-845031D02*
X1103515Y-835508D01*
X1103515Y-835508D02*
X1122563Y-825984D01*
X1313039Y-825984D02*
X1332086Y-825984D01*
X1332086Y-825984D02*
X1351134Y-835508D01*
X1351134Y-835508D02*
X1360658Y-845031D01*
X1360658Y-845031D02*
X1370182Y-864079D01*
X1370182Y-864079D02*
X1379705Y-902174D01*
X1379705Y-902174D02*
X1379705Y-949793D01*
X1379705Y-949793D02*
X1370182Y-987888D01*
X1370182Y-987888D02*
X1360658Y-1006936D01*
X1360658Y-1006936D02*
X1351134Y-1016460D01*
X1351134Y-1016460D02*
X1332086Y-1025984D01*
X1332086Y-1025984D02*
X1313039Y-1025984D01*
X1313039Y-1025984D02*
X1293991Y-1016460D01*
X1293991Y-1016460D02*
X1284467Y-1006936D01*
X1284467Y-1006936D02*
X1274944Y-987888D01*
X1274944Y-987888D02*
X1265420Y-949793D01*
X1265420Y-949793D02*
X1265420Y-902174D01*
X1265420Y-902174D02*
X1274944Y-864079D01*
X1274944Y-864079D02*
X1284467Y-845031D01*
X1284467Y-845031D02*
X1293991Y-835508D01*
X1293991Y-835508D02*
X1313039Y-825984D01*
X1465420Y-1025984D02*
X1465420Y-892650D01*
X1465420Y-911698D02*
X1474943Y-902174D01*
X1474943Y-902174D02*
X1493991Y-892650D01*
X1493991Y-892650D02*
X1522563Y-892650D01*
X1522563Y-892650D02*
X1541610Y-902174D01*
X1541610Y-902174D02*
X1551134Y-921222D01*
X1551134Y-921222D02*
X1551134Y-1025984D01*
X1551134Y-921222D02*
X1560658Y-902174D01*
X1560658Y-902174D02*
X1579705Y-892650D01*
X1579705Y-892650D02*
X1608277Y-892650D01*
X1608277Y-892650D02*
X1627324Y-902174D01*
X1627324Y-902174D02*
X1636848Y-921222D01*
X1636848Y-921222D02*
X1636848Y-1025984D01*
X1732086Y-1025984D02*
X1732086Y-892650D01*
X1732086Y-911698D02*
X1741610Y-902174D01*
X1741610Y-902174D02*
X1760658Y-892650D01*
X1760658Y-892650D02*
X1789229Y-892650D01*
X1789229Y-892650D02*
X1808277Y-902174D01*
X1808277Y-902174D02*
X1817801Y-921222D01*
X1817801Y-921222D02*
X1817801Y-1025984D01*
X1817801Y-921222D02*
X1827324Y-902174D01*
X1827324Y-902174D02*
X1846372Y-892650D01*
X1846372Y-892650D02*
X1874943Y-892650D01*
X1874943Y-892650D02*
X1893991Y-902174D01*
X1893991Y-902174D02*
X1903515Y-921222D01*
X1903515Y-921222D02*
X1903515Y-1025984D01*
X2293991Y-816460D02*
X2122563Y-1073603D01*
X2551134Y-825984D02*
X2570182Y-825984D01*
X2570182Y-825984D02*
X2589229Y-835508D01*
X2589229Y-835508D02*
X2598753Y-845031D01*
X2598753Y-845031D02*
X2608277Y-864079D01*
X2608277Y-864079D02*
X2617801Y-902174D01*
X2617801Y-902174D02*
X2617801Y-949793D01*
X2617801Y-949793D02*
X2608277Y-987888D01*
X2608277Y-987888D02*
X2598753Y-1006936D01*
X2598753Y-1006936D02*
X2589229Y-1016460D01*
X2589229Y-1016460D02*
X2570182Y-1025984D01*
X2570182Y-1025984D02*
X2551134Y-1025984D01*
X2551134Y-1025984D02*
X2532087Y-1016460D01*
X2532087Y-1016460D02*
X2522563Y-1006936D01*
X2522563Y-1006936D02*
X2513039Y-987888D01*
X2513039Y-987888D02*
X2503515Y-949793D01*
X2503515Y-949793D02*
X2503515Y-902174D01*
X2503515Y-902174D02*
X2513039Y-864079D01*
X2513039Y-864079D02*
X2522563Y-845031D01*
X2522563Y-845031D02*
X2532087Y-835508D01*
X2532087Y-835508D02*
X2551134Y-825984D01*
X2703515Y-1006936D02*
X2713039Y-1016460D01*
X2713039Y-1016460D02*
X2703515Y-1025984D01*
X2703515Y-1025984D02*
X2693991Y-1016460D01*
X2693991Y-1016460D02*
X2703515Y-1006936D01*
X2703515Y-1006936D02*
X2703515Y-1025984D01*
X2836848Y-825984D02*
X2855896Y-825984D01*
X2855896Y-825984D02*
X2874944Y-835508D01*
X2874944Y-835508D02*
X2884467Y-845031D01*
X2884467Y-845031D02*
X2893991Y-864079D01*
X2893991Y-864079D02*
X2903515Y-902174D01*
X2903515Y-902174D02*
X2903515Y-949793D01*
X2903515Y-949793D02*
X2893991Y-987888D01*
X2893991Y-987888D02*
X2884467Y-1006936D01*
X2884467Y-1006936D02*
X2874944Y-1016460D01*
X2874944Y-1016460D02*
X2855896Y-1025984D01*
X2855896Y-1025984D02*
X2836848Y-1025984D01*
X2836848Y-1025984D02*
X2817801Y-1016460D01*
X2817801Y-1016460D02*
X2808277Y-1006936D01*
X2808277Y-1006936D02*
X2798753Y-987888D01*
X2798753Y-987888D02*
X2789229Y-949793D01*
X2789229Y-949793D02*
X2789229Y-902174D01*
X2789229Y-902174D02*
X2798753Y-864079D01*
X2798753Y-864079D02*
X2808277Y-845031D01*
X2808277Y-845031D02*
X2817801Y-835508D01*
X2817801Y-835508D02*
X2836848Y-825984D01*
X2970182Y-825984D02*
X3093991Y-825984D01*
X3093991Y-825984D02*
X3027325Y-902174D01*
X3027325Y-902174D02*
X3055896Y-902174D01*
X3055896Y-902174D02*
X3074944Y-911698D01*
X3074944Y-911698D02*
X3084467Y-921222D01*
X3084467Y-921222D02*
X3093991Y-940269D01*
X3093991Y-940269D02*
X3093991Y-987888D01*
X3093991Y-987888D02*
X3084467Y-1006936D01*
X3084467Y-1006936D02*
X3074944Y-1016460D01*
X3074944Y-1016460D02*
X3055896Y-1025984D01*
X3055896Y-1025984D02*
X2998753Y-1025984D01*
X2998753Y-1025984D02*
X2979706Y-1016460D01*
X2979706Y-1016460D02*
X2970182Y-1006936D01*
X3189229Y-1025984D02*
X3227325Y-1025984D01*
X3227325Y-1025984D02*
X3246372Y-1016460D01*
X3246372Y-1016460D02*
X3255896Y-1006936D01*
X3255896Y-1006936D02*
X3274944Y-978365D01*
X3274944Y-978365D02*
X3284467Y-940269D01*
X3284467Y-940269D02*
X3284467Y-864079D01*
X3284467Y-864079D02*
X3274944Y-845031D01*
X3274944Y-845031D02*
X3265420Y-835508D01*
X3265420Y-835508D02*
X3246372Y-825984D01*
X3246372Y-825984D02*
X3208277Y-825984D01*
X3208277Y-825984D02*
X3189229Y-835508D01*
X3189229Y-835508D02*
X3179706Y-845031D01*
X3179706Y-845031D02*
X3170182Y-864079D01*
X3170182Y-864079D02*
X3170182Y-911698D01*
X3170182Y-911698D02*
X3179706Y-930746D01*
X3179706Y-930746D02*
X3189229Y-940269D01*
X3189229Y-940269D02*
X3208277Y-949793D01*
X3208277Y-949793D02*
X3246372Y-949793D01*
X3246372Y-949793D02*
X3265420Y-940269D01*
X3265420Y-940269D02*
X3274944Y-930746D01*
X3274944Y-930746D02*
X3284467Y-911698D01*
X3455896Y-892650D02*
X3455896Y-1025984D01*
X3408277Y-816460D02*
X3360658Y-959317D01*
X3360658Y-959317D02*
X3484467Y-959317D01*
X3551134Y-825984D02*
X3551134Y-864079D01*
X3627325Y-825984D02*
X3627325Y-864079D01*
X3922563Y-1102174D02*
X3913039Y-1092650D01*
X3913039Y-1092650D02*
X3893991Y-1064079D01*
X3893991Y-1064079D02*
X3884468Y-1045031D01*
X3884468Y-1045031D02*
X3874944Y-1016460D01*
X3874944Y-1016460D02*
X3865420Y-968841D01*
X3865420Y-968841D02*
X3865420Y-930746D01*
X3865420Y-930746D02*
X3874944Y-883127D01*
X3874944Y-883127D02*
X3884468Y-854555D01*
X3884468Y-854555D02*
X3893991Y-835508D01*
X3893991Y-835508D02*
X3913039Y-806936D01*
X3913039Y-806936D02*
X3922563Y-797412D01*
X3979706Y-825984D02*
X4113039Y-825984D01*
X4113039Y-825984D02*
X4027325Y-1025984D01*
X4293991Y-1025984D02*
X4179706Y-1025984D01*
X4236849Y-1025984D02*
X4236849Y-825984D01*
X4236849Y-825984D02*
X4217801Y-854555D01*
X4217801Y-854555D02*
X4198753Y-873603D01*
X4198753Y-873603D02*
X4179706Y-883127D01*
X4532087Y-1025984D02*
X4532087Y-825984D01*
X4617801Y-1025984D02*
X4617801Y-921222D01*
X4617801Y-921222D02*
X4608277Y-902174D01*
X4608277Y-902174D02*
X4589230Y-892650D01*
X4589230Y-892650D02*
X4560658Y-892650D01*
X4560658Y-892650D02*
X4541611Y-902174D01*
X4541611Y-902174D02*
X4532087Y-911698D01*
X4741611Y-1025984D02*
X4722563Y-1016460D01*
X4722563Y-1016460D02*
X4713039Y-1006936D01*
X4713039Y-1006936D02*
X4703515Y-987888D01*
X4703515Y-987888D02*
X4703515Y-930746D01*
X4703515Y-930746D02*
X4713039Y-911698D01*
X4713039Y-911698D02*
X4722563Y-902174D01*
X4722563Y-902174D02*
X4741611Y-892650D01*
X4741611Y-892650D02*
X4770182Y-892650D01*
X4770182Y-892650D02*
X4789230Y-902174D01*
X4789230Y-902174D02*
X4798753Y-911698D01*
X4798753Y-911698D02*
X4808277Y-930746D01*
X4808277Y-930746D02*
X4808277Y-987888D01*
X4808277Y-987888D02*
X4798753Y-1006936D01*
X4798753Y-1006936D02*
X4789230Y-1016460D01*
X4789230Y-1016460D02*
X4770182Y-1025984D01*
X4770182Y-1025984D02*
X4741611Y-1025984D01*
X4922563Y-1025984D02*
X4903515Y-1016460D01*
X4903515Y-1016460D02*
X4893992Y-997412D01*
X4893992Y-997412D02*
X4893992Y-825984D01*
X5074944Y-1016460D02*
X5055896Y-1025984D01*
X5055896Y-1025984D02*
X5017801Y-1025984D01*
X5017801Y-1025984D02*
X4998753Y-1016460D01*
X4998753Y-1016460D02*
X4989230Y-997412D01*
X4989230Y-997412D02*
X4989230Y-921222D01*
X4989230Y-921222D02*
X4998753Y-902174D01*
X4998753Y-902174D02*
X5017801Y-892650D01*
X5017801Y-892650D02*
X5055896Y-892650D01*
X5055896Y-892650D02*
X5074944Y-902174D01*
X5074944Y-902174D02*
X5084468Y-921222D01*
X5084468Y-921222D02*
X5084468Y-940269D01*
X5084468Y-940269D02*
X4989230Y-959317D01*
X5160658Y-1016460D02*
X5179706Y-1025984D01*
X5179706Y-1025984D02*
X5217801Y-1025984D01*
X5217801Y-1025984D02*
X5236849Y-1016460D01*
X5236849Y-1016460D02*
X5246373Y-997412D01*
X5246373Y-997412D02*
X5246373Y-987888D01*
X5246373Y-987888D02*
X5236849Y-968841D01*
X5236849Y-968841D02*
X5217801Y-959317D01*
X5217801Y-959317D02*
X5189230Y-959317D01*
X5189230Y-959317D02*
X5170182Y-949793D01*
X5170182Y-949793D02*
X5160658Y-930746D01*
X5160658Y-930746D02*
X5160658Y-921222D01*
X5160658Y-921222D02*
X5170182Y-902174D01*
X5170182Y-902174D02*
X5189230Y-892650D01*
X5189230Y-892650D02*
X5217801Y-892650D01*
X5217801Y-892650D02*
X5236849Y-902174D01*
X5313039Y-1102174D02*
X5322563Y-1092650D01*
X5322563Y-1092650D02*
X5341611Y-1064079D01*
X5341611Y-1064079D02*
X5351134Y-1045031D01*
X5351134Y-1045031D02*
X5360658Y-1016460D01*
X5360658Y-1016460D02*
X5370182Y-968841D01*
X5370182Y-968841D02*
X5370182Y-930746D01*
X5370182Y-930746D02*
X5360658Y-883127D01*
X5360658Y-883127D02*
X5351134Y-854555D01*
X5351134Y-854555D02*
X5341611Y-835508D01*
X5341611Y-835508D02*
X5322563Y-806936D01*
X5322563Y-806936D02*
X5313039Y-797412D01*
D12*
X297500Y-1248500D02*
X347500Y-1198500D01*
X297500Y-1148500D01*
X247500Y-1198500D01*
X297500Y-1248500D01*
D11*
X713039Y-1289984D02*
X598753Y-1289984D01*
X655896Y-1289984D02*
X655896Y-1089984D01*
X655896Y-1089984D02*
X636848Y-1118555D01*
X636848Y-1118555D02*
X617801Y-1137603D01*
X617801Y-1137603D02*
X598753Y-1147127D01*
X798753Y-1270936D02*
X808277Y-1280460D01*
X808277Y-1280460D02*
X798753Y-1289984D01*
X798753Y-1289984D02*
X789229Y-1280460D01*
X789229Y-1280460D02*
X798753Y-1270936D01*
X798753Y-1270936D02*
X798753Y-1289984D01*
X932086Y-1089984D02*
X951134Y-1089984D01*
X951134Y-1089984D02*
X970182Y-1099508D01*
X970182Y-1099508D02*
X979705Y-1109031D01*
X979705Y-1109031D02*
X989229Y-1128079D01*
X989229Y-1128079D02*
X998753Y-1166174D01*
X998753Y-1166174D02*
X998753Y-1213793D01*
X998753Y-1213793D02*
X989229Y-1251889D01*
X989229Y-1251889D02*
X979705Y-1270936D01*
X979705Y-1270936D02*
X970182Y-1280460D01*
X970182Y-1280460D02*
X951134Y-1289984D01*
X951134Y-1289984D02*
X932086Y-1289984D01*
X932086Y-1289984D02*
X913039Y-1280460D01*
X913039Y-1280460D02*
X903515Y-1270936D01*
X903515Y-1270936D02*
X893991Y-1251889D01*
X893991Y-1251889D02*
X884467Y-1213793D01*
X884467Y-1213793D02*
X884467Y-1166174D01*
X884467Y-1166174D02*
X893991Y-1128079D01*
X893991Y-1128079D02*
X903515Y-1109031D01*
X903515Y-1109031D02*
X913039Y-1099508D01*
X913039Y-1099508D02*
X932086Y-1089984D01*
X1122563Y-1089984D02*
X1141610Y-1089984D01*
X1141610Y-1089984D02*
X1160658Y-1099508D01*
X1160658Y-1099508D02*
X1170182Y-1109031D01*
X1170182Y-1109031D02*
X1179705Y-1128079D01*
X1179705Y-1128079D02*
X1189229Y-1166174D01*
X1189229Y-1166174D02*
X1189229Y-1213793D01*
X1189229Y-1213793D02*
X1179705Y-1251889D01*
X1179705Y-1251889D02*
X1170182Y-1270936D01*
X1170182Y-1270936D02*
X1160658Y-1280460D01*
X1160658Y-1280460D02*
X1141610Y-1289984D01*
X1141610Y-1289984D02*
X1122563Y-1289984D01*
X1122563Y-1289984D02*
X1103515Y-1280460D01*
X1103515Y-1280460D02*
X1093991Y-1270936D01*
X1093991Y-1270936D02*
X1084467Y-1251889D01*
X1084467Y-1251889D02*
X1074944Y-1213793D01*
X1074944Y-1213793D02*
X1074944Y-1166174D01*
X1074944Y-1166174D02*
X1084467Y-1128079D01*
X1084467Y-1128079D02*
X1093991Y-1109031D01*
X1093991Y-1109031D02*
X1103515Y-1099508D01*
X1103515Y-1099508D02*
X1122563Y-1089984D01*
X1313039Y-1089984D02*
X1332086Y-1089984D01*
X1332086Y-1089984D02*
X1351134Y-1099508D01*
X1351134Y-1099508D02*
X1360658Y-1109031D01*
X1360658Y-1109031D02*
X1370182Y-1128079D01*
X1370182Y-1128079D02*
X1379705Y-1166174D01*
X1379705Y-1166174D02*
X1379705Y-1213793D01*
X1379705Y-1213793D02*
X1370182Y-1251889D01*
X1370182Y-1251889D02*
X1360658Y-1270936D01*
X1360658Y-1270936D02*
X1351134Y-1280460D01*
X1351134Y-1280460D02*
X1332086Y-1289984D01*
X1332086Y-1289984D02*
X1313039Y-1289984D01*
X1313039Y-1289984D02*
X1293991Y-1280460D01*
X1293991Y-1280460D02*
X1284467Y-1270936D01*
X1284467Y-1270936D02*
X1274944Y-1251889D01*
X1274944Y-1251889D02*
X1265420Y-1213793D01*
X1265420Y-1213793D02*
X1265420Y-1166174D01*
X1265420Y-1166174D02*
X1274944Y-1128079D01*
X1274944Y-1128079D02*
X1284467Y-1109031D01*
X1284467Y-1109031D02*
X1293991Y-1099508D01*
X1293991Y-1099508D02*
X1313039Y-1089984D01*
X1465420Y-1289984D02*
X1465420Y-1156650D01*
X1465420Y-1175698D02*
X1474943Y-1166174D01*
X1474943Y-1166174D02*
X1493991Y-1156650D01*
X1493991Y-1156650D02*
X1522563Y-1156650D01*
X1522563Y-1156650D02*
X1541610Y-1166174D01*
X1541610Y-1166174D02*
X1551134Y-1185222D01*
X1551134Y-1185222D02*
X1551134Y-1289984D01*
X1551134Y-1185222D02*
X1560658Y-1166174D01*
X1560658Y-1166174D02*
X1579705Y-1156650D01*
X1579705Y-1156650D02*
X1608277Y-1156650D01*
X1608277Y-1156650D02*
X1627324Y-1166174D01*
X1627324Y-1166174D02*
X1636848Y-1185222D01*
X1636848Y-1185222D02*
X1636848Y-1289984D01*
X1732086Y-1289984D02*
X1732086Y-1156650D01*
X1732086Y-1175698D02*
X1741610Y-1166174D01*
X1741610Y-1166174D02*
X1760658Y-1156650D01*
X1760658Y-1156650D02*
X1789229Y-1156650D01*
X1789229Y-1156650D02*
X1808277Y-1166174D01*
X1808277Y-1166174D02*
X1817801Y-1185222D01*
X1817801Y-1185222D02*
X1817801Y-1289984D01*
X1817801Y-1185222D02*
X1827324Y-1166174D01*
X1827324Y-1166174D02*
X1846372Y-1156650D01*
X1846372Y-1156650D02*
X1874943Y-1156650D01*
X1874943Y-1156650D02*
X1893991Y-1166174D01*
X1893991Y-1166174D02*
X1903515Y-1185222D01*
X1903515Y-1185222D02*
X1903515Y-1289984D01*
X2293991Y-1080460D02*
X2122563Y-1337603D01*
X2551134Y-1089984D02*
X2570182Y-1089984D01*
X2570182Y-1089984D02*
X2589229Y-1099508D01*
X2589229Y-1099508D02*
X2598753Y-1109031D01*
X2598753Y-1109031D02*
X2608277Y-1128079D01*
X2608277Y-1128079D02*
X2617801Y-1166174D01*
X2617801Y-1166174D02*
X2617801Y-1213793D01*
X2617801Y-1213793D02*
X2608277Y-1251889D01*
X2608277Y-1251889D02*
X2598753Y-1270936D01*
X2598753Y-1270936D02*
X2589229Y-1280460D01*
X2589229Y-1280460D02*
X2570182Y-1289984D01*
X2570182Y-1289984D02*
X2551134Y-1289984D01*
X2551134Y-1289984D02*
X2532087Y-1280460D01*
X2532087Y-1280460D02*
X2522563Y-1270936D01*
X2522563Y-1270936D02*
X2513039Y-1251889D01*
X2513039Y-1251889D02*
X2503515Y-1213793D01*
X2503515Y-1213793D02*
X2503515Y-1166174D01*
X2503515Y-1166174D02*
X2513039Y-1128079D01*
X2513039Y-1128079D02*
X2522563Y-1109031D01*
X2522563Y-1109031D02*
X2532087Y-1099508D01*
X2532087Y-1099508D02*
X2551134Y-1089984D01*
X2703515Y-1270936D02*
X2713039Y-1280460D01*
X2713039Y-1280460D02*
X2703515Y-1289984D01*
X2703515Y-1289984D02*
X2693991Y-1280460D01*
X2693991Y-1280460D02*
X2703515Y-1270936D01*
X2703515Y-1270936D02*
X2703515Y-1289984D01*
X2836848Y-1089984D02*
X2855896Y-1089984D01*
X2855896Y-1089984D02*
X2874944Y-1099508D01*
X2874944Y-1099508D02*
X2884467Y-1109031D01*
X2884467Y-1109031D02*
X2893991Y-1128079D01*
X2893991Y-1128079D02*
X2903515Y-1166174D01*
X2903515Y-1166174D02*
X2903515Y-1213793D01*
X2903515Y-1213793D02*
X2893991Y-1251889D01*
X2893991Y-1251889D02*
X2884467Y-1270936D01*
X2884467Y-1270936D02*
X2874944Y-1280460D01*
X2874944Y-1280460D02*
X2855896Y-1289984D01*
X2855896Y-1289984D02*
X2836848Y-1289984D01*
X2836848Y-1289984D02*
X2817801Y-1280460D01*
X2817801Y-1280460D02*
X2808277Y-1270936D01*
X2808277Y-1270936D02*
X2798753Y-1251889D01*
X2798753Y-1251889D02*
X2789229Y-1213793D01*
X2789229Y-1213793D02*
X2789229Y-1166174D01*
X2789229Y-1166174D02*
X2798753Y-1128079D01*
X2798753Y-1128079D02*
X2808277Y-1109031D01*
X2808277Y-1109031D02*
X2817801Y-1099508D01*
X2817801Y-1099508D02*
X2836848Y-1089984D01*
X2970182Y-1089984D02*
X3093991Y-1089984D01*
X3093991Y-1089984D02*
X3027325Y-1166174D01*
X3027325Y-1166174D02*
X3055896Y-1166174D01*
X3055896Y-1166174D02*
X3074944Y-1175698D01*
X3074944Y-1175698D02*
X3084467Y-1185222D01*
X3084467Y-1185222D02*
X3093991Y-1204270D01*
X3093991Y-1204270D02*
X3093991Y-1251889D01*
X3093991Y-1251889D02*
X3084467Y-1270936D01*
X3084467Y-1270936D02*
X3074944Y-1280460D01*
X3074944Y-1280460D02*
X3055896Y-1289984D01*
X3055896Y-1289984D02*
X2998753Y-1289984D01*
X2998753Y-1289984D02*
X2979706Y-1280460D01*
X2979706Y-1280460D02*
X2970182Y-1270936D01*
X3189229Y-1289984D02*
X3227325Y-1289984D01*
X3227325Y-1289984D02*
X3246372Y-1280460D01*
X3246372Y-1280460D02*
X3255896Y-1270936D01*
X3255896Y-1270936D02*
X3274944Y-1242365D01*
X3274944Y-1242365D02*
X3284467Y-1204270D01*
X3284467Y-1204270D02*
X3284467Y-1128079D01*
X3284467Y-1128079D02*
X3274944Y-1109031D01*
X3274944Y-1109031D02*
X3265420Y-1099508D01*
X3265420Y-1099508D02*
X3246372Y-1089984D01*
X3246372Y-1089984D02*
X3208277Y-1089984D01*
X3208277Y-1089984D02*
X3189229Y-1099508D01*
X3189229Y-1099508D02*
X3179706Y-1109031D01*
X3179706Y-1109031D02*
X3170182Y-1128079D01*
X3170182Y-1128079D02*
X3170182Y-1175698D01*
X3170182Y-1175698D02*
X3179706Y-1194746D01*
X3179706Y-1194746D02*
X3189229Y-1204270D01*
X3189229Y-1204270D02*
X3208277Y-1213793D01*
X3208277Y-1213793D02*
X3246372Y-1213793D01*
X3246372Y-1213793D02*
X3265420Y-1204270D01*
X3265420Y-1204270D02*
X3274944Y-1194746D01*
X3274944Y-1194746D02*
X3284467Y-1175698D01*
X3455896Y-1156650D02*
X3455896Y-1289984D01*
X3408277Y-1080460D02*
X3360658Y-1223317D01*
X3360658Y-1223317D02*
X3484467Y-1223317D01*
X3551134Y-1089984D02*
X3551134Y-1128079D01*
X3627325Y-1089984D02*
X3627325Y-1128079D01*
X3922563Y-1366174D02*
X3913039Y-1356650D01*
X3913039Y-1356650D02*
X3893991Y-1328079D01*
X3893991Y-1328079D02*
X3884468Y-1309031D01*
X3884468Y-1309031D02*
X3874944Y-1280460D01*
X3874944Y-1280460D02*
X3865420Y-1232841D01*
X3865420Y-1232841D02*
X3865420Y-1194746D01*
X3865420Y-1194746D02*
X3874944Y-1147127D01*
X3874944Y-1147127D02*
X3884468Y-1118555D01*
X3884468Y-1118555D02*
X3893991Y-1099508D01*
X3893991Y-1099508D02*
X3913039Y-1070936D01*
X3913039Y-1070936D02*
X3922563Y-1061412D01*
X3989229Y-1109031D02*
X3998753Y-1099508D01*
X3998753Y-1099508D02*
X4017801Y-1089984D01*
X4017801Y-1089984D02*
X4065420Y-1089984D01*
X4065420Y-1089984D02*
X4084468Y-1099508D01*
X4084468Y-1099508D02*
X4093991Y-1109031D01*
X4093991Y-1109031D02*
X4103515Y-1128079D01*
X4103515Y-1128079D02*
X4103515Y-1147127D01*
X4103515Y-1147127D02*
X4093991Y-1175698D01*
X4093991Y-1175698D02*
X3979706Y-1289984D01*
X3979706Y-1289984D02*
X4103515Y-1289984D01*
X4227325Y-1089984D02*
X4246372Y-1089984D01*
X4246372Y-1089984D02*
X4265420Y-1099508D01*
X4265420Y-1099508D02*
X4274944Y-1109031D01*
X4274944Y-1109031D02*
X4284468Y-1128079D01*
X4284468Y-1128079D02*
X4293991Y-1166174D01*
X4293991Y-1166174D02*
X4293991Y-1213793D01*
X4293991Y-1213793D02*
X4284468Y-1251889D01*
X4284468Y-1251889D02*
X4274944Y-1270936D01*
X4274944Y-1270936D02*
X4265420Y-1280460D01*
X4265420Y-1280460D02*
X4246372Y-1289984D01*
X4246372Y-1289984D02*
X4227325Y-1289984D01*
X4227325Y-1289984D02*
X4208277Y-1280460D01*
X4208277Y-1280460D02*
X4198753Y-1270936D01*
X4198753Y-1270936D02*
X4189229Y-1251889D01*
X4189229Y-1251889D02*
X4179706Y-1213793D01*
X4179706Y-1213793D02*
X4179706Y-1166174D01*
X4179706Y-1166174D02*
X4189229Y-1128079D01*
X4189229Y-1128079D02*
X4198753Y-1109031D01*
X4198753Y-1109031D02*
X4208277Y-1099508D01*
X4208277Y-1099508D02*
X4227325Y-1089984D01*
X4484468Y-1289984D02*
X4370182Y-1289984D01*
X4427325Y-1289984D02*
X4427325Y-1089984D01*
X4427325Y-1089984D02*
X4408277Y-1118555D01*
X4408277Y-1118555D02*
X4389230Y-1137603D01*
X4389230Y-1137603D02*
X4370182Y-1147127D01*
X4722563Y-1289984D02*
X4722563Y-1089984D01*
X4808277Y-1289984D02*
X4808277Y-1185222D01*
X4808277Y-1185222D02*
X4798753Y-1166174D01*
X4798753Y-1166174D02*
X4779706Y-1156650D01*
X4779706Y-1156650D02*
X4751134Y-1156650D01*
X4751134Y-1156650D02*
X4732087Y-1166174D01*
X4732087Y-1166174D02*
X4722563Y-1175698D01*
X4932087Y-1289984D02*
X4913039Y-1280460D01*
X4913039Y-1280460D02*
X4903515Y-1270936D01*
X4903515Y-1270936D02*
X4893992Y-1251889D01*
X4893992Y-1251889D02*
X4893992Y-1194746D01*
X4893992Y-1194746D02*
X4903515Y-1175698D01*
X4903515Y-1175698D02*
X4913039Y-1166174D01*
X4913039Y-1166174D02*
X4932087Y-1156650D01*
X4932087Y-1156650D02*
X4960658Y-1156650D01*
X4960658Y-1156650D02*
X4979706Y-1166174D01*
X4979706Y-1166174D02*
X4989230Y-1175698D01*
X4989230Y-1175698D02*
X4998753Y-1194746D01*
X4998753Y-1194746D02*
X4998753Y-1251889D01*
X4998753Y-1251889D02*
X4989230Y-1270936D01*
X4989230Y-1270936D02*
X4979706Y-1280460D01*
X4979706Y-1280460D02*
X4960658Y-1289984D01*
X4960658Y-1289984D02*
X4932087Y-1289984D01*
X5113039Y-1289984D02*
X5093992Y-1280460D01*
X5093992Y-1280460D02*
X5084468Y-1261412D01*
X5084468Y-1261412D02*
X5084468Y-1089984D01*
X5265420Y-1280460D02*
X5246373Y-1289984D01*
X5246373Y-1289984D02*
X5208277Y-1289984D01*
X5208277Y-1289984D02*
X5189230Y-1280460D01*
X5189230Y-1280460D02*
X5179706Y-1261412D01*
X5179706Y-1261412D02*
X5179706Y-1185222D01*
X5179706Y-1185222D02*
X5189230Y-1166174D01*
X5189230Y-1166174D02*
X5208277Y-1156650D01*
X5208277Y-1156650D02*
X5246373Y-1156650D01*
X5246373Y-1156650D02*
X5265420Y-1166174D01*
X5265420Y-1166174D02*
X5274944Y-1185222D01*
X5274944Y-1185222D02*
X5274944Y-1204270D01*
X5274944Y-1204270D02*
X5179706Y-1223317D01*
X5351134Y-1280460D02*
X5370182Y-1289984D01*
X5370182Y-1289984D02*
X5408277Y-1289984D01*
X5408277Y-1289984D02*
X5427325Y-1280460D01*
X5427325Y-1280460D02*
X5436849Y-1261412D01*
X5436849Y-1261412D02*
X5436849Y-1251889D01*
X5436849Y-1251889D02*
X5427325Y-1232841D01*
X5427325Y-1232841D02*
X5408277Y-1223317D01*
X5408277Y-1223317D02*
X5379706Y-1223317D01*
X5379706Y-1223317D02*
X5360658Y-1213793D01*
X5360658Y-1213793D02*
X5351134Y-1194746D01*
X5351134Y-1194746D02*
X5351134Y-1185222D01*
X5351134Y-1185222D02*
X5360658Y-1166174D01*
X5360658Y-1166174D02*
X5379706Y-1156650D01*
X5379706Y-1156650D02*
X5408277Y-1156650D01*
X5408277Y-1156650D02*
X5427325Y-1166174D01*
X5674944Y-1213793D02*
X5827325Y-1213793D01*
X5751134Y-1289984D02*
X5751134Y-1137603D01*
X6055896Y-1089984D02*
X6179706Y-1089984D01*
X6179706Y-1089984D02*
X6113039Y-1166174D01*
X6113039Y-1166174D02*
X6141611Y-1166174D01*
X6141611Y-1166174D02*
X6160658Y-1175698D01*
X6160658Y-1175698D02*
X6170182Y-1185222D01*
X6170182Y-1185222D02*
X6179706Y-1204270D01*
X6179706Y-1204270D02*
X6179706Y-1251889D01*
X6179706Y-1251889D02*
X6170182Y-1270936D01*
X6170182Y-1270936D02*
X6160658Y-1280460D01*
X6160658Y-1280460D02*
X6141611Y-1289984D01*
X6141611Y-1289984D02*
X6084468Y-1289984D01*
X6084468Y-1289984D02*
X6065420Y-1280460D01*
X6065420Y-1280460D02*
X6055896Y-1270936D01*
X6408277Y-1280460D02*
X6427325Y-1289984D01*
X6427325Y-1289984D02*
X6465420Y-1289984D01*
X6465420Y-1289984D02*
X6484468Y-1280460D01*
X6484468Y-1280460D02*
X6493992Y-1261412D01*
X6493992Y-1261412D02*
X6493992Y-1251889D01*
X6493992Y-1251889D02*
X6484468Y-1232841D01*
X6484468Y-1232841D02*
X6465420Y-1223317D01*
X6465420Y-1223317D02*
X6436849Y-1223317D01*
X6436849Y-1223317D02*
X6417801Y-1213793D01*
X6417801Y-1213793D02*
X6408277Y-1194746D01*
X6408277Y-1194746D02*
X6408277Y-1185222D01*
X6408277Y-1185222D02*
X6417801Y-1166174D01*
X6417801Y-1166174D02*
X6436849Y-1156650D01*
X6436849Y-1156650D02*
X6465420Y-1156650D01*
X6465420Y-1156650D02*
X6484468Y-1166174D01*
X6608277Y-1289984D02*
X6589230Y-1280460D01*
X6589230Y-1280460D02*
X6579706Y-1261412D01*
X6579706Y-1261412D02*
X6579706Y-1089984D01*
X6713039Y-1289984D02*
X6693992Y-1280460D01*
X6693992Y-1280460D02*
X6684468Y-1270936D01*
X6684468Y-1270936D02*
X6674944Y-1251889D01*
X6674944Y-1251889D02*
X6674944Y-1194746D01*
X6674944Y-1194746D02*
X6684468Y-1175698D01*
X6684468Y-1175698D02*
X6693992Y-1166174D01*
X6693992Y-1166174D02*
X6713039Y-1156650D01*
X6713039Y-1156650D02*
X6741611Y-1156650D01*
X6741611Y-1156650D02*
X6760658Y-1166174D01*
X6760658Y-1166174D02*
X6770182Y-1175698D01*
X6770182Y-1175698D02*
X6779706Y-1194746D01*
X6779706Y-1194746D02*
X6779706Y-1251889D01*
X6779706Y-1251889D02*
X6770182Y-1270936D01*
X6770182Y-1270936D02*
X6760658Y-1280460D01*
X6760658Y-1280460D02*
X6741611Y-1289984D01*
X6741611Y-1289984D02*
X6713039Y-1289984D01*
X6836849Y-1156650D02*
X6913039Y-1156650D01*
X6865420Y-1089984D02*
X6865420Y-1261412D01*
X6865420Y-1261412D02*
X6874944Y-1280460D01*
X6874944Y-1280460D02*
X6893992Y-1289984D01*
X6893992Y-1289984D02*
X6913039Y-1289984D01*
X6970182Y-1280460D02*
X6989230Y-1289984D01*
X6989230Y-1289984D02*
X7027325Y-1289984D01*
X7027325Y-1289984D02*
X7046373Y-1280460D01*
X7046373Y-1280460D02*
X7055896Y-1261412D01*
X7055896Y-1261412D02*
X7055896Y-1251889D01*
X7055896Y-1251889D02*
X7046373Y-1232841D01*
X7046373Y-1232841D02*
X7027325Y-1223317D01*
X7027325Y-1223317D02*
X6998754Y-1223317D01*
X6998754Y-1223317D02*
X6979706Y-1213793D01*
X6979706Y-1213793D02*
X6970182Y-1194746D01*
X6970182Y-1194746D02*
X6970182Y-1185222D01*
X6970182Y-1185222D02*
X6979706Y-1166174D01*
X6979706Y-1166174D02*
X6998754Y-1156650D01*
X6998754Y-1156650D02*
X7027325Y-1156650D01*
X7027325Y-1156650D02*
X7046373Y-1166174D01*
X7122563Y-1366174D02*
X7132087Y-1356650D01*
X7132087Y-1356650D02*
X7151135Y-1328079D01*
X7151135Y-1328079D02*
X7160658Y-1309031D01*
X7160658Y-1309031D02*
X7170182Y-1280460D01*
X7170182Y-1280460D02*
X7179706Y-1232841D01*
X7179706Y-1232841D02*
X7179706Y-1194746D01*
X7179706Y-1194746D02*
X7170182Y-1147127D01*
X7170182Y-1147127D02*
X7160658Y-1118555D01*
X7160658Y-1118555D02*
X7151135Y-1099508D01*
X7151135Y-1099508D02*
X7132087Y-1070936D01*
X7132087Y-1070936D02*
X7122563Y-1061412D01*
D13*
X237500Y-1407500D02*
X347500Y-1517500D01*
X347500Y-1407500D02*
X237500Y-1517500D01*
X347500Y-1462500D02*
G75*
G02*
X237500Y-1462500I-55000J0D01*
G01*
X237500Y-1462500D02*
G75*
G02*
X347500Y-1462500I55000J0D01*
G01*
D11*
X713039Y-1553984D02*
X598753Y-1553984D01*
X655896Y-1553984D02*
X655896Y-1353984D01*
X655896Y-1353984D02*
X636848Y-1382555D01*
X636848Y-1382555D02*
X617801Y-1401603D01*
X617801Y-1401603D02*
X598753Y-1411127D01*
X798753Y-1534936D02*
X808277Y-1544460D01*
X808277Y-1544460D02*
X798753Y-1553984D01*
X798753Y-1553984D02*
X789229Y-1544460D01*
X789229Y-1544460D02*
X798753Y-1534936D01*
X798753Y-1534936D02*
X798753Y-1553984D01*
X998753Y-1553984D02*
X884467Y-1553984D01*
X941610Y-1553984D02*
X941610Y-1353984D01*
X941610Y-1353984D02*
X922562Y-1382555D01*
X922562Y-1382555D02*
X903515Y-1401603D01*
X903515Y-1401603D02*
X884467Y-1411127D01*
X1122563Y-1353984D02*
X1141610Y-1353984D01*
X1141610Y-1353984D02*
X1160658Y-1363508D01*
X1160658Y-1363508D02*
X1170182Y-1373031D01*
X1170182Y-1373031D02*
X1179705Y-1392079D01*
X1179705Y-1392079D02*
X1189229Y-1430174D01*
X1189229Y-1430174D02*
X1189229Y-1477793D01*
X1189229Y-1477793D02*
X1179705Y-1515888D01*
X1179705Y-1515888D02*
X1170182Y-1534936D01*
X1170182Y-1534936D02*
X1160658Y-1544460D01*
X1160658Y-1544460D02*
X1141610Y-1553984D01*
X1141610Y-1553984D02*
X1122563Y-1553984D01*
X1122563Y-1553984D02*
X1103515Y-1544460D01*
X1103515Y-1544460D02*
X1093991Y-1534936D01*
X1093991Y-1534936D02*
X1084467Y-1515888D01*
X1084467Y-1515888D02*
X1074944Y-1477793D01*
X1074944Y-1477793D02*
X1074944Y-1430174D01*
X1074944Y-1430174D02*
X1084467Y-1392079D01*
X1084467Y-1392079D02*
X1093991Y-1373031D01*
X1093991Y-1373031D02*
X1103515Y-1363508D01*
X1103515Y-1363508D02*
X1122563Y-1353984D01*
X1313039Y-1353984D02*
X1332086Y-1353984D01*
X1332086Y-1353984D02*
X1351134Y-1363508D01*
X1351134Y-1363508D02*
X1360658Y-1373031D01*
X1360658Y-1373031D02*
X1370182Y-1392079D01*
X1370182Y-1392079D02*
X1379705Y-1430174D01*
X1379705Y-1430174D02*
X1379705Y-1477793D01*
X1379705Y-1477793D02*
X1370182Y-1515888D01*
X1370182Y-1515888D02*
X1360658Y-1534936D01*
X1360658Y-1534936D02*
X1351134Y-1544460D01*
X1351134Y-1544460D02*
X1332086Y-1553984D01*
X1332086Y-1553984D02*
X1313039Y-1553984D01*
X1313039Y-1553984D02*
X1293991Y-1544460D01*
X1293991Y-1544460D02*
X1284467Y-1534936D01*
X1284467Y-1534936D02*
X1274944Y-1515888D01*
X1274944Y-1515888D02*
X1265420Y-1477793D01*
X1265420Y-1477793D02*
X1265420Y-1430174D01*
X1265420Y-1430174D02*
X1274944Y-1392079D01*
X1274944Y-1392079D02*
X1284467Y-1373031D01*
X1284467Y-1373031D02*
X1293991Y-1363508D01*
X1293991Y-1363508D02*
X1313039Y-1353984D01*
X1465420Y-1553984D02*
X1465420Y-1420650D01*
X1465420Y-1439698D02*
X1474943Y-1430174D01*
X1474943Y-1430174D02*
X1493991Y-1420650D01*
X1493991Y-1420650D02*
X1522563Y-1420650D01*
X1522563Y-1420650D02*
X1541610Y-1430174D01*
X1541610Y-1430174D02*
X1551134Y-1449222D01*
X1551134Y-1449222D02*
X1551134Y-1553984D01*
X1551134Y-1449222D02*
X1560658Y-1430174D01*
X1560658Y-1430174D02*
X1579705Y-1420650D01*
X1579705Y-1420650D02*
X1608277Y-1420650D01*
X1608277Y-1420650D02*
X1627324Y-1430174D01*
X1627324Y-1430174D02*
X1636848Y-1449222D01*
X1636848Y-1449222D02*
X1636848Y-1553984D01*
X1732086Y-1553984D02*
X1732086Y-1420650D01*
X1732086Y-1439698D02*
X1741610Y-1430174D01*
X1741610Y-1430174D02*
X1760658Y-1420650D01*
X1760658Y-1420650D02*
X1789229Y-1420650D01*
X1789229Y-1420650D02*
X1808277Y-1430174D01*
X1808277Y-1430174D02*
X1817801Y-1449222D01*
X1817801Y-1449222D02*
X1817801Y-1553984D01*
X1817801Y-1449222D02*
X1827324Y-1430174D01*
X1827324Y-1430174D02*
X1846372Y-1420650D01*
X1846372Y-1420650D02*
X1874943Y-1420650D01*
X1874943Y-1420650D02*
X1893991Y-1430174D01*
X1893991Y-1430174D02*
X1903515Y-1449222D01*
X1903515Y-1449222D02*
X1903515Y-1553984D01*
X2293991Y-1344460D02*
X2122563Y-1601603D01*
X2551134Y-1353984D02*
X2570182Y-1353984D01*
X2570182Y-1353984D02*
X2589229Y-1363508D01*
X2589229Y-1363508D02*
X2598753Y-1373031D01*
X2598753Y-1373031D02*
X2608277Y-1392079D01*
X2608277Y-1392079D02*
X2617801Y-1430174D01*
X2617801Y-1430174D02*
X2617801Y-1477793D01*
X2617801Y-1477793D02*
X2608277Y-1515888D01*
X2608277Y-1515888D02*
X2598753Y-1534936D01*
X2598753Y-1534936D02*
X2589229Y-1544460D01*
X2589229Y-1544460D02*
X2570182Y-1553984D01*
X2570182Y-1553984D02*
X2551134Y-1553984D01*
X2551134Y-1553984D02*
X2532087Y-1544460D01*
X2532087Y-1544460D02*
X2522563Y-1534936D01*
X2522563Y-1534936D02*
X2513039Y-1515888D01*
X2513039Y-1515888D02*
X2503515Y-1477793D01*
X2503515Y-1477793D02*
X2503515Y-1430174D01*
X2503515Y-1430174D02*
X2513039Y-1392079D01*
X2513039Y-1392079D02*
X2522563Y-1373031D01*
X2522563Y-1373031D02*
X2532087Y-1363508D01*
X2532087Y-1363508D02*
X2551134Y-1353984D01*
X2703515Y-1534936D02*
X2713039Y-1544460D01*
X2713039Y-1544460D02*
X2703515Y-1553984D01*
X2703515Y-1553984D02*
X2693991Y-1544460D01*
X2693991Y-1544460D02*
X2703515Y-1534936D01*
X2703515Y-1534936D02*
X2703515Y-1553984D01*
X2836848Y-1353984D02*
X2855896Y-1353984D01*
X2855896Y-1353984D02*
X2874944Y-1363508D01*
X2874944Y-1363508D02*
X2884467Y-1373031D01*
X2884467Y-1373031D02*
X2893991Y-1392079D01*
X2893991Y-1392079D02*
X2903515Y-1430174D01*
X2903515Y-1430174D02*
X2903515Y-1477793D01*
X2903515Y-1477793D02*
X2893991Y-1515888D01*
X2893991Y-1515888D02*
X2884467Y-1534936D01*
X2884467Y-1534936D02*
X2874944Y-1544460D01*
X2874944Y-1544460D02*
X2855896Y-1553984D01*
X2855896Y-1553984D02*
X2836848Y-1553984D01*
X2836848Y-1553984D02*
X2817801Y-1544460D01*
X2817801Y-1544460D02*
X2808277Y-1534936D01*
X2808277Y-1534936D02*
X2798753Y-1515888D01*
X2798753Y-1515888D02*
X2789229Y-1477793D01*
X2789229Y-1477793D02*
X2789229Y-1430174D01*
X2789229Y-1430174D02*
X2798753Y-1392079D01*
X2798753Y-1392079D02*
X2808277Y-1373031D01*
X2808277Y-1373031D02*
X2817801Y-1363508D01*
X2817801Y-1363508D02*
X2836848Y-1353984D01*
X3074944Y-1420650D02*
X3074944Y-1553984D01*
X3027325Y-1344460D02*
X2979706Y-1487317D01*
X2979706Y-1487317D02*
X3103515Y-1487317D01*
X3160658Y-1353984D02*
X3284467Y-1353984D01*
X3284467Y-1353984D02*
X3217801Y-1430174D01*
X3217801Y-1430174D02*
X3246372Y-1430174D01*
X3246372Y-1430174D02*
X3265420Y-1439698D01*
X3265420Y-1439698D02*
X3274944Y-1449222D01*
X3274944Y-1449222D02*
X3284467Y-1468269D01*
X3284467Y-1468269D02*
X3284467Y-1515888D01*
X3284467Y-1515888D02*
X3274944Y-1534936D01*
X3274944Y-1534936D02*
X3265420Y-1544460D01*
X3265420Y-1544460D02*
X3246372Y-1553984D01*
X3246372Y-1553984D02*
X3189229Y-1553984D01*
X3189229Y-1553984D02*
X3170182Y-1544460D01*
X3170182Y-1544460D02*
X3160658Y-1534936D01*
X3351134Y-1353984D02*
X3474944Y-1353984D01*
X3474944Y-1353984D02*
X3408277Y-1430174D01*
X3408277Y-1430174D02*
X3436848Y-1430174D01*
X3436848Y-1430174D02*
X3455896Y-1439698D01*
X3455896Y-1439698D02*
X3465420Y-1449222D01*
X3465420Y-1449222D02*
X3474944Y-1468269D01*
X3474944Y-1468269D02*
X3474944Y-1515888D01*
X3474944Y-1515888D02*
X3465420Y-1534936D01*
X3465420Y-1534936D02*
X3455896Y-1544460D01*
X3455896Y-1544460D02*
X3436848Y-1553984D01*
X3436848Y-1553984D02*
X3379706Y-1553984D01*
X3379706Y-1553984D02*
X3360658Y-1544460D01*
X3360658Y-1544460D02*
X3351134Y-1534936D01*
X3551134Y-1353984D02*
X3551134Y-1392079D01*
X3627325Y-1353984D02*
X3627325Y-1392079D01*
X3922563Y-1630174D02*
X3913039Y-1620650D01*
X3913039Y-1620650D02*
X3893991Y-1592079D01*
X3893991Y-1592079D02*
X3884468Y-1573031D01*
X3884468Y-1573031D02*
X3874944Y-1544460D01*
X3874944Y-1544460D02*
X3865420Y-1496841D01*
X3865420Y-1496841D02*
X3865420Y-1458746D01*
X3865420Y-1458746D02*
X3874944Y-1411127D01*
X3874944Y-1411127D02*
X3884468Y-1382555D01*
X3884468Y-1382555D02*
X3893991Y-1363508D01*
X3893991Y-1363508D02*
X3913039Y-1334936D01*
X3913039Y-1334936D02*
X3922563Y-1325412D01*
X4103515Y-1553984D02*
X3989229Y-1553984D01*
X4046372Y-1553984D02*
X4046372Y-1353984D01*
X4046372Y-1353984D02*
X4027325Y-1382555D01*
X4027325Y-1382555D02*
X4008277Y-1401603D01*
X4008277Y-1401603D02*
X3989229Y-1411127D01*
X4284468Y-1353984D02*
X4189229Y-1353984D01*
X4189229Y-1353984D02*
X4179706Y-1449222D01*
X4179706Y-1449222D02*
X4189229Y-1439698D01*
X4189229Y-1439698D02*
X4208277Y-1430174D01*
X4208277Y-1430174D02*
X4255896Y-1430174D01*
X4255896Y-1430174D02*
X4274944Y-1439698D01*
X4274944Y-1439698D02*
X4284468Y-1449222D01*
X4284468Y-1449222D02*
X4293991Y-1468269D01*
X4293991Y-1468269D02*
X4293991Y-1515888D01*
X4293991Y-1515888D02*
X4284468Y-1534936D01*
X4284468Y-1534936D02*
X4274944Y-1544460D01*
X4274944Y-1544460D02*
X4255896Y-1553984D01*
X4255896Y-1553984D02*
X4208277Y-1553984D01*
X4208277Y-1553984D02*
X4189229Y-1544460D01*
X4189229Y-1544460D02*
X4179706Y-1534936D01*
X4532087Y-1553984D02*
X4532087Y-1353984D01*
X4617801Y-1553984D02*
X4617801Y-1449222D01*
X4617801Y-1449222D02*
X4608277Y-1430174D01*
X4608277Y-1430174D02*
X4589230Y-1420650D01*
X4589230Y-1420650D02*
X4560658Y-1420650D01*
X4560658Y-1420650D02*
X4541611Y-1430174D01*
X4541611Y-1430174D02*
X4532087Y-1439698D01*
X4741611Y-1553984D02*
X4722563Y-1544460D01*
X4722563Y-1544460D02*
X4713039Y-1534936D01*
X4713039Y-1534936D02*
X4703515Y-1515888D01*
X4703515Y-1515888D02*
X4703515Y-1458746D01*
X4703515Y-1458746D02*
X4713039Y-1439698D01*
X4713039Y-1439698D02*
X4722563Y-1430174D01*
X4722563Y-1430174D02*
X4741611Y-1420650D01*
X4741611Y-1420650D02*
X4770182Y-1420650D01*
X4770182Y-1420650D02*
X4789230Y-1430174D01*
X4789230Y-1430174D02*
X4798753Y-1439698D01*
X4798753Y-1439698D02*
X4808277Y-1458746D01*
X4808277Y-1458746D02*
X4808277Y-1515888D01*
X4808277Y-1515888D02*
X4798753Y-1534936D01*
X4798753Y-1534936D02*
X4789230Y-1544460D01*
X4789230Y-1544460D02*
X4770182Y-1553984D01*
X4770182Y-1553984D02*
X4741611Y-1553984D01*
X4922563Y-1553984D02*
X4903515Y-1544460D01*
X4903515Y-1544460D02*
X4893992Y-1525412D01*
X4893992Y-1525412D02*
X4893992Y-1353984D01*
X5074944Y-1544460D02*
X5055896Y-1553984D01*
X5055896Y-1553984D02*
X5017801Y-1553984D01*
X5017801Y-1553984D02*
X4998753Y-1544460D01*
X4998753Y-1544460D02*
X4989230Y-1525412D01*
X4989230Y-1525412D02*
X4989230Y-1449222D01*
X4989230Y-1449222D02*
X4998753Y-1430174D01*
X4998753Y-1430174D02*
X5017801Y-1420650D01*
X5017801Y-1420650D02*
X5055896Y-1420650D01*
X5055896Y-1420650D02*
X5074944Y-1430174D01*
X5074944Y-1430174D02*
X5084468Y-1449222D01*
X5084468Y-1449222D02*
X5084468Y-1468269D01*
X5084468Y-1468269D02*
X4989230Y-1487317D01*
X5160658Y-1544460D02*
X5179706Y-1553984D01*
X5179706Y-1553984D02*
X5217801Y-1553984D01*
X5217801Y-1553984D02*
X5236849Y-1544460D01*
X5236849Y-1544460D02*
X5246373Y-1525412D01*
X5246373Y-1525412D02*
X5246373Y-1515888D01*
X5246373Y-1515888D02*
X5236849Y-1496841D01*
X5236849Y-1496841D02*
X5217801Y-1487317D01*
X5217801Y-1487317D02*
X5189230Y-1487317D01*
X5189230Y-1487317D02*
X5170182Y-1477793D01*
X5170182Y-1477793D02*
X5160658Y-1458746D01*
X5160658Y-1458746D02*
X5160658Y-1449222D01*
X5160658Y-1449222D02*
X5170182Y-1430174D01*
X5170182Y-1430174D02*
X5189230Y-1420650D01*
X5189230Y-1420650D02*
X5217801Y-1420650D01*
X5217801Y-1420650D02*
X5236849Y-1430174D01*
X5313039Y-1630174D02*
X5322563Y-1620650D01*
X5322563Y-1620650D02*
X5341611Y-1592079D01*
X5341611Y-1592079D02*
X5351134Y-1573031D01*
X5351134Y-1573031D02*
X5360658Y-1544460D01*
X5360658Y-1544460D02*
X5370182Y-1496841D01*
X5370182Y-1496841D02*
X5370182Y-1458746D01*
X5370182Y-1458746D02*
X5360658Y-1411127D01*
X5360658Y-1411127D02*
X5351134Y-1382555D01*
X5351134Y-1382555D02*
X5341611Y-1363508D01*
X5341611Y-1363508D02*
X5322563Y-1334936D01*
X5322563Y-1334936D02*
X5313039Y-1325412D01*
D14*
X217500Y-1661500D02*
X347500Y-1791500D01*
X347500Y-1661500D02*
X217500Y-1791500D01*
X282500Y-1661500D02*
X282500Y-1791500D01*
X217500Y-1726500D02*
X347500Y-1726500D01*
D11*
X713039Y-1817984D02*
X598753Y-1817984D01*
X655896Y-1817984D02*
X655896Y-1617984D01*
X655896Y-1617984D02*
X636848Y-1646555D01*
X636848Y-1646555D02*
X617801Y-1665603D01*
X617801Y-1665603D02*
X598753Y-1675127D01*
X798753Y-1798936D02*
X808277Y-1808460D01*
X808277Y-1808460D02*
X798753Y-1817984D01*
X798753Y-1817984D02*
X789229Y-1808460D01*
X789229Y-1808460D02*
X798753Y-1798936D01*
X798753Y-1798936D02*
X798753Y-1817984D01*
X874943Y-1617984D02*
X998753Y-1617984D01*
X998753Y-1617984D02*
X932086Y-1694174D01*
X932086Y-1694174D02*
X960658Y-1694174D01*
X960658Y-1694174D02*
X979705Y-1703698D01*
X979705Y-1703698D02*
X989229Y-1713222D01*
X989229Y-1713222D02*
X998753Y-1732269D01*
X998753Y-1732269D02*
X998753Y-1779888D01*
X998753Y-1779888D02*
X989229Y-1798936D01*
X989229Y-1798936D02*
X979705Y-1808460D01*
X979705Y-1808460D02*
X960658Y-1817984D01*
X960658Y-1817984D02*
X903515Y-1817984D01*
X903515Y-1817984D02*
X884467Y-1808460D01*
X884467Y-1808460D02*
X874943Y-1798936D01*
X1122563Y-1617984D02*
X1141610Y-1617984D01*
X1141610Y-1617984D02*
X1160658Y-1627508D01*
X1160658Y-1627508D02*
X1170182Y-1637031D01*
X1170182Y-1637031D02*
X1179705Y-1656079D01*
X1179705Y-1656079D02*
X1189229Y-1694174D01*
X1189229Y-1694174D02*
X1189229Y-1741793D01*
X1189229Y-1741793D02*
X1179705Y-1779888D01*
X1179705Y-1779888D02*
X1170182Y-1798936D01*
X1170182Y-1798936D02*
X1160658Y-1808460D01*
X1160658Y-1808460D02*
X1141610Y-1817984D01*
X1141610Y-1817984D02*
X1122563Y-1817984D01*
X1122563Y-1817984D02*
X1103515Y-1808460D01*
X1103515Y-1808460D02*
X1093991Y-1798936D01*
X1093991Y-1798936D02*
X1084467Y-1779888D01*
X1084467Y-1779888D02*
X1074944Y-1741793D01*
X1074944Y-1741793D02*
X1074944Y-1694174D01*
X1074944Y-1694174D02*
X1084467Y-1656079D01*
X1084467Y-1656079D02*
X1093991Y-1637031D01*
X1093991Y-1637031D02*
X1103515Y-1627508D01*
X1103515Y-1627508D02*
X1122563Y-1617984D01*
X1313039Y-1617984D02*
X1332086Y-1617984D01*
X1332086Y-1617984D02*
X1351134Y-1627508D01*
X1351134Y-1627508D02*
X1360658Y-1637031D01*
X1360658Y-1637031D02*
X1370182Y-1656079D01*
X1370182Y-1656079D02*
X1379705Y-1694174D01*
X1379705Y-1694174D02*
X1379705Y-1741793D01*
X1379705Y-1741793D02*
X1370182Y-1779888D01*
X1370182Y-1779888D02*
X1360658Y-1798936D01*
X1360658Y-1798936D02*
X1351134Y-1808460D01*
X1351134Y-1808460D02*
X1332086Y-1817984D01*
X1332086Y-1817984D02*
X1313039Y-1817984D01*
X1313039Y-1817984D02*
X1293991Y-1808460D01*
X1293991Y-1808460D02*
X1284467Y-1798936D01*
X1284467Y-1798936D02*
X1274944Y-1779888D01*
X1274944Y-1779888D02*
X1265420Y-1741793D01*
X1265420Y-1741793D02*
X1265420Y-1694174D01*
X1265420Y-1694174D02*
X1274944Y-1656079D01*
X1274944Y-1656079D02*
X1284467Y-1637031D01*
X1284467Y-1637031D02*
X1293991Y-1627508D01*
X1293991Y-1627508D02*
X1313039Y-1617984D01*
X1465420Y-1817984D02*
X1465420Y-1684650D01*
X1465420Y-1703698D02*
X1474943Y-1694174D01*
X1474943Y-1694174D02*
X1493991Y-1684650D01*
X1493991Y-1684650D02*
X1522563Y-1684650D01*
X1522563Y-1684650D02*
X1541610Y-1694174D01*
X1541610Y-1694174D02*
X1551134Y-1713222D01*
X1551134Y-1713222D02*
X1551134Y-1817984D01*
X1551134Y-1713222D02*
X1560658Y-1694174D01*
X1560658Y-1694174D02*
X1579705Y-1684650D01*
X1579705Y-1684650D02*
X1608277Y-1684650D01*
X1608277Y-1684650D02*
X1627324Y-1694174D01*
X1627324Y-1694174D02*
X1636848Y-1713222D01*
X1636848Y-1713222D02*
X1636848Y-1817984D01*
X1732086Y-1817984D02*
X1732086Y-1684650D01*
X1732086Y-1703698D02*
X1741610Y-1694174D01*
X1741610Y-1694174D02*
X1760658Y-1684650D01*
X1760658Y-1684650D02*
X1789229Y-1684650D01*
X1789229Y-1684650D02*
X1808277Y-1694174D01*
X1808277Y-1694174D02*
X1817801Y-1713222D01*
X1817801Y-1713222D02*
X1817801Y-1817984D01*
X1817801Y-1713222D02*
X1827324Y-1694174D01*
X1827324Y-1694174D02*
X1846372Y-1684650D01*
X1846372Y-1684650D02*
X1874943Y-1684650D01*
X1874943Y-1684650D02*
X1893991Y-1694174D01*
X1893991Y-1694174D02*
X1903515Y-1713222D01*
X1903515Y-1713222D02*
X1903515Y-1817984D01*
X2293991Y-1608460D02*
X2122563Y-1865603D01*
X2551134Y-1617984D02*
X2570182Y-1617984D01*
X2570182Y-1617984D02*
X2589229Y-1627508D01*
X2589229Y-1627508D02*
X2598753Y-1637031D01*
X2598753Y-1637031D02*
X2608277Y-1656079D01*
X2608277Y-1656079D02*
X2617801Y-1694174D01*
X2617801Y-1694174D02*
X2617801Y-1741793D01*
X2617801Y-1741793D02*
X2608277Y-1779888D01*
X2608277Y-1779888D02*
X2598753Y-1798936D01*
X2598753Y-1798936D02*
X2589229Y-1808460D01*
X2589229Y-1808460D02*
X2570182Y-1817984D01*
X2570182Y-1817984D02*
X2551134Y-1817984D01*
X2551134Y-1817984D02*
X2532087Y-1808460D01*
X2532087Y-1808460D02*
X2522563Y-1798936D01*
X2522563Y-1798936D02*
X2513039Y-1779888D01*
X2513039Y-1779888D02*
X2503515Y-1741793D01*
X2503515Y-1741793D02*
X2503515Y-1694174D01*
X2503515Y-1694174D02*
X2513039Y-1656079D01*
X2513039Y-1656079D02*
X2522563Y-1637031D01*
X2522563Y-1637031D02*
X2532087Y-1627508D01*
X2532087Y-1627508D02*
X2551134Y-1617984D01*
X2703515Y-1798936D02*
X2713039Y-1808460D01*
X2713039Y-1808460D02*
X2703515Y-1817984D01*
X2703515Y-1817984D02*
X2693991Y-1808460D01*
X2693991Y-1808460D02*
X2703515Y-1798936D01*
X2703515Y-1798936D02*
X2703515Y-1817984D01*
X2836848Y-1617984D02*
X2855896Y-1617984D01*
X2855896Y-1617984D02*
X2874944Y-1627508D01*
X2874944Y-1627508D02*
X2884467Y-1637031D01*
X2884467Y-1637031D02*
X2893991Y-1656079D01*
X2893991Y-1656079D02*
X2903515Y-1694174D01*
X2903515Y-1694174D02*
X2903515Y-1741793D01*
X2903515Y-1741793D02*
X2893991Y-1779888D01*
X2893991Y-1779888D02*
X2884467Y-1798936D01*
X2884467Y-1798936D02*
X2874944Y-1808460D01*
X2874944Y-1808460D02*
X2855896Y-1817984D01*
X2855896Y-1817984D02*
X2836848Y-1817984D01*
X2836848Y-1817984D02*
X2817801Y-1808460D01*
X2817801Y-1808460D02*
X2808277Y-1798936D01*
X2808277Y-1798936D02*
X2798753Y-1779888D01*
X2798753Y-1779888D02*
X2789229Y-1741793D01*
X2789229Y-1741793D02*
X2789229Y-1694174D01*
X2789229Y-1694174D02*
X2798753Y-1656079D01*
X2798753Y-1656079D02*
X2808277Y-1637031D01*
X2808277Y-1637031D02*
X2817801Y-1627508D01*
X2817801Y-1627508D02*
X2836848Y-1617984D01*
X3084467Y-1617984D02*
X2989229Y-1617984D01*
X2989229Y-1617984D02*
X2979706Y-1713222D01*
X2979706Y-1713222D02*
X2989229Y-1703698D01*
X2989229Y-1703698D02*
X3008277Y-1694174D01*
X3008277Y-1694174D02*
X3055896Y-1694174D01*
X3055896Y-1694174D02*
X3074944Y-1703698D01*
X3074944Y-1703698D02*
X3084467Y-1713222D01*
X3084467Y-1713222D02*
X3093991Y-1732269D01*
X3093991Y-1732269D02*
X3093991Y-1779888D01*
X3093991Y-1779888D02*
X3084467Y-1798936D01*
X3084467Y-1798936D02*
X3074944Y-1808460D01*
X3074944Y-1808460D02*
X3055896Y-1817984D01*
X3055896Y-1817984D02*
X3008277Y-1817984D01*
X3008277Y-1817984D02*
X2989229Y-1808460D01*
X2989229Y-1808460D02*
X2979706Y-1798936D01*
X3284467Y-1817984D02*
X3170182Y-1817984D01*
X3227325Y-1817984D02*
X3227325Y-1617984D01*
X3227325Y-1617984D02*
X3208277Y-1646555D01*
X3208277Y-1646555D02*
X3189229Y-1665603D01*
X3189229Y-1665603D02*
X3170182Y-1675127D01*
X3360658Y-1637031D02*
X3370182Y-1627508D01*
X3370182Y-1627508D02*
X3389229Y-1617984D01*
X3389229Y-1617984D02*
X3436848Y-1617984D01*
X3436848Y-1617984D02*
X3455896Y-1627508D01*
X3455896Y-1627508D02*
X3465420Y-1637031D01*
X3465420Y-1637031D02*
X3474944Y-1656079D01*
X3474944Y-1656079D02*
X3474944Y-1675127D01*
X3474944Y-1675127D02*
X3465420Y-1703698D01*
X3465420Y-1703698D02*
X3351134Y-1817984D01*
X3351134Y-1817984D02*
X3474944Y-1817984D01*
X3551134Y-1617984D02*
X3551134Y-1656079D01*
X3627325Y-1617984D02*
X3627325Y-1656079D01*
X3922563Y-1894174D02*
X3913039Y-1884650D01*
X3913039Y-1884650D02*
X3893991Y-1856079D01*
X3893991Y-1856079D02*
X3884468Y-1837031D01*
X3884468Y-1837031D02*
X3874944Y-1808460D01*
X3874944Y-1808460D02*
X3865420Y-1760841D01*
X3865420Y-1760841D02*
X3865420Y-1722746D01*
X3865420Y-1722746D02*
X3874944Y-1675127D01*
X3874944Y-1675127D02*
X3884468Y-1646555D01*
X3884468Y-1646555D02*
X3893991Y-1627508D01*
X3893991Y-1627508D02*
X3913039Y-1598936D01*
X3913039Y-1598936D02*
X3922563Y-1589412D01*
X4027325Y-1703698D02*
X4008277Y-1694174D01*
X4008277Y-1694174D02*
X3998753Y-1684650D01*
X3998753Y-1684650D02*
X3989229Y-1665603D01*
X3989229Y-1665603D02*
X3989229Y-1656079D01*
X3989229Y-1656079D02*
X3998753Y-1637031D01*
X3998753Y-1637031D02*
X4008277Y-1627508D01*
X4008277Y-1627508D02*
X4027325Y-1617984D01*
X4027325Y-1617984D02*
X4065420Y-1617984D01*
X4065420Y-1617984D02*
X4084468Y-1627508D01*
X4084468Y-1627508D02*
X4093991Y-1637031D01*
X4093991Y-1637031D02*
X4103515Y-1656079D01*
X4103515Y-1656079D02*
X4103515Y-1665603D01*
X4103515Y-1665603D02*
X4093991Y-1684650D01*
X4093991Y-1684650D02*
X4084468Y-1694174D01*
X4084468Y-1694174D02*
X4065420Y-1703698D01*
X4065420Y-1703698D02*
X4027325Y-1703698D01*
X4027325Y-1703698D02*
X4008277Y-1713222D01*
X4008277Y-1713222D02*
X3998753Y-1722746D01*
X3998753Y-1722746D02*
X3989229Y-1741793D01*
X3989229Y-1741793D02*
X3989229Y-1779888D01*
X3989229Y-1779888D02*
X3998753Y-1798936D01*
X3998753Y-1798936D02*
X4008277Y-1808460D01*
X4008277Y-1808460D02*
X4027325Y-1817984D01*
X4027325Y-1817984D02*
X4065420Y-1817984D01*
X4065420Y-1817984D02*
X4084468Y-1808460D01*
X4084468Y-1808460D02*
X4093991Y-1798936D01*
X4093991Y-1798936D02*
X4103515Y-1779888D01*
X4103515Y-1779888D02*
X4103515Y-1741793D01*
X4103515Y-1741793D02*
X4093991Y-1722746D01*
X4093991Y-1722746D02*
X4084468Y-1713222D01*
X4084468Y-1713222D02*
X4065420Y-1703698D01*
X4341611Y-1817984D02*
X4341611Y-1617984D01*
X4427325Y-1817984D02*
X4427325Y-1713222D01*
X4427325Y-1713222D02*
X4417801Y-1694174D01*
X4417801Y-1694174D02*
X4398753Y-1684650D01*
X4398753Y-1684650D02*
X4370182Y-1684650D01*
X4370182Y-1684650D02*
X4351134Y-1694174D01*
X4351134Y-1694174D02*
X4341611Y-1703698D01*
X4551134Y-1817984D02*
X4532087Y-1808460D01*
X4532087Y-1808460D02*
X4522563Y-1798936D01*
X4522563Y-1798936D02*
X4513039Y-1779888D01*
X4513039Y-1779888D02*
X4513039Y-1722746D01*
X4513039Y-1722746D02*
X4522563Y-1703698D01*
X4522563Y-1703698D02*
X4532087Y-1694174D01*
X4532087Y-1694174D02*
X4551134Y-1684650D01*
X4551134Y-1684650D02*
X4579706Y-1684650D01*
X4579706Y-1684650D02*
X4598753Y-1694174D01*
X4598753Y-1694174D02*
X4608277Y-1703698D01*
X4608277Y-1703698D02*
X4617801Y-1722746D01*
X4617801Y-1722746D02*
X4617801Y-1779888D01*
X4617801Y-1779888D02*
X4608277Y-1798936D01*
X4608277Y-1798936D02*
X4598753Y-1808460D01*
X4598753Y-1808460D02*
X4579706Y-1817984D01*
X4579706Y-1817984D02*
X4551134Y-1817984D01*
X4732087Y-1817984D02*
X4713039Y-1808460D01*
X4713039Y-1808460D02*
X4703515Y-1789412D01*
X4703515Y-1789412D02*
X4703515Y-1617984D01*
X4884468Y-1808460D02*
X4865420Y-1817984D01*
X4865420Y-1817984D02*
X4827325Y-1817984D01*
X4827325Y-1817984D02*
X4808277Y-1808460D01*
X4808277Y-1808460D02*
X4798753Y-1789412D01*
X4798753Y-1789412D02*
X4798753Y-1713222D01*
X4798753Y-1713222D02*
X4808277Y-1694174D01*
X4808277Y-1694174D02*
X4827325Y-1684650D01*
X4827325Y-1684650D02*
X4865420Y-1684650D01*
X4865420Y-1684650D02*
X4884468Y-1694174D01*
X4884468Y-1694174D02*
X4893992Y-1713222D01*
X4893992Y-1713222D02*
X4893992Y-1732269D01*
X4893992Y-1732269D02*
X4798753Y-1751317D01*
X4970182Y-1808460D02*
X4989230Y-1817984D01*
X4989230Y-1817984D02*
X5027325Y-1817984D01*
X5027325Y-1817984D02*
X5046373Y-1808460D01*
X5046373Y-1808460D02*
X5055896Y-1789412D01*
X5055896Y-1789412D02*
X5055896Y-1779888D01*
X5055896Y-1779888D02*
X5046373Y-1760841D01*
X5046373Y-1760841D02*
X5027325Y-1751317D01*
X5027325Y-1751317D02*
X4998753Y-1751317D01*
X4998753Y-1751317D02*
X4979706Y-1741793D01*
X4979706Y-1741793D02*
X4970182Y-1722746D01*
X4970182Y-1722746D02*
X4970182Y-1713222D01*
X4970182Y-1713222D02*
X4979706Y-1694174D01*
X4979706Y-1694174D02*
X4998753Y-1684650D01*
X4998753Y-1684650D02*
X5027325Y-1684650D01*
X5027325Y-1684650D02*
X5046373Y-1694174D01*
X5122563Y-1894174D02*
X5132087Y-1884650D01*
X5132087Y-1884650D02*
X5151134Y-1856079D01*
X5151134Y-1856079D02*
X5160658Y-1837031D01*
X5160658Y-1837031D02*
X5170182Y-1808460D01*
X5170182Y-1808460D02*
X5179706Y-1760841D01*
X5179706Y-1760841D02*
X5179706Y-1722746D01*
X5179706Y-1722746D02*
X5170182Y-1675127D01*
X5170182Y-1675127D02*
X5160658Y-1646555D01*
X5160658Y-1646555D02*
X5151134Y-1627508D01*
X5151134Y-1627508D02*
X5132087Y-1598936D01*
X5132087Y-1598936D02*
X5122563Y-1589412D01*
D15*
X197500Y-1915500D02*
X347500Y-2065500D01*
X347500Y-1915500D02*
X197500Y-2065500D01*
X325534Y-2043533D02*
X325534Y-1937466D01*
X219466Y-1937466D01*
X219466Y-2043533D01*
X325534Y-2043533D01*
D11*
X713039Y-2081984D02*
X598753Y-2081984D01*
X655896Y-2081984D02*
X655896Y-1881984D01*
X655896Y-1881984D02*
X636848Y-1910555D01*
X636848Y-1910555D02*
X617801Y-1929603D01*
X617801Y-1929603D02*
X598753Y-1939127D01*
X798753Y-2062936D02*
X808277Y-2072460D01*
X808277Y-2072460D02*
X798753Y-2081984D01*
X798753Y-2081984D02*
X789229Y-2072460D01*
X789229Y-2072460D02*
X798753Y-2062936D01*
X798753Y-2062936D02*
X798753Y-2081984D01*
X989229Y-1881984D02*
X893991Y-1881984D01*
X893991Y-1881984D02*
X884467Y-1977222D01*
X884467Y-1977222D02*
X893991Y-1967698D01*
X893991Y-1967698D02*
X913039Y-1958174D01*
X913039Y-1958174D02*
X960658Y-1958174D01*
X960658Y-1958174D02*
X979705Y-1967698D01*
X979705Y-1967698D02*
X989229Y-1977222D01*
X989229Y-1977222D02*
X998753Y-1996269D01*
X998753Y-1996269D02*
X998753Y-2043888D01*
X998753Y-2043888D02*
X989229Y-2062936D01*
X989229Y-2062936D02*
X979705Y-2072460D01*
X979705Y-2072460D02*
X960658Y-2081984D01*
X960658Y-2081984D02*
X913039Y-2081984D01*
X913039Y-2081984D02*
X893991Y-2072460D01*
X893991Y-2072460D02*
X884467Y-2062936D01*
X1122563Y-1881984D02*
X1141610Y-1881984D01*
X1141610Y-1881984D02*
X1160658Y-1891508D01*
X1160658Y-1891508D02*
X1170182Y-1901031D01*
X1170182Y-1901031D02*
X1179705Y-1920079D01*
X1179705Y-1920079D02*
X1189229Y-1958174D01*
X1189229Y-1958174D02*
X1189229Y-2005793D01*
X1189229Y-2005793D02*
X1179705Y-2043888D01*
X1179705Y-2043888D02*
X1170182Y-2062936D01*
X1170182Y-2062936D02*
X1160658Y-2072460D01*
X1160658Y-2072460D02*
X1141610Y-2081984D01*
X1141610Y-2081984D02*
X1122563Y-2081984D01*
X1122563Y-2081984D02*
X1103515Y-2072460D01*
X1103515Y-2072460D02*
X1093991Y-2062936D01*
X1093991Y-2062936D02*
X1084467Y-2043888D01*
X1084467Y-2043888D02*
X1074944Y-2005793D01*
X1074944Y-2005793D02*
X1074944Y-1958174D01*
X1074944Y-1958174D02*
X1084467Y-1920079D01*
X1084467Y-1920079D02*
X1093991Y-1901031D01*
X1093991Y-1901031D02*
X1103515Y-1891508D01*
X1103515Y-1891508D02*
X1122563Y-1881984D01*
X1313039Y-1881984D02*
X1332086Y-1881984D01*
X1332086Y-1881984D02*
X1351134Y-1891508D01*
X1351134Y-1891508D02*
X1360658Y-1901031D01*
X1360658Y-1901031D02*
X1370182Y-1920079D01*
X1370182Y-1920079D02*
X1379705Y-1958174D01*
X1379705Y-1958174D02*
X1379705Y-2005793D01*
X1379705Y-2005793D02*
X1370182Y-2043888D01*
X1370182Y-2043888D02*
X1360658Y-2062936D01*
X1360658Y-2062936D02*
X1351134Y-2072460D01*
X1351134Y-2072460D02*
X1332086Y-2081984D01*
X1332086Y-2081984D02*
X1313039Y-2081984D01*
X1313039Y-2081984D02*
X1293991Y-2072460D01*
X1293991Y-2072460D02*
X1284467Y-2062936D01*
X1284467Y-2062936D02*
X1274944Y-2043888D01*
X1274944Y-2043888D02*
X1265420Y-2005793D01*
X1265420Y-2005793D02*
X1265420Y-1958174D01*
X1265420Y-1958174D02*
X1274944Y-1920079D01*
X1274944Y-1920079D02*
X1284467Y-1901031D01*
X1284467Y-1901031D02*
X1293991Y-1891508D01*
X1293991Y-1891508D02*
X1313039Y-1881984D01*
X1465420Y-2081984D02*
X1465420Y-1948650D01*
X1465420Y-1967698D02*
X1474943Y-1958174D01*
X1474943Y-1958174D02*
X1493991Y-1948650D01*
X1493991Y-1948650D02*
X1522563Y-1948650D01*
X1522563Y-1948650D02*
X1541610Y-1958174D01*
X1541610Y-1958174D02*
X1551134Y-1977222D01*
X1551134Y-1977222D02*
X1551134Y-2081984D01*
X1551134Y-1977222D02*
X1560658Y-1958174D01*
X1560658Y-1958174D02*
X1579705Y-1948650D01*
X1579705Y-1948650D02*
X1608277Y-1948650D01*
X1608277Y-1948650D02*
X1627324Y-1958174D01*
X1627324Y-1958174D02*
X1636848Y-1977222D01*
X1636848Y-1977222D02*
X1636848Y-2081984D01*
X1732086Y-2081984D02*
X1732086Y-1948650D01*
X1732086Y-1967698D02*
X1741610Y-1958174D01*
X1741610Y-1958174D02*
X1760658Y-1948650D01*
X1760658Y-1948650D02*
X1789229Y-1948650D01*
X1789229Y-1948650D02*
X1808277Y-1958174D01*
X1808277Y-1958174D02*
X1817801Y-1977222D01*
X1817801Y-1977222D02*
X1817801Y-2081984D01*
X1817801Y-1977222D02*
X1827324Y-1958174D01*
X1827324Y-1958174D02*
X1846372Y-1948650D01*
X1846372Y-1948650D02*
X1874943Y-1948650D01*
X1874943Y-1948650D02*
X1893991Y-1958174D01*
X1893991Y-1958174D02*
X1903515Y-1977222D01*
X1903515Y-1977222D02*
X1903515Y-2081984D01*
X2293991Y-1872460D02*
X2122563Y-2129603D01*
X2551134Y-1881984D02*
X2570182Y-1881984D01*
X2570182Y-1881984D02*
X2589229Y-1891508D01*
X2589229Y-1891508D02*
X2598753Y-1901031D01*
X2598753Y-1901031D02*
X2608277Y-1920079D01*
X2608277Y-1920079D02*
X2617801Y-1958174D01*
X2617801Y-1958174D02*
X2617801Y-2005793D01*
X2617801Y-2005793D02*
X2608277Y-2043888D01*
X2608277Y-2043888D02*
X2598753Y-2062936D01*
X2598753Y-2062936D02*
X2589229Y-2072460D01*
X2589229Y-2072460D02*
X2570182Y-2081984D01*
X2570182Y-2081984D02*
X2551134Y-2081984D01*
X2551134Y-2081984D02*
X2532087Y-2072460D01*
X2532087Y-2072460D02*
X2522563Y-2062936D01*
X2522563Y-2062936D02*
X2513039Y-2043888D01*
X2513039Y-2043888D02*
X2503515Y-2005793D01*
X2503515Y-2005793D02*
X2503515Y-1958174D01*
X2503515Y-1958174D02*
X2513039Y-1920079D01*
X2513039Y-1920079D02*
X2522563Y-1901031D01*
X2522563Y-1901031D02*
X2532087Y-1891508D01*
X2532087Y-1891508D02*
X2551134Y-1881984D01*
X2703515Y-2062936D02*
X2713039Y-2072460D01*
X2713039Y-2072460D02*
X2703515Y-2081984D01*
X2703515Y-2081984D02*
X2693991Y-2072460D01*
X2693991Y-2072460D02*
X2703515Y-2062936D01*
X2703515Y-2062936D02*
X2703515Y-2081984D01*
X2836848Y-1881984D02*
X2855896Y-1881984D01*
X2855896Y-1881984D02*
X2874944Y-1891508D01*
X2874944Y-1891508D02*
X2884467Y-1901031D01*
X2884467Y-1901031D02*
X2893991Y-1920079D01*
X2893991Y-1920079D02*
X2903515Y-1958174D01*
X2903515Y-1958174D02*
X2903515Y-2005793D01*
X2903515Y-2005793D02*
X2893991Y-2043888D01*
X2893991Y-2043888D02*
X2884467Y-2062936D01*
X2884467Y-2062936D02*
X2874944Y-2072460D01*
X2874944Y-2072460D02*
X2855896Y-2081984D01*
X2855896Y-2081984D02*
X2836848Y-2081984D01*
X2836848Y-2081984D02*
X2817801Y-2072460D01*
X2817801Y-2072460D02*
X2808277Y-2062936D01*
X2808277Y-2062936D02*
X2798753Y-2043888D01*
X2798753Y-2043888D02*
X2789229Y-2005793D01*
X2789229Y-2005793D02*
X2789229Y-1958174D01*
X2789229Y-1958174D02*
X2798753Y-1920079D01*
X2798753Y-1920079D02*
X2808277Y-1901031D01*
X2808277Y-1901031D02*
X2817801Y-1891508D01*
X2817801Y-1891508D02*
X2836848Y-1881984D01*
X3084467Y-1881984D02*
X2989229Y-1881984D01*
X2989229Y-1881984D02*
X2979706Y-1977222D01*
X2979706Y-1977222D02*
X2989229Y-1967698D01*
X2989229Y-1967698D02*
X3008277Y-1958174D01*
X3008277Y-1958174D02*
X3055896Y-1958174D01*
X3055896Y-1958174D02*
X3074944Y-1967698D01*
X3074944Y-1967698D02*
X3084467Y-1977222D01*
X3084467Y-1977222D02*
X3093991Y-1996269D01*
X3093991Y-1996269D02*
X3093991Y-2043888D01*
X3093991Y-2043888D02*
X3084467Y-2062936D01*
X3084467Y-2062936D02*
X3074944Y-2072460D01*
X3074944Y-2072460D02*
X3055896Y-2081984D01*
X3055896Y-2081984D02*
X3008277Y-2081984D01*
X3008277Y-2081984D02*
X2989229Y-2072460D01*
X2989229Y-2072460D02*
X2979706Y-2062936D01*
X3189229Y-2081984D02*
X3227325Y-2081984D01*
X3227325Y-2081984D02*
X3246372Y-2072460D01*
X3246372Y-2072460D02*
X3255896Y-2062936D01*
X3255896Y-2062936D02*
X3274944Y-2034365D01*
X3274944Y-2034365D02*
X3284467Y-1996269D01*
X3284467Y-1996269D02*
X3284467Y-1920079D01*
X3284467Y-1920079D02*
X3274944Y-1901031D01*
X3274944Y-1901031D02*
X3265420Y-1891508D01*
X3265420Y-1891508D02*
X3246372Y-1881984D01*
X3246372Y-1881984D02*
X3208277Y-1881984D01*
X3208277Y-1881984D02*
X3189229Y-1891508D01*
X3189229Y-1891508D02*
X3179706Y-1901031D01*
X3179706Y-1901031D02*
X3170182Y-1920079D01*
X3170182Y-1920079D02*
X3170182Y-1967698D01*
X3170182Y-1967698D02*
X3179706Y-1986746D01*
X3179706Y-1986746D02*
X3189229Y-1996269D01*
X3189229Y-1996269D02*
X3208277Y-2005793D01*
X3208277Y-2005793D02*
X3246372Y-2005793D01*
X3246372Y-2005793D02*
X3265420Y-1996269D01*
X3265420Y-1996269D02*
X3274944Y-1986746D01*
X3274944Y-1986746D02*
X3284467Y-1967698D01*
X3474944Y-2081984D02*
X3360658Y-2081984D01*
X3417801Y-2081984D02*
X3417801Y-1881984D01*
X3417801Y-1881984D02*
X3398753Y-1910555D01*
X3398753Y-1910555D02*
X3379706Y-1929603D01*
X3379706Y-1929603D02*
X3360658Y-1939127D01*
X3551134Y-1881984D02*
X3551134Y-1920079D01*
X3627325Y-1881984D02*
X3627325Y-1920079D01*
X3922563Y-2158174D02*
X3913039Y-2148650D01*
X3913039Y-2148650D02*
X3893991Y-2120079D01*
X3893991Y-2120079D02*
X3884468Y-2101031D01*
X3884468Y-2101031D02*
X3874944Y-2072460D01*
X3874944Y-2072460D02*
X3865420Y-2024841D01*
X3865420Y-2024841D02*
X3865420Y-1986746D01*
X3865420Y-1986746D02*
X3874944Y-1939127D01*
X3874944Y-1939127D02*
X3884468Y-1910555D01*
X3884468Y-1910555D02*
X3893991Y-1891508D01*
X3893991Y-1891508D02*
X3913039Y-1862936D01*
X3913039Y-1862936D02*
X3922563Y-1853412D01*
X3989229Y-1901031D02*
X3998753Y-1891508D01*
X3998753Y-1891508D02*
X4017801Y-1881984D01*
X4017801Y-1881984D02*
X4065420Y-1881984D01*
X4065420Y-1881984D02*
X4084468Y-1891508D01*
X4084468Y-1891508D02*
X4093991Y-1901031D01*
X4093991Y-1901031D02*
X4103515Y-1920079D01*
X4103515Y-1920079D02*
X4103515Y-1939127D01*
X4103515Y-1939127D02*
X4093991Y-1967698D01*
X4093991Y-1967698D02*
X3979706Y-2081984D01*
X3979706Y-2081984D02*
X4103515Y-2081984D01*
X4341611Y-2081984D02*
X4341611Y-1881984D01*
X4427325Y-2081984D02*
X4427325Y-1977222D01*
X4427325Y-1977222D02*
X4417801Y-1958174D01*
X4417801Y-1958174D02*
X4398753Y-1948650D01*
X4398753Y-1948650D02*
X4370182Y-1948650D01*
X4370182Y-1948650D02*
X4351134Y-1958174D01*
X4351134Y-1958174D02*
X4341611Y-1967698D01*
X4551134Y-2081984D02*
X4532087Y-2072460D01*
X4532087Y-2072460D02*
X4522563Y-2062936D01*
X4522563Y-2062936D02*
X4513039Y-2043888D01*
X4513039Y-2043888D02*
X4513039Y-1986746D01*
X4513039Y-1986746D02*
X4522563Y-1967698D01*
X4522563Y-1967698D02*
X4532087Y-1958174D01*
X4532087Y-1958174D02*
X4551134Y-1948650D01*
X4551134Y-1948650D02*
X4579706Y-1948650D01*
X4579706Y-1948650D02*
X4598753Y-1958174D01*
X4598753Y-1958174D02*
X4608277Y-1967698D01*
X4608277Y-1967698D02*
X4617801Y-1986746D01*
X4617801Y-1986746D02*
X4617801Y-2043888D01*
X4617801Y-2043888D02*
X4608277Y-2062936D01*
X4608277Y-2062936D02*
X4598753Y-2072460D01*
X4598753Y-2072460D02*
X4579706Y-2081984D01*
X4579706Y-2081984D02*
X4551134Y-2081984D01*
X4732087Y-2081984D02*
X4713039Y-2072460D01*
X4713039Y-2072460D02*
X4703515Y-2053412D01*
X4703515Y-2053412D02*
X4703515Y-1881984D01*
X4884468Y-2072460D02*
X4865420Y-2081984D01*
X4865420Y-2081984D02*
X4827325Y-2081984D01*
X4827325Y-2081984D02*
X4808277Y-2072460D01*
X4808277Y-2072460D02*
X4798753Y-2053412D01*
X4798753Y-2053412D02*
X4798753Y-1977222D01*
X4798753Y-1977222D02*
X4808277Y-1958174D01*
X4808277Y-1958174D02*
X4827325Y-1948650D01*
X4827325Y-1948650D02*
X4865420Y-1948650D01*
X4865420Y-1948650D02*
X4884468Y-1958174D01*
X4884468Y-1958174D02*
X4893992Y-1977222D01*
X4893992Y-1977222D02*
X4893992Y-1996269D01*
X4893992Y-1996269D02*
X4798753Y-2015317D01*
X4970182Y-2072460D02*
X4989230Y-2081984D01*
X4989230Y-2081984D02*
X5027325Y-2081984D01*
X5027325Y-2081984D02*
X5046373Y-2072460D01*
X5046373Y-2072460D02*
X5055896Y-2053412D01*
X5055896Y-2053412D02*
X5055896Y-2043888D01*
X5055896Y-2043888D02*
X5046373Y-2024841D01*
X5046373Y-2024841D02*
X5027325Y-2015317D01*
X5027325Y-2015317D02*
X4998753Y-2015317D01*
X4998753Y-2015317D02*
X4979706Y-2005793D01*
X4979706Y-2005793D02*
X4970182Y-1986746D01*
X4970182Y-1986746D02*
X4970182Y-1977222D01*
X4970182Y-1977222D02*
X4979706Y-1958174D01*
X4979706Y-1958174D02*
X4998753Y-1948650D01*
X4998753Y-1948650D02*
X5027325Y-1948650D01*
X5027325Y-1948650D02*
X5046373Y-1958174D01*
X5122563Y-2158174D02*
X5132087Y-2148650D01*
X5132087Y-2148650D02*
X5151134Y-2120079D01*
X5151134Y-2120079D02*
X5160658Y-2101031D01*
X5160658Y-2101031D02*
X5170182Y-2072460D01*
X5170182Y-2072460D02*
X5179706Y-2024841D01*
X5179706Y-2024841D02*
X5179706Y-1986746D01*
X5179706Y-1986746D02*
X5170182Y-1939127D01*
X5170182Y-1939127D02*
X5160658Y-1910555D01*
X5160658Y-1910555D02*
X5151134Y-1891508D01*
X5151134Y-1891508D02*
X5132087Y-1862936D01*
X5132087Y-1862936D02*
X5122563Y-1853412D01*
X147500Y-2160500D02*
X347500Y-2360500D01*
X347500Y-2160500D02*
X147500Y-2360500D01*
X247500Y-2360500D02*
X347500Y-2260500D01*
X247500Y-2160500D01*
X147500Y-2260500D01*
X247500Y-2360500D01*
X598753Y-2171031D02*
X608277Y-2161508D01*
X608277Y-2161508D02*
X627324Y-2151984D01*
X627324Y-2151984D02*
X674944Y-2151984D01*
X674944Y-2151984D02*
X693991Y-2161508D01*
X693991Y-2161508D02*
X703515Y-2171031D01*
X703515Y-2171031D02*
X713039Y-2190079D01*
X713039Y-2190079D02*
X713039Y-2209127D01*
X713039Y-2209127D02*
X703515Y-2237698D01*
X703515Y-2237698D02*
X589229Y-2351984D01*
X589229Y-2351984D02*
X713039Y-2351984D01*
X798753Y-2332936D02*
X808277Y-2342460D01*
X808277Y-2342460D02*
X798753Y-2351984D01*
X798753Y-2351984D02*
X789229Y-2342460D01*
X789229Y-2342460D02*
X798753Y-2332936D01*
X798753Y-2332936D02*
X798753Y-2351984D01*
X874943Y-2151984D02*
X998753Y-2151984D01*
X998753Y-2151984D02*
X932086Y-2228174D01*
X932086Y-2228174D02*
X960658Y-2228174D01*
X960658Y-2228174D02*
X979705Y-2237698D01*
X979705Y-2237698D02*
X989229Y-2247222D01*
X989229Y-2247222D02*
X998753Y-2266270D01*
X998753Y-2266270D02*
X998753Y-2313889D01*
X998753Y-2313889D02*
X989229Y-2332936D01*
X989229Y-2332936D02*
X979705Y-2342460D01*
X979705Y-2342460D02*
X960658Y-2351984D01*
X960658Y-2351984D02*
X903515Y-2351984D01*
X903515Y-2351984D02*
X884467Y-2342460D01*
X884467Y-2342460D02*
X874943Y-2332936D01*
X1122563Y-2151984D02*
X1141610Y-2151984D01*
X1141610Y-2151984D02*
X1160658Y-2161508D01*
X1160658Y-2161508D02*
X1170182Y-2171031D01*
X1170182Y-2171031D02*
X1179705Y-2190079D01*
X1179705Y-2190079D02*
X1189229Y-2228174D01*
X1189229Y-2228174D02*
X1189229Y-2275793D01*
X1189229Y-2275793D02*
X1179705Y-2313889D01*
X1179705Y-2313889D02*
X1170182Y-2332936D01*
X1170182Y-2332936D02*
X1160658Y-2342460D01*
X1160658Y-2342460D02*
X1141610Y-2351984D01*
X1141610Y-2351984D02*
X1122563Y-2351984D01*
X1122563Y-2351984D02*
X1103515Y-2342460D01*
X1103515Y-2342460D02*
X1093991Y-2332936D01*
X1093991Y-2332936D02*
X1084467Y-2313889D01*
X1084467Y-2313889D02*
X1074944Y-2275793D01*
X1074944Y-2275793D02*
X1074944Y-2228174D01*
X1074944Y-2228174D02*
X1084467Y-2190079D01*
X1084467Y-2190079D02*
X1093991Y-2171031D01*
X1093991Y-2171031D02*
X1103515Y-2161508D01*
X1103515Y-2161508D02*
X1122563Y-2151984D01*
X1313039Y-2151984D02*
X1332086Y-2151984D01*
X1332086Y-2151984D02*
X1351134Y-2161508D01*
X1351134Y-2161508D02*
X1360658Y-2171031D01*
X1360658Y-2171031D02*
X1370182Y-2190079D01*
X1370182Y-2190079D02*
X1379705Y-2228174D01*
X1379705Y-2228174D02*
X1379705Y-2275793D01*
X1379705Y-2275793D02*
X1370182Y-2313889D01*
X1370182Y-2313889D02*
X1360658Y-2332936D01*
X1360658Y-2332936D02*
X1351134Y-2342460D01*
X1351134Y-2342460D02*
X1332086Y-2351984D01*
X1332086Y-2351984D02*
X1313039Y-2351984D01*
X1313039Y-2351984D02*
X1293991Y-2342460D01*
X1293991Y-2342460D02*
X1284467Y-2332936D01*
X1284467Y-2332936D02*
X1274944Y-2313889D01*
X1274944Y-2313889D02*
X1265420Y-2275793D01*
X1265420Y-2275793D02*
X1265420Y-2228174D01*
X1265420Y-2228174D02*
X1274944Y-2190079D01*
X1274944Y-2190079D02*
X1284467Y-2171031D01*
X1284467Y-2171031D02*
X1293991Y-2161508D01*
X1293991Y-2161508D02*
X1313039Y-2151984D01*
X1465420Y-2351984D02*
X1465420Y-2218650D01*
X1465420Y-2237698D02*
X1474943Y-2228174D01*
X1474943Y-2228174D02*
X1493991Y-2218650D01*
X1493991Y-2218650D02*
X1522563Y-2218650D01*
X1522563Y-2218650D02*
X1541610Y-2228174D01*
X1541610Y-2228174D02*
X1551134Y-2247222D01*
X1551134Y-2247222D02*
X1551134Y-2351984D01*
X1551134Y-2247222D02*
X1560658Y-2228174D01*
X1560658Y-2228174D02*
X1579705Y-2218650D01*
X1579705Y-2218650D02*
X1608277Y-2218650D01*
X1608277Y-2218650D02*
X1627324Y-2228174D01*
X1627324Y-2228174D02*
X1636848Y-2247222D01*
X1636848Y-2247222D02*
X1636848Y-2351984D01*
X1732086Y-2351984D02*
X1732086Y-2218650D01*
X1732086Y-2237698D02*
X1741610Y-2228174D01*
X1741610Y-2228174D02*
X1760658Y-2218650D01*
X1760658Y-2218650D02*
X1789229Y-2218650D01*
X1789229Y-2218650D02*
X1808277Y-2228174D01*
X1808277Y-2228174D02*
X1817801Y-2247222D01*
X1817801Y-2247222D02*
X1817801Y-2351984D01*
X1817801Y-2247222D02*
X1827324Y-2228174D01*
X1827324Y-2228174D02*
X1846372Y-2218650D01*
X1846372Y-2218650D02*
X1874943Y-2218650D01*
X1874943Y-2218650D02*
X1893991Y-2228174D01*
X1893991Y-2228174D02*
X1903515Y-2247222D01*
X1903515Y-2247222D02*
X1903515Y-2351984D01*
X2293991Y-2142460D02*
X2122563Y-2399603D01*
X2551134Y-2151984D02*
X2570182Y-2151984D01*
X2570182Y-2151984D02*
X2589229Y-2161508D01*
X2589229Y-2161508D02*
X2598753Y-2171031D01*
X2598753Y-2171031D02*
X2608277Y-2190079D01*
X2608277Y-2190079D02*
X2617801Y-2228174D01*
X2617801Y-2228174D02*
X2617801Y-2275793D01*
X2617801Y-2275793D02*
X2608277Y-2313889D01*
X2608277Y-2313889D02*
X2598753Y-2332936D01*
X2598753Y-2332936D02*
X2589229Y-2342460D01*
X2589229Y-2342460D02*
X2570182Y-2351984D01*
X2570182Y-2351984D02*
X2551134Y-2351984D01*
X2551134Y-2351984D02*
X2532087Y-2342460D01*
X2532087Y-2342460D02*
X2522563Y-2332936D01*
X2522563Y-2332936D02*
X2513039Y-2313889D01*
X2513039Y-2313889D02*
X2503515Y-2275793D01*
X2503515Y-2275793D02*
X2503515Y-2228174D01*
X2503515Y-2228174D02*
X2513039Y-2190079D01*
X2513039Y-2190079D02*
X2522563Y-2171031D01*
X2522563Y-2171031D02*
X2532087Y-2161508D01*
X2532087Y-2161508D02*
X2551134Y-2151984D01*
X2703515Y-2332936D02*
X2713039Y-2342460D01*
X2713039Y-2342460D02*
X2703515Y-2351984D01*
X2703515Y-2351984D02*
X2693991Y-2342460D01*
X2693991Y-2342460D02*
X2703515Y-2332936D01*
X2703515Y-2332936D02*
X2703515Y-2351984D01*
X2836848Y-2151984D02*
X2855896Y-2151984D01*
X2855896Y-2151984D02*
X2874944Y-2161508D01*
X2874944Y-2161508D02*
X2884467Y-2171031D01*
X2884467Y-2171031D02*
X2893991Y-2190079D01*
X2893991Y-2190079D02*
X2903515Y-2228174D01*
X2903515Y-2228174D02*
X2903515Y-2275793D01*
X2903515Y-2275793D02*
X2893991Y-2313889D01*
X2893991Y-2313889D02*
X2884467Y-2332936D01*
X2884467Y-2332936D02*
X2874944Y-2342460D01*
X2874944Y-2342460D02*
X2855896Y-2351984D01*
X2855896Y-2351984D02*
X2836848Y-2351984D01*
X2836848Y-2351984D02*
X2817801Y-2342460D01*
X2817801Y-2342460D02*
X2808277Y-2332936D01*
X2808277Y-2332936D02*
X2798753Y-2313889D01*
X2798753Y-2313889D02*
X2789229Y-2275793D01*
X2789229Y-2275793D02*
X2789229Y-2228174D01*
X2789229Y-2228174D02*
X2798753Y-2190079D01*
X2798753Y-2190079D02*
X2808277Y-2171031D01*
X2808277Y-2171031D02*
X2817801Y-2161508D01*
X2817801Y-2161508D02*
X2836848Y-2151984D01*
X2998753Y-2351984D02*
X3036848Y-2351984D01*
X3036848Y-2351984D02*
X3055896Y-2342460D01*
X3055896Y-2342460D02*
X3065420Y-2332936D01*
X3065420Y-2332936D02*
X3084467Y-2304365D01*
X3084467Y-2304365D02*
X3093991Y-2266270D01*
X3093991Y-2266270D02*
X3093991Y-2190079D01*
X3093991Y-2190079D02*
X3084467Y-2171031D01*
X3084467Y-2171031D02*
X3074944Y-2161508D01*
X3074944Y-2161508D02*
X3055896Y-2151984D01*
X3055896Y-2151984D02*
X3017801Y-2151984D01*
X3017801Y-2151984D02*
X2998753Y-2161508D01*
X2998753Y-2161508D02*
X2989229Y-2171031D01*
X2989229Y-2171031D02*
X2979706Y-2190079D01*
X2979706Y-2190079D02*
X2979706Y-2237698D01*
X2979706Y-2237698D02*
X2989229Y-2256746D01*
X2989229Y-2256746D02*
X2998753Y-2266270D01*
X2998753Y-2266270D02*
X3017801Y-2275793D01*
X3017801Y-2275793D02*
X3055896Y-2275793D01*
X3055896Y-2275793D02*
X3074944Y-2266270D01*
X3074944Y-2266270D02*
X3084467Y-2256746D01*
X3084467Y-2256746D02*
X3093991Y-2237698D01*
X3217801Y-2151984D02*
X3236848Y-2151984D01*
X3236848Y-2151984D02*
X3255896Y-2161508D01*
X3255896Y-2161508D02*
X3265420Y-2171031D01*
X3265420Y-2171031D02*
X3274944Y-2190079D01*
X3274944Y-2190079D02*
X3284467Y-2228174D01*
X3284467Y-2228174D02*
X3284467Y-2275793D01*
X3284467Y-2275793D02*
X3274944Y-2313889D01*
X3274944Y-2313889D02*
X3265420Y-2332936D01*
X3265420Y-2332936D02*
X3255896Y-2342460D01*
X3255896Y-2342460D02*
X3236848Y-2351984D01*
X3236848Y-2351984D02*
X3217801Y-2351984D01*
X3217801Y-2351984D02*
X3198753Y-2342460D01*
X3198753Y-2342460D02*
X3189229Y-2332936D01*
X3189229Y-2332936D02*
X3179706Y-2313889D01*
X3179706Y-2313889D02*
X3170182Y-2275793D01*
X3170182Y-2275793D02*
X3170182Y-2228174D01*
X3170182Y-2228174D02*
X3179706Y-2190079D01*
X3179706Y-2190079D02*
X3189229Y-2171031D01*
X3189229Y-2171031D02*
X3198753Y-2161508D01*
X3198753Y-2161508D02*
X3217801Y-2151984D01*
X3455896Y-2151984D02*
X3417801Y-2151984D01*
X3417801Y-2151984D02*
X3398753Y-2161508D01*
X3398753Y-2161508D02*
X3389229Y-2171031D01*
X3389229Y-2171031D02*
X3370182Y-2199603D01*
X3370182Y-2199603D02*
X3360658Y-2237698D01*
X3360658Y-2237698D02*
X3360658Y-2313889D01*
X3360658Y-2313889D02*
X3370182Y-2332936D01*
X3370182Y-2332936D02*
X3379706Y-2342460D01*
X3379706Y-2342460D02*
X3398753Y-2351984D01*
X3398753Y-2351984D02*
X3436848Y-2351984D01*
X3436848Y-2351984D02*
X3455896Y-2342460D01*
X3455896Y-2342460D02*
X3465420Y-2332936D01*
X3465420Y-2332936D02*
X3474944Y-2313889D01*
X3474944Y-2313889D02*
X3474944Y-2266270D01*
X3474944Y-2266270D02*
X3465420Y-2247222D01*
X3465420Y-2247222D02*
X3455896Y-2237698D01*
X3455896Y-2237698D02*
X3436848Y-2228174D01*
X3436848Y-2228174D02*
X3398753Y-2228174D01*
X3398753Y-2228174D02*
X3379706Y-2237698D01*
X3379706Y-2237698D02*
X3370182Y-2247222D01*
X3370182Y-2247222D02*
X3360658Y-2266270D01*
X3551134Y-2151984D02*
X3551134Y-2190079D01*
X3627325Y-2151984D02*
X3627325Y-2190079D01*
X3922563Y-2428174D02*
X3913039Y-2418650D01*
X3913039Y-2418650D02*
X3893991Y-2390079D01*
X3893991Y-2390079D02*
X3884468Y-2371031D01*
X3884468Y-2371031D02*
X3874944Y-2342460D01*
X3874944Y-2342460D02*
X3865420Y-2294841D01*
X3865420Y-2294841D02*
X3865420Y-2256746D01*
X3865420Y-2256746D02*
X3874944Y-2209127D01*
X3874944Y-2209127D02*
X3884468Y-2180555D01*
X3884468Y-2180555D02*
X3893991Y-2161508D01*
X3893991Y-2161508D02*
X3913039Y-2132936D01*
X3913039Y-2132936D02*
X3922563Y-2123412D01*
X3989229Y-2171031D02*
X3998753Y-2161508D01*
X3998753Y-2161508D02*
X4017801Y-2151984D01*
X4017801Y-2151984D02*
X4065420Y-2151984D01*
X4065420Y-2151984D02*
X4084468Y-2161508D01*
X4084468Y-2161508D02*
X4093991Y-2171031D01*
X4093991Y-2171031D02*
X4103515Y-2190079D01*
X4103515Y-2190079D02*
X4103515Y-2209127D01*
X4103515Y-2209127D02*
X4093991Y-2237698D01*
X4093991Y-2237698D02*
X3979706Y-2351984D01*
X3979706Y-2351984D02*
X4103515Y-2351984D01*
X4341611Y-2351984D02*
X4341611Y-2151984D01*
X4427325Y-2351984D02*
X4427325Y-2247222D01*
X4427325Y-2247222D02*
X4417801Y-2228174D01*
X4417801Y-2228174D02*
X4398753Y-2218650D01*
X4398753Y-2218650D02*
X4370182Y-2218650D01*
X4370182Y-2218650D02*
X4351134Y-2228174D01*
X4351134Y-2228174D02*
X4341611Y-2237698D01*
X4551134Y-2351984D02*
X4532087Y-2342460D01*
X4532087Y-2342460D02*
X4522563Y-2332936D01*
X4522563Y-2332936D02*
X4513039Y-2313889D01*
X4513039Y-2313889D02*
X4513039Y-2256746D01*
X4513039Y-2256746D02*
X4522563Y-2237698D01*
X4522563Y-2237698D02*
X4532087Y-2228174D01*
X4532087Y-2228174D02*
X4551134Y-2218650D01*
X4551134Y-2218650D02*
X4579706Y-2218650D01*
X4579706Y-2218650D02*
X4598753Y-2228174D01*
X4598753Y-2228174D02*
X4608277Y-2237698D01*
X4608277Y-2237698D02*
X4617801Y-2256746D01*
X4617801Y-2256746D02*
X4617801Y-2313889D01*
X4617801Y-2313889D02*
X4608277Y-2332936D01*
X4608277Y-2332936D02*
X4598753Y-2342460D01*
X4598753Y-2342460D02*
X4579706Y-2351984D01*
X4579706Y-2351984D02*
X4551134Y-2351984D01*
X4732087Y-2351984D02*
X4713039Y-2342460D01*
X4713039Y-2342460D02*
X4703515Y-2323412D01*
X4703515Y-2323412D02*
X4703515Y-2151984D01*
X4884468Y-2342460D02*
X4865420Y-2351984D01*
X4865420Y-2351984D02*
X4827325Y-2351984D01*
X4827325Y-2351984D02*
X4808277Y-2342460D01*
X4808277Y-2342460D02*
X4798753Y-2323412D01*
X4798753Y-2323412D02*
X4798753Y-2247222D01*
X4798753Y-2247222D02*
X4808277Y-2228174D01*
X4808277Y-2228174D02*
X4827325Y-2218650D01*
X4827325Y-2218650D02*
X4865420Y-2218650D01*
X4865420Y-2218650D02*
X4884468Y-2228174D01*
X4884468Y-2228174D02*
X4893992Y-2247222D01*
X4893992Y-2247222D02*
X4893992Y-2266270D01*
X4893992Y-2266270D02*
X4798753Y-2285317D01*
X4970182Y-2342460D02*
X4989230Y-2351984D01*
X4989230Y-2351984D02*
X5027325Y-2351984D01*
X5027325Y-2351984D02*
X5046373Y-2342460D01*
X5046373Y-2342460D02*
X5055896Y-2323412D01*
X5055896Y-2323412D02*
X5055896Y-2313889D01*
X5055896Y-2313889D02*
X5046373Y-2294841D01*
X5046373Y-2294841D02*
X5027325Y-2285317D01*
X5027325Y-2285317D02*
X4998753Y-2285317D01*
X4998753Y-2285317D02*
X4979706Y-2275793D01*
X4979706Y-2275793D02*
X4970182Y-2256746D01*
X4970182Y-2256746D02*
X4970182Y-2247222D01*
X4970182Y-2247222D02*
X4979706Y-2228174D01*
X4979706Y-2228174D02*
X4998753Y-2218650D01*
X4998753Y-2218650D02*
X5027325Y-2218650D01*
X5027325Y-2218650D02*
X5046373Y-2228174D01*
X5122563Y-2428174D02*
X5132087Y-2418650D01*
X5132087Y-2418650D02*
X5151134Y-2390079D01*
X5151134Y-2390079D02*
X5160658Y-2371031D01*
X5160658Y-2371031D02*
X5170182Y-2342460D01*
X5170182Y-2342460D02*
X5179706Y-2294841D01*
X5179706Y-2294841D02*
X5179706Y-2256746D01*
X5179706Y-2256746D02*
X5170182Y-2209127D01*
X5170182Y-2209127D02*
X5160658Y-2180555D01*
X5160658Y-2180555D02*
X5151134Y-2161508D01*
X5151134Y-2161508D02*
X5132087Y-2132936D01*
X5132087Y-2132936D02*
X5122563Y-2123412D01*
M02*
