M48
; DRILL file {KiCad 9.0.1} date 2025-10-11T14:42:30-0400
; FORMAT={-:-/ absolute / metric / decimal}
; #@! TF.CreationDate,2025-10-11T14:42:30-04:00
; #@! TF.GenerationSoftware,Kicad,Pcbnew,9.0.1
; #@! TF.FileFunction,Plated,1,2,PTH
FMAT,2
METRIC
; #@! TA.AperFunction,Plated,PTH,ComponentDrill
T1C0.800
; #@! TA.AperFunction,Plated,PTH,ComponentDrill
T2C0.900
; #@! TA.AperFunction,Plated,PTH,ComponentDrill
T3C0.950
; #@! TA.AperFunction,Plated,PTH,ViaDrill
T4C1.000
; #@! TA.AperFunction,Plated,PTH,ComponentDrill
T5C1.000
; #@! TA.AperFunction,Plated,PTH,ComponentDrill
T6C1.100
; #@! TA.AperFunction,Plated,PTH,ComponentDrill
T7C1.300
; #@! TA.AperFunction,Plated,PTH,ComponentDrill
T8C1.500
; #@! TA.AperFunction,Plated,PTH,ComponentDrill
T9C2.300
%
G90
G05
T1
X17.5Y124.78
X17.5Y114.62
X17.55Y182.48
X17.55Y172.32
X18.05Y153.08
X18.05Y142.92
X19.0Y134.7
X19.25Y192.8
X19.8Y163.0
X21.11Y101.31
X21.5Y134.7
X21.5Y125.0
X21.5Y114.84
X21.75Y192.8
X22.05Y182.48
X22.05Y172.32
X22.05Y153.08
X22.05Y142.92
X22.3Y163.0
X24.69Y96.31
X24.69Y93.77
X24.69Y91.23
X24.69Y88.69
X26.19Y63.815
X26.19Y56.195
X26.24Y164.5
X26.74Y192.9
X27.19Y138.2
X28.73Y63.815
X28.73Y56.195
X31.27Y101.31
X31.27Y63.815
X31.27Y56.195
X32.31Y96.31
X32.31Y93.77
X32.31Y91.23
X32.31Y88.69
X32.525Y42.69
X33.81Y63.815
X33.81Y56.195
X33.84Y132.7
X33.86Y164.5
X33.97Y187.4
X33.97Y159.5
X34.36Y192.9
X34.81Y138.2
X36.65Y94.0
X42.685Y42.69
X44.0Y132.7
X44.13Y187.4
X44.13Y159.5
X46.38Y47.5
X46.38Y44.96
X46.38Y42.42
X46.38Y39.88
X46.81Y94.0
X53.185Y70.31
X53.185Y67.77
X53.185Y65.23
X53.185Y62.69
X54.0Y47.5
X54.0Y44.96
X54.0Y42.42
X54.0Y39.88
X58.5Y94.04
X58.5Y91.5
X58.5Y88.96
X58.5Y86.42
X60.805Y70.31
X60.805Y67.77
X60.805Y65.23
X60.805Y62.69
X66.12Y94.04
X66.12Y91.5
X66.12Y88.96
X66.12Y86.42
X69.62Y156.93
X69.62Y149.93
X70.0Y32.0
X70.0Y21.84
X71.595Y138.11
X72.12Y156.93
X72.12Y149.93
X74.525Y58.6
X74.605Y65.6
X74.605Y62.1
X74.605Y55.1
X76.595Y179.61
X81.755Y138.11
X82.5Y32.0
X82.5Y21.84
X84.435Y136.61
X84.685Y58.6
X84.765Y65.6
X84.765Y62.1
X84.765Y55.1
X86.755Y179.61
X87.0Y175.51
X87.0Y172.97
X87.0Y170.43
X87.0Y167.89
X87.0Y165.35
X87.0Y162.81
X87.0Y160.27
X87.0Y157.73
X87.0Y155.19
X87.0Y152.65
X87.0Y150.11
X87.0Y147.57
X87.0Y145.03
X87.0Y142.49
X88.195Y66.39
X88.195Y63.85
X88.195Y61.31
X88.195Y58.77
X88.195Y56.23
X88.195Y53.69
X88.195Y51.15
X88.195Y48.61
X94.595Y136.61
X94.62Y175.51
X94.62Y172.97
X94.62Y170.43
X94.62Y167.89
X94.62Y165.35
X94.62Y162.81
X94.62Y160.27
X94.62Y157.73
X94.62Y155.19
X94.62Y152.65
X94.62Y150.11
X94.62Y147.57
X94.62Y145.03
X94.62Y142.49
X94.765Y32.08
X94.765Y21.92
X95.815Y66.39
X95.815Y63.85
X95.815Y61.31
X95.815Y58.77
X95.815Y56.23
X95.815Y53.69
X95.815Y51.15
X95.815Y48.61
X98.0Y38.5
X99.105Y58.6
X100.57Y100.195
X100.57Y92.575
X103.11Y100.195
X103.11Y92.575
X105.65Y100.195
X105.65Y92.575
X107.095Y141.61
X107.095Y131.45
X108.16Y38.5
X108.19Y100.195
X108.19Y92.575
X109.265Y58.6
X109.76Y76.95
X109.84Y72.95
X110.73Y100.195
X110.73Y92.575
X111.69Y116.38
X111.69Y106.22
X112.0Y32.58
X112.0Y22.42
X113.27Y100.195
X113.27Y92.575
X115.5Y32.58
X115.5Y22.42
X115.81Y100.195
X115.81Y92.575
X119.92Y76.95
X120.0Y72.95
X124.5Y32.08
X124.5Y21.92
X128.5Y32.16
X128.5Y22.0
X130.15Y100.195
X130.15Y92.575
X130.38Y75.4
X130.38Y72.86
X130.38Y70.32
X130.38Y67.78
X130.38Y65.24
X130.38Y62.7
X130.38Y60.16
X130.38Y57.62
X130.38Y55.08
X130.38Y52.54
X130.38Y50.0
X130.38Y47.46
X130.38Y44.92
X130.38Y42.38
X132.5Y32.08
X132.5Y21.92
X132.69Y100.195
X132.69Y92.575
X134.42Y184.0
X134.42Y176.38
X134.76Y145.0
X134.76Y137.38
X135.23Y100.195
X135.23Y92.575
X136.5Y115.08
X136.5Y104.92
X136.5Y32.16
X136.5Y22.0
X136.96Y184.0
X136.96Y176.38
X137.12Y128.46
X137.12Y118.3
X137.3Y145.0
X137.3Y137.38
X137.77Y100.195
X137.77Y92.575
X138.0Y75.4
X138.0Y72.86
X138.0Y70.32
X138.0Y67.78
X138.0Y65.24
X138.0Y62.7
X138.0Y60.16
X138.0Y57.62
X138.0Y55.08
X138.0Y52.54
X138.0Y50.0
X138.0Y47.46
X138.0Y44.92
X138.0Y42.38
X138.26Y37.95
X139.5Y184.0
X139.5Y176.38
X139.84Y145.0
X139.84Y137.38
X140.31Y100.195
X140.31Y92.575
X142.04Y184.0
X142.04Y176.38
X142.38Y145.0
X142.38Y137.38
X142.5Y162.5
X142.5Y160.0
X142.85Y100.195
X142.85Y92.575
X144.92Y145.0
X144.92Y137.38
X145.39Y100.195
X145.39Y92.575
X147.46Y145.0
X147.46Y137.38
X147.84Y75.95
X148.42Y37.95
X149.5Y162.5
X149.5Y160.0
X149.88Y65.54
X150.0Y145.0
X150.0Y137.38
X150.38Y58.04
X152.38Y65.54
X152.54Y145.0
X152.54Y137.38
X152.88Y58.04
X155.08Y145.0
X155.08Y137.38
X157.62Y145.0
X157.62Y137.38
X158.0Y75.95
X158.65Y100.51
X158.65Y92.89
X160.16Y145.0
X160.16Y137.38
X161.19Y100.51
X161.19Y92.89
X162.7Y145.0
X162.7Y137.38
X163.73Y100.51
X163.73Y92.89
X165.24Y145.0
X165.24Y137.38
X166.27Y100.51
X166.27Y92.89
X167.78Y145.0
X167.78Y137.38
X168.81Y100.51
X168.81Y92.89
X168.81Y89.09
X168.81Y78.93
X171.35Y100.51
X171.35Y92.89
X172.16Y150.0
X172.31Y89.25
X172.31Y79.09
X173.89Y100.51
X173.89Y92.89
X174.189Y51.712
X174.189Y41.552
X176.5Y21.5
X176.5Y11.34
X182.32Y150.0
X185.574Y70.722
X185.574Y68.182
X185.574Y65.642
X185.574Y63.102
X185.574Y60.562
X185.574Y58.023
X185.574Y55.482
X185.574Y52.942
X185.574Y50.402
X185.574Y47.862
X185.574Y45.322
X185.574Y42.782
X185.574Y40.242
X185.574Y37.703
X188.5Y95.5
X188.5Y93.5
X188.5Y91.5
X200.814Y70.722
X200.814Y68.182
X200.814Y65.642
X200.814Y63.102
X200.814Y60.562
X200.814Y58.023
X200.814Y55.482
X200.814Y52.942
X200.814Y50.402
X200.814Y47.862
X200.814Y45.322
X200.814Y42.782
X200.814Y40.242
X200.814Y37.703
X214.189Y70.712
X214.189Y60.552
X215.0Y137.037
X215.0Y126.877
X221.25Y132.957
X223.75Y132.957
X226.5Y61.58
X226.5Y51.42
X226.5Y43.58
X226.5Y33.42
X229.5Y134.707
X229.5Y132.207
T2
X19.0Y129.2
X19.78Y186.9
X19.78Y157.0
X21.54Y129.2
X22.32Y186.9
X22.32Y157.0
X178.189Y40.212
X180.729Y40.212
X208.649Y57.212
X211.189Y57.212
X215.96Y121.957
X218.5Y121.957
T3
X217.939Y14.0
X217.939Y12.0
X220.439Y14.0
X220.439Y12.0
T4
X17.0Y49.5
X19.5Y86.0
X36.5Y78.0
X38.5Y59.0
X41.5Y81.0
X42.5Y169.5
X53.0Y93.5
X56.0Y176.0
X61.0Y48.5
X61.5Y168.0
X64.5Y43.5
X64.5Y40.0
X79.5Y50.5
X82.5Y102.0
X84.5Y78.5
X91.0Y190.5
X93.0Y180.0
X93.5Y78.5
X106.0Y45.5
X113.0Y46.5
X115.0Y177.0
X115.5Y122.0
X119.0Y105.0
X119.0Y18.0
X119.5Y97.0
X120.5Y86.0
X120.75Y45.75
X121.0Y90.0
X124.5Y136.0
X127.0Y131.5
X127.5Y90.0
X129.5Y121.0
X134.5Y169.0
X134.5Y154.5
X136.0Y161.5
X137.5Y8.5
X138.5Y82.5
X139.0Y87.5
X140.5Y19.5
X141.5Y190.0
X146.5Y179.5
X149.5Y192.0
X149.5Y73.0
X151.35Y95.15
X151.5Y34.0
X153.0Y187.0
X157.5Y159.5
X159.5Y87.5
X160.0Y124.5
X160.0Y31.5
X161.0Y15.0
X161.5Y86.0
X162.0Y82.5
X164.5Y153.5
X165.0Y159.5
X172.0Y153.5
X172.0Y144.0
X176.0Y130.0
X178.426Y79.0
X178.5Y81.0
X181.0Y103.5
X183.0Y95.5
X184.5Y129.5
X189.0Y127.0
X189.5Y137.0
X192.0Y107.5
X200.0Y166.0
X200.5Y107.5
X204.0Y160.5
X204.75Y100.75
X207.5Y101.0
T5
X19.925Y30.32
X19.925Y25.32
X20.48Y52.0
X25.48Y52.0
X25.615Y32.03
X26.0Y72.5
X26.0Y67.5
X28.5Y117.0
X29.05Y146.5
X30.615Y32.03
X31.55Y173.9
X33.5Y117.0
X34.05Y146.5
X36.55Y173.9
X37.0Y102.31
X37.0Y97.31
X41.025Y39.19
X41.025Y34.19
X44.0Y102.5
X44.0Y97.5
X45.415Y61.53
X50.0Y169.69
X50.0Y167.15
X50.0Y164.61
X50.0Y162.07
X50.415Y61.53
X54.0Y84.5
X54.0Y79.5
X56.5Y171.0
X56.5Y168.46
X59.525Y39.69
X59.525Y34.69
X63.435Y59.96
X63.435Y54.96
X66.5Y166.0
X66.5Y161.0
X68.83Y84.05
X70.96Y18.0
X71.0Y163.0
X72.5Y178.5
X72.5Y175.96
X72.5Y173.42
X73.5Y18.0
X73.83Y84.05
X76.0Y163.0
X76.62Y156.43
X76.62Y151.43
X81.12Y175.59
X81.12Y173.05
X81.12Y170.51
X81.12Y167.97
X81.12Y165.43
X81.12Y162.89
X81.12Y150.24
X81.12Y147.7
X81.12Y145.16
X81.12Y142.62
X84.46Y18.0
X87.0Y18.0
X92.5Y109.0
X92.5Y104.0
X95.725Y18.0
X98.265Y18.0
X99.5Y109.105
X99.5Y104.105
X101.12Y175.63
X101.12Y173.09
X101.12Y170.55
X101.12Y168.01
X101.12Y165.47
X101.12Y162.93
X101.12Y152.51
X101.12Y149.97
X101.12Y147.43
X101.12Y144.89
X101.12Y142.35
X105.0Y160.5
X105.0Y155.0
X107.18Y17.975
X109.72Y17.975
X110.0Y160.5
X110.0Y155.0
X112.0Y41.5
X112.0Y38.96
X112.26Y17.975
X114.8Y17.975
X116.0Y63.0
X116.0Y57.5
X121.0Y63.0
X121.0Y57.5
X121.5Y188.5
X121.5Y183.5
X122.42Y18.08
X124.38Y75.7
X124.38Y73.16
X124.38Y70.62
X124.38Y68.08
X124.38Y65.54
X124.38Y55.16
X124.38Y52.62
X124.38Y50.08
X124.38Y47.54
X124.38Y45.0
X124.38Y42.46
X124.5Y110.0
X124.5Y105.0
X124.96Y18.08
X127.5Y188.5
X127.5Y183.5
X127.5Y18.08
X130.04Y18.08
X130.25Y109.77
X130.25Y104.77
X132.58Y18.08
X134.58Y132.38
X135.04Y150.38
X137.12Y132.38
X137.58Y150.38
X139.66Y132.38
X140.12Y150.38
X141.0Y171.0
X142.2Y132.38
X142.66Y150.38
X143.88Y76.12
X143.88Y73.58
X143.88Y71.04
X143.88Y68.5
X143.88Y55.16
X143.88Y52.62
X143.88Y50.08
X143.88Y47.54
X143.88Y45.0
X143.88Y42.46
X144.05Y155.5
X144.74Y132.38
X145.88Y64.54
X145.88Y59.54
X145.96Y22.5
X146.0Y171.0
X148.0Y128.0
X148.0Y123.0
X148.5Y22.5
X149.05Y155.5
X151.04Y22.5
X152.0Y155.5
X153.5Y128.0
X153.5Y123.0
X154.77Y132.38
X155.0Y150.38
X156.5Y57.5
X156.5Y52.0
X157.0Y155.5
X157.31Y132.38
X157.54Y150.38
X158.5Y109.5
X158.5Y104.5
X159.85Y132.38
X160.08Y150.38
X161.5Y57.5
X161.5Y52.0
X162.39Y132.38
X162.62Y150.38
X163.7Y21.5
X164.5Y109.5
X164.5Y104.5
X164.93Y132.38
X165.16Y150.38
X167.47Y132.38
X167.7Y150.38
X169.0Y73.08
X169.0Y70.54
X169.0Y68.0
X171.3Y21.5
X172.96Y59.5
X175.5Y70.0
X175.5Y64.5
X175.5Y59.5
X176.75Y75.025
X179.29Y75.025
X180.5Y70.0
X180.5Y64.5
X196.0Y137.08
X196.0Y134.54
X196.0Y132.0
X196.0Y129.46
X196.0Y126.92
X198.54Y137.08
X198.54Y134.54
X198.54Y132.0
X198.54Y129.46
X198.54Y126.92
X204.689Y19.212
X207.289Y44.212
X207.389Y50.312
X209.689Y19.212
X212.289Y44.212
X212.389Y50.312
X214.689Y19.212
X219.689Y19.212
X222.5Y122.957
X227.5Y122.957
T6
X29.5Y131.9
X29.5Y130.2
X29.5Y128.5
X29.5Y126.8
X29.5Y125.1
X30.0Y187.3
X30.0Y185.6
X30.0Y183.9
X30.0Y182.2
X30.0Y180.5
X30.5Y159.4
X30.5Y157.7
X30.5Y156.0
X30.5Y154.3
X30.5Y152.6
T7
X78.25Y189.5
X84.75Y189.5
X151.67Y40.95
X158.17Y40.95
X182.5Y144.25
X182.5Y137.75
X220.0Y47.25
X220.0Y40.75
T8
X188.5Y97.6
X188.5Y89.4
T9
X213.189Y9.14
X225.189Y9.14
T5
X222.0Y111.5G85X222.0Y113.5
G05
X226.0Y117.2G85X224.0Y117.2
G05
X228.0Y111.5G85X228.0Y113.5
G05
M30
