%TF.GenerationSoftware,KiCad,Pcbnew,9.0.1*%
%TF.CreationDate,2025-10-10T21:54:14-04:00*%
%TF.ProjectId,snake_pcb,736e616b-655f-4706-9362-2e6b69636164,rev?*%
%TF.SameCoordinates,Original*%
%TF.FileFunction,Copper,L2,Inr*%
%TF.FilePolarity,Positive*%
%FSLAX46Y46*%
G04 Gerber Fmt 4.6, Leading zero omitted, Abs format (unit mm)*
G04 Created by KiCad (PCBNEW 9.0.1) date 2025-10-10 21:54:14*
%MOMM*%
%LPD*%
G01*
G04 APERTURE LIST*
G04 Aperture macros list*
%AMRoundRect*
0 Rectangle with rounded corners*
0 $1 Rounding radius*
0 $2 $3 $4 $5 $6 $7 $8 $9 X,Y pos of 4 corners*
0 Add a 4 corners polygon primitive as box body*
4,1,4,$2,$3,$4,$5,$6,$7,$8,$9,$2,$3,0*
0 Add four circle primitives for the rounded corners*
1,1,$1+$1,$2,$3*
1,1,$1+$1,$4,$5*
1,1,$1+$1,$6,$7*
1,1,$1+$1,$8,$9*
0 Add four rect primitives between the rounded corners*
20,1,$1+$1,$2,$3,$4,$5,0*
20,1,$1+$1,$4,$5,$6,$7,0*
20,1,$1+$1,$6,$7,$8,$9,0*
20,1,$1+$1,$8,$9,$2,$3,0*%
G04 Aperture macros list end*
%TA.AperFunction,ComponentPad*%
%ADD10C,1.600000*%
%TD*%
%TA.AperFunction,ComponentPad*%
%ADD11O,1.600000X1.600000*%
%TD*%
%TA.AperFunction,ComponentPad*%
%ADD12R,1.700000X1.700000*%
%TD*%
%TA.AperFunction,ComponentPad*%
%ADD13C,1.700000*%
%TD*%
%TA.AperFunction,ComponentPad*%
%ADD14RoundRect,0.250000X-0.550000X-0.550000X0.550000X-0.550000X0.550000X0.550000X-0.550000X0.550000X0*%
%TD*%
%TA.AperFunction,ComponentPad*%
%ADD15R,1.800000X1.800000*%
%TD*%
%TA.AperFunction,ComponentPad*%
%ADD16C,1.800000*%
%TD*%
%TA.AperFunction,ComponentPad*%
%ADD17O,2.200000X3.500000*%
%TD*%
%TA.AperFunction,ComponentPad*%
%ADD18R,1.500000X2.500000*%
%TD*%
%TA.AperFunction,ComponentPad*%
%ADD19O,1.500000X2.500000*%
%TD*%
%TA.AperFunction,ComponentPad*%
%ADD20RoundRect,0.250000X0.550000X-0.550000X0.550000X0.550000X-0.550000X0.550000X-0.550000X-0.550000X0*%
%TD*%
%TA.AperFunction,ComponentPad*%
%ADD21R,2.000000X2.000000*%
%TD*%
%TA.AperFunction,ComponentPad*%
%ADD22C,2.000000*%
%TD*%
%TA.AperFunction,ComponentPad*%
%ADD23R,3.500000X3.500000*%
%TD*%
%TA.AperFunction,ComponentPad*%
%ADD24RoundRect,0.750000X0.750000X1.000000X-0.750000X1.000000X-0.750000X-1.000000X0.750000X-1.000000X0*%
%TD*%
%TA.AperFunction,ComponentPad*%
%ADD25RoundRect,0.875000X0.875000X0.875000X-0.875000X0.875000X-0.875000X-0.875000X0.875000X-0.875000X0*%
%TD*%
%TA.AperFunction,ComponentPad*%
%ADD26R,2.250000X2.250000*%
%TD*%
%TA.AperFunction,ComponentPad*%
%ADD27C,2.250000*%
%TD*%
%TA.AperFunction,ComponentPad*%
%ADD28RoundRect,0.250000X-0.950000X-0.550000X0.950000X-0.550000X0.950000X0.550000X-0.950000X0.550000X0*%
%TD*%
%TA.AperFunction,ComponentPad*%
%ADD29O,2.400000X1.600000*%
%TD*%
%TA.AperFunction,ComponentPad*%
%ADD30R,1.275000X1.800000*%
%TD*%
%TA.AperFunction,ComponentPad*%
%ADD31O,1.275000X1.800000*%
%TD*%
%TA.AperFunction,ComponentPad*%
%ADD32RoundRect,0.250000X0.550000X0.550000X-0.550000X0.550000X-0.550000X-0.550000X0.550000X-0.550000X0*%
%TD*%
%TA.AperFunction,ComponentPad*%
%ADD33R,1.600000X1.600000*%
%TD*%
%TA.AperFunction,ComponentPad*%
%ADD34C,4.000000*%
%TD*%
%TA.AperFunction,ComponentPad*%
%ADD35RoundRect,0.250000X-0.600000X0.600000X-0.600000X-0.600000X0.600000X-0.600000X0.600000X0.600000X0*%
%TD*%
%TA.AperFunction,ViaPad*%
%ADD36C,1.000000*%
%TD*%
%TA.AperFunction,ViaPad*%
%ADD37C,1.500000*%
%TD*%
%TA.AperFunction,Conductor*%
%ADD38C,0.500000*%
%TD*%
G04 APERTURE END LIST*
D10*
%TO.N,VCC*%
%TO.C,R21*%
X147305000Y141430000D03*
D11*
%TO.N,/grid/PB2*%
X147305000Y131270000D03*
%TD*%
D12*
%TO.N,GND*%
%TO.C,J29*%
X200010000Y109130000D03*
D13*
%TO.N,Net-(J12-Pin_1)*%
X200010000Y111670000D03*
%TO.N,/grid/USART_CLK*%
X200010000Y114210000D03*
%TO.N,VCC_LED_GRID*%
X200010000Y116750000D03*
%TD*%
D12*
%TO.N,/game/SCL_GAME*%
%TO.C,J10*%
X38780000Y85210000D03*
D13*
%TO.N,/game/SDA_GAME*%
X38780000Y87750000D03*
%TO.N,VCC*%
X38780000Y90290000D03*
%TO.N,GND*%
X38780000Y92830000D03*
%TD*%
D14*
%TO.N,/grid/SRAM_CS*%
%TO.C,23A1024/23LC1*%
X192915000Y136260000D03*
D10*
%TO.N,/grid/MISO_GRID*%
X192915000Y133720000D03*
%TO.N,Net-(23A1024/23LC1-SIO2)*%
X192915000Y131180000D03*
%TO.N,GND*%
X192915000Y128640000D03*
%TO.N,/grid/MOSI_GRID*%
X200535000Y128640000D03*
%TO.N,/grid/SCK_GRID*%
X200535000Y131180000D03*
%TO.N,/grid/SRAM_HOLD*%
X200535000Y133720000D03*
%TO.N,VCC*%
X200535000Y136260000D03*
%TD*%
D15*
%TO.N,Net-(D5-K)*%
%TO.C,D5*%
X190010000Y174750000D03*
D16*
%TO.N,Net-(D5-A)*%
X190010000Y172210000D03*
%TD*%
D10*
%TO.N,Net-(D5-A)*%
%TO.C,47uF3*%
X195510000Y172250000D03*
%TO.N,GND*%
X195510000Y174750000D03*
%TD*%
D12*
%TO.N,/game/RESET_GAME*%
%TO.C,J17*%
X67765000Y104280000D03*
D13*
%TO.N,/game/RXD_GAME*%
X67765000Y106820000D03*
%TO.N,/game/TXD_GAME*%
X67765000Y109360000D03*
%TO.N,/game/J_UP*%
X67765000Y111900000D03*
%TO.N,/game/J_DOWN*%
X67765000Y114440000D03*
%TO.N,/game/J_LEFT*%
X67765000Y116980000D03*
%TD*%
D14*
%TO.N,/programmer/MOSI*%
%TO.C,U4*%
X81500000Y45890000D03*
D10*
%TO.N,/grid/MOSI_GRID*%
X81500000Y43350000D03*
%TO.N,/game/MOSI_GAME*%
X81500000Y40810000D03*
%TO.N,/programmer/MOSI*%
X81500000Y38270000D03*
%TO.N,/programmer/GAME_SIGNAL*%
X81500000Y35730000D03*
%TO.N,/programmer/EXT_SIGNAL*%
X81500000Y33190000D03*
%TO.N,GND*%
X81500000Y30650000D03*
%TO.N,/programmer/MOSI*%
X89120000Y30650000D03*
%TO.N,/programmer/MOSI_EXT*%
X89120000Y33190000D03*
%TO.N,unconnected-(U4-Pad10)*%
X89120000Y35730000D03*
%TO.N,unconnected-(U4-Pad11)*%
X89120000Y38270000D03*
%TO.N,unconnected-(U4-Pad12)*%
X89120000Y40810000D03*
%TO.N,/programmer/GRID_SIGNAL*%
X89120000Y43350000D03*
%TO.N,VCC*%
X89120000Y45890000D03*
%TD*%
%TO.N,/grid/SRAM_HOLD*%
%TO.C,R19*%
X172645000Y134770000D03*
D11*
%TO.N,VCC*%
X182805000Y134770000D03*
%TD*%
D10*
%TO.N,VCC*%
%TO.C,R1*%
X33725000Y134770000D03*
D11*
%TO.N,/game/PB2*%
X43885000Y134770000D03*
%TD*%
D12*
%TO.N,/programmer/RXD*%
%TO.C,J1*%
X150305000Y82770000D03*
D13*
%TO.N,/converter/TXD_CONV*%
X152845000Y82770000D03*
%TD*%
D17*
%TO.N,*%
%TO.C,SW1*%
X182405000Y29270000D03*
X174205000Y29270000D03*
D18*
%TO.N,GND*%
X180305000Y29270000D03*
D19*
%TO.N,/programmer/EXT_SIGNAL*%
X178305000Y29270000D03*
%TO.N,VCC*%
X176305000Y29270000D03*
%TD*%
D14*
%TO.N,/programmer/RESET_PROG*%
%TO.C,U3*%
X119305000Y62890000D03*
D10*
%TO.N,/programmer/RXD*%
X119305000Y60350000D03*
%TO.N,/programmer/TXD*%
X119305000Y57810000D03*
%TO.N,/grid/RESET_GRID*%
X119305000Y55270000D03*
%TO.N,/game/RESET_GAME*%
X119305000Y52730000D03*
%TO.N,/converter/CLOCK*%
X119305000Y50190000D03*
%TO.N,VCC*%
X119305000Y47650000D03*
%TO.N,GND*%
X119305000Y45110000D03*
%TO.N,Net-(U3-PB6{slash}XTAL1)*%
X119305000Y42570000D03*
%TO.N,Net-(U3-PB7{slash}XTAL2)*%
X119305000Y40030000D03*
%TO.N,/grid/SRAM_CS*%
X119305000Y37490000D03*
%TO.N,/converter/WAKE_UP*%
X119305000Y34950000D03*
%TO.N,/game/FLASH_CS*%
X119305000Y32410000D03*
%TO.N,/programmer/PB0*%
X119305000Y29870000D03*
%TO.N,/programmer/PB1*%
X126925000Y29870000D03*
%TO.N,/programmer/PB2*%
X126925000Y32410000D03*
%TO.N,/programmer/MOSI*%
X126925000Y34950000D03*
%TO.N,/programmer/MISO*%
X126925000Y37490000D03*
%TO.N,/programmer/SCK*%
X126925000Y40030000D03*
%TO.N,VCC*%
X126925000Y42570000D03*
X126925000Y45110000D03*
%TO.N,GND*%
X126925000Y47650000D03*
%TO.N,/programmer/GRID_SIGNAL*%
X126925000Y50190000D03*
%TO.N,/programmer/GAME_SIGNAL*%
X126925000Y52730000D03*
%TO.N,/programmer/EXT_SIGNAL*%
X126925000Y55270000D03*
%TO.N,/converter/CTS_CONV*%
X126925000Y57810000D03*
%TO.N,/converter/RTS_CONV*%
X126925000Y60350000D03*
%TO.N,/programmer/PC5*%
X126925000Y62890000D03*
%TD*%
D12*
%TO.N,/programmer/TXD*%
%TO.C,J25*%
X153305000Y66770000D03*
D13*
%TO.N,/converter/RXD_CONV*%
X153305000Y69310000D03*
%TD*%
D10*
%TO.N,/programmer/EXT_SIGNAL*%
%TO.C,R6*%
X73465000Y80270000D03*
D11*
%TO.N,GND*%
X63305000Y80270000D03*
%TD*%
D12*
%TO.N,/game/SCL_GAME*%
%TO.C,J19*%
X48265000Y104280000D03*
D13*
%TO.N,/game/SDA_GAME*%
X48265000Y106820000D03*
%TO.N,/game/VIBRATOR*%
X48265000Y109360000D03*
%TO.N,/game/J_RIGHT*%
X48265000Y111900000D03*
%TO.N,/game/FLASH_WP*%
X48265000Y114440000D03*
%TO.N,/game/B_SELECT*%
X48265000Y116980000D03*
%TD*%
D14*
%TO.N,GND*%
%TO.C,U10*%
X60020000Y174040000D03*
D10*
%TO.N,Net-(U10-A1)*%
X60020000Y171500000D03*
%TO.N,Net-(U10-A2)*%
X60020000Y168960000D03*
%TO.N,/game/DIR_MCU_T_FLASH*%
X60020000Y166420000D03*
%TO.N,/game/DIR_FLASH_T_MCU*%
X60020000Y163880000D03*
%TO.N,unconnected-(U10-P2-Pad6)*%
X60020000Y161340000D03*
%TO.N,unconnected-(U10-P3-Pad7)*%
X60020000Y158800000D03*
%TO.N,GND*%
X60020000Y156260000D03*
%TO.N,unconnected-(U10-P4-Pad9)*%
X67640000Y156260000D03*
%TO.N,unconnected-(U10-P5-Pad10)*%
X67640000Y158800000D03*
%TO.N,unconnected-(U10-P6-Pad11)*%
X67640000Y161340000D03*
%TO.N,unconnected-(U10-P7-Pad12)*%
X67640000Y163880000D03*
%TO.N,Net-(U10-~{INT})*%
X67640000Y166420000D03*
%TO.N,/game/SCL_GAME*%
X67640000Y168960000D03*
%TO.N,/game/SDA_GAME*%
X67640000Y171500000D03*
%TO.N,VCC*%
X67640000Y174040000D03*
%TD*%
D15*
%TO.N,Net-(D2-K)*%
%TO.C,D2*%
X153845000Y51770000D03*
D16*
%TO.N,Net-(D2-A)*%
X151305000Y51770000D03*
%TD*%
D12*
%TO.N,/game/B_SELECT*%
%TO.C,J28*%
X38805000Y51250000D03*
D13*
%TO.N,GND*%
X38805000Y48710000D03*
%TD*%
D20*
%TO.N,VCC_LED_GRID*%
%TO.C,D8*%
X167110000Y156890000D03*
D10*
%TO.N,Net-(D4-A)*%
X167110000Y164510000D03*
%TD*%
D13*
%TO.N,Net-(U1-XTAL1{slash}PB6)*%
%TO.C,Y3*%
X177780000Y116450000D03*
%TO.N,Net-(U1-XTAL2{slash}PB7)*%
X177780000Y121450000D03*
%TD*%
D14*
%TO.N,/programmer/SCK*%
%TO.C,U7*%
X80500000Y93890000D03*
D10*
%TO.N,/grid/SCK_GRID*%
X80500000Y91350000D03*
%TO.N,/game/SCK_GAME*%
X80500000Y88810000D03*
%TO.N,/programmer/SCK*%
X80500000Y86270000D03*
%TO.N,/programmer/GAME_SIGNAL*%
X80500000Y83730000D03*
%TO.N,/programmer/EXT_SIGNAL*%
X80500000Y81190000D03*
%TO.N,GND*%
X80500000Y78650000D03*
%TO.N,/programmer/SCK*%
X88120000Y78650000D03*
%TO.N,/programmer/SCK_EXT*%
X88120000Y81190000D03*
%TO.N,unconnected-(U7-Pad10)*%
X88120000Y83730000D03*
%TO.N,unconnected-(U7-Pad11)*%
X88120000Y86270000D03*
%TO.N,unconnected-(U7-Pad12)*%
X88120000Y88810000D03*
%TO.N,/programmer/GRID_SIGNAL*%
X88120000Y91350000D03*
%TO.N,VCC*%
X88120000Y93890000D03*
%TD*%
D21*
%TO.N,/game/BUZZER_PWM*%
%TO.C,BZ1*%
X39610000Y158250000D03*
D22*
%TO.N,Net-(BZ1--)*%
X32010000Y158250000D03*
%TD*%
D10*
%TO.N,/game/B_START*%
%TO.C,R13*%
X42850000Y76710000D03*
D11*
%TO.N,VCC*%
X53010000Y76710000D03*
%TD*%
D10*
%TO.N,VCC*%
%TO.C,R22*%
X146005000Y32230000D03*
D11*
%TO.N,/programmer/PB2*%
X135845000Y32230000D03*
%TD*%
D12*
%TO.N,/game/B_STOP*%
%TO.C,J27*%
X38805000Y63810000D03*
D13*
%TO.N,GND*%
X38805000Y61270000D03*
%TD*%
D14*
%TO.N,/game/CS*%
%TO.C,U8*%
X122305000Y139270000D03*
D10*
%TO.N,/game/MISO*%
X122305000Y136730000D03*
%TO.N,/game/WP*%
X122305000Y134190000D03*
%TO.N,GND*%
X122305000Y131650000D03*
%TO.N,/game/MOSI*%
X129925000Y131650000D03*
%TO.N,/game/SCK*%
X129925000Y134190000D03*
%TO.N,/game/HOLD*%
X129925000Y136730000D03*
%TO.N,VCC*%
X129925000Y139270000D03*
%TD*%
%TO.N,VCC*%
%TO.C,R33*%
X95145000Y34770000D03*
D11*
%TO.N,/converter/WAKE_UP*%
X105305000Y34770000D03*
%TD*%
D10*
%TO.N,Net-(D5-K)*%
%TO.C,R39*%
X185590000Y176250000D03*
%TO.N,GND*%
X175430000Y176250000D03*
%TD*%
%TO.N,VCC*%
%TO.C,R37*%
X185590000Y172250000D03*
%TO.N,REG_EN_LOW*%
X175430000Y172250000D03*
%TD*%
D15*
%TO.N,Net-(D3-K)*%
%TO.C,D3*%
X196265000Y77770000D03*
D16*
%TO.N,VCC*%
X198805000Y77770000D03*
%TD*%
D23*
%TO.N,VCC*%
%TO.C,J4*%
X202305000Y68312500D03*
D24*
%TO.N,GND*%
X208305000Y68312500D03*
D25*
X205305000Y73012500D03*
%TD*%
D14*
%TO.N,Net-(MISO_SHIFTER1-VCCA)*%
%TO.C,MISO_SHIFTER1*%
X122500000Y105080000D03*
D10*
%TO.N,/game/MISO_GAME*%
X122500000Y102540000D03*
%TO.N,unconnected-(MISO_SHIFTER1-A3-Pad3)*%
X122500000Y100000000D03*
%TO.N,GND*%
X122500000Y97460000D03*
%TO.N,/game/DIR_FLASH_T_MCU*%
X130120000Y97460000D03*
%TO.N,unconnected-(MISO_SHIFTER1-B2-Pad6)*%
X130120000Y100000000D03*
%TO.N,/game/MISO*%
X130120000Y102540000D03*
%TO.N,3.3V*%
X130120000Y105080000D03*
%TD*%
D20*
%TO.N,VCC_LED_GRID*%
%TO.C,D6*%
X134010000Y160440000D03*
D10*
%TO.N,Net-(D6-A)*%
X134010000Y168060000D03*
%TD*%
D26*
%TO.N,Net-(U5-~{RESET})*%
%TO.C,SW5*%
X191555000Y58270000D03*
D27*
%TO.N,GND*%
X198055000Y58270000D03*
%TD*%
D28*
%TO.N,/converter/TXD_CONV*%
%TO.C,U5*%
X158690000Y82280000D03*
D29*
%TO.N,unconnected-(U5-DTR-Pad2)*%
X158690000Y79740000D03*
%TO.N,/converter/RTS_CONV*%
X158690000Y77200000D03*
%TO.N,VCC*%
X158690000Y74660000D03*
%TO.N,/converter/RXD_CONV*%
X158690000Y72120000D03*
%TO.N,unconnected-(U5-RI-Pad6)*%
X158690000Y69580000D03*
%TO.N,GND*%
X158690000Y67040000D03*
%TO.N,N/C*%
X158690000Y64500000D03*
%TO.N,unconnected-(U5-DCR-Pad9)*%
X158690000Y61960000D03*
%TO.N,unconnected-(U5-DCD-Pad10)*%
X158690000Y59420000D03*
%TO.N,/converter/CTS_CONV*%
X158690000Y56880000D03*
%TO.N,unconnected-(U5-CBUS4-Pad12)*%
X158690000Y54340000D03*
%TO.N,Net-(D2-K)*%
X158690000Y51800000D03*
%TO.N,/converter/WAKE_UP*%
X158690000Y49260000D03*
%TO.N,/converter/D+*%
X173930000Y49260000D03*
%TO.N,/converter/D-*%
X173930000Y51800000D03*
%TO.N,Net-(U5-3V3OUT)*%
X173930000Y54340000D03*
%TO.N,GND*%
X173930000Y56880000D03*
%TO.N,Net-(U5-~{RESET})*%
X173930000Y59420000D03*
%TO.N,VCC*%
X173930000Y61960000D03*
%TO.N,GND*%
X173930000Y64500000D03*
%TO.N,Net-(D1-K)*%
X173930000Y67040000D03*
%TO.N,/converter/CLOCK*%
X173930000Y69580000D03*
%TO.N,N/C*%
X173930000Y72120000D03*
%TO.N,GND*%
X173930000Y74660000D03*
X173930000Y77200000D03*
%TO.N,unconnected-(U5-OSCI-Pad27)*%
X173930000Y79740000D03*
%TO.N,unconnected-(U5-OSCO-Pad28)*%
X173930000Y82280000D03*
%TD*%
D12*
%TO.N,Net-(J8-Pin_1)*%
%TO.C,J8*%
X29010000Y126250000D03*
D13*
%TO.N,/game/VIBRATOR*%
X29010000Y123710000D03*
%TD*%
D10*
%TO.N,VCC*%
%TO.C,4.7uF1*%
X201555000Y88770000D03*
%TO.N,GND*%
X204055000Y88770000D03*
%TD*%
D22*
%TO.N,/converter/D+*%
%TO.C,C43*%
X175305000Y45270000D03*
%TO.N,GND*%
X175305000Y40270000D03*
%TD*%
D10*
%TO.N,Net-(D6-A)*%
%TO.C,47uF1*%
X132510000Y172000000D03*
%TO.N,GND*%
X132510000Y174500000D03*
%TD*%
D30*
%TO.N,REG_EN_LOW*%
%TO.C,TPS75533KCG3*%
X185910000Y164250000D03*
D31*
%TO.N,VCC*%
X187610000Y164250000D03*
%TO.N,GND*%
X189310000Y164250000D03*
%TO.N,Net-(D5-A)*%
X191010000Y164250000D03*
%TO.N,PG*%
X192710000Y164250000D03*
%TD*%
D10*
%TO.N,Net-(J8-Pin_1)*%
%TO.C,R41*%
X29010000Y131170000D03*
%TO.N,GND*%
X29010000Y141330000D03*
%TD*%
D14*
%TO.N,Net-(WP_SHIFTER1-VCCA)*%
%TO.C,WP_SHIFTER1*%
X97830000Y117580000D03*
D10*
%TO.N,/game/FLASH_WP*%
X97830000Y115040000D03*
%TO.N,unconnected-(WP_SHIFTER1-A3-Pad3)*%
X97830000Y112500000D03*
%TO.N,GND*%
X97830000Y109960000D03*
%TO.N,/game/DIR_MCU_T_FLASH*%
X105450000Y109960000D03*
%TO.N,unconnected-(WP_SHIFTER1-B2-Pad6)*%
X105450000Y112500000D03*
%TO.N,/game/WP*%
X105450000Y115040000D03*
%TO.N,3.3V*%
X105450000Y117580000D03*
%TD*%
%TO.N,/game/DIR_MCU_T_FLASH*%
%TO.C,R42*%
X56510000Y166250000D03*
%TO.N,VCC*%
X46350000Y166250000D03*
%TD*%
D30*
%TO.N,REG_EN_LOW*%
%TO.C,TPS75533KCG1*%
X122110000Y163800000D03*
D31*
%TO.N,VCC*%
X123810000Y163800000D03*
%TO.N,GND*%
X125510000Y163800000D03*
%TO.N,Net-(D6-A)*%
X127210000Y163800000D03*
%TO.N,PG*%
X128910000Y163800000D03*
%TD*%
D14*
%TO.N,Net-(MOSI_CLK_SHIFTER1-VCCA)*%
%TO.C,MOSI_CLK_SHIFTER1*%
X98100000Y150560000D03*
D10*
%TO.N,/game/MOSI_GAME*%
X98100000Y148020000D03*
%TO.N,/game/SCK_GAME*%
X98100000Y145480000D03*
%TO.N,GND*%
X98100000Y142940000D03*
%TO.N,/game/DIR_MCU_T_FLASH*%
X105720000Y142940000D03*
%TO.N,/game/SCK*%
X105720000Y145480000D03*
%TO.N,/game/MOSI*%
X105720000Y148020000D03*
%TO.N,3.3V*%
X105720000Y150560000D03*
%TD*%
D15*
%TO.N,Net-(D7-K)*%
%TO.C,D7*%
X126510000Y174520000D03*
D16*
%TO.N,Net-(D6-A)*%
X126510000Y171980000D03*
%TD*%
D12*
%TO.N,/grid/SRAM_CS*%
%TO.C,J18*%
X153280000Y130530000D03*
D13*
%TO.N,/grid/PB2*%
X153280000Y127990000D03*
%TO.N,/grid/MOSI_GRID*%
X153280000Y125450000D03*
%TO.N,/grid/MISO_GRID*%
X153280000Y122910000D03*
%TO.N,/grid/SCK_GRID*%
X153280000Y120370000D03*
%TD*%
D10*
%TO.N,/grid/RESET_GRID*%
%TO.C,R23*%
X167645000Y93270000D03*
D11*
%TO.N,VCC*%
X177805000Y93270000D03*
%TD*%
D15*
%TO.N,Net-(D4-K)*%
%TO.C,D4*%
X161110000Y171470000D03*
D16*
%TO.N,Net-(D4-A)*%
X161110000Y168930000D03*
%TD*%
D12*
%TO.N,/grid/RESET_GRID*%
%TO.C,J16*%
X173280000Y97290000D03*
D13*
%TO.N,/grid/RXD_GRID*%
X173280000Y99830000D03*
%TO.N,/grid/TXD_GRID*%
X173280000Y102370000D03*
%TO.N,/grid/PD2*%
X173280000Y104910000D03*
%TO.N,/grid/PD3*%
X173280000Y107450000D03*
%TO.N,/grid/USART_CLK*%
X173280000Y109990000D03*
%TD*%
D10*
%TO.N,/game/FLASH_HOLD*%
%TO.C,R17*%
X71725000Y137770000D03*
D11*
%TO.N,VCC*%
X81885000Y137770000D03*
%TD*%
D10*
%TO.N,/game/J_UP*%
%TO.C,R10*%
X42725000Y25710000D03*
D11*
%TO.N,VCC*%
X52885000Y25710000D03*
%TD*%
D10*
%TO.N,VCC*%
%TO.C,R57*%
X156690000Y169200000D03*
%TO.N,REG_EN_LOW*%
X146530000Y169200000D03*
%TD*%
D12*
%TO.N,/programmer/PB1*%
%TO.C,J24*%
X131925000Y29690000D03*
D13*
%TO.N,/programmer/PB2*%
X131925000Y32230000D03*
%TO.N,/programmer/MOSI*%
X131925000Y34770000D03*
%TO.N,/programmer/MISO*%
X131925000Y37310000D03*
%TO.N,/programmer/SCK*%
X131925000Y39850000D03*
%TD*%
D14*
%TO.N,Net-(CS_HOLD_SHIFTER1-VCCA)*%
%TO.C,CS_HOLD_SHIFTER1*%
X97705000Y134560000D03*
D10*
%TO.N,/game/FLASH_CS*%
X97705000Y132020000D03*
%TO.N,/game/FLASH_HOLD*%
X97705000Y129480000D03*
%TO.N,GND*%
X97705000Y126940000D03*
%TO.N,/game/DIR_MCU_T_FLASH*%
X105325000Y126940000D03*
%TO.N,/game/HOLD*%
X105325000Y129480000D03*
%TO.N,/game/CS*%
X105325000Y132020000D03*
%TO.N,3.3V*%
X105325000Y134560000D03*
%TD*%
D32*
%TO.N,/game/RESET_GAME*%
%TO.C,U2*%
X61885000Y104200000D03*
D10*
%TO.N,/game/RXD_GAME*%
X61885000Y106740000D03*
%TO.N,/game/TXD_GAME*%
X61885000Y109280000D03*
%TO.N,/game/J_UP*%
X61885000Y111820000D03*
%TO.N,/game/J_DOWN*%
X61885000Y114360000D03*
%TO.N,/game/J_LEFT*%
X61885000Y116900000D03*
%TO.N,VCC*%
X61885000Y119440000D03*
%TO.N,GND*%
X61885000Y121980000D03*
%TO.N,Net-(U2-XTAL1{slash}PB6)*%
X61885000Y124520000D03*
%TO.N,Net-(U2-XTAL2{slash}PB7)*%
X61885000Y127060000D03*
%TO.N,/game/BUZZER_PWM*%
X61885000Y129600000D03*
%TO.N,/game/B_START*%
X61885000Y132140000D03*
%TO.N,/game/B_STOP*%
X61885000Y134680000D03*
%TO.N,/game/FLASH_HOLD*%
X61885000Y137220000D03*
%TO.N,/game/FLASH_CS*%
X54265000Y137220000D03*
%TO.N,/game/PB2*%
X54265000Y134680000D03*
%TO.N,/game/MOSI_GAME*%
X54265000Y132140000D03*
%TO.N,/game/MISO_GAME*%
X54265000Y129600000D03*
%TO.N,/game/SCK_GAME*%
X54265000Y127060000D03*
%TO.N,VCC*%
X54265000Y124520000D03*
X54265000Y121980000D03*
%TO.N,GND*%
X54265000Y119440000D03*
%TO.N,/game/B_SELECT*%
X54265000Y116900000D03*
%TO.N,/game/FLASH_WP*%
X54265000Y114360000D03*
%TO.N,/game/J_RIGHT*%
X54265000Y111820000D03*
%TO.N,/game/VIBRATOR*%
X54265000Y109280000D03*
%TO.N,/game/SDA_GAME*%
X54265000Y106740000D03*
%TO.N,/game/SCL_GAME*%
X54265000Y104200000D03*
%TD*%
D12*
%TO.N,/game/SCL_GAME*%
%TO.C,J20*%
X153280000Y97250000D03*
D13*
%TO.N,/game/SDA_GAME*%
X153280000Y99790000D03*
%TO.N,/grid/PC3*%
X153280000Y102330000D03*
%TO.N,/grid/PC2*%
X153280000Y104870000D03*
%TO.N,/grid/PC1*%
X153280000Y107410000D03*
%TO.N,/grid/B_SELECT*%
X153280000Y109950000D03*
%TD*%
D10*
%TO.N,Net-(D2-A)*%
%TO.C,R32*%
X147305000Y53110000D03*
D11*
%TO.N,VCC*%
X147305000Y63270000D03*
%TD*%
D33*
%TO.N,Net-(J3-VBUS)*%
%TO.C,J3*%
X202517500Y38520000D03*
D10*
%TO.N,/converter/D-*%
X202517500Y36020000D03*
%TO.N,/converter/D+*%
X204517500Y36020000D03*
%TO.N,GND*%
X204517500Y38520000D03*
D34*
%TO.N,unconnected-(J3-Shield-Pad5)_1*%
X207377500Y43270000D03*
%TO.N,unconnected-(J3-Shield-Pad5)*%
X207377500Y31270000D03*
%TD*%
D12*
%TO.N,/grid/SRAM_CS*%
%TO.C,J21*%
X113925000Y37770000D03*
D13*
%TO.N,/converter/WAKE_UP*%
X113925000Y35230000D03*
%TO.N,/game/FLASH_CS*%
X113925000Y32690000D03*
%TO.N,/programmer/PB0*%
X113925000Y30150000D03*
%TD*%
D33*
%TO.N,Net-(U2-XTAL2{slash}PB7)*%
%TO.C,C17*%
X73765000Y127360000D03*
D10*
%TO.N,GND*%
X76265000Y127360000D03*
%TD*%
%TO.N,Net-(D7-K)*%
%TO.C,R54*%
X122590000Y176250000D03*
%TO.N,GND*%
X112430000Y176250000D03*
%TD*%
%TO.N,Net-(U5-~{RESET})*%
%TO.C,R4*%
X190805000Y61770000D03*
D11*
%TO.N,GND*%
X190805000Y71930000D03*
%TD*%
D10*
%TO.N,/game/J_RIGHT*%
%TO.C,R16*%
X42725000Y37210000D03*
D11*
%TO.N,VCC*%
X52885000Y37210000D03*
%TD*%
D10*
%TO.N,VCC*%
%TO.C,R56*%
X129010000Y150170000D03*
%TO.N,PG*%
X129010000Y160330000D03*
%TD*%
%TO.N,/programmer/GRID_SIGNAL*%
%TO.C,R2*%
X100145000Y90270000D03*
D11*
%TO.N,GND*%
X110305000Y90270000D03*
%TD*%
D12*
%TO.N,/programmer/GRID_SIGNAL*%
%TO.C,J23*%
X131925000Y49880000D03*
D13*
%TO.N,/programmer/GAME_SIGNAL*%
X131925000Y52420000D03*
%TO.N,/programmer/EXT_SIGNAL*%
X131925000Y54960000D03*
%TO.N,/converter/CTS_CONV*%
X131925000Y57500000D03*
%TO.N,/converter/RTS_CONV*%
X131925000Y60040000D03*
%TO.N,/programmer/PC5*%
X131925000Y62580000D03*
%TD*%
%TO.N,Net-(U2-XTAL1{slash}PB6)*%
%TO.C,Y2*%
X69765000Y121360000D03*
%TO.N,Net-(U2-XTAL2{slash}PB7)*%
X69765000Y126360000D03*
%TD*%
D12*
%TO.N,/game/FLASH_CS*%
%TO.C,J14*%
X48265000Y137520000D03*
D13*
%TO.N,/game/PB2*%
X48265000Y134980000D03*
%TO.N,/game/MOSI_GAME*%
X48265000Y132440000D03*
%TO.N,/game/MISO_GAME*%
X48265000Y129900000D03*
%TO.N,/game/SCK_GAME*%
X48265000Y127360000D03*
%TD*%
D33*
%TO.N,Net-(U1-XTAL1{slash}PB6)*%
%TO.C,C27*%
X182280000Y115950000D03*
D10*
%TO.N,GND*%
X184780000Y115950000D03*
%TD*%
%TO.N,Net-(BZ1--)*%
%TO.C,R40*%
X28010000Y154330000D03*
%TO.N,GND*%
X28010000Y144170000D03*
%TD*%
D12*
%TO.N,/grid/PD5*%
%TO.C,J13*%
X173280000Y122640000D03*
D13*
%TO.N,/grid/PD6*%
X173280000Y125180000D03*
%TO.N,/grid/PD7*%
X173280000Y127720000D03*
%TO.N,/grid/SRAM_HOLD*%
X173280000Y130260000D03*
%TD*%
D12*
%TO.N,GND*%
%TO.C,J5*%
X139780000Y80745000D03*
D13*
%TO.N,/converter/RXD_CONV*%
X139780000Y83285000D03*
%TO.N,/converter/TXD_CONV*%
X139780000Y85825000D03*
%TD*%
D10*
%TO.N,VCC*%
%TO.C,R20*%
X169965000Y136270000D03*
D11*
%TO.N,/grid/SRAM_CS*%
X159805000Y136270000D03*
%TD*%
D33*
%TO.N,Net-(U3-PB7{slash}XTAL2)*%
%TO.C,C3*%
X104425000Y39730000D03*
D10*
%TO.N,GND*%
X101925000Y39730000D03*
%TD*%
%TO.N,VCC*%
%TO.C,R44*%
X46430000Y169750000D03*
%TO.N,Net-(U10-A2)*%
X56590000Y169750000D03*
%TD*%
D12*
%TO.N,Net-(J12-Pin_1)*%
%TO.C,J12*%
X185345000Y102270000D03*
D13*
%TO.N,/grid/TXD_GRID*%
X182805000Y102270000D03*
%TD*%
D10*
%TO.N,VCC*%
%TO.C,R35*%
X114305000Y77430000D03*
D11*
%TO.N,/programmer/RESET_PROG*%
X114305000Y67270000D03*
%TD*%
D14*
%TO.N,/programmer/MISO*%
%TO.C,U6*%
X81315000Y70350000D03*
D10*
%TO.N,/grid/MISO_GRID*%
X81315000Y67810000D03*
%TO.N,/game/MISO_GAME*%
X81315000Y65270000D03*
%TO.N,/programmer/MISO*%
X81315000Y62730000D03*
%TO.N,/programmer/GAME_SIGNAL*%
X81315000Y60190000D03*
%TO.N,/programmer/EXT_SIGNAL*%
X81315000Y57650000D03*
%TO.N,GND*%
X81315000Y55110000D03*
%TO.N,/programmer/MISO*%
X88935000Y55110000D03*
%TO.N,/programmer/MISO_EXT*%
X88935000Y57650000D03*
%TO.N,unconnected-(U6-Pad10)*%
X88935000Y60190000D03*
%TO.N,unconnected-(U6-Pad11)*%
X88935000Y62730000D03*
%TO.N,unconnected-(U6-Pad12)*%
X88935000Y65270000D03*
%TO.N,/programmer/GRID_SIGNAL*%
X88935000Y67810000D03*
%TO.N,VCC*%
X88935000Y70350000D03*
%TD*%
%TO.N,Net-(D3-K)*%
%TO.C,R34*%
X195305000Y82690000D03*
D11*
%TO.N,GND*%
X195305000Y92850000D03*
%TD*%
D12*
%TO.N,/game/B_START*%
%TO.C,J26*%
X39010000Y75750000D03*
D13*
%TO.N,GND*%
X39010000Y73210000D03*
%TD*%
D10*
%TO.N,Net-(D4-K)*%
%TO.C,R36*%
X156690000Y173700000D03*
%TO.N,GND*%
X146530000Y173700000D03*
%TD*%
%TO.N,/game/CS*%
%TO.C,R25*%
X118725000Y144270000D03*
D11*
%TO.N,VCC*%
X128885000Y144270000D03*
%TD*%
D12*
%TO.N,GND*%
%TO.C,J7*%
X200010000Y102290000D03*
D13*
%TO.N,/grid/TXD_GRID*%
X200010000Y99750000D03*
%TO.N,/grid/RXD_GRID*%
X200010000Y97210000D03*
%TD*%
D33*
%TO.N,Net-(U3-PB6{slash}XTAL1)*%
%TO.C,C1*%
X104425000Y46730000D03*
D10*
%TO.N,GND*%
X101925000Y46730000D03*
%TD*%
D12*
%TO.N,/game/J_UP*%
%TO.C,J9*%
X38805000Y29630000D03*
D13*
%TO.N,/game/J_DOWN*%
X38805000Y32170000D03*
%TO.N,/game/J_LEFT*%
X38805000Y34710000D03*
%TO.N,/game/J_RIGHT*%
X38805000Y37250000D03*
%TO.N,GND*%
X38805000Y39790000D03*
%TD*%
D10*
%TO.N,Net-(U10-~{INT})*%
%TO.C,R46*%
X70930000Y166250000D03*
%TO.N,VCC*%
X81090000Y166250000D03*
%TD*%
D33*
%TO.N,Net-(U2-XTAL1{slash}PB6)*%
%TO.C,C18*%
X74265000Y119860000D03*
D10*
%TO.N,GND*%
X76765000Y119860000D03*
%TD*%
D22*
%TO.N,/converter/D-*%
%TO.C,C42*%
X168805000Y45270000D03*
%TO.N,GND*%
X168805000Y40270000D03*
%TD*%
D10*
%TO.N,Net-(D1-A)*%
%TO.C,R31*%
X187305000Y72110000D03*
D11*
%TO.N,VCC*%
X187305000Y82270000D03*
%TD*%
D12*
%TO.N,/game/BUZZER_PWM*%
%TO.C,J15*%
X67765000Y130320000D03*
D13*
%TO.N,/game/B_START*%
X67765000Y132860000D03*
%TO.N,/game/B_STOP*%
X67765000Y135400000D03*
%TO.N,/game/FLASH_HOLD*%
X67765000Y137940000D03*
%TD*%
D10*
%TO.N,/game/WP*%
%TO.C,R26*%
X109145000Y114770000D03*
D11*
%TO.N,GND*%
X119305000Y114770000D03*
%TD*%
D10*
%TO.N,/game/B_SELECT*%
%TO.C,R11*%
X42725000Y52210000D03*
D11*
%TO.N,VCC*%
X52885000Y52210000D03*
%TD*%
D35*
%TO.N,/programmer/MOSI_EXT*%
%TO.C,J11*%
X165305000Y33310000D03*
D13*
%TO.N,VCC*%
X165305000Y30770000D03*
%TO.N,GND*%
X162765000Y33310000D03*
X162765000Y30770000D03*
%TO.N,/programmer/RESET_PROG*%
X160225000Y33310000D03*
%TO.N,GND*%
X160225000Y30770000D03*
%TO.N,/programmer/SCK_EXT*%
X157685000Y33310000D03*
%TO.N,GND*%
X157685000Y30770000D03*
%TO.N,/programmer/MISO_EXT*%
X155145000Y33310000D03*
%TO.N,GND*%
X155145000Y30770000D03*
%TD*%
D10*
%TO.N,VCC*%
%TO.C,220uF1*%
X209805000Y88020000D03*
%TO.N,GND*%
X209805000Y90520000D03*
%TD*%
%TO.N,/game/SCL_GAME*%
%TO.C,R9*%
X43225000Y84510000D03*
D11*
%TO.N,VCC*%
X53385000Y84510000D03*
%TD*%
D26*
%TO.N,/grid/RESET_GRID*%
%TO.C,SW2*%
X103260000Y59750000D03*
D27*
%TO.N,GND*%
X96760000Y59750000D03*
%TD*%
D10*
%TO.N,/game/B_STOP*%
%TO.C,R12*%
X42645000Y65770000D03*
D11*
%TO.N,VCC*%
X52805000Y65770000D03*
%TD*%
D10*
%TO.N,/programmer/GAME_SIGNAL*%
%TO.C,R3*%
X73305000Y83770000D03*
D11*
%TO.N,GND*%
X63145000Y83770000D03*
%TD*%
D10*
%TO.N,/game/J_DOWN*%
%TO.C,R14*%
X42645000Y29710000D03*
D11*
%TO.N,VCC*%
X52805000Y29710000D03*
%TD*%
D33*
%TO.N,Net-(U1-XTAL2{slash}PB7)*%
%TO.C,C28*%
X182280000Y122950000D03*
D10*
%TO.N,GND*%
X184780000Y122950000D03*
%TD*%
%TO.N,/game/J_LEFT*%
%TO.C,R15*%
X42725000Y33710000D03*
D11*
%TO.N,VCC*%
X52885000Y33710000D03*
%TD*%
D10*
%TO.N,/game/DIR_FLASH_T_MCU*%
%TO.C,R43*%
X56590000Y162750000D03*
%TO.N,VCC*%
X46430000Y162750000D03*
%TD*%
%TO.N,VCC*%
%TO.C,R38*%
X161610000Y147120000D03*
%TO.N,PG*%
X161610000Y157280000D03*
%TD*%
D13*
%TO.N,Net-(U3-PB7{slash}XTAL2)*%
%TO.C,Y1*%
X108925000Y41280000D03*
%TO.N,Net-(U3-PB6{slash}XTAL1)*%
X108925000Y46280000D03*
%TD*%
D12*
%TO.N,/programmer/RESET_PROG*%
%TO.C,J22*%
X113925000Y62810000D03*
D13*
%TO.N,/programmer/RXD*%
X113925000Y60270000D03*
%TO.N,/programmer/TXD*%
X113925000Y57730000D03*
%TO.N,/grid/RESET_GRID*%
X113925000Y55190000D03*
%TO.N,/game/RESET_GAME*%
X113925000Y52650000D03*
%TO.N,/game/FLASH_CS*%
X113925000Y50110000D03*
%TD*%
D32*
%TO.N,/grid/RESET_GRID*%
%TO.C,U1*%
X167400000Y97370000D03*
D10*
%TO.N,/grid/RXD_GRID*%
X167400000Y99910000D03*
%TO.N,/grid/TXD_GRID*%
X167400000Y102450000D03*
%TO.N,/grid/PD2*%
X167400000Y104990000D03*
%TO.N,/grid/PD3*%
X167400000Y107530000D03*
%TO.N,/grid/USART_CLK*%
X167400000Y110070000D03*
%TO.N,VCC*%
X167400000Y112610000D03*
%TO.N,GND*%
X167400000Y115150000D03*
%TO.N,Net-(U1-XTAL1{slash}PB6)*%
X167400000Y117690000D03*
%TO.N,Net-(U1-XTAL2{slash}PB7)*%
X167400000Y120230000D03*
%TO.N,/grid/PD5*%
X167400000Y122770000D03*
%TO.N,/grid/PD6*%
X167400000Y125310000D03*
%TO.N,/grid/PD7*%
X167400000Y127850000D03*
%TO.N,/grid/SRAM_HOLD*%
X167400000Y130390000D03*
%TO.N,/grid/SRAM_CS*%
X159780000Y130390000D03*
%TO.N,/grid/PB2*%
X159780000Y127850000D03*
%TO.N,/grid/MOSI_GRID*%
X159780000Y125310000D03*
%TO.N,/grid/MISO_GRID*%
X159780000Y122770000D03*
%TO.N,/grid/SCK_GRID*%
X159780000Y120230000D03*
%TO.N,VCC*%
X159780000Y117690000D03*
X159780000Y115150000D03*
%TO.N,GND*%
X159780000Y112610000D03*
%TO.N,/grid/B_SELECT*%
X159780000Y110070000D03*
%TO.N,/grid/PC1*%
X159780000Y107530000D03*
%TO.N,/grid/PC2*%
X159780000Y104990000D03*
%TO.N,/grid/PC3*%
X159780000Y102450000D03*
%TO.N,/game/SDA_GAME*%
X159780000Y99910000D03*
%TO.N,/game/SCL_GAME*%
X159780000Y97370000D03*
%TD*%
D15*
%TO.N,Net-(D1-K)*%
%TO.C,D1*%
X181765000Y68770000D03*
D16*
%TO.N,Net-(D1-A)*%
X184305000Y68770000D03*
%TD*%
D10*
%TO.N,VCC*%
%TO.C,R45*%
X46430000Y173250000D03*
%TO.N,Net-(U10-A1)*%
X56590000Y173250000D03*
%TD*%
D26*
%TO.N,/game/RESET_GAME*%
%TO.C,SW3*%
X75555000Y102770000D03*
D27*
%TO.N,GND*%
X82055000Y102770000D03*
%TD*%
D10*
%TO.N,/game/SDA_GAME*%
%TO.C,R7*%
X43225000Y88010000D03*
D11*
%TO.N,VCC*%
X53385000Y88010000D03*
%TD*%
D30*
%TO.N,REG_EN_LOW*%
%TO.C,TPS75533KCG2*%
X154710000Y161250000D03*
D31*
%TO.N,VCC*%
X156410000Y161250000D03*
%TO.N,GND*%
X158110000Y161250000D03*
%TO.N,Net-(D4-A)*%
X159810000Y161250000D03*
%TO.N,PG*%
X161510000Y161250000D03*
%TD*%
D10*
%TO.N,Net-(D4-A)*%
%TO.C,47uF2*%
X167010000Y169500000D03*
%TO.N,GND*%
X167010000Y172000000D03*
%TD*%
D26*
%TO.N,/programmer/RESET_PROG*%
%TO.C,SW4*%
X110555000Y67270000D03*
D27*
%TO.N,GND*%
X104055000Y67270000D03*
%TD*%
D10*
%TO.N,VCC*%
%TO.C,R28*%
X122590000Y172250000D03*
%TO.N,REG_EN_LOW*%
X112430000Y172250000D03*
%TD*%
D20*
%TO.N,VCC_LED_GRID*%
%TO.C,D9*%
X199010000Y158940000D03*
D10*
%TO.N,Net-(D5-A)*%
X199010000Y166560000D03*
%TD*%
%TO.N,/game/HOLD*%
%TO.C,R24*%
X134265000Y135920000D03*
D11*
%TO.N,GND*%
X144425000Y135920000D03*
%TD*%
D12*
%TO.N,GND*%
%TO.C,J6*%
X31010000Y103290000D03*
D13*
%TO.N,/game/TXD_GAME*%
X31010000Y100750000D03*
%TO.N,/game/RXD_GAME*%
X31010000Y98210000D03*
%TD*%
D10*
%TO.N,Net-(J3-VBUS)*%
%TO.C,R5*%
X199385000Y53270000D03*
D11*
%TO.N,Net-(U5-~{RESET})*%
X189225000Y53270000D03*
%TD*%
D10*
%TO.N,/game/RESET_GAME*%
%TO.C,R8*%
X62145000Y99770000D03*
D11*
%TO.N,VCC*%
X72305000Y99770000D03*
%TD*%
D10*
%TO.N,VCC*%
%TO.C,R18*%
X33645000Y138770000D03*
D11*
%TO.N,/game/FLASH_CS*%
X43805000Y138770000D03*
%TD*%
D10*
%TO.N,VCC*%
%TO.C,R30*%
X193510000Y149750000D03*
%TO.N,PG*%
X193510000Y159910000D03*
%TD*%
D36*
%TO.N,GND*%
X207010000Y141750000D03*
X112010000Y119750000D03*
X80490000Y113880000D03*
X146510000Y157750000D03*
X109010000Y154750000D03*
X151510000Y115250000D03*
X109510000Y137250000D03*
X46200000Y123580000D03*
X114510000Y162250000D03*
X95510000Y70750000D03*
X95360000Y95600000D03*
X205510000Y49250000D03*
X133010000Y144750000D03*
X134860000Y106210000D03*
X117960000Y107480000D03*
X177010000Y158750000D03*
X208510000Y58250000D03*
X93010000Y137750000D03*
X151010000Y75250000D03*
X96510000Y45250000D03*
X175510000Y113750000D03*
X92510000Y119750000D03*
X132010000Y124750000D03*
X93400000Y152930000D03*
%TO.N,VCC*%
X50960000Y122660000D03*
X130010000Y116250000D03*
X90990000Y70250000D03*
X196510000Y70750000D03*
%TO.N,/grid/SCK_GRID*%
X107010000Y100750000D03*
X113510000Y100750000D03*
%TO.N,/grid/MISO_GRID*%
X142510000Y101750000D03*
X146010000Y106750000D03*
X120510000Y79750000D03*
%TO.N,/grid/MOSI_GRID*%
X78510000Y47750000D03*
%TO.N,/grid/SRAM_CS*%
X136010000Y70200000D03*
X128510000Y65750000D03*
D37*
%TO.N,/game/CS*%
X112010000Y140250000D03*
X118010000Y140250000D03*
%TO.N,/game/FLASH_CS*%
X109510000Y33730000D03*
X112510000Y46750000D03*
D36*
X100010000Y74250000D03*
X101010000Y102250000D03*
%TO.N,Net-(J3-VBUS)*%
X198510000Y40250000D03*
D37*
%TO.N,/game/RXD_GAME*%
X52305000Y99270000D03*
X36510000Y99270000D03*
%TO.N,/game/TXD_GAME*%
X37510000Y101770000D03*
X52305000Y101770000D03*
%TO.N,/game/J_RIGHT*%
X28510000Y61750000D03*
X30510000Y37750000D03*
%TO.N,/game/SCL_GAME*%
X34010000Y85250000D03*
X90010000Y175750000D03*
X23010000Y85250000D03*
D36*
X98510000Y99250000D03*
D37*
X85010000Y171250000D03*
%TO.N,/game/SDA_GAME*%
X78010000Y175750000D03*
X40010000Y177750000D03*
D36*
X99010000Y107250000D03*
X103510000Y107250000D03*
X95010000Y103750000D03*
D37*
X22510000Y90250000D03*
X34010000Y87750000D03*
%TO.N,/programmer/RESET_PROG*%
X138510000Y70250000D03*
X142010000Y50250000D03*
X128510000Y71250000D03*
D36*
%TO.N,/programmer/SCK*%
X75010000Y63250000D03*
D37*
%TO.N,/programmer/MISO*%
X89510000Y49750000D03*
X117510000Y27750000D03*
%TO.N,/programmer/MOSI*%
X119510000Y22250000D03*
X124010000Y27750000D03*
%TO.N,/game/SCK_GAME*%
X85510000Y140250000D03*
X36010000Y119250000D03*
X65570000Y88810000D03*
X89010000Y142750000D03*
%TO.N,/game/MOSI_GAME*%
X83510000Y141750000D03*
X21010000Y131250000D03*
X88510000Y145250000D03*
X76570000Y40810000D03*
D36*
%TO.N,/game/MISO_GAME*%
X100010000Y97750000D03*
X108510000Y97750000D03*
D37*
X34510000Y124750000D03*
X77510000Y65250000D03*
%TO.N,/game/B_STOP*%
X29510000Y93250000D03*
X73010000Y134250000D03*
%TO.N,/game/B_START*%
X75010000Y133250000D03*
X31010000Y90250000D03*
%TO.N,/grid/RESET_GRID*%
X132510000Y73750000D03*
X135010000Y89250000D03*
D36*
%TO.N,/game/RESET_GAME*%
X106510000Y71250000D03*
X106510000Y61750000D03*
D37*
%TO.N,/game/VIBRATOR*%
X29010000Y117750000D03*
X34510000Y109750000D03*
%TO.N,/game/FLASH_WP*%
X76510000Y144750000D03*
X42510000Y114750000D03*
X88010000Y126250000D03*
X66510000Y144750000D03*
%TO.N,/converter/RTS_CONV*%
X143510000Y76750000D03*
X143510000Y73250000D03*
%TO.N,/programmer/GRID_SIGNAL*%
X86510000Y52250000D03*
X86510000Y74250000D03*
D36*
%TO.N,/programmer/GAME_SIGNAL*%
X75510000Y35250000D03*
X84510000Y49250000D03*
D37*
%TO.N,/programmer/EXT_SIGNAL*%
X76510000Y57750000D03*
D36*
%TO.N,/programmer/MISO_EXT*%
X146010000Y42750000D03*
%TO.N,/programmer/SCK_EXT*%
X151010000Y38750000D03*
X141010000Y67250000D03*
X147510000Y40750000D03*
X126510000Y78250000D03*
X136510000Y67750000D03*
D37*
%TO.N,/converter/WAKE_UP*%
X140010000Y37750000D03*
X154010000Y46750000D03*
%TO.N,/converter/CLOCK*%
X115010000Y46750000D03*
X139010000Y56250000D03*
%TO.N,/game/BUZZER_PWM*%
X51010000Y142250000D03*
%TD*%
D38*
%TO.N,VCC*%
X90910000Y70350000D02*
X91010000Y70250000D01*
X88935000Y70350000D02*
X90910000Y70350000D01*
X88935000Y70400000D02*
X88935000Y70350000D01*
%TO.N,/grid/SCK_GRID*%
X137510000Y101250000D02*
X139010000Y101250000D01*
X185010000Y136750000D02*
X185010000Y128750000D01*
X181510000Y140250000D02*
X185010000Y136750000D01*
X131510000Y95250000D02*
X137510000Y101250000D01*
X119010000Y95250000D02*
X131510000Y95250000D01*
X169010000Y140250000D02*
X181510000Y140250000D01*
X87010000Y97250000D02*
X90010000Y100250000D01*
X113510000Y100750000D02*
X119010000Y95250000D01*
X140510000Y111750000D02*
X149130000Y120370000D01*
X149130000Y120370000D02*
X153280000Y120370000D01*
X78510000Y95750000D02*
X80010000Y97250000D01*
X159640000Y120370000D02*
X159780000Y120230000D01*
X185010000Y128750000D02*
X189510000Y124250000D01*
X163510000Y122250000D02*
X163510000Y134750000D01*
X153280000Y120370000D02*
X159640000Y120370000D01*
X80010000Y97250000D02*
X87010000Y97250000D01*
X90010000Y100250000D02*
X95510000Y100250000D01*
X96010000Y100750000D02*
X107010000Y100750000D01*
X95510000Y100250000D02*
X96010000Y100750000D01*
X199940000Y131180000D02*
X200535000Y131180000D01*
X189510000Y124250000D02*
X195510000Y124250000D01*
X78910000Y91350000D02*
X78510000Y91750000D01*
X139010000Y101250000D02*
X140510000Y102750000D01*
X159780000Y120230000D02*
X161490000Y120230000D01*
X196510000Y125250000D02*
X196510000Y127750000D01*
X140510000Y102750000D02*
X140510000Y111750000D01*
X161490000Y120230000D02*
X163510000Y122250000D01*
X196510000Y127750000D02*
X199940000Y131180000D01*
X80500000Y91350000D02*
X78910000Y91350000D01*
X78510000Y91750000D02*
X78510000Y95750000D01*
X195510000Y124250000D02*
X196510000Y125250000D01*
X163510000Y134750000D02*
X169010000Y140250000D01*
%TO.N,/grid/MISO_GRID*%
X162010000Y123250000D02*
X162010000Y136250000D01*
X161530000Y122770000D02*
X162010000Y123250000D01*
X145510000Y104250000D02*
X146010000Y104750000D01*
X81315000Y67810000D02*
X79950000Y67810000D01*
X79950000Y67810000D02*
X79510000Y68250000D01*
X182010000Y141750000D02*
X186510000Y137250000D01*
X162010000Y136250000D02*
X167510000Y141750000D01*
X79510000Y72250000D02*
X84010000Y76750000D01*
X186510000Y134750000D02*
X187540000Y133720000D01*
X95510000Y76750000D02*
X98510000Y79750000D01*
X146010000Y104750000D02*
X146010000Y106750000D01*
X79510000Y68250000D02*
X79510000Y72250000D01*
X159780000Y122770000D02*
X161530000Y122770000D01*
X98510000Y79750000D02*
X120510000Y79750000D01*
X159640000Y122910000D02*
X159780000Y122770000D01*
X145010000Y104250000D02*
X145510000Y104250000D01*
X84010000Y76750000D02*
X95510000Y76750000D01*
X153280000Y122910000D02*
X159640000Y122910000D01*
X142510000Y101750000D02*
X145010000Y104250000D01*
X167510000Y141750000D02*
X182010000Y141750000D01*
X187540000Y133720000D02*
X192915000Y133720000D01*
X186510000Y137250000D02*
X186510000Y134750000D01*
%TO.N,/grid/SRAM_HOLD*%
X173280000Y134135000D02*
X172645000Y134770000D01*
X173280000Y130260000D02*
X173280000Y134135000D01*
X173150000Y130390000D02*
X173280000Y130260000D01*
X167400000Y130390000D02*
X173150000Y130390000D01*
%TO.N,/grid/MOSI_GRID*%
X159640000Y125450000D02*
X159780000Y125310000D01*
X81500000Y43350000D02*
X79910000Y43350000D01*
X79910000Y43350000D02*
X79510000Y43750000D01*
X79510000Y43750000D02*
X78510000Y44750000D01*
X153280000Y125450000D02*
X159640000Y125450000D01*
X78510000Y44750000D02*
X78510000Y47750000D01*
%TO.N,/grid/SRAM_CS*%
X159805000Y138045000D02*
X159805000Y136270000D01*
X192915000Y136260000D02*
X190000000Y136260000D01*
X135960000Y70200000D02*
X131510000Y65750000D01*
X165010000Y143250000D02*
X159805000Y138045000D01*
X131510000Y65750000D02*
X128510000Y65750000D01*
X114205000Y37490000D02*
X113925000Y37770000D01*
X159780000Y130390000D02*
X159780000Y136245000D01*
X153280000Y130530000D02*
X159640000Y130530000D01*
X159780000Y136245000D02*
X159805000Y136270000D01*
X190000000Y136260000D02*
X183010000Y143250000D01*
X159640000Y130530000D02*
X159780000Y130390000D01*
X119305000Y37490000D02*
X114205000Y37490000D01*
X183010000Y143250000D02*
X165010000Y143250000D01*
X136010000Y70200000D02*
X135960000Y70200000D01*
%TO.N,Net-(U3-PB6{slash}XTAL1)*%
X104425000Y46730000D02*
X108475000Y46730000D01*
X113510000Y44250000D02*
X115190000Y42570000D01*
X115190000Y42570000D02*
X119305000Y42570000D01*
X108925000Y46280000D02*
X110955000Y44250000D01*
X108475000Y46730000D02*
X108925000Y46280000D01*
X110955000Y44250000D02*
X113510000Y44250000D01*
%TO.N,Net-(U3-PB7{slash}XTAL2)*%
X107375000Y39730000D02*
X108925000Y41280000D01*
X114480000Y41280000D02*
X115730000Y40030000D01*
X115730000Y40030000D02*
X119305000Y40030000D01*
X104425000Y39730000D02*
X107375000Y39730000D01*
X108925000Y41280000D02*
X114480000Y41280000D01*
%TO.N,Net-(U2-XTAL2{slash}PB7)*%
X61885000Y127060000D02*
X69065000Y127060000D01*
X72765000Y126360000D02*
X73765000Y127360000D01*
X69765000Y126360000D02*
X72765000Y126360000D01*
X69065000Y127060000D02*
X69765000Y126360000D01*
%TO.N,Net-(U2-XTAL1{slash}PB6)*%
X61885000Y124520000D02*
X66605000Y124520000D01*
X69765000Y121360000D02*
X71265000Y119860000D01*
X66605000Y124520000D02*
X69765000Y121360000D01*
X71265000Y119860000D02*
X74265000Y119860000D01*
%TO.N,Net-(U1-XTAL1{slash}PB6)*%
X176540000Y117690000D02*
X177780000Y116450000D01*
X181780000Y116450000D02*
X182280000Y115950000D01*
X167400000Y117690000D02*
X176540000Y117690000D01*
X177780000Y116450000D02*
X181780000Y116450000D01*
%TO.N,Net-(U1-XTAL2{slash}PB7)*%
X177780000Y121450000D02*
X177810000Y121450000D01*
X176560000Y120230000D02*
X177780000Y121450000D01*
X177810000Y121450000D02*
X179310000Y122950000D01*
X167400000Y120230000D02*
X176560000Y120230000D01*
X179310000Y122950000D02*
X182280000Y122950000D01*
%TO.N,Net-(CS_HOLD_SHIFTER1-VCCA)*%
X97225000Y134080000D02*
X97705000Y134560000D01*
%TO.N,Net-(WP_SHIFTER1-VCCA)*%
X97640000Y117770000D02*
X97830000Y117580000D01*
%TO.N,/game/CS*%
X111280000Y132020000D02*
X112010000Y132750000D01*
X118010000Y143555000D02*
X118725000Y144270000D01*
X105325000Y132020000D02*
X111280000Y132020000D01*
X118725000Y142850000D02*
X122305000Y139270000D01*
X118010000Y140250000D02*
X118010000Y143555000D01*
X118725000Y144270000D02*
X118725000Y142850000D01*
X112010000Y132750000D02*
X112010000Y140250000D01*
%TO.N,/game/FLASH_HOLD*%
X61885000Y137220000D02*
X67045000Y137220000D01*
X85780000Y129480000D02*
X97705000Y129480000D01*
X71555000Y137940000D02*
X71725000Y137770000D01*
X71725000Y137770000D02*
X77490000Y137770000D01*
X67045000Y137220000D02*
X67765000Y137940000D01*
X77490000Y137770000D02*
X85780000Y129480000D01*
X67765000Y137940000D02*
X71555000Y137940000D01*
%TO.N,/game/HOLD*%
X133455000Y136730000D02*
X134265000Y135920000D01*
X129925000Y136730000D02*
X133455000Y136730000D01*
X127010000Y137750000D02*
X127010000Y146250000D01*
X129925000Y136730000D02*
X128030000Y136730000D01*
X115510000Y139250000D02*
X117010000Y137750000D01*
X125010000Y148250000D02*
X117010000Y148250000D01*
X117010000Y148250000D02*
X115510000Y146750000D01*
X115510000Y146750000D02*
X115510000Y139250000D01*
X117010000Y137750000D02*
X117010000Y131750000D01*
X128030000Y136730000D02*
X127010000Y137750000D01*
X117010000Y131750000D02*
X114740000Y129480000D01*
X127010000Y146250000D02*
X125010000Y148250000D01*
X114740000Y129480000D02*
X105325000Y129480000D01*
%TO.N,/game/FLASH_CS*%
X106010000Y52750000D02*
X108510000Y52750000D01*
X99740000Y132020000D02*
X97705000Y132020000D01*
X89240000Y132020000D02*
X97705000Y132020000D01*
X85010000Y143250000D02*
X88510000Y139750000D01*
X119305000Y32410000D02*
X114205000Y32410000D01*
X88510000Y132750000D02*
X89240000Y132020000D01*
X113925000Y50110000D02*
X112510000Y48695000D01*
X112070000Y32690000D02*
X113925000Y32690000D01*
X54265000Y137220000D02*
X54265000Y141005000D01*
X111150000Y50110000D02*
X113925000Y50110000D01*
X56510000Y143250000D02*
X85010000Y143250000D01*
X109510000Y33730000D02*
X110490000Y32750000D01*
X101010000Y130750000D02*
X99740000Y132020000D01*
X53965000Y137520000D02*
X54265000Y137220000D01*
X114205000Y32410000D02*
X113925000Y32690000D01*
X54265000Y141005000D02*
X56510000Y143250000D01*
X47015000Y138770000D02*
X48265000Y137520000D01*
X48265000Y137520000D02*
X53965000Y137520000D01*
X88510000Y139750000D02*
X88510000Y132750000D01*
X112010000Y32750000D02*
X112070000Y32690000D01*
X110490000Y32750000D02*
X112010000Y32750000D01*
X101010000Y102250000D02*
X101010000Y130750000D01*
X112510000Y48695000D02*
X112510000Y46750000D01*
X100010000Y74250000D02*
X100010000Y58750000D01*
X108510000Y52750000D02*
X111150000Y50110000D01*
X43805000Y138770000D02*
X47015000Y138770000D01*
X100010000Y58750000D02*
X106010000Y52750000D01*
%TO.N,/converter/TXD_CONV*%
X153335000Y82280000D02*
X152845000Y82770000D01*
X150935000Y85825000D02*
X139780000Y85825000D01*
X152845000Y82770000D02*
X152845000Y83915000D01*
X158690000Y82280000D02*
X153335000Y82280000D01*
X152845000Y83915000D02*
X150935000Y85825000D01*
%TO.N,/programmer/RXD*%
X146030000Y82770000D02*
X150305000Y82770000D01*
X119225000Y60270000D02*
X119305000Y60350000D01*
X121510000Y61250000D02*
X121510000Y69750000D01*
X113925000Y60270000D02*
X119225000Y60270000D01*
X143510000Y80250000D02*
X146030000Y82770000D01*
X120610000Y60350000D02*
X121510000Y61250000D01*
X141510000Y77750000D02*
X143510000Y79750000D01*
X121510000Y69750000D02*
X129510000Y77750000D01*
X119305000Y60350000D02*
X120610000Y60350000D01*
X143510000Y79750000D02*
X143510000Y80250000D01*
X129510000Y77750000D02*
X141510000Y77750000D01*
%TO.N,/grid/USART_CLK*%
X173200000Y110070000D02*
X173280000Y109990000D01*
X167400000Y110070000D02*
X173200000Y110070000D01*
X197970000Y112250000D02*
X194010000Y112250000D01*
X177010000Y108250000D02*
X175270000Y109990000D01*
X200010000Y114290000D02*
X197970000Y112250000D01*
X175270000Y109990000D02*
X173280000Y109990000D01*
X190010000Y108250000D02*
X177010000Y108250000D01*
X194010000Y112250000D02*
X190010000Y108250000D01*
%TO.N,Net-(J12-Pin_1)*%
X192510000Y106750000D02*
X192510000Y108750000D01*
X192510000Y108750000D02*
X194510000Y110750000D01*
X199010000Y110750000D02*
X200010000Y111750000D01*
X194510000Y110750000D02*
X199010000Y110750000D01*
X185345000Y102270000D02*
X188030000Y102270000D01*
X188030000Y102270000D02*
X192510000Y106750000D01*
%TO.N,Net-(J3-VBUS)*%
X199385000Y53270000D02*
X202010000Y50645000D01*
X202010000Y50645000D02*
X202010000Y49250000D01*
X202517500Y48742500D02*
X202517500Y38520000D01*
X202010000Y49250000D02*
X202517500Y48742500D01*
%TO.N,/game/RXD_GAME*%
X36505000Y99265000D02*
X32065000Y99265000D01*
X61885000Y106740000D02*
X67685000Y106740000D01*
X61885000Y106740000D02*
X59775000Y106740000D01*
X67685000Y106740000D02*
X67765000Y106820000D01*
X59775000Y106740000D02*
X58805000Y105770000D01*
X36510000Y99270000D02*
X36505000Y99265000D01*
X58805000Y103270000D02*
X54805000Y99270000D01*
X54805000Y99270000D02*
X52305000Y99270000D01*
X32065000Y99265000D02*
X31010000Y98210000D01*
X58805000Y105770000D02*
X58805000Y103270000D01*
%TO.N,/game/TXD_GAME*%
X61885000Y109280000D02*
X60315000Y109280000D01*
X31949000Y101689000D02*
X31010000Y100750000D01*
X57305000Y103770000D02*
X55305000Y101770000D01*
X55305000Y101770000D02*
X52305000Y101770000D01*
X37510000Y101770000D02*
X32611000Y101770000D01*
X60315000Y109280000D02*
X57305000Y106270000D01*
X32611000Y101770000D02*
X32611000Y101689000D01*
X61885000Y109280000D02*
X67685000Y109280000D01*
X32611000Y101689000D02*
X31949000Y101689000D01*
X57305000Y106270000D02*
X57305000Y103770000D01*
X67685000Y109280000D02*
X67765000Y109360000D01*
%TO.N,/grid/TXD_GRID*%
X182805000Y102270000D02*
X185325000Y99750000D01*
X173200000Y102450000D02*
X173280000Y102370000D01*
X182705000Y102370000D02*
X182805000Y102270000D01*
X185325000Y99750000D02*
X200010000Y99750000D01*
X167400000Y102450000D02*
X173200000Y102450000D01*
X173280000Y102370000D02*
X182705000Y102370000D01*
%TO.N,/grid/RXD_GRID*%
X167400000Y99910000D02*
X173200000Y99910000D01*
X182430000Y99830000D02*
X185050000Y97210000D01*
X185050000Y97210000D02*
X200010000Y97210000D01*
X173280000Y99830000D02*
X182430000Y99830000D01*
X173200000Y99910000D02*
X173280000Y99830000D01*
%TO.N,/game/J_RIGHT*%
X48265000Y111900000D02*
X54185000Y111900000D01*
X42685000Y37250000D02*
X42725000Y37210000D01*
X32660000Y111900000D02*
X32510000Y111750000D01*
X38805000Y37250000D02*
X42685000Y37250000D01*
X47895000Y112270000D02*
X48265000Y111900000D01*
X32510000Y111750000D02*
X28510000Y111750000D01*
X27010000Y63250000D02*
X28510000Y61750000D01*
X31010000Y37750000D02*
X31510000Y37250000D01*
X27010000Y110250000D02*
X27010000Y63250000D01*
X54185000Y111900000D02*
X54265000Y111820000D01*
X48265000Y111900000D02*
X32660000Y111900000D01*
X30510000Y37750000D02*
X31010000Y37750000D01*
X31510000Y37250000D02*
X38805000Y37250000D01*
X28510000Y111750000D02*
X27010000Y110250000D01*
%TO.N,/game/J_DOWN*%
X73010000Y108750000D02*
X73510000Y108250000D01*
X79510000Y100750000D02*
X74010000Y95250000D01*
X69820000Y114440000D02*
X73010000Y111250000D01*
X40185000Y32170000D02*
X42645000Y29710000D01*
X74010000Y95250000D02*
X64010000Y95250000D01*
X73010000Y111250000D02*
X73010000Y108750000D01*
X77510000Y108250000D02*
X79510000Y106250000D01*
X30590000Y32170000D02*
X38805000Y32170000D01*
X67685000Y114360000D02*
X67765000Y114440000D01*
X79510000Y106250000D02*
X79510000Y100750000D01*
X64010000Y95250000D02*
X58510000Y89750000D01*
X52510000Y44250000D02*
X32010000Y44250000D01*
X58510000Y50250000D02*
X52510000Y44250000D01*
X38805000Y32170000D02*
X40185000Y32170000D01*
X61885000Y114360000D02*
X67685000Y114360000D01*
X32010000Y44250000D02*
X28510000Y40750000D01*
X58510000Y89750000D02*
X58510000Y50250000D01*
X28510000Y40750000D02*
X28510000Y34250000D01*
X67765000Y114440000D02*
X69820000Y114440000D01*
X28510000Y34250000D02*
X30590000Y32170000D01*
X73510000Y108250000D02*
X77510000Y108250000D01*
%TO.N,/game/J_UP*%
X52010000Y46250000D02*
X31510000Y46250000D01*
X71010000Y108250000D02*
X72510000Y106750000D01*
X77010000Y106750000D02*
X78010000Y105750000D01*
X73010000Y96750000D02*
X63010000Y96750000D01*
X30130000Y29630000D02*
X38805000Y29630000D01*
X78010000Y105750000D02*
X78010000Y101750000D01*
X31510000Y46250000D02*
X27010000Y41750000D01*
X27010000Y41750000D02*
X27010000Y32750000D01*
X63010000Y96750000D02*
X56510000Y90250000D01*
X71010000Y110750000D02*
X71010000Y108250000D01*
X67765000Y111900000D02*
X69860000Y111900000D01*
X72510000Y106750000D02*
X77010000Y106750000D01*
X69860000Y111900000D02*
X71010000Y110750000D01*
X78010000Y101750000D02*
X73010000Y96750000D01*
X67685000Y111820000D02*
X67765000Y111900000D01*
X61885000Y111820000D02*
X67685000Y111820000D01*
X27010000Y32750000D02*
X30130000Y29630000D01*
X38805000Y29630000D02*
X42725000Y25710000D01*
X56510000Y90250000D02*
X56510000Y50750000D01*
X56510000Y50750000D02*
X52010000Y46250000D01*
%TO.N,/game/J_LEFT*%
X87010000Y107750000D02*
X87010000Y102250000D01*
X67685000Y116900000D02*
X67765000Y116980000D01*
X69280000Y116980000D02*
X74510000Y111750000D01*
X60010000Y48750000D02*
X54010000Y42750000D01*
X87010000Y102250000D02*
X83510000Y98750000D01*
X75010000Y93750000D02*
X65010000Y93750000D01*
X61885000Y116900000D02*
X67685000Y116900000D01*
X60010000Y88750000D02*
X60010000Y48750000D01*
X41725000Y34710000D02*
X42725000Y33710000D01*
X54010000Y42750000D02*
X49010000Y42750000D01*
X65010000Y93750000D02*
X60010000Y88750000D01*
X45470000Y33710000D02*
X42725000Y33710000D01*
X75510000Y109750000D02*
X85010000Y109750000D01*
X49010000Y42750000D02*
X48010000Y41750000D01*
X67765000Y116980000D02*
X69280000Y116980000D01*
X48010000Y41750000D02*
X48010000Y36250000D01*
X85010000Y109750000D02*
X87010000Y107750000D01*
X74510000Y111750000D02*
X74510000Y110750000D01*
X48010000Y36250000D02*
X45470000Y33710000D01*
X74510000Y110750000D02*
X75510000Y109750000D01*
X83510000Y98750000D02*
X80010000Y98750000D01*
X38805000Y34710000D02*
X41725000Y34710000D01*
X80010000Y98750000D02*
X75010000Y93750000D01*
%TO.N,/game/SCL_GAME*%
X86509000Y179251000D02*
X90010000Y175750000D01*
X43225000Y85430000D02*
X43225000Y84510000D01*
X23010000Y85250000D02*
X21010000Y85250000D01*
X48265000Y104280000D02*
X54185000Y104280000D01*
X16010000Y90250000D02*
X16010000Y162250000D01*
X21010000Y85250000D02*
X16010000Y90250000D01*
X43225000Y84510000D02*
X39480000Y84510000D01*
X82720000Y168960000D02*
X67640000Y168960000D01*
X34050000Y85210000D02*
X34010000Y85250000D01*
X98510000Y99250000D02*
X109010000Y99250000D01*
X38780000Y85210000D02*
X34050000Y85210000D01*
X109010000Y99250000D02*
X115510000Y92750000D01*
X159660000Y97250000D02*
X159780000Y97370000D01*
X44805000Y87010000D02*
X43225000Y85430000D01*
X153280000Y97250000D02*
X159660000Y97250000D01*
X16010000Y162250000D02*
X33011000Y179251000D01*
X137510000Y97250000D02*
X153280000Y97250000D01*
X133010000Y92750000D02*
X137510000Y97250000D01*
X54185000Y104280000D02*
X54265000Y104200000D01*
X44805000Y100770000D02*
X44805000Y87010000D01*
X85010000Y171250000D02*
X82720000Y168960000D01*
X33011000Y179251000D02*
X86509000Y179251000D01*
X48265000Y104280000D02*
X48265000Y104230000D01*
X115510000Y92750000D02*
X133010000Y92750000D01*
X39480000Y84510000D02*
X38780000Y85210000D01*
X48265000Y104230000D02*
X44805000Y100770000D01*
%TO.N,/game/SDA_GAME*%
X38780000Y87750000D02*
X42965000Y87750000D01*
X54185000Y106820000D02*
X54265000Y106740000D01*
X78010000Y175750000D02*
X77010000Y174750000D01*
X159660000Y99790000D02*
X159780000Y99910000D01*
X46580000Y106820000D02*
X43225000Y103465000D01*
X75260000Y171500000D02*
X67640000Y171500000D01*
X138050000Y99790000D02*
X153280000Y99790000D01*
X38780000Y87750000D02*
X34010000Y87750000D01*
X48265000Y106820000D02*
X54185000Y106820000D01*
X77010000Y173250000D02*
X75260000Y171500000D01*
X116510000Y94250000D02*
X132510000Y94250000D01*
X132510000Y94250000D02*
X138050000Y99790000D01*
X18010000Y160750000D02*
X35010000Y177750000D01*
X35010000Y177750000D02*
X40010000Y177750000D01*
X43225000Y103465000D02*
X43225000Y88010000D01*
X42965000Y87750000D02*
X43225000Y88010000D01*
X22510000Y90250000D02*
X18010000Y94750000D01*
X48265000Y106820000D02*
X46580000Y106820000D01*
X103510000Y107250000D02*
X116510000Y94250000D01*
X95010000Y103750000D02*
X98510000Y107250000D01*
X18010000Y94750000D02*
X18010000Y160750000D01*
X153280000Y99790000D02*
X159660000Y99790000D01*
X77010000Y174750000D02*
X77010000Y173250000D01*
X98510000Y107250000D02*
X99010000Y107250000D01*
%TO.N,/programmer/RESET_PROG*%
X137510000Y71250000D02*
X138510000Y70250000D01*
X142010000Y50250000D02*
X143010000Y50250000D01*
X110555000Y67270000D02*
X114305000Y67270000D01*
X152010000Y41250000D02*
X157010000Y41250000D01*
X114305000Y67270000D02*
X114305000Y63190000D01*
X114305000Y63190000D02*
X113925000Y62810000D01*
X119305000Y62890000D02*
X114005000Y62890000D01*
X114005000Y62890000D02*
X113925000Y62810000D01*
X128510000Y71250000D02*
X137510000Y71250000D01*
X159010000Y37250000D02*
X160225000Y36035000D01*
X143010000Y50250000D02*
X152010000Y41250000D01*
X159010000Y39250000D02*
X159010000Y37250000D01*
X160225000Y36035000D02*
X160225000Y33310000D01*
X157010000Y41250000D02*
X159010000Y39250000D01*
%TO.N,/programmer/SCK*%
X82010000Y86270000D02*
X80500000Y86270000D01*
X83910000Y78650000D02*
X88120000Y78650000D01*
X75010000Y63250000D02*
X75010000Y69750000D01*
X126925000Y40030000D02*
X131745000Y40030000D01*
X86110000Y78650000D02*
X88120000Y78650000D01*
X82370000Y93890000D02*
X84010000Y92250000D01*
X75010000Y69750000D02*
X83910000Y78650000D01*
X82010000Y86270000D02*
X83030000Y86270000D01*
X131745000Y40030000D02*
X131925000Y39850000D01*
X84010000Y87250000D02*
X84010000Y80750000D01*
X83030000Y86270000D02*
X84010000Y87250000D01*
X80500000Y93890000D02*
X82370000Y93890000D01*
X84010000Y92250000D02*
X84010000Y87250000D01*
X84010000Y80750000D02*
X86110000Y78650000D01*
%TO.N,/programmer/MISO*%
X121510000Y27750000D02*
X117510000Y27750000D01*
X88935000Y51825000D02*
X88935000Y55110000D01*
X83410000Y70350000D02*
X85010000Y68750000D01*
X125250000Y37490000D02*
X123510000Y35750000D01*
X81315000Y70350000D02*
X83410000Y70350000D01*
X89010000Y50250000D02*
X89010000Y51750000D01*
X126925000Y37490000D02*
X125250000Y37490000D01*
X88935000Y55110000D02*
X87150000Y55110000D01*
X89510000Y49750000D02*
X89010000Y50250000D01*
X126925000Y37490000D02*
X131745000Y37490000D01*
X122510000Y34750000D02*
X122510000Y31750000D01*
X85010000Y63750000D02*
X83990000Y62730000D01*
X85010000Y57250000D02*
X85010000Y63750000D01*
X131745000Y37490000D02*
X131925000Y37310000D01*
X87150000Y55110000D02*
X85010000Y57250000D01*
X85010000Y68750000D02*
X85010000Y63750000D01*
X89010000Y51750000D02*
X88935000Y51825000D01*
X122510000Y31750000D02*
X122510000Y28750000D01*
X122510000Y28750000D02*
X121510000Y27750000D01*
X123510000Y35750000D02*
X122510000Y34750000D01*
X83990000Y62730000D02*
X81315000Y62730000D01*
%TO.N,/programmer/MOSI*%
X124010000Y33750000D02*
X125210000Y34950000D01*
X85010000Y44750000D02*
X85010000Y39250000D01*
X81500000Y45890000D02*
X83870000Y45890000D01*
X85010000Y39250000D02*
X84030000Y38270000D01*
X92110000Y30650000D02*
X89120000Y30650000D01*
X93010000Y29750000D02*
X92110000Y30650000D01*
X126925000Y34950000D02*
X131745000Y34950000D01*
X83870000Y45890000D02*
X85010000Y44750000D01*
X125210000Y34950000D02*
X126925000Y34950000D01*
X84030000Y33730000D02*
X87110000Y30650000D01*
X87110000Y30650000D02*
X89120000Y30650000D01*
X84030000Y38270000D02*
X84030000Y33730000D01*
X124010000Y27750000D02*
X124010000Y33750000D01*
X106510000Y21750000D02*
X98510000Y29750000D01*
X84030000Y38270000D02*
X81500000Y38270000D01*
X119510000Y22250000D02*
X119010000Y21750000D01*
X98510000Y29750000D02*
X93010000Y29750000D01*
X119010000Y21750000D02*
X106510000Y21750000D01*
X131745000Y34950000D02*
X131925000Y34770000D01*
%TO.N,/grid/PD5*%
X167400000Y122770000D02*
X173150000Y122770000D01*
X173150000Y122770000D02*
X173280000Y122640000D01*
%TO.N,/grid/PD6*%
X173150000Y125310000D02*
X173280000Y125180000D01*
X167400000Y125310000D02*
X173150000Y125310000D01*
%TO.N,/grid/PD7*%
X167400000Y127850000D02*
X173150000Y127850000D01*
X173150000Y127850000D02*
X173280000Y127720000D01*
%TO.N,/game/SCK_GAME*%
X48265000Y127360000D02*
X53965000Y127360000D01*
X54265000Y127060000D02*
X55820000Y127060000D01*
X55820000Y127060000D02*
X58010000Y129250000D01*
X36010000Y119250000D02*
X36010000Y122250000D01*
X37510000Y127750000D02*
X45010000Y127750000D01*
X89010000Y142750000D02*
X91740000Y145480000D01*
X65510000Y88750000D02*
X65570000Y88810000D01*
X58510000Y140250000D02*
X85510000Y140250000D01*
X45400000Y127360000D02*
X48265000Y127360000D01*
X36510000Y122750000D02*
X36510000Y126750000D01*
X36510000Y126750000D02*
X37510000Y127750000D01*
X53965000Y127360000D02*
X54265000Y127060000D01*
X45010000Y127750000D02*
X45400000Y127360000D01*
X58010000Y139750000D02*
X58510000Y140250000D01*
X80500000Y88810000D02*
X65570000Y88810000D01*
X36010000Y122250000D02*
X36510000Y122750000D01*
X91740000Y145480000D02*
X98100000Y145480000D01*
X58010000Y129250000D02*
X58010000Y139750000D01*
%TO.N,/game/PB2*%
X48265000Y134980000D02*
X53965000Y134980000D01*
X48055000Y134770000D02*
X48265000Y134980000D01*
X43885000Y134770000D02*
X48055000Y134770000D01*
X53965000Y134980000D02*
X54265000Y134680000D01*
%TO.N,/game/MOSI_GAME*%
X56010000Y132750000D02*
X56510000Y133250000D01*
X48265000Y132440000D02*
X53965000Y132440000D01*
X54265000Y132140000D02*
X55400000Y132140000D01*
X81500000Y40810000D02*
X76570000Y40810000D01*
X32320000Y132440000D02*
X48265000Y132440000D01*
X21010000Y131250000D02*
X24510000Y134750000D01*
X56510000Y133750000D02*
X56510000Y140750000D01*
X53965000Y132440000D02*
X54265000Y132140000D01*
X55400000Y132140000D02*
X56010000Y132750000D01*
X80010000Y141750000D02*
X83510000Y141750000D01*
X57260000Y141500000D02*
X57510000Y141750000D01*
X91280000Y148020000D02*
X98100000Y148020000D01*
X56510000Y140750000D02*
X57260000Y141500000D01*
X56510000Y133250000D02*
X56510000Y133750000D01*
X81010000Y141750000D02*
X80010000Y141750000D01*
X88510000Y145250000D02*
X91280000Y148020000D01*
X57510000Y141750000D02*
X67010000Y141750000D01*
X30010000Y134750000D02*
X32320000Y132440000D01*
X24510000Y134750000D02*
X30010000Y134750000D01*
X67010000Y141750000D02*
X81010000Y141750000D01*
X76510000Y40750000D02*
X76570000Y40810000D01*
%TO.N,/game/MISO_GAME*%
X77530000Y65270000D02*
X77510000Y65250000D01*
X34510000Y124750000D02*
X34510000Y127250000D01*
X48265000Y129900000D02*
X53965000Y129900000D01*
X37160000Y129900000D02*
X48265000Y129900000D01*
X34510000Y127250000D02*
X37160000Y129900000D01*
X100010000Y97750000D02*
X108510000Y97750000D01*
X81315000Y65270000D02*
X77530000Y65270000D01*
X53965000Y129900000D02*
X54265000Y129600000D01*
%TO.N,/game/B_STOP*%
X71860000Y135400000D02*
X73010000Y134250000D01*
X67045000Y134680000D02*
X67765000Y135400000D01*
X61885000Y134680000D02*
X67045000Y134680000D01*
X32950000Y63810000D02*
X38805000Y63810000D01*
X38805000Y63810000D02*
X40685000Y63810000D01*
X29510000Y67250000D02*
X32950000Y63810000D01*
X67765000Y135400000D02*
X71860000Y135400000D01*
X29510000Y93250000D02*
X29510000Y67250000D01*
X40685000Y63810000D02*
X42645000Y65770000D01*
%TO.N,/game/B_START*%
X31510000Y89750000D02*
X31510000Y80750000D01*
X64400000Y132140000D02*
X65120000Y132860000D01*
X42850000Y76710000D02*
X39970000Y76710000D01*
X36510000Y75750000D02*
X39010000Y75750000D01*
X74010000Y132250000D02*
X75010000Y133250000D01*
X39970000Y76710000D02*
X39010000Y75750000D01*
X65120000Y132860000D02*
X67765000Y132860000D01*
X31010000Y90250000D02*
X31510000Y89750000D01*
X61885000Y132140000D02*
X64400000Y132140000D01*
X31510000Y80750000D02*
X36510000Y75750000D01*
X67765000Y132860000D02*
X68375000Y132250000D01*
X68375000Y132250000D02*
X74010000Y132250000D01*
%TO.N,/grid/RESET_GRID*%
X167400000Y93515000D02*
X167645000Y93270000D01*
X111010000Y59250000D02*
X111010000Y56750000D01*
X165010000Y91750000D02*
X166125000Y91750000D01*
X132510000Y73750000D02*
X129010000Y73750000D01*
X111010000Y56750000D02*
X112570000Y55190000D01*
X167400000Y97370000D02*
X167400000Y93515000D01*
X164510000Y91250000D02*
X165010000Y91750000D01*
X119225000Y55190000D02*
X119305000Y55270000D01*
X123510000Y68250000D02*
X123510000Y57750000D01*
X166125000Y91750000D02*
X167645000Y93270000D01*
X137010000Y91250000D02*
X164510000Y91250000D01*
X121030000Y55270000D02*
X119305000Y55270000D01*
X173200000Y97370000D02*
X173280000Y97290000D01*
X113925000Y55190000D02*
X119225000Y55190000D01*
X135010000Y89250000D02*
X137010000Y91250000D01*
X110510000Y59750000D02*
X111010000Y59250000D01*
X129010000Y73750000D02*
X123510000Y68250000D01*
X103260000Y59750000D02*
X110510000Y59750000D01*
X123510000Y57750000D02*
X121030000Y55270000D01*
X167400000Y97370000D02*
X173200000Y97370000D01*
X112570000Y55190000D02*
X113925000Y55190000D01*
%TO.N,/grid/PD2*%
X173200000Y104990000D02*
X173280000Y104910000D01*
X167400000Y104990000D02*
X173200000Y104990000D01*
%TO.N,/grid/PD3*%
X167400000Y107530000D02*
X173200000Y107530000D01*
X173200000Y107530000D02*
X173280000Y107450000D01*
%TO.N,/game/RESET_GAME*%
X61885000Y104200000D02*
X67685000Y104200000D01*
X67685000Y104200000D02*
X67765000Y104280000D01*
X67765000Y104280000D02*
X74045000Y104280000D01*
X119225000Y52650000D02*
X119305000Y52730000D01*
X61885000Y104200000D02*
X61885000Y100030000D01*
X106510000Y71250000D02*
X106510000Y61750000D01*
X113925000Y52650000D02*
X119225000Y52650000D01*
X61885000Y100030000D02*
X62145000Y99770000D01*
X74045000Y104280000D02*
X75555000Y102770000D01*
%TO.N,/grid/PB2*%
X147305000Y131270000D02*
X147305000Y129955000D01*
X147305000Y129955000D02*
X149270000Y127990000D01*
X159640000Y127990000D02*
X159780000Y127850000D01*
X153280000Y127990000D02*
X159640000Y127990000D01*
X149270000Y127990000D02*
X153280000Y127990000D01*
%TO.N,/game/DIR_MCU_T_FLASH*%
X103010000Y127250000D02*
X103010000Y140230000D01*
X103320000Y126940000D02*
X103010000Y127250000D01*
X63010000Y174250000D02*
X63010000Y168250000D01*
X105450000Y109960000D02*
X103800000Y109960000D01*
X104320000Y142940000D02*
X103010000Y144250000D01*
X103010000Y157750000D02*
X83010000Y177750000D01*
X66510000Y177750000D02*
X63010000Y174250000D01*
X103010000Y144250000D02*
X103010000Y157750000D01*
X59850000Y166250000D02*
X60020000Y166420000D01*
X83010000Y177750000D02*
X66510000Y177750000D01*
X61180000Y166420000D02*
X60020000Y166420000D01*
X63010000Y168250000D02*
X61180000Y166420000D01*
X103010000Y140230000D02*
X105720000Y142940000D01*
X105720000Y142940000D02*
X104320000Y142940000D01*
X56510000Y166250000D02*
X59850000Y166250000D01*
X103010000Y110750000D02*
X103010000Y127250000D01*
X103800000Y109960000D02*
X103010000Y110750000D01*
X105325000Y126940000D02*
X103320000Y126940000D01*
%TO.N,/game/VIBRATOR*%
X54185000Y109360000D02*
X54265000Y109280000D01*
X48265000Y109360000D02*
X54185000Y109360000D01*
X48265000Y109360000D02*
X34900000Y109360000D01*
X34900000Y109360000D02*
X34510000Y109750000D01*
X29010000Y117750000D02*
X29010000Y123710000D01*
%TO.N,/game/B_SELECT*%
X48265000Y116980000D02*
X30740000Y116980000D01*
X25010000Y111250000D02*
X25010000Y62505000D01*
X41765000Y51250000D02*
X42725000Y52210000D01*
X48265000Y116980000D02*
X54185000Y116980000D01*
X25010000Y62505000D02*
X36265000Y51250000D01*
X38805000Y51250000D02*
X41765000Y51250000D01*
X54185000Y116980000D02*
X54265000Y116900000D01*
X36265000Y51250000D02*
X38805000Y51250000D01*
X30740000Y116980000D02*
X25010000Y111250000D01*
%TO.N,/game/FLASH_WP*%
X48265000Y114440000D02*
X54185000Y114440000D01*
X90220000Y115040000D02*
X97830000Y115040000D01*
X88010000Y117250000D02*
X90220000Y115040000D01*
X48265000Y114440000D02*
X42820000Y114440000D01*
X88010000Y126250000D02*
X88010000Y117250000D01*
X42820000Y114440000D02*
X42510000Y114750000D01*
X66510000Y144750000D02*
X76510000Y144750000D01*
X54185000Y114440000D02*
X54265000Y114360000D01*
%TO.N,/grid/PC1*%
X159660000Y107410000D02*
X159780000Y107530000D01*
X153280000Y107410000D02*
X159660000Y107410000D01*
%TO.N,/grid/B_SELECT*%
X159780000Y110070000D02*
X153400000Y110070000D01*
X153400000Y110070000D02*
X153280000Y109950000D01*
%TO.N,/grid/PC3*%
X159660000Y102330000D02*
X159780000Y102450000D01*
X153280000Y102330000D02*
X159660000Y102330000D01*
%TO.N,/grid/PC2*%
X159660000Y104870000D02*
X159780000Y104990000D01*
X153280000Y104870000D02*
X159660000Y104870000D01*
%TO.N,/programmer/PB0*%
X119305000Y29870000D02*
X114205000Y29870000D01*
X114205000Y29870000D02*
X113925000Y30150000D01*
%TO.N,/converter/RTS_CONV*%
X133300000Y60040000D02*
X131925000Y60040000D01*
X131615000Y60350000D02*
X131925000Y60040000D01*
X143510000Y76750000D02*
X143960000Y77200000D01*
X143510000Y73250000D02*
X143510000Y66250000D01*
X126925000Y60350000D02*
X131615000Y60350000D01*
X138010000Y60750000D02*
X134010000Y60750000D01*
X134010000Y60750000D02*
X133300000Y60040000D01*
X143510000Y66250000D02*
X138010000Y60750000D01*
X143960000Y77200000D02*
X158690000Y77200000D01*
%TO.N,/programmer/PC5*%
X131615000Y62890000D02*
X131925000Y62580000D01*
X126925000Y62890000D02*
X131615000Y62890000D01*
%TO.N,/converter/CTS_CONV*%
X154380000Y56880000D02*
X158690000Y56880000D01*
X131615000Y57810000D02*
X131925000Y57500000D01*
X152510000Y58750000D02*
X154380000Y56880000D01*
X126925000Y57810000D02*
X131615000Y57810000D01*
X133175000Y58750000D02*
X152510000Y58750000D01*
X131925000Y57500000D02*
X133175000Y58750000D01*
%TO.N,/programmer/PB1*%
X131745000Y29870000D02*
X131925000Y29690000D01*
X126925000Y29870000D02*
X131745000Y29870000D01*
%TO.N,/programmer/PB2*%
X131925000Y32230000D02*
X135845000Y32230000D01*
X131745000Y32410000D02*
X131925000Y32230000D01*
X126925000Y32410000D02*
X131745000Y32410000D01*
%TO.N,/game/MISO*%
X122305000Y136730000D02*
X123990000Y136730000D01*
X124010000Y136750000D02*
X125510000Y135250000D01*
X137010000Y108250000D02*
X137010000Y104250000D01*
X131010000Y111250000D02*
X134010000Y111250000D01*
X125510000Y135250000D02*
X125510000Y116750000D01*
X135300000Y102540000D02*
X130120000Y102540000D01*
X134010000Y111250000D02*
X137010000Y108250000D01*
X125510000Y116750000D02*
X131010000Y111250000D01*
X137010000Y104250000D02*
X135300000Y102540000D01*
X123990000Y136730000D02*
X124010000Y136750000D01*
%TO.N,/game/MOSI*%
X105720000Y148020000D02*
X110280000Y148020000D01*
X139510000Y149750000D02*
X139510000Y133750000D01*
X113510000Y151250000D02*
X123510000Y151250000D01*
X123510000Y151250000D02*
X125510000Y153250000D01*
X137410000Y131650000D02*
X129925000Y131650000D01*
X132510000Y153250000D02*
X133510000Y152250000D01*
X125510000Y153250000D02*
X132510000Y153250000D01*
X139510000Y133750000D02*
X137410000Y131650000D01*
X137010000Y152250000D02*
X139510000Y149750000D01*
X110280000Y148020000D02*
X113510000Y151250000D01*
X133510000Y152250000D02*
X137010000Y152250000D01*
%TO.N,/game/SCK*%
X105720000Y145480000D02*
X109740000Y145480000D01*
X109740000Y145480000D02*
X114010000Y149750000D01*
X114010000Y149750000D02*
X126010000Y149750000D01*
X131570000Y134190000D02*
X129925000Y134190000D01*
X137010000Y146750000D02*
X138010000Y145750000D01*
X129010000Y146750000D02*
X137010000Y146750000D01*
X136510000Y133750000D02*
X132010000Y133750000D01*
X138010000Y135250000D02*
X136510000Y133750000D01*
X138010000Y145750000D02*
X138010000Y135250000D01*
X132010000Y133750000D02*
X131570000Y134190000D01*
X126010000Y149750000D02*
X129010000Y146750000D01*
%TO.N,Net-(U5-~{RESET})*%
X173930000Y59420000D02*
X177840000Y59420000D01*
X177840000Y59420000D02*
X179010000Y58250000D01*
X189010000Y55750000D02*
X189035000Y55750000D01*
X189035000Y55750000D02*
X191555000Y58270000D01*
X189010000Y55750000D02*
X189225000Y55535000D01*
X186510000Y58250000D02*
X189010000Y55750000D01*
X189225000Y55535000D02*
X189225000Y53270000D01*
X179010000Y58250000D02*
X186510000Y58250000D01*
%TO.N,/game/WP*%
X118510000Y133250000D02*
X119450000Y134190000D01*
X105450000Y115040000D02*
X108875000Y115040000D01*
X108875000Y115040000D02*
X109145000Y114770000D01*
X109145000Y114770000D02*
X113030000Y114770000D01*
X119450000Y134190000D02*
X122305000Y134190000D01*
X118510000Y120250000D02*
X118510000Y133250000D01*
X113030000Y114770000D02*
X118510000Y120250000D01*
%TO.N,/programmer/TXD*%
X122510000Y58750000D02*
X122510000Y69250000D01*
X145510000Y75250000D02*
X151010000Y69750000D01*
X151510000Y66750000D02*
X151530000Y66770000D01*
X128510000Y75250000D02*
X145510000Y75250000D01*
X151530000Y66770000D02*
X153305000Y66770000D01*
X121570000Y57810000D02*
X122510000Y58750000D01*
X119225000Y57730000D02*
X119305000Y57810000D01*
X113925000Y57730000D02*
X119225000Y57730000D01*
X119305000Y57810000D02*
X121570000Y57810000D01*
X151010000Y67250000D02*
X151510000Y66750000D01*
X122510000Y69250000D02*
X128510000Y75250000D01*
X151010000Y69750000D02*
X151010000Y67250000D01*
%TO.N,/programmer/GRID_SIGNAL*%
X90410000Y43350000D02*
X91510000Y42250000D01*
X86510000Y68750000D02*
X86510000Y74250000D01*
X91510000Y39250000D02*
X93510000Y37250000D01*
X87410000Y43350000D02*
X89120000Y43350000D01*
X118471637Y24750000D02*
X118473637Y24752000D01*
X120548363Y24750000D02*
X134510000Y24750000D01*
X97510000Y37250000D02*
X100010000Y34750000D01*
X89120000Y43350000D02*
X90410000Y43350000D01*
X86510000Y44250000D02*
X87410000Y43350000D01*
X142010000Y36750000D02*
X143510000Y38250000D01*
X142010000Y32250000D02*
X142010000Y36750000D01*
X126925000Y50190000D02*
X131615000Y50190000D01*
X100010000Y33250000D02*
X108510000Y24750000D01*
X108510000Y24750000D02*
X118471637Y24750000D01*
X139880000Y49880000D02*
X131925000Y49880000D01*
X88935000Y67810000D02*
X87450000Y67810000D01*
X87450000Y67810000D02*
X86510000Y68750000D01*
X143510000Y46250000D02*
X139880000Y49880000D01*
X118473637Y24752000D02*
X120546363Y24752000D01*
X131615000Y50190000D02*
X131925000Y49880000D01*
X93510000Y37250000D02*
X97510000Y37250000D01*
X90910000Y91350000D02*
X91990000Y90270000D01*
X86510000Y52250000D02*
X86510000Y44250000D01*
X88120000Y91350000D02*
X90910000Y91350000D01*
X100010000Y34750000D02*
X100010000Y33250000D01*
X143510000Y38250000D02*
X143510000Y46250000D01*
X120546363Y24752000D02*
X120548363Y24750000D01*
X91990000Y90270000D02*
X100145000Y90270000D01*
X91510000Y42250000D02*
X91510000Y39250000D01*
X134510000Y24750000D02*
X142010000Y32250000D01*
%TO.N,/programmer/GAME_SIGNAL*%
X131615000Y52730000D02*
X131925000Y52420000D01*
X84510000Y49250000D02*
X84510000Y54250000D01*
X75510000Y35250000D02*
X75990000Y35730000D01*
X84510000Y54250000D02*
X84010000Y54750000D01*
X84010000Y59250000D02*
X83070000Y60190000D01*
X83070000Y60190000D02*
X81315000Y60190000D01*
X80460000Y83770000D02*
X80500000Y83730000D01*
X84010000Y54750000D02*
X84010000Y59250000D01*
X75990000Y35730000D02*
X81500000Y35730000D01*
X73305000Y83770000D02*
X80460000Y83770000D01*
X126925000Y52730000D02*
X131615000Y52730000D01*
%TO.N,/programmer/EXT_SIGNAL*%
X75610000Y57650000D02*
X81315000Y57650000D01*
X126925000Y55270000D02*
X131615000Y55270000D01*
X79580000Y80270000D02*
X80500000Y81190000D01*
X73465000Y59795000D02*
X75610000Y57650000D01*
X131925000Y54960000D02*
X132635000Y54250000D01*
X143510000Y51750000D02*
X152510000Y42750000D01*
X73465000Y34795000D02*
X75070000Y33190000D01*
X131615000Y55270000D02*
X131925000Y54960000D01*
X73465000Y80270000D02*
X79580000Y80270000D01*
X73465000Y80270000D02*
X73465000Y59795000D01*
X167510000Y37750000D02*
X175510000Y37750000D01*
X152510000Y42750000D02*
X162510000Y42750000D01*
X132635000Y54250000D02*
X142510000Y54250000D01*
X73465000Y59795000D02*
X73465000Y34795000D01*
X142510000Y54250000D02*
X143510000Y53250000D01*
X178305000Y34955000D02*
X178305000Y29270000D01*
X143510000Y53250000D02*
X143510000Y51750000D01*
X175510000Y37750000D02*
X178305000Y34955000D01*
X162510000Y42750000D02*
X167510000Y37750000D01*
X75070000Y33190000D02*
X81500000Y33190000D01*
%TO.N,/programmer/MOSI_EXT*%
X171010000Y32250000D02*
X169950000Y33310000D01*
X120632735Y23250000D02*
X165510000Y23250000D01*
X94010000Y31750000D02*
X99010000Y31750000D01*
X120131735Y23751000D02*
X120632735Y23250000D01*
X107510000Y23250000D02*
X118387265Y23250000D01*
X171010000Y28750000D02*
X171010000Y32250000D01*
X118888265Y23751000D02*
X120131735Y23751000D01*
X89120000Y33190000D02*
X92570000Y33190000D01*
X118387265Y23250000D02*
X118888265Y23751000D01*
X92570000Y33190000D02*
X94010000Y31750000D01*
X165510000Y23250000D02*
X171010000Y28750000D01*
X169950000Y33310000D02*
X165305000Y33310000D01*
X99010000Y31750000D02*
X107510000Y23250000D01*
%TO.N,/programmer/MISO_EXT*%
X146010000Y42750000D02*
X148510000Y42750000D01*
X151010000Y40250000D02*
X153010000Y40250000D01*
X153010000Y40250000D02*
X154510000Y38750000D01*
X155145000Y37115000D02*
X155145000Y33310000D01*
X154510000Y37750000D02*
X155145000Y37115000D01*
X154510000Y38750000D02*
X154510000Y37750000D01*
X148510000Y42750000D02*
X151010000Y40250000D01*
%TO.N,/programmer/SCK_EXT*%
X136510000Y67750000D02*
X140510000Y67750000D01*
X149510000Y38750000D02*
X151010000Y38750000D01*
X123570000Y81190000D02*
X126510000Y78250000D01*
X140510000Y67750000D02*
X141010000Y67250000D01*
X88120000Y81190000D02*
X123570000Y81190000D01*
X147510000Y40750000D02*
X149510000Y38750000D01*
%TO.N,Net-(D1-A)*%
X184305000Y69110000D02*
X187305000Y72110000D01*
X184305000Y68770000D02*
X184305000Y69110000D01*
%TO.N,Net-(D2-A)*%
X149990000Y51770000D02*
X148650000Y53110000D01*
X148650000Y53110000D02*
X147305000Y53110000D01*
X151305000Y51770000D02*
X149990000Y51770000D01*
%TO.N,/converter/WAKE_UP*%
X119305000Y34950000D02*
X114205000Y34950000D01*
X113925000Y35230000D02*
X105765000Y35230000D01*
X114510000Y26250000D02*
X121510000Y26250000D01*
X140010000Y32250000D02*
X140010000Y37250000D01*
X134010000Y26250000D02*
X135010000Y27250000D01*
X135010000Y27250000D02*
X140010000Y32250000D01*
X105305000Y32955000D02*
X112010000Y26250000D01*
X114205000Y34950000D02*
X113925000Y35230000D01*
X112010000Y26250000D02*
X114510000Y26250000D01*
X156180000Y46750000D02*
X158690000Y49260000D01*
X140010000Y37250000D02*
X140010000Y37750000D01*
X105305000Y34770000D02*
X105305000Y32955000D01*
X121510000Y26250000D02*
X134010000Y26250000D01*
X154010000Y46750000D02*
X156180000Y46750000D01*
X105765000Y35230000D02*
X105305000Y34770000D01*
%TO.N,/converter/CLOCK*%
X151510000Y46750000D02*
X147510000Y50750000D01*
X145510000Y54750000D02*
X144510000Y55750000D01*
X173930000Y69580000D02*
X173530000Y69580000D01*
X156510000Y44250000D02*
X154010000Y44250000D01*
X169510000Y63250000D02*
X169510000Y54250000D01*
X161010000Y45750000D02*
X159510000Y44250000D01*
X159510000Y44250000D02*
X156510000Y44250000D01*
X116510000Y48250000D02*
X116510000Y48750000D01*
X173530000Y69580000D02*
X169510000Y65560000D01*
X147010000Y51250000D02*
X146010000Y51250000D01*
X146010000Y51250000D02*
X145510000Y51750000D01*
X117950000Y50190000D02*
X119305000Y50190000D01*
X154010000Y44250000D02*
X151510000Y46750000D01*
X169510000Y65560000D02*
X169510000Y63250000D01*
X145510000Y51750000D02*
X145510000Y54750000D01*
X169510000Y54250000D02*
X161010000Y45750000D01*
X116510000Y48750000D02*
X117950000Y50190000D01*
X115010000Y46750000D02*
X116510000Y48250000D01*
X147510000Y50750000D02*
X147010000Y51250000D01*
X144010000Y56250000D02*
X139010000Y56250000D01*
X144510000Y55750000D02*
X144010000Y56250000D01*
%TO.N,Net-(D1-K)*%
X179030000Y68770000D02*
X181765000Y68770000D01*
X177300000Y67040000D02*
X179030000Y68770000D01*
X173930000Y67040000D02*
X177300000Y67040000D01*
%TO.N,Net-(D2-K)*%
X158690000Y51800000D02*
X153875000Y51800000D01*
X153875000Y51800000D02*
X153845000Y51770000D01*
%TO.N,/converter/D-*%
X175900000Y51030000D02*
X181937108Y51030000D01*
X170010000Y46475000D02*
X168805000Y45270000D01*
X171560000Y51800000D02*
X170010000Y50250000D01*
X203017500Y30964608D02*
X203017500Y35520000D01*
X170010000Y50250000D02*
X170010000Y46475000D01*
X203017500Y35520000D02*
X202517500Y36020000D01*
X199802892Y27750000D02*
X203017500Y30964608D01*
X181937108Y51030000D02*
X189010000Y43957108D01*
X192217108Y27750000D02*
X199802892Y27750000D01*
X189010000Y43957108D02*
X189010000Y30957108D01*
X175130000Y51800000D02*
X175900000Y51030000D01*
X173930000Y51800000D02*
X171560000Y51800000D01*
X189010000Y30957108D02*
X192217108Y27750000D01*
X173930000Y51800000D02*
X175130000Y51800000D01*
%TO.N,/converter/D+*%
X175900000Y50030000D02*
X181522892Y50030000D01*
X173930000Y46645000D02*
X175305000Y45270000D01*
X191802892Y26750000D02*
X200217108Y26750000D01*
X175130000Y49260000D02*
X175900000Y50030000D01*
X181522892Y50030000D02*
X188010000Y43542892D01*
X173930000Y49260000D02*
X175130000Y49260000D01*
X200217108Y26750000D02*
X204017500Y30550392D01*
X204017500Y35520000D02*
X204517500Y36020000D01*
X188010000Y30542892D02*
X191802892Y26750000D01*
X188010000Y43542892D02*
X188010000Y30542892D01*
X173930000Y49260000D02*
X173930000Y46645000D01*
X204017500Y30550392D02*
X204017500Y35520000D01*
%TO.N,Net-(J8-Pin_1)*%
X29010000Y131170000D02*
X29010000Y126250000D01*
%TO.N,/game/DIR_FLASH_T_MCU*%
X58890000Y162750000D02*
X60020000Y163880000D01*
X56590000Y162750000D02*
X58890000Y162750000D01*
%TO.N,Net-(BZ1--)*%
X28090000Y154330000D02*
X28010000Y154330000D01*
X32010000Y158250000D02*
X28090000Y154330000D01*
%TO.N,Net-(U10-A2)*%
X59230000Y169750000D02*
X60020000Y168960000D01*
X56590000Y169750000D02*
X59230000Y169750000D01*
%TO.N,Net-(U10-A1)*%
X58270000Y173250000D02*
X60020000Y171500000D01*
X56590000Y173250000D02*
X58270000Y173250000D01*
%TO.N,Net-(U10-~{INT})*%
X67640000Y166420000D02*
X70760000Y166420000D01*
X70760000Y166420000D02*
X70930000Y166250000D01*
%TO.N,/game/BUZZER_PWM*%
X61885000Y129600000D02*
X63860000Y129600000D01*
X39610000Y153650000D02*
X39610000Y158250000D01*
X63860000Y129600000D02*
X64510000Y130250000D01*
X51010000Y142250000D02*
X39610000Y153650000D01*
X67695000Y130250000D02*
X67765000Y130320000D01*
X64510000Y130250000D02*
X67695000Y130250000D01*
%TD*%
M02*
