M48
; DRILL file {KiCad 9.0.1} date 2025-10-10T21:54:18-0400
; FORMAT={-:-/ absolute / metric / decimal}
; #@! TF.CreationDate,2025-10-10T21:54:18-04:00
; #@! TF.GenerationSoftware,Kicad,Pcbnew,9.0.1
; #@! TF.FileFunction,Plated,1,4,PTH
FMAT,2
METRIC
; #@! TA.AperFunction,Plated,PTH,ViaDrill
T1C0.400
; #@! TA.AperFunction,Plated,PTH,ComponentDrill
T2C0.800
; #@! TA.AperFunction,Plated,PTH,ComponentDrill
T3C0.900
; #@! TA.AperFunction,Plated,PTH,ComponentDrill
T4C0.950
; #@! TA.AperFunction,Plated,PTH,ViaDrill
T5C1.000
; #@! TA.AperFunction,Plated,PTH,ComponentDrill
T6C1.000
; #@! TA.AperFunction,Plated,PTH,ComponentDrill
T7C1.100
; #@! TA.AperFunction,Plated,PTH,ComponentDrill
T8C1.300
; #@! TA.AperFunction,Plated,PTH,ComponentDrill
T9C1.500
; #@! TA.AperFunction,Plated,PTH,ComponentDrill
T10C2.300
%
G90
G05
T1
X46.2Y123.58
X50.96Y122.66
X75.01Y63.25
X75.51Y35.25
X78.51Y47.75
X80.49Y113.88
X84.51Y49.25
X90.99Y70.25
X92.51Y119.75
X93.01Y137.75
X93.4Y152.93
X95.01Y103.75
X95.36Y95.6
X95.51Y70.75
X96.51Y45.25
X98.51Y99.25
X99.01Y107.25
X100.01Y97.75
X100.01Y74.25
X101.01Y102.25
X103.51Y107.25
X106.51Y71.25
X106.51Y61.75
X107.01Y100.75
X108.51Y97.75
X109.01Y154.75
X109.51Y137.25
X112.01Y119.75
X113.51Y100.75
X114.51Y162.25
X117.96Y107.48
X120.51Y79.75
X126.51Y78.25
X128.51Y65.75
X130.01Y116.25
X132.01Y124.75
X133.01Y144.75
X134.86Y106.21
X136.01Y70.2
X136.51Y67.75
X141.01Y67.25
X142.51Y101.75
X146.01Y106.75
X146.01Y42.75
X146.51Y157.75
X147.51Y40.75
X151.01Y75.25
X151.01Y38.75
X151.51Y115.25
X175.51Y113.75
X177.01Y158.75
X196.51Y70.75
X198.51Y40.25
X205.51Y49.25
X207.01Y141.75
X208.51Y58.25
T2
X28.01Y154.33
X28.01Y144.17
X29.01Y141.33
X29.01Y131.17
X33.645Y138.77
X33.725Y134.77
X42.645Y65.77
X42.645Y29.71
X42.725Y52.21
X42.725Y37.21
X42.725Y33.71
X42.725Y25.71
X42.85Y76.71
X43.225Y88.01
X43.225Y84.51
X43.805Y138.77
X43.885Y134.77
X46.35Y166.25
X46.43Y173.25
X46.43Y169.75
X46.43Y162.75
X52.805Y65.77
X52.805Y29.71
X52.885Y52.21
X52.885Y37.21
X52.885Y33.71
X52.885Y25.71
X53.01Y76.71
X53.385Y88.01
X53.385Y84.51
X54.265Y137.22
X54.265Y134.68
X54.265Y132.14
X54.265Y129.6
X54.265Y127.06
X54.265Y124.52
X54.265Y121.98
X54.265Y119.44
X54.265Y116.9
X54.265Y114.36
X54.265Y111.82
X54.265Y109.28
X54.265Y106.74
X54.265Y104.2
X56.51Y166.25
X56.59Y173.25
X56.59Y169.75
X56.59Y162.75
X60.02Y174.04
X60.02Y171.5
X60.02Y168.96
X60.02Y166.42
X60.02Y163.88
X60.02Y161.34
X60.02Y158.8
X60.02Y156.26
X61.885Y137.22
X61.885Y134.68
X61.885Y132.14
X61.885Y129.6
X61.885Y127.06
X61.885Y124.52
X61.885Y121.98
X61.885Y119.44
X61.885Y116.9
X61.885Y114.36
X61.885Y111.82
X61.885Y109.28
X61.885Y106.74
X61.885Y104.2
X62.145Y99.77
X63.145Y83.77
X63.305Y80.27
X67.64Y174.04
X67.64Y171.5
X67.64Y168.96
X67.64Y166.42
X67.64Y163.88
X67.64Y161.34
X67.64Y158.8
X67.64Y156.26
X70.93Y166.25
X71.725Y137.77
X72.305Y99.77
X73.305Y83.77
X73.465Y80.27
X73.765Y127.36
X74.265Y119.86
X76.265Y127.36
X76.765Y119.86
X80.5Y93.89
X80.5Y91.35
X80.5Y88.81
X80.5Y86.27
X80.5Y83.73
X80.5Y81.19
X80.5Y78.65
X81.09Y166.25
X81.315Y70.35
X81.315Y67.81
X81.315Y65.27
X81.315Y62.73
X81.315Y60.19
X81.315Y57.65
X81.315Y55.11
X81.5Y45.89
X81.5Y43.35
X81.5Y40.81
X81.5Y38.27
X81.5Y35.73
X81.5Y33.19
X81.5Y30.65
X81.885Y137.77
X88.12Y93.89
X88.12Y91.35
X88.12Y88.81
X88.12Y86.27
X88.12Y83.73
X88.12Y81.19
X88.12Y78.65
X88.935Y70.35
X88.935Y67.81
X88.935Y65.27
X88.935Y62.73
X88.935Y60.19
X88.935Y57.65
X88.935Y55.11
X89.12Y45.89
X89.12Y43.35
X89.12Y40.81
X89.12Y38.27
X89.12Y35.73
X89.12Y33.19
X89.12Y30.65
X95.145Y34.77
X97.705Y134.56
X97.705Y132.02
X97.705Y129.48
X97.705Y126.94
X97.83Y117.58
X97.83Y115.04
X97.83Y112.5
X97.83Y109.96
X98.1Y150.56
X98.1Y148.02
X98.1Y145.48
X98.1Y142.94
X100.145Y90.27
X101.925Y46.73
X101.925Y39.73
X104.425Y46.73
X104.425Y39.73
X105.305Y34.77
X105.325Y134.56
X105.325Y132.02
X105.325Y129.48
X105.325Y126.94
X105.45Y117.58
X105.45Y115.04
X105.45Y112.5
X105.45Y109.96
X105.72Y150.56
X105.72Y148.02
X105.72Y145.48
X105.72Y142.94
X109.145Y114.77
X110.305Y90.27
X112.43Y176.25
X112.43Y172.25
X114.305Y77.43
X114.305Y67.27
X118.725Y144.27
X119.305Y114.77
X119.305Y62.89
X119.305Y60.35
X119.305Y57.81
X119.305Y55.27
X119.305Y52.73
X119.305Y50.19
X119.305Y47.65
X119.305Y45.11
X119.305Y42.57
X119.305Y40.03
X119.305Y37.49
X119.305Y34.95
X119.305Y32.41
X119.305Y29.87
X122.305Y139.27
X122.305Y136.73
X122.305Y134.19
X122.305Y131.65
X122.5Y105.08
X122.5Y102.54
X122.5Y100.0
X122.5Y97.46
X122.59Y176.25
X122.59Y172.25
X126.925Y62.89
X126.925Y60.35
X126.925Y57.81
X126.925Y55.27
X126.925Y52.73
X126.925Y50.19
X126.925Y47.65
X126.925Y45.11
X126.925Y42.57
X126.925Y40.03
X126.925Y37.49
X126.925Y34.95
X126.925Y32.41
X126.925Y29.87
X128.885Y144.27
X129.01Y160.33
X129.01Y150.17
X129.925Y139.27
X129.925Y136.73
X129.925Y134.19
X129.925Y131.65
X130.12Y105.08
X130.12Y102.54
X130.12Y100.0
X130.12Y97.46
X132.51Y174.5
X132.51Y172.0
X134.01Y168.06
X134.01Y160.44
X134.265Y135.92
X135.845Y32.23
X144.425Y135.92
X146.005Y32.23
X146.53Y173.7
X146.53Y169.2
X147.305Y141.43
X147.305Y131.27
X147.305Y63.27
X147.305Y53.11
X156.69Y173.7
X156.69Y169.2
X158.69Y82.28
X158.69Y79.74
X158.69Y77.2
X158.69Y74.66
X158.69Y72.12
X158.69Y69.58
X158.69Y67.04
X158.69Y64.5
X158.69Y61.96
X158.69Y59.42
X158.69Y56.88
X158.69Y54.34
X158.69Y51.8
X158.69Y49.26
X159.78Y130.39
X159.78Y127.85
X159.78Y125.31
X159.78Y122.77
X159.78Y120.23
X159.78Y117.69
X159.78Y115.15
X159.78Y112.61
X159.78Y110.07
X159.78Y107.53
X159.78Y104.99
X159.78Y102.45
X159.78Y99.91
X159.78Y97.37
X159.805Y136.27
X161.61Y157.28
X161.61Y147.12
X167.01Y172.0
X167.01Y169.5
X167.11Y164.51
X167.11Y156.89
X167.4Y130.39
X167.4Y127.85
X167.4Y125.31
X167.4Y122.77
X167.4Y120.23
X167.4Y117.69
X167.4Y115.15
X167.4Y112.61
X167.4Y110.07
X167.4Y107.53
X167.4Y104.99
X167.4Y102.45
X167.4Y99.91
X167.4Y97.37
X167.645Y93.27
X169.965Y136.27
X172.645Y134.77
X173.93Y82.28
X173.93Y79.74
X173.93Y77.2
X173.93Y74.66
X173.93Y72.12
X173.93Y69.58
X173.93Y67.04
X173.93Y64.5
X173.93Y61.96
X173.93Y59.42
X173.93Y56.88
X173.93Y54.34
X173.93Y51.8
X173.93Y49.26
X175.43Y176.25
X175.43Y172.25
X176.305Y29.27
X177.805Y93.27
X178.305Y29.27
X180.305Y29.27
X182.28Y122.95
X182.28Y115.95
X182.805Y134.77
X184.78Y122.95
X184.78Y115.95
X185.59Y176.25
X185.59Y172.25
X187.305Y82.27
X187.305Y72.11
X189.225Y53.27
X190.805Y71.93
X190.805Y61.77
X192.915Y136.26
X192.915Y133.72
X192.915Y131.18
X192.915Y128.64
X193.51Y159.91
X193.51Y149.75
X195.305Y92.85
X195.305Y82.69
X195.51Y174.75
X195.51Y172.25
X199.01Y166.56
X199.01Y158.94
X199.385Y53.27
X200.535Y136.26
X200.535Y133.72
X200.535Y131.18
X200.535Y128.64
X201.555Y88.77
X204.055Y88.77
X209.805Y90.52
X209.805Y88.02
T3
X126.51Y174.52
X126.51Y171.98
X151.305Y51.77
X153.845Y51.77
X161.11Y171.47
X161.11Y168.93
X181.765Y68.77
X184.305Y68.77
X190.01Y174.75
X190.01Y172.21
X196.265Y77.77
X198.805Y77.77
T4
X202.517Y38.52
X202.517Y36.02
X204.517Y38.52
X204.517Y36.02
T5
X21.01Y131.25
X22.51Y90.25
X23.01Y85.25
X28.51Y61.75
X29.01Y117.75
X29.51Y93.25
X30.51Y37.75
X31.01Y90.25
X34.01Y87.75
X34.01Y85.25
X34.51Y124.75
X34.51Y109.75
X36.01Y119.25
X36.51Y99.27
X37.51Y101.77
X40.01Y177.75
X42.51Y114.75
X51.01Y142.25
X52.305Y101.77
X52.305Y99.27
X65.57Y88.81
X66.51Y144.75
X73.01Y134.25
X75.01Y133.25
X76.51Y144.75
X76.51Y57.75
X76.57Y40.81
X77.51Y65.25
X78.01Y175.75
X83.51Y141.75
X85.01Y171.25
X85.51Y140.25
X86.51Y74.25
X86.51Y52.25
X88.01Y126.25
X88.51Y145.25
X89.01Y142.75
X89.51Y49.75
X90.01Y175.75
X109.51Y33.73
X112.01Y140.25
X112.51Y46.75
X115.01Y46.75
X117.51Y27.75
X118.01Y140.25
X119.51Y22.25
X124.01Y27.75
X128.51Y71.25
X132.51Y73.75
X135.01Y89.25
X138.51Y70.25
X139.01Y56.25
X140.01Y37.75
X142.01Y50.25
X143.51Y76.75
X143.51Y73.25
X154.01Y46.75
T6
X29.01Y126.25
X29.01Y123.71
X31.01Y103.29
X31.01Y100.75
X31.01Y98.21
X32.01Y158.25
X38.78Y92.83
X38.78Y90.29
X38.78Y87.75
X38.78Y85.21
X38.805Y63.81
X38.805Y61.27
X38.805Y51.25
X38.805Y48.71
X38.805Y39.79
X38.805Y37.25
X38.805Y34.71
X38.805Y32.17
X38.805Y29.63
X39.01Y75.75
X39.01Y73.21
X39.61Y158.25
X48.265Y137.52
X48.265Y134.98
X48.265Y132.44
X48.265Y129.9
X48.265Y127.36
X48.265Y116.98
X48.265Y114.44
X48.265Y111.9
X48.265Y109.36
X48.265Y106.82
X48.265Y104.28
X67.765Y137.94
X67.765Y135.4
X67.765Y132.86
X67.765Y130.32
X67.765Y116.98
X67.765Y114.44
X67.765Y111.9
X67.765Y109.36
X67.765Y106.82
X67.765Y104.28
X69.765Y126.36
X69.765Y121.36
X108.925Y46.28
X108.925Y41.28
X113.925Y62.81
X113.925Y60.27
X113.925Y57.73
X113.925Y55.19
X113.925Y52.65
X113.925Y50.11
X113.925Y37.77
X113.925Y35.23
X113.925Y32.69
X113.925Y30.15
X131.925Y62.58
X131.925Y60.04
X131.925Y57.5
X131.925Y54.96
X131.925Y52.42
X131.925Y49.88
X131.925Y39.85
X131.925Y37.31
X131.925Y34.77
X131.925Y32.23
X131.925Y29.69
X139.78Y85.825
X139.78Y83.285
X139.78Y80.745
X150.305Y82.77
X152.845Y82.77
X153.28Y130.53
X153.28Y127.99
X153.28Y125.45
X153.28Y122.91
X153.28Y120.37
X153.28Y109.95
X153.28Y107.41
X153.28Y104.87
X153.28Y102.33
X153.28Y99.79
X153.28Y97.25
X153.305Y69.31
X153.305Y66.77
X155.145Y33.31
X155.145Y30.77
X157.685Y33.31
X157.685Y30.77
X160.225Y33.31
X160.225Y30.77
X162.765Y33.31
X162.765Y30.77
X165.305Y33.31
X165.305Y30.77
X168.805Y45.27
X168.805Y40.27
X173.28Y130.26
X173.28Y127.72
X173.28Y125.18
X173.28Y122.64
X173.28Y109.99
X173.28Y107.45
X173.28Y104.91
X173.28Y102.37
X173.28Y99.83
X173.28Y97.29
X175.305Y45.27
X175.305Y40.27
X177.78Y121.45
X177.78Y116.45
X182.805Y102.27
X185.345Y102.27
X200.01Y116.75
X200.01Y114.21
X200.01Y111.67
X200.01Y109.13
X200.01Y102.29
X200.01Y99.75
X200.01Y97.21
T7
X122.11Y163.8
X123.81Y163.8
X125.51Y163.8
X127.21Y163.8
X128.91Y163.8
X154.71Y161.25
X156.41Y161.25
X158.11Y161.25
X159.81Y161.25
X161.51Y161.25
X185.91Y164.25
X187.61Y164.25
X189.31Y164.25
X191.01Y164.25
X192.71Y164.25
T8
X75.555Y102.77
X82.055Y102.77
X96.76Y59.75
X103.26Y59.75
X104.055Y67.27
X110.555Y67.27
X191.555Y58.27
X198.055Y58.27
T9
X174.205Y29.27
X182.405Y29.27
T10
X207.377Y43.27
X207.377Y31.27
T6
X202.305Y67.312G85X202.305Y69.312
G05
X206.305Y73.013G85X204.305Y73.013
G05
X208.305Y67.312G85X208.305Y69.312
G05
M30
