M48
; DRILL file {KiCad 9.0.1} date 2025-10-13T08:27:24-0400
; FORMAT={-:-/ absolute / metric / decimal}
; #@! TF.CreationDate,2025-10-13T08:27:24-04:00
; #@! TF.GenerationSoftware,Kicad,Pcbnew,9.0.1
; #@! TF.FileFunction,Plated,1,2,PTH
FMAT,2
METRIC
; #@! TA.AperFunction,Plated,PTH,ViaDrill
T1C0.300
; #@! TA.AperFunction,Plated,PTH,ComponentDrill
T2C0.800
; #@! TA.AperFunction,Plated,PTH,ComponentDrill
T3C0.900
; #@! TA.AperFunction,Plated,PTH,ComponentDrill
T4C0.950
; #@! TA.AperFunction,Plated,PTH,ViaDrill
T5C1.000
; #@! TA.AperFunction,Plated,PTH,ComponentDrill
T6C1.000
; #@! TA.AperFunction,Plated,PTH,ComponentDrill
T7C1.100
; #@! TA.AperFunction,Plated,PTH,ComponentDrill
T8C1.300
; #@! TA.AperFunction,Plated,PTH,ComponentDrill
T9C1.500
; #@! TA.AperFunction,Plated,PTH,ComponentDrill
T10C2.300
%
G90
G05
T1
X203.5Y-134.5
T2
X171.0Y-193.72
X171.0Y-203.88
X171.05Y-136.02
X171.05Y-146.18
X171.55Y-165.42
X171.55Y-175.58
X172.5Y-183.8
X172.75Y-125.7
X173.3Y-155.5
X174.61Y-217.19
X175.0Y-183.8
X175.0Y-193.5
X175.0Y-203.66
X175.25Y-125.7
X175.55Y-136.02
X175.55Y-146.18
X175.55Y-165.42
X175.55Y-175.58
X175.8Y-155.5
X178.19Y-222.19
X178.19Y-224.73
X178.19Y-227.27
X178.19Y-229.81
X179.69Y-254.685
X179.69Y-262.305
X179.74Y-154.0
X180.24Y-125.6
X180.69Y-180.3
X182.23Y-254.685
X182.23Y-262.305
X184.77Y-217.19
X184.77Y-254.685
X184.77Y-262.305
X185.81Y-222.19
X185.81Y-224.73
X185.81Y-227.27
X185.81Y-229.81
X186.025Y-275.81
X187.31Y-254.685
X187.31Y-262.305
X187.34Y-185.8
X187.36Y-154.0
X187.47Y-131.1
X187.47Y-159.0
X187.86Y-125.6
X188.31Y-180.3
X190.15Y-224.5
X196.185Y-275.81
X197.5Y-185.8
X197.63Y-131.1
X197.63Y-159.0
X199.88Y-271.0
X199.88Y-273.54
X199.88Y-276.08
X199.88Y-278.62
X200.31Y-224.5
X206.685Y-248.19
X206.685Y-250.73
X206.685Y-253.27
X206.685Y-255.81
X207.5Y-271.0
X207.5Y-273.54
X207.5Y-276.08
X207.5Y-278.62
X212.0Y-224.46
X212.0Y-227.0
X212.0Y-229.54
X212.0Y-232.08
X214.305Y-248.19
X214.305Y-250.73
X214.305Y-253.27
X214.305Y-255.81
X219.62Y-224.46
X219.62Y-227.0
X219.62Y-229.54
X219.62Y-232.08
X223.12Y-161.57
X223.12Y-168.57
X223.5Y-286.5
X223.5Y-296.66
X225.095Y-180.39
X225.62Y-161.57
X225.62Y-168.57
X228.025Y-259.9
X228.105Y-252.9
X228.105Y-256.4
X228.105Y-263.4
X230.095Y-138.89
X235.255Y-180.39
X236.0Y-286.5
X236.0Y-296.66
X237.935Y-181.89
X238.185Y-259.9
X238.265Y-252.9
X238.265Y-256.4
X238.265Y-263.4
X240.255Y-138.89
X240.5Y-142.99
X240.5Y-145.53
X240.5Y-148.07
X240.5Y-150.61
X240.5Y-153.15
X240.5Y-155.69
X240.5Y-158.23
X240.5Y-160.77
X240.5Y-163.31
X240.5Y-165.85
X240.5Y-168.39
X240.5Y-170.93
X240.5Y-173.47
X240.5Y-176.01
X241.695Y-252.11
X241.695Y-254.65
X241.695Y-257.19
X241.695Y-259.73
X241.695Y-262.27
X241.695Y-264.81
X241.695Y-267.35
X241.695Y-269.89
X248.095Y-181.89
X248.12Y-142.99
X248.12Y-145.53
X248.12Y-148.07
X248.12Y-150.61
X248.12Y-153.15
X248.12Y-155.69
X248.12Y-158.23
X248.12Y-160.77
X248.12Y-163.31
X248.12Y-165.85
X248.12Y-168.39
X248.12Y-170.93
X248.12Y-173.47
X248.12Y-176.01
X248.265Y-286.42
X248.265Y-296.58
X249.315Y-252.11
X249.315Y-254.65
X249.315Y-257.19
X249.315Y-259.73
X249.315Y-262.27
X249.315Y-264.81
X249.315Y-267.35
X249.315Y-269.89
X251.5Y-280.0
X252.605Y-259.9
X254.07Y-218.305
X254.07Y-225.925
X256.61Y-218.305
X256.61Y-225.925
X259.15Y-218.305
X259.15Y-225.925
X260.595Y-176.89
X260.595Y-187.05
X261.66Y-280.0
X261.69Y-218.305
X261.69Y-225.925
X262.765Y-259.9
X263.26Y-241.55
X263.34Y-245.55
X264.23Y-218.305
X264.23Y-225.925
X265.19Y-202.12
X265.19Y-212.28
X265.5Y-285.92
X265.5Y-296.08
X266.77Y-218.305
X266.77Y-225.925
X269.0Y-285.92
X269.0Y-296.08
X269.31Y-218.305
X269.31Y-225.925
X273.42Y-241.55
X273.5Y-245.55
X278.0Y-286.42
X278.0Y-296.58
X282.0Y-286.34
X282.0Y-296.5
X283.65Y-218.305
X283.65Y-225.925
X283.88Y-243.1
X283.88Y-245.64
X283.88Y-248.18
X283.88Y-250.72
X283.88Y-253.26
X283.88Y-255.8
X283.88Y-258.34
X283.88Y-260.88
X283.88Y-263.42
X283.88Y-265.96
X283.88Y-268.5
X283.88Y-271.04
X283.88Y-273.58
X283.88Y-276.12
X286.0Y-286.42
X286.0Y-296.58
X286.19Y-218.305
X286.19Y-225.925
X287.92Y-134.5
X287.92Y-142.12
X288.26Y-173.5
X288.26Y-181.12
X288.73Y-218.305
X288.73Y-225.925
X290.0Y-203.42
X290.0Y-213.58
X290.0Y-286.34
X290.0Y-296.5
X290.46Y-134.5
X290.46Y-142.12
X290.62Y-190.04
X290.62Y-200.2
X290.8Y-173.5
X290.8Y-181.12
X291.27Y-218.305
X291.27Y-225.925
X291.5Y-243.1
X291.5Y-245.64
X291.5Y-248.18
X291.5Y-250.72
X291.5Y-253.26
X291.5Y-255.8
X291.5Y-258.34
X291.5Y-260.88
X291.5Y-263.42
X291.5Y-265.96
X291.5Y-268.5
X291.5Y-271.04
X291.5Y-273.58
X291.5Y-276.12
X291.76Y-280.55
X293.0Y-134.5
X293.0Y-142.12
X293.34Y-173.5
X293.34Y-181.12
X293.81Y-218.305
X293.81Y-225.925
X295.54Y-134.5
X295.54Y-142.12
X295.88Y-173.5
X295.88Y-181.12
X296.0Y-156.0
X296.0Y-158.5
X296.35Y-218.305
X296.35Y-225.925
X298.42Y-173.5
X298.42Y-181.12
X298.89Y-218.305
X298.89Y-225.925
X300.96Y-173.5
X300.96Y-181.12
X301.34Y-242.55
X301.92Y-280.55
X303.0Y-156.0
X303.0Y-158.5
X303.38Y-252.96
X303.5Y-173.5
X303.5Y-181.12
X303.88Y-260.46
X305.88Y-252.96
X306.04Y-173.5
X306.04Y-181.12
X306.38Y-260.46
X308.58Y-173.5
X308.58Y-181.12
X311.12Y-173.5
X311.12Y-181.12
X311.5Y-242.55
X312.15Y-217.99
X312.15Y-225.61
X313.66Y-173.5
X313.66Y-181.12
X314.69Y-217.99
X314.69Y-225.61
X316.2Y-173.5
X316.2Y-181.12
X317.23Y-217.99
X317.23Y-225.61
X318.74Y-173.5
X318.74Y-181.12
X319.77Y-217.99
X319.77Y-225.61
X321.28Y-173.5
X321.28Y-181.12
X322.31Y-217.99
X322.31Y-225.61
X322.31Y-229.41
X322.31Y-239.57
X324.85Y-217.99
X324.85Y-225.61
X325.66Y-168.5
X325.81Y-229.25
X325.81Y-239.41
X327.39Y-217.99
X327.39Y-225.61
X327.689Y-266.787
X327.689Y-276.947
X330.0Y-297.0
X330.0Y-307.16
X335.82Y-168.5
X339.074Y-247.777
X339.074Y-250.317
X339.074Y-252.857
X339.074Y-255.397
X339.074Y-257.938
X339.074Y-260.477
X339.074Y-263.017
X339.074Y-265.558
X339.074Y-268.097
X339.074Y-270.637
X339.074Y-273.178
X339.074Y-275.717
X339.074Y-278.257
X339.074Y-280.798
X342.0Y-223.0
X342.0Y-225.0
X342.0Y-227.0
X354.314Y-247.777
X354.314Y-250.317
X354.314Y-252.857
X354.314Y-255.397
X354.314Y-257.938
X354.314Y-260.477
X354.314Y-263.017
X354.314Y-265.558
X354.314Y-268.097
X354.314Y-270.637
X354.314Y-273.178
X354.314Y-275.717
X354.314Y-278.257
X354.314Y-280.798
X367.689Y-247.787
X367.689Y-257.947
X368.5Y-181.463
X368.5Y-191.623
X374.75Y-185.542
X377.25Y-185.542
X380.0Y-256.92
X380.0Y-267.08
X380.0Y-274.92
X380.0Y-285.08
X383.0Y-183.792
X383.0Y-186.292
T3
X172.5Y-189.3
X173.28Y-131.6
X173.28Y-161.5
X175.04Y-189.3
X175.82Y-131.6
X175.82Y-161.5
X331.689Y-278.287
X334.229Y-278.287
X362.149Y-261.287
X364.689Y-261.287
X369.46Y-196.542
X372.0Y-196.542
T4
X371.439Y-304.5
X371.439Y-306.5
X373.939Y-304.5
X373.939Y-306.5
T5
X170.5Y-269.0
X173.0Y-232.5
X190.0Y-240.5
X192.0Y-259.5
X195.0Y-237.5
X196.0Y-149.0
X206.5Y-225.0
X209.5Y-142.5
X214.5Y-270.0
X215.0Y-150.5
X218.0Y-275.0
X218.0Y-278.5
X233.0Y-268.0
X236.0Y-216.5
X238.0Y-240.0
X244.5Y-128.0
X246.5Y-138.5
X247.0Y-240.0
X259.5Y-273.0
X266.5Y-272.0
X268.5Y-141.5
X269.0Y-196.5
X272.5Y-213.5
X272.5Y-300.5
X273.0Y-221.5
X274.0Y-232.5
X274.25Y-272.75
X274.5Y-228.5
X278.0Y-182.5
X280.5Y-187.0
X281.0Y-228.5
X283.0Y-197.5
X288.0Y-149.5
X288.0Y-164.0
X289.5Y-157.0
X291.0Y-310.0
X292.0Y-236.0
X292.5Y-231.0
X294.0Y-299.0
X295.0Y-128.5
X300.0Y-139.0
X303.0Y-126.5
X303.0Y-245.5
X304.85Y-223.35
X305.0Y-284.5
X306.5Y-131.5
X311.0Y-159.0
X313.0Y-231.0
X313.5Y-194.0
X313.5Y-287.0
X314.5Y-303.5
X315.0Y-232.5
X315.5Y-236.0
X318.0Y-165.0
X318.5Y-159.0
X325.5Y-165.0
X325.5Y-174.5
X329.5Y-188.5
X331.926Y-239.5
X332.0Y-237.5
X334.5Y-215.0
X336.5Y-223.0
X338.0Y-189.0
X342.5Y-191.5
X343.0Y-181.5
X345.5Y-211.0
X353.5Y-152.5
X354.0Y-211.0
X357.5Y-158.0
X358.25Y-217.75
X361.0Y-217.5
T6
X173.425Y-288.18
X173.425Y-293.18
X173.98Y-266.5
X178.98Y-266.5
X179.115Y-286.47
X179.5Y-246.0
X179.5Y-251.0
X182.0Y-201.5
X182.55Y-172.0
X184.115Y-286.47
X185.05Y-144.6
X187.0Y-201.5
X187.55Y-172.0
X190.05Y-144.6
X190.5Y-216.19
X190.5Y-221.19
X194.525Y-279.31
X194.525Y-284.31
X197.5Y-216.0
X197.5Y-221.0
X198.915Y-256.97
X203.5Y-148.81
X203.5Y-151.35
X203.5Y-153.89
X203.5Y-156.43
X203.915Y-256.97
X207.5Y-234.0
X207.5Y-239.0
X210.0Y-147.5
X210.0Y-150.04
X213.025Y-278.81
X213.025Y-283.81
X216.935Y-258.54
X216.935Y-263.54
X220.0Y-152.5
X220.0Y-157.5
X222.33Y-234.45
X224.46Y-300.5
X224.5Y-155.5
X226.0Y-140.0
X226.0Y-142.54
X226.0Y-145.08
X227.0Y-300.5
X227.33Y-234.45
X229.5Y-155.5
X230.12Y-162.07
X230.12Y-167.07
X234.62Y-142.91
X234.62Y-145.45
X234.62Y-147.99
X234.62Y-150.53
X234.62Y-153.07
X234.62Y-155.61
X234.62Y-168.26
X234.62Y-170.8
X234.62Y-173.34
X234.62Y-175.88
X237.96Y-300.5
X240.5Y-300.5
X246.0Y-209.5
X246.0Y-214.5
X249.225Y-300.5
X251.765Y-300.5
X253.0Y-209.395
X253.0Y-214.395
X254.62Y-142.87
X254.62Y-145.41
X254.62Y-147.95
X254.62Y-150.49
X254.62Y-153.03
X254.62Y-155.57
X254.62Y-165.99
X254.62Y-168.53
X254.62Y-171.07
X254.62Y-173.61
X254.62Y-176.15
X258.5Y-158.0
X258.5Y-163.5
X260.68Y-300.525
X263.22Y-300.525
X263.5Y-158.0
X263.5Y-163.5
X265.5Y-277.0
X265.5Y-279.54
X265.76Y-300.525
X268.3Y-300.525
X269.5Y-255.5
X269.5Y-261.0
X274.5Y-255.5
X274.5Y-261.0
X275.0Y-130.0
X275.0Y-135.0
X275.92Y-300.42
X277.88Y-242.8
X277.88Y-245.34
X277.88Y-247.88
X277.88Y-250.42
X277.88Y-252.96
X277.88Y-263.34
X277.88Y-265.88
X277.88Y-268.42
X277.88Y-270.96
X277.88Y-273.5
X277.88Y-276.04
X278.0Y-208.5
X278.0Y-213.5
X278.46Y-300.42
X281.0Y-130.0
X281.0Y-135.0
X281.0Y-300.42
X283.54Y-300.42
X283.75Y-208.73
X283.75Y-213.73
X286.08Y-300.42
X288.08Y-186.12
X288.54Y-168.12
X290.62Y-186.12
X291.08Y-168.12
X293.16Y-186.12
X293.62Y-168.12
X294.5Y-147.5
X295.7Y-186.12
X296.16Y-168.12
X297.38Y-242.38
X297.38Y-244.92
X297.38Y-247.46
X297.38Y-250.0
X297.38Y-263.34
X297.38Y-265.88
X297.38Y-268.42
X297.38Y-270.96
X297.38Y-273.5
X297.38Y-276.04
X297.55Y-163.0
X298.24Y-186.12
X299.38Y-253.96
X299.38Y-258.96
X299.46Y-296.0
X299.5Y-147.5
X301.5Y-190.5
X301.5Y-195.5
X302.0Y-296.0
X302.55Y-163.0
X304.54Y-296.0
X305.5Y-163.0
X307.0Y-190.5
X307.0Y-195.5
X308.27Y-186.12
X308.5Y-168.12
X310.0Y-261.0
X310.0Y-266.5
X310.5Y-163.0
X310.81Y-186.12
X311.04Y-168.12
X312.0Y-209.0
X312.0Y-214.0
X313.35Y-186.12
X313.58Y-168.12
X315.0Y-261.0
X315.0Y-266.5
X315.89Y-186.12
X316.12Y-168.12
X317.2Y-297.0
X318.0Y-209.0
X318.0Y-214.0
X318.43Y-186.12
X318.66Y-168.12
X320.97Y-186.12
X321.2Y-168.12
X322.5Y-245.42
X322.5Y-247.96
X322.5Y-250.5
X324.8Y-297.0
X326.46Y-259.0
X329.0Y-248.5
X329.0Y-254.0
X329.0Y-259.0
X330.25Y-243.475
X332.79Y-243.475
X334.0Y-248.5
X334.0Y-254.0
X349.5Y-181.42
X349.5Y-183.96
X349.5Y-186.5
X349.5Y-189.04
X349.5Y-191.58
X352.04Y-181.42
X352.04Y-183.96
X352.04Y-186.5
X352.04Y-189.04
X352.04Y-191.58
X358.189Y-299.287
X360.789Y-274.287
X360.889Y-268.188
X363.189Y-299.287
X365.789Y-274.287
X365.889Y-268.188
X368.189Y-299.287
X373.189Y-299.287
X376.0Y-195.542
X381.0Y-195.542
T7
X183.0Y-186.6
X183.0Y-188.3
X183.0Y-190.0
X183.0Y-191.7
X183.0Y-193.4
X183.5Y-131.2
X183.5Y-132.9
X183.5Y-134.6
X183.5Y-136.3
X183.5Y-138.0
X184.0Y-159.1
X184.0Y-160.8
X184.0Y-162.5
X184.0Y-164.2
X184.0Y-165.9
T8
X231.75Y-129.0
X238.25Y-129.0
X305.17Y-277.55
X311.67Y-277.55
X336.0Y-174.25
X336.0Y-180.75
X373.5Y-271.25
X373.5Y-277.75
T9
X342.0Y-220.9
X342.0Y-229.1
T10
X366.689Y-309.36
X378.689Y-309.36
T6
X375.5Y-207.0G85X375.5Y-205.0
G05
X379.5Y-201.3G85X377.5Y-201.3
G05
X381.5Y-207.0G85X381.5Y-205.0
G05
M30
