%TF.GenerationSoftware,KiCad,Pcbnew,9.0.1*%
%TF.CreationDate,2025-10-13T08:27:24-04:00*%
%TF.ProjectId,snake_pcb,736e616b-655f-4706-9362-2e6b69636164,rev?*%
%TF.SameCoordinates,Original*%
%TF.FileFunction,Drillmap*%
%TF.FilePolarity,Positive*%
%FSLAX45Y45*%
G04 Gerber Fmt 4.5, Leading zero omitted, Abs format (unit mm)*
G04 Created by KiCad (PCBNEW 9.0.1) date 2025-10-13 08:27:24*
%MOMM*%
%LPD*%
G01*
G04 APERTURE LIST*
%ADD10C,0.050000*%
%ADD11C,0.200000*%
%ADD12C,0.210000*%
G04 APERTURE END LIST*
D10*
X39700000Y-31350000D02*
X39700000Y-11850000D01*
X15700000Y-31350000D02*
X39700000Y-31350000D01*
X39700000Y-11850000D02*
X15700000Y-11850000D01*
X15700000Y-11850000D02*
X15700000Y-31350000D01*
D11*
D12*
X15895000Y-12045000D02*
X16105000Y-12255000D01*
X16105000Y-12045000D02*
X15895000Y-12255000D01*
X15895000Y-21445000D02*
X16105000Y-21655000D01*
X16105000Y-21445000D02*
X15895000Y-21655000D01*
X15895000Y-30945000D02*
X16105000Y-31155000D01*
X16105000Y-30945000D02*
X15895000Y-31155000D01*
X39295000Y-12145000D02*
X39505000Y-12355000D01*
X39505000Y-12145000D02*
X39295000Y-12355000D01*
X39295000Y-20845000D02*
X39505000Y-21055000D01*
X39505000Y-20845000D02*
X39295000Y-21055000D01*
X39295000Y-30945000D02*
X39505000Y-31155000D01*
X39505000Y-30945000D02*
X39295000Y-31155000D01*
D11*
X15958277Y-31663984D02*
X15958277Y-31463984D01*
X15958277Y-31463984D02*
X16005896Y-31463984D01*
X16005896Y-31463984D02*
X16034467Y-31473508D01*
X16034467Y-31473508D02*
X16053515Y-31492555D01*
X16053515Y-31492555D02*
X16063039Y-31511603D01*
X16063039Y-31511603D02*
X16072562Y-31549698D01*
X16072562Y-31549698D02*
X16072562Y-31578269D01*
X16072562Y-31578269D02*
X16063039Y-31616365D01*
X16063039Y-31616365D02*
X16053515Y-31635412D01*
X16053515Y-31635412D02*
X16034467Y-31654460D01*
X16034467Y-31654460D02*
X16005896Y-31663984D01*
X16005896Y-31663984D02*
X15958277Y-31663984D01*
X16158277Y-31663984D02*
X16158277Y-31530650D01*
X16158277Y-31568746D02*
X16167801Y-31549698D01*
X16167801Y-31549698D02*
X16177324Y-31540174D01*
X16177324Y-31540174D02*
X16196372Y-31530650D01*
X16196372Y-31530650D02*
X16215420Y-31530650D01*
X16282086Y-31663984D02*
X16282086Y-31530650D01*
X16282086Y-31463984D02*
X16272562Y-31473508D01*
X16272562Y-31473508D02*
X16282086Y-31483031D01*
X16282086Y-31483031D02*
X16291610Y-31473508D01*
X16291610Y-31473508D02*
X16282086Y-31463984D01*
X16282086Y-31463984D02*
X16282086Y-31483031D01*
X16405896Y-31663984D02*
X16386848Y-31654460D01*
X16386848Y-31654460D02*
X16377324Y-31635412D01*
X16377324Y-31635412D02*
X16377324Y-31463984D01*
X16510658Y-31663984D02*
X16491610Y-31654460D01*
X16491610Y-31654460D02*
X16482086Y-31635412D01*
X16482086Y-31635412D02*
X16482086Y-31463984D01*
X16739229Y-31663984D02*
X16739229Y-31463984D01*
X16739229Y-31463984D02*
X16805896Y-31606841D01*
X16805896Y-31606841D02*
X16872563Y-31463984D01*
X16872563Y-31463984D02*
X16872563Y-31663984D01*
X17053515Y-31663984D02*
X17053515Y-31559222D01*
X17053515Y-31559222D02*
X17043991Y-31540174D01*
X17043991Y-31540174D02*
X17024944Y-31530650D01*
X17024944Y-31530650D02*
X16986848Y-31530650D01*
X16986848Y-31530650D02*
X16967801Y-31540174D01*
X17053515Y-31654460D02*
X17034467Y-31663984D01*
X17034467Y-31663984D02*
X16986848Y-31663984D01*
X16986848Y-31663984D02*
X16967801Y-31654460D01*
X16967801Y-31654460D02*
X16958277Y-31635412D01*
X16958277Y-31635412D02*
X16958277Y-31616365D01*
X16958277Y-31616365D02*
X16967801Y-31597317D01*
X16967801Y-31597317D02*
X16986848Y-31587793D01*
X16986848Y-31587793D02*
X17034467Y-31587793D01*
X17034467Y-31587793D02*
X17053515Y-31578269D01*
X17148753Y-31530650D02*
X17148753Y-31730650D01*
X17148753Y-31540174D02*
X17167801Y-31530650D01*
X17167801Y-31530650D02*
X17205896Y-31530650D01*
X17205896Y-31530650D02*
X17224944Y-31540174D01*
X17224944Y-31540174D02*
X17234467Y-31549698D01*
X17234467Y-31549698D02*
X17243991Y-31568746D01*
X17243991Y-31568746D02*
X17243991Y-31625888D01*
X17243991Y-31625888D02*
X17234467Y-31644936D01*
X17234467Y-31644936D02*
X17224944Y-31654460D01*
X17224944Y-31654460D02*
X17205896Y-31663984D01*
X17205896Y-31663984D02*
X17167801Y-31663984D01*
X17167801Y-31663984D02*
X17148753Y-31654460D01*
X17329705Y-31644936D02*
X17339229Y-31654460D01*
X17339229Y-31654460D02*
X17329705Y-31663984D01*
X17329705Y-31663984D02*
X17320182Y-31654460D01*
X17320182Y-31654460D02*
X17329705Y-31644936D01*
X17329705Y-31644936D02*
X17329705Y-31663984D01*
X17329705Y-31540174D02*
X17339229Y-31549698D01*
X17339229Y-31549698D02*
X17329705Y-31559222D01*
X17329705Y-31559222D02*
X17320182Y-31549698D01*
X17320182Y-31549698D02*
X17329705Y-31540174D01*
X17329705Y-31540174D02*
X17329705Y-31559222D01*
X15497500Y-31892500D02*
X15697500Y-32092500D01*
X15697500Y-31892500D02*
X15497500Y-32092500D01*
X15948753Y-31903031D02*
X15958277Y-31893508D01*
X15958277Y-31893508D02*
X15977324Y-31883984D01*
X15977324Y-31883984D02*
X16024943Y-31883984D01*
X16024943Y-31883984D02*
X16043991Y-31893508D01*
X16043991Y-31893508D02*
X16053515Y-31903031D01*
X16053515Y-31903031D02*
X16063039Y-31922079D01*
X16063039Y-31922079D02*
X16063039Y-31941127D01*
X16063039Y-31941127D02*
X16053515Y-31969698D01*
X16053515Y-31969698D02*
X15939229Y-32083984D01*
X15939229Y-32083984D02*
X16063039Y-32083984D01*
X16148753Y-32064936D02*
X16158277Y-32074460D01*
X16158277Y-32074460D02*
X16148753Y-32083984D01*
X16148753Y-32083984D02*
X16139229Y-32074460D01*
X16139229Y-32074460D02*
X16148753Y-32064936D01*
X16148753Y-32064936D02*
X16148753Y-32083984D01*
X16348753Y-32083984D02*
X16234467Y-32083984D01*
X16291610Y-32083984D02*
X16291610Y-31883984D01*
X16291610Y-31883984D02*
X16272562Y-31912555D01*
X16272562Y-31912555D02*
X16253515Y-31931603D01*
X16253515Y-31931603D02*
X16234467Y-31941127D01*
X16472562Y-31883984D02*
X16491610Y-31883984D01*
X16491610Y-31883984D02*
X16510658Y-31893508D01*
X16510658Y-31893508D02*
X16520182Y-31903031D01*
X16520182Y-31903031D02*
X16529705Y-31922079D01*
X16529705Y-31922079D02*
X16539229Y-31960174D01*
X16539229Y-31960174D02*
X16539229Y-32007793D01*
X16539229Y-32007793D02*
X16529705Y-32045888D01*
X16529705Y-32045888D02*
X16520182Y-32064936D01*
X16520182Y-32064936D02*
X16510658Y-32074460D01*
X16510658Y-32074460D02*
X16491610Y-32083984D01*
X16491610Y-32083984D02*
X16472562Y-32083984D01*
X16472562Y-32083984D02*
X16453515Y-32074460D01*
X16453515Y-32074460D02*
X16443991Y-32064936D01*
X16443991Y-32064936D02*
X16434467Y-32045888D01*
X16434467Y-32045888D02*
X16424943Y-32007793D01*
X16424943Y-32007793D02*
X16424943Y-31960174D01*
X16424943Y-31960174D02*
X16434467Y-31922079D01*
X16434467Y-31922079D02*
X16443991Y-31903031D01*
X16443991Y-31903031D02*
X16453515Y-31893508D01*
X16453515Y-31893508D02*
X16472562Y-31883984D01*
X16663039Y-31883984D02*
X16682086Y-31883984D01*
X16682086Y-31883984D02*
X16701134Y-31893508D01*
X16701134Y-31893508D02*
X16710658Y-31903031D01*
X16710658Y-31903031D02*
X16720182Y-31922079D01*
X16720182Y-31922079D02*
X16729705Y-31960174D01*
X16729705Y-31960174D02*
X16729705Y-32007793D01*
X16729705Y-32007793D02*
X16720182Y-32045888D01*
X16720182Y-32045888D02*
X16710658Y-32064936D01*
X16710658Y-32064936D02*
X16701134Y-32074460D01*
X16701134Y-32074460D02*
X16682086Y-32083984D01*
X16682086Y-32083984D02*
X16663039Y-32083984D01*
X16663039Y-32083984D02*
X16643991Y-32074460D01*
X16643991Y-32074460D02*
X16634467Y-32064936D01*
X16634467Y-32064936D02*
X16624943Y-32045888D01*
X16624943Y-32045888D02*
X16615420Y-32007793D01*
X16615420Y-32007793D02*
X16615420Y-31960174D01*
X16615420Y-31960174D02*
X16624943Y-31922079D01*
X16624943Y-31922079D02*
X16634467Y-31903031D01*
X16634467Y-31903031D02*
X16643991Y-31893508D01*
X16643991Y-31893508D02*
X16663039Y-31883984D01*
X16815420Y-32083984D02*
X16815420Y-31950650D01*
X16815420Y-31969698D02*
X16824944Y-31960174D01*
X16824944Y-31960174D02*
X16843991Y-31950650D01*
X16843991Y-31950650D02*
X16872563Y-31950650D01*
X16872563Y-31950650D02*
X16891610Y-31960174D01*
X16891610Y-31960174D02*
X16901134Y-31979222D01*
X16901134Y-31979222D02*
X16901134Y-32083984D01*
X16901134Y-31979222D02*
X16910658Y-31960174D01*
X16910658Y-31960174D02*
X16929705Y-31950650D01*
X16929705Y-31950650D02*
X16958277Y-31950650D01*
X16958277Y-31950650D02*
X16977325Y-31960174D01*
X16977325Y-31960174D02*
X16986848Y-31979222D01*
X16986848Y-31979222D02*
X16986848Y-32083984D01*
X17082086Y-32083984D02*
X17082086Y-31950650D01*
X17082086Y-31969698D02*
X17091610Y-31960174D01*
X17091610Y-31960174D02*
X17110658Y-31950650D01*
X17110658Y-31950650D02*
X17139229Y-31950650D01*
X17139229Y-31950650D02*
X17158277Y-31960174D01*
X17158277Y-31960174D02*
X17167801Y-31979222D01*
X17167801Y-31979222D02*
X17167801Y-32083984D01*
X17167801Y-31979222D02*
X17177325Y-31960174D01*
X17177325Y-31960174D02*
X17196372Y-31950650D01*
X17196372Y-31950650D02*
X17224944Y-31950650D01*
X17224944Y-31950650D02*
X17243991Y-31960174D01*
X17243991Y-31960174D02*
X17253515Y-31979222D01*
X17253515Y-31979222D02*
X17253515Y-32083984D01*
X17643991Y-31874460D02*
X17472563Y-32131603D01*
X17901134Y-31883984D02*
X17920182Y-31883984D01*
X17920182Y-31883984D02*
X17939229Y-31893508D01*
X17939229Y-31893508D02*
X17948753Y-31903031D01*
X17948753Y-31903031D02*
X17958277Y-31922079D01*
X17958277Y-31922079D02*
X17967801Y-31960174D01*
X17967801Y-31960174D02*
X17967801Y-32007793D01*
X17967801Y-32007793D02*
X17958277Y-32045888D01*
X17958277Y-32045888D02*
X17948753Y-32064936D01*
X17948753Y-32064936D02*
X17939229Y-32074460D01*
X17939229Y-32074460D02*
X17920182Y-32083984D01*
X17920182Y-32083984D02*
X17901134Y-32083984D01*
X17901134Y-32083984D02*
X17882087Y-32074460D01*
X17882087Y-32074460D02*
X17872563Y-32064936D01*
X17872563Y-32064936D02*
X17863039Y-32045888D01*
X17863039Y-32045888D02*
X17853515Y-32007793D01*
X17853515Y-32007793D02*
X17853515Y-31960174D01*
X17853515Y-31960174D02*
X17863039Y-31922079D01*
X17863039Y-31922079D02*
X17872563Y-31903031D01*
X17872563Y-31903031D02*
X17882087Y-31893508D01*
X17882087Y-31893508D02*
X17901134Y-31883984D01*
X18053515Y-32064936D02*
X18063039Y-32074460D01*
X18063039Y-32074460D02*
X18053515Y-32083984D01*
X18053515Y-32083984D02*
X18043991Y-32074460D01*
X18043991Y-32074460D02*
X18053515Y-32064936D01*
X18053515Y-32064936D02*
X18053515Y-32083984D01*
X18186848Y-31883984D02*
X18205896Y-31883984D01*
X18205896Y-31883984D02*
X18224944Y-31893508D01*
X18224944Y-31893508D02*
X18234468Y-31903031D01*
X18234468Y-31903031D02*
X18243991Y-31922079D01*
X18243991Y-31922079D02*
X18253515Y-31960174D01*
X18253515Y-31960174D02*
X18253515Y-32007793D01*
X18253515Y-32007793D02*
X18243991Y-32045888D01*
X18243991Y-32045888D02*
X18234468Y-32064936D01*
X18234468Y-32064936D02*
X18224944Y-32074460D01*
X18224944Y-32074460D02*
X18205896Y-32083984D01*
X18205896Y-32083984D02*
X18186848Y-32083984D01*
X18186848Y-32083984D02*
X18167801Y-32074460D01*
X18167801Y-32074460D02*
X18158277Y-32064936D01*
X18158277Y-32064936D02*
X18148753Y-32045888D01*
X18148753Y-32045888D02*
X18139229Y-32007793D01*
X18139229Y-32007793D02*
X18139229Y-31960174D01*
X18139229Y-31960174D02*
X18148753Y-31922079D01*
X18148753Y-31922079D02*
X18158277Y-31903031D01*
X18158277Y-31903031D02*
X18167801Y-31893508D01*
X18167801Y-31893508D02*
X18186848Y-31883984D01*
X18367801Y-31969698D02*
X18348753Y-31960174D01*
X18348753Y-31960174D02*
X18339229Y-31950650D01*
X18339229Y-31950650D02*
X18329706Y-31931603D01*
X18329706Y-31931603D02*
X18329706Y-31922079D01*
X18329706Y-31922079D02*
X18339229Y-31903031D01*
X18339229Y-31903031D02*
X18348753Y-31893508D01*
X18348753Y-31893508D02*
X18367801Y-31883984D01*
X18367801Y-31883984D02*
X18405896Y-31883984D01*
X18405896Y-31883984D02*
X18424944Y-31893508D01*
X18424944Y-31893508D02*
X18434468Y-31903031D01*
X18434468Y-31903031D02*
X18443991Y-31922079D01*
X18443991Y-31922079D02*
X18443991Y-31931603D01*
X18443991Y-31931603D02*
X18434468Y-31950650D01*
X18434468Y-31950650D02*
X18424944Y-31960174D01*
X18424944Y-31960174D02*
X18405896Y-31969698D01*
X18405896Y-31969698D02*
X18367801Y-31969698D01*
X18367801Y-31969698D02*
X18348753Y-31979222D01*
X18348753Y-31979222D02*
X18339229Y-31988746D01*
X18339229Y-31988746D02*
X18329706Y-32007793D01*
X18329706Y-32007793D02*
X18329706Y-32045888D01*
X18329706Y-32045888D02*
X18339229Y-32064936D01*
X18339229Y-32064936D02*
X18348753Y-32074460D01*
X18348753Y-32074460D02*
X18367801Y-32083984D01*
X18367801Y-32083984D02*
X18405896Y-32083984D01*
X18405896Y-32083984D02*
X18424944Y-32074460D01*
X18424944Y-32074460D02*
X18434468Y-32064936D01*
X18434468Y-32064936D02*
X18443991Y-32045888D01*
X18443991Y-32045888D02*
X18443991Y-32007793D01*
X18443991Y-32007793D02*
X18434468Y-31988746D01*
X18434468Y-31988746D02*
X18424944Y-31979222D01*
X18424944Y-31979222D02*
X18405896Y-31969698D01*
X18520182Y-31903031D02*
X18529706Y-31893508D01*
X18529706Y-31893508D02*
X18548753Y-31883984D01*
X18548753Y-31883984D02*
X18596372Y-31883984D01*
X18596372Y-31883984D02*
X18615420Y-31893508D01*
X18615420Y-31893508D02*
X18624944Y-31903031D01*
X18624944Y-31903031D02*
X18634468Y-31922079D01*
X18634468Y-31922079D02*
X18634468Y-31941127D01*
X18634468Y-31941127D02*
X18624944Y-31969698D01*
X18624944Y-31969698D02*
X18510658Y-32083984D01*
X18510658Y-32083984D02*
X18634468Y-32083984D01*
X18701134Y-31883984D02*
X18834468Y-31883984D01*
X18834468Y-31883984D02*
X18748753Y-32083984D01*
X18901134Y-31883984D02*
X18901134Y-31922079D01*
X18977325Y-31883984D02*
X18977325Y-31922079D01*
X19272563Y-32160174D02*
X19263039Y-32150650D01*
X19263039Y-32150650D02*
X19243991Y-32122079D01*
X19243991Y-32122079D02*
X19234468Y-32103031D01*
X19234468Y-32103031D02*
X19224944Y-32074460D01*
X19224944Y-32074460D02*
X19215420Y-32026841D01*
X19215420Y-32026841D02*
X19215420Y-31988746D01*
X19215420Y-31988746D02*
X19224944Y-31941127D01*
X19224944Y-31941127D02*
X19234468Y-31912555D01*
X19234468Y-31912555D02*
X19243991Y-31893508D01*
X19243991Y-31893508D02*
X19263039Y-31864936D01*
X19263039Y-31864936D02*
X19272563Y-31855412D01*
X19434468Y-31883984D02*
X19396372Y-31883984D01*
X19396372Y-31883984D02*
X19377325Y-31893508D01*
X19377325Y-31893508D02*
X19367801Y-31903031D01*
X19367801Y-31903031D02*
X19348753Y-31931603D01*
X19348753Y-31931603D02*
X19339230Y-31969698D01*
X19339230Y-31969698D02*
X19339230Y-32045888D01*
X19339230Y-32045888D02*
X19348753Y-32064936D01*
X19348753Y-32064936D02*
X19358277Y-32074460D01*
X19358277Y-32074460D02*
X19377325Y-32083984D01*
X19377325Y-32083984D02*
X19415420Y-32083984D01*
X19415420Y-32083984D02*
X19434468Y-32074460D01*
X19434468Y-32074460D02*
X19443991Y-32064936D01*
X19443991Y-32064936D02*
X19453515Y-32045888D01*
X19453515Y-32045888D02*
X19453515Y-31998269D01*
X19453515Y-31998269D02*
X19443991Y-31979222D01*
X19443991Y-31979222D02*
X19434468Y-31969698D01*
X19434468Y-31969698D02*
X19415420Y-31960174D01*
X19415420Y-31960174D02*
X19377325Y-31960174D01*
X19377325Y-31960174D02*
X19358277Y-31969698D01*
X19358277Y-31969698D02*
X19348753Y-31979222D01*
X19348753Y-31979222D02*
X19339230Y-31998269D01*
X19691611Y-32083984D02*
X19691611Y-31883984D01*
X19777325Y-32083984D02*
X19777325Y-31979222D01*
X19777325Y-31979222D02*
X19767801Y-31960174D01*
X19767801Y-31960174D02*
X19748753Y-31950650D01*
X19748753Y-31950650D02*
X19720182Y-31950650D01*
X19720182Y-31950650D02*
X19701134Y-31960174D01*
X19701134Y-31960174D02*
X19691611Y-31969698D01*
X19901134Y-32083984D02*
X19882087Y-32074460D01*
X19882087Y-32074460D02*
X19872563Y-32064936D01*
X19872563Y-32064936D02*
X19863039Y-32045888D01*
X19863039Y-32045888D02*
X19863039Y-31988746D01*
X19863039Y-31988746D02*
X19872563Y-31969698D01*
X19872563Y-31969698D02*
X19882087Y-31960174D01*
X19882087Y-31960174D02*
X19901134Y-31950650D01*
X19901134Y-31950650D02*
X19929706Y-31950650D01*
X19929706Y-31950650D02*
X19948753Y-31960174D01*
X19948753Y-31960174D02*
X19958277Y-31969698D01*
X19958277Y-31969698D02*
X19967801Y-31988746D01*
X19967801Y-31988746D02*
X19967801Y-32045888D01*
X19967801Y-32045888D02*
X19958277Y-32064936D01*
X19958277Y-32064936D02*
X19948753Y-32074460D01*
X19948753Y-32074460D02*
X19929706Y-32083984D01*
X19929706Y-32083984D02*
X19901134Y-32083984D01*
X20082087Y-32083984D02*
X20063039Y-32074460D01*
X20063039Y-32074460D02*
X20053515Y-32055412D01*
X20053515Y-32055412D02*
X20053515Y-31883984D01*
X20234468Y-32074460D02*
X20215420Y-32083984D01*
X20215420Y-32083984D02*
X20177325Y-32083984D01*
X20177325Y-32083984D02*
X20158277Y-32074460D01*
X20158277Y-32074460D02*
X20148753Y-32055412D01*
X20148753Y-32055412D02*
X20148753Y-31979222D01*
X20148753Y-31979222D02*
X20158277Y-31960174D01*
X20158277Y-31960174D02*
X20177325Y-31950650D01*
X20177325Y-31950650D02*
X20215420Y-31950650D01*
X20215420Y-31950650D02*
X20234468Y-31960174D01*
X20234468Y-31960174D02*
X20243992Y-31979222D01*
X20243992Y-31979222D02*
X20243992Y-31998269D01*
X20243992Y-31998269D02*
X20148753Y-32017317D01*
X20320182Y-32074460D02*
X20339230Y-32083984D01*
X20339230Y-32083984D02*
X20377325Y-32083984D01*
X20377325Y-32083984D02*
X20396373Y-32074460D01*
X20396373Y-32074460D02*
X20405896Y-32055412D01*
X20405896Y-32055412D02*
X20405896Y-32045888D01*
X20405896Y-32045888D02*
X20396373Y-32026841D01*
X20396373Y-32026841D02*
X20377325Y-32017317D01*
X20377325Y-32017317D02*
X20348753Y-32017317D01*
X20348753Y-32017317D02*
X20329706Y-32007793D01*
X20329706Y-32007793D02*
X20320182Y-31988746D01*
X20320182Y-31988746D02*
X20320182Y-31979222D01*
X20320182Y-31979222D02*
X20329706Y-31960174D01*
X20329706Y-31960174D02*
X20348753Y-31950650D01*
X20348753Y-31950650D02*
X20377325Y-31950650D01*
X20377325Y-31950650D02*
X20396373Y-31960174D01*
X20472563Y-32160174D02*
X20482087Y-32150650D01*
X20482087Y-32150650D02*
X20501134Y-32122079D01*
X20501134Y-32122079D02*
X20510658Y-32103031D01*
X20510658Y-32103031D02*
X20520182Y-32074460D01*
X20520182Y-32074460D02*
X20529706Y-32026841D01*
X20529706Y-32026841D02*
X20529706Y-31988746D01*
X20529706Y-31988746D02*
X20520182Y-31941127D01*
X20520182Y-31941127D02*
X20510658Y-31912555D01*
X20510658Y-31912555D02*
X20501134Y-31893508D01*
X20501134Y-31893508D02*
X20482087Y-31864936D01*
X20482087Y-31864936D02*
X20472563Y-31855412D01*
X20834468Y-32160174D02*
X20824944Y-32150650D01*
X20824944Y-32150650D02*
X20805896Y-32122079D01*
X20805896Y-32122079D02*
X20796373Y-32103031D01*
X20796373Y-32103031D02*
X20786849Y-32074460D01*
X20786849Y-32074460D02*
X20777325Y-32026841D01*
X20777325Y-32026841D02*
X20777325Y-31988746D01*
X20777325Y-31988746D02*
X20786849Y-31941127D01*
X20786849Y-31941127D02*
X20796373Y-31912555D01*
X20796373Y-31912555D02*
X20805896Y-31893508D01*
X20805896Y-31893508D02*
X20824944Y-31864936D01*
X20824944Y-31864936D02*
X20834468Y-31855412D01*
X20910658Y-31950650D02*
X20910658Y-32083984D01*
X20910658Y-31969698D02*
X20920182Y-31960174D01*
X20920182Y-31960174D02*
X20939230Y-31950650D01*
X20939230Y-31950650D02*
X20967801Y-31950650D01*
X20967801Y-31950650D02*
X20986849Y-31960174D01*
X20986849Y-31960174D02*
X20996373Y-31979222D01*
X20996373Y-31979222D02*
X20996373Y-32083984D01*
X21120182Y-32083984D02*
X21101134Y-32074460D01*
X21101134Y-32074460D02*
X21091611Y-32064936D01*
X21091611Y-32064936D02*
X21082087Y-32045888D01*
X21082087Y-32045888D02*
X21082087Y-31988746D01*
X21082087Y-31988746D02*
X21091611Y-31969698D01*
X21091611Y-31969698D02*
X21101134Y-31960174D01*
X21101134Y-31960174D02*
X21120182Y-31950650D01*
X21120182Y-31950650D02*
X21148754Y-31950650D01*
X21148754Y-31950650D02*
X21167801Y-31960174D01*
X21167801Y-31960174D02*
X21177325Y-31969698D01*
X21177325Y-31969698D02*
X21186849Y-31988746D01*
X21186849Y-31988746D02*
X21186849Y-32045888D01*
X21186849Y-32045888D02*
X21177325Y-32064936D01*
X21177325Y-32064936D02*
X21167801Y-32074460D01*
X21167801Y-32074460D02*
X21148754Y-32083984D01*
X21148754Y-32083984D02*
X21120182Y-32083984D01*
X21243992Y-31950650D02*
X21320182Y-31950650D01*
X21272563Y-31883984D02*
X21272563Y-32055412D01*
X21272563Y-32055412D02*
X21282087Y-32074460D01*
X21282087Y-32074460D02*
X21301134Y-32083984D01*
X21301134Y-32083984D02*
X21320182Y-32083984D01*
X21539230Y-31950650D02*
X21539230Y-32150650D01*
X21539230Y-31960174D02*
X21558277Y-31950650D01*
X21558277Y-31950650D02*
X21596373Y-31950650D01*
X21596373Y-31950650D02*
X21615420Y-31960174D01*
X21615420Y-31960174D02*
X21624944Y-31969698D01*
X21624944Y-31969698D02*
X21634468Y-31988746D01*
X21634468Y-31988746D02*
X21634468Y-32045888D01*
X21634468Y-32045888D02*
X21624944Y-32064936D01*
X21624944Y-32064936D02*
X21615420Y-32074460D01*
X21615420Y-32074460D02*
X21596373Y-32083984D01*
X21596373Y-32083984D02*
X21558277Y-32083984D01*
X21558277Y-32083984D02*
X21539230Y-32074460D01*
X21748754Y-32083984D02*
X21729706Y-32074460D01*
X21729706Y-32074460D02*
X21720182Y-32055412D01*
X21720182Y-32055412D02*
X21720182Y-31883984D01*
X21910658Y-32083984D02*
X21910658Y-31979222D01*
X21910658Y-31979222D02*
X21901135Y-31960174D01*
X21901135Y-31960174D02*
X21882087Y-31950650D01*
X21882087Y-31950650D02*
X21843992Y-31950650D01*
X21843992Y-31950650D02*
X21824944Y-31960174D01*
X21910658Y-32074460D02*
X21891611Y-32083984D01*
X21891611Y-32083984D02*
X21843992Y-32083984D01*
X21843992Y-32083984D02*
X21824944Y-32074460D01*
X21824944Y-32074460D02*
X21815420Y-32055412D01*
X21815420Y-32055412D02*
X21815420Y-32036365D01*
X21815420Y-32036365D02*
X21824944Y-32017317D01*
X21824944Y-32017317D02*
X21843992Y-32007793D01*
X21843992Y-32007793D02*
X21891611Y-32007793D01*
X21891611Y-32007793D02*
X21910658Y-31998269D01*
X21977325Y-31950650D02*
X22053515Y-31950650D01*
X22005896Y-31883984D02*
X22005896Y-32055412D01*
X22005896Y-32055412D02*
X22015420Y-32074460D01*
X22015420Y-32074460D02*
X22034468Y-32083984D01*
X22034468Y-32083984D02*
X22053515Y-32083984D01*
X22196373Y-32074460D02*
X22177325Y-32083984D01*
X22177325Y-32083984D02*
X22139230Y-32083984D01*
X22139230Y-32083984D02*
X22120182Y-32074460D01*
X22120182Y-32074460D02*
X22110658Y-32055412D01*
X22110658Y-32055412D02*
X22110658Y-31979222D01*
X22110658Y-31979222D02*
X22120182Y-31960174D01*
X22120182Y-31960174D02*
X22139230Y-31950650D01*
X22139230Y-31950650D02*
X22177325Y-31950650D01*
X22177325Y-31950650D02*
X22196373Y-31960174D01*
X22196373Y-31960174D02*
X22205896Y-31979222D01*
X22205896Y-31979222D02*
X22205896Y-31998269D01*
X22205896Y-31998269D02*
X22110658Y-32017317D01*
X22377325Y-32083984D02*
X22377325Y-31883984D01*
X22377325Y-32074460D02*
X22358277Y-32083984D01*
X22358277Y-32083984D02*
X22320182Y-32083984D01*
X22320182Y-32083984D02*
X22301135Y-32074460D01*
X22301135Y-32074460D02*
X22291611Y-32064936D01*
X22291611Y-32064936D02*
X22282087Y-32045888D01*
X22282087Y-32045888D02*
X22282087Y-31988746D01*
X22282087Y-31988746D02*
X22291611Y-31969698D01*
X22291611Y-31969698D02*
X22301135Y-31960174D01*
X22301135Y-31960174D02*
X22320182Y-31950650D01*
X22320182Y-31950650D02*
X22358277Y-31950650D01*
X22358277Y-31950650D02*
X22377325Y-31960174D01*
X22453515Y-32160174D02*
X22463039Y-32150650D01*
X22463039Y-32150650D02*
X22482087Y-32122079D01*
X22482087Y-32122079D02*
X22491611Y-32103031D01*
X22491611Y-32103031D02*
X22501134Y-32074460D01*
X22501134Y-32074460D02*
X22510658Y-32026841D01*
X22510658Y-32026841D02*
X22510658Y-31988746D01*
X22510658Y-31988746D02*
X22501134Y-31941127D01*
X22501134Y-31941127D02*
X22491611Y-31912555D01*
X22491611Y-31912555D02*
X22482087Y-31893508D01*
X22482087Y-31893508D02*
X22463039Y-31864936D01*
X22463039Y-31864936D02*
X22453515Y-31855412D01*
M02*
