%TF.GenerationSoftware,KiCad,Pcbnew,9.0.1*%
%TF.CreationDate,2025-10-10T21:54:15-04:00*%
%TF.ProjectId,snake_pcb,736e616b-655f-4706-9362-2e6b69636164,rev?*%
%TF.SameCoordinates,Original*%
%TF.FileFunction,Paste,Top*%
%TF.FilePolarity,Positive*%
%FSLAX46Y46*%
G04 Gerber Fmt 4.6, Leading zero omitted, Abs format (unit mm)*
G04 Created by KiCad (PCBNEW 9.0.1) date 2025-10-10 21:54:15*
%MOMM*%
%LPD*%
G01*
G04 APERTURE LIST*
G04 Aperture macros list*
%AMRoundRect*
0 Rectangle with rounded corners*
0 $1 Rounding radius*
0 $2 $3 $4 $5 $6 $7 $8 $9 X,Y pos of 4 corners*
0 Add a 4 corners polygon primitive as box body*
4,1,4,$2,$3,$4,$5,$6,$7,$8,$9,$2,$3,0*
0 Add four circle primitives for the rounded corners*
1,1,$1+$1,$2,$3*
1,1,$1+$1,$4,$5*
1,1,$1+$1,$6,$7*
1,1,$1+$1,$8,$9*
0 Add four rect primitives between the rounded corners*
20,1,$1+$1,$2,$3,$4,$5,0*
20,1,$1+$1,$4,$5,$6,$7,0*
20,1,$1+$1,$6,$7,$8,$9,0*
20,1,$1+$1,$8,$9,$2,$3,0*%
G04 Aperture macros list end*
%ADD10RoundRect,0.140000X0.140000X0.170000X-0.140000X0.170000X-0.140000X-0.170000X0.140000X-0.170000X0*%
%ADD11RoundRect,0.250000X-0.475000X0.250000X-0.475000X-0.250000X0.475000X-0.250000X0.475000X0.250000X0*%
%ADD12RoundRect,0.250000X-0.250000X-0.475000X0.250000X-0.475000X0.250000X0.475000X-0.250000X0.475000X0*%
%ADD13RoundRect,0.140000X-0.170000X0.140000X-0.170000X-0.140000X0.170000X-0.140000X0.170000X0.140000X0*%
%ADD14RoundRect,0.250000X0.475000X-0.250000X0.475000X0.250000X-0.475000X0.250000X-0.475000X-0.250000X0*%
%ADD15RoundRect,0.140000X-0.140000X-0.170000X0.140000X-0.170000X0.140000X0.170000X-0.140000X0.170000X0*%
%ADD16RoundRect,0.250000X0.250000X0.475000X-0.250000X0.475000X-0.250000X-0.475000X0.250000X-0.475000X0*%
%ADD17RoundRect,0.375000X-0.625000X-0.375000X0.625000X-0.375000X0.625000X0.375000X-0.625000X0.375000X0*%
%ADD18RoundRect,0.500000X-0.500000X-1.400000X0.500000X-1.400000X0.500000X1.400000X-0.500000X1.400000X0*%
%ADD19RoundRect,0.140000X0.170000X-0.140000X0.170000X0.140000X-0.170000X0.140000X-0.170000X-0.140000X0*%
G04 APERTURE END LIST*
D10*
%TO.C,C20*%
X49420000Y124650000D03*
X48460000Y124650000D03*
%TD*%
D11*
%TO.C,C46*%
X148110000Y160650000D03*
X148110000Y158750000D03*
%TD*%
D10*
%TO.C,C11*%
X154490000Y75750000D03*
X153530000Y75750000D03*
%TD*%
D12*
%TO.C,C23*%
X172060000Y116250000D03*
X173960000Y116250000D03*
%TD*%
D13*
%TO.C,C40*%
X204010000Y138730000D03*
X204010000Y137770000D03*
%TD*%
D14*
%TO.C,C29*%
X136010000Y141850000D03*
X136010000Y143750000D03*
%TD*%
D15*
%TO.C,C14*%
X91825000Y93270000D03*
X92785000Y93270000D03*
%TD*%
%TO.C,C22*%
X77905000Y113860000D03*
X78865000Y113860000D03*
%TD*%
%TO.C,C12*%
X180025000Y61870000D03*
X180985000Y61870000D03*
%TD*%
D11*
%TO.C,C77*%
X116010000Y166200000D03*
X116010000Y164300000D03*
%TD*%
D16*
%TO.C,C10*%
X154960000Y73750000D03*
X153060000Y73750000D03*
%TD*%
D17*
%TO.C,U9*%
X134805000Y122270000D03*
X134805000Y119970000D03*
D18*
X141105000Y119970000D03*
D17*
X134805000Y117670000D03*
%TD*%
D15*
%TO.C,C16*%
X93030000Y70250000D03*
X93990000Y70250000D03*
%TD*%
D19*
%TO.C,C33*%
X110805000Y117790000D03*
X110805000Y118750000D03*
%TD*%
D10*
%TO.C,C25*%
X154510000Y117250000D03*
X153550000Y117250000D03*
%TD*%
D12*
%TO.C,C19*%
X77930000Y116330000D03*
X79830000Y116330000D03*
%TD*%
D14*
%TO.C,C45*%
X130880000Y118340000D03*
X130880000Y120240000D03*
%TD*%
D15*
%TO.C,C13*%
X179925000Y54570000D03*
X180885000Y54570000D03*
%TD*%
D11*
%TO.C,C44*%
X179510000Y164200000D03*
X179510000Y162300000D03*
%TD*%
D15*
%TO.C,C8*%
X92550000Y45750000D03*
X93510000Y45750000D03*
%TD*%
%TO.C,C34*%
X108530000Y134750000D03*
X109490000Y134750000D03*
%TD*%
D10*
%TO.C,C21*%
X49360000Y122610000D03*
X48400000Y122610000D03*
%TD*%
D12*
%TO.C,C7*%
X91610000Y96150000D03*
X93510000Y96150000D03*
%TD*%
D11*
%TO.C,C6*%
X116010000Y44700000D03*
X116010000Y42800000D03*
%TD*%
D19*
%TO.C,C37*%
X93510000Y134790000D03*
X93510000Y135750000D03*
%TD*%
D10*
%TO.C,C26*%
X154510000Y114250000D03*
X153550000Y114250000D03*
%TD*%
D15*
%TO.C,C24*%
X172030000Y113750000D03*
X172990000Y113750000D03*
%TD*%
D13*
%TO.C,C41*%
X189510000Y130250000D03*
X189510000Y129290000D03*
%TD*%
D12*
%TO.C,C9*%
X92560000Y42750000D03*
X94460000Y42750000D03*
%TD*%
D19*
%TO.C,C30*%
X134010000Y139790000D03*
X134010000Y140750000D03*
%TD*%
%TO.C,C32*%
X119870000Y107330000D03*
X119870000Y108290000D03*
%TD*%
D15*
%TO.C,C5*%
X130550000Y44250000D03*
X131510000Y44250000D03*
%TD*%
D16*
%TO.C,C15*%
X181460000Y158250000D03*
X179560000Y158250000D03*
%TD*%
D19*
%TO.C,C38*%
X92305000Y117290000D03*
X92305000Y118250000D03*
%TD*%
%TO.C,C4*%
X131010000Y46270000D03*
X131010000Y47230000D03*
%TD*%
D10*
%TO.C,C2*%
X208285000Y78770000D03*
X207325000Y78770000D03*
%TD*%
D11*
%TO.C,C31*%
X207010000Y139700000D03*
X207010000Y137800000D03*
%TD*%
D15*
%TO.C,C35*%
X132410000Y106240000D03*
X133370000Y106240000D03*
%TD*%
D10*
%TO.C,C36*%
X95870000Y152930000D03*
X94910000Y152930000D03*
%TD*%
D19*
%TO.C,C39*%
X108670000Y151990000D03*
X108670000Y152950000D03*
%TD*%
D16*
%TO.C,C48*%
X142520000Y126000000D03*
X140620000Y126000000D03*
%TD*%
M02*
