%TF.GenerationSoftware,KiCad,Pcbnew,9.0.1*%
%TF.CreationDate,2025-10-11T14:42:30-04:00*%
%TF.ProjectId,snake_pcb,736e616b-655f-4706-9362-2e6b69636164,rev?*%
%TF.SameCoordinates,Original*%
%TF.FileFunction,Drillmap*%
%TF.FilePolarity,Positive*%
%FSLAX45Y45*%
G04 Gerber Fmt 4.5, Leading zero omitted, Abs format (unit mm)*
G04 Created by KiCad (PCBNEW 9.0.1) date 2025-10-11 14:42:30*
%MOMM*%
%LPD*%
G01*
G04 APERTURE LIST*
%ADD10C,0.050000*%
%ADD11C,0.200000*%
%ADD12C,0.210000*%
G04 APERTURE END LIST*
D10*
X24350000Y500000D02*
X24350000Y20000000D01*
X24350000Y20000000D02*
X350000Y20000000D01*
X350000Y500000D02*
X24350000Y500000D01*
X350000Y20000000D02*
X350000Y500000D01*
D11*
D12*
X545000Y19805000D02*
X755000Y19595000D01*
X755000Y19805000D02*
X545000Y19595000D01*
X545000Y10405000D02*
X755000Y10195000D01*
X755000Y10405000D02*
X545000Y10195000D01*
X545000Y905000D02*
X755000Y695000D01*
X755000Y905000D02*
X545000Y695000D01*
X23945000Y19705000D02*
X24155000Y19495000D01*
X24155000Y19705000D02*
X23945000Y19495000D01*
X23945000Y11005000D02*
X24155000Y10795000D01*
X24155000Y11005000D02*
X23945000Y10795000D01*
X23945000Y905000D02*
X24155000Y695000D01*
X24155000Y905000D02*
X23945000Y695000D01*
D11*
X608277Y186016D02*
X608277Y386016D01*
X608277Y386016D02*
X655896Y386016D01*
X655896Y386016D02*
X684467Y376492D01*
X684467Y376492D02*
X703515Y357445D01*
X703515Y357445D02*
X713039Y338397D01*
X713039Y338397D02*
X722562Y300302D01*
X722562Y300302D02*
X722562Y271730D01*
X722562Y271730D02*
X713039Y233635D01*
X713039Y233635D02*
X703515Y214588D01*
X703515Y214588D02*
X684467Y195540D01*
X684467Y195540D02*
X655896Y186016D01*
X655896Y186016D02*
X608277Y186016D01*
X808277Y186016D02*
X808277Y319350D01*
X808277Y281254D02*
X817801Y300302D01*
X817801Y300302D02*
X827324Y309826D01*
X827324Y309826D02*
X846372Y319350D01*
X846372Y319350D02*
X865420Y319350D01*
X932086Y186016D02*
X932086Y319350D01*
X932086Y386016D02*
X922562Y376492D01*
X922562Y376492D02*
X932086Y366968D01*
X932086Y366968D02*
X941610Y376492D01*
X941610Y376492D02*
X932086Y386016D01*
X932086Y386016D02*
X932086Y366968D01*
X1055896Y186016D02*
X1036848Y195540D01*
X1036848Y195540D02*
X1027324Y214588D01*
X1027324Y214588D02*
X1027324Y386016D01*
X1160658Y186016D02*
X1141610Y195540D01*
X1141610Y195540D02*
X1132086Y214588D01*
X1132086Y214588D02*
X1132086Y386016D01*
X1389229Y186016D02*
X1389229Y386016D01*
X1389229Y386016D02*
X1455896Y243159D01*
X1455896Y243159D02*
X1522562Y386016D01*
X1522562Y386016D02*
X1522562Y186016D01*
X1703515Y186016D02*
X1703515Y290778D01*
X1703515Y290778D02*
X1693991Y309826D01*
X1693991Y309826D02*
X1674943Y319350D01*
X1674943Y319350D02*
X1636848Y319350D01*
X1636848Y319350D02*
X1617801Y309826D01*
X1703515Y195540D02*
X1684467Y186016D01*
X1684467Y186016D02*
X1636848Y186016D01*
X1636848Y186016D02*
X1617801Y195540D01*
X1617801Y195540D02*
X1608277Y214588D01*
X1608277Y214588D02*
X1608277Y233635D01*
X1608277Y233635D02*
X1617801Y252683D01*
X1617801Y252683D02*
X1636848Y262207D01*
X1636848Y262207D02*
X1684467Y262207D01*
X1684467Y262207D02*
X1703515Y271730D01*
X1798753Y319350D02*
X1798753Y119349D01*
X1798753Y309826D02*
X1817801Y319350D01*
X1817801Y319350D02*
X1855896Y319350D01*
X1855896Y319350D02*
X1874943Y309826D01*
X1874943Y309826D02*
X1884467Y300302D01*
X1884467Y300302D02*
X1893991Y281254D01*
X1893991Y281254D02*
X1893991Y224111D01*
X1893991Y224111D02*
X1884467Y205064D01*
X1884467Y205064D02*
X1874943Y195540D01*
X1874943Y195540D02*
X1855896Y186016D01*
X1855896Y186016D02*
X1817801Y186016D01*
X1817801Y186016D02*
X1798753Y195540D01*
X1979705Y205064D02*
X1989229Y195540D01*
X1989229Y195540D02*
X1979705Y186016D01*
X1979705Y186016D02*
X1970182Y195540D01*
X1970182Y195540D02*
X1979705Y205064D01*
X1979705Y205064D02*
X1979705Y186016D01*
X1979705Y309826D02*
X1989229Y300302D01*
X1989229Y300302D02*
X1979705Y290778D01*
X1979705Y290778D02*
X1970182Y300302D01*
X1970182Y300302D02*
X1979705Y309826D01*
X1979705Y309826D02*
X1979705Y290778D01*
X147500Y-42500D02*
X347500Y-242500D01*
X347500Y-42500D02*
X147500Y-242500D01*
X598753Y-53031D02*
X608277Y-43508D01*
X608277Y-43508D02*
X627324Y-33984D01*
X627324Y-33984D02*
X674944Y-33984D01*
X674944Y-33984D02*
X693991Y-43508D01*
X693991Y-43508D02*
X703515Y-53031D01*
X703515Y-53031D02*
X713039Y-72079D01*
X713039Y-72079D02*
X713039Y-91127D01*
X713039Y-91127D02*
X703515Y-119698D01*
X703515Y-119698D02*
X589229Y-233984D01*
X589229Y-233984D02*
X713039Y-233984D01*
X798753Y-214936D02*
X808277Y-224460D01*
X808277Y-224460D02*
X798753Y-233984D01*
X798753Y-233984D02*
X789229Y-224460D01*
X789229Y-224460D02*
X798753Y-214936D01*
X798753Y-214936D02*
X798753Y-233984D01*
X998753Y-233984D02*
X884467Y-233984D01*
X941610Y-233984D02*
X941610Y-33984D01*
X941610Y-33984D02*
X922562Y-62555D01*
X922562Y-62555D02*
X903515Y-81603D01*
X903515Y-81603D02*
X884467Y-91127D01*
X1122563Y-33984D02*
X1141610Y-33984D01*
X1141610Y-33984D02*
X1160658Y-43508D01*
X1160658Y-43508D02*
X1170182Y-53031D01*
X1170182Y-53031D02*
X1179705Y-72079D01*
X1179705Y-72079D02*
X1189229Y-110174D01*
X1189229Y-110174D02*
X1189229Y-157793D01*
X1189229Y-157793D02*
X1179705Y-195888D01*
X1179705Y-195888D02*
X1170182Y-214936D01*
X1170182Y-214936D02*
X1160658Y-224460D01*
X1160658Y-224460D02*
X1141610Y-233984D01*
X1141610Y-233984D02*
X1122563Y-233984D01*
X1122563Y-233984D02*
X1103515Y-224460D01*
X1103515Y-224460D02*
X1093991Y-214936D01*
X1093991Y-214936D02*
X1084467Y-195888D01*
X1084467Y-195888D02*
X1074944Y-157793D01*
X1074944Y-157793D02*
X1074944Y-110174D01*
X1074944Y-110174D02*
X1084467Y-72079D01*
X1084467Y-72079D02*
X1093991Y-53031D01*
X1093991Y-53031D02*
X1103515Y-43508D01*
X1103515Y-43508D02*
X1122563Y-33984D01*
X1313039Y-33984D02*
X1332086Y-33984D01*
X1332086Y-33984D02*
X1351134Y-43508D01*
X1351134Y-43508D02*
X1360658Y-53031D01*
X1360658Y-53031D02*
X1370182Y-72079D01*
X1370182Y-72079D02*
X1379705Y-110174D01*
X1379705Y-110174D02*
X1379705Y-157793D01*
X1379705Y-157793D02*
X1370182Y-195888D01*
X1370182Y-195888D02*
X1360658Y-214936D01*
X1360658Y-214936D02*
X1351134Y-224460D01*
X1351134Y-224460D02*
X1332086Y-233984D01*
X1332086Y-233984D02*
X1313039Y-233984D01*
X1313039Y-233984D02*
X1293991Y-224460D01*
X1293991Y-224460D02*
X1284467Y-214936D01*
X1284467Y-214936D02*
X1274944Y-195888D01*
X1274944Y-195888D02*
X1265420Y-157793D01*
X1265420Y-157793D02*
X1265420Y-110174D01*
X1265420Y-110174D02*
X1274944Y-72079D01*
X1274944Y-72079D02*
X1284467Y-53031D01*
X1284467Y-53031D02*
X1293991Y-43508D01*
X1293991Y-43508D02*
X1313039Y-33984D01*
X1465420Y-233984D02*
X1465420Y-100650D01*
X1465420Y-119698D02*
X1474943Y-110174D01*
X1474943Y-110174D02*
X1493991Y-100650D01*
X1493991Y-100650D02*
X1522563Y-100650D01*
X1522563Y-100650D02*
X1541610Y-110174D01*
X1541610Y-110174D02*
X1551134Y-129222D01*
X1551134Y-129222D02*
X1551134Y-233984D01*
X1551134Y-129222D02*
X1560658Y-110174D01*
X1560658Y-110174D02*
X1579705Y-100650D01*
X1579705Y-100650D02*
X1608277Y-100650D01*
X1608277Y-100650D02*
X1627324Y-110174D01*
X1627324Y-110174D02*
X1636848Y-129222D01*
X1636848Y-129222D02*
X1636848Y-233984D01*
X1732086Y-233984D02*
X1732086Y-100650D01*
X1732086Y-119698D02*
X1741610Y-110174D01*
X1741610Y-110174D02*
X1760658Y-100650D01*
X1760658Y-100650D02*
X1789229Y-100650D01*
X1789229Y-100650D02*
X1808277Y-110174D01*
X1808277Y-110174D02*
X1817801Y-129222D01*
X1817801Y-129222D02*
X1817801Y-233984D01*
X1817801Y-129222D02*
X1827324Y-110174D01*
X1827324Y-110174D02*
X1846372Y-100650D01*
X1846372Y-100650D02*
X1874943Y-100650D01*
X1874943Y-100650D02*
X1893991Y-110174D01*
X1893991Y-110174D02*
X1903515Y-129222D01*
X1903515Y-129222D02*
X1903515Y-233984D01*
X2293991Y-24460D02*
X2122563Y-281603D01*
X2551134Y-33984D02*
X2570182Y-33984D01*
X2570182Y-33984D02*
X2589229Y-43508D01*
X2589229Y-43508D02*
X2598753Y-53031D01*
X2598753Y-53031D02*
X2608277Y-72079D01*
X2608277Y-72079D02*
X2617801Y-110174D01*
X2617801Y-110174D02*
X2617801Y-157793D01*
X2617801Y-157793D02*
X2608277Y-195888D01*
X2608277Y-195888D02*
X2598753Y-214936D01*
X2598753Y-214936D02*
X2589229Y-224460D01*
X2589229Y-224460D02*
X2570182Y-233984D01*
X2570182Y-233984D02*
X2551134Y-233984D01*
X2551134Y-233984D02*
X2532087Y-224460D01*
X2532087Y-224460D02*
X2522563Y-214936D01*
X2522563Y-214936D02*
X2513039Y-195888D01*
X2513039Y-195888D02*
X2503515Y-157793D01*
X2503515Y-157793D02*
X2503515Y-110174D01*
X2503515Y-110174D02*
X2513039Y-72079D01*
X2513039Y-72079D02*
X2522563Y-53031D01*
X2522563Y-53031D02*
X2532087Y-43508D01*
X2532087Y-43508D02*
X2551134Y-33984D01*
X2703515Y-214936D02*
X2713039Y-224460D01*
X2713039Y-224460D02*
X2703515Y-233984D01*
X2703515Y-233984D02*
X2693991Y-224460D01*
X2693991Y-224460D02*
X2703515Y-214936D01*
X2703515Y-214936D02*
X2703515Y-233984D01*
X2836848Y-33984D02*
X2855896Y-33984D01*
X2855896Y-33984D02*
X2874944Y-43508D01*
X2874944Y-43508D02*
X2884467Y-53031D01*
X2884467Y-53031D02*
X2893991Y-72079D01*
X2893991Y-72079D02*
X2903515Y-110174D01*
X2903515Y-110174D02*
X2903515Y-157793D01*
X2903515Y-157793D02*
X2893991Y-195888D01*
X2893991Y-195888D02*
X2884467Y-214936D01*
X2884467Y-214936D02*
X2874944Y-224460D01*
X2874944Y-224460D02*
X2855896Y-233984D01*
X2855896Y-233984D02*
X2836848Y-233984D01*
X2836848Y-233984D02*
X2817801Y-224460D01*
X2817801Y-224460D02*
X2808277Y-214936D01*
X2808277Y-214936D02*
X2798753Y-195888D01*
X2798753Y-195888D02*
X2789229Y-157793D01*
X2789229Y-157793D02*
X2789229Y-110174D01*
X2789229Y-110174D02*
X2798753Y-72079D01*
X2798753Y-72079D02*
X2808277Y-53031D01*
X2808277Y-53031D02*
X2817801Y-43508D01*
X2817801Y-43508D02*
X2836848Y-33984D01*
X3017801Y-119698D02*
X2998753Y-110174D01*
X2998753Y-110174D02*
X2989229Y-100650D01*
X2989229Y-100650D02*
X2979706Y-81603D01*
X2979706Y-81603D02*
X2979706Y-72079D01*
X2979706Y-72079D02*
X2989229Y-53031D01*
X2989229Y-53031D02*
X2998753Y-43508D01*
X2998753Y-43508D02*
X3017801Y-33984D01*
X3017801Y-33984D02*
X3055896Y-33984D01*
X3055896Y-33984D02*
X3074944Y-43508D01*
X3074944Y-43508D02*
X3084467Y-53031D01*
X3084467Y-53031D02*
X3093991Y-72079D01*
X3093991Y-72079D02*
X3093991Y-81603D01*
X3093991Y-81603D02*
X3084467Y-100650D01*
X3084467Y-100650D02*
X3074944Y-110174D01*
X3074944Y-110174D02*
X3055896Y-119698D01*
X3055896Y-119698D02*
X3017801Y-119698D01*
X3017801Y-119698D02*
X2998753Y-129222D01*
X2998753Y-129222D02*
X2989229Y-138746D01*
X2989229Y-138746D02*
X2979706Y-157793D01*
X2979706Y-157793D02*
X2979706Y-195888D01*
X2979706Y-195888D02*
X2989229Y-214936D01*
X2989229Y-214936D02*
X2998753Y-224460D01*
X2998753Y-224460D02*
X3017801Y-233984D01*
X3017801Y-233984D02*
X3055896Y-233984D01*
X3055896Y-233984D02*
X3074944Y-224460D01*
X3074944Y-224460D02*
X3084467Y-214936D01*
X3084467Y-214936D02*
X3093991Y-195888D01*
X3093991Y-195888D02*
X3093991Y-157793D01*
X3093991Y-157793D02*
X3084467Y-138746D01*
X3084467Y-138746D02*
X3074944Y-129222D01*
X3074944Y-129222D02*
X3055896Y-119698D01*
X3170182Y-53031D02*
X3179706Y-43508D01*
X3179706Y-43508D02*
X3198753Y-33984D01*
X3198753Y-33984D02*
X3246372Y-33984D01*
X3246372Y-33984D02*
X3265420Y-43508D01*
X3265420Y-43508D02*
X3274944Y-53031D01*
X3274944Y-53031D02*
X3284467Y-72079D01*
X3284467Y-72079D02*
X3284467Y-91127D01*
X3284467Y-91127D02*
X3274944Y-119698D01*
X3274944Y-119698D02*
X3160658Y-233984D01*
X3160658Y-233984D02*
X3284467Y-233984D01*
X3351134Y-33984D02*
X3484467Y-33984D01*
X3484467Y-33984D02*
X3398753Y-233984D01*
X3551134Y-33984D02*
X3551134Y-72079D01*
X3627325Y-33984D02*
X3627325Y-72079D01*
X3922563Y-310174D02*
X3913039Y-300650D01*
X3913039Y-300650D02*
X3893991Y-272079D01*
X3893991Y-272079D02*
X3884468Y-253031D01*
X3884468Y-253031D02*
X3874944Y-224460D01*
X3874944Y-224460D02*
X3865420Y-176841D01*
X3865420Y-176841D02*
X3865420Y-138746D01*
X3865420Y-138746D02*
X3874944Y-91127D01*
X3874944Y-91127D02*
X3884468Y-62555D01*
X3884468Y-62555D02*
X3893991Y-43508D01*
X3893991Y-43508D02*
X3913039Y-14936D01*
X3913039Y-14936D02*
X3922563Y-5412D01*
X4084468Y-33984D02*
X4046372Y-33984D01*
X4046372Y-33984D02*
X4027325Y-43508D01*
X4027325Y-43508D02*
X4017801Y-53031D01*
X4017801Y-53031D02*
X3998753Y-81603D01*
X3998753Y-81603D02*
X3989229Y-119698D01*
X3989229Y-119698D02*
X3989229Y-195888D01*
X3989229Y-195888D02*
X3998753Y-214936D01*
X3998753Y-214936D02*
X4008277Y-224460D01*
X4008277Y-224460D02*
X4027325Y-233984D01*
X4027325Y-233984D02*
X4065420Y-233984D01*
X4065420Y-233984D02*
X4084468Y-224460D01*
X4084468Y-224460D02*
X4093991Y-214936D01*
X4093991Y-214936D02*
X4103515Y-195888D01*
X4103515Y-195888D02*
X4103515Y-148270D01*
X4103515Y-148270D02*
X4093991Y-129222D01*
X4093991Y-129222D02*
X4084468Y-119698D01*
X4084468Y-119698D02*
X4065420Y-110174D01*
X4065420Y-110174D02*
X4027325Y-110174D01*
X4027325Y-110174D02*
X4008277Y-119698D01*
X4008277Y-119698D02*
X3998753Y-129222D01*
X3998753Y-129222D02*
X3989229Y-148270D01*
X4341611Y-233984D02*
X4341611Y-33984D01*
X4427325Y-233984D02*
X4427325Y-129222D01*
X4427325Y-129222D02*
X4417801Y-110174D01*
X4417801Y-110174D02*
X4398753Y-100650D01*
X4398753Y-100650D02*
X4370182Y-100650D01*
X4370182Y-100650D02*
X4351134Y-110174D01*
X4351134Y-110174D02*
X4341611Y-119698D01*
X4551134Y-233984D02*
X4532087Y-224460D01*
X4532087Y-224460D02*
X4522563Y-214936D01*
X4522563Y-214936D02*
X4513039Y-195888D01*
X4513039Y-195888D02*
X4513039Y-138746D01*
X4513039Y-138746D02*
X4522563Y-119698D01*
X4522563Y-119698D02*
X4532087Y-110174D01*
X4532087Y-110174D02*
X4551134Y-100650D01*
X4551134Y-100650D02*
X4579706Y-100650D01*
X4579706Y-100650D02*
X4598753Y-110174D01*
X4598753Y-110174D02*
X4608277Y-119698D01*
X4608277Y-119698D02*
X4617801Y-138746D01*
X4617801Y-138746D02*
X4617801Y-195888D01*
X4617801Y-195888D02*
X4608277Y-214936D01*
X4608277Y-214936D02*
X4598753Y-224460D01*
X4598753Y-224460D02*
X4579706Y-233984D01*
X4579706Y-233984D02*
X4551134Y-233984D01*
X4732087Y-233984D02*
X4713039Y-224460D01*
X4713039Y-224460D02*
X4703515Y-205412D01*
X4703515Y-205412D02*
X4703515Y-33984D01*
X4884468Y-224460D02*
X4865420Y-233984D01*
X4865420Y-233984D02*
X4827325Y-233984D01*
X4827325Y-233984D02*
X4808277Y-224460D01*
X4808277Y-224460D02*
X4798753Y-205412D01*
X4798753Y-205412D02*
X4798753Y-129222D01*
X4798753Y-129222D02*
X4808277Y-110174D01*
X4808277Y-110174D02*
X4827325Y-100650D01*
X4827325Y-100650D02*
X4865420Y-100650D01*
X4865420Y-100650D02*
X4884468Y-110174D01*
X4884468Y-110174D02*
X4893992Y-129222D01*
X4893992Y-129222D02*
X4893992Y-148270D01*
X4893992Y-148270D02*
X4798753Y-167317D01*
X4970182Y-224460D02*
X4989230Y-233984D01*
X4989230Y-233984D02*
X5027325Y-233984D01*
X5027325Y-233984D02*
X5046373Y-224460D01*
X5046373Y-224460D02*
X5055896Y-205412D01*
X5055896Y-205412D02*
X5055896Y-195888D01*
X5055896Y-195888D02*
X5046373Y-176841D01*
X5046373Y-176841D02*
X5027325Y-167317D01*
X5027325Y-167317D02*
X4998753Y-167317D01*
X4998753Y-167317D02*
X4979706Y-157793D01*
X4979706Y-157793D02*
X4970182Y-138746D01*
X4970182Y-138746D02*
X4970182Y-129222D01*
X4970182Y-129222D02*
X4979706Y-110174D01*
X4979706Y-110174D02*
X4998753Y-100650D01*
X4998753Y-100650D02*
X5027325Y-100650D01*
X5027325Y-100650D02*
X5046373Y-110174D01*
X5122563Y-310174D02*
X5132087Y-300650D01*
X5132087Y-300650D02*
X5151134Y-272079D01*
X5151134Y-272079D02*
X5160658Y-253031D01*
X5160658Y-253031D02*
X5170182Y-224460D01*
X5170182Y-224460D02*
X5179706Y-176841D01*
X5179706Y-176841D02*
X5179706Y-138746D01*
X5179706Y-138746D02*
X5170182Y-91127D01*
X5170182Y-91127D02*
X5160658Y-62555D01*
X5160658Y-62555D02*
X5151134Y-43508D01*
X5151134Y-43508D02*
X5132087Y-14936D01*
X5132087Y-14936D02*
X5122563Y-5412D01*
X5484468Y-310174D02*
X5474944Y-300650D01*
X5474944Y-300650D02*
X5455896Y-272079D01*
X5455896Y-272079D02*
X5446373Y-253031D01*
X5446373Y-253031D02*
X5436849Y-224460D01*
X5436849Y-224460D02*
X5427325Y-176841D01*
X5427325Y-176841D02*
X5427325Y-138746D01*
X5427325Y-138746D02*
X5436849Y-91127D01*
X5436849Y-91127D02*
X5446373Y-62555D01*
X5446373Y-62555D02*
X5455896Y-43508D01*
X5455896Y-43508D02*
X5474944Y-14936D01*
X5474944Y-14936D02*
X5484468Y-5412D01*
X5560658Y-100650D02*
X5560658Y-233984D01*
X5560658Y-119698D02*
X5570182Y-110174D01*
X5570182Y-110174D02*
X5589230Y-100650D01*
X5589230Y-100650D02*
X5617801Y-100650D01*
X5617801Y-100650D02*
X5636849Y-110174D01*
X5636849Y-110174D02*
X5646372Y-129222D01*
X5646372Y-129222D02*
X5646372Y-233984D01*
X5770182Y-233984D02*
X5751134Y-224460D01*
X5751134Y-224460D02*
X5741611Y-214936D01*
X5741611Y-214936D02*
X5732087Y-195888D01*
X5732087Y-195888D02*
X5732087Y-138746D01*
X5732087Y-138746D02*
X5741611Y-119698D01*
X5741611Y-119698D02*
X5751134Y-110174D01*
X5751134Y-110174D02*
X5770182Y-100650D01*
X5770182Y-100650D02*
X5798753Y-100650D01*
X5798753Y-100650D02*
X5817801Y-110174D01*
X5817801Y-110174D02*
X5827325Y-119698D01*
X5827325Y-119698D02*
X5836849Y-138746D01*
X5836849Y-138746D02*
X5836849Y-195888D01*
X5836849Y-195888D02*
X5827325Y-214936D01*
X5827325Y-214936D02*
X5817801Y-224460D01*
X5817801Y-224460D02*
X5798753Y-233984D01*
X5798753Y-233984D02*
X5770182Y-233984D01*
X5893992Y-100650D02*
X5970182Y-100650D01*
X5922563Y-33984D02*
X5922563Y-205412D01*
X5922563Y-205412D02*
X5932087Y-224460D01*
X5932087Y-224460D02*
X5951134Y-233984D01*
X5951134Y-233984D02*
X5970182Y-233984D01*
X6189230Y-100650D02*
X6189230Y-300650D01*
X6189230Y-110174D02*
X6208277Y-100650D01*
X6208277Y-100650D02*
X6246373Y-100650D01*
X6246373Y-100650D02*
X6265420Y-110174D01*
X6265420Y-110174D02*
X6274944Y-119698D01*
X6274944Y-119698D02*
X6284468Y-138746D01*
X6284468Y-138746D02*
X6284468Y-195888D01*
X6284468Y-195888D02*
X6274944Y-214936D01*
X6274944Y-214936D02*
X6265420Y-224460D01*
X6265420Y-224460D02*
X6246373Y-233984D01*
X6246373Y-233984D02*
X6208277Y-233984D01*
X6208277Y-233984D02*
X6189230Y-224460D01*
X6398753Y-233984D02*
X6379706Y-224460D01*
X6379706Y-224460D02*
X6370182Y-205412D01*
X6370182Y-205412D02*
X6370182Y-33984D01*
X6560658Y-233984D02*
X6560658Y-129222D01*
X6560658Y-129222D02*
X6551134Y-110174D01*
X6551134Y-110174D02*
X6532087Y-100650D01*
X6532087Y-100650D02*
X6493992Y-100650D01*
X6493992Y-100650D02*
X6474944Y-110174D01*
X6560658Y-224460D02*
X6541611Y-233984D01*
X6541611Y-233984D02*
X6493992Y-233984D01*
X6493992Y-233984D02*
X6474944Y-224460D01*
X6474944Y-224460D02*
X6465420Y-205412D01*
X6465420Y-205412D02*
X6465420Y-186365D01*
X6465420Y-186365D02*
X6474944Y-167317D01*
X6474944Y-167317D02*
X6493992Y-157793D01*
X6493992Y-157793D02*
X6541611Y-157793D01*
X6541611Y-157793D02*
X6560658Y-148270D01*
X6627325Y-100650D02*
X6703515Y-100650D01*
X6655896Y-33984D02*
X6655896Y-205412D01*
X6655896Y-205412D02*
X6665420Y-224460D01*
X6665420Y-224460D02*
X6684468Y-233984D01*
X6684468Y-233984D02*
X6703515Y-233984D01*
X6846373Y-224460D02*
X6827325Y-233984D01*
X6827325Y-233984D02*
X6789230Y-233984D01*
X6789230Y-233984D02*
X6770182Y-224460D01*
X6770182Y-224460D02*
X6760658Y-205412D01*
X6760658Y-205412D02*
X6760658Y-129222D01*
X6760658Y-129222D02*
X6770182Y-110174D01*
X6770182Y-110174D02*
X6789230Y-100650D01*
X6789230Y-100650D02*
X6827325Y-100650D01*
X6827325Y-100650D02*
X6846373Y-110174D01*
X6846373Y-110174D02*
X6855896Y-129222D01*
X6855896Y-129222D02*
X6855896Y-148270D01*
X6855896Y-148270D02*
X6760658Y-167317D01*
X7027325Y-233984D02*
X7027325Y-33984D01*
X7027325Y-224460D02*
X7008277Y-233984D01*
X7008277Y-233984D02*
X6970182Y-233984D01*
X6970182Y-233984D02*
X6951134Y-224460D01*
X6951134Y-224460D02*
X6941611Y-214936D01*
X6941611Y-214936D02*
X6932087Y-195888D01*
X6932087Y-195888D02*
X6932087Y-138746D01*
X6932087Y-138746D02*
X6941611Y-119698D01*
X6941611Y-119698D02*
X6951134Y-110174D01*
X6951134Y-110174D02*
X6970182Y-100650D01*
X6970182Y-100650D02*
X7008277Y-100650D01*
X7008277Y-100650D02*
X7027325Y-110174D01*
X7103515Y-310174D02*
X7113039Y-300650D01*
X7113039Y-300650D02*
X7132087Y-272079D01*
X7132087Y-272079D02*
X7141611Y-253031D01*
X7141611Y-253031D02*
X7151134Y-224460D01*
X7151134Y-224460D02*
X7160658Y-176841D01*
X7160658Y-176841D02*
X7160658Y-138746D01*
X7160658Y-138746D02*
X7151134Y-91127D01*
X7151134Y-91127D02*
X7141611Y-62555D01*
X7141611Y-62555D02*
X7132087Y-43508D01*
X7132087Y-43508D02*
X7113039Y-14936D01*
X7113039Y-14936D02*
X7103515Y-5412D01*
M02*
