%TF.GenerationSoftware,KiCad,Pcbnew,9.0.1*%
%TF.CreationDate,2025-10-11T14:42:26-04:00*%
%TF.ProjectId,snake_pcb,736e616b-655f-4706-9362-2e6b69636164,rev?*%
%TF.SameCoordinates,Original*%
%TF.FileFunction,Soldermask,Bot*%
%TF.FilePolarity,Negative*%
%FSLAX46Y46*%
G04 Gerber Fmt 4.6, Leading zero omitted, Abs format (unit mm)*
G04 Created by KiCad (PCBNEW 9.0.1) date 2025-10-11 14:42:26*
%MOMM*%
%LPD*%
G01*
G04 APERTURE LIST*
G04 Aperture macros list*
%AMRoundRect*
0 Rectangle with rounded corners*
0 $1 Rounding radius*
0 $2 $3 $4 $5 $6 $7 $8 $9 X,Y pos of 4 corners*
0 Add a 4 corners polygon primitive as box body*
4,1,4,$2,$3,$4,$5,$6,$7,$8,$9,$2,$3,0*
0 Add four circle primitives for the rounded corners*
1,1,$1+$1,$2,$3*
1,1,$1+$1,$4,$5*
1,1,$1+$1,$6,$7*
1,1,$1+$1,$8,$9*
0 Add four rect primitives between the rounded corners*
20,1,$1+$1,$2,$3,$4,$5,0*
20,1,$1+$1,$4,$5,$6,$7,0*
20,1,$1+$1,$6,$7,$8,$9,0*
20,1,$1+$1,$8,$9,$2,$3,0*%
G04 Aperture macros list end*
%ADD10C,2.100000*%
%ADD11O,1.600000X1.600000*%
%ADD12C,1.600000*%
%ADD13RoundRect,0.250000X0.550000X0.550000X-0.550000X0.550000X-0.550000X-0.550000X0.550000X-0.550000X0*%
%ADD14C,2.000000*%
%ADD15C,1.700000*%
%ADD16R,1.600000X1.600000*%
%ADD17R,1.700000X1.700000*%
%ADD18RoundRect,0.250000X-0.550000X-0.550000X0.550000X-0.550000X0.550000X0.550000X-0.550000X0.550000X0*%
%ADD19RoundRect,0.250000X-0.950000X-0.550000X0.950000X-0.550000X0.950000X0.550000X-0.950000X0.550000X0*%
%ADD20O,2.400000X1.600000*%
%ADD21RoundRect,0.250000X0.550000X-0.550000X0.550000X0.550000X-0.550000X0.550000X-0.550000X-0.550000X0*%
%ADD22R,1.800000X1.800000*%
%ADD23C,1.800000*%
%ADD24O,3.500000X2.200000*%
%ADD25R,2.500000X1.500000*%
%ADD26O,2.500000X1.500000*%
%ADD27RoundRect,0.250000X-0.550000X0.550000X-0.550000X-0.550000X0.550000X-0.550000X0.550000X0.550000X0*%
%ADD28R,2.000000X2.000000*%
%ADD29R,3.500000X3.500000*%
%ADD30RoundRect,0.750000X0.750000X1.000000X-0.750000X1.000000X-0.750000X-1.000000X0.750000X-1.000000X0*%
%ADD31RoundRect,0.875000X0.875000X0.875000X-0.875000X0.875000X-0.875000X-0.875000X0.875000X-0.875000X0*%
%ADD32R,2.250000X2.250000*%
%ADD33C,2.250000*%
%ADD34R,1.800000X1.275000*%
%ADD35O,1.800000X1.275000*%
%ADD36RoundRect,0.250000X-0.600000X-0.600000X0.600000X-0.600000X0.600000X0.600000X-0.600000X0.600000X0*%
%ADD37C,4.000000*%
G04 APERTURE END LIST*
D10*
%TO.C,H6*%
X6500000Y197000000D03*
%TD*%
%TO.C,H5*%
X6500000Y8000000D03*
%TD*%
%TO.C,H4*%
X6500000Y103000000D03*
%TD*%
%TO.C,H3*%
X240500000Y109000000D03*
%TD*%
%TO.C,H2*%
X240500000Y196000000D03*
%TD*%
%TO.C,H1*%
X240500000Y8000000D03*
%TD*%
D11*
%TO.C,R26*%
X32525000Y42690000D03*
D12*
X42685000Y42690000D03*
%TD*%
%TO.C,WP_SHIFTER1*%
X46380000Y39880000D03*
X46380000Y42420000D03*
X46380000Y44960000D03*
X46380000Y47500000D03*
X54000000Y47500000D03*
X54000000Y44960000D03*
X54000000Y42420000D03*
D13*
X54000000Y39880000D03*
%TD*%
D14*
%TO.C,C33*%
X41025000Y34190000D03*
X41025000Y39190000D03*
%TD*%
%TO.C,C38*%
X59525000Y34690000D03*
X59525000Y39690000D03*
%TD*%
D15*
%TO.C,Y3*%
X76620000Y156430000D03*
X76620000Y151430000D03*
%TD*%
D16*
%TO.C,C28*%
X72120000Y149930000D03*
D12*
X69620000Y149930000D03*
%TD*%
D17*
%TO.C,J12*%
X56500000Y168460000D03*
D15*
X56500000Y171000000D03*
%TD*%
D16*
%TO.C,C27*%
X72120000Y156930000D03*
D12*
X69620000Y156930000D03*
%TD*%
%TO.C,R23*%
X86755000Y179610000D03*
D11*
X76595000Y179610000D03*
%TD*%
D17*
%TO.C,J18*%
X101120000Y142350000D03*
D15*
X101120000Y144890000D03*
X101120000Y147430000D03*
X101120000Y149970000D03*
X101120000Y152510000D03*
%TD*%
D12*
%TO.C,R19*%
X81755000Y138110000D03*
D11*
X71595000Y138110000D03*
%TD*%
D12*
%TO.C,R21*%
X107095000Y131450000D03*
D11*
X107095000Y141610000D03*
%TD*%
D18*
%TO.C,U1*%
X87000000Y175510000D03*
D12*
X87000000Y172970000D03*
X87000000Y170430000D03*
X87000000Y167890000D03*
X87000000Y165350000D03*
X87000000Y162810000D03*
X87000000Y160270000D03*
X87000000Y157730000D03*
X87000000Y155190000D03*
X87000000Y152650000D03*
X87000000Y150110000D03*
X87000000Y147570000D03*
X87000000Y145030000D03*
X87000000Y142490000D03*
X94620000Y142490000D03*
X94620000Y145030000D03*
X94620000Y147570000D03*
X94620000Y150110000D03*
X94620000Y152650000D03*
X94620000Y155190000D03*
X94620000Y157730000D03*
X94620000Y160270000D03*
X94620000Y162810000D03*
X94620000Y165350000D03*
X94620000Y167890000D03*
X94620000Y170430000D03*
X94620000Y172970000D03*
X94620000Y175510000D03*
%TD*%
%TO.C,R20*%
X84435000Y136610000D03*
D11*
X94595000Y136610000D03*
%TD*%
D17*
%TO.C,J13*%
X81120000Y150240000D03*
D15*
X81120000Y147700000D03*
X81120000Y145160000D03*
X81120000Y142620000D03*
%TD*%
D17*
%TO.C,J16*%
X81120000Y175590000D03*
D15*
X81120000Y173050000D03*
X81120000Y170510000D03*
X81120000Y167970000D03*
X81120000Y165430000D03*
X81120000Y162890000D03*
%TD*%
D14*
%TO.C,C23*%
X66500000Y161000000D03*
X66500000Y166000000D03*
%TD*%
%TO.C,C24*%
X76000000Y163000000D03*
X71000000Y163000000D03*
%TD*%
%TO.C,C25*%
X105000000Y155000000D03*
X110000000Y155000000D03*
%TD*%
%TO.C,C26*%
X105000000Y160500000D03*
X110000000Y160500000D03*
%TD*%
D19*
%TO.C,U5*%
X185574339Y70722500D03*
D20*
X185574339Y68182500D03*
X185574339Y65642500D03*
X185574339Y63102500D03*
X185574339Y60562500D03*
X185574339Y58022500D03*
X185574339Y55482500D03*
X185574339Y52942500D03*
X185574339Y50402500D03*
X185574339Y47862500D03*
X185574339Y45322500D03*
X185574339Y42782500D03*
X185574339Y40242500D03*
X185574339Y37702500D03*
X200814339Y37702500D03*
X200814339Y40242500D03*
X200814339Y42782500D03*
X200814339Y45322500D03*
X200814339Y47862500D03*
X200814339Y50402500D03*
X200814339Y52942500D03*
X200814339Y55482500D03*
X200814339Y58022500D03*
X200814339Y60562500D03*
X200814339Y63102500D03*
X200814339Y65642500D03*
X200814339Y68182500D03*
X200814339Y70722500D03*
%TD*%
D15*
%TO.C,J1*%
X179290000Y75025000D03*
D17*
X176750000Y75025000D03*
%TD*%
D15*
%TO.C,J25*%
X175500000Y59500000D03*
D17*
X172960000Y59500000D03*
%TD*%
D14*
%TO.C,C10*%
X175500000Y64500000D03*
X180500000Y64500000D03*
%TD*%
%TO.C,C11*%
X175500000Y70000000D03*
X180500000Y70000000D03*
%TD*%
%TO.C,C77*%
X29050000Y146500000D03*
X34050000Y146500000D03*
%TD*%
%TO.C,C48*%
X30615000Y32030000D03*
X25615000Y32030000D03*
%TD*%
%TO.C,C46*%
X31550000Y173900000D03*
X36550000Y173900000D03*
%TD*%
%TO.C,C45*%
X19925000Y25320000D03*
X19925000Y30320000D03*
%TD*%
%TO.C,C44*%
X28500000Y117000000D03*
X33500000Y117000000D03*
%TD*%
%TO.C,C41*%
X141000000Y171000000D03*
X146000000Y171000000D03*
%TD*%
%TO.C,C40*%
X127500000Y188500000D03*
X127500000Y183500000D03*
%TD*%
%TO.C,C39*%
X54000000Y84500000D03*
X54000000Y79500000D03*
%TD*%
%TO.C,C37*%
X25480000Y52000000D03*
X20480000Y52000000D03*
%TD*%
%TO.C,C36*%
X68830000Y84050000D03*
X73830000Y84050000D03*
%TD*%
%TO.C,C35*%
X50415000Y61530000D03*
X45415000Y61530000D03*
%TD*%
%TO.C,C34*%
X26000000Y67500000D03*
X26000000Y72500000D03*
%TD*%
%TO.C,C32*%
X63435000Y59960000D03*
X63435000Y54960000D03*
%TD*%
%TO.C,C31*%
X121500000Y188500000D03*
X121500000Y183500000D03*
%TD*%
%TO.C,C30*%
X37000000Y97310000D03*
X37000000Y102310000D03*
%TD*%
%TO.C,C29*%
X44000000Y97500000D03*
X44000000Y102500000D03*
%TD*%
%TO.C,C22*%
X156500000Y52000000D03*
X161500000Y52000000D03*
%TD*%
%TO.C,C21*%
X121000000Y57500000D03*
X116000000Y57500000D03*
%TD*%
%TO.C,C20*%
X121000000Y63000000D03*
X116000000Y63000000D03*
%TD*%
%TO.C,C19*%
X156500000Y57500000D03*
X161500000Y57500000D03*
%TD*%
%TO.C,C16*%
X130250000Y104770000D03*
X130250000Y109770000D03*
%TD*%
%TO.C,C15*%
X92500000Y104000000D03*
X92500000Y109000000D03*
%TD*%
%TO.C,C14*%
X158500000Y104500000D03*
X158500000Y109500000D03*
%TD*%
%TO.C,C13*%
X207289339Y44212500D03*
X212289339Y44212500D03*
%TD*%
%TO.C,C12*%
X207389339Y50312500D03*
X212389339Y50312500D03*
%TD*%
%TO.C,C9*%
X124500000Y105000000D03*
X124500000Y110000000D03*
%TD*%
%TO.C,C8*%
X99500000Y104105000D03*
X99500000Y109105000D03*
%TD*%
%TO.C,C7*%
X164500000Y104500000D03*
X164500000Y109500000D03*
%TD*%
%TO.C,C6*%
X152000000Y155500000D03*
X157000000Y155500000D03*
%TD*%
%TO.C,C5*%
X148000000Y128000000D03*
X148000000Y123000000D03*
%TD*%
%TO.C,C4*%
X153500000Y128000000D03*
X153500000Y123000000D03*
%TD*%
%TO.C,C2*%
X227500000Y122957500D03*
X222500000Y122957500D03*
%TD*%
D17*
%TO.C,J29*%
X50000000Y162070000D03*
D15*
X50000000Y164610000D03*
X50000000Y167150000D03*
X50000000Y169690000D03*
%TD*%
D17*
%TO.C,J10*%
X114800000Y17975000D03*
D15*
X112260000Y17975000D03*
X109720000Y17975000D03*
X107180000Y17975000D03*
%TD*%
D21*
%TO.C,23A1024/23LC1*%
X134420000Y176380000D03*
D12*
X136960000Y176380000D03*
X139500000Y176380000D03*
X142040000Y176380000D03*
X142040000Y184000000D03*
X139500000Y184000000D03*
X136960000Y184000000D03*
X134420000Y184000000D03*
%TD*%
D22*
%TO.C,D5*%
X19000000Y129200000D03*
D23*
X21540000Y129200000D03*
%TD*%
D12*
%TO.C,47uF3*%
X21500000Y134700000D03*
X19000000Y134700000D03*
%TD*%
D17*
%TO.C,J17*%
X143880000Y42460000D03*
D15*
X143880000Y45000000D03*
X143880000Y47540000D03*
X143880000Y50080000D03*
X143880000Y52620000D03*
X143880000Y55160000D03*
%TD*%
D21*
%TO.C,U4*%
X100570000Y92575000D03*
D12*
X103110000Y92575000D03*
X105650000Y92575000D03*
X108190000Y92575000D03*
X110730000Y92575000D03*
X113270000Y92575000D03*
X115810000Y92575000D03*
X115810000Y100195000D03*
X113270000Y100195000D03*
X110730000Y100195000D03*
X108190000Y100195000D03*
X105650000Y100195000D03*
X103110000Y100195000D03*
X100570000Y100195000D03*
%TD*%
%TO.C,R1*%
X109840000Y72950000D03*
D11*
X120000000Y72950000D03*
%TD*%
D24*
%TO.C,SW1*%
X188500000Y97600000D03*
X188500000Y89400000D03*
D25*
X188500000Y95500000D03*
D26*
X188500000Y93500000D03*
X188500000Y91500000D03*
%TD*%
D27*
%TO.C,U3*%
X167780000Y145000000D03*
D12*
X165240000Y145000000D03*
X162700000Y145000000D03*
X160160000Y145000000D03*
X157620000Y145000000D03*
X155080000Y145000000D03*
X152540000Y145000000D03*
X150000000Y145000000D03*
X147460000Y145000000D03*
X144920000Y145000000D03*
X142380000Y145000000D03*
X139840000Y145000000D03*
X137300000Y145000000D03*
X134760000Y145000000D03*
X134760000Y137380000D03*
X137300000Y137380000D03*
X139840000Y137380000D03*
X142380000Y137380000D03*
X144920000Y137380000D03*
X147460000Y137380000D03*
X150000000Y137380000D03*
X152540000Y137380000D03*
X155080000Y137380000D03*
X157620000Y137380000D03*
X160160000Y137380000D03*
X162700000Y137380000D03*
X165240000Y137380000D03*
X167780000Y137380000D03*
%TD*%
%TO.C,R6*%
X172310000Y89250000D03*
D11*
X172310000Y79090000D03*
%TD*%
D17*
%TO.C,J19*%
X124380000Y42460000D03*
D15*
X124380000Y45000000D03*
X124380000Y47540000D03*
X124380000Y50080000D03*
X124380000Y52620000D03*
X124380000Y55160000D03*
%TD*%
D18*
%TO.C,U10*%
X88195000Y66390000D03*
D12*
X88195000Y63850000D03*
X88195000Y61310000D03*
X88195000Y58770000D03*
X88195000Y56230000D03*
X88195000Y53690000D03*
X88195000Y51150000D03*
X88195000Y48610000D03*
X95815000Y48610000D03*
X95815000Y51150000D03*
X95815000Y53690000D03*
X95815000Y56230000D03*
X95815000Y58770000D03*
X95815000Y61310000D03*
X95815000Y63850000D03*
X95815000Y66390000D03*
%TD*%
D22*
%TO.C,D2*%
X180729339Y40212500D03*
D23*
X178189339Y40212500D03*
%TD*%
D17*
%TO.C,J28*%
X95725000Y18000000D03*
D15*
X98265000Y18000000D03*
%TD*%
D13*
%TO.C,D8*%
X34360000Y192900000D03*
D12*
X26740000Y192900000D03*
%TD*%
D21*
%TO.C,U7*%
X158650000Y92890000D03*
D12*
X161190000Y92890000D03*
X163730000Y92890000D03*
X166270000Y92890000D03*
X168810000Y92890000D03*
X171350000Y92890000D03*
X173890000Y92890000D03*
X173890000Y100510000D03*
X171350000Y100510000D03*
X168810000Y100510000D03*
X166270000Y100510000D03*
X163730000Y100510000D03*
X161190000Y100510000D03*
X158650000Y100510000D03*
%TD*%
D28*
%TO.C,BZ1*%
X163700000Y21500000D03*
D14*
X171300000Y21500000D03*
%TD*%
D12*
%TO.C,R13*%
X70000000Y21840000D03*
D11*
X70000000Y32000000D03*
%TD*%
D12*
%TO.C,R22*%
X137120000Y118300000D03*
D11*
X137120000Y128460000D03*
%TD*%
D17*
%TO.C,J27*%
X84460000Y18000000D03*
D15*
X87000000Y18000000D03*
%TD*%
D18*
%TO.C,U8*%
X24690000Y96310000D03*
D12*
X24690000Y93770000D03*
X24690000Y91230000D03*
X24690000Y88690000D03*
X32310000Y88690000D03*
X32310000Y91230000D03*
X32310000Y93770000D03*
X32310000Y96310000D03*
%TD*%
%TO.C,R33*%
X111690000Y106220000D03*
D11*
X111690000Y116380000D03*
%TD*%
D12*
%TO.C,R39*%
X17500000Y124780000D03*
X17500000Y114620000D03*
%TD*%
%TO.C,R37*%
X21500000Y125000000D03*
X21500000Y114840000D03*
%TD*%
D22*
%TO.C,D3*%
X215960000Y121957500D03*
D23*
X218500000Y121957500D03*
%TD*%
D29*
%TO.C,J4*%
X222000000Y112500000D03*
D30*
X228000000Y112500000D03*
D31*
X225000000Y117200000D03*
%TD*%
D13*
%TO.C,MISO_SHIFTER1*%
X60805000Y62690000D03*
D12*
X60805000Y65230000D03*
X60805000Y67770000D03*
X60805000Y70310000D03*
X53185000Y70310000D03*
X53185000Y67770000D03*
X53185000Y65230000D03*
X53185000Y62690000D03*
%TD*%
D13*
%TO.C,D6*%
X33860000Y164500000D03*
D12*
X26240000Y164500000D03*
%TD*%
D32*
%TO.C,SW5*%
X220000000Y47250000D03*
D33*
X220000000Y40750000D03*
%TD*%
D17*
%TO.C,J8*%
X112000000Y38960000D03*
D15*
X112000000Y41500000D03*
%TD*%
D12*
%TO.C,4.7uF1*%
X221250000Y132957500D03*
X223750000Y132957500D03*
%TD*%
D14*
%TO.C,C43*%
X209689339Y19212500D03*
X204689339Y19212500D03*
%TD*%
D12*
%TO.C,47uF1*%
X22300000Y163000000D03*
X19800000Y163000000D03*
%TD*%
D34*
%TO.C,TPS75533KCG3*%
X29500000Y125100000D03*
D35*
X29500000Y126800000D03*
X29500000Y128500000D03*
X29500000Y130200000D03*
X29500000Y131900000D03*
%TD*%
D12*
%TO.C,R41*%
X108160000Y38500000D03*
X98000000Y38500000D03*
%TD*%
%TO.C,R42*%
X84685000Y58600000D03*
X74525000Y58600000D03*
%TD*%
D34*
%TO.C,TPS75533KCG1*%
X30500000Y152600000D03*
D35*
X30500000Y154300000D03*
X30500000Y156000000D03*
X30500000Y157700000D03*
X30500000Y159400000D03*
%TD*%
D13*
%TO.C,MOSI_CLK_SHIFTER1*%
X66120000Y86420000D03*
D12*
X66120000Y88960000D03*
X66120000Y91500000D03*
X66120000Y94040000D03*
X58500000Y94040000D03*
X58500000Y91500000D03*
X58500000Y88960000D03*
X58500000Y86420000D03*
%TD*%
D22*
%TO.C,D7*%
X19780000Y157000000D03*
D23*
X22320000Y157000000D03*
%TD*%
D22*
%TO.C,D4*%
X19780000Y186900000D03*
D23*
X22320000Y186900000D03*
%TD*%
D12*
%TO.C,R17*%
X147840000Y75950000D03*
D11*
X158000000Y75950000D03*
%TD*%
D12*
%TO.C,R10*%
X136500000Y22000000D03*
D11*
X136500000Y32160000D03*
%TD*%
D12*
%TO.C,R57*%
X22050000Y182480000D03*
X22050000Y172320000D03*
%TD*%
D17*
%TO.C,J24*%
X134580000Y132380000D03*
D15*
X137120000Y132380000D03*
X139660000Y132380000D03*
X142200000Y132380000D03*
X144740000Y132380000D03*
%TD*%
D21*
%TO.C,CS_HOLD_SHIFTER1*%
X26190000Y56195000D03*
D12*
X28730000Y56195000D03*
X31270000Y56195000D03*
X33810000Y56195000D03*
X33810000Y63815000D03*
X31270000Y63815000D03*
X28730000Y63815000D03*
X26190000Y63815000D03*
%TD*%
D13*
%TO.C,U2*%
X138000000Y42380000D03*
D12*
X138000000Y44920000D03*
X138000000Y47460000D03*
X138000000Y50000000D03*
X138000000Y52540000D03*
X138000000Y55080000D03*
X138000000Y57620000D03*
X138000000Y60160000D03*
X138000000Y62700000D03*
X138000000Y65240000D03*
X138000000Y67780000D03*
X138000000Y70320000D03*
X138000000Y72860000D03*
X138000000Y75400000D03*
X130380000Y75400000D03*
X130380000Y72860000D03*
X130380000Y70320000D03*
X130380000Y67780000D03*
X130380000Y65240000D03*
X130380000Y62700000D03*
X130380000Y60160000D03*
X130380000Y57620000D03*
X130380000Y55080000D03*
X130380000Y52540000D03*
X130380000Y50000000D03*
X130380000Y47460000D03*
X130380000Y44920000D03*
X130380000Y42380000D03*
%TD*%
D17*
%TO.C,J20*%
X101120000Y175630000D03*
D15*
X101120000Y173090000D03*
X101120000Y170550000D03*
X101120000Y168010000D03*
X101120000Y165470000D03*
X101120000Y162930000D03*
%TD*%
D12*
%TO.C,R32*%
X174189339Y41552500D03*
D11*
X174189339Y51712500D03*
%TD*%
D17*
%TO.C,J21*%
X142660000Y150380000D03*
D15*
X140120000Y150380000D03*
X137580000Y150380000D03*
X135040000Y150380000D03*
%TD*%
D16*
%TO.C,C17*%
X149880000Y65540000D03*
D12*
X152380000Y65540000D03*
%TD*%
%TO.C,R54*%
X18050000Y153080000D03*
X18050000Y142920000D03*
%TD*%
%TO.C,R4*%
X226500000Y51420000D03*
D11*
X226500000Y61580000D03*
%TD*%
D12*
%TO.C,R16*%
X124500000Y21920000D03*
D11*
X124500000Y32080000D03*
%TD*%
D12*
%TO.C,R56*%
X44130000Y159500000D03*
X33970000Y159500000D03*
%TD*%
%TO.C,R2*%
X136500000Y104920000D03*
D11*
X136500000Y115080000D03*
%TD*%
D17*
%TO.C,J23*%
X154770000Y132380000D03*
D15*
X157310000Y132380000D03*
X159850000Y132380000D03*
X162390000Y132380000D03*
X164930000Y132380000D03*
X167470000Y132380000D03*
%TD*%
%TO.C,Y2*%
X145880000Y59540000D03*
X145880000Y64540000D03*
%TD*%
D17*
%TO.C,J14*%
X124380000Y75700000D03*
D15*
X124380000Y73160000D03*
X124380000Y70620000D03*
X124380000Y68080000D03*
X124380000Y65540000D03*
%TD*%
D12*
%TO.C,R40*%
X176500000Y21500000D03*
X176500000Y11340000D03*
%TD*%
D17*
%TO.C,J5*%
X169000000Y68000000D03*
D15*
X169000000Y70540000D03*
X169000000Y73080000D03*
%TD*%
D16*
%TO.C,C3*%
X142500000Y160000000D03*
D12*
X142500000Y162500000D03*
%TD*%
%TO.C,R44*%
X74605000Y62100000D03*
X84765000Y62100000D03*
%TD*%
%TO.C,R35*%
X182320000Y150000000D03*
D11*
X172160000Y150000000D03*
%TD*%
D21*
%TO.C,U6*%
X130150000Y92575000D03*
D12*
X132690000Y92575000D03*
X135230000Y92575000D03*
X137770000Y92575000D03*
X140310000Y92575000D03*
X142850000Y92575000D03*
X145390000Y92575000D03*
X145390000Y100195000D03*
X142850000Y100195000D03*
X140310000Y100195000D03*
X137770000Y100195000D03*
X135230000Y100195000D03*
X132690000Y100195000D03*
X130150000Y100195000D03*
%TD*%
%TO.C,R34*%
X215000000Y126877500D03*
D11*
X215000000Y137037500D03*
%TD*%
D17*
%TO.C,J26*%
X70960000Y18000000D03*
D15*
X73500000Y18000000D03*
%TD*%
D12*
%TO.C,R36*%
X17550000Y182480000D03*
X17550000Y172320000D03*
%TD*%
%TO.C,R25*%
X21110000Y101310000D03*
D11*
X31270000Y101310000D03*
%TD*%
D17*
%TO.C,J7*%
X72500000Y173420000D03*
D15*
X72500000Y175960000D03*
X72500000Y178500000D03*
%TD*%
D16*
%TO.C,C1*%
X149500000Y160000000D03*
D12*
X149500000Y162500000D03*
%TD*%
D17*
%TO.C,J9*%
X132580000Y18080000D03*
D15*
X130040000Y18080000D03*
X127500000Y18080000D03*
X124960000Y18080000D03*
X122420000Y18080000D03*
%TD*%
D12*
%TO.C,R46*%
X99105000Y58600000D03*
X109265000Y58600000D03*
%TD*%
D16*
%TO.C,C18*%
X150380000Y58040000D03*
D12*
X152880000Y58040000D03*
%TD*%
D14*
%TO.C,C42*%
X214689339Y19212500D03*
X219689339Y19212500D03*
%TD*%
D12*
%TO.C,R31*%
X214189339Y60552500D03*
D11*
X214189339Y70712500D03*
%TD*%
D17*
%TO.C,J15*%
X143880000Y68500000D03*
D15*
X143880000Y71040000D03*
X143880000Y73580000D03*
X143880000Y76120000D03*
%TD*%
D12*
%TO.C,R11*%
X94765000Y21920000D03*
D11*
X94765000Y32080000D03*
%TD*%
D36*
%TO.C,J11*%
X196000000Y137080000D03*
D15*
X198540000Y137080000D03*
X196000000Y134540000D03*
X198540000Y134540000D03*
X196000000Y132000000D03*
X198540000Y132000000D03*
X196000000Y129460000D03*
X198540000Y129460000D03*
X196000000Y126920000D03*
X198540000Y126920000D03*
%TD*%
D12*
%TO.C,220uF1*%
X229500000Y132207500D03*
X229500000Y134707500D03*
%TD*%
%TO.C,R9*%
X115500000Y22420000D03*
D11*
X115500000Y32580000D03*
%TD*%
D32*
%TO.C,SW2*%
X84750000Y189500000D03*
D33*
X78250000Y189500000D03*
%TD*%
D12*
%TO.C,R12*%
X82500000Y21840000D03*
D11*
X82500000Y32000000D03*
%TD*%
D12*
%TO.C,R3*%
X168810000Y89090000D03*
D11*
X168810000Y78930000D03*
%TD*%
D12*
%TO.C,R14*%
X132500000Y21920000D03*
D11*
X132500000Y32080000D03*
%TD*%
D12*
%TO.C,R15*%
X128500000Y22000000D03*
D11*
X128500000Y32160000D03*
%TD*%
D12*
%TO.C,R43*%
X84765000Y55100000D03*
X74605000Y55100000D03*
%TD*%
%TO.C,R38*%
X44130000Y187400000D03*
X33970000Y187400000D03*
%TD*%
D15*
%TO.C,Y1*%
X144050000Y155500000D03*
X149050000Y155500000D03*
%TD*%
D17*
%TO.C,J22*%
X167700000Y150380000D03*
D15*
X165160000Y150380000D03*
X162620000Y150380000D03*
X160080000Y150380000D03*
X157540000Y150380000D03*
X155000000Y150380000D03*
%TD*%
D22*
%TO.C,D1*%
X208649339Y57212500D03*
D23*
X211189339Y57212500D03*
%TD*%
D12*
%TO.C,R45*%
X74605000Y65600000D03*
X84765000Y65600000D03*
%TD*%
D32*
%TO.C,SW3*%
X151670000Y40950000D03*
D33*
X158170000Y40950000D03*
%TD*%
D12*
%TO.C,R7*%
X112000000Y22420000D03*
D11*
X112000000Y32580000D03*
%TD*%
D34*
%TO.C,TPS75533KCG2*%
X30000000Y180500000D03*
D35*
X30000000Y182200000D03*
X30000000Y183900000D03*
X30000000Y185600000D03*
X30000000Y187300000D03*
%TD*%
D12*
%TO.C,47uF2*%
X21750000Y192800000D03*
X19250000Y192800000D03*
%TD*%
D32*
%TO.C,SW4*%
X182500000Y144250000D03*
D33*
X182500000Y137750000D03*
%TD*%
D12*
%TO.C,R28*%
X22050000Y153080000D03*
X22050000Y142920000D03*
%TD*%
D13*
%TO.C,D9*%
X34810000Y138200000D03*
D12*
X27190000Y138200000D03*
%TD*%
%TO.C,R24*%
X36650000Y94000000D03*
D11*
X46810000Y94000000D03*
%TD*%
D17*
%TO.C,J6*%
X151040000Y22500000D03*
D15*
X148500000Y22500000D03*
X145960000Y22500000D03*
%TD*%
D12*
%TO.C,R5*%
X226500000Y33420000D03*
D11*
X226500000Y43580000D03*
%TD*%
D12*
%TO.C,R8*%
X138260000Y37950000D03*
D11*
X148420000Y37950000D03*
%TD*%
D12*
%TO.C,R18*%
X109760000Y76950000D03*
D11*
X119920000Y76950000D03*
%TD*%
D12*
%TO.C,R30*%
X44000000Y132700000D03*
X33840000Y132700000D03*
%TD*%
D16*
%TO.C,J3*%
X220439339Y14000000D03*
D12*
X217939339Y14000000D03*
X217939339Y12000000D03*
X220439339Y12000000D03*
D37*
X225189339Y9140000D03*
X213189339Y9140000D03*
%TD*%
M02*
