G04 #@! TF.GenerationSoftware,KiCad,Pcbnew,9.0.1*
G04 #@! TF.CreationDate,2025-10-13T08:27:05-04:00*
G04 #@! TF.ProjectId,snake_pcb,736e616b-655f-4706-9362-2e6b69636164,rev?*
G04 #@! TF.SameCoordinates,Original*
G04 #@! TF.FileFunction,Soldermask,Bot*
G04 #@! TF.FilePolarity,Negative*
%FSLAX46Y46*%
G04 Gerber Fmt 4.6, Leading zero omitted, Abs format (unit mm)*
G04 Created by KiCad (PCBNEW 9.0.1) date 2025-10-13 08:27:05*
%MOMM*%
%LPD*%
G01*
G04 APERTURE LIST*
G04 Aperture macros list*
%AMRoundRect*
0 Rectangle with rounded corners*
0 $1 Rounding radius*
0 $2 $3 $4 $5 $6 $7 $8 $9 X,Y pos of 4 corners*
0 Add a 4 corners polygon primitive as box body*
4,1,4,$2,$3,$4,$5,$6,$7,$8,$9,$2,$3,0*
0 Add four circle primitives for the rounded corners*
1,1,$1+$1,$2,$3*
1,1,$1+$1,$4,$5*
1,1,$1+$1,$6,$7*
1,1,$1+$1,$8,$9*
0 Add four rect primitives between the rounded corners*
20,1,$1+$1,$2,$3,$4,$5,0*
20,1,$1+$1,$4,$5,$6,$7,0*
20,1,$1+$1,$6,$7,$8,$9,0*
20,1,$1+$1,$8,$9,$2,$3,0*%
G04 Aperture macros list end*
%ADD10C,2.100000*%
%ADD11C,1.600000*%
%ADD12O,1.600000X1.600000*%
%ADD13R,1.700000X1.700000*%
%ADD14C,1.700000*%
%ADD15RoundRect,0.250000X0.550000X-0.550000X0.550000X0.550000X-0.550000X0.550000X-0.550000X-0.550000X0*%
%ADD16R,1.800000X1.800000*%
%ADD17C,1.800000*%
%ADD18C,2.000000*%
%ADD19O,3.500000X2.200000*%
%ADD20R,2.500000X1.500000*%
%ADD21O,2.500000X1.500000*%
%ADD22RoundRect,0.250000X-0.550000X0.550000X-0.550000X-0.550000X0.550000X-0.550000X0.550000X0.550000X0*%
%ADD23RoundRect,0.250000X-0.550000X-0.550000X0.550000X-0.550000X0.550000X0.550000X-0.550000X0.550000X0*%
%ADD24RoundRect,0.250000X0.550000X0.550000X-0.550000X0.550000X-0.550000X-0.550000X0.550000X-0.550000X0*%
%ADD25R,2.000000X2.000000*%
%ADD26R,3.500000X3.500000*%
%ADD27RoundRect,0.750000X0.750000X1.000000X-0.750000X1.000000X-0.750000X-1.000000X0.750000X-1.000000X0*%
%ADD28RoundRect,0.875000X0.875000X0.875000X-0.875000X0.875000X-0.875000X-0.875000X0.875000X-0.875000X0*%
%ADD29R,2.250000X2.250000*%
%ADD30C,2.250000*%
%ADD31RoundRect,0.250000X-0.950000X-0.550000X0.950000X-0.550000X0.950000X0.550000X-0.950000X0.550000X0*%
%ADD32O,2.400000X1.600000*%
%ADD33R,1.800000X1.275000*%
%ADD34O,1.800000X1.275000*%
%ADD35R,1.600000X1.600000*%
%ADD36C,4.000000*%
%ADD37RoundRect,0.250000X-0.600000X-0.600000X0.600000X-0.600000X0.600000X0.600000X-0.600000X0.600000X0*%
G04 APERTURE END LIST*
D10*
X394000000Y-209500000D03*
D11*
X260595000Y-187050000D03*
D12*
X260595000Y-176890000D03*
D13*
X203500000Y-156430000D03*
D14*
X203500000Y-153890000D03*
X203500000Y-151350000D03*
X203500000Y-148810000D03*
D13*
X268300000Y-300525000D03*
D14*
X265760000Y-300525000D03*
X263220000Y-300525000D03*
X260680000Y-300525000D03*
D15*
X287920000Y-142120000D03*
D11*
X290460000Y-142120000D03*
X293000000Y-142120000D03*
X295540000Y-142120000D03*
X295540000Y-134500000D03*
X293000000Y-134500000D03*
X290460000Y-134500000D03*
X287920000Y-134500000D03*
D16*
X172500000Y-189300000D03*
D17*
X175040000Y-189300000D03*
D11*
X175000000Y-183800000D03*
X172500000Y-183800000D03*
D13*
X297380000Y-276040000D03*
D14*
X297380000Y-273500000D03*
X297380000Y-270960000D03*
X297380000Y-268420000D03*
X297380000Y-265880000D03*
X297380000Y-263340000D03*
D15*
X254070000Y-225925000D03*
D11*
X256610000Y-225925000D03*
X259150000Y-225925000D03*
X261690000Y-225925000D03*
X264230000Y-225925000D03*
X266770000Y-225925000D03*
X269310000Y-225925000D03*
X269310000Y-218305000D03*
X266770000Y-218305000D03*
X264230000Y-218305000D03*
X261690000Y-218305000D03*
X259150000Y-218305000D03*
X256610000Y-218305000D03*
X254070000Y-218305000D03*
D18*
X274500000Y-255500000D03*
X269500000Y-255500000D03*
D11*
X235255000Y-180390000D03*
D12*
X225095000Y-180390000D03*
D11*
X263340000Y-245550000D03*
D12*
X273500000Y-245550000D03*
D13*
X330250000Y-243475000D03*
D14*
X332790000Y-243475000D03*
D19*
X342000000Y-220900000D03*
X342000000Y-229100000D03*
D20*
X342000000Y-223000000D03*
D21*
X342000000Y-225000000D03*
X342000000Y-227000000D03*
D18*
X185050000Y-144600000D03*
X190050000Y-144600000D03*
D22*
X321280000Y-173500000D03*
D11*
X318740000Y-173500000D03*
X316200000Y-173500000D03*
X313660000Y-173500000D03*
X311120000Y-173500000D03*
X308580000Y-173500000D03*
X306040000Y-173500000D03*
X303500000Y-173500000D03*
X300960000Y-173500000D03*
X298420000Y-173500000D03*
X295880000Y-173500000D03*
X293340000Y-173500000D03*
X290800000Y-173500000D03*
X288260000Y-173500000D03*
X288260000Y-181120000D03*
X290800000Y-181120000D03*
X293340000Y-181120000D03*
X295880000Y-181120000D03*
X298420000Y-181120000D03*
X300960000Y-181120000D03*
X303500000Y-181120000D03*
X306040000Y-181120000D03*
X308580000Y-181120000D03*
X311120000Y-181120000D03*
X313660000Y-181120000D03*
X316200000Y-181120000D03*
X318740000Y-181120000D03*
X321280000Y-181120000D03*
D18*
X334000000Y-248500000D03*
X329000000Y-248500000D03*
D13*
X326460000Y-259000000D03*
D14*
X329000000Y-259000000D03*
D18*
X220000000Y-152500000D03*
X220000000Y-157500000D03*
D11*
X325810000Y-229250000D03*
D12*
X325810000Y-239410000D03*
D13*
X277880000Y-276040000D03*
D14*
X277880000Y-273500000D03*
X277880000Y-270960000D03*
X277880000Y-268420000D03*
X277880000Y-265880000D03*
X277880000Y-263340000D03*
D23*
X241695000Y-252110000D03*
D11*
X241695000Y-254650000D03*
X241695000Y-257190000D03*
X241695000Y-259730000D03*
X241695000Y-262270000D03*
X241695000Y-264810000D03*
X241695000Y-267350000D03*
X241695000Y-269890000D03*
X249315000Y-269890000D03*
X249315000Y-267350000D03*
X249315000Y-264810000D03*
X249315000Y-262270000D03*
X249315000Y-259730000D03*
X249315000Y-257190000D03*
X249315000Y-254650000D03*
X249315000Y-252110000D03*
D18*
X281000000Y-130000000D03*
X281000000Y-135000000D03*
X197500000Y-221000000D03*
X197500000Y-216000000D03*
D16*
X334229339Y-278287500D03*
D17*
X331689339Y-278287500D03*
D13*
X249225000Y-300500000D03*
D14*
X251765000Y-300500000D03*
D24*
X187860000Y-125600000D03*
D11*
X180240000Y-125600000D03*
D18*
X312000000Y-214000000D03*
X312000000Y-209000000D03*
D14*
X230120000Y-162070000D03*
X230120000Y-167070000D03*
D15*
X312150000Y-225610000D03*
D11*
X314690000Y-225610000D03*
X317230000Y-225610000D03*
X319770000Y-225610000D03*
X322310000Y-225610000D03*
X324850000Y-225610000D03*
X327390000Y-225610000D03*
X327390000Y-217990000D03*
X324850000Y-217990000D03*
X322310000Y-217990000D03*
X319770000Y-217990000D03*
X317230000Y-217990000D03*
X314690000Y-217990000D03*
X312150000Y-217990000D03*
D25*
X317200000Y-297000000D03*
D18*
X324800000Y-297000000D03*
X310000000Y-266500000D03*
X315000000Y-266500000D03*
D11*
X223500000Y-296660000D03*
D12*
X223500000Y-286500000D03*
D18*
X360889339Y-268187500D03*
X365889339Y-268187500D03*
D11*
X290620000Y-200200000D03*
D12*
X290620000Y-190040000D03*
D13*
X237960000Y-300500000D03*
D14*
X240500000Y-300500000D03*
D23*
X178190000Y-222190000D03*
D11*
X178190000Y-224730000D03*
X178190000Y-227270000D03*
X178190000Y-229810000D03*
X185810000Y-229810000D03*
X185810000Y-227270000D03*
X185810000Y-224730000D03*
X185810000Y-222190000D03*
X265190000Y-212280000D03*
D12*
X265190000Y-202120000D03*
D11*
X171000000Y-193720000D03*
X171000000Y-203880000D03*
D18*
X182550000Y-172000000D03*
X187550000Y-172000000D03*
X334000000Y-254000000D03*
X329000000Y-254000000D03*
D11*
X175000000Y-193500000D03*
X175000000Y-203660000D03*
D16*
X369460000Y-196542500D03*
D17*
X372000000Y-196542500D03*
D26*
X375500000Y-206000000D03*
D27*
X381500000Y-206000000D03*
D28*
X378500000Y-201300000D03*
D24*
X214305000Y-255810000D03*
D11*
X214305000Y-253270000D03*
X214305000Y-250730000D03*
X214305000Y-248190000D03*
X206685000Y-248190000D03*
X206685000Y-250730000D03*
X206685000Y-253270000D03*
X206685000Y-255810000D03*
D24*
X187360000Y-154000000D03*
D11*
X179740000Y-154000000D03*
D18*
X283750000Y-213730000D03*
X283750000Y-208730000D03*
X194525000Y-279310000D03*
X194525000Y-284310000D03*
D29*
X373500000Y-271250000D03*
D30*
X373500000Y-277750000D03*
D31*
X339074339Y-247777500D03*
D32*
X339074339Y-250317500D03*
X339074339Y-252857500D03*
X339074339Y-255397500D03*
X339074339Y-257937500D03*
X339074339Y-260477500D03*
X339074339Y-263017500D03*
X339074339Y-265557500D03*
X339074339Y-268097500D03*
X339074339Y-270637500D03*
X339074339Y-273177500D03*
X339074339Y-275717500D03*
X339074339Y-278257500D03*
X339074339Y-280797500D03*
X354314339Y-280797500D03*
X354314339Y-278257500D03*
X354314339Y-275717500D03*
X354314339Y-273177500D03*
X354314339Y-270637500D03*
X354314339Y-268097500D03*
X354314339Y-265557500D03*
X354314339Y-263017500D03*
X354314339Y-260477500D03*
X354314339Y-257937500D03*
X354314339Y-255397500D03*
X354314339Y-252857500D03*
X354314339Y-250317500D03*
X354314339Y-247777500D03*
D18*
X258500000Y-163500000D03*
X263500000Y-163500000D03*
D13*
X265500000Y-279540000D03*
D14*
X265500000Y-277000000D03*
D18*
X310000000Y-261000000D03*
X315000000Y-261000000D03*
D11*
X374750000Y-185542500D03*
X377250000Y-185542500D03*
D18*
X363189339Y-299287500D03*
X358189339Y-299287500D03*
D10*
X394000000Y-122500000D03*
D11*
X175800000Y-155500000D03*
X173300000Y-155500000D03*
D33*
X183000000Y-193400000D03*
D34*
X183000000Y-191700000D03*
X183000000Y-190000000D03*
X183000000Y-188300000D03*
X183000000Y-186600000D03*
D11*
X261660000Y-280000000D03*
X251500000Y-280000000D03*
D18*
X173425000Y-293180000D03*
X173425000Y-288180000D03*
D24*
X207500000Y-278620000D03*
D11*
X207500000Y-276080000D03*
X207500000Y-273540000D03*
X207500000Y-271000000D03*
X199880000Y-271000000D03*
X199880000Y-273540000D03*
X199880000Y-276080000D03*
X199880000Y-278620000D03*
X238185000Y-259900000D03*
X228025000Y-259900000D03*
D10*
X160000000Y-121500000D03*
D33*
X184000000Y-165900000D03*
D34*
X184000000Y-164200000D03*
X184000000Y-162500000D03*
X184000000Y-160800000D03*
X184000000Y-159100000D03*
D18*
X360789339Y-274287500D03*
X365789339Y-274287500D03*
X182000000Y-201500000D03*
X187000000Y-201500000D03*
D24*
X219620000Y-232080000D03*
D11*
X219620000Y-229540000D03*
X219620000Y-227000000D03*
X219620000Y-224460000D03*
X212000000Y-224460000D03*
X212000000Y-227000000D03*
X212000000Y-229540000D03*
X212000000Y-232080000D03*
D18*
X253000000Y-214395000D03*
X253000000Y-209395000D03*
D16*
X173280000Y-161500000D03*
D17*
X175820000Y-161500000D03*
D13*
X254620000Y-176150000D03*
D14*
X254620000Y-173610000D03*
X254620000Y-171070000D03*
X254620000Y-168530000D03*
X254620000Y-165990000D03*
D11*
X240255000Y-138890000D03*
D12*
X230095000Y-138890000D03*
D18*
X179500000Y-251000000D03*
X179500000Y-246000000D03*
D16*
X173280000Y-131600000D03*
D17*
X175820000Y-131600000D03*
D10*
X160000000Y-310500000D03*
D13*
X234620000Y-142910000D03*
D14*
X234620000Y-145450000D03*
X234620000Y-147990000D03*
X234620000Y-150530000D03*
X234620000Y-153070000D03*
X234620000Y-155610000D03*
D11*
X301340000Y-242550000D03*
D12*
X311500000Y-242550000D03*
D18*
X274500000Y-261000000D03*
X269500000Y-261000000D03*
D11*
X290000000Y-296500000D03*
D12*
X290000000Y-286340000D03*
D11*
X175550000Y-136020000D03*
X175550000Y-146180000D03*
D13*
X288080000Y-186120000D03*
D14*
X290620000Y-186120000D03*
X293160000Y-186120000D03*
X295700000Y-186120000D03*
X298240000Y-186120000D03*
D18*
X318000000Y-214000000D03*
X318000000Y-209000000D03*
D15*
X179690000Y-262305000D03*
D11*
X182230000Y-262305000D03*
X184770000Y-262305000D03*
X187310000Y-262305000D03*
X187310000Y-254685000D03*
X184770000Y-254685000D03*
X182230000Y-254685000D03*
X179690000Y-254685000D03*
D24*
X291500000Y-276120000D03*
D11*
X291500000Y-273580000D03*
X291500000Y-271040000D03*
X291500000Y-268500000D03*
X291500000Y-265960000D03*
X291500000Y-263420000D03*
X291500000Y-260880000D03*
X291500000Y-258340000D03*
X291500000Y-255800000D03*
X291500000Y-253260000D03*
X291500000Y-250720000D03*
X291500000Y-248180000D03*
X291500000Y-245640000D03*
X291500000Y-243100000D03*
X283880000Y-243100000D03*
X283880000Y-245640000D03*
X283880000Y-248180000D03*
X283880000Y-250720000D03*
X283880000Y-253260000D03*
X283880000Y-255800000D03*
X283880000Y-258340000D03*
X283880000Y-260880000D03*
X283880000Y-263420000D03*
X283880000Y-265960000D03*
X283880000Y-268500000D03*
X283880000Y-271040000D03*
X283880000Y-273580000D03*
X283880000Y-276120000D03*
D13*
X254620000Y-142870000D03*
D14*
X254620000Y-145410000D03*
X254620000Y-147950000D03*
X254620000Y-150490000D03*
X254620000Y-153030000D03*
X254620000Y-155570000D03*
D18*
X305500000Y-163000000D03*
X310500000Y-163000000D03*
D11*
X327689339Y-276947500D03*
D12*
X327689339Y-266787500D03*
D35*
X373939339Y-304500000D03*
D11*
X371439339Y-304500000D03*
X371439339Y-306500000D03*
X373939339Y-306500000D03*
D36*
X378689339Y-309360000D03*
X366689339Y-309360000D03*
D13*
X296160000Y-168120000D03*
D14*
X293620000Y-168120000D03*
X291080000Y-168120000D03*
X288540000Y-168120000D03*
D35*
X303380000Y-252960000D03*
D11*
X305880000Y-252960000D03*
X171550000Y-165420000D03*
X171550000Y-175580000D03*
X380000000Y-267080000D03*
D12*
X380000000Y-256920000D03*
D11*
X278000000Y-296580000D03*
D12*
X278000000Y-286420000D03*
D11*
X197630000Y-159000000D03*
X187470000Y-159000000D03*
X290000000Y-213580000D03*
D12*
X290000000Y-203420000D03*
D10*
X160000000Y-215500000D03*
D13*
X308270000Y-186120000D03*
D14*
X310810000Y-186120000D03*
X313350000Y-186120000D03*
X315890000Y-186120000D03*
X318430000Y-186120000D03*
X320970000Y-186120000D03*
X299380000Y-258960000D03*
X299380000Y-253960000D03*
D13*
X277880000Y-242800000D03*
D14*
X277880000Y-245340000D03*
X277880000Y-247880000D03*
X277880000Y-250420000D03*
X277880000Y-252960000D03*
D10*
X394000000Y-310500000D03*
D35*
X225620000Y-161570000D03*
D11*
X223120000Y-161570000D03*
X330000000Y-297000000D03*
X330000000Y-307160000D03*
D18*
X178980000Y-266500000D03*
X173980000Y-266500000D03*
D13*
X234620000Y-168260000D03*
D14*
X234620000Y-170800000D03*
X234620000Y-173340000D03*
X234620000Y-175880000D03*
D18*
X258500000Y-158000000D03*
X263500000Y-158000000D03*
X229500000Y-155500000D03*
X224500000Y-155500000D03*
D13*
X322500000Y-250500000D03*
D14*
X322500000Y-247960000D03*
X322500000Y-245420000D03*
D11*
X237935000Y-181890000D03*
D12*
X248095000Y-181890000D03*
D35*
X296000000Y-158500000D03*
D11*
X296000000Y-156000000D03*
X228105000Y-256400000D03*
X238265000Y-256400000D03*
D13*
X210000000Y-150040000D03*
D14*
X210000000Y-147500000D03*
D11*
X335820000Y-168500000D03*
D12*
X325660000Y-168500000D03*
D15*
X283650000Y-225925000D03*
D11*
X286190000Y-225925000D03*
X288730000Y-225925000D03*
X291270000Y-225925000D03*
X293810000Y-225925000D03*
X296350000Y-225925000D03*
X298890000Y-225925000D03*
X298890000Y-218305000D03*
X296350000Y-218305000D03*
X293810000Y-218305000D03*
X291270000Y-218305000D03*
X288730000Y-218305000D03*
X286190000Y-218305000D03*
X283650000Y-218305000D03*
X368500000Y-191622500D03*
D12*
X368500000Y-181462500D03*
D13*
X224460000Y-300500000D03*
D14*
X227000000Y-300500000D03*
D11*
X171050000Y-136020000D03*
X171050000Y-146180000D03*
X174610000Y-217190000D03*
D12*
X184770000Y-217190000D03*
D13*
X226000000Y-145080000D03*
D14*
X226000000Y-142540000D03*
X226000000Y-140000000D03*
D35*
X303000000Y-158500000D03*
D11*
X303000000Y-156000000D03*
D13*
X286080000Y-300420000D03*
D14*
X283540000Y-300420000D03*
X281000000Y-300420000D03*
X278460000Y-300420000D03*
X275920000Y-300420000D03*
D11*
X252605000Y-259900000D03*
X262765000Y-259900000D03*
D18*
X294500000Y-147500000D03*
X299500000Y-147500000D03*
X278000000Y-213500000D03*
X278000000Y-208500000D03*
D35*
X303880000Y-260460000D03*
D11*
X306380000Y-260460000D03*
D18*
X368189339Y-299287500D03*
X373189339Y-299287500D03*
X190500000Y-221190000D03*
X190500000Y-216190000D03*
X216935000Y-258540000D03*
X216935000Y-263540000D03*
D11*
X367689339Y-257947500D03*
D12*
X367689339Y-247787500D03*
D13*
X297380000Y-250000000D03*
D14*
X297380000Y-247460000D03*
X297380000Y-244920000D03*
X297380000Y-242380000D03*
D11*
X196185000Y-275810000D03*
D12*
X186025000Y-275810000D03*
D11*
X248265000Y-296580000D03*
D12*
X248265000Y-286420000D03*
D37*
X349500000Y-181420000D03*
D14*
X352040000Y-181420000D03*
X349500000Y-183960000D03*
X352040000Y-183960000D03*
X349500000Y-186500000D03*
X352040000Y-186500000D03*
X349500000Y-189040000D03*
X352040000Y-189040000D03*
X349500000Y-191580000D03*
X352040000Y-191580000D03*
D18*
X301500000Y-190500000D03*
X301500000Y-195500000D03*
D11*
X383000000Y-186292500D03*
X383000000Y-183792500D03*
X269000000Y-296080000D03*
D12*
X269000000Y-285920000D03*
D18*
X246000000Y-214500000D03*
X246000000Y-209500000D03*
D29*
X238250000Y-129000000D03*
D30*
X231750000Y-129000000D03*
D11*
X236000000Y-296660000D03*
D12*
X236000000Y-286500000D03*
D11*
X322310000Y-229410000D03*
D12*
X322310000Y-239570000D03*
D11*
X286000000Y-296580000D03*
D12*
X286000000Y-286420000D03*
D18*
X213025000Y-278810000D03*
X213025000Y-283810000D03*
D35*
X225620000Y-168570000D03*
D11*
X223120000Y-168570000D03*
X282000000Y-296500000D03*
D12*
X282000000Y-286340000D03*
D18*
X307000000Y-190500000D03*
X307000000Y-195500000D03*
D11*
X238265000Y-263400000D03*
X228105000Y-263400000D03*
X197630000Y-131100000D03*
X187470000Y-131100000D03*
D18*
X381000000Y-195542500D03*
X376000000Y-195542500D03*
X275000000Y-130000000D03*
X275000000Y-135000000D03*
D14*
X297550000Y-163000000D03*
X302550000Y-163000000D03*
D13*
X321200000Y-168120000D03*
D14*
X318660000Y-168120000D03*
X316120000Y-168120000D03*
X313580000Y-168120000D03*
X311040000Y-168120000D03*
X308500000Y-168120000D03*
D23*
X240500000Y-142990000D03*
D11*
X240500000Y-145530000D03*
X240500000Y-148070000D03*
X240500000Y-150610000D03*
X240500000Y-153150000D03*
X240500000Y-155690000D03*
X240500000Y-158230000D03*
X240500000Y-160770000D03*
X240500000Y-163310000D03*
X240500000Y-165850000D03*
X240500000Y-168390000D03*
X240500000Y-170930000D03*
X240500000Y-173470000D03*
X240500000Y-176010000D03*
X248120000Y-176010000D03*
X248120000Y-173470000D03*
X248120000Y-170930000D03*
X248120000Y-168390000D03*
X248120000Y-165850000D03*
X248120000Y-163310000D03*
X248120000Y-160770000D03*
X248120000Y-158230000D03*
X248120000Y-155690000D03*
X248120000Y-153150000D03*
X248120000Y-150610000D03*
X248120000Y-148070000D03*
X248120000Y-145530000D03*
X248120000Y-142990000D03*
D18*
X203915000Y-256970000D03*
X198915000Y-256970000D03*
D16*
X362149339Y-261287500D03*
D17*
X364689339Y-261287500D03*
D11*
X228105000Y-252900000D03*
X238265000Y-252900000D03*
D29*
X305170000Y-277550000D03*
D30*
X311670000Y-277550000D03*
D11*
X265500000Y-296080000D03*
D12*
X265500000Y-285920000D03*
D33*
X183500000Y-138000000D03*
D34*
X183500000Y-136300000D03*
X183500000Y-134600000D03*
X183500000Y-132900000D03*
X183500000Y-131200000D03*
D11*
X175250000Y-125700000D03*
X172750000Y-125700000D03*
D29*
X336000000Y-174250000D03*
D30*
X336000000Y-180750000D03*
D11*
X175550000Y-165420000D03*
X175550000Y-175580000D03*
D24*
X188310000Y-180300000D03*
D11*
X180690000Y-180300000D03*
X190150000Y-224500000D03*
D12*
X200310000Y-224500000D03*
D13*
X304540000Y-296000000D03*
D14*
X302000000Y-296000000D03*
X299460000Y-296000000D03*
D11*
X380000000Y-285080000D03*
D12*
X380000000Y-274920000D03*
D18*
X222330000Y-234450000D03*
X227330000Y-234450000D03*
D11*
X291760000Y-280550000D03*
D12*
X301920000Y-280550000D03*
D11*
X263260000Y-241550000D03*
D12*
X273420000Y-241550000D03*
D11*
X197500000Y-185800000D03*
X187340000Y-185800000D03*
D18*
X207500000Y-234000000D03*
X207500000Y-239000000D03*
X184115000Y-286470000D03*
X179115000Y-286470000D03*
M02*
