%TF.GenerationSoftware,KiCad,Pcbnew,9.0.4*%
%TF.CreationDate,2025-10-10T02:09:37-04:00*%
%TF.ProjectId,snake_pcb,736e616b-655f-4706-9362-2e6b69636164,rev?*%
%TF.SameCoordinates,Original*%
%TF.FileFunction,Copper,L2,Inr*%
%TF.FilePolarity,Positive*%
%FSLAX46Y46*%
G04 Gerber Fmt 4.6, Leading zero omitted, Abs format (unit mm)*
G04 Created by KiCad (PCBNEW 9.0.4) date 2025-10-10 02:09:37*
%MOMM*%
%LPD*%
G01*
G04 APERTURE LIST*
G04 Aperture macros list*
%AMRoundRect*
0 Rectangle with rounded corners*
0 $1 Rounding radius*
0 $2 $3 $4 $5 $6 $7 $8 $9 X,Y pos of 4 corners*
0 Add a 4 corners polygon primitive as box body*
4,1,4,$2,$3,$4,$5,$6,$7,$8,$9,$2,$3,0*
0 Add four circle primitives for the rounded corners*
1,1,$1+$1,$2,$3*
1,1,$1+$1,$4,$5*
1,1,$1+$1,$6,$7*
1,1,$1+$1,$8,$9*
0 Add four rect primitives between the rounded corners*
20,1,$1+$1,$2,$3,$4,$5,0*
20,1,$1+$1,$4,$5,$6,$7,0*
20,1,$1+$1,$6,$7,$8,$9,0*
20,1,$1+$1,$8,$9,$2,$3,0*%
G04 Aperture macros list end*
%TA.AperFunction,ComponentPad*%
%ADD10R,1.700000X1.700000*%
%TD*%
%TA.AperFunction,ComponentPad*%
%ADD11C,1.700000*%
%TD*%
%TA.AperFunction,ComponentPad*%
%ADD12C,1.600000*%
%TD*%
%TA.AperFunction,ComponentPad*%
%ADD13O,1.600000X1.600000*%
%TD*%
%TA.AperFunction,ComponentPad*%
%ADD14RoundRect,0.250000X-0.550000X-0.550000X0.550000X-0.550000X0.550000X0.550000X-0.550000X0.550000X0*%
%TD*%
%TA.AperFunction,ComponentPad*%
%ADD15R,1.800000X1.800000*%
%TD*%
%TA.AperFunction,ComponentPad*%
%ADD16C,1.800000*%
%TD*%
%TA.AperFunction,ComponentPad*%
%ADD17O,2.200000X3.500000*%
%TD*%
%TA.AperFunction,ComponentPad*%
%ADD18R,1.500000X2.500000*%
%TD*%
%TA.AperFunction,ComponentPad*%
%ADD19O,1.500000X2.500000*%
%TD*%
%TA.AperFunction,ComponentPad*%
%ADD20RoundRect,0.250000X0.550000X-0.550000X0.550000X0.550000X-0.550000X0.550000X-0.550000X-0.550000X0*%
%TD*%
%TA.AperFunction,ComponentPad*%
%ADD21R,2.000000X2.000000*%
%TD*%
%TA.AperFunction,ComponentPad*%
%ADD22C,2.000000*%
%TD*%
%TA.AperFunction,ComponentPad*%
%ADD23R,3.500000X3.500000*%
%TD*%
%TA.AperFunction,ComponentPad*%
%ADD24RoundRect,0.750000X0.750000X1.000000X-0.750000X1.000000X-0.750000X-1.000000X0.750000X-1.000000X0*%
%TD*%
%TA.AperFunction,ComponentPad*%
%ADD25RoundRect,0.875000X0.875000X0.875000X-0.875000X0.875000X-0.875000X-0.875000X0.875000X-0.875000X0*%
%TD*%
%TA.AperFunction,ComponentPad*%
%ADD26R,2.250000X2.250000*%
%TD*%
%TA.AperFunction,ComponentPad*%
%ADD27C,2.250000*%
%TD*%
%TA.AperFunction,ComponentPad*%
%ADD28RoundRect,0.250000X-0.950000X-0.550000X0.950000X-0.550000X0.950000X0.550000X-0.950000X0.550000X0*%
%TD*%
%TA.AperFunction,ComponentPad*%
%ADD29O,2.400000X1.600000*%
%TD*%
%TA.AperFunction,ComponentPad*%
%ADD30R,1.275000X1.800000*%
%TD*%
%TA.AperFunction,ComponentPad*%
%ADD31O,1.275000X1.800000*%
%TD*%
%TA.AperFunction,ComponentPad*%
%ADD32RoundRect,0.250000X0.550000X0.550000X-0.550000X0.550000X-0.550000X-0.550000X0.550000X-0.550000X0*%
%TD*%
%TA.AperFunction,ComponentPad*%
%ADD33R,1.600000X1.600000*%
%TD*%
%TA.AperFunction,ComponentPad*%
%ADD34C,4.000000*%
%TD*%
%TA.AperFunction,ComponentPad*%
%ADD35RoundRect,0.250000X-0.600000X0.600000X-0.600000X-0.600000X0.600000X-0.600000X0.600000X0.600000X0*%
%TD*%
%TA.AperFunction,ViaPad*%
%ADD36C,1.000000*%
%TD*%
%TA.AperFunction,ViaPad*%
%ADD37C,1.500000*%
%TD*%
%TA.AperFunction,Conductor*%
%ADD38C,0.500000*%
%TD*%
G04 APERTURE END LIST*
D10*
%TO.N,GND*%
%TO.C,J29*%
X288000000Y-150620000D03*
D11*
%TO.N,Net-(J12-Pin_1)*%
X288000000Y-148080000D03*
%TO.N,/grid/USART_CLK*%
X288000000Y-145540000D03*
%TO.N,VCC_LED_GRID*%
X288000000Y-143000000D03*
%TD*%
%TO.N,/programmer/PC5*%
%TO.C,J23*%
X219915000Y-197170000D03*
%TO.N,/converter/RTS_CONV*%
X219915000Y-199710000D03*
%TO.N,/converter/CTS_CONV*%
X219915000Y-202250000D03*
%TO.N,/programmer/EXT_SIGNAL*%
X219915000Y-204790000D03*
%TO.N,/programmer/GAME_SIGNAL*%
X219915000Y-207330000D03*
D10*
%TO.N,/programmer/GRID_SIGNAL*%
X219915000Y-209870000D03*
%TD*%
D12*
%TO.N,VCC*%
%TO.C,R21*%
X235295000Y-118320000D03*
D13*
%TO.N,/grid/PB2*%
X235295000Y-128480000D03*
%TD*%
D10*
%TO.N,/game/SCL_GAME*%
%TO.C,J10*%
X126770000Y-174540000D03*
D11*
%TO.N,/game/SDA_GAME*%
X126770000Y-172000000D03*
%TO.N,VCC*%
X126770000Y-169460000D03*
%TO.N,GND*%
X126770000Y-166920000D03*
%TD*%
D14*
%TO.N,/grid/SRAM_CS*%
%TO.C,23A1024/23LC1*%
X280905000Y-123490000D03*
D12*
%TO.N,/grid/MISO_GRID*%
X280905000Y-126030000D03*
%TO.N,Net-(23A1024/23LC1-SIO2)*%
X280905000Y-128570000D03*
%TO.N,GND*%
X280905000Y-131110000D03*
%TO.N,/grid/MOSI_GRID*%
X288525000Y-131110000D03*
%TO.N,/grid/SCK_GRID*%
X288525000Y-128570000D03*
%TO.N,/grid/SRAM_HOLD*%
X288525000Y-126030000D03*
%TO.N,VCC*%
X288525000Y-123490000D03*
%TD*%
D15*
%TO.N,Net-(D5-K)*%
%TO.C,D5*%
X278000000Y-85000000D03*
D16*
%TO.N,Net-(D5-A)*%
X278000000Y-87540000D03*
%TD*%
D12*
%TO.N,Net-(D5-A)*%
%TO.C,47uF3*%
X283500000Y-87500000D03*
%TO.N,GND*%
X283500000Y-85000000D03*
%TD*%
D10*
%TO.N,/game/RESET_GAME*%
%TO.C,J17*%
X155755000Y-155470000D03*
D11*
%TO.N,/game/RXD_GAME*%
X155755000Y-152930000D03*
%TO.N,/game/TXD_GAME*%
X155755000Y-150390000D03*
%TO.N,/game/J_UP*%
X155755000Y-147850000D03*
%TO.N,/game/J_DOWN*%
X155755000Y-145310000D03*
%TO.N,/game/J_LEFT*%
X155755000Y-142770000D03*
%TD*%
D14*
%TO.N,/programmer/MOSI*%
%TO.C,U4*%
X169490000Y-213860000D03*
D12*
%TO.N,/grid/MOSI_GRID*%
X169490000Y-216400000D03*
%TO.N,/game/MOSI_GAME*%
X169490000Y-218940000D03*
%TO.N,/programmer/MOSI*%
X169490000Y-221480000D03*
%TO.N,/programmer/GAME_SIGNAL*%
X169490000Y-224020000D03*
%TO.N,/programmer/EXT_SIGNAL*%
X169490000Y-226560000D03*
%TO.N,GND*%
X169490000Y-229100000D03*
%TO.N,/programmer/MOSI*%
X177110000Y-229100000D03*
%TO.N,/programmer/MOSI_EXT*%
X177110000Y-226560000D03*
%TO.N,unconnected-(U4-Pad10)*%
X177110000Y-224020000D03*
%TO.N,unconnected-(U4-Pad11)*%
X177110000Y-221480000D03*
%TO.N,unconnected-(U4-Pad12)*%
X177110000Y-218940000D03*
%TO.N,/programmer/GRID_SIGNAL*%
X177110000Y-216400000D03*
%TO.N,VCC*%
X177110000Y-213860000D03*
%TD*%
%TO.N,/grid/SRAM_HOLD*%
%TO.C,R19*%
X260635000Y-124980000D03*
D13*
%TO.N,VCC*%
X270795000Y-124980000D03*
%TD*%
D12*
%TO.N,VCC*%
%TO.C,R1*%
X121715000Y-124980000D03*
D13*
%TO.N,/game/PB2*%
X131875000Y-124980000D03*
%TD*%
D10*
%TO.N,/programmer/RXD*%
%TO.C,J1*%
X238295000Y-176980000D03*
D11*
%TO.N,/converter/TXD_CONV*%
X240835000Y-176980000D03*
%TD*%
D17*
%TO.N,*%
%TO.C,SW1*%
X270395000Y-230480000D03*
X262195000Y-230480000D03*
D18*
%TO.N,GND*%
X268295000Y-230480000D03*
D19*
%TO.N,/programmer/EXT_SIGNAL*%
X266295000Y-230480000D03*
%TO.N,VCC*%
X264295000Y-230480000D03*
%TD*%
D14*
%TO.N,/programmer/RESET_PROG*%
%TO.C,U3*%
X207295000Y-196860000D03*
D12*
%TO.N,/programmer/RXD*%
X207295000Y-199400000D03*
%TO.N,/programmer/TXD*%
X207295000Y-201940000D03*
%TO.N,/grid/RESET_GRID*%
X207295000Y-204480000D03*
%TO.N,/game/RESET_GAME*%
X207295000Y-207020000D03*
%TO.N,/converter/CLOCK*%
X207295000Y-209560000D03*
%TO.N,VCC*%
X207295000Y-212100000D03*
%TO.N,GND*%
X207295000Y-214640000D03*
%TO.N,Net-(U3-PB6{slash}XTAL1)*%
X207295000Y-217180000D03*
%TO.N,Net-(U3-PB7{slash}XTAL2)*%
X207295000Y-219720000D03*
%TO.N,/grid/SRAM_CS*%
X207295000Y-222260000D03*
%TO.N,/converter/WAKE_UP*%
X207295000Y-224800000D03*
%TO.N,/game/FLASH_CS*%
X207295000Y-227340000D03*
%TO.N,/programmer/PB0*%
X207295000Y-229880000D03*
%TO.N,/programmer/PB1*%
X214915000Y-229880000D03*
%TO.N,/programmer/PB2*%
X214915000Y-227340000D03*
%TO.N,/programmer/MOSI*%
X214915000Y-224800000D03*
%TO.N,/programmer/MISO*%
X214915000Y-222260000D03*
%TO.N,/programmer/SCK*%
X214915000Y-219720000D03*
%TO.N,VCC*%
X214915000Y-217180000D03*
X214915000Y-214640000D03*
%TO.N,GND*%
X214915000Y-212100000D03*
%TO.N,/programmer/GRID_SIGNAL*%
X214915000Y-209560000D03*
%TO.N,/programmer/GAME_SIGNAL*%
X214915000Y-207020000D03*
%TO.N,/programmer/EXT_SIGNAL*%
X214915000Y-204480000D03*
%TO.N,/converter/CTS_CONV*%
X214915000Y-201940000D03*
%TO.N,/converter/RTS_CONV*%
X214915000Y-199400000D03*
%TO.N,/programmer/PC5*%
X214915000Y-196860000D03*
%TD*%
D10*
%TO.N,/programmer/TXD*%
%TO.C,J25*%
X241295000Y-192980000D03*
D11*
%TO.N,/converter/RXD_CONV*%
X241295000Y-190440000D03*
%TD*%
D12*
%TO.N,/programmer/EXT_SIGNAL*%
%TO.C,R6*%
X161455000Y-179480000D03*
D13*
%TO.N,GND*%
X151295000Y-179480000D03*
%TD*%
D10*
%TO.N,/game/SCL_GAME*%
%TO.C,J19*%
X136255000Y-155470000D03*
D11*
%TO.N,/game/SDA_GAME*%
X136255000Y-152930000D03*
%TO.N,/game/VIBRATOR*%
X136255000Y-150390000D03*
%TO.N,/game/J_RIGHT*%
X136255000Y-147850000D03*
%TO.N,/game/FLASH_WP*%
X136255000Y-145310000D03*
%TO.N,/game/B_SELECT*%
X136255000Y-142770000D03*
%TD*%
D14*
%TO.N,GND*%
%TO.C,U10*%
X148010000Y-85710000D03*
D12*
%TO.N,Net-(U10-A1)*%
X148010000Y-88250000D03*
%TO.N,Net-(U10-A2)*%
X148010000Y-90790000D03*
%TO.N,/game/DIR_MCU_T_FLASH*%
X148010000Y-93330000D03*
%TO.N,/game/DIR_FLASH_T_MCU*%
X148010000Y-95870000D03*
%TO.N,unconnected-(U10-P2-Pad6)*%
X148010000Y-98410000D03*
%TO.N,unconnected-(U10-P3-Pad7)*%
X148010000Y-100950000D03*
%TO.N,GND*%
X148010000Y-103490000D03*
%TO.N,unconnected-(U10-P4-Pad9)*%
X155630000Y-103490000D03*
%TO.N,unconnected-(U10-P5-Pad10)*%
X155630000Y-100950000D03*
%TO.N,unconnected-(U10-P6-Pad11)*%
X155630000Y-98410000D03*
%TO.N,unconnected-(U10-P7-Pad12)*%
X155630000Y-95870000D03*
%TO.N,Net-(U10-~{INT})*%
X155630000Y-93330000D03*
%TO.N,/game/SCL_GAME*%
X155630000Y-90790000D03*
%TO.N,/game/SDA_GAME*%
X155630000Y-88250000D03*
%TO.N,VCC*%
X155630000Y-85710000D03*
%TD*%
D15*
%TO.N,Net-(D2-K)*%
%TO.C,D2*%
X241835000Y-207980000D03*
D16*
%TO.N,Net-(D2-A)*%
X239295000Y-207980000D03*
%TD*%
D10*
%TO.N,/game/B_SELECT*%
%TO.C,J28*%
X126795000Y-208500000D03*
D11*
%TO.N,GND*%
X126795000Y-211040000D03*
%TD*%
D20*
%TO.N,VCC_LED_GRID*%
%TO.C,D8*%
X255100000Y-102860000D03*
D12*
%TO.N,Net-(D4-A)*%
X255100000Y-95240000D03*
%TD*%
D11*
%TO.N,Net-(U1-XTAL1{slash}PB6)*%
%TO.C,Y3*%
X265770000Y-143300000D03*
%TO.N,Net-(U1-XTAL2{slash}PB7)*%
X265770000Y-138300000D03*
%TD*%
D14*
%TO.N,/programmer/SCK*%
%TO.C,U7*%
X168490000Y-165860000D03*
D12*
%TO.N,/grid/SCK_GRID*%
X168490000Y-168400000D03*
%TO.N,/game/SCK_GAME*%
X168490000Y-170940000D03*
%TO.N,/programmer/SCK*%
X168490000Y-173480000D03*
%TO.N,/programmer/GAME_SIGNAL*%
X168490000Y-176020000D03*
%TO.N,/programmer/EXT_SIGNAL*%
X168490000Y-178560000D03*
%TO.N,GND*%
X168490000Y-181100000D03*
%TO.N,/programmer/SCK*%
X176110000Y-181100000D03*
%TO.N,/programmer/SCK_EXT*%
X176110000Y-178560000D03*
%TO.N,unconnected-(U7-Pad10)*%
X176110000Y-176020000D03*
%TO.N,unconnected-(U7-Pad11)*%
X176110000Y-173480000D03*
%TO.N,unconnected-(U7-Pad12)*%
X176110000Y-170940000D03*
%TO.N,/programmer/GRID_SIGNAL*%
X176110000Y-168400000D03*
%TO.N,VCC*%
X176110000Y-165860000D03*
%TD*%
D21*
%TO.N,/game/BUZZER_PWM*%
%TO.C,BZ1*%
X127600000Y-101500000D03*
D22*
%TO.N,Net-(BZ1--)*%
X120000000Y-101500000D03*
%TD*%
D12*
%TO.N,/game/B_START*%
%TO.C,R13*%
X130840000Y-183040000D03*
D13*
%TO.N,VCC*%
X141000000Y-183040000D03*
%TD*%
D12*
%TO.N,VCC*%
%TO.C,R22*%
X233995000Y-227520000D03*
D13*
%TO.N,/programmer/PB2*%
X223835000Y-227520000D03*
%TD*%
D10*
%TO.N,/game/B_STOP*%
%TO.C,J27*%
X126795000Y-195940000D03*
D11*
%TO.N,GND*%
X126795000Y-198480000D03*
%TD*%
D14*
%TO.N,/game/CS*%
%TO.C,U8*%
X210295000Y-120480000D03*
D12*
%TO.N,/game/MISO*%
X210295000Y-123020000D03*
%TO.N,/game/WP*%
X210295000Y-125560000D03*
%TO.N,GND*%
X210295000Y-128100000D03*
%TO.N,/game/MOSI*%
X217915000Y-128100000D03*
%TO.N,/game/SCK*%
X217915000Y-125560000D03*
%TO.N,/game/HOLD*%
X217915000Y-123020000D03*
%TO.N,VCC*%
X217915000Y-120480000D03*
%TD*%
%TO.N,VCC*%
%TO.C,R33*%
X183135000Y-224980000D03*
D13*
%TO.N,/converter/WAKE_UP*%
X193295000Y-224980000D03*
%TD*%
D12*
%TO.N,Net-(D5-K)*%
%TO.C,R39*%
X273580000Y-83500000D03*
%TO.N,GND*%
X263420000Y-83500000D03*
%TD*%
%TO.N,VCC*%
%TO.C,R37*%
X273580000Y-87500000D03*
%TO.N,REG_EN_LOW*%
X263420000Y-87500000D03*
%TD*%
D15*
%TO.N,Net-(D3-K)*%
%TO.C,D3*%
X284255000Y-181980000D03*
D16*
%TO.N,VCC*%
X286795000Y-181980000D03*
%TD*%
D23*
%TO.N,VCC*%
%TO.C,J4*%
X290295000Y-191437500D03*
D24*
%TO.N,GND*%
X296295000Y-191437500D03*
D25*
X293295000Y-186737500D03*
%TD*%
D14*
%TO.N,Net-(MISO_SHIFTER1-VCCA)*%
%TO.C,MISO_SHIFTER1*%
X210490000Y-154670000D03*
D12*
%TO.N,/game/MISO_GAME*%
X210490000Y-157210000D03*
%TO.N,unconnected-(MISO_SHIFTER1-A3-Pad3)*%
X210490000Y-159750000D03*
%TO.N,GND*%
X210490000Y-162290000D03*
%TO.N,/game/DIR_FLASH_T_MCU*%
X218110000Y-162290000D03*
%TO.N,unconnected-(MISO_SHIFTER1-B2-Pad6)*%
X218110000Y-159750000D03*
%TO.N,/game/MISO*%
X218110000Y-157210000D03*
%TO.N,3.3V*%
X218110000Y-154670000D03*
%TD*%
D20*
%TO.N,VCC_LED_GRID*%
%TO.C,D6*%
X222000000Y-99310000D03*
D12*
%TO.N,Net-(D6-A)*%
X222000000Y-91690000D03*
%TD*%
D26*
%TO.N,Net-(U5-~{RESET})*%
%TO.C,SW5*%
X279545000Y-201480000D03*
D27*
%TO.N,GND*%
X286045000Y-201480000D03*
%TD*%
D28*
%TO.N,/converter/TXD_CONV*%
%TO.C,U5*%
X246680000Y-177470000D03*
D29*
%TO.N,unconnected-(U5-DTR-Pad2)*%
X246680000Y-180010000D03*
%TO.N,/converter/RTS_CONV*%
X246680000Y-182550000D03*
%TO.N,VCC*%
X246680000Y-185090000D03*
%TO.N,/converter/RXD_CONV*%
X246680000Y-187630000D03*
%TO.N,unconnected-(U5-RI-Pad6)*%
X246680000Y-190170000D03*
%TO.N,GND*%
X246680000Y-192710000D03*
%TO.N,N/C*%
X246680000Y-195250000D03*
%TO.N,unconnected-(U5-DCR-Pad9)*%
X246680000Y-197790000D03*
%TO.N,unconnected-(U5-DCD-Pad10)*%
X246680000Y-200330000D03*
%TO.N,/converter/CTS_CONV*%
X246680000Y-202870000D03*
%TO.N,unconnected-(U5-CBUS4-Pad12)*%
X246680000Y-205410000D03*
%TO.N,Net-(D2-K)*%
X246680000Y-207950000D03*
%TO.N,/converter/WAKE_UP*%
X246680000Y-210490000D03*
%TO.N,/converter/D+*%
X261920000Y-210490000D03*
%TO.N,/converter/D-*%
X261920000Y-207950000D03*
%TO.N,Net-(U5-3V3OUT)*%
X261920000Y-205410000D03*
%TO.N,GND*%
X261920000Y-202870000D03*
%TO.N,Net-(U5-~{RESET})*%
X261920000Y-200330000D03*
%TO.N,VCC*%
X261920000Y-197790000D03*
%TO.N,GND*%
X261920000Y-195250000D03*
%TO.N,Net-(D1-K)*%
X261920000Y-192710000D03*
%TO.N,/converter/CLOCK*%
X261920000Y-190170000D03*
%TO.N,N/C*%
X261920000Y-187630000D03*
%TO.N,GND*%
X261920000Y-185090000D03*
X261920000Y-182550000D03*
%TO.N,unconnected-(U5-OSCI-Pad27)*%
X261920000Y-180010000D03*
%TO.N,unconnected-(U5-OSCO-Pad28)*%
X261920000Y-177470000D03*
%TD*%
D10*
%TO.N,Net-(J8-Pin_1)*%
%TO.C,J8*%
X117000000Y-133500000D03*
D11*
%TO.N,/game/VIBRATOR*%
X117000000Y-136040000D03*
%TD*%
D12*
%TO.N,VCC*%
%TO.C,4.7uF1*%
X289545000Y-170980000D03*
%TO.N,GND*%
X292045000Y-170980000D03*
%TD*%
D22*
%TO.N,/converter/D+*%
%TO.C,C43*%
X263295000Y-214480000D03*
%TO.N,GND*%
X263295000Y-219480000D03*
%TD*%
D12*
%TO.N,Net-(D6-A)*%
%TO.C,47uF1*%
X220500000Y-87750000D03*
%TO.N,GND*%
X220500000Y-85250000D03*
%TD*%
D30*
%TO.N,REG_EN_LOW*%
%TO.C,TPS75533KCG3*%
X273900000Y-95500000D03*
D31*
%TO.N,VCC*%
X275600000Y-95500000D03*
%TO.N,GND*%
X277300000Y-95500000D03*
%TO.N,Net-(D5-A)*%
X279000000Y-95500000D03*
%TO.N,PG*%
X280700000Y-95500000D03*
%TD*%
D12*
%TO.N,Net-(J8-Pin_1)*%
%TO.C,R41*%
X117000000Y-128580000D03*
%TO.N,GND*%
X117000000Y-118420000D03*
%TD*%
D14*
%TO.N,Net-(WP_SHIFTER1-VCCA)*%
%TO.C,WP_SHIFTER1*%
X185820000Y-142170000D03*
D12*
%TO.N,/game/FLASH_WP*%
X185820000Y-144710000D03*
%TO.N,unconnected-(WP_SHIFTER1-A3-Pad3)*%
X185820000Y-147250000D03*
%TO.N,GND*%
X185820000Y-149790000D03*
%TO.N,/game/DIR_MCU_T_FLASH*%
X193440000Y-149790000D03*
%TO.N,unconnected-(WP_SHIFTER1-B2-Pad6)*%
X193440000Y-147250000D03*
%TO.N,/game/WP*%
X193440000Y-144710000D03*
%TO.N,3.3V*%
X193440000Y-142170000D03*
%TD*%
%TO.N,/game/DIR_MCU_T_FLASH*%
%TO.C,R42*%
X144500000Y-93500000D03*
%TO.N,VCC*%
X134340000Y-93500000D03*
%TD*%
D30*
%TO.N,REG_EN_LOW*%
%TO.C,TPS75533KCG1*%
X210100000Y-95950000D03*
D31*
%TO.N,VCC*%
X211800000Y-95950000D03*
%TO.N,GND*%
X213500000Y-95950000D03*
%TO.N,Net-(D6-A)*%
X215200000Y-95950000D03*
%TO.N,PG*%
X216900000Y-95950000D03*
%TD*%
D14*
%TO.N,Net-(MOSI_CLK_SHIFTER1-VCCA)*%
%TO.C,MOSI_CLK_SHIFTER1*%
X186090000Y-109190000D03*
D12*
%TO.N,/game/MOSI_GAME*%
X186090000Y-111730000D03*
%TO.N,/game/SCK_GAME*%
X186090000Y-114270000D03*
%TO.N,GND*%
X186090000Y-116810000D03*
%TO.N,/game/DIR_MCU_T_FLASH*%
X193710000Y-116810000D03*
%TO.N,/game/SCK*%
X193710000Y-114270000D03*
%TO.N,/game/MOSI*%
X193710000Y-111730000D03*
%TO.N,3.3V*%
X193710000Y-109190000D03*
%TD*%
D15*
%TO.N,Net-(D7-K)*%
%TO.C,D7*%
X214500000Y-85230000D03*
D16*
%TO.N,Net-(D6-A)*%
X214500000Y-87770000D03*
%TD*%
D10*
%TO.N,/grid/SRAM_CS*%
%TO.C,J18*%
X241270000Y-129220000D03*
D11*
%TO.N,/grid/PB2*%
X241270000Y-131760000D03*
%TO.N,/grid/MOSI_GRID*%
X241270000Y-134300000D03*
%TO.N,/grid/MISO_GRID*%
X241270000Y-136840000D03*
%TO.N,/grid/SCK_GRID*%
X241270000Y-139380000D03*
%TD*%
D12*
%TO.N,/grid/RESET_GRID*%
%TO.C,R23*%
X255635000Y-166480000D03*
D13*
%TO.N,VCC*%
X265795000Y-166480000D03*
%TD*%
D15*
%TO.N,Net-(D4-K)*%
%TO.C,D4*%
X249100000Y-88280000D03*
D16*
%TO.N,Net-(D4-A)*%
X249100000Y-90820000D03*
%TD*%
D10*
%TO.N,/grid/RESET_GRID*%
%TO.C,J16*%
X261270000Y-162460000D03*
D11*
%TO.N,/grid/RXD_GRID*%
X261270000Y-159920000D03*
%TO.N,/grid/TXD_GRID*%
X261270000Y-157380000D03*
%TO.N,/grid/PD2*%
X261270000Y-154840000D03*
%TO.N,/grid/PD3*%
X261270000Y-152300000D03*
%TO.N,/grid/USART_CLK*%
X261270000Y-149760000D03*
%TD*%
D12*
%TO.N,/game/FLASH_HOLD*%
%TO.C,R17*%
X159715000Y-121980000D03*
D13*
%TO.N,VCC*%
X169875000Y-121980000D03*
%TD*%
D12*
%TO.N,/game/J_UP*%
%TO.C,R10*%
X130715000Y-234040000D03*
D13*
%TO.N,VCC*%
X140875000Y-234040000D03*
%TD*%
D12*
%TO.N,VCC*%
%TO.C,R57*%
X244680000Y-90550000D03*
%TO.N,REG_EN_LOW*%
X234520000Y-90550000D03*
%TD*%
D10*
%TO.N,/programmer/PB1*%
%TO.C,J24*%
X219915000Y-230060000D03*
D11*
%TO.N,/programmer/PB2*%
X219915000Y-227520000D03*
%TO.N,/programmer/MOSI*%
X219915000Y-224980000D03*
%TO.N,/programmer/MISO*%
X219915000Y-222440000D03*
%TO.N,/programmer/SCK*%
X219915000Y-219900000D03*
%TD*%
D14*
%TO.N,Net-(CS_HOLD_SHIFTER1-VCCA)*%
%TO.C,CS_HOLD_SHIFTER1*%
X185695000Y-125190000D03*
D12*
%TO.N,/game/FLASH_CS*%
X185695000Y-127730000D03*
%TO.N,/game/FLASH_HOLD*%
X185695000Y-130270000D03*
%TO.N,GND*%
X185695000Y-132810000D03*
%TO.N,/game/DIR_MCU_T_FLASH*%
X193315000Y-132810000D03*
%TO.N,/game/HOLD*%
X193315000Y-130270000D03*
%TO.N,/game/CS*%
X193315000Y-127730000D03*
%TO.N,3.3V*%
X193315000Y-125190000D03*
%TD*%
D32*
%TO.N,/game/RESET_GAME*%
%TO.C,U2*%
X149875000Y-155550000D03*
D12*
%TO.N,/game/RXD_GAME*%
X149875000Y-153010000D03*
%TO.N,/game/TXD_GAME*%
X149875000Y-150470000D03*
%TO.N,/game/J_UP*%
X149875000Y-147930000D03*
%TO.N,/game/J_DOWN*%
X149875000Y-145390000D03*
%TO.N,/game/J_LEFT*%
X149875000Y-142850000D03*
%TO.N,VCC*%
X149875000Y-140310000D03*
%TO.N,GND*%
X149875000Y-137770000D03*
%TO.N,Net-(U2-XTAL1{slash}PB6)*%
X149875000Y-135230000D03*
%TO.N,Net-(U2-XTAL2{slash}PB7)*%
X149875000Y-132690000D03*
%TO.N,/game/BUZZER_PWM*%
X149875000Y-130150000D03*
%TO.N,/game/B_START*%
X149875000Y-127610000D03*
%TO.N,/game/B_STOP*%
X149875000Y-125070000D03*
%TO.N,/game/FLASH_HOLD*%
X149875000Y-122530000D03*
%TO.N,/game/FLASH_CS*%
X142255000Y-122530000D03*
%TO.N,/game/PB2*%
X142255000Y-125070000D03*
%TO.N,/game/MOSI_GAME*%
X142255000Y-127610000D03*
%TO.N,/game/MISO_GAME*%
X142255000Y-130150000D03*
%TO.N,/game/SCK_GAME*%
X142255000Y-132690000D03*
%TO.N,VCC*%
X142255000Y-135230000D03*
X142255000Y-137770000D03*
%TO.N,GND*%
X142255000Y-140310000D03*
%TO.N,/game/B_SELECT*%
X142255000Y-142850000D03*
%TO.N,/game/FLASH_WP*%
X142255000Y-145390000D03*
%TO.N,/game/J_RIGHT*%
X142255000Y-147930000D03*
%TO.N,/game/VIBRATOR*%
X142255000Y-150470000D03*
%TO.N,/game/SDA_GAME*%
X142255000Y-153010000D03*
%TO.N,/game/SCL_GAME*%
X142255000Y-155550000D03*
%TD*%
D10*
%TO.N,/game/SCL_GAME*%
%TO.C,J20*%
X241270000Y-162500000D03*
D11*
%TO.N,/game/SDA_GAME*%
X241270000Y-159960000D03*
%TO.N,/grid/PC3*%
X241270000Y-157420000D03*
%TO.N,/grid/PC2*%
X241270000Y-154880000D03*
%TO.N,/grid/PC1*%
X241270000Y-152340000D03*
%TO.N,/grid/B_SELECT*%
X241270000Y-149800000D03*
%TD*%
D12*
%TO.N,Net-(D2-A)*%
%TO.C,R32*%
X235295000Y-206640000D03*
D13*
%TO.N,VCC*%
X235295000Y-196480000D03*
%TD*%
D33*
%TO.N,Net-(J3-VBUS)*%
%TO.C,J3*%
X290507500Y-221230000D03*
D12*
%TO.N,/converter/D-*%
X290507500Y-223730000D03*
%TO.N,/converter/D+*%
X292507500Y-223730000D03*
%TO.N,GND*%
X292507500Y-221230000D03*
D34*
%TO.N,unconnected-(J3-Shield-Pad5)_1*%
X295367500Y-216480000D03*
%TO.N,unconnected-(J3-Shield-Pad5)*%
X295367500Y-228480000D03*
%TD*%
D10*
%TO.N,/grid/SRAM_CS*%
%TO.C,J21*%
X201915000Y-221980000D03*
D11*
%TO.N,/converter/WAKE_UP*%
X201915000Y-224520000D03*
%TO.N,/game/FLASH_CS*%
X201915000Y-227060000D03*
%TO.N,/programmer/PB0*%
X201915000Y-229600000D03*
%TD*%
D33*
%TO.N,Net-(U2-XTAL2{slash}PB7)*%
%TO.C,C17*%
X161755000Y-132390000D03*
D12*
%TO.N,GND*%
X164255000Y-132390000D03*
%TD*%
%TO.N,Net-(D7-K)*%
%TO.C,R54*%
X210580000Y-83500000D03*
%TO.N,GND*%
X200420000Y-83500000D03*
%TD*%
%TO.N,Net-(U5-~{RESET})*%
%TO.C,R4*%
X278795000Y-197980000D03*
D13*
%TO.N,GND*%
X278795000Y-187820000D03*
%TD*%
D12*
%TO.N,/game/J_RIGHT*%
%TO.C,R16*%
X130715000Y-222540000D03*
D13*
%TO.N,VCC*%
X140875000Y-222540000D03*
%TD*%
D12*
%TO.N,VCC*%
%TO.C,R56*%
X217000000Y-109580000D03*
%TO.N,PG*%
X217000000Y-99420000D03*
%TD*%
%TO.N,/programmer/GRID_SIGNAL*%
%TO.C,R2*%
X188135000Y-169480000D03*
D13*
%TO.N,GND*%
X198295000Y-169480000D03*
%TD*%
D11*
%TO.N,Net-(U2-XTAL1{slash}PB6)*%
%TO.C,Y2*%
X157755000Y-138390000D03*
%TO.N,Net-(U2-XTAL2{slash}PB7)*%
X157755000Y-133390000D03*
%TD*%
D10*
%TO.N,/game/FLASH_CS*%
%TO.C,J14*%
X136255000Y-122230000D03*
D11*
%TO.N,/game/PB2*%
X136255000Y-124770000D03*
%TO.N,/game/MOSI_GAME*%
X136255000Y-127310000D03*
%TO.N,/game/MISO_GAME*%
X136255000Y-129850000D03*
%TO.N,/game/SCK_GAME*%
X136255000Y-132390000D03*
%TD*%
D33*
%TO.N,Net-(U1-XTAL1{slash}PB6)*%
%TO.C,C27*%
X270270000Y-143800000D03*
D12*
%TO.N,GND*%
X272770000Y-143800000D03*
%TD*%
%TO.N,Net-(BZ1--)*%
%TO.C,R40*%
X116000000Y-105420000D03*
%TO.N,GND*%
X116000000Y-115580000D03*
%TD*%
D10*
%TO.N,/grid/PD5*%
%TO.C,J13*%
X261270000Y-137110000D03*
D11*
%TO.N,/grid/PD6*%
X261270000Y-134570000D03*
%TO.N,/grid/PD7*%
X261270000Y-132030000D03*
%TO.N,/grid/SRAM_HOLD*%
X261270000Y-129490000D03*
%TD*%
D10*
%TO.N,GND*%
%TO.C,J5*%
X227770000Y-179005000D03*
D11*
%TO.N,/converter/RXD_CONV*%
X227770000Y-176465000D03*
%TO.N,/converter/TXD_CONV*%
X227770000Y-173925000D03*
%TD*%
D12*
%TO.N,VCC*%
%TO.C,R20*%
X257955000Y-123480000D03*
D13*
%TO.N,/grid/SRAM_CS*%
X247795000Y-123480000D03*
%TD*%
D33*
%TO.N,Net-(U3-PB7{slash}XTAL2)*%
%TO.C,C3*%
X192415000Y-220020000D03*
D12*
%TO.N,GND*%
X189915000Y-220020000D03*
%TD*%
%TO.N,VCC*%
%TO.C,R44*%
X134420000Y-90000000D03*
%TO.N,Net-(U10-A2)*%
X144580000Y-90000000D03*
%TD*%
D10*
%TO.N,Net-(J12-Pin_1)*%
%TO.C,J12*%
X273335000Y-157480000D03*
D11*
%TO.N,/grid/TXD_GRID*%
X270795000Y-157480000D03*
%TD*%
D12*
%TO.N,VCC*%
%TO.C,R35*%
X202295000Y-182320000D03*
D13*
%TO.N,/programmer/RESET_PROG*%
X202295000Y-192480000D03*
%TD*%
D14*
%TO.N,/programmer/MISO*%
%TO.C,U6*%
X169305000Y-189400000D03*
D12*
%TO.N,/grid/MISO_GRID*%
X169305000Y-191940000D03*
%TO.N,/game/MISO_GAME*%
X169305000Y-194480000D03*
%TO.N,/programmer/MISO*%
X169305000Y-197020000D03*
%TO.N,/programmer/GAME_SIGNAL*%
X169305000Y-199560000D03*
%TO.N,/programmer/EXT_SIGNAL*%
X169305000Y-202100000D03*
%TO.N,GND*%
X169305000Y-204640000D03*
%TO.N,/programmer/MISO*%
X176925000Y-204640000D03*
%TO.N,/programmer/MISO_EXT*%
X176925000Y-202100000D03*
%TO.N,unconnected-(U6-Pad10)*%
X176925000Y-199560000D03*
%TO.N,unconnected-(U6-Pad11)*%
X176925000Y-197020000D03*
%TO.N,unconnected-(U6-Pad12)*%
X176925000Y-194480000D03*
%TO.N,/programmer/GRID_SIGNAL*%
X176925000Y-191940000D03*
%TO.N,VCC*%
X176925000Y-189400000D03*
%TD*%
%TO.N,Net-(D3-K)*%
%TO.C,R34*%
X283295000Y-177060000D03*
D13*
%TO.N,GND*%
X283295000Y-166900000D03*
%TD*%
D10*
%TO.N,/game/B_START*%
%TO.C,J26*%
X127000000Y-184000000D03*
D11*
%TO.N,GND*%
X127000000Y-186540000D03*
%TD*%
D12*
%TO.N,Net-(D4-K)*%
%TO.C,R36*%
X244680000Y-86050000D03*
%TO.N,GND*%
X234520000Y-86050000D03*
%TD*%
%TO.N,/game/CS*%
%TO.C,R25*%
X206715000Y-115480000D03*
D13*
%TO.N,VCC*%
X216875000Y-115480000D03*
%TD*%
D10*
%TO.N,GND*%
%TO.C,J7*%
X288000000Y-157460000D03*
D11*
%TO.N,/grid/TXD_GRID*%
X288000000Y-160000000D03*
%TO.N,/grid/RXD_GRID*%
X288000000Y-162540000D03*
%TD*%
D33*
%TO.N,Net-(U3-PB6{slash}XTAL1)*%
%TO.C,C1*%
X192415000Y-213020000D03*
D12*
%TO.N,GND*%
X189915000Y-213020000D03*
%TD*%
D10*
%TO.N,/game/J_UP*%
%TO.C,J9*%
X126795000Y-230120000D03*
D11*
%TO.N,/game/J_DOWN*%
X126795000Y-227580000D03*
%TO.N,/game/J_LEFT*%
X126795000Y-225040000D03*
%TO.N,/game/J_RIGHT*%
X126795000Y-222500000D03*
%TO.N,GND*%
X126795000Y-219960000D03*
%TD*%
D12*
%TO.N,Net-(U10-~{INT})*%
%TO.C,R46*%
X158920000Y-93500000D03*
%TO.N,VCC*%
X169080000Y-93500000D03*
%TD*%
D33*
%TO.N,Net-(U2-XTAL1{slash}PB6)*%
%TO.C,C18*%
X162255000Y-139890000D03*
D12*
%TO.N,GND*%
X164755000Y-139890000D03*
%TD*%
D22*
%TO.N,/converter/D-*%
%TO.C,C42*%
X256795000Y-214480000D03*
%TO.N,GND*%
X256795000Y-219480000D03*
%TD*%
D12*
%TO.N,Net-(D1-A)*%
%TO.C,R31*%
X275295000Y-187640000D03*
D13*
%TO.N,VCC*%
X275295000Y-177480000D03*
%TD*%
D10*
%TO.N,/game/BUZZER_PWM*%
%TO.C,J15*%
X155755000Y-129430000D03*
D11*
%TO.N,/game/B_START*%
X155755000Y-126890000D03*
%TO.N,/game/B_STOP*%
X155755000Y-124350000D03*
%TO.N,/game/FLASH_HOLD*%
X155755000Y-121810000D03*
%TD*%
D12*
%TO.N,/game/WP*%
%TO.C,R26*%
X197135000Y-144980000D03*
D13*
%TO.N,GND*%
X207295000Y-144980000D03*
%TD*%
D12*
%TO.N,/game/B_SELECT*%
%TO.C,R11*%
X130715000Y-207540000D03*
D13*
%TO.N,VCC*%
X140875000Y-207540000D03*
%TD*%
D35*
%TO.N,/programmer/MOSI_EXT*%
%TO.C,J11*%
X253295000Y-226440000D03*
D11*
%TO.N,VCC*%
X253295000Y-228980000D03*
%TO.N,GND*%
X250755000Y-226440000D03*
X250755000Y-228980000D03*
%TO.N,/programmer/RESET_PROG*%
X248215000Y-226440000D03*
%TO.N,GND*%
X248215000Y-228980000D03*
%TO.N,/programmer/SCK_EXT*%
X245675000Y-226440000D03*
%TO.N,GND*%
X245675000Y-228980000D03*
%TO.N,/programmer/MISO_EXT*%
X243135000Y-226440000D03*
%TO.N,GND*%
X243135000Y-228980000D03*
%TD*%
D12*
%TO.N,VCC*%
%TO.C,220uF1*%
X297795000Y-171730000D03*
%TO.N,GND*%
X297795000Y-169230000D03*
%TD*%
%TO.N,/game/SCL_GAME*%
%TO.C,R9*%
X131215000Y-175240000D03*
D13*
%TO.N,VCC*%
X141375000Y-175240000D03*
%TD*%
D26*
%TO.N,/grid/RESET_GRID*%
%TO.C,SW2*%
X191250000Y-200000000D03*
D27*
%TO.N,GND*%
X184750000Y-200000000D03*
%TD*%
D12*
%TO.N,/game/B_STOP*%
%TO.C,R12*%
X130635000Y-193980000D03*
D13*
%TO.N,VCC*%
X140795000Y-193980000D03*
%TD*%
D12*
%TO.N,/programmer/GAME_SIGNAL*%
%TO.C,R3*%
X161295000Y-175980000D03*
D13*
%TO.N,GND*%
X151135000Y-175980000D03*
%TD*%
D12*
%TO.N,/game/J_DOWN*%
%TO.C,R14*%
X130635000Y-230040000D03*
D13*
%TO.N,VCC*%
X140795000Y-230040000D03*
%TD*%
D33*
%TO.N,Net-(U1-XTAL2{slash}PB7)*%
%TO.C,C28*%
X270270000Y-136800000D03*
D12*
%TO.N,GND*%
X272770000Y-136800000D03*
%TD*%
%TO.N,/game/J_LEFT*%
%TO.C,R15*%
X130715000Y-226040000D03*
D13*
%TO.N,VCC*%
X140875000Y-226040000D03*
%TD*%
D12*
%TO.N,/game/DIR_FLASH_T_MCU*%
%TO.C,R43*%
X144580000Y-97000000D03*
%TO.N,VCC*%
X134420000Y-97000000D03*
%TD*%
%TO.N,VCC*%
%TO.C,R38*%
X249600000Y-112630000D03*
%TO.N,PG*%
X249600000Y-102470000D03*
%TD*%
D11*
%TO.N,Net-(U3-PB7{slash}XTAL2)*%
%TO.C,Y1*%
X196915000Y-218470000D03*
%TO.N,Net-(U3-PB6{slash}XTAL1)*%
X196915000Y-213470000D03*
%TD*%
D10*
%TO.N,/programmer/RESET_PROG*%
%TO.C,J22*%
X201915000Y-196940000D03*
D11*
%TO.N,/programmer/RXD*%
X201915000Y-199480000D03*
%TO.N,/programmer/TXD*%
X201915000Y-202020000D03*
%TO.N,/grid/RESET_GRID*%
X201915000Y-204560000D03*
%TO.N,/game/RESET_GAME*%
X201915000Y-207100000D03*
%TO.N,/game/FLASH_CS*%
X201915000Y-209640000D03*
%TD*%
D32*
%TO.N,/grid/RESET_GRID*%
%TO.C,U1*%
X255390000Y-162380000D03*
D12*
%TO.N,/grid/RXD_GRID*%
X255390000Y-159840000D03*
%TO.N,/grid/TXD_GRID*%
X255390000Y-157300000D03*
%TO.N,/grid/PD2*%
X255390000Y-154760000D03*
%TO.N,/grid/PD3*%
X255390000Y-152220000D03*
%TO.N,/grid/USART_CLK*%
X255390000Y-149680000D03*
%TO.N,VCC*%
X255390000Y-147140000D03*
%TO.N,GND*%
X255390000Y-144600000D03*
%TO.N,Net-(U1-XTAL1{slash}PB6)*%
X255390000Y-142060000D03*
%TO.N,Net-(U1-XTAL2{slash}PB7)*%
X255390000Y-139520000D03*
%TO.N,/grid/PD5*%
X255390000Y-136980000D03*
%TO.N,/grid/PD6*%
X255390000Y-134440000D03*
%TO.N,/grid/PD7*%
X255390000Y-131900000D03*
%TO.N,/grid/SRAM_HOLD*%
X255390000Y-129360000D03*
%TO.N,/grid/SRAM_CS*%
X247770000Y-129360000D03*
%TO.N,/grid/PB2*%
X247770000Y-131900000D03*
%TO.N,/grid/MOSI_GRID*%
X247770000Y-134440000D03*
%TO.N,/grid/MISO_GRID*%
X247770000Y-136980000D03*
%TO.N,/grid/SCK_GRID*%
X247770000Y-139520000D03*
%TO.N,VCC*%
X247770000Y-142060000D03*
X247770000Y-144600000D03*
%TO.N,GND*%
X247770000Y-147140000D03*
%TO.N,/grid/B_SELECT*%
X247770000Y-149680000D03*
%TO.N,/grid/PC1*%
X247770000Y-152220000D03*
%TO.N,/grid/PC2*%
X247770000Y-154760000D03*
%TO.N,/grid/PC3*%
X247770000Y-157300000D03*
%TO.N,/game/SDA_GAME*%
X247770000Y-159840000D03*
%TO.N,/game/SCL_GAME*%
X247770000Y-162380000D03*
%TD*%
D15*
%TO.N,Net-(D1-K)*%
%TO.C,D1*%
X269755000Y-190980000D03*
D16*
%TO.N,Net-(D1-A)*%
X272295000Y-190980000D03*
%TD*%
D12*
%TO.N,VCC*%
%TO.C,R45*%
X134420000Y-86500000D03*
%TO.N,Net-(U10-A1)*%
X144580000Y-86500000D03*
%TD*%
D26*
%TO.N,/game/RESET_GAME*%
%TO.C,SW3*%
X163545000Y-156980000D03*
D27*
%TO.N,GND*%
X170045000Y-156980000D03*
%TD*%
D12*
%TO.N,/game/SDA_GAME*%
%TO.C,R7*%
X131215000Y-171740000D03*
D13*
%TO.N,VCC*%
X141375000Y-171740000D03*
%TD*%
D30*
%TO.N,REG_EN_LOW*%
%TO.C,TPS75533KCG2*%
X242700000Y-98500000D03*
D31*
%TO.N,VCC*%
X244400000Y-98500000D03*
%TO.N,GND*%
X246100000Y-98500000D03*
%TO.N,Net-(D4-A)*%
X247800000Y-98500000D03*
%TO.N,PG*%
X249500000Y-98500000D03*
%TD*%
D12*
%TO.N,Net-(D4-A)*%
%TO.C,47uF2*%
X255000000Y-90250000D03*
%TO.N,GND*%
X255000000Y-87750000D03*
%TD*%
D26*
%TO.N,/programmer/RESET_PROG*%
%TO.C,SW4*%
X198545000Y-192480000D03*
D27*
%TO.N,GND*%
X192045000Y-192480000D03*
%TD*%
D12*
%TO.N,VCC*%
%TO.C,R28*%
X210580000Y-87500000D03*
%TO.N,REG_EN_LOW*%
X200420000Y-87500000D03*
%TD*%
D20*
%TO.N,VCC_LED_GRID*%
%TO.C,D9*%
X287000000Y-100810000D03*
D12*
%TO.N,Net-(D5-A)*%
X287000000Y-93190000D03*
%TD*%
%TO.N,/game/HOLD*%
%TO.C,R24*%
X222255000Y-123830000D03*
D13*
%TO.N,GND*%
X232415000Y-123830000D03*
%TD*%
D10*
%TO.N,GND*%
%TO.C,J6*%
X119000000Y-156460000D03*
D11*
%TO.N,/game/TXD_GAME*%
X119000000Y-159000000D03*
%TO.N,/game/RXD_GAME*%
X119000000Y-161540000D03*
%TD*%
D12*
%TO.N,Net-(J3-VBUS)*%
%TO.C,R5*%
X287375000Y-206480000D03*
D13*
%TO.N,Net-(U5-~{RESET})*%
X277215000Y-206480000D03*
%TD*%
D12*
%TO.N,/game/RESET_GAME*%
%TO.C,R8*%
X150135000Y-159980000D03*
D13*
%TO.N,VCC*%
X160295000Y-159980000D03*
%TD*%
D12*
%TO.N,VCC*%
%TO.C,R18*%
X121635000Y-120980000D03*
D13*
%TO.N,/game/FLASH_CS*%
X131795000Y-120980000D03*
%TD*%
D12*
%TO.N,VCC*%
%TO.C,R30*%
X281500000Y-110000000D03*
%TO.N,PG*%
X281500000Y-99840000D03*
%TD*%
D36*
%TO.N,GND*%
X184500000Y-214500000D03*
X293500000Y-210500000D03*
%TO.N,Net-(J3-VBUS)*%
X286500000Y-219500000D03*
%TO.N,GND*%
X296500000Y-201500000D03*
%TO.N,VCC*%
X284500000Y-189000000D03*
%TO.N,GND*%
X265000000Y-101000000D03*
X234500000Y-102000000D03*
X220000000Y-135000000D03*
%TO.N,VCC*%
X218000000Y-143500000D03*
%TO.N,GND*%
X221000000Y-115000000D03*
X295000000Y-118000000D03*
X263500000Y-146000000D03*
%TO.N,/game/MISO_GAME*%
X196500000Y-162000000D03*
X188000000Y-162000000D03*
%TO.N,/programmer/GAME_SIGNAL*%
X172500000Y-210500000D03*
%TO.N,GND*%
X239500000Y-144500000D03*
%TO.N,/grid/MISO_GRID*%
X234000000Y-153000000D03*
X230500000Y-158000000D03*
X208500000Y-180000000D03*
%TO.N,/grid/SCK_GRID*%
X201500000Y-159000000D03*
X195000000Y-159000000D03*
%TO.N,/game/SDA_GAME*%
X191500000Y-152500000D03*
X187000000Y-152500000D03*
X183000000Y-156000000D03*
%TO.N,/game/SCL_GAME*%
X186500000Y-160500000D03*
%TO.N,GND*%
X180500000Y-140000000D03*
X200000000Y-140000000D03*
X181000000Y-122000000D03*
X197500000Y-122500000D03*
%TO.N,/grid/MOSI_GRID*%
X166500000Y-212000000D03*
%TO.N,/game/FLASH_CS*%
X189000000Y-157500000D03*
X188000000Y-185500000D03*
%TO.N,/programmer/SCK_EXT*%
X239000000Y-221000000D03*
X235500000Y-219000000D03*
X229000000Y-192500000D03*
X224500000Y-192000000D03*
X214500000Y-181500000D03*
%TO.N,/programmer/MISO_EXT*%
X234000000Y-217000000D03*
%TO.N,GND*%
X239000000Y-184500000D03*
%TO.N,/programmer/GAME_SIGNAL*%
X163500000Y-224500000D03*
%TO.N,/grid/SRAM_CS*%
X224000000Y-189550000D03*
X216500000Y-194000000D03*
%TO.N,/programmer/SCK*%
X163000000Y-196500000D03*
%TO.N,GND*%
X183500000Y-189000000D03*
%TO.N,/game/RESET_GAME*%
X194500000Y-198000000D03*
X194500000Y-188500000D03*
%TO.N,GND*%
X202500000Y-97500000D03*
X197000000Y-105000000D03*
X181390000Y-106820000D03*
X183350000Y-164150000D03*
X222850000Y-153540000D03*
X205950000Y-152270000D03*
X168480000Y-145870000D03*
%TO.N,VCC*%
X138950000Y-137090000D03*
%TO.N,GND*%
X134190000Y-136170000D03*
%TO.N,VCC*%
X178980000Y-189500000D03*
D37*
%TO.N,/game/CS*%
X200000000Y-119500000D03*
X206000000Y-119500000D03*
%TO.N,/game/FLASH_CS*%
X197500000Y-226020000D03*
X200500000Y-213000000D03*
%TO.N,/game/RXD_GAME*%
X140295000Y-160480000D03*
X124500000Y-160480000D03*
%TO.N,/game/TXD_GAME*%
X125500000Y-157980000D03*
X140295000Y-157980000D03*
%TO.N,/game/J_RIGHT*%
X116500000Y-198000000D03*
X118500000Y-222000000D03*
%TO.N,/game/SCL_GAME*%
X122000000Y-174500000D03*
X178000000Y-84000000D03*
X111000000Y-174500000D03*
X173000000Y-88500000D03*
%TO.N,/game/SDA_GAME*%
X166000000Y-84000000D03*
X128000000Y-82000000D03*
X110500000Y-169500000D03*
X122000000Y-172000000D03*
%TO.N,/programmer/RESET_PROG*%
X226500000Y-189500000D03*
X230000000Y-209500000D03*
X216500000Y-188500000D03*
%TO.N,/programmer/MISO*%
X177500000Y-210000000D03*
X205500000Y-232000000D03*
%TO.N,/programmer/MOSI*%
X207500000Y-237500000D03*
X212000000Y-232000000D03*
%TO.N,/game/SCK_GAME*%
X173500000Y-119500000D03*
X124000000Y-140500000D03*
X153560000Y-170940000D03*
X177000000Y-117000000D03*
%TO.N,/game/MOSI_GAME*%
X171500000Y-118000000D03*
X109000000Y-128500000D03*
X176500000Y-114500000D03*
X164560000Y-218940000D03*
%TO.N,/game/MISO_GAME*%
X122500000Y-135000000D03*
X165500000Y-194500000D03*
%TO.N,/game/B_STOP*%
X117500000Y-166500000D03*
X161000000Y-125500000D03*
%TO.N,/game/B_START*%
X163000000Y-126500000D03*
X119000000Y-169500000D03*
%TO.N,/grid/RESET_GRID*%
X220500000Y-186000000D03*
X223000000Y-170500000D03*
%TO.N,/game/VIBRATOR*%
X117000000Y-142000000D03*
X122500000Y-150000000D03*
%TO.N,/game/FLASH_WP*%
X164500000Y-115000000D03*
X130500000Y-145000000D03*
X176000000Y-133500000D03*
X154500000Y-115000000D03*
%TO.N,/converter/RTS_CONV*%
X231500000Y-183000000D03*
X231500000Y-186500000D03*
%TO.N,/programmer/GRID_SIGNAL*%
X174500000Y-207500000D03*
X174500000Y-185500000D03*
%TO.N,/programmer/EXT_SIGNAL*%
X164500000Y-202000000D03*
%TO.N,/converter/WAKE_UP*%
X228000000Y-222000000D03*
X242000000Y-213000000D03*
%TO.N,/converter/CLOCK*%
X203000000Y-213000000D03*
X227000000Y-203500000D03*
%TO.N,/game/BUZZER_PWM*%
X139000000Y-117500000D03*
%TD*%
D38*
%TO.N,Net-(J8-Pin_1)*%
X117000000Y-128580000D02*
X117000000Y-133500000D01*
%TO.N,/grid/PB2*%
X235295000Y-128480000D02*
X235295000Y-129795000D01*
X235295000Y-129795000D02*
X237260000Y-131760000D01*
X237260000Y-131760000D02*
X241270000Y-131760000D01*
%TO.N,/grid/SRAM_CS*%
X280905000Y-123490000D02*
X277990000Y-123490000D01*
X247795000Y-121705000D02*
X247795000Y-123480000D01*
X277990000Y-123490000D02*
X271000000Y-116500000D01*
X271000000Y-116500000D02*
X253000000Y-116500000D01*
X253000000Y-116500000D02*
X247795000Y-121705000D01*
%TO.N,/grid/USART_CLK*%
X288000000Y-145460000D02*
X285960000Y-147500000D01*
X285960000Y-147500000D02*
X282000000Y-147500000D01*
X282000000Y-147500000D02*
X278000000Y-151500000D01*
X263260000Y-149760000D02*
X261270000Y-149760000D01*
X278000000Y-151500000D02*
X265000000Y-151500000D01*
X265000000Y-151500000D02*
X263260000Y-149760000D01*
%TO.N,Net-(J12-Pin_1)*%
X280500000Y-153000000D02*
X280500000Y-151000000D01*
X280500000Y-151000000D02*
X282500000Y-149000000D01*
X273335000Y-157480000D02*
X276020000Y-157480000D01*
X276020000Y-157480000D02*
X280500000Y-153000000D01*
X282500000Y-149000000D02*
X287000000Y-149000000D01*
X287000000Y-149000000D02*
X288000000Y-148000000D01*
%TO.N,/grid/TXD_GRID*%
X270795000Y-157480000D02*
X273315000Y-160000000D01*
X273315000Y-160000000D02*
X288000000Y-160000000D01*
%TO.N,/grid/RXD_GRID*%
X261270000Y-159920000D02*
X270420000Y-159920000D01*
X270420000Y-159920000D02*
X273040000Y-162540000D01*
X273040000Y-162540000D02*
X288000000Y-162540000D01*
%TO.N,/grid/TXD_GRID*%
X261270000Y-157380000D02*
X270695000Y-157380000D01*
X270695000Y-157380000D02*
X270795000Y-157480000D01*
%TO.N,/game/MISO_GAME*%
X188000000Y-162000000D02*
X196500000Y-162000000D01*
%TO.N,/programmer/GAME_SIGNAL*%
X172500000Y-210500000D02*
X172500000Y-205500000D01*
X172500000Y-205500000D02*
X172000000Y-205000000D01*
X172000000Y-205000000D02*
X172000000Y-200500000D01*
X172000000Y-200500000D02*
X171060000Y-199560000D01*
X171060000Y-199560000D02*
X169305000Y-199560000D01*
%TO.N,/grid/MISO_GRID*%
X234000000Y-155000000D02*
X234000000Y-153000000D01*
X233500000Y-155500000D02*
X234000000Y-155000000D01*
X230500000Y-158000000D02*
X233000000Y-155500000D01*
X233000000Y-155500000D02*
X233500000Y-155500000D01*
X167940000Y-191940000D02*
X167500000Y-191500000D01*
X183500000Y-183000000D02*
X186500000Y-180000000D01*
X167500000Y-187500000D02*
X172000000Y-183000000D01*
X186500000Y-180000000D02*
X208500000Y-180000000D01*
X167500000Y-191500000D02*
X167500000Y-187500000D01*
X169305000Y-191940000D02*
X167940000Y-191940000D01*
X172000000Y-183000000D02*
X183500000Y-183000000D01*
%TO.N,/game/FLASH_CS*%
X188000000Y-201000000D02*
X194000000Y-207000000D01*
X188000000Y-185500000D02*
X188000000Y-201000000D01*
X194000000Y-207000000D02*
X196500000Y-207000000D01*
X196500000Y-207000000D02*
X199140000Y-209640000D01*
X199140000Y-209640000D02*
X201915000Y-209640000D01*
%TO.N,/grid/SCK_GRID*%
X201500000Y-159000000D02*
X207000000Y-164500000D01*
X228500000Y-148000000D02*
X237120000Y-139380000D01*
X207000000Y-164500000D02*
X219500000Y-164500000D01*
X219500000Y-164500000D02*
X225500000Y-158500000D01*
X225500000Y-158500000D02*
X227000000Y-158500000D01*
X227000000Y-158500000D02*
X228500000Y-157000000D01*
X228500000Y-157000000D02*
X228500000Y-148000000D01*
X237120000Y-139380000D02*
X241270000Y-139380000D01*
X168490000Y-168400000D02*
X166900000Y-168400000D01*
X183500000Y-159500000D02*
X184000000Y-159000000D01*
X166900000Y-168400000D02*
X166500000Y-168000000D01*
X166500000Y-168000000D02*
X166500000Y-164000000D01*
X166500000Y-164000000D02*
X168000000Y-162500000D01*
X168000000Y-162500000D02*
X175000000Y-162500000D01*
X184000000Y-159000000D02*
X195000000Y-159000000D01*
X175000000Y-162500000D02*
X178000000Y-159500000D01*
X178000000Y-159500000D02*
X183500000Y-159500000D01*
%TO.N,/game/FLASH_CS*%
X189000000Y-129000000D02*
X187730000Y-127730000D01*
X189000000Y-157500000D02*
X189000000Y-129000000D01*
X187730000Y-127730000D02*
X185695000Y-127730000D01*
%TO.N,/game/SDA_GAME*%
X191500000Y-152500000D02*
X204500000Y-165500000D01*
X204500000Y-165500000D02*
X220500000Y-165500000D01*
X220500000Y-165500000D02*
X226040000Y-159960000D01*
X226040000Y-159960000D02*
X241270000Y-159960000D01*
X186500000Y-152500000D02*
X187000000Y-152500000D01*
X183000000Y-156000000D02*
X186500000Y-152500000D01*
%TO.N,/game/SCL_GAME*%
X186500000Y-160500000D02*
X197000000Y-160500000D01*
X197000000Y-160500000D02*
X203500000Y-167000000D01*
X203500000Y-167000000D02*
X221000000Y-167000000D01*
X221000000Y-167000000D02*
X225500000Y-162500000D01*
X225500000Y-162500000D02*
X241270000Y-162500000D01*
%TO.N,/game/MISO*%
X210295000Y-123020000D02*
X211980000Y-123020000D01*
X211980000Y-123020000D02*
X212000000Y-123000000D01*
X225000000Y-155500000D02*
X223290000Y-157210000D01*
X212000000Y-123000000D02*
X213500000Y-124500000D01*
X213500000Y-124500000D02*
X213500000Y-143000000D01*
X213500000Y-143000000D02*
X219000000Y-148500000D01*
X222000000Y-148500000D02*
X225000000Y-151500000D01*
X225000000Y-151500000D02*
X225000000Y-155500000D01*
X219000000Y-148500000D02*
X222000000Y-148500000D01*
X223290000Y-157210000D02*
X218110000Y-157210000D01*
%TO.N,/grid/SCK_GRID*%
X247770000Y-139520000D02*
X249480000Y-139520000D01*
X249480000Y-139520000D02*
X251500000Y-137500000D01*
X251500000Y-137500000D02*
X251500000Y-125000000D01*
X284500000Y-132000000D02*
X287930000Y-128570000D01*
X251500000Y-125000000D02*
X257000000Y-119500000D01*
X257000000Y-119500000D02*
X269500000Y-119500000D01*
X269500000Y-119500000D02*
X273000000Y-123000000D01*
X273000000Y-123000000D02*
X273000000Y-131000000D01*
X273000000Y-131000000D02*
X277500000Y-135500000D01*
X277500000Y-135500000D02*
X283500000Y-135500000D01*
X283500000Y-135500000D02*
X284500000Y-134500000D01*
X284500000Y-134500000D02*
X284500000Y-132000000D01*
X287930000Y-128570000D02*
X288525000Y-128570000D01*
%TO.N,/grid/MISO_GRID*%
X247770000Y-136980000D02*
X249520000Y-136980000D01*
X249520000Y-136980000D02*
X250000000Y-136500000D01*
X250000000Y-136500000D02*
X250000000Y-123500000D01*
X274500000Y-125000000D02*
X275530000Y-126030000D01*
X250000000Y-123500000D02*
X255500000Y-118000000D01*
X255500000Y-118000000D02*
X270000000Y-118000000D01*
X270000000Y-118000000D02*
X274500000Y-122500000D01*
X274500000Y-122500000D02*
X274500000Y-125000000D01*
X275530000Y-126030000D02*
X280905000Y-126030000D01*
%TO.N,/grid/SRAM_CS*%
X247770000Y-129360000D02*
X247770000Y-123505000D01*
X247770000Y-123505000D02*
X247795000Y-123480000D01*
%TO.N,Net-(U1-XTAL1{slash}PB6)*%
X265770000Y-143300000D02*
X269770000Y-143300000D01*
X269770000Y-143300000D02*
X270270000Y-143800000D01*
%TO.N,Net-(U1-XTAL2{slash}PB7)*%
X265770000Y-138300000D02*
X265800000Y-138300000D01*
X267300000Y-136800000D02*
X270270000Y-136800000D01*
X265800000Y-138300000D02*
X267300000Y-136800000D01*
X255390000Y-139520000D02*
X264550000Y-139520000D01*
X264550000Y-139520000D02*
X265770000Y-138300000D01*
%TO.N,Net-(U1-XTAL1{slash}PB6)*%
X255390000Y-142060000D02*
X264530000Y-142060000D01*
X264530000Y-142060000D02*
X265770000Y-143300000D01*
%TO.N,/grid/SCK_GRID*%
X241270000Y-139380000D02*
X247630000Y-139380000D01*
X247630000Y-139380000D02*
X247770000Y-139520000D01*
%TO.N,/grid/MISO_GRID*%
X241270000Y-136840000D02*
X247630000Y-136840000D01*
X247630000Y-136840000D02*
X247770000Y-136980000D01*
%TO.N,/grid/MOSI_GRID*%
X241270000Y-134300000D02*
X247630000Y-134300000D01*
X247630000Y-134300000D02*
X247770000Y-134440000D01*
%TO.N,/grid/PB2*%
X241270000Y-131760000D02*
X247630000Y-131760000D01*
X247630000Y-131760000D02*
X247770000Y-131900000D01*
%TO.N,/grid/SRAM_CS*%
X241270000Y-129220000D02*
X247630000Y-129220000D01*
X247630000Y-129220000D02*
X247770000Y-129360000D01*
%TO.N,/grid/MOSI_GRID*%
X166500000Y-215000000D02*
X166500000Y-212000000D01*
X167500000Y-216000000D02*
X166500000Y-215000000D01*
X169490000Y-216400000D02*
X167900000Y-216400000D01*
X167900000Y-216400000D02*
X167500000Y-216000000D01*
%TO.N,/programmer/SCK_EXT*%
X235500000Y-219000000D02*
X237500000Y-221000000D01*
X237500000Y-221000000D02*
X239000000Y-221000000D01*
X228500000Y-192000000D02*
X229000000Y-192500000D01*
X224500000Y-192000000D02*
X228500000Y-192000000D01*
%TO.N,/converter/RTS_CONV*%
X231500000Y-186500000D02*
X231500000Y-193500000D01*
X231500000Y-193500000D02*
X226000000Y-199000000D01*
X226000000Y-199000000D02*
X222000000Y-199000000D01*
X222000000Y-199000000D02*
X221290000Y-199710000D01*
X221290000Y-199710000D02*
X219915000Y-199710000D01*
%TO.N,/grid/SRAM_CS*%
X219500000Y-194000000D02*
X216500000Y-194000000D01*
X224000000Y-189550000D02*
X223950000Y-189550000D01*
X223950000Y-189550000D02*
X219500000Y-194000000D01*
%TO.N,/programmer/SCK_EXT*%
X211560000Y-178560000D02*
X214500000Y-181500000D01*
X176110000Y-178560000D02*
X211560000Y-178560000D01*
%TO.N,/programmer/MISO_EXT*%
X234000000Y-217000000D02*
X236500000Y-217000000D01*
X236500000Y-217000000D02*
X239000000Y-219500000D01*
X239000000Y-219500000D02*
X241000000Y-219500000D01*
X241000000Y-219500000D02*
X242500000Y-221000000D01*
X242500000Y-221000000D02*
X242500000Y-222000000D01*
X242500000Y-222000000D02*
X243135000Y-222635000D01*
X243135000Y-222635000D02*
X243135000Y-226440000D01*
%TO.N,/programmer/GAME_SIGNAL*%
X163500000Y-224500000D02*
X163980000Y-224020000D01*
X163980000Y-224020000D02*
X169490000Y-224020000D01*
%TO.N,/programmer/RESET_PROG*%
X216500000Y-188500000D02*
X225500000Y-188500000D01*
X225500000Y-188500000D02*
X226500000Y-189500000D01*
%TO.N,/grid/RESET_GRID*%
X220500000Y-186000000D02*
X217000000Y-186000000D01*
X217000000Y-186000000D02*
X211500000Y-191500000D01*
X211500000Y-191500000D02*
X211500000Y-202000000D01*
X211500000Y-202000000D02*
X209020000Y-204480000D01*
X209020000Y-204480000D02*
X207295000Y-204480000D01*
%TO.N,/programmer/TXD*%
X207295000Y-201940000D02*
X209560000Y-201940000D01*
X239000000Y-192500000D02*
X239500000Y-193000000D01*
X239520000Y-192980000D02*
X241295000Y-192980000D01*
X210500000Y-201000000D02*
X210500000Y-190500000D01*
X210500000Y-190500000D02*
X216500000Y-184500000D01*
X209560000Y-201940000D02*
X210500000Y-201000000D01*
X216500000Y-184500000D02*
X233500000Y-184500000D01*
X233500000Y-184500000D02*
X239000000Y-190000000D01*
X239000000Y-190000000D02*
X239000000Y-192500000D01*
X239500000Y-193000000D02*
X239520000Y-192980000D01*
%TO.N,/converter/RTS_CONV*%
X231500000Y-183000000D02*
X231950000Y-182550000D01*
X231950000Y-182550000D02*
X246680000Y-182550000D01*
%TO.N,/programmer/SCK*%
X163000000Y-196500000D02*
X163000000Y-190000000D01*
X171900000Y-181100000D02*
X176110000Y-181100000D01*
X163000000Y-190000000D02*
X171900000Y-181100000D01*
%TO.N,/game/RESET_GAME*%
X194500000Y-188500000D02*
X194500000Y-198000000D01*
%TO.N,VCC*%
X178900000Y-189400000D02*
X179000000Y-189500000D01*
X176925000Y-189400000D02*
X178900000Y-189400000D01*
X176925000Y-189350000D02*
X176925000Y-189400000D01*
%TO.N,/grid/SRAM_HOLD*%
X261270000Y-125615000D02*
X260635000Y-124980000D01*
X261270000Y-129490000D02*
X261270000Y-125615000D01*
X261140000Y-129360000D02*
X261270000Y-129490000D01*
X255390000Y-129360000D02*
X261140000Y-129360000D01*
%TO.N,/grid/SRAM_CS*%
X202195000Y-222260000D02*
X201915000Y-221980000D01*
X207295000Y-222260000D02*
X202195000Y-222260000D01*
%TO.N,Net-(U3-PB6{slash}XTAL1)*%
X192415000Y-213020000D02*
X196465000Y-213020000D01*
X201500000Y-215500000D02*
X203180000Y-217180000D01*
X203180000Y-217180000D02*
X207295000Y-217180000D01*
X196915000Y-213470000D02*
X198945000Y-215500000D01*
X196465000Y-213020000D02*
X196915000Y-213470000D01*
X198945000Y-215500000D02*
X201500000Y-215500000D01*
%TO.N,Net-(U3-PB7{slash}XTAL2)*%
X195365000Y-220020000D02*
X196915000Y-218470000D01*
X202470000Y-218470000D02*
X203720000Y-219720000D01*
X203720000Y-219720000D02*
X207295000Y-219720000D01*
X192415000Y-220020000D02*
X195365000Y-220020000D01*
X196915000Y-218470000D02*
X202470000Y-218470000D01*
%TO.N,Net-(U2-XTAL2{slash}PB7)*%
X149875000Y-132690000D02*
X157055000Y-132690000D01*
X160755000Y-133390000D02*
X161755000Y-132390000D01*
X157755000Y-133390000D02*
X160755000Y-133390000D01*
X157055000Y-132690000D02*
X157755000Y-133390000D01*
%TO.N,Net-(U2-XTAL1{slash}PB6)*%
X149875000Y-135230000D02*
X154595000Y-135230000D01*
X157755000Y-138390000D02*
X159255000Y-139890000D01*
X154595000Y-135230000D02*
X157755000Y-138390000D01*
X159255000Y-139890000D02*
X162255000Y-139890000D01*
%TO.N,Net-(CS_HOLD_SHIFTER1-VCCA)*%
X185215000Y-125670000D02*
X185695000Y-125190000D01*
%TO.N,Net-(WP_SHIFTER1-VCCA)*%
X185630000Y-141980000D02*
X185820000Y-142170000D01*
%TO.N,/game/CS*%
X199270000Y-127730000D02*
X200000000Y-127000000D01*
X206000000Y-116195000D02*
X206715000Y-115480000D01*
X193315000Y-127730000D02*
X199270000Y-127730000D01*
X206715000Y-116900000D02*
X210295000Y-120480000D01*
X206000000Y-119500000D02*
X206000000Y-116195000D01*
X206715000Y-115480000D02*
X206715000Y-116900000D01*
X200000000Y-127000000D02*
X200000000Y-119500000D01*
%TO.N,/game/FLASH_HOLD*%
X149875000Y-122530000D02*
X155035000Y-122530000D01*
X173770000Y-130270000D02*
X185695000Y-130270000D01*
X159545000Y-121810000D02*
X159715000Y-121980000D01*
X159715000Y-121980000D02*
X165480000Y-121980000D01*
X155035000Y-122530000D02*
X155755000Y-121810000D01*
X165480000Y-121980000D02*
X173770000Y-130270000D01*
X155755000Y-121810000D02*
X159545000Y-121810000D01*
%TO.N,/game/HOLD*%
X221445000Y-123020000D02*
X222255000Y-123830000D01*
X217915000Y-123020000D02*
X221445000Y-123020000D01*
X215000000Y-122000000D02*
X215000000Y-113500000D01*
X217915000Y-123020000D02*
X216020000Y-123020000D01*
X203500000Y-120500000D02*
X205000000Y-122000000D01*
X213000000Y-111500000D02*
X205000000Y-111500000D01*
X205000000Y-111500000D02*
X203500000Y-113000000D01*
X203500000Y-113000000D02*
X203500000Y-120500000D01*
X205000000Y-122000000D02*
X205000000Y-128000000D01*
X216020000Y-123020000D02*
X215000000Y-122000000D01*
X205000000Y-128000000D02*
X202730000Y-130270000D01*
X215000000Y-113500000D02*
X213000000Y-111500000D01*
X202730000Y-130270000D02*
X193315000Y-130270000D01*
%TO.N,/game/FLASH_CS*%
X177230000Y-127730000D02*
X185695000Y-127730000D01*
X173000000Y-116500000D02*
X176500000Y-120000000D01*
X207295000Y-227340000D02*
X202195000Y-227340000D01*
X176500000Y-127000000D02*
X177230000Y-127730000D01*
X201915000Y-209640000D02*
X200500000Y-211055000D01*
X200060000Y-227060000D02*
X201915000Y-227060000D01*
X142255000Y-122530000D02*
X142255000Y-118745000D01*
X144500000Y-116500000D02*
X173000000Y-116500000D01*
X197500000Y-226020000D02*
X198480000Y-227000000D01*
X141955000Y-122230000D02*
X142255000Y-122530000D01*
X202195000Y-227340000D02*
X201915000Y-227060000D01*
X142255000Y-118745000D02*
X144500000Y-116500000D01*
X135005000Y-120980000D02*
X136255000Y-122230000D01*
X136255000Y-122230000D02*
X141955000Y-122230000D01*
X176500000Y-120000000D02*
X176500000Y-127000000D01*
X200000000Y-227000000D02*
X200060000Y-227060000D01*
X198480000Y-227000000D02*
X200000000Y-227000000D01*
X200500000Y-211055000D02*
X200500000Y-213000000D01*
X131795000Y-120980000D02*
X135005000Y-120980000D01*
%TO.N,/converter/TXD_CONV*%
X241325000Y-177470000D02*
X240835000Y-176980000D01*
X238925000Y-173925000D02*
X227770000Y-173925000D01*
X240835000Y-176980000D02*
X240835000Y-175835000D01*
X246680000Y-177470000D02*
X241325000Y-177470000D01*
X240835000Y-175835000D02*
X238925000Y-173925000D01*
%TO.N,/programmer/RXD*%
X234020000Y-176980000D02*
X238295000Y-176980000D01*
X207215000Y-199480000D02*
X207295000Y-199400000D01*
X209500000Y-198500000D02*
X209500000Y-190000000D01*
X201915000Y-199480000D02*
X207215000Y-199480000D01*
X231500000Y-179500000D02*
X234020000Y-176980000D01*
X208600000Y-199400000D02*
X209500000Y-198500000D01*
X229500000Y-182000000D02*
X231500000Y-180000000D01*
X209500000Y-190000000D02*
X217500000Y-182000000D01*
X207295000Y-199400000D02*
X208600000Y-199400000D01*
X231500000Y-180000000D02*
X231500000Y-179500000D01*
X217500000Y-182000000D02*
X229500000Y-182000000D01*
%TO.N,/grid/USART_CLK*%
X261190000Y-149680000D02*
X261270000Y-149760000D01*
X255390000Y-149680000D02*
X261190000Y-149680000D01*
%TO.N,Net-(J3-VBUS)*%
X287375000Y-206480000D02*
X290000000Y-209105000D01*
X290000000Y-209105000D02*
X290000000Y-210500000D01*
X290507500Y-211007500D02*
X290507500Y-221230000D01*
X290000000Y-210500000D02*
X290507500Y-211007500D01*
%TO.N,/game/RXD_GAME*%
X124495000Y-160485000D02*
X120055000Y-160485000D01*
X149875000Y-153010000D02*
X155675000Y-153010000D01*
X149875000Y-153010000D02*
X147765000Y-153010000D01*
X155675000Y-153010000D02*
X155755000Y-152930000D01*
X147765000Y-153010000D02*
X146795000Y-153980000D01*
X124500000Y-160480000D02*
X124495000Y-160485000D01*
X146795000Y-156480000D02*
X142795000Y-160480000D01*
X142795000Y-160480000D02*
X140295000Y-160480000D01*
X120055000Y-160485000D02*
X119000000Y-161540000D01*
X146795000Y-153980000D02*
X146795000Y-156480000D01*
%TO.N,/game/TXD_GAME*%
X149875000Y-150470000D02*
X148305000Y-150470000D01*
X119939000Y-158061000D02*
X119000000Y-159000000D01*
X145295000Y-155980000D02*
X143295000Y-157980000D01*
X143295000Y-157980000D02*
X140295000Y-157980000D01*
X125500000Y-157980000D02*
X120601000Y-157980000D01*
X148305000Y-150470000D02*
X145295000Y-153480000D01*
X120601000Y-157980000D02*
X120601000Y-158061000D01*
X149875000Y-150470000D02*
X155675000Y-150470000D01*
X120601000Y-158061000D02*
X119939000Y-158061000D01*
X145295000Y-153480000D02*
X145295000Y-155980000D01*
X155675000Y-150470000D02*
X155755000Y-150390000D01*
%TO.N,/grid/TXD_GRID*%
X261190000Y-157300000D02*
X261270000Y-157380000D01*
X255390000Y-157300000D02*
X261190000Y-157300000D01*
%TO.N,/grid/RXD_GRID*%
X255390000Y-159840000D02*
X261190000Y-159840000D01*
X261190000Y-159840000D02*
X261270000Y-159920000D01*
%TO.N,/game/J_RIGHT*%
X136255000Y-147850000D02*
X142175000Y-147850000D01*
X130675000Y-222500000D02*
X130715000Y-222540000D01*
X120650000Y-147850000D02*
X120500000Y-148000000D01*
X126795000Y-222500000D02*
X130675000Y-222500000D01*
X135885000Y-147480000D02*
X136255000Y-147850000D01*
X120500000Y-148000000D02*
X116500000Y-148000000D01*
X115000000Y-196500000D02*
X116500000Y-198000000D01*
X119000000Y-222000000D02*
X119500000Y-222500000D01*
X115000000Y-149500000D02*
X115000000Y-196500000D01*
X142175000Y-147850000D02*
X142255000Y-147930000D01*
X136255000Y-147850000D02*
X120650000Y-147850000D01*
X118500000Y-222000000D02*
X119000000Y-222000000D01*
X119500000Y-222500000D02*
X126795000Y-222500000D01*
X116500000Y-148000000D02*
X115000000Y-149500000D01*
%TO.N,/game/J_DOWN*%
X161000000Y-151000000D02*
X161500000Y-151500000D01*
X167500000Y-159000000D02*
X162000000Y-164500000D01*
X157810000Y-145310000D02*
X161000000Y-148500000D01*
X128175000Y-227580000D02*
X130635000Y-230040000D01*
X162000000Y-164500000D02*
X152000000Y-164500000D01*
X161000000Y-148500000D02*
X161000000Y-151000000D01*
X165500000Y-151500000D02*
X167500000Y-153500000D01*
X118580000Y-227580000D02*
X126795000Y-227580000D01*
X155675000Y-145390000D02*
X155755000Y-145310000D01*
X167500000Y-153500000D02*
X167500000Y-159000000D01*
X152000000Y-164500000D02*
X146500000Y-170000000D01*
X140500000Y-215500000D02*
X120000000Y-215500000D01*
X146500000Y-209500000D02*
X140500000Y-215500000D01*
X126795000Y-227580000D02*
X128175000Y-227580000D01*
X149875000Y-145390000D02*
X155675000Y-145390000D01*
X120000000Y-215500000D02*
X116500000Y-219000000D01*
X146500000Y-170000000D02*
X146500000Y-209500000D01*
X116500000Y-219000000D02*
X116500000Y-225500000D01*
X155755000Y-145310000D02*
X157810000Y-145310000D01*
X116500000Y-225500000D02*
X118580000Y-227580000D01*
X161500000Y-151500000D02*
X165500000Y-151500000D01*
%TO.N,/game/J_UP*%
X140000000Y-213500000D02*
X119500000Y-213500000D01*
X159000000Y-151500000D02*
X160500000Y-153000000D01*
X165000000Y-153000000D02*
X166000000Y-154000000D01*
X161000000Y-163000000D02*
X151000000Y-163000000D01*
X118120000Y-230120000D02*
X126795000Y-230120000D01*
X166000000Y-154000000D02*
X166000000Y-158000000D01*
X119500000Y-213500000D02*
X115000000Y-218000000D01*
X115000000Y-218000000D02*
X115000000Y-227000000D01*
X151000000Y-163000000D02*
X144500000Y-169500000D01*
X159000000Y-149000000D02*
X159000000Y-151500000D01*
X155755000Y-147850000D02*
X157850000Y-147850000D01*
X160500000Y-153000000D02*
X165000000Y-153000000D01*
X157850000Y-147850000D02*
X159000000Y-149000000D01*
X166000000Y-158000000D02*
X161000000Y-163000000D01*
X155675000Y-147930000D02*
X155755000Y-147850000D01*
X149875000Y-147930000D02*
X155675000Y-147930000D01*
X115000000Y-227000000D02*
X118120000Y-230120000D01*
X126795000Y-230120000D02*
X130715000Y-234040000D01*
X144500000Y-169500000D02*
X144500000Y-209000000D01*
X144500000Y-209000000D02*
X140000000Y-213500000D01*
%TO.N,/game/J_LEFT*%
X175000000Y-152000000D02*
X175000000Y-157500000D01*
X155675000Y-142850000D02*
X155755000Y-142770000D01*
X157270000Y-142770000D02*
X162500000Y-148000000D01*
X148000000Y-211000000D02*
X142000000Y-217000000D01*
X175000000Y-157500000D02*
X171500000Y-161000000D01*
X163000000Y-166000000D02*
X153000000Y-166000000D01*
X149875000Y-142850000D02*
X155675000Y-142850000D01*
X148000000Y-171000000D02*
X148000000Y-211000000D01*
X129715000Y-225040000D02*
X130715000Y-226040000D01*
X142000000Y-217000000D02*
X137000000Y-217000000D01*
X153000000Y-166000000D02*
X148000000Y-171000000D01*
X133460000Y-226040000D02*
X130715000Y-226040000D01*
X163500000Y-150000000D02*
X173000000Y-150000000D01*
X137000000Y-217000000D02*
X136000000Y-218000000D01*
X155755000Y-142770000D02*
X157270000Y-142770000D01*
X136000000Y-218000000D02*
X136000000Y-223500000D01*
X173000000Y-150000000D02*
X175000000Y-152000000D01*
X162500000Y-148000000D02*
X162500000Y-149000000D01*
X136000000Y-223500000D02*
X133460000Y-226040000D01*
X162500000Y-149000000D02*
X163500000Y-150000000D01*
X171500000Y-161000000D02*
X168000000Y-161000000D01*
X126795000Y-225040000D02*
X129715000Y-225040000D01*
X168000000Y-161000000D02*
X163000000Y-166000000D01*
%TO.N,/game/SCL_GAME*%
X174499000Y-80499000D02*
X178000000Y-84000000D01*
X131215000Y-174320000D02*
X131215000Y-175240000D01*
X111000000Y-174500000D02*
X109000000Y-174500000D01*
X136255000Y-155470000D02*
X142175000Y-155470000D01*
X104000000Y-169500000D02*
X104000000Y-97500000D01*
X109000000Y-174500000D02*
X104000000Y-169500000D01*
X131215000Y-175240000D02*
X127470000Y-175240000D01*
X170710000Y-90790000D02*
X155630000Y-90790000D01*
X122040000Y-174540000D02*
X122000000Y-174500000D01*
X126770000Y-174540000D02*
X122040000Y-174540000D01*
X247650000Y-162500000D02*
X247770000Y-162380000D01*
X132795000Y-172740000D02*
X131215000Y-174320000D01*
X241270000Y-162500000D02*
X247650000Y-162500000D01*
X104000000Y-97500000D02*
X121001000Y-80499000D01*
X142175000Y-155470000D02*
X142255000Y-155550000D01*
X132795000Y-158980000D02*
X132795000Y-172740000D01*
X173000000Y-88500000D02*
X170710000Y-90790000D01*
X121001000Y-80499000D02*
X174499000Y-80499000D01*
X136255000Y-155470000D02*
X136255000Y-155520000D01*
X127470000Y-175240000D02*
X126770000Y-174540000D01*
X136255000Y-155520000D02*
X132795000Y-158980000D01*
%TO.N,/game/SDA_GAME*%
X126770000Y-172000000D02*
X130955000Y-172000000D01*
X142175000Y-152930000D02*
X142255000Y-153010000D01*
X166000000Y-84000000D02*
X165000000Y-85000000D01*
X247650000Y-159960000D02*
X247770000Y-159840000D01*
X134570000Y-152930000D02*
X131215000Y-156285000D01*
X163250000Y-88250000D02*
X155630000Y-88250000D01*
X126770000Y-172000000D02*
X122000000Y-172000000D01*
X136255000Y-152930000D02*
X142175000Y-152930000D01*
X165000000Y-86500000D02*
X163250000Y-88250000D01*
X106000000Y-99000000D02*
X123000000Y-82000000D01*
X123000000Y-82000000D02*
X128000000Y-82000000D01*
X131215000Y-156285000D02*
X131215000Y-171740000D01*
X130955000Y-172000000D02*
X131215000Y-171740000D01*
X110500000Y-169500000D02*
X106000000Y-165000000D01*
X136255000Y-152930000D02*
X134570000Y-152930000D01*
X106000000Y-165000000D02*
X106000000Y-99000000D01*
X241270000Y-159960000D02*
X247650000Y-159960000D01*
X165000000Y-85000000D02*
X165000000Y-86500000D01*
%TO.N,/programmer/RESET_PROG*%
X230000000Y-209500000D02*
X231000000Y-209500000D01*
X198545000Y-192480000D02*
X202295000Y-192480000D01*
X240000000Y-218500000D02*
X245000000Y-218500000D01*
X202295000Y-192480000D02*
X202295000Y-196560000D01*
X202295000Y-196560000D02*
X201915000Y-196940000D01*
X207295000Y-196860000D02*
X201995000Y-196860000D01*
X201995000Y-196860000D02*
X201915000Y-196940000D01*
X247000000Y-222500000D02*
X248215000Y-223715000D01*
X231000000Y-209500000D02*
X240000000Y-218500000D01*
X247000000Y-220500000D02*
X247000000Y-222500000D01*
X248215000Y-223715000D02*
X248215000Y-226440000D01*
X245000000Y-218500000D02*
X247000000Y-220500000D01*
%TO.N,/programmer/SCK*%
X170000000Y-173480000D02*
X168490000Y-173480000D01*
X214915000Y-219720000D02*
X219735000Y-219720000D01*
X174100000Y-181100000D02*
X176110000Y-181100000D01*
X170360000Y-165860000D02*
X172000000Y-167500000D01*
X170000000Y-173480000D02*
X171020000Y-173480000D01*
X219735000Y-219720000D02*
X219915000Y-219900000D01*
X172000000Y-172500000D02*
X172000000Y-179000000D01*
X171020000Y-173480000D02*
X172000000Y-172500000D01*
X168490000Y-165860000D02*
X170360000Y-165860000D01*
X172000000Y-167500000D02*
X172000000Y-172500000D01*
X172000000Y-179000000D02*
X174100000Y-181100000D01*
%TO.N,/programmer/MISO*%
X209500000Y-232000000D02*
X205500000Y-232000000D01*
X176925000Y-207925000D02*
X176925000Y-204640000D01*
X171400000Y-189400000D02*
X173000000Y-191000000D01*
X213240000Y-222260000D02*
X211500000Y-224000000D01*
X169305000Y-189400000D02*
X171400000Y-189400000D01*
X177000000Y-209500000D02*
X177000000Y-208000000D01*
X214915000Y-222260000D02*
X213240000Y-222260000D01*
X176925000Y-204640000D02*
X175140000Y-204640000D01*
X177500000Y-210000000D02*
X177000000Y-209500000D01*
X214915000Y-222260000D02*
X219735000Y-222260000D01*
X210500000Y-225000000D02*
X210500000Y-228000000D01*
X173000000Y-196000000D02*
X171980000Y-197020000D01*
X173000000Y-202500000D02*
X173000000Y-196000000D01*
X219735000Y-222260000D02*
X219915000Y-222440000D01*
X175140000Y-204640000D02*
X173000000Y-202500000D01*
X173000000Y-191000000D02*
X173000000Y-196000000D01*
X177000000Y-208000000D02*
X176925000Y-207925000D01*
X210500000Y-228000000D02*
X210500000Y-231000000D01*
X210500000Y-231000000D02*
X209500000Y-232000000D01*
X211500000Y-224000000D02*
X210500000Y-225000000D01*
X171980000Y-197020000D02*
X169305000Y-197020000D01*
%TO.N,/programmer/MOSI*%
X212000000Y-226000000D02*
X213200000Y-224800000D01*
X173000000Y-215000000D02*
X173000000Y-220500000D01*
X169490000Y-213860000D02*
X171860000Y-213860000D01*
X173000000Y-220500000D02*
X172020000Y-221480000D01*
X180100000Y-229100000D02*
X177110000Y-229100000D01*
X181000000Y-230000000D02*
X180100000Y-229100000D01*
X214915000Y-224800000D02*
X219735000Y-224800000D01*
X171860000Y-213860000D02*
X173000000Y-215000000D01*
X213200000Y-224800000D02*
X214915000Y-224800000D01*
X172020000Y-226020000D02*
X175100000Y-229100000D01*
X175100000Y-229100000D02*
X177110000Y-229100000D01*
X172020000Y-221480000D02*
X172020000Y-226020000D01*
X212000000Y-232000000D02*
X212000000Y-226000000D01*
X194500000Y-238000000D02*
X186500000Y-230000000D01*
X172020000Y-221480000D02*
X169490000Y-221480000D01*
X207500000Y-237500000D02*
X207000000Y-238000000D01*
X186500000Y-230000000D02*
X181000000Y-230000000D01*
X207000000Y-238000000D02*
X194500000Y-238000000D01*
X219735000Y-224800000D02*
X219915000Y-224980000D01*
%TO.N,/grid/PD5*%
X255390000Y-136980000D02*
X261140000Y-136980000D01*
X261140000Y-136980000D02*
X261270000Y-137110000D01*
%TO.N,/grid/PD6*%
X261140000Y-134440000D02*
X261270000Y-134570000D01*
X255390000Y-134440000D02*
X261140000Y-134440000D01*
%TO.N,/grid/PD7*%
X255390000Y-131900000D02*
X261140000Y-131900000D01*
X261140000Y-131900000D02*
X261270000Y-132030000D01*
%TO.N,/game/SCK_GAME*%
X136255000Y-132390000D02*
X141955000Y-132390000D01*
X142255000Y-132690000D02*
X143810000Y-132690000D01*
X143810000Y-132690000D02*
X146000000Y-130500000D01*
X124000000Y-140500000D02*
X124000000Y-137500000D01*
X125500000Y-132000000D02*
X133000000Y-132000000D01*
X177000000Y-117000000D02*
X179730000Y-114270000D01*
X153500000Y-171000000D02*
X153560000Y-170940000D01*
X146500000Y-119500000D02*
X173500000Y-119500000D01*
X133390000Y-132390000D02*
X136255000Y-132390000D01*
X124500000Y-137000000D02*
X124500000Y-133000000D01*
X124500000Y-133000000D02*
X125500000Y-132000000D01*
X141955000Y-132390000D02*
X142255000Y-132690000D01*
X133000000Y-132000000D02*
X133390000Y-132390000D01*
X146000000Y-120000000D02*
X146500000Y-119500000D01*
X168490000Y-170940000D02*
X153560000Y-170940000D01*
X124000000Y-137500000D02*
X124500000Y-137000000D01*
X179730000Y-114270000D02*
X186090000Y-114270000D01*
X146000000Y-130500000D02*
X146000000Y-120000000D01*
%TO.N,/game/PB2*%
X136255000Y-124770000D02*
X141955000Y-124770000D01*
X136045000Y-124980000D02*
X136255000Y-124770000D01*
X131875000Y-124980000D02*
X136045000Y-124980000D01*
X141955000Y-124770000D02*
X142255000Y-125070000D01*
%TO.N,/game/MOSI_GAME*%
X144000000Y-127000000D02*
X144500000Y-126500000D01*
X136255000Y-127310000D02*
X141955000Y-127310000D01*
X142255000Y-127610000D02*
X143390000Y-127610000D01*
X169490000Y-218940000D02*
X164560000Y-218940000D01*
X120310000Y-127310000D02*
X136255000Y-127310000D01*
X109000000Y-128500000D02*
X112500000Y-125000000D01*
X144500000Y-126000000D02*
X144500000Y-119000000D01*
X141955000Y-127310000D02*
X142255000Y-127610000D01*
X143390000Y-127610000D02*
X144000000Y-127000000D01*
X168000000Y-118000000D02*
X171500000Y-118000000D01*
X145250000Y-118250000D02*
X145500000Y-118000000D01*
X179270000Y-111730000D02*
X186090000Y-111730000D01*
X144500000Y-119000000D02*
X145250000Y-118250000D01*
X144500000Y-126500000D02*
X144500000Y-126000000D01*
X169000000Y-118000000D02*
X168000000Y-118000000D01*
X176500000Y-114500000D02*
X179270000Y-111730000D01*
X145500000Y-118000000D02*
X155000000Y-118000000D01*
X118000000Y-125000000D02*
X120310000Y-127310000D01*
X112500000Y-125000000D02*
X118000000Y-125000000D01*
X155000000Y-118000000D02*
X169000000Y-118000000D01*
X164500000Y-219000000D02*
X164560000Y-218940000D01*
%TO.N,/game/MISO_GAME*%
X165520000Y-194480000D02*
X165500000Y-194500000D01*
X122500000Y-135000000D02*
X122500000Y-132500000D01*
X136255000Y-129850000D02*
X141955000Y-129850000D01*
X125150000Y-129850000D02*
X136255000Y-129850000D01*
X122500000Y-132500000D02*
X125150000Y-129850000D01*
X169305000Y-194480000D02*
X165520000Y-194480000D01*
X141955000Y-129850000D02*
X142255000Y-130150000D01*
%TO.N,/game/B_STOP*%
X159850000Y-124350000D02*
X161000000Y-125500000D01*
X155035000Y-125070000D02*
X155755000Y-124350000D01*
X149875000Y-125070000D02*
X155035000Y-125070000D01*
X120940000Y-195940000D02*
X126795000Y-195940000D01*
X126795000Y-195940000D02*
X128675000Y-195940000D01*
X117500000Y-192500000D02*
X120940000Y-195940000D01*
X155755000Y-124350000D02*
X159850000Y-124350000D01*
X117500000Y-166500000D02*
X117500000Y-192500000D01*
X128675000Y-195940000D02*
X130635000Y-193980000D01*
%TO.N,/game/B_START*%
X119500000Y-170000000D02*
X119500000Y-179000000D01*
X152390000Y-127610000D02*
X153110000Y-126890000D01*
X130840000Y-183040000D02*
X127960000Y-183040000D01*
X124500000Y-184000000D02*
X127000000Y-184000000D01*
X162000000Y-127500000D02*
X163000000Y-126500000D01*
X127960000Y-183040000D02*
X127000000Y-184000000D01*
X153110000Y-126890000D02*
X155755000Y-126890000D01*
X119000000Y-169500000D02*
X119500000Y-170000000D01*
X149875000Y-127610000D02*
X152390000Y-127610000D01*
X119500000Y-179000000D02*
X124500000Y-184000000D01*
X155755000Y-126890000D02*
X156365000Y-127500000D01*
X156365000Y-127500000D02*
X162000000Y-127500000D01*
%TO.N,/grid/RESET_GRID*%
X255390000Y-166235000D02*
X255635000Y-166480000D01*
X199000000Y-200500000D02*
X199000000Y-203000000D01*
X253000000Y-168000000D02*
X254115000Y-168000000D01*
X199000000Y-203000000D02*
X200560000Y-204560000D01*
X255390000Y-162380000D02*
X255390000Y-166235000D01*
X252500000Y-168500000D02*
X253000000Y-168000000D01*
X207215000Y-204560000D02*
X207295000Y-204480000D01*
X254115000Y-168000000D02*
X255635000Y-166480000D01*
X225000000Y-168500000D02*
X252500000Y-168500000D01*
X261190000Y-162380000D02*
X261270000Y-162460000D01*
X201915000Y-204560000D02*
X207215000Y-204560000D01*
X223000000Y-170500000D02*
X225000000Y-168500000D01*
X198500000Y-200000000D02*
X199000000Y-200500000D01*
X191250000Y-200000000D02*
X198500000Y-200000000D01*
X255390000Y-162380000D02*
X261190000Y-162380000D01*
X200560000Y-204560000D02*
X201915000Y-204560000D01*
%TO.N,/grid/PD2*%
X261190000Y-154760000D02*
X261270000Y-154840000D01*
X255390000Y-154760000D02*
X261190000Y-154760000D01*
%TO.N,/grid/PD3*%
X255390000Y-152220000D02*
X261190000Y-152220000D01*
X261190000Y-152220000D02*
X261270000Y-152300000D01*
%TO.N,/game/RESET_GAME*%
X149875000Y-155550000D02*
X155675000Y-155550000D01*
X155675000Y-155550000D02*
X155755000Y-155470000D01*
X155755000Y-155470000D02*
X162035000Y-155470000D01*
X207215000Y-207100000D02*
X207295000Y-207020000D01*
X149875000Y-155550000D02*
X149875000Y-159720000D01*
X201915000Y-207100000D02*
X207215000Y-207100000D01*
X149875000Y-159720000D02*
X150135000Y-159980000D01*
X162035000Y-155470000D02*
X163545000Y-156980000D01*
%TO.N,/game/DIR_MCU_T_FLASH*%
X191000000Y-132500000D02*
X191000000Y-119520000D01*
X191310000Y-132810000D02*
X191000000Y-132500000D01*
X151000000Y-85500000D02*
X151000000Y-91500000D01*
X193440000Y-149790000D02*
X191790000Y-149790000D01*
X192310000Y-116810000D02*
X191000000Y-115500000D01*
X191000000Y-102000000D02*
X171000000Y-82000000D01*
X154500000Y-82000000D02*
X151000000Y-85500000D01*
X191000000Y-115500000D02*
X191000000Y-102000000D01*
X147840000Y-93500000D02*
X148010000Y-93330000D01*
X171000000Y-82000000D02*
X154500000Y-82000000D01*
X149170000Y-93330000D02*
X148010000Y-93330000D01*
X151000000Y-91500000D02*
X149170000Y-93330000D01*
X191000000Y-119520000D02*
X193710000Y-116810000D01*
X193710000Y-116810000D02*
X192310000Y-116810000D01*
X144500000Y-93500000D02*
X147840000Y-93500000D01*
X191000000Y-149000000D02*
X191000000Y-132500000D01*
X191790000Y-149790000D02*
X191000000Y-149000000D01*
X193315000Y-132810000D02*
X191310000Y-132810000D01*
%TO.N,/game/VIBRATOR*%
X142175000Y-150390000D02*
X142255000Y-150470000D01*
X136255000Y-150390000D02*
X142175000Y-150390000D01*
X136255000Y-150390000D02*
X122890000Y-150390000D01*
X122890000Y-150390000D02*
X122500000Y-150000000D01*
X117000000Y-142000000D02*
X117000000Y-136040000D01*
%TO.N,/game/B_SELECT*%
X136255000Y-142770000D02*
X118730000Y-142770000D01*
X113000000Y-148500000D02*
X113000000Y-197245000D01*
X129755000Y-208500000D02*
X130715000Y-207540000D01*
X136255000Y-142770000D02*
X142175000Y-142770000D01*
X113000000Y-197245000D02*
X124255000Y-208500000D01*
X126795000Y-208500000D02*
X129755000Y-208500000D01*
X142175000Y-142770000D02*
X142255000Y-142850000D01*
X124255000Y-208500000D02*
X126795000Y-208500000D01*
X118730000Y-142770000D02*
X113000000Y-148500000D01*
%TO.N,/game/FLASH_WP*%
X136255000Y-145310000D02*
X142175000Y-145310000D01*
X178210000Y-144710000D02*
X185820000Y-144710000D01*
X176000000Y-142500000D02*
X178210000Y-144710000D01*
X136255000Y-145310000D02*
X130810000Y-145310000D01*
X176000000Y-133500000D02*
X176000000Y-142500000D01*
X130810000Y-145310000D02*
X130500000Y-145000000D01*
X154500000Y-115000000D02*
X164500000Y-115000000D01*
X142175000Y-145310000D02*
X142255000Y-145390000D01*
%TO.N,/grid/PC1*%
X247650000Y-152340000D02*
X247770000Y-152220000D01*
X241270000Y-152340000D02*
X247650000Y-152340000D01*
%TO.N,/grid/B_SELECT*%
X247770000Y-149680000D02*
X241390000Y-149680000D01*
X241390000Y-149680000D02*
X241270000Y-149800000D01*
%TO.N,/grid/PC3*%
X247650000Y-157420000D02*
X247770000Y-157300000D01*
X241270000Y-157420000D02*
X247650000Y-157420000D01*
%TO.N,/grid/PC2*%
X247650000Y-154880000D02*
X247770000Y-154760000D01*
X241270000Y-154880000D02*
X247650000Y-154880000D01*
%TO.N,/programmer/PB0*%
X207295000Y-229880000D02*
X202195000Y-229880000D01*
X202195000Y-229880000D02*
X201915000Y-229600000D01*
%TO.N,/converter/RTS_CONV*%
X219605000Y-199400000D02*
X219915000Y-199710000D01*
X214915000Y-199400000D02*
X219605000Y-199400000D01*
%TO.N,/programmer/PC5*%
X219605000Y-196860000D02*
X219915000Y-197170000D01*
X214915000Y-196860000D02*
X219605000Y-196860000D01*
%TO.N,/converter/CTS_CONV*%
X242370000Y-202870000D02*
X246680000Y-202870000D01*
X219605000Y-201940000D02*
X219915000Y-202250000D01*
X240500000Y-201000000D02*
X242370000Y-202870000D01*
X214915000Y-201940000D02*
X219605000Y-201940000D01*
X221165000Y-201000000D02*
X240500000Y-201000000D01*
X219915000Y-202250000D02*
X221165000Y-201000000D01*
%TO.N,/programmer/PB1*%
X219735000Y-229880000D02*
X219915000Y-230060000D01*
X214915000Y-229880000D02*
X219735000Y-229880000D01*
%TO.N,/programmer/PB2*%
X219915000Y-227520000D02*
X223835000Y-227520000D01*
X219735000Y-227340000D02*
X219915000Y-227520000D01*
X214915000Y-227340000D02*
X219735000Y-227340000D01*
%TO.N,/game/MOSI*%
X193710000Y-111730000D02*
X198270000Y-111730000D01*
X227500000Y-110000000D02*
X227500000Y-126000000D01*
X201500000Y-108500000D02*
X211500000Y-108500000D01*
X211500000Y-108500000D02*
X213500000Y-106500000D01*
X225400000Y-128100000D02*
X217915000Y-128100000D01*
X220500000Y-106500000D02*
X221500000Y-107500000D01*
X213500000Y-106500000D02*
X220500000Y-106500000D01*
X227500000Y-126000000D02*
X225400000Y-128100000D01*
X225000000Y-107500000D02*
X227500000Y-110000000D01*
X198270000Y-111730000D02*
X201500000Y-108500000D01*
X221500000Y-107500000D02*
X225000000Y-107500000D01*
%TO.N,/game/SCK*%
X193710000Y-114270000D02*
X197730000Y-114270000D01*
X197730000Y-114270000D02*
X202000000Y-110000000D01*
X202000000Y-110000000D02*
X214000000Y-110000000D01*
X219560000Y-125560000D02*
X217915000Y-125560000D01*
X225000000Y-113000000D02*
X226000000Y-114000000D01*
X217000000Y-113000000D02*
X225000000Y-113000000D01*
X224500000Y-126000000D02*
X220000000Y-126000000D01*
X226000000Y-124500000D02*
X224500000Y-126000000D01*
X226000000Y-114000000D02*
X226000000Y-124500000D01*
X220000000Y-126000000D02*
X219560000Y-125560000D01*
X214000000Y-110000000D02*
X217000000Y-113000000D01*
%TO.N,Net-(U5-~{RESET})*%
X261920000Y-200330000D02*
X265830000Y-200330000D01*
X265830000Y-200330000D02*
X267000000Y-201500000D01*
X277000000Y-204000000D02*
X277025000Y-204000000D01*
X277025000Y-204000000D02*
X279545000Y-201480000D01*
X277000000Y-204000000D02*
X277215000Y-204215000D01*
X274500000Y-201500000D02*
X277000000Y-204000000D01*
X277215000Y-204215000D02*
X277215000Y-206480000D01*
X267000000Y-201500000D02*
X274500000Y-201500000D01*
%TO.N,/game/WP*%
X206500000Y-126500000D02*
X207440000Y-125560000D01*
X193440000Y-144710000D02*
X196865000Y-144710000D01*
X196865000Y-144710000D02*
X197135000Y-144980000D01*
X197135000Y-144980000D02*
X201020000Y-144980000D01*
X207440000Y-125560000D02*
X210295000Y-125560000D01*
X206500000Y-139500000D02*
X206500000Y-126500000D01*
X201020000Y-144980000D02*
X206500000Y-139500000D01*
%TO.N,/programmer/TXD*%
X207215000Y-202020000D02*
X207295000Y-201940000D01*
X201915000Y-202020000D02*
X207215000Y-202020000D01*
%TO.N,/programmer/GRID_SIGNAL*%
X178400000Y-216400000D02*
X179500000Y-217500000D01*
X174500000Y-191000000D02*
X174500000Y-185500000D01*
X179500000Y-220500000D02*
X181500000Y-222500000D01*
X175400000Y-216400000D02*
X177110000Y-216400000D01*
X206461637Y-235000000D02*
X206463637Y-234998000D01*
X208538363Y-235000000D02*
X222500000Y-235000000D01*
X185500000Y-222500000D02*
X188000000Y-225000000D01*
X177110000Y-216400000D02*
X178400000Y-216400000D01*
X174500000Y-215500000D02*
X175400000Y-216400000D01*
X230000000Y-223000000D02*
X231500000Y-221500000D01*
X230000000Y-227500000D02*
X230000000Y-223000000D01*
X214915000Y-209560000D02*
X219605000Y-209560000D01*
X188000000Y-226500000D02*
X196500000Y-235000000D01*
X196500000Y-235000000D02*
X206461637Y-235000000D01*
X227870000Y-209870000D02*
X219915000Y-209870000D01*
X176925000Y-191940000D02*
X175440000Y-191940000D01*
X175440000Y-191940000D02*
X174500000Y-191000000D01*
X231500000Y-213500000D02*
X227870000Y-209870000D01*
X206463637Y-234998000D02*
X208536363Y-234998000D01*
X219605000Y-209560000D02*
X219915000Y-209870000D01*
X181500000Y-222500000D02*
X185500000Y-222500000D01*
X178900000Y-168400000D02*
X179980000Y-169480000D01*
X174500000Y-207500000D02*
X174500000Y-215500000D01*
X176110000Y-168400000D02*
X178900000Y-168400000D01*
X188000000Y-225000000D02*
X188000000Y-226500000D01*
X231500000Y-221500000D02*
X231500000Y-213500000D01*
X208536363Y-234998000D02*
X208538363Y-235000000D01*
X179980000Y-169480000D02*
X188135000Y-169480000D01*
X179500000Y-217500000D02*
X179500000Y-220500000D01*
X222500000Y-235000000D02*
X230000000Y-227500000D01*
%TO.N,/programmer/GAME_SIGNAL*%
X219605000Y-207020000D02*
X219915000Y-207330000D01*
X168450000Y-175980000D02*
X168490000Y-176020000D01*
X161295000Y-175980000D02*
X168450000Y-175980000D01*
X214915000Y-207020000D02*
X219605000Y-207020000D01*
%TO.N,/programmer/EXT_SIGNAL*%
X163600000Y-202100000D02*
X169305000Y-202100000D01*
X214915000Y-204480000D02*
X219605000Y-204480000D01*
X167570000Y-179480000D02*
X168490000Y-178560000D01*
X161455000Y-199955000D02*
X163600000Y-202100000D01*
X219915000Y-204790000D02*
X220625000Y-205500000D01*
X231500000Y-208000000D02*
X240500000Y-217000000D01*
X161455000Y-224955000D02*
X163060000Y-226560000D01*
X219605000Y-204480000D02*
X219915000Y-204790000D01*
X161455000Y-179480000D02*
X167570000Y-179480000D01*
X161455000Y-179480000D02*
X161455000Y-199955000D01*
X255500000Y-222000000D02*
X263500000Y-222000000D01*
X240500000Y-217000000D02*
X250500000Y-217000000D01*
X220625000Y-205500000D02*
X230500000Y-205500000D01*
X161455000Y-199955000D02*
X161455000Y-224955000D01*
X230500000Y-205500000D02*
X231500000Y-206500000D01*
X266295000Y-224795000D02*
X266295000Y-230480000D01*
X231500000Y-206500000D02*
X231500000Y-208000000D01*
X263500000Y-222000000D02*
X266295000Y-224795000D01*
X250500000Y-217000000D02*
X255500000Y-222000000D01*
X163060000Y-226560000D02*
X169490000Y-226560000D01*
%TO.N,/programmer/MOSI_EXT*%
X259000000Y-227500000D02*
X257940000Y-226440000D01*
X208622735Y-236500000D02*
X253500000Y-236500000D01*
X182000000Y-228000000D02*
X187000000Y-228000000D01*
X208121735Y-235999000D02*
X208622735Y-236500000D01*
X195500000Y-236500000D02*
X206377265Y-236500000D01*
X259000000Y-231000000D02*
X259000000Y-227500000D01*
X206878265Y-235999000D02*
X208121735Y-235999000D01*
X177110000Y-226560000D02*
X180560000Y-226560000D01*
X206377265Y-236500000D02*
X206878265Y-235999000D01*
X180560000Y-226560000D02*
X182000000Y-228000000D01*
X253500000Y-236500000D02*
X259000000Y-231000000D01*
X257940000Y-226440000D02*
X253295000Y-226440000D01*
X187000000Y-228000000D02*
X195500000Y-236500000D01*
%TO.N,Net-(D1-A)*%
X272295000Y-190640000D02*
X275295000Y-187640000D01*
X272295000Y-190980000D02*
X272295000Y-190640000D01*
%TO.N,Net-(D2-A)*%
X237980000Y-207980000D02*
X236640000Y-206640000D01*
X236640000Y-206640000D02*
X235295000Y-206640000D01*
X239295000Y-207980000D02*
X237980000Y-207980000D01*
%TO.N,/converter/WAKE_UP*%
X207295000Y-224800000D02*
X202195000Y-224800000D01*
X201915000Y-224520000D02*
X193755000Y-224520000D01*
X202500000Y-233500000D02*
X209500000Y-233500000D01*
X228000000Y-227500000D02*
X228000000Y-222500000D01*
X222000000Y-233500000D02*
X223000000Y-232500000D01*
X223000000Y-232500000D02*
X228000000Y-227500000D01*
X193295000Y-226795000D02*
X200000000Y-233500000D01*
X202195000Y-224800000D02*
X201915000Y-224520000D01*
X200000000Y-233500000D02*
X202500000Y-233500000D01*
X244170000Y-213000000D02*
X246680000Y-210490000D01*
X228000000Y-222500000D02*
X228000000Y-222000000D01*
X193295000Y-224980000D02*
X193295000Y-226795000D01*
X209500000Y-233500000D02*
X222000000Y-233500000D01*
X242000000Y-213000000D02*
X244170000Y-213000000D01*
X193755000Y-224520000D02*
X193295000Y-224980000D01*
%TO.N,/converter/CLOCK*%
X239500000Y-213000000D02*
X235500000Y-209000000D01*
X233500000Y-205000000D02*
X232500000Y-204000000D01*
X261920000Y-190170000D02*
X261520000Y-190170000D01*
X244500000Y-215500000D02*
X242000000Y-215500000D01*
X257500000Y-196500000D02*
X257500000Y-205500000D01*
X249000000Y-214000000D02*
X247500000Y-215500000D01*
X247500000Y-215500000D02*
X244500000Y-215500000D01*
X204500000Y-211500000D02*
X204500000Y-211000000D01*
X261520000Y-190170000D02*
X257500000Y-194190000D01*
X235000000Y-208500000D02*
X234000000Y-208500000D01*
X234000000Y-208500000D02*
X233500000Y-208000000D01*
X205940000Y-209560000D02*
X207295000Y-209560000D01*
X242000000Y-215500000D02*
X239500000Y-213000000D01*
X257500000Y-194190000D02*
X257500000Y-196500000D01*
X233500000Y-208000000D02*
X233500000Y-205000000D01*
X257500000Y-205500000D02*
X249000000Y-214000000D01*
X204500000Y-211000000D02*
X205940000Y-209560000D01*
X203000000Y-213000000D02*
X204500000Y-211500000D01*
X235500000Y-209000000D02*
X235000000Y-208500000D01*
X232000000Y-203500000D02*
X227000000Y-203500000D01*
X232500000Y-204000000D02*
X232000000Y-203500000D01*
%TO.N,Net-(D1-K)*%
X267020000Y-190980000D02*
X269755000Y-190980000D01*
X265290000Y-192710000D02*
X267020000Y-190980000D01*
X261920000Y-192710000D02*
X265290000Y-192710000D01*
%TO.N,Net-(D2-K)*%
X246680000Y-207950000D02*
X241865000Y-207950000D01*
X241865000Y-207950000D02*
X241835000Y-207980000D01*
%TO.N,/converter/D-*%
X263890000Y-208720000D02*
X269927108Y-208720000D01*
X258000000Y-213275000D02*
X256795000Y-214480000D01*
X259550000Y-207950000D02*
X258000000Y-209500000D01*
X291007500Y-228785392D02*
X291007500Y-224230000D01*
X258000000Y-209500000D02*
X258000000Y-213275000D01*
X291007500Y-224230000D02*
X290507500Y-223730000D01*
X287792892Y-232000000D02*
X291007500Y-228785392D01*
X269927108Y-208720000D02*
X277000000Y-215792892D01*
X280207108Y-232000000D02*
X287792892Y-232000000D01*
X277000000Y-215792892D02*
X277000000Y-228792892D01*
X263120000Y-207950000D02*
X263890000Y-208720000D01*
X261920000Y-207950000D02*
X259550000Y-207950000D01*
X277000000Y-228792892D02*
X280207108Y-232000000D01*
X261920000Y-207950000D02*
X263120000Y-207950000D01*
%TO.N,/converter/D+*%
X263890000Y-209720000D02*
X269512892Y-209720000D01*
X261920000Y-213105000D02*
X263295000Y-214480000D01*
X279792892Y-233000000D02*
X288207108Y-233000000D01*
X263120000Y-210490000D02*
X263890000Y-209720000D01*
X269512892Y-209720000D02*
X276000000Y-216207108D01*
X261920000Y-210490000D02*
X263120000Y-210490000D01*
X288207108Y-233000000D02*
X292007500Y-229199608D01*
X292007500Y-224230000D02*
X292507500Y-223730000D01*
X276000000Y-229207108D02*
X279792892Y-233000000D01*
X276000000Y-216207108D02*
X276000000Y-229207108D01*
X261920000Y-210490000D02*
X261920000Y-213105000D01*
X292007500Y-229199608D02*
X292007500Y-224230000D01*
%TO.N,/game/DIR_FLASH_T_MCU*%
X146880000Y-97000000D02*
X148010000Y-95870000D01*
X144580000Y-97000000D02*
X146880000Y-97000000D01*
%TO.N,Net-(BZ1--)*%
X116080000Y-105420000D02*
X116000000Y-105420000D01*
X120000000Y-101500000D02*
X116080000Y-105420000D01*
%TO.N,Net-(U10-A2)*%
X147220000Y-90000000D02*
X148010000Y-90790000D01*
X144580000Y-90000000D02*
X147220000Y-90000000D01*
%TO.N,Net-(U10-A1)*%
X146260000Y-86500000D02*
X148010000Y-88250000D01*
X144580000Y-86500000D02*
X146260000Y-86500000D01*
%TO.N,Net-(U10-~{INT})*%
X155630000Y-93330000D02*
X158750000Y-93330000D01*
X158750000Y-93330000D02*
X158920000Y-93500000D01*
%TO.N,/game/BUZZER_PWM*%
X149875000Y-130150000D02*
X151850000Y-130150000D01*
X127600000Y-106100000D02*
X127600000Y-101500000D01*
X151850000Y-130150000D02*
X152500000Y-129500000D01*
X139000000Y-117500000D02*
X127600000Y-106100000D01*
X155685000Y-129500000D02*
X155755000Y-129430000D01*
X152500000Y-129500000D02*
X155685000Y-129500000D01*
%TD*%
M02*
