%TF.GenerationSoftware,KiCad,Pcbnew,9.0.4*%
%TF.CreationDate,2025-10-10T02:09:38-04:00*%
%TF.ProjectId,snake_pcb,736e616b-655f-4706-9362-2e6b69636164,rev?*%
%TF.SameCoordinates,Original*%
%TF.FileFunction,Paste,Top*%
%TF.FilePolarity,Positive*%
%FSLAX46Y46*%
G04 Gerber Fmt 4.6, Leading zero omitted, Abs format (unit mm)*
G04 Created by KiCad (PCBNEW 9.0.4) date 2025-10-10 02:09:38*
%MOMM*%
%LPD*%
G01*
G04 APERTURE LIST*
G04 Aperture macros list*
%AMRoundRect*
0 Rectangle with rounded corners*
0 $1 Rounding radius*
0 $2 $3 $4 $5 $6 $7 $8 $9 X,Y pos of 4 corners*
0 Add a 4 corners polygon primitive as box body*
4,1,4,$2,$3,$4,$5,$6,$7,$8,$9,$2,$3,0*
0 Add four circle primitives for the rounded corners*
1,1,$1+$1,$2,$3*
1,1,$1+$1,$4,$5*
1,1,$1+$1,$6,$7*
1,1,$1+$1,$8,$9*
0 Add four rect primitives between the rounded corners*
20,1,$1+$1,$2,$3,$4,$5,0*
20,1,$1+$1,$4,$5,$6,$7,0*
20,1,$1+$1,$6,$7,$8,$9,0*
20,1,$1+$1,$8,$9,$2,$3,0*%
G04 Aperture macros list end*
%ADD10RoundRect,0.250000X0.475000X-0.250000X0.475000X0.250000X-0.475000X0.250000X-0.475000X-0.250000X0*%
%ADD11RoundRect,0.250000X-0.475000X0.250000X-0.475000X-0.250000X0.475000X-0.250000X0.475000X0.250000X0*%
%ADD12RoundRect,0.250000X0.250000X0.475000X-0.250000X0.475000X-0.250000X-0.475000X0.250000X-0.475000X0*%
%ADD13RoundRect,0.250000X-0.250000X-0.475000X0.250000X-0.475000X0.250000X0.475000X-0.250000X0.475000X0*%
%ADD14RoundRect,0.140000X0.140000X0.170000X-0.140000X0.170000X-0.140000X-0.170000X0.140000X-0.170000X0*%
%ADD15RoundRect,0.140000X-0.170000X0.140000X-0.170000X-0.140000X0.170000X-0.140000X0.170000X0.140000X0*%
%ADD16RoundRect,0.140000X-0.140000X-0.170000X0.140000X-0.170000X0.140000X0.170000X-0.140000X0.170000X0*%
%ADD17RoundRect,0.375000X-0.625000X-0.375000X0.625000X-0.375000X0.625000X0.375000X-0.625000X0.375000X0*%
%ADD18RoundRect,0.500000X-0.500000X-1.400000X0.500000X-1.400000X0.500000X1.400000X-0.500000X1.400000X0*%
%ADD19RoundRect,0.140000X0.170000X-0.140000X0.170000X0.140000X-0.170000X0.140000X-0.170000X-0.140000X0*%
G04 APERTURE END LIST*
D10*
%TO.C,C45*%
X218870000Y-141410000D03*
X218870000Y-139510000D03*
%TD*%
D11*
%TO.C,C77*%
X204000000Y-93550000D03*
X204000000Y-95450000D03*
%TD*%
D12*
%TO.C,C48*%
X230510000Y-133750000D03*
X228610000Y-133750000D03*
%TD*%
D11*
%TO.C,C46*%
X236100000Y-99100000D03*
X236100000Y-101000000D03*
%TD*%
%TO.C,C44*%
X267500000Y-95550000D03*
X267500000Y-97450000D03*
%TD*%
%TO.C,C31*%
X295000000Y-120050000D03*
X295000000Y-121950000D03*
%TD*%
D10*
%TO.C,C29*%
X224000000Y-117900000D03*
X224000000Y-116000000D03*
%TD*%
D13*
%TO.C,C23*%
X260050000Y-143500000D03*
X261950000Y-143500000D03*
%TD*%
%TO.C,C19*%
X165920000Y-143420000D03*
X167820000Y-143420000D03*
%TD*%
D12*
%TO.C,C15*%
X269450000Y-101500000D03*
X267550000Y-101500000D03*
%TD*%
%TO.C,C10*%
X242950000Y-186000000D03*
X241050000Y-186000000D03*
%TD*%
D13*
%TO.C,C9*%
X180550000Y-217000000D03*
X182450000Y-217000000D03*
%TD*%
%TO.C,C7*%
X179600000Y-163600000D03*
X181500000Y-163600000D03*
%TD*%
D11*
%TO.C,C6*%
X204000000Y-215050000D03*
X204000000Y-216950000D03*
%TD*%
D14*
%TO.C,C20*%
X137410000Y-135100000D03*
X136450000Y-135100000D03*
%TD*%
%TO.C,C11*%
X242480000Y-184000000D03*
X241520000Y-184000000D03*
%TD*%
D15*
%TO.C,C40*%
X292000000Y-121020000D03*
X292000000Y-121980000D03*
%TD*%
D16*
%TO.C,C14*%
X179815000Y-166480000D03*
X180775000Y-166480000D03*
%TD*%
%TO.C,C22*%
X165895000Y-145890000D03*
X166855000Y-145890000D03*
%TD*%
%TO.C,C12*%
X268015000Y-197880000D03*
X268975000Y-197880000D03*
%TD*%
D17*
%TO.C,U9*%
X222795000Y-137480000D03*
X222795000Y-139780000D03*
D18*
X229095000Y-139780000D03*
D17*
X222795000Y-142080000D03*
%TD*%
D16*
%TO.C,C16*%
X181020000Y-189500000D03*
X181980000Y-189500000D03*
%TD*%
D19*
%TO.C,C33*%
X198795000Y-141960000D03*
X198795000Y-141000000D03*
%TD*%
D14*
%TO.C,C25*%
X242500000Y-142500000D03*
X241540000Y-142500000D03*
%TD*%
D16*
%TO.C,C13*%
X267915000Y-205180000D03*
X268875000Y-205180000D03*
%TD*%
%TO.C,C8*%
X180540000Y-214000000D03*
X181500000Y-214000000D03*
%TD*%
%TO.C,C34*%
X196520000Y-125000000D03*
X197480000Y-125000000D03*
%TD*%
D14*
%TO.C,C21*%
X137350000Y-137140000D03*
X136390000Y-137140000D03*
%TD*%
D19*
%TO.C,C37*%
X181500000Y-124960000D03*
X181500000Y-124000000D03*
%TD*%
D14*
%TO.C,C26*%
X242500000Y-145500000D03*
X241540000Y-145500000D03*
%TD*%
D16*
%TO.C,C24*%
X260020000Y-146000000D03*
X260980000Y-146000000D03*
%TD*%
D15*
%TO.C,C41*%
X277500000Y-129500000D03*
X277500000Y-130460000D03*
%TD*%
D19*
%TO.C,C30*%
X222000000Y-119960000D03*
X222000000Y-119000000D03*
%TD*%
%TO.C,C32*%
X207860000Y-152420000D03*
X207860000Y-151460000D03*
%TD*%
D16*
%TO.C,C5*%
X218540000Y-215500000D03*
X219500000Y-215500000D03*
%TD*%
D19*
%TO.C,C38*%
X180295000Y-142460000D03*
X180295000Y-141500000D03*
%TD*%
%TO.C,C4*%
X219000000Y-213480000D03*
X219000000Y-212520000D03*
%TD*%
D14*
%TO.C,C2*%
X296275000Y-180980000D03*
X295315000Y-180980000D03*
%TD*%
D16*
%TO.C,C35*%
X220400000Y-153510000D03*
X221360000Y-153510000D03*
%TD*%
D14*
%TO.C,C36*%
X183860000Y-106820000D03*
X182900000Y-106820000D03*
%TD*%
D19*
%TO.C,C39*%
X196660000Y-107760000D03*
X196660000Y-106800000D03*
%TD*%
M02*
