M48
; DRILL file {KiCad 9.0.4} date 2025-10-10T02:09:55-0400
; FORMAT={-:-/ absolute / metric / decimal}
; #@! TF.CreationDate,2025-10-10T02:09:55-04:00
; #@! TF.GenerationSoftware,Kicad,Pcbnew,9.0.4
; #@! TF.FileFunction,Plated,1,4,PTH
FMAT,2
METRIC
; #@! TA.AperFunction,Plated,PTH,ViaDrill
T1C0.400
; #@! TA.AperFunction,Plated,PTH,ComponentDrill
T2C0.800
; #@! TA.AperFunction,Plated,PTH,ComponentDrill
T3C0.900
; #@! TA.AperFunction,Plated,PTH,ComponentDrill
T4C0.950
; #@! TA.AperFunction,Plated,PTH,ViaDrill
T5C1.000
; #@! TA.AperFunction,Plated,PTH,ComponentDrill
T6C1.000
; #@! TA.AperFunction,Plated,PTH,ComponentDrill
T7C1.100
; #@! TA.AperFunction,Plated,PTH,ComponentDrill
T8C1.300
; #@! TA.AperFunction,Plated,PTH,ComponentDrill
T9C1.500
; #@! TA.AperFunction,Plated,PTH,ComponentDrill
T10C2.300
%
G90
G05
T1
X134.19Y-136.17
X138.95Y-137.09
X163.0Y-196.5
X163.5Y-224.5
X166.5Y-212.0
X168.48Y-145.87
X172.5Y-210.5
X178.98Y-189.5
X180.5Y-140.0
X181.0Y-122.0
X181.39Y-106.82
X183.0Y-156.0
X183.35Y-164.15
X183.5Y-189.0
X184.5Y-214.5
X186.5Y-160.5
X187.0Y-152.5
X188.0Y-162.0
X188.0Y-185.5
X189.0Y-157.5
X191.5Y-152.5
X194.5Y-188.5
X194.5Y-198.0
X195.0Y-159.0
X196.5Y-162.0
X197.0Y-105.0
X197.5Y-122.5
X200.0Y-140.0
X201.5Y-159.0
X202.5Y-97.5
X205.95Y-152.27
X208.5Y-180.0
X214.5Y-181.5
X216.5Y-194.0
X218.0Y-143.5
X220.0Y-135.0
X221.0Y-115.0
X222.85Y-153.54
X224.0Y-189.55
X224.5Y-192.0
X229.0Y-192.5
X230.5Y-158.0
X234.0Y-153.0
X234.0Y-217.0
X234.5Y-102.0
X235.5Y-219.0
X239.0Y-184.5
X239.0Y-221.0
X239.5Y-144.5
X263.5Y-146.0
X265.0Y-101.0
X284.5Y-189.0
X286.5Y-219.5
X293.5Y-210.5
X295.0Y-118.0
X296.5Y-201.5
T2
X116.0Y-105.42
X116.0Y-115.58
X117.0Y-118.42
X117.0Y-128.58
X121.635Y-120.98
X121.715Y-124.98
X130.635Y-193.98
X130.635Y-230.04
X130.715Y-207.54
X130.715Y-222.54
X130.715Y-226.04
X130.715Y-234.04
X130.84Y-183.04
X131.215Y-171.74
X131.215Y-175.24
X131.795Y-120.98
X131.875Y-124.98
X134.34Y-93.5
X134.42Y-86.5
X134.42Y-90.0
X134.42Y-97.0
X140.795Y-193.98
X140.795Y-230.04
X140.875Y-207.54
X140.875Y-222.54
X140.875Y-226.04
X140.875Y-234.04
X141.0Y-183.04
X141.375Y-171.74
X141.375Y-175.24
X142.255Y-122.53
X142.255Y-125.07
X142.255Y-127.61
X142.255Y-130.15
X142.255Y-132.69
X142.255Y-135.23
X142.255Y-137.77
X142.255Y-140.31
X142.255Y-142.85
X142.255Y-145.39
X142.255Y-147.93
X142.255Y-150.47
X142.255Y-153.01
X142.255Y-155.55
X144.5Y-93.5
X144.58Y-86.5
X144.58Y-90.0
X144.58Y-97.0
X148.01Y-85.71
X148.01Y-88.25
X148.01Y-90.79
X148.01Y-93.33
X148.01Y-95.87
X148.01Y-98.41
X148.01Y-100.95
X148.01Y-103.49
X149.875Y-122.53
X149.875Y-125.07
X149.875Y-127.61
X149.875Y-130.15
X149.875Y-132.69
X149.875Y-135.23
X149.875Y-137.77
X149.875Y-140.31
X149.875Y-142.85
X149.875Y-145.39
X149.875Y-147.93
X149.875Y-150.47
X149.875Y-153.01
X149.875Y-155.55
X150.135Y-159.98
X151.135Y-175.98
X151.295Y-179.48
X155.63Y-85.71
X155.63Y-88.25
X155.63Y-90.79
X155.63Y-93.33
X155.63Y-95.87
X155.63Y-98.41
X155.63Y-100.95
X155.63Y-103.49
X158.92Y-93.5
X159.715Y-121.98
X160.295Y-159.98
X161.295Y-175.98
X161.455Y-179.48
X161.755Y-132.39
X162.255Y-139.89
X164.255Y-132.39
X164.755Y-139.89
X168.49Y-165.86
X168.49Y-168.4
X168.49Y-170.94
X168.49Y-173.48
X168.49Y-176.02
X168.49Y-178.56
X168.49Y-181.1
X169.08Y-93.5
X169.305Y-189.4
X169.305Y-191.94
X169.305Y-194.48
X169.305Y-197.02
X169.305Y-199.56
X169.305Y-202.1
X169.305Y-204.64
X169.49Y-213.86
X169.49Y-216.4
X169.49Y-218.94
X169.49Y-221.48
X169.49Y-224.02
X169.49Y-226.56
X169.49Y-229.1
X169.875Y-121.98
X176.11Y-165.86
X176.11Y-168.4
X176.11Y-170.94
X176.11Y-173.48
X176.11Y-176.02
X176.11Y-178.56
X176.11Y-181.1
X176.925Y-189.4
X176.925Y-191.94
X176.925Y-194.48
X176.925Y-197.02
X176.925Y-199.56
X176.925Y-202.1
X176.925Y-204.64
X177.11Y-213.86
X177.11Y-216.4
X177.11Y-218.94
X177.11Y-221.48
X177.11Y-224.02
X177.11Y-226.56
X177.11Y-229.1
X183.135Y-224.98
X185.695Y-125.19
X185.695Y-127.73
X185.695Y-130.27
X185.695Y-132.81
X185.82Y-142.17
X185.82Y-144.71
X185.82Y-147.25
X185.82Y-149.79
X186.09Y-109.19
X186.09Y-111.73
X186.09Y-114.27
X186.09Y-116.81
X188.135Y-169.48
X189.915Y-213.02
X189.915Y-220.02
X192.415Y-213.02
X192.415Y-220.02
X193.295Y-224.98
X193.315Y-125.19
X193.315Y-127.73
X193.315Y-130.27
X193.315Y-132.81
X193.44Y-142.17
X193.44Y-144.71
X193.44Y-147.25
X193.44Y-149.79
X193.71Y-109.19
X193.71Y-111.73
X193.71Y-114.27
X193.71Y-116.81
X197.135Y-144.98
X198.295Y-169.48
X200.42Y-83.5
X200.42Y-87.5
X202.295Y-182.32
X202.295Y-192.48
X206.715Y-115.48
X207.295Y-144.98
X207.295Y-196.86
X207.295Y-199.4
X207.295Y-201.94
X207.295Y-204.48
X207.295Y-207.02
X207.295Y-209.56
X207.295Y-212.1
X207.295Y-214.64
X207.295Y-217.18
X207.295Y-219.72
X207.295Y-222.26
X207.295Y-224.8
X207.295Y-227.34
X207.295Y-229.88
X210.295Y-120.48
X210.295Y-123.02
X210.295Y-125.56
X210.295Y-128.1
X210.49Y-154.67
X210.49Y-157.21
X210.49Y-159.75
X210.49Y-162.29
X210.58Y-83.5
X210.58Y-87.5
X214.915Y-196.86
X214.915Y-199.4
X214.915Y-201.94
X214.915Y-204.48
X214.915Y-207.02
X214.915Y-209.56
X214.915Y-212.1
X214.915Y-214.64
X214.915Y-217.18
X214.915Y-219.72
X214.915Y-222.26
X214.915Y-224.8
X214.915Y-227.34
X214.915Y-229.88
X216.875Y-115.48
X217.0Y-99.42
X217.0Y-109.58
X217.915Y-120.48
X217.915Y-123.02
X217.915Y-125.56
X217.915Y-128.1
X218.11Y-154.67
X218.11Y-157.21
X218.11Y-159.75
X218.11Y-162.29
X220.5Y-85.25
X220.5Y-87.75
X222.0Y-91.69
X222.0Y-99.31
X222.255Y-123.83
X223.835Y-227.52
X232.415Y-123.83
X233.995Y-227.52
X234.52Y-86.05
X234.52Y-90.55
X235.295Y-118.32
X235.295Y-128.48
X235.295Y-196.48
X235.295Y-206.64
X244.68Y-86.05
X244.68Y-90.55
X246.68Y-177.47
X246.68Y-180.01
X246.68Y-182.55
X246.68Y-185.09
X246.68Y-187.63
X246.68Y-190.17
X246.68Y-192.71
X246.68Y-195.25
X246.68Y-197.79
X246.68Y-200.33
X246.68Y-202.87
X246.68Y-205.41
X246.68Y-207.95
X246.68Y-210.49
X247.77Y-129.36
X247.77Y-131.9
X247.77Y-134.44
X247.77Y-136.98
X247.77Y-139.52
X247.77Y-142.06
X247.77Y-144.6
X247.77Y-147.14
X247.77Y-149.68
X247.77Y-152.22
X247.77Y-154.76
X247.77Y-157.3
X247.77Y-159.84
X247.77Y-162.38
X247.795Y-123.48
X249.6Y-102.47
X249.6Y-112.63
X255.0Y-87.75
X255.0Y-90.25
X255.1Y-95.24
X255.1Y-102.86
X255.39Y-129.36
X255.39Y-131.9
X255.39Y-134.44
X255.39Y-136.98
X255.39Y-139.52
X255.39Y-142.06
X255.39Y-144.6
X255.39Y-147.14
X255.39Y-149.68
X255.39Y-152.22
X255.39Y-154.76
X255.39Y-157.3
X255.39Y-159.84
X255.39Y-162.38
X255.635Y-166.48
X257.955Y-123.48
X260.635Y-124.98
X261.92Y-177.47
X261.92Y-180.01
X261.92Y-182.55
X261.92Y-185.09
X261.92Y-187.63
X261.92Y-190.17
X261.92Y-192.71
X261.92Y-195.25
X261.92Y-197.79
X261.92Y-200.33
X261.92Y-202.87
X261.92Y-205.41
X261.92Y-207.95
X261.92Y-210.49
X263.42Y-83.5
X263.42Y-87.5
X264.295Y-230.48
X265.795Y-166.48
X266.295Y-230.48
X268.295Y-230.48
X270.27Y-136.8
X270.27Y-143.8
X270.795Y-124.98
X272.77Y-136.8
X272.77Y-143.8
X273.58Y-83.5
X273.58Y-87.5
X275.295Y-177.48
X275.295Y-187.64
X277.215Y-206.48
X278.795Y-187.82
X278.795Y-197.98
X280.905Y-123.49
X280.905Y-126.03
X280.905Y-128.57
X280.905Y-131.11
X281.5Y-99.84
X281.5Y-110.0
X283.295Y-166.9
X283.295Y-177.06
X283.5Y-85.0
X283.5Y-87.5
X287.0Y-93.19
X287.0Y-100.81
X287.375Y-206.48
X288.525Y-123.49
X288.525Y-126.03
X288.525Y-128.57
X288.525Y-131.11
X289.545Y-170.98
X292.045Y-170.98
X297.795Y-169.23
X297.795Y-171.73
T3
X214.5Y-85.23
X214.5Y-87.77
X239.295Y-207.98
X241.835Y-207.98
X249.1Y-88.28
X249.1Y-90.82
X269.755Y-190.98
X272.295Y-190.98
X278.0Y-85.0
X278.0Y-87.54
X284.255Y-181.98
X286.795Y-181.98
T4
X290.507Y-221.23
X290.507Y-223.73
X292.507Y-221.23
X292.507Y-223.73
T5
X109.0Y-128.5
X110.5Y-169.5
X111.0Y-174.5
X116.5Y-198.0
X117.0Y-142.0
X117.5Y-166.5
X118.5Y-222.0
X119.0Y-169.5
X122.0Y-172.0
X122.0Y-174.5
X122.5Y-135.0
X122.5Y-150.0
X124.0Y-140.5
X124.5Y-160.48
X125.5Y-157.98
X128.0Y-82.0
X130.5Y-145.0
X139.0Y-117.5
X140.295Y-157.98
X140.295Y-160.48
X153.56Y-170.94
X154.5Y-115.0
X161.0Y-125.5
X163.0Y-126.5
X164.5Y-115.0
X164.5Y-202.0
X164.56Y-218.94
X165.5Y-194.5
X166.0Y-84.0
X171.5Y-118.0
X173.0Y-88.5
X173.5Y-119.5
X174.5Y-185.5
X174.5Y-207.5
X176.0Y-133.5
X176.5Y-114.5
X177.0Y-117.0
X177.5Y-210.0
X178.0Y-84.0
X197.5Y-226.02
X200.0Y-119.5
X200.5Y-213.0
X203.0Y-213.0
X205.5Y-232.0
X206.0Y-119.5
X207.5Y-237.5
X212.0Y-232.0
X216.5Y-188.5
X220.5Y-186.0
X223.0Y-170.5
X226.5Y-189.5
X227.0Y-203.5
X228.0Y-222.0
X230.0Y-209.5
X231.5Y-183.0
X231.5Y-186.5
X242.0Y-213.0
T6
X117.0Y-133.5
X117.0Y-136.04
X119.0Y-156.46
X119.0Y-159.0
X119.0Y-161.54
X120.0Y-101.5
X126.77Y-166.92
X126.77Y-169.46
X126.77Y-172.0
X126.77Y-174.54
X126.795Y-195.94
X126.795Y-198.48
X126.795Y-208.5
X126.795Y-211.04
X126.795Y-219.96
X126.795Y-222.5
X126.795Y-225.04
X126.795Y-227.58
X126.795Y-230.12
X127.0Y-184.0
X127.0Y-186.54
X127.6Y-101.5
X136.255Y-122.23
X136.255Y-124.77
X136.255Y-127.31
X136.255Y-129.85
X136.255Y-132.39
X136.255Y-142.77
X136.255Y-145.31
X136.255Y-147.85
X136.255Y-150.39
X136.255Y-152.93
X136.255Y-155.47
X155.755Y-121.81
X155.755Y-124.35
X155.755Y-126.89
X155.755Y-129.43
X155.755Y-142.77
X155.755Y-145.31
X155.755Y-147.85
X155.755Y-150.39
X155.755Y-152.93
X155.755Y-155.47
X157.755Y-133.39
X157.755Y-138.39
X196.915Y-213.47
X196.915Y-218.47
X201.915Y-196.94
X201.915Y-199.48
X201.915Y-202.02
X201.915Y-204.56
X201.915Y-207.1
X201.915Y-209.64
X201.915Y-221.98
X201.915Y-224.52
X201.915Y-227.06
X201.915Y-229.6
X219.915Y-197.17
X219.915Y-199.71
X219.915Y-202.25
X219.915Y-204.79
X219.915Y-207.33
X219.915Y-209.87
X219.915Y-219.9
X219.915Y-222.44
X219.915Y-224.98
X219.915Y-227.52
X219.915Y-230.06
X227.77Y-173.925
X227.77Y-176.465
X227.77Y-179.005
X238.295Y-176.98
X240.835Y-176.98
X241.27Y-129.22
X241.27Y-131.76
X241.27Y-134.3
X241.27Y-136.84
X241.27Y-139.38
X241.27Y-149.8
X241.27Y-152.34
X241.27Y-154.88
X241.27Y-157.42
X241.27Y-159.96
X241.27Y-162.5
X241.295Y-190.44
X241.295Y-192.98
X243.135Y-226.44
X243.135Y-228.98
X245.675Y-226.44
X245.675Y-228.98
X248.215Y-226.44
X248.215Y-228.98
X250.755Y-226.44
X250.755Y-228.98
X253.295Y-226.44
X253.295Y-228.98
X256.795Y-214.48
X256.795Y-219.48
X261.27Y-129.49
X261.27Y-132.03
X261.27Y-134.57
X261.27Y-137.11
X261.27Y-149.76
X261.27Y-152.3
X261.27Y-154.84
X261.27Y-157.38
X261.27Y-159.92
X261.27Y-162.46
X263.295Y-214.48
X263.295Y-219.48
X265.77Y-138.3
X265.77Y-143.3
X270.795Y-157.48
X273.335Y-157.48
X288.0Y-143.0
X288.0Y-145.54
X288.0Y-148.08
X288.0Y-150.62
X288.0Y-157.46
X288.0Y-160.0
X288.0Y-162.54
T7
X210.1Y-95.95
X211.8Y-95.95
X213.5Y-95.95
X215.2Y-95.95
X216.9Y-95.95
X242.7Y-98.5
X244.4Y-98.5
X246.1Y-98.5
X247.8Y-98.5
X249.5Y-98.5
X273.9Y-95.5
X275.6Y-95.5
X277.3Y-95.5
X279.0Y-95.5
X280.7Y-95.5
T8
X163.545Y-156.98
X170.045Y-156.98
X184.75Y-200.0
X191.25Y-200.0
X192.045Y-192.48
X198.545Y-192.48
X279.545Y-201.48
X286.045Y-201.48
T9
X262.195Y-230.48
X270.395Y-230.48
T10
X295.368Y-216.48
X295.368Y-228.48
T6
X290.295Y-192.438G85X290.295Y-190.438
G05
X294.295Y-186.737G85X292.295Y-186.737
G05
X296.295Y-192.438G85X296.295Y-190.438
G05
M30
